<?xml version="1.0" standalone="no"?>
<!DOCTYPE svg PUBLIC "-//W3C//DTD SVG 1.1//EN" "http://www.w3.org/Graphics/SVG/1.1/DTD/svg11.dtd" >
<svg xmlns="http://www.w3.org/2000/svg" xmlns:xlink="http://www.w3.org/1999/xlink" version="1.1">
<metadata>
Created by FontForge 20201107 at Thu Mar 21 11:25:33 2024
 By 
Copyright 2019 (c) Paris 2024 Olympic and Paralympic Games
</metadata>
<defs>
<font id="Paris2024-ExtraLight" horiz-adv-x="536" >
  <font-face 
    font-family="Paris 2024 Variable ExtLt"
    font-weight="200"
    font-stretch="normal"
    units-per-em="1000"
    panose-1="2 1 5 3 3 2 1 2 1 3"
    ascent="750"
    descent="-250"
    x-height="467"
    cap-height="650"
    bbox="-68 -212 1063 1057"
    underline-thickness="33"
    underline-position="-82"
    unicode-range="U+000D-F6C3"
  />
<missing-glyph horiz-adv-x="564" 
d="M483 0h-401v650h401v-650zM119 35h326v580h-326v-580z" />
    <glyph glyph-name=".notdef" horiz-adv-x="564" 
d="M483 0h-401v650h401v-650zM119 35h326v580h-326v-580z" />
    <glyph glyph-name=".null" horiz-adv-x="0" 
 />
    <glyph glyph-name=".null" horiz-adv-x="0" 
 />
    <glyph glyph-name="uni000D" unicode="&#xd;" horiz-adv-x="0" 
 />
    <glyph glyph-name="space" unicode=" " horiz-adv-x="221" 
 />
    <glyph glyph-name="exclam" unicode="!" horiz-adv-x="186" 
d="M74 650h38l-3 -481h-32zM93 -6q-14 0 -22.5 8.5t-8.5 22.5q0 13 8.5 21.5t22.5 8.5t22.5 -8.5t8.5 -21.5q0 -14 -8.5 -22.5t-22.5 -8.5z" />
    <glyph glyph-name="quotedbl" unicode="&#x22;" horiz-adv-x="266" 
d="M45 650h38l-4 -168h-30zM183 650h38l-4 -168h-30z" />
    <glyph glyph-name="numbersign" unicode="#" horiz-adv-x="597" 
d="M78 0l38 178h-98v34h105l49 228q-42 -23 -111 -23h-23v33h23q68 0 104.5 27t50.5 91l19 82h37l-18 -82q-14 -61 -43 -96h232l39 178h37l-38 -178h98v-34h-105l-49 -228q43 23 111 23h23v-34h-23q-67 0 -104 -26.5t-51 -90.5l-18 -82h-38l18 82q14 61 43 96h-232l-39 -178
h-37zM160 212h227l50 226h-227z" />
    <glyph glyph-name="dollar" unicode="$" horiz-adv-x="463" 
d="M215 748h36v-91q39 -3 71 -21q40 -22 63 -61t23 -90h-38q0 61 -39.5 99.5t-101.5 38.5q-36 0 -67 -17t-49 -45t-18 -62q0 -38 17.5 -63.5t47 -43.5t64.5 -32t70 -29t64.5 -36.5t47 -53t17.5 -77.5q0 -50 -24 -89t-67 -61q-34 -18 -77 -21v-91h-36v90q-42 3 -81 22
q-46 22 -74 64.5t-28 105.5h38q0 -49 22 -84.5t59.5 -54t79.5 -18.5q67 0 108.5 38t41.5 99q0 40 -18 66.5t-47 45t-64 32.5t-70.5 29.5t-64.5 35.5t-46.5 50.5t-17.5 75.5q0 44 23 80t62 58q34 18 73 21v90z" />
    <glyph glyph-name="percent" unicode="%" horiz-adv-x="742" 
d="M180 369q-40 0 -73 19.5t-52.5 52.5t-19.5 73q0 39 19.5 72t52.5 52.5t73 19.5t72.5 -19.5t52 -52.5t19.5 -72q0 -40 -19.5 -73t-52 -52.5t-72.5 -19.5zM177 0l348 650h41l-348 -650h-41zM180 627q-30 0 -56 -15.5t-41 -41t-15 -57.5q0 -30 15 -56t41 -41.5t56 -15.5
t55 15.5t40.5 41.5t15.5 56q0 32 -15.5 57.5t-40.5 41t-55 15.5zM563 -8q-40 0 -73 19.5t-52.5 52.5t-19.5 73t19.5 73t52.5 52t73 19t72.5 -19t52 -52t19.5 -73t-19.5 -73t-52 -52.5t-72.5 -19.5zM563 250q-31 0 -56 -15.5t-40.5 -41t-15.5 -56.5t15.5 -57t40.5 -41.5
t56 -15.5q30 0 55.5 15.5t40.5 41.5t15 57t-15 56.5t-40.5 41t-55.5 15.5z" />
    <glyph glyph-name="ampersand" unicode="&#x26;" horiz-adv-x="565" 
d="M428 499h-36q0 35 -17.5 63.5t-47.5 45t-68 16.5q-37 0 -67.5 -16.5t-48 -44.5t-17.5 -64q0 -57 50 -105q41 15 88 15h42v-35h-42q-53 0 -95.5 -22.5t-66.5 -61.5t-24 -90q0 -49 24 -88t66.5 -62t94.5 -23q54 0 96.5 23t67 65.5t24.5 99.5v44h-90v35h218v-35h-90v-44
q0 -67 -29.5 -117.5t-80.5 -78t-116 -27.5q-64 0 -114.5 27.5t-80 74.5t-29.5 106q0 60 30 108q28 44 75 71q-22 21 -35 46q-20 36 -20 74q0 45 22.5 81t61 57t86.5 21t86 -21t60.5 -56.5t22.5 -81.5z" />
    <glyph glyph-name="quotesingle" unicode="'" horiz-adv-x="128" 
d="M45 650h38l-4 -168h-30z" />
    <glyph glyph-name="parenleft" unicode="(" horiz-adv-x="307" 
d="M287 -156l-16 7q-70 33 -120.5 91.5t-78 136t-27.5 166.5q0 90 27.5 167t78 135.5t120.5 91.5l16 7v-36l-14 -7q-89 -48 -140 -142.5t-51 -215.5t51 -215t140 -143l14 -7v-36z" />
    <glyph glyph-name="parenright" unicode=")" horiz-adv-x="307" 
d="M20 -156v36l14 7q89 49 139.5 143t50.5 215t-50.5 215.5t-139.5 142.5l-14 7v36l15 -7q71 -33 121.5 -91.5t77.5 -135.5t27 -167q0 -89 -27 -166.5t-77.5 -136t-121.5 -91.5z" />
    <glyph glyph-name="asterisk" unicode="*" horiz-adv-x="357" 
d="M296 343l-28 -22l-90 130l-89 -130l-28 22l94 126l-149 45l11 34l147 -51l-3 153h35l-3 -153l147 51l11 -34l-149 -45z" />
    <glyph glyph-name="plus" unicode="+" horiz-adv-x="460" 
d="M47 336h167v167h32v-167h168v-32h-168v-168h-32v168h-167v32z" />
    <glyph glyph-name="comma" unicode="," horiz-adv-x="152" 
d="M36 -123q19 49 29 84q6 18 8 33q-11 1 -19 8q-9 9 -9 23q0 13 9 21.5t22 8.5q14 0 23 -9t9 -24q0 -18 -11.5 -56.5t-30.5 -88.5h-30z" />
    <glyph glyph-name="hyphen" unicode="-" horiz-adv-x="393" 
d="M37 264h320v-33h-320v33z" />
    <glyph glyph-name="period" unicode="." horiz-adv-x="152" 
d="M76 -6q-13 0 -22 8.5t-9 22.5q0 13 9 21.5t22 8.5q14 0 23 -8.5t9 -21.5q0 -14 -9 -22.5t-23 -8.5z" />
    <glyph glyph-name="slash" unicode="/" horiz-adv-x="263" 
d="M200 650h38l-175 -800h-38z" />
    <glyph glyph-name="zero" unicode="0" horiz-adv-x="750" 
d="M44 325q0 69 25.5 129.5t71 106.5t105.5 71.5t129 25.5t129 -25.5t105.5 -71.5t71 -106.5t25.5 -129.5t-25.5 -129.5t-71 -106.5t-105.5 -71.5t-129 -25.5t-129 25.5t-105.5 71.5t-71 106.5t-25.5 129.5zM83 325q0 -61 22.5 -115t63 -95t93.5 -64.5t113 -23.5t113 23.5
t93.5 64.5t63.5 95t23 115t-23 115t-63.5 95t-93.5 64.5t-113 23.5t-113 -23.5t-93.5 -64.5t-63 -95t-22.5 -115z" />
    <glyph glyph-name="one" unicode="1" horiz-adv-x="281" 
d="M10 574q31 6 66 17.5t67 28.5t57 38v-658h-38v593q-10 -6 -21 -12q-30 -15 -64.5 -26t-66.5 -16v35z" />
    <glyph glyph-name="two" unicode="2" horiz-adv-x="477" 
d="M37 0l279 324q43 50 59 84.5t16 72.5q0 40 -20 72t-53.5 51t-76.5 19q-42 0 -76 -19t-54 -51t-20 -72q0 -35 13 -65t42 -58l-23 -27q-70 62 -70 150q0 49 25 89.5t68 64t95 23.5q54 0 96.5 -23.5t67.5 -63.5t25 -90q0 -29 -7.5 -55.5t-25 -54.5t-47.5 -63l-236 -272h342
v-36h-419z" />
    <glyph glyph-name="three" unicode="3" horiz-adv-x="529" 
d="M264 -8q-65 0 -117 29.5t-82 80t-30 112.5h36q0 -51 26 -94t70 -68.5t97 -25.5q56 0 99.5 25t68 67t24.5 93q0 50 -26.5 90.5t-71 65t-98.5 24.5h-14v33h14q50 0 93 -16q15 16 26 36q14 27 14 56q0 36 -17.5 64t-48 44t-68.5 16q-36 0 -66 -17t-48.5 -45.5t-18.5 -62.5
h-36q0 44 23 80t61.5 57.5t84.5 21.5q48 0 86.5 -20t61 -55.5t22.5 -81.5q0 -37 -17 -70q-11 -21 -27 -39q47 -27 77 -73q31 -48 31 -108q0 -61 -29.5 -111t-81 -79t-118.5 -29z" />
    <glyph glyph-name="four" unicode="4" horiz-adv-x="495" 
d="M392 467h37v-467h-37v91q0 46 -18 73.5t-47.5 43.5t-64.5 27t-70.5 24.5t-65 36.5t-48 62.5t-18.5 103.5v188h38v-187q0 -57 17.5 -92t47 -54.5t64.5 -31.5t69.5 -23.5t63.5 -30.5q18 -12 32 -29v265z" />
    <glyph glyph-name="five" unicode="5" horiz-adv-x="496" 
d="M245 -8q-60 0 -108.5 27.5t-76.5 75t-28 106.5h39q0 -48 23 -87.5t63 -63t88 -23.5q50 0 89.5 22.5t62 62t22.5 89.5q0 69 -45 112.5t-133 60.5l-166 29l53 247h265v-35h-237l-40 -183l129 -23q105 -19 159 -71.5t54 -136.5q0 -61 -27.5 -108t-75.5 -74t-110 -27z" />
    <glyph glyph-name="six" unicode="6" horiz-adv-x="535" 
d="M269 -8q-61 0 -112 29t-81.5 78t-30.5 108q0 58 21.5 105.5t53.5 88.5t65 80t57.5 80t29.5 89h38q-5 -48 -25.5 -87.5t-49 -73.5t-57.5 -67q-18 -21 -34 -43q3 2 6 5q54 41 122 41q61 0 111 -29t80 -78t30 -109q0 -61 -30 -110t-81 -78t-113 -29zM269 27q51 0 93.5 24.5
t67.5 65.5t25 91t-25 91.5t-67 65.5t-94 24q-51 0 -93 -24t-67 -65.5t-25 -91.5t25 -91t67 -65.5t93 -24.5z" />
    <glyph glyph-name="seven" unicode="7" horiz-adv-x="430" 
d="M215 0h-40q4 95 16.5 176.5t35 157t57.5 151.5q28 62 66 130h-321v35h378q-41 -75 -71.5 -139.5t-52.5 -124t-36 -119t-21.5 -125t-10.5 -142.5z" />
    <glyph glyph-name="eight" unicode="8" horiz-adv-x="525" 
d="M263 -8q-62 0 -112 27.5t-79.5 74.5t-29.5 104q0 58 29.5 104.5t79.5 74.5q20 11 42 18q-3 1 -7 3q-33 19 -53 51t-20 69q0 40 20 71.5t54 50t76 18.5t76 -18.5t53.5 -50t19.5 -71.5q0 -37 -19.5 -69t-53.5 -51q-3 -1 -7 -3q23 -7 43 -18q50 -27 79.5 -74t29.5 -105
q0 -56 -29.5 -103.5t-79.5 -75t-112 -27.5zM263 409q31 0 56.5 15t41.5 39.5t16 53.5q0 30 -15.5 54.5t-41.5 39t-57 14.5q-32 0 -58 -14.5t-41 -39t-15 -54.5q0 -29 15.5 -53.5t41 -39.5t57.5 -15zM263 27q51 0 92 23.5t65.5 63t24.5 86.5q0 49 -24.5 88.5t-65.5 62.5
t-92 23q-50 0 -92 -23.5t-66.5 -62.5t-24.5 -88q0 -47 24.5 -86.5t66.5 -63t92 -23.5z" />
    <glyph glyph-name="nine" unicode="9" horiz-adv-x="535" 
d="M266 658q62 0 112.5 -29t81 -77.5t30.5 -108.5q0 -58 -21.5 -105.5t-53.5 -88.5t-64.5 -80t-57 -80t-29.5 -89h-39q5 49 26 88t49 73t57 67q18 21 34 43q-3 -2 -5 -5q-53 -40 -122 -40q-62 0 -112.5 29t-80 77.5t-29.5 109.5q0 60 30.5 109t81.5 78t112 29zM266 623
q-51 0 -93 -24.5t-67.5 -65t-25.5 -91.5q0 -50 25 -91t67.5 -65.5t93.5 -24.5t93 24.5t67.5 65.5t25.5 91t-25.5 91t-67.5 65.5t-93 24.5z" />
    <glyph glyph-name="colon" unicode=":" horiz-adv-x="152" 
d="M76 352q-13 0 -22 8.5t-9 22.5q0 13 9 22t22 9q14 0 23 -9t9 -22q0 -14 -9 -22.5t-23 -8.5zM76 -6q-13 0 -22 8.5t-9 22.5q0 13 9 21.5t22 8.5q14 0 23 -8.5t9 -21.5q0 -14 -9 -22.5t-23 -8.5z" />
    <glyph glyph-name="semicolon" unicode=";" horiz-adv-x="152" 
d="M76 352q-13 0 -22 8.5t-9 22.5q0 13 9 22t22 9q14 0 23 -9t9 -22q0 -14 -9 -22.5t-23 -8.5zM36 -123q19 49 29 84q6 18 8 33q-11 1 -19 8q-9 9 -9 23q0 13 9 21.5t22 8.5q14 0 23 -9t9 -24q0 -18 -11.5 -56.5t-30.5 -88.5h-30z" />
    <glyph glyph-name="less" unicode="&#x3c;" horiz-adv-x="460" 
d="M53 313v39l344 171v-37l-313 -153l313 -154v-37z" />
    <glyph glyph-name="equal" unicode="=" horiz-adv-x="460" 
d="M47 446h367v-32h-367v32zM47 225h367v-31h-367v31z" />
    <glyph glyph-name="greater" unicode="&#x3e;" horiz-adv-x="460" 
d="M407 353v-40l-344 -170v36l313 154l-313 153v37z" />
    <glyph glyph-name="question" unicode="?" horiz-adv-x="493" 
d="M236 169l-1 114h14q47 0 86 21.5t62 60.5t23 89q0 51 -25 89.5t-64.5 59.5t-83.5 21q-48 0 -89 -21t-66 -61t-25 -96h-37q0 67 30 114.5t79.5 72.5t107.5 25q56 0 104 -25.5t77.5 -72t29.5 -106.5q0 -59 -27.5 -105.5t-74.5 -71.5q-39 -21 -86 -25l-2 -83h-32zM251 -6
q-13 0 -22 8.5t-9 22.5q0 13 9 21.5t22 8.5q14 0 23 -8.5t9 -21.5q0 -14 -9 -22.5t-23 -8.5z" />
    <glyph glyph-name="at" unicode="@" horiz-adv-x="768" 
d="M498 -188h-105q-77 0 -142 25.5t-113.5 71.5t-75.5 108.5t-27 134.5q0 73 28 137t76.5 112t113.5 74.5t140 26.5t137.5 -24t108 -67.5t71 -101t25.5 -124.5q0 -90 -39.5 -141t-100.5 -51q-49 0 -81 32q-8 9 -14 18q-49 -51 -117 -51q-44 0 -78.5 20.5t-54.5 57t-20 82.5
q0 50 22.5 87.5t62.5 58.5t92 21h111v-206q0 -42 21.5 -64t56.5 -22q45 0 74 40.5t29 117.5q0 79 -39.5 143.5t-108.5 102.5t-158 38q-67 0 -125 -24.5t-102.5 -68t-69.5 -101t-25 -123.5q0 -65 24 -120.5t67.5 -97.5t102.5 -65t128 -23h105v-34zM482 285h-75
q-61 0 -100.5 -37t-39.5 -95q0 -56 33.5 -92t85.5 -36q33 0 60 14q21 11 42 31q-6 19 -6 43v172z" />
    <glyph glyph-name="A" unicode="A" 
d="M73 0v461q0 58 25 102.5t69.5 69.5t100.5 25q58 0 101.5 -25t68.5 -69.5t25 -102.5v-461h-38v31q0 115 -76.5 181t-215.5 66h-22v-278h-38zM111 313h15q135 0 218 -53q54 -35 81 -89v290q0 47 -20 83t-55.5 57t-81.5 21q-45 0 -81 -21t-56 -57t-20 -83v-148z" />
    <glyph glyph-name="B" unicode="B" horiz-adv-x="528" 
d="M82 0v650h158q49 0 84.5 -18t55 -49.5t19.5 -70.5q0 -49 -28 -87q-20 -27 -52 -41q43 -10 76 -30q44 -26 68 -66.5t24 -89.5q0 -55 -27.5 -100t-76 -71.5t-113.5 -26.5h-188zM119 615v-87q0 -42 17 -71.5t45.5 -44.5t61.5 -15q57 0 88 33.5t31 77.5q0 45 -31.5 76
t-90.5 31h-121zM119 36h151q53 1 93 22t62.5 58t22.5 82q0 46 -24.5 82t-70 58t-110.5 24q-40 1 -73 18.5t-51 51.5v-396z" />
    <glyph glyph-name="C" unicode="C" horiz-adv-x="739" 
d="M661 261h39q-14 -78 -61 -138.5t-115.5 -95.5t-148.5 -35q-69 0 -129 25.5t-105.5 71.5t-71 106.5t-25.5 129.5t25.5 129.5t71 106.5t105.5 71.5t129 25.5q75 0 140 -31t112 -85.5t66 -125.5h-39q-19 61 -61 107.5t-98 73t-120 26.5q-60 0 -113 -23.5t-93.5 -64.5
t-63 -95t-22.5 -115t22.5 -115.5t63 -95.5t93.5 -64t113 -23q69 0 128.5 30.5t101.5 83.5t56 120z" />
    <glyph glyph-name="D" unicode="D" horiz-adv-x="522" 
d="M82 0v650h44q106 0 185 -42t123 -115t44 -168q0 -94 -44 -167.5t-123 -115.5t-185 -42h-44zM119 36h13q92 0 161 37.5t108 103t39 148.5q0 84 -39 149t-108 103t-161 38h-13v-579z" />
    <glyph glyph-name="E" unicode="E" horiz-adv-x="446" 
d="M82 0v650h322v-35h-285v-392q2 2 3 5q32 58 92 89t145 31h11v-35h-11q-113 0 -176.5 -59.5t-63.5 -165.5v-52h285v-36h-322z" />
    <glyph glyph-name="F" unicode="F" horiz-adv-x="435" 
d="M82 0v650h320v-35h-283v-375q2 3 3 5q32 58 92 89.5t145 31.5h11v-36h-11q-113 0 -176.5 -59.5t-63.5 -165.5v-105h-37z" />
    <glyph glyph-name="G" unicode="G" horiz-adv-x="761" 
d="M667 0v182q-16 -35 -39 -65q-45 -58 -110 -91.5t-142 -33.5q-69 0 -129.5 25.5t-106 71.5t-71 106.5t-25.5 129.5t25.5 129.5t71 106.5t106 71.5t129.5 25.5q76 0 141 -31t111.5 -85.5t65.5 -125.5h-40q-19 61 -60.5 107.5t-97.5 73t-120 26.5q-60 0 -113 -23.5
t-94 -64.5t-63.5 -95t-22.5 -115t22.5 -115t63.5 -95t94 -64.5t113 -23.5q70 0 129.5 31t101.5 83.5t57 119.5h38v-261h-35z" />
    <glyph glyph-name="H" unicode="H" horiz-adv-x="564" 
d="M82 0v650h37v-464q11 25 26 48q43 65 118.5 100.5t174.5 35.5h7v280h38v-650h-38v334h-14q-95 0 -165 -37t-108.5 -104t-38.5 -159v-34h-37z" />
    <glyph glyph-name="I" unicode="I" horiz-adv-x="201" 
d="M119 0h-37v650h37v-650z" />
    <glyph glyph-name="J" unicode="J" horiz-adv-x="299" 
d="M29 0v36h26q61 0 97 33t36 96v450h-159v35h196v-485q0 -80 -46 -122.5t-124 -42.5h-26z" />
    <glyph glyph-name="K" unicode="K" horiz-adv-x="537" 
d="M82 0v650h37v-455l311 455h43l-261 -381l16 6q30 10 61 10q62 0 108.5 -26.5t72.5 -72t26 -103.5v-83h-38v82q0 47 -21 84.5t-59 60t-89 22.5t-89.5 -22.5t-59.5 -60.5t-21 -84v-82h-37z" />
    <glyph glyph-name="L" unicode="L" horiz-adv-x="412" 
d="M381 0h-299v650h37v-614h262v-36z" />
    <glyph glyph-name="M" unicode="M" horiz-adv-x="757" 
d="M82 0v650h29q72 0 132.5 -25.5t99.5 -75.5q23 -28 35 -64q13 36 36 64q39 50 99.5 75.5t132.5 25.5h29v-650h-37v613h-5q-64 0 -117.5 -26t-86 -76.5t-32.5 -125.5v-159h-37v159q0 75 -32.5 125.5t-86 76.5t-117.5 26h-5v-613h-37z" />
    <glyph glyph-name="N" unicode="N" horiz-adv-x="564" 
d="M82 0v650h36q60 -143 145 -262q80 -112 182 -203v465h38v-650h-38v136q-73 65 -132 132q-62 71 -113 149q-43 67 -81 143v-560h-37z" />
    <glyph glyph-name="O" unicode="O" horiz-adv-x="750" 
d="M44 325q0 69 25.5 129.5t71 106.5t105.5 71.5t129 25.5t129 -25.5t105.5 -71.5t71 -106.5t25.5 -129.5t-25.5 -129.5t-71 -106.5t-105.5 -71.5t-129 -25.5t-129 25.5t-105.5 71.5t-71 106.5t-25.5 129.5zM83 325q0 -61 22.5 -115t63 -95t93.5 -64.5t113 -23.5t113 23.5
t93.5 64.5t63.5 95t23 115t-23 115t-63.5 95t-93.5 64.5t-113 23.5t-113 -23.5t-93.5 -64.5t-63 -95t-22.5 -115z" />
    <glyph glyph-name="P" unicode="P" horiz-adv-x="507" 
d="M82 0v650h171q64 0 113.5 -23t77.5 -65t28 -100q0 -55 -19 -92t-50.5 -61.5t-69 -42t-75.5 -35t-69 -39.5t-50.5 -56.5t-19.5 -85.5v-50h-37zM119 162q20 35 50.5 57.5t65.5 39.5t70 33t64.5 37.5t47 52.5t17.5 79q0 71 -50 112.5t-130 41.5h-135v-453z" />
    <glyph glyph-name="Q" unicode="Q" horiz-adv-x="763" 
d="M719 0v7q0 49 -23 90q-17 28 -42 49q-44 -70 -117 -112q-74 -42 -162 -42q-69 0 -129 25.5t-105.5 71.5t-71 106.5t-25.5 129.5t25.5 129.5t71 106.5t105.5 71.5t129 25.5t129 -25.5t105.5 -71.5t71 -106.5t25.5 -129.5q0 -47 -12 -90q-8 -30 -22 -57q34 -26 56 -63
q29 -48 29 -108v-7h-38zM335 30q5 46 27 84q29 48 76.5 76.5t106.5 28.5q51 0 94 -21l6 12q23 54 23 115t-23 115t-63.5 95t-93.5 64.5t-113 23.5t-113 -23.5t-93.5 -64.5t-63 -95t-22.5 -115t22.5 -115t63 -95t93.5 -65q35 -15 73 -20zM375 27q60 0 113 23.5t93 64.5
q24 24 41 52q-35 18 -77 18q-49 0 -88.5 -24t-62.5 -64q-18 -31 -22 -70h3z" />
    <glyph glyph-name="R" unicode="R" 
d="M82 0v650h171q64 0 113.5 -23t77.5 -65t28 -100q0 -49 -17.5 -83t-46 -58.5t-63 -42.5t-69.5 -36q13 1 25 1q48 0 91 -21t71 -64t28 -99v-59h-38v58q0 44 -20.5 79.5t-58.5 56.5t-87 21q-50 0 -88 -21t-59 -56.5t-21 -79.5v-58h-37zM119 615v-450q20 32 50 54t65.5 39.5
t70.5 34.5t64.5 39t47 52.5t17.5 76.5q0 71 -50 112.5t-130 41.5h-135z" />
    <glyph glyph-name="S" unicode="S" horiz-adv-x="463" 
d="M235 -8q-51 0 -97 22t-74 64.5t-28 105.5h38q0 -49 22 -84.5t59.5 -54t79.5 -18.5q67 0 108.5 38t41.5 99q0 40 -18 66.5t-47 45t-64 32.5t-70.5 29.5t-64.5 35.5t-46.5 50.5t-17.5 75.5q0 44 23 80t62.5 57.5t86.5 21.5q53 0 93 -22t63 -61t23 -90h-38q0 61 -39.5 99.5
t-101.5 38.5q-36 0 -67 -17t-49 -45t-18 -62q0 -38 17.5 -63.5t47 -43.5t64.5 -32t70 -29t64.5 -36.5t47 -53t17.5 -77.5q0 -50 -24 -89t-66.5 -61t-97.5 -22z" />
    <glyph glyph-name="T" unicode="T" horiz-adv-x="434" 
d="M198 0v623q-44 -1 -87 -4q-51 -5 -93 -12v35q43 8 95 12t104 4t104.5 -4.5t94.5 -11.5v-35q-27 4 -59.5 8t-66.5 6l-54 2v-623h-38z" />
    <glyph glyph-name="U" unicode="U" horiz-adv-x="533" 
d="M267 28q45 0 80 19.5t55 54.5t20 79v469h38v-469q0 -55 -24.5 -98t-68 -67t-100.5 -24t-100.5 24t-68.5 67t-25 98v469h38v-469q0 -44 20.5 -79t56 -54.5t79.5 -19.5z" />
    <glyph glyph-name="V" unicode="V" horiz-adv-x="531" 
d="M109 0h-27v650h37v-613q91 1 149 24q62 23 95.5 80t44.5 158l41 351h39l-41 -351q-13 -112 -52 -177t-109.5 -93.5t-176.5 -28.5z" />
    <glyph glyph-name="W" unicode="W" horiz-adv-x="811" 
d="M82 0v650h37v-613q129 2 199 73q73 73 73 207v333h37v-613q81 1 133 23q55 24 86 81t42 158l40 351h38l-40 -351q-12 -113 -48.5 -178t-100.5 -93t-163 -28h-24v156q-20 -41 -51 -73q-82 -83 -230 -83h-28z" />
    <glyph glyph-name="X" unicode="X" horiz-adv-x="469" 
d="M456 0h-45l-177 322l-177 -322h-44l188 341l-173 309h42l164 -290l166 290h41l-176 -309z" />
    <glyph glyph-name="Y" unicode="Y" horiz-adv-x="479" 
d="M237 0l55 198q-75 2 -129 31q-58 30 -88.5 89t-30.5 143q0 41 6.5 86t20.5 103h38q-14 -60 -21 -105t-7 -84q0 -110 58 -169q58 -57 163 -58l117 416h38l-180 -650h-40z" />
    <glyph glyph-name="Z" unicode="Z" horiz-adv-x="432" 
d="M406 0h-374l313 615h-315v35h374l-313 -614h315v-36z" />
    <glyph glyph-name="bracketleft" unicode="[" horiz-adv-x="305" 
d="M82 -156v808h203v-32h-166v-744h166v-32h-203z" />
    <glyph glyph-name="backslash" unicode="\" horiz-adv-x="263" 
d="M238 -150h-38l-175 800h38z" />
    <glyph glyph-name="bracketright" unicode="]" horiz-adv-x="305" 
d="M223 -156h-203v32h166v744h-166v32h203v-808z" />
    <glyph glyph-name="asciicircum" unicode="^" horiz-adv-x="493" 
d="M54 160l173 350h38l173 -350h-38l-154 315l-154 -315h-38z" />
    <glyph glyph-name="underscore" unicode="_" horiz-adv-x="493" 
d="M37 -63h420v-34h-420v34z" />
    <glyph glyph-name="grave" unicode="`" horiz-adv-x="513" 
d="M275 536h-35l-82 151h41z" />
    <glyph glyph-name="a" unicode="a" horiz-adv-x="474" 
d="M222 -8q-52 0 -92.5 18.5t-63.5 52t-23 77.5t23 77.5t63.5 52t92.5 18.5q79 0 128 -40q12 -10 22 -23v75q0 66 -36.5 104t-99.5 38q-50 0 -84.5 -25.5t-47.5 -71.5h-38q11 40 34.5 69.5t58 45t76.5 15.5q80 0 127 -47.5t47 -128.5v-299h-36v59q-10 -14 -24 -26
q-48 -41 -127 -41zM226 24q65 0 105.5 32.5t40.5 84.5t-40 83.5t-106 31.5q-65 0 -105.5 -32t-40.5 -84t40.5 -84t105.5 -32z" />
    <glyph glyph-name="b" unicode="b" horiz-adv-x="526" 
d="M67 0v650h37v-236q26 24 57 39q46 22 99 22q65 0 115.5 -29.5t80 -82t29.5 -120.5q0 -72 -33.5 -126.5t-92 -85.5t-135.5 -31h-157zM104 34h120q66 0 116.5 26.5t78.5 74t28 108.5q0 60 -24.5 104.5t-67.5 69t-99 24.5q-45 0 -85 -19q-35 -16 -67 -48v-340z" />
    <glyph glyph-name="c" unicode="c" horiz-adv-x="552" 
d="M476 172h38q-14 -54 -48 -94.5t-81 -63t-103 -22.5q-66 0 -121 32.5t-87.5 87t-32.5 121.5q0 68 32.5 122.5t87.5 87t121 32.5q53 0 99 -21t80 -59t50 -89h-38q-23 61 -75 98t-116 37q-55 0 -101.5 -28t-74 -75t-27.5 -105q0 -56 27.5 -103.5t74 -75.5t101.5 -28
q45 0 84.5 18t68.5 51.5t41 76.5z" />
    <glyph glyph-name="d" unicode="d" horiz-adv-x="526" 
d="M459 0h-157q-77 0 -136 30.5t-92 85.5t-33 126q0 68 29 121t80 82.5t117 29.5q51 0 98 -21q31 -14 56 -36v232h38v-650zM421 34v345q-29 28 -65 44q-42 18 -86 18q-56 0 -99 -25.5t-67.5 -70t-24.5 -103.5q0 -61 28 -108t78 -73.5t115 -26.5h121z" />
    <glyph glyph-name="e" unicode="e" horiz-adv-x="542" 
d="M278 -8q-65 0 -118.5 32.5t-86 87.5t-32.5 121q0 67 32.5 122t86 87.5t118.5 32.5q64 0 115 -29t81 -78.5t30 -109.5v-13h-425v-6v-9q0 -56 27.5 -102.5t73 -74.5t98.5 -28q60 0 107 29t75 78h37q-19 -42 -51.5 -73.5t-75 -49t-92.5 -17.5zM467 277q-4 41 -25 75
q-25 41 -68 65.5t-96 24.5t-98.5 -28t-73.5 -74q-18 -29 -24 -63h385z" />
    <glyph glyph-name="f" unicode="f" horiz-adv-x="301" 
d="M67 0v500q0 72 38.5 111t108.5 39h62v-34h-62q-53 0 -81.5 -29.5t-28.5 -86.5v-141q10 17 23 29q49 45 130 45h15v-34h-15q-70 0 -111.5 -36.5t-41.5 -118.5v-244h-37z" />
    <glyph glyph-name="g" unicode="g" horiz-adv-x="482" 
d="M230 91q-57 0 -102.5 25t-72 69t-26.5 99q0 54 26.5 97.5t72.5 68.5t103 25q30 0 59 -8h181v-32l-125 2q34 -21 56 -53q30 -45 30 -101q0 -53 -27 -97q-28 -44 -73 -70q25 -4 46 -13q35 -17 54.5 -47t19.5 -71q0 -40 -19 -70.5t-54 -47.5t-84 -17h-239v35h239
q54 0 86.5 28t32.5 75t-32 75t-87 28h-65zM396 283q0 46 -22 82.5t-59 57t-84 20.5q-46 0 -83.5 -20.5t-59.5 -57t-22 -82.5q0 -45 22 -81.5t59.5 -57.5t83.5 -21t83 22t59.5 58t22.5 80z" />
    <glyph glyph-name="h" unicode="h" horiz-adv-x="487" 
d="M67 0v650h37v-252q9 13 19 25q48 52 127 52q78 0 125 -50.5t47 -137.5v-287h-37v286q0 72 -38 114t-102 42t-102.5 -42t-38.5 -114v-286h-37z" />
    <glyph glyph-name="i" unicode="i" horiz-adv-x="172" 
d="M86 563q-14 0 -22.5 9t-8.5 22q0 14 8.5 22.5t22.5 8.5t22.5 -8.5t8.5 -22.5q0 -13 -8.5 -22t-22.5 -9zM67 467h37v-467h-37v467z" />
    <glyph glyph-name="j" unicode="j" horiz-adv-x="172" 
d="M86 563q-14 0 -22.5 9t-8.5 22q0 14 8.5 22.5t22.5 8.5t22.5 -8.5t8.5 -22.5q0 -13 -8.5 -22t-22.5 -9zM67 467h37v-499q0 -60 -31 -89t-89 -29h-8v34h8q41 0 62 20t21 64v499z" />
    <glyph glyph-name="k" unicode="k" horiz-adv-x="482" 
d="M67 0v650h37v-459q11 15 27 32l233 244h45l-207 -217q1 0 2 1q26 7 49 7q87 0 136.5 -51t49.5 -138v-69h-37v69q0 73 -40.5 114.5t-108.5 41.5q-69 0 -109 -40.5t-40 -115.5v-69h-37z" />
    <glyph glyph-name="l" unicode="l" horiz-adv-x="209" 
d="M190 0h-11q-60 0 -88.5 30t-28.5 91v529h37v-528q0 -46 19 -67t61 -21h11v-34z" />
    <glyph glyph-name="m" unicode="m" horiz-adv-x="759" 
d="M67 0v467h36v-66q7 13 17 24q45 50 118 50q74 0 117 -48q18 -21 28 -48l4 10q20 41 56.5 63.5t85.5 22.5q76 0 120.5 -48.5t44.5 -132.5v-294h-37v293q0 68 -35 108.5t-94 40.5t-94 -40.5t-35 -108.5v-293h-37v293q0 68 -35 108.5t-94 40.5q-58 0 -93.5 -40.5
t-35.5 -108.5v-293h-37z" />
    <glyph glyph-name="n" unicode="n" horiz-adv-x="487" 
d="M67 0v467h36v-72q9 15 20 28q48 52 127 52q78 0 125 -50.5t47 -137.5v-287h-37v286q0 72 -38 114t-102 42t-102.5 -42t-38.5 -114v-286h-37z" />
    <glyph glyph-name="o" unicode="o" horiz-adv-x="567" 
d="M283 -8q-66 0 -121.5 32.5t-88 87t-32.5 122.5q0 67 32.5 121.5t88 87t121.5 32.5q68 0 123 -32.5t87.5 -87t32.5 -122.5q0 -66 -32.5 -121t-87.5 -87.5t-123 -32.5zM283 441q-55 0 -102 -28t-74.5 -75t-27.5 -105q0 -56 27.5 -103.5t74.5 -75.5t103 -28t102.5 28
t74 75.5t27.5 103.5q0 58 -27.5 105t-74 75t-103.5 28z" />
    <glyph glyph-name="p" unicode="p" horiz-adv-x="526" 
d="M67 -150v617h157q77 0 135.5 -31t92 -85.5t33.5 -126.5q0 -68 -29.5 -120.5t-80 -82t-115.5 -29.5q-53 0 -99 22q-31 15 -57 39v-203h-37zM104 93q32 -31 67 -48q40 -19 85 -19q56 0 99 25t67.5 69.5t24.5 103.5q0 62 -28 109t-78.5 73.5t-116.5 26.5h-120v-340z" />
    <glyph glyph-name="q" unicode="q" horiz-adv-x="526" 
d="M459 -150h-38v203q-25 -24 -56 -39q-47 -22 -99 -22q-65 0 -115.5 29.5t-80 82t-29.5 120.5q0 72 33.5 126.5t92.5 85.5t135 31h157v-617zM421 433h-119q-66 0 -116.5 -26.5t-78.5 -73.5t-28 -109q0 -59 24.5 -103.5t68 -69.5t98.5 -25q46 0 86 19q35 17 65 48v340z" />
    <glyph glyph-name="r" unicode="r" horiz-adv-x="293" 
d="M67 0v467h35v-78q10 19 23 35q46 51 124 51h16v-35h-19q-66 0 -104 -42.5t-38 -117.5v-280h-37z" />
    <glyph glyph-name="s" unicode="s" horiz-adv-x="389" 
d="M45 0v34h161q52 0 80.5 24.5t28.5 67.5q0 34 -20 53t-51 30t-66.5 19.5t-66.5 22t-51 38t-20 66.5q0 50 34.5 81t96.5 31h158v-34h-158q-45 0 -69.5 -21t-24.5 -56q0 -34 20 -52.5t51 -29.5t66 -19.5t66.5 -22.5t51.5 -38.5t20 -67.5q0 -57 -39 -91.5t-106 -34.5h-162z
" />
    <glyph glyph-name="t" unicode="t" horiz-adv-x="296" 
d="M261 433h-164v-289q0 -56 29 -83t78 -27h58v-34h-59q-65 0 -104 36t-39 108v447l37 12v-136h164v-34z" />
    <glyph glyph-name="u" unicode="u" horiz-adv-x="479" 
d="M65 467h37v-294q0 -69 37.5 -108t99.5 -39q63 0 100.5 39t37.5 108v294h37v-292q0 -86 -47 -134.5t-128 -48.5q-79 0 -126.5 48.5t-47.5 134.5v292z" />
    <glyph glyph-name="v" unicode="v" horiz-adv-x="461" 
d="M67 0v467h37v-431h46q95 0 143 44.5t61 144.5l30 242h37l-30 -242q-15 -119 -71.5 -172t-168.5 -53h-84z" />
    <glyph glyph-name="w" unicode="w" horiz-adv-x="739" 
d="M67 0v467h37v-431h50q99 0 151 50q51 50 51 146v235h37v-431h35q95 0 143 44.5t60 144.5l30 242h38l-30 -242q-15 -119 -71.5 -172t-168.5 -53h-71v107q-16 -37 -46 -61q-27 -22 -67.5 -34t-97.5 -12h-80z" />
    <glyph glyph-name="x" unicode="x" horiz-adv-x="426" 
d="M18 0l164 247l-149 220h40l139 -204l141 204h41l-152 -220l166 -247h-42l-155 230l-151 -230h-42z" />
    <glyph glyph-name="y" unicode="y" horiz-adv-x="466" 
d="M47 253q0 51 7 104.5t23 109.5h37q-16 -63 -23 -114t-7 -100q0 -105 55 -163q53 -55 141 -57l124 434h37l-175 -617h-39l43 149q-62 3 -110 29q-54 30 -83.5 87.5t-29.5 137.5z" />
    <glyph glyph-name="z" unicode="z" horiz-adv-x="393" 
d="M361 0h-326l258 433h-258v34h318l-257 -433h265v-34z" />
    <glyph glyph-name="braceleft" unicode="{" horiz-adv-x="366" 
d="M346 -156h-49q-76 0 -115 38.5t-39 114.5v149q0 86 -80 86h-38v33h38q80 0 80 85v149q0 76 39 114.5t115 38.5h49v-32h-45q-120 0 -120 -121v-145q0 -46 -20 -73q-15 -22 -42 -33q27 -11 42 -32q20 -28 20 -74v-145q0 -121 120 -121h45v-32z" />
    <glyph glyph-name="bar" unicode="|" horiz-adv-x="200" 
d="M82 650h37v-800h-37v800z" />
    <glyph glyph-name="braceright" unicode="}" horiz-adv-x="366" 
d="M20 -156v32h45q121 0 121 121v145q0 46 19 74q15 21 42 32q-27 11 -42 33q-19 27 -19 73v145q0 121 -121 121h-45v32h49q77 0 115.5 -38.5t38.5 -114.5v-149q0 -85 80 -85h38v-33h-38q-80 0 -80 -86v-149q0 -76 -38.5 -114.5t-115.5 -38.5h-49z" />
    <glyph glyph-name="asciitilde" unicode="~" horiz-adv-x="460" 
d="M329 316q45 0 85 20v-32q-19 -10 -40.5 -15t-44.5 -5q-35 0 -68.5 10t-65 20t-64.5 10q-23 0 -44 -5t-40 -15v32q19 9 40 14.5t44 5.5q36 0 69 -10t65 -20t64 -10z" />
    <glyph glyph-name="uni00A0" unicode="&#xa0;" horiz-adv-x="221" 
 />
    <glyph glyph-name="exclamdown" unicode="&#xa1;" horiz-adv-x="186" 
d="M93 473q14 0 22.5 -8.5t8.5 -21.5q0 -14 -8.5 -22.5t-22.5 -8.5t-22.5 8.5t-8.5 22.5q0 13 8.5 21.5t22.5 8.5zM112 -183h-38l3 481h32z" />
    <glyph glyph-name="cent" unicode="&#xa2;" horiz-adv-x="554" 
d="M265 650h37v-85q42 -3 79 -20q46 -21 80 -59t50 -89h-38q-23 61 -75 98t-116 37q-55 0 -101.5 -28t-74 -75t-27.5 -105q0 -57 27.5 -104.5t74 -75.5t101.5 -28q45 0 84.5 18.5t68.5 51.5t41 76h38q-14 -53 -48 -93.5t-81 -63.5q-39 -19 -83 -22v-83h-37v83q-57 4 -104 32
q-55 32 -87.5 87t-32.5 122q0 68 32.5 122.5t87.5 87.5q47 28 104 31v85z" />
    <glyph glyph-name="sterling" unicode="&#xa3;" horiz-adv-x="468" 
d="M18 0v36h5q47 0 68.5 20.5t21.5 68.5v126h-95v35h95v181q0 93 49 138t128 45h124v-35h-124q-61 0 -100 -35.5t-39 -112.5v-181h243v-35h-243v-122q0 -55 -26 -81q-7 -7 -16 -13l324 1v-36h-415z" />
    <glyph glyph-name="currency" unicode="&#xa4;" horiz-adv-x="578" 
d="M29 553l28 27l91 -92q14 12 31 22q50 28 110 28q61 0 110 -28q16 -10 31 -21l91 91l28 -27l-92 -92q12 -13 22 -29q29 -48 29 -108q0 -59 -29 -108q-10 -15 -22 -29l92 -92l-28 -27l-92 91q-14 -11 -30 -20q-49 -29 -110 -29q-60 0 -110 29q-16 9 -30 21l-92 -92l-28 27
l92 92q-12 14 -22 29q-29 49 -29 108q0 60 29 108q10 16 22 29zM289 143q51 0 92 25t66 66t25 90q0 50 -25 91t-66 65.5t-92 24.5q-50 0 -91.5 -24.5t-66 -65.5t-24.5 -91q0 -49 24.5 -90t66 -66t91.5 -25z" />
    <glyph glyph-name="yen" unicode="&#xa5;" horiz-adv-x="473" 
d="M255 0h-38v196h-154v33h154v126h-154v33h136l-177 262h43l171 -257l173 257h42l-178 -262h137v-33h-155v-126h155v-33h-155v-196z" />
    <glyph glyph-name="brokenbar" unicode="&#xa6;" horiz-adv-x="200" 
d="M82 650h37v-373h-37v373zM82 223h37v-373h-37v373z" />
    <glyph glyph-name="section" unicode="&#xa7;" horiz-adv-x="466" 
d="M79 -150v35h183q42 0 65.5 18t23.5 50q0 30 -22.5 48t-58.5 32t-76.5 28t-76.5 36.5t-59 58.5t-23 92q0 49 26 91t70 68q31 18 67 24q-52 20 -76 42q-33 30 -33 74q0 32 15.5 55t43.5 35.5t68 12.5h153v-35h-153q-42 0 -65.5 -18t-23.5 -51q0 -31 22 -50t57 -32.5
t74.5 -28t74.5 -36.5t57 -57t22 -92q0 -49 -26 -91.5t-71 -67.5q-29 -17 -63 -23q54 -20 79 -41q36 -30 36 -74q0 -32 -15 -55t-43.5 -35.5t-68.5 -12.5h-183zM239 94q43 0 79.5 22t57.5 58t21 80q0 45 -23.5 78.5t-62 52.5t-81.5 19t-79 -21.5t-57.5 -57.5t-21.5 -80
q0 -45 24 -78.5t62 -53t81 -19.5z" />
    <glyph glyph-name="dieresis" unicode="&#xa8;" horiz-adv-x="513" 
d="M174 572q-13 0 -22 9t-9 22q0 14 9 22.5t22 8.5q14 0 23 -8.5t9 -22.5q0 -13 -9 -22t-23 -9zM339 572q-13 0 -22 9t-9 22q0 14 9 22.5t22 8.5q14 0 22.5 -8.5t8.5 -22.5q0 -13 -8.5 -22t-22.5 -9z" />
    <glyph glyph-name="copyright" unicode="&#xa9;" horiz-adv-x="766" 
d="M383 -8q-71 0 -132.5 25.5t-108 71.5t-72.5 106.5t-26 129.5t26 129.5t72.5 106.5t108 71.5t132.5 25.5q70 0 131.5 -25.5t108 -71.5t73 -106.5t26.5 -129.5t-26.5 -129.5t-73 -106.5t-108 -71.5t-131.5 -25.5zM383 25q62 0 117 23.5t97 64.5t65.5 95.5t23.5 116.5
t-23.5 116.5t-65.5 95.5t-97 64.5t-117 23.5q-63 0 -117.5 -23.5t-96.5 -64.5t-65.5 -95.5t-23.5 -116.5t23.5 -116.5t65.5 -95.5t96.5 -64.5t117.5 -23.5zM386 165q-45 0 -82.5 22t-60 59.5t-22.5 83.5t22.5 83.5t59.5 60t83 22.5q53 0 96 -31.5t61 -84.5h-37
q-15 39 -47.5 61.5t-72.5 22.5q-36 0 -65.5 -18t-47.5 -48.5t-18 -67.5t18 -67.5t47.5 -48.5t65.5 -18q42 0 76.5 25t46.5 65h35q-15 -55 -58.5 -88t-99.5 -33z" />
    <glyph glyph-name="ordfeminine" unicode="&#xaa;" horiz-adv-x="379" 
d="M174 262q-44 0 -76.5 15t-50 41.5t-17.5 60.5q0 51 39.5 84.5t104.5 33.5q61 0 101 -31q8 -7 15 -15v66q0 36 -15.5 59.5t-40 35t-52.5 11.5q-41 0 -68.5 -19t-38.5 -53h-35q9 33 28.5 56t48.5 35.5t65 12.5q38 0 70.5 -15.5t52.5 -46.5t20 -77v-248h-32v44
q-8 -10 -18 -19q-40 -31 -101 -31zM177 291q50 0 81.5 25t31.5 64t-31.5 63t-81.5 24t-81 -24t-31 -64q0 -38 31 -63t81 -25z" />
    <glyph glyph-name="guillemotleft" unicode="&#xab;" horiz-adv-x="428" 
d="M357 49l-134 196l134 196h40l-132 -195l133 -197h-41zM159 49l-134 196l134 196h39l-131 -195l132 -197h-40z" />
    <glyph glyph-name="logicalnot" unicode="&#xac;" horiz-adv-x="460" 
d="M47 336h367v-200h-33v168h-334v32z" />
    <glyph glyph-name="uni00AD" unicode="&#xad;" horiz-adv-x="0" 
 />
    <glyph glyph-name="registered" unicode="&#xae;" horiz-adv-x="512" 
d="M252 231q-61 0 -109.5 28t-76.5 76t-28 109q0 62 28 110t76.5 76t109.5 28q63 0 113 -28t79.5 -76t29.5 -110q0 -61 -29.5 -109t-79.5 -76t-113 -28zM252 631q-53 0 -95 -23.5t-65.5 -66t-23.5 -97.5q0 -53 23.5 -95t65.5 -66t95 -24q56 0 99.5 24t68 66t24.5 95
q0 56 -24.5 98t-68 65.5t-99.5 23.5zM189 557h77q34 0 53.5 -17t19.5 -43q0 -25 -13 -39t-31 -23q-6 -3 -13 -6q24 -4 40 -19q22 -20 22 -50v-17h-26v17q0 21 -14.5 35t-37.5 14q-22 0 -36.5 -13t-14.5 -31v-22h-26v214zM215 413q9 9 22 16q18 9 35 17t29 19t12 31
q0 17 -12.5 27t-34.5 10h-51v-120z" />
    <glyph glyph-name="macron" unicode="&#xaf;" horiz-adv-x="513" 
d="M138 619h237v-34h-237v34z" />
    <glyph glyph-name="degree" unicode="&#xb0;" horiz-adv-x="325" 
d="M163 412q-34 0 -62.5 16.5t-45.5 44.5t-17 62t17 62t45.5 44.5t62.5 16.5q35 0 63 -16.5t44.5 -44.5t16.5 -62t-16.5 -62t-44.5 -44.5t-63 -16.5zM163 627q-24 0 -45 -12.5t-34 -33.5t-13 -46t13 -46t34 -33.5t45 -12.5q38 0 64.5 27t26.5 65t-26.5 65t-64.5 27z" />
    <glyph glyph-name="plusminus" unicode="&#xb1;" horiz-adv-x="460" 
d="M47 347h167v168h32v-168h168v-32h-168v-167h-32v167h-167v32zM47 32h367v-32h-367v32z" />
    <glyph glyph-name="twosuperior" unicode="&#xb2;" horiz-adv-x="318" 
d="M158 655q35 0 62 -15.5t43.5 -40.5t16.5 -57q0 -27 -11.5 -50.5t-41.5 -55.5l-123 -135h184v-33h-258l164 179q30 32 40.5 52.5t10.5 42.5q0 34 -25.5 57.5t-61.5 23.5q-35 0 -61 -23.5t-26 -57.5q0 -39 32 -69l-22 -24q-44 40 -44 93q0 32 16 57t44 40.5t61 15.5z" />
    <glyph glyph-name="threesuperior" unicode="&#xb3;" horiz-adv-x="321" 
d="M161 263q-39 0 -70 18t-49.5 48.5t-18.5 68.5h35q0 -29 14 -52.5t37 -37t52 -13.5q44 0 73 28.5t29 69.5q0 26 -13.5 46.5t-37 33t-53.5 12.5h-12v33h12q27 0 51 -8q20 23 20 50q0 26 -20.5 44.5t-51.5 18.5q-29 0 -50 -19t-21 -46h-35q0 40 30.5 68.5t75.5 28.5
q46 0 76.5 -27t30.5 -67q0 -20 -10 -40q-7 -13 -17 -24q26 -16 42 -40q18 -29 18 -64q0 -37 -18 -66.5t-49 -46.5t-70 -17z" />
    <glyph glyph-name="acute" unicode="&#xb4;" horiz-adv-x="513" 
d="M240 536l80 151h41l-86 -151h-35z" />
    <glyph glyph-name="paragraph" unicode="&#xb6;" horiz-adv-x="570" 
d="M237 -150v235q0 47 -14.5 80.5t-37.5 59.5t-49 49.5t-49 49.5t-37.5 60.5t-14.5 82.5q0 57 27 98t74.5 63t108.5 22h243v-800h-38v765h-175v-765h-38z" />
    <glyph glyph-name="periodcentered" unicode="&#xb7;" horiz-adv-x="513" 
d="M259 263q-14 0 -22.5 8.5t-8.5 22.5q0 13 8.5 22t22.5 9t22.5 -9t8.5 -22q0 -14 -8.5 -22.5t-22.5 -8.5z" />
    <glyph glyph-name="cedilla" unicode="&#xb8;" horiz-adv-x="513" 
d="M279 15v-154h-37l5 154h32z" />
    <glyph glyph-name="onesuperior" unicode="&#xb9;" horiz-adv-x="210" 
d="M10 605q37 6 73.5 19t61.5 34v-390h-35v332q-12 -7 -27 -12q-36 -12 -73 -17v34z" />
    <glyph glyph-name="ordmasculine" unicode="&#xba;" horiz-adv-x="450" 
d="M225 262q-56 0 -101 26t-71.5 70.5t-26.5 100.5t26.5 100t72 70t100.5 26q56 0 101 -26t71.5 -70.5t26.5 -99.5q0 -56 -26.5 -100.5t-71.5 -70.5t-101 -26zM225 295q45 0 82 21.5t59.5 59t22.5 82.5q0 46 -22.5 83t-59.5 59t-82 22q-44 0 -81.5 -22t-60 -58.5
t-22.5 -82.5q0 -45 22.5 -82.5t60 -59.5t81.5 -22z" />
    <glyph glyph-name="guillemotright" unicode="&#xbb;" horiz-adv-x="428" 
d="M31 49l132 195l-133 197h41l133 -196l-133 -196h-40zM229 49l132 195l-133 197h41l134 -196l-134 -196h-40z" />
    <glyph glyph-name="onequarter" unicode="&#xbc;" horiz-adv-x="739" 
d="M10 605q37 6 73.5 19t61.5 34v-390h-35v332q-12 -7 -27 -12q-36 -12 -73 -17v34zM117 0l347 650h40l-347 -650h-40zM687 0h-34v51q0 32 -14.5 50t-36.5 27t-47.5 17.5t-48 21.5t-36.5 38t-14 69v108h35v-108q0 -37 13.5 -57t35.5 -30t46.5 -18t46.5 -20q11 -6 20 -14v152
h34v-287z" />
    <glyph glyph-name="onehalf" unicode="&#xbd;" horiz-adv-x="711" 
d="M10 605q37 6 73.5 19t61.5 34v-390h-35v332q-12 -7 -27 -12q-36 -12 -73 -17v34zM117 0l347 650h40l-347 -650h-40zM551 387q35 0 62 -15t43 -40.5t16 -57.5q0 -27 -11 -50.5t-41 -55.5l-123 -135h184v-33h-258l164 179q30 32 40.5 52.5t10.5 42.5q0 34 -25.5 57.5
t-61.5 23.5q-35 0 -61 -23.5t-26 -57.5q0 -39 32 -69l-22 -24q-44 40 -44 93q0 32 16 57.5t44 40.5t61 15z" />
    <glyph glyph-name="threequarters" unicode="&#xbe;" horiz-adv-x="838" 
d="M161 263q-39 0 -70 18t-49.5 48.5t-18.5 68.5h35q0 -29 14 -52.5t37 -37t52 -13.5q44 0 73 28.5t29 69.5q0 26 -13.5 46.5t-37 33t-53.5 12.5h-12v33h12q27 0 51 -8q20 23 20 50q0 26 -20.5 44.5t-51.5 18.5q-29 0 -50 -19t-21 -46h-35q0 40 30.5 68.5t75.5 28.5
q46 0 76.5 -27t30.5 -67q0 -20 -10 -40q-7 -13 -17 -24q26 -16 42 -40q18 -29 18 -64q0 -37 -18 -66.5t-49 -46.5t-70 -17zM215 0l347 650h40l-347 -650h-40zM787 0h-35v51q0 32 -14.5 50t-36.5 27t-47.5 17.5t-47.5 21.5t-36.5 38t-14.5 69v108h35v-108q0 -37 13.5 -57
t36 -30t47 -18t46.5 -20q10 -6 19 -14v152h35v-287z" />
    <glyph glyph-name="questiondown" unicode="&#xbf;" horiz-adv-x="493" 
d="M241 473q14 0 22.5 -8.5t8.5 -21.5q0 -14 -8.5 -22.5t-22.5 -8.5q-13 0 -22 8.5t-9 22.5q0 13 9 21.5t22 8.5zM257 298v-114h-13q-46 0 -85.5 -21.5t-63 -60t-23.5 -89.5t25 -89.5t65 -59.5t84 -21q48 0 89 21t65.5 61t24.5 96h38q0 -67 -30 -114t-79 -72.5t-108 -25.5
q-57 0 -104.5 25.5t-77 72t-29.5 106.5t27.5 106t74.5 71q39 21 86 25l2 83h32z" />
    <glyph glyph-name="Agrave" unicode="&#xc0;" 
d="M285 719h-35l-82 151h41zM73 0v461q0 58 25 102.5t69.5 69.5t100.5 25q58 0 101.5 -25t68.5 -69.5t25 -102.5v-461h-38v31q0 115 -76.5 181t-215.5 66h-22v-278h-38zM111 313h15q135 0 218 -53q54 -35 81 -89v290q0 47 -20 83t-55.5 57t-81.5 21q-45 0 -81 -21t-56 -57
t-20 -83v-148z" />
    <glyph glyph-name="Aacute" unicode="&#xc1;" 
d="M250 719l80 151h42l-87 -151h-35zM73 0v461q0 58 25 102.5t69.5 69.5t100.5 25q58 0 101.5 -25t68.5 -69.5t25 -102.5v-461h-38v31q0 115 -76.5 181t-215.5 66h-22v-278h-38zM111 313h15q135 0 218 -53q54 -35 81 -89v290q0 47 -20 83t-55.5 57t-81.5 21q-45 0 -81 -21
t-56 -57t-20 -83v-148z" />
    <glyph glyph-name="Acircumflex" unicode="&#xc2;" 
d="M286 870l111 -151h-40l-90 124l-90 -124h-39l110 151h38zM73 0v461q0 58 25 102.5t69.5 69.5t100.5 25q58 0 101.5 -25t68.5 -69.5t25 -102.5v-461h-38v31q0 115 -76.5 181t-215.5 66h-22v-278h-38zM111 313h15q135 0 218 -53q54 -35 81 -89v290q0 47 -20 83t-55.5 57
t-81.5 21q-45 0 -81 -21t-56 -57t-20 -83v-148z" />
    <glyph glyph-name="Atilde" unicode="&#xc3;" 
d="M132 719v74q0 38 17.5 58.5t47.5 20.5q23 0 39 -12.5t28.5 -31t22.5 -37t21.5 -31.5t27.5 -13q18 0 26.5 13t8.5 36v74h32v-74q0 -37 -17.5 -58.5t-48.5 -21.5q-23 0 -39 13t-28 31.5t-22.5 37t-22 31t-26.5 12.5q-36 0 -36 -48v-74h-31zM73 0v461q0 58 25 102.5
t69.5 69.5t100.5 25q58 0 101.5 -25t68.5 -69.5t25 -102.5v-461h-38v31q0 115 -76.5 181t-215.5 66h-22v-278h-38zM111 313h15q135 0 218 -53q54 -35 81 -89v290q0 47 -20 83t-55.5 57t-81.5 21q-45 0 -81 -21t-56 -57t-20 -83v-148z" />
    <glyph glyph-name="Adieresis" unicode="&#xc4;" 
d="M185 755q-14 0 -22.5 8.5t-8.5 22.5q0 13 8.5 22t22.5 9t22.5 -9t8.5 -22q0 -14 -8.5 -22.5t-22.5 -8.5zM350 755q-14 0 -23 8.5t-9 22.5q0 13 9 22t23 9q13 0 22 -9t9 -22q0 -14 -9 -22.5t-22 -8.5zM73 0v461q0 58 25 102.5t69.5 69.5t100.5 25q58 0 101.5 -25
t68.5 -69.5t25 -102.5v-461h-38v31q0 115 -76.5 181t-215.5 66h-22v-278h-38zM111 313h15q135 0 218 -53q54 -35 81 -89v290q0 47 -20 83t-55.5 57t-81.5 21q-45 0 -81 -21t-56 -57t-20 -83v-148z" />
    <glyph glyph-name="Aring" unicode="&#xc5;" 
d="M73 0v461q0 77 43 129q35 43 88 59q-13 9 -23 22q-19 26 -19 60q0 44 30 72.5t76 28.5q31 0 55 -13t38 -35.5t14 -52.5q0 -34 -19 -60q-10 -13 -23 -23q52 -15 87 -57q43 -53 43 -130v-461h-38v31q0 115 -76.5 181t-215.5 66h-22v-278h-38zM268 658q34 0 54.5 20.5
t20.5 52.5q0 31 -20.5 51.5t-54.5 20.5q-32 0 -53 -20.5t-21 -51.5q0 -32 21 -52.5t53 -20.5zM111 313h15q135 0 218 -53q54 -35 81 -89v290q0 47 -20 83t-55.5 57t-81.5 21q-45 0 -81 -21t-56 -57t-20 -83v-148z" />
    <glyph glyph-name="AE" unicode="&#xc6;" horiz-adv-x="762" 
d="M73 0v455q0 60 26 103.5t70.5 67.5t98.5 24h453v-35h-285v-391q2 3 3 5q32 58 92.5 89t144.5 31h11v-36h-11q-113 0 -176.5 -58.5t-63.5 -163.5v-55h285v-36h-322v226h-288v-226h-38zM111 262h288v353h-131q-43 -1 -79 -20.5t-57 -55.5t-21 -84v-193z" />
    <glyph glyph-name="Ccedilla" unicode="&#xc7;" horiz-adv-x="739" 
d="M45 325q0 69 25.5 129.5t71 106.5t105.5 71.5t129 25.5q74 0 139 -31t112.5 -85.5t66.5 -125.5h-39q-20 61 -62 107.5t-98 73t-119 26.5q-60 0 -113 -23.5t-93.5 -64.5t-63.5 -95t-23 -115t23 -115.5t63.5 -95.5t93.5 -64t113 -23q68 0 127.5 30t101.5 83.5t56 120.5h39
q-11 -58 -40 -107t-72 -85t-96 -56q-46 -18 -96 -21v-131h-37l4 131q-61 2 -116 26q-60 25 -105.5 71t-71 106.5t-25.5 129.5z" />
    <glyph glyph-name="Egrave" unicode="&#xc8;" horiz-adv-x="446" 
d="M276 719h-35l-82 151h41zM82 0v650h322v-35h-285v-392q2 2 3 5q32 58 92 89t145 31h11v-35h-11q-113 0 -176.5 -59.5t-63.5 -165.5v-52h285v-36h-322z" />
    <glyph glyph-name="Eacute" unicode="&#xc9;" horiz-adv-x="446" 
d="M223 719l81 151h41l-87 -151h-35zM82 0v650h322v-35h-285v-392q2 2 3 5q32 58 92 89t145 31h11v-35h-11q-113 0 -176.5 -59.5t-63.5 -165.5v-52h285v-36h-322z" />
    <glyph glyph-name="Ecircumflex" unicode="&#xca;" horiz-adv-x="446" 
d="M259 870l111 -151h-40l-90 124l-89 -124h-40l110 151h38zM82 0v650h322v-35h-285v-392q2 2 3 5q32 58 92 89t145 31h11v-35h-11q-113 0 -176.5 -59.5t-63.5 -165.5v-52h285v-36h-322z" />
    <glyph glyph-name="Edieresis" unicode="&#xcb;" horiz-adv-x="446" 
d="M158 755q-13 0 -22 8.5t-9 22.5q0 13 9 22t22 9q14 0 22.5 -9t8.5 -22q0 -14 -8.5 -22.5t-22.5 -8.5zM323 755q-14 0 -22.5 8.5t-8.5 22.5q0 13 8.5 22t22.5 9t22.5 -9t8.5 -22q0 -14 -8.5 -22.5t-22.5 -8.5zM82 0v650h322v-35h-285v-392q2 2 3 5q32 58 92 89t145 31h11
v-35h-11q-113 0 -176.5 -59.5t-63.5 -165.5v-52h285v-36h-322z" />
    <glyph glyph-name="Igrave" unicode="&#xcc;" horiz-adv-x="201" 
d="M118 719h-35l-81 151h41zM119 0h-37v650h37v-650z" />
    <glyph glyph-name="Iacute" unicode="&#xcd;" horiz-adv-x="201" 
d="M84 719l81 151h41l-87 -151h-35zM119 0h-37v650h37v-650z" />
    <glyph glyph-name="Icircumflex" unicode="&#xce;" horiz-adv-x="201" 
d="M119 870l111 -151h-40l-90 124l-89 -124h-40l111 151h37zM119 0h-37v650h37v-650z" />
    <glyph glyph-name="Idieresis" unicode="&#xcf;" horiz-adv-x="201" 
d="M18 755q-13 0 -22 8.5t-9 22.5q0 13 9 22t22 9q14 0 22.5 -9t8.5 -22q0 -14 -8.5 -22.5t-22.5 -8.5zM183 755q-13 0 -22 8.5t-9 22.5q0 13 9 22t22 9q14 0 22.5 -9t8.5 -22q0 -14 -8.5 -22.5t-22.5 -8.5zM119 0h-37v650h37v-650z" />
    <glyph glyph-name="Eth" unicode="&#xd0;" horiz-adv-x="535" 
d="M95 0v306h-87v35h87v309h44q106 0 185 -42t123 -115t44 -168q0 -94 -44 -167.5t-123 -115.5t-185 -42h-44zM275 306h-143v-270h13q92 0 161 37.5t108 103t39 148.5q0 84 -39 149t-108 103t-161 38h-13v-274h143v-35z" />
    <glyph glyph-name="Ntilde" unicode="&#xd1;" horiz-adv-x="564" 
d="M151 719v74q0 38 18 58.5t48 20.5q22 0 38.5 -12.5t28.5 -31t22.5 -37t22 -31.5t26.5 -13q18 0 27 13t9 36v74h31v-74q0 -37 -17 -58.5t-48 -21.5q-23 0 -39 13t-28 31.5t-22.5 37t-22 31t-27.5 12.5q-35 0 -35 -48v-74h-32zM82 0v650h36q60 -143 145 -262
q80 -112 182 -203v465h38v-650h-38v136q-73 65 -132 132q-62 71 -113 149q-43 67 -81 143v-560h-37z" />
    <glyph glyph-name="Ograve" unicode="&#xd2;" horiz-adv-x="750" 
d="M393 719h-35l-82 151h41zM44 325q0 69 25.5 129.5t71 106.5t105.5 71.5t129 25.5t129 -25.5t105.5 -71.5t71 -106.5t25.5 -129.5t-25.5 -129.5t-71 -106.5t-105.5 -71.5t-129 -25.5t-129 25.5t-105.5 71.5t-71 106.5t-25.5 129.5zM83 325q0 -61 22.5 -115t63 -95
t93.5 -64.5t113 -23.5t113 23.5t93.5 64.5t63.5 95t23 115t-23 115t-63.5 95t-93.5 64.5t-113 23.5t-113 -23.5t-93.5 -64.5t-63 -95t-22.5 -115z" />
    <glyph glyph-name="Oacute" unicode="&#xd3;" horiz-adv-x="750" 
d="M358 719l80 151h42l-87 -151h-35zM44 325q0 69 25.5 129.5t71 106.5t105.5 71.5t129 25.5t129 -25.5t105.5 -71.5t71 -106.5t25.5 -129.5t-25.5 -129.5t-71 -106.5t-105.5 -71.5t-129 -25.5t-129 25.5t-105.5 71.5t-71 106.5t-25.5 129.5zM83 325q0 -61 22.5 -115t63 -95
t93.5 -64.5t113 -23.5t113 23.5t93.5 64.5t63.5 95t23 115t-23 115t-63.5 95t-93.5 64.5t-113 23.5t-113 -23.5t-93.5 -64.5t-63 -95t-22.5 -115z" />
    <glyph glyph-name="Ocircumflex" unicode="&#xd4;" horiz-adv-x="750" 
d="M394 870l111 -151h-40l-90 124l-90 -124h-39l110 151h38zM44 325q0 69 25.5 129.5t71 106.5t105.5 71.5t129 25.5t129 -25.5t105.5 -71.5t71 -106.5t25.5 -129.5t-25.5 -129.5t-71 -106.5t-105.5 -71.5t-129 -25.5t-129 25.5t-105.5 71.5t-71 106.5t-25.5 129.5zM83 325
q0 -61 22.5 -115t63 -95t93.5 -64.5t113 -23.5t113 23.5t93.5 64.5t63.5 95t23 115t-23 115t-63.5 95t-93.5 64.5t-113 23.5t-113 -23.5t-93.5 -64.5t-63 -95t-22.5 -115z" />
    <glyph glyph-name="Otilde" unicode="&#xd5;" horiz-adv-x="750" 
d="M240 719v74q0 38 17.5 58.5t47.5 20.5q23 0 39 -12.5t28.5 -31t22.5 -37t21.5 -31.5t27.5 -13q18 0 26.5 13t8.5 36v74h32v-74q0 -37 -17.5 -58.5t-48.5 -21.5q-23 0 -39 13t-28 31.5t-22.5 37t-22 31t-27.5 12.5q-35 0 -35 -48v-74h-31zM44 325q0 69 25.5 129.5
t71 106.5t105.5 71.5t129 25.5t129 -25.5t105.5 -71.5t71 -106.5t25.5 -129.5t-25.5 -129.5t-71 -106.5t-105.5 -71.5t-129 -25.5t-129 25.5t-105.5 71.5t-71 106.5t-25.5 129.5zM83 325q0 -61 22.5 -115t63 -95t93.5 -64.5t113 -23.5t113 23.5t93.5 64.5t63.5 95t23 115
t-23 115t-63.5 95t-93.5 64.5t-113 23.5t-113 -23.5t-93.5 -64.5t-63 -95t-22.5 -115z" />
    <glyph glyph-name="Odieresis" unicode="&#xd6;" horiz-adv-x="750" 
d="M293 755q-14 0 -23 8.5t-9 22.5q0 13 9 22t23 9q13 0 22 -9t9 -22q0 -14 -9 -22.5t-22 -8.5zM458 755q-14 0 -23 8.5t-9 22.5q0 13 9 22t23 9q13 0 22 -9t9 -22q0 -14 -9 -22.5t-22 -8.5zM44 325q0 69 25.5 129.5t71 106.5t105.5 71.5t129 25.5t129 -25.5t105.5 -71.5
t71 -106.5t25.5 -129.5t-25.5 -129.5t-71 -106.5t-105.5 -71.5t-129 -25.5t-129 25.5t-105.5 71.5t-71 106.5t-25.5 129.5zM83 325q0 -61 22.5 -115t63 -95t93.5 -64.5t113 -23.5t113 23.5t93.5 64.5t63.5 95t23 115t-23 115t-63.5 95t-93.5 64.5t-113 23.5t-113 -23.5
t-93.5 -64.5t-63 -95t-22.5 -115z" />
    <glyph glyph-name="multiply" unicode="&#xd7;" horiz-adv-x="460" 
d="M75 188l132 132l-132 132l23 23l132 -132l132 132l23 -22l-132 -133l132 -132l-23 -23l-132 132l-132 -132z" />
    <glyph glyph-name="Oslash" unicode="&#xd8;" horiz-adv-x="750" 
d="M375 -8q-69 0 -129 25q-48 21 -87 54l-68 -71h-49l91 96q-40 44 -63 99q-26 61 -26 130t25.5 129.5t71 106.5t105.5 71.5t129 25.5t129 -25q48 -21 87 -55l68 72h49l-92 -97q41 -43 64 -98q26 -61 26 -130t-25.5 -129.5t-71 -106.5t-105.5 -71.5t-129 -25.5zM565 550
q-35 31 -77 50q-53 23 -113 23t-113 -23.5t-93.5 -64.5t-63 -95t-22.5 -115t22 -115q21 -48 55 -86zM375 27q60 0 113 23.5t93.5 64.5t63.5 95t23 115t-23 115q-21 48 -55 86l-405 -427q34 -30 77 -49q53 -23 113 -23z" />
    <glyph glyph-name="Ugrave" unicode="&#xd9;" horiz-adv-x="533" 
d="M285 719h-35l-82 151h41zM267 28q45 0 80 19.5t55 54.5t20 79v469h38v-469q0 -55 -24.5 -98t-68 -67t-100.5 -24t-100.5 24t-68.5 67t-25 98v469h38v-469q0 -44 20.5 -79t56 -54.5t79.5 -19.5z" />
    <glyph glyph-name="Uacute" unicode="&#xda;" horiz-adv-x="533" 
d="M250 719l80 151h42l-87 -151h-35zM267 28q45 0 80 19.5t55 54.5t20 79v469h38v-469q0 -55 -24.5 -98t-68 -67t-100.5 -24t-100.5 24t-68.5 67t-25 98v469h38v-469q0 -44 20.5 -79t56 -54.5t79.5 -19.5z" />
    <glyph glyph-name="Ucircumflex" unicode="&#xdb;" horiz-adv-x="533" 
d="M286 870l111 -151h-40l-90 124l-90 -124h-39l110 151h38zM267 28q45 0 80 19.5t55 54.5t20 79v469h38v-469q0 -55 -24.5 -98t-68 -67t-100.5 -24t-100.5 24t-68.5 67t-25 98v469h38v-469q0 -44 20.5 -79t56 -54.5t79.5 -19.5z" />
    <glyph glyph-name="Udieresis" unicode="&#xdc;" horiz-adv-x="533" 
d="M185 755q-14 0 -22.5 8.5t-8.5 22.5q0 13 8.5 22t22.5 9t22.5 -9t8.5 -22q0 -14 -8.5 -22.5t-22.5 -8.5zM350 755q-14 0 -23 8.5t-9 22.5q0 13 9 22t23 9q13 0 22 -9t9 -22q0 -14 -9 -22.5t-22 -8.5zM267 28q45 0 80 19.5t55 54.5t20 79v469h38v-469q0 -55 -24.5 -98
t-68 -67t-100.5 -24t-100.5 24t-68.5 67t-25 98v469h38v-469q0 -44 20.5 -79t56 -54.5t79.5 -19.5z" />
    <glyph glyph-name="Yacute" unicode="&#xdd;" horiz-adv-x="479" 
d="M240 719l81 151h41l-87 -151h-35zM237 0l55 198q-75 2 -129 31q-58 30 -88.5 89t-30.5 143q0 41 6.5 86t20.5 103h38q-14 -60 -21 -105t-7 -84q0 -110 58 -169q58 -57 163 -58l117 416h38l-180 -650h-40z" />
    <glyph glyph-name="Thorn" unicode="&#xde;" horiz-adv-x="487" 
d="M82 0v650h38v-103h113q65 0 114.5 -22t77 -61.5t27.5 -94.5q0 -48 -18 -81t-47.5 -55t-65 -38.5t-71 -32.5t-65 -36.5t-47.5 -50.5t-18 -75h-38zM120 108q11 17 26 29q29 25 64 42.5t71 33t66 35.5t48.5 48t18.5 72q0 67 -50 105.5t-130 38.5h-114v-404z" />
    <glyph glyph-name="germandbls" unicode="&#xdf;" horiz-adv-x="542" 
d="M67 0v457q0 64 22.5 109t63 68.5t94.5 23.5q48 0 82.5 -16.5t54 -44.5t19.5 -64q0 -37 -14 -61.5t-32 -42t-32 -34t-14 -38.5q0 -23 20 -39.5t49 -31.5t58.5 -34t49 -46.5t19.5 -69.5q0 -63 -41 -99.5t-113 -36.5h-118v34h118q56 0 87 27t31 75q0 35 -20 58t-49.5 40
t-58.5 33t-49 35.5t-20 49.5q0 28 14 47.5t32.5 37.5t32.5 39.5t14 53.5q0 41 -33 67.5t-87 26.5q-64 0 -103.5 -43.5t-39.5 -123.5v-457h-37z" />
    <glyph glyph-name="agrave" unicode="&#xe0;" horiz-adv-x="474" 
d="M253 536h-35l-82 151h41zM222 -8q-52 0 -92.5 18.5t-63.5 52t-23 77.5t23 77.5t63.5 52t92.5 18.5q79 0 128 -40q12 -10 22 -23v75q0 66 -36.5 104t-99.5 38q-50 0 -84.5 -25.5t-47.5 -71.5h-38q11 40 34.5 69.5t58 45t76.5 15.5q80 0 127 -47.5t47 -128.5v-299h-36v59
q-10 -14 -24 -26q-48 -41 -127 -41zM226 24q65 0 105.5 32.5t40.5 84.5t-40 83.5t-106 31.5q-65 0 -105.5 -32t-40.5 -84t40.5 -84t105.5 -32z" />
    <glyph glyph-name="aacute" unicode="&#xe1;" horiz-adv-x="474" 
d="M218 536l80 151h42l-87 -151h-35zM222 -8q-52 0 -92.5 18.5t-63.5 52t-23 77.5t23 77.5t63.5 52t92.5 18.5q79 0 128 -40q12 -10 22 -23v75q0 66 -36.5 104t-99.5 38q-50 0 -84.5 -25.5t-47.5 -71.5h-38q11 40 34.5 69.5t58 45t76.5 15.5q80 0 127 -47.5t47 -128.5v-299
h-36v59q-10 -14 -24 -26q-48 -41 -127 -41zM226 24q65 0 105.5 32.5t40.5 84.5t-40 83.5t-106 31.5q-65 0 -105.5 -32t-40.5 -84t40.5 -84t105.5 -32z" />
    <glyph glyph-name="acircumflex" unicode="&#xe2;" horiz-adv-x="474" 
d="M254 687l111 -151h-40l-90 124l-90 -124h-39l110 151h38zM222 -8q-52 0 -92.5 18.5t-63.5 52t-23 77.5t23 77.5t63.5 52t92.5 18.5q79 0 128 -40q12 -10 22 -23v75q0 66 -36.5 104t-99.5 38q-50 0 -84.5 -25.5t-47.5 -71.5h-38q11 40 34.5 69.5t58 45t76.5 15.5
q80 0 127 -47.5t47 -128.5v-299h-36v59q-10 -14 -24 -26q-48 -41 -127 -41zM226 24q65 0 105.5 32.5t40.5 84.5t-40 83.5t-106 31.5q-65 0 -105.5 -32t-40.5 -84t40.5 -84t105.5 -32z" />
    <glyph glyph-name="atilde" unicode="&#xe3;" horiz-adv-x="474" 
d="M93 536v75q0 38 18 58.5t48 20.5q22 0 38.5 -13t28.5 -31t22.5 -37t22 -31.5t26.5 -12.5q18 0 27 12.5t9 35.5v74h31v-74q0 -37 -17 -58t-48 -21q-23 0 -39.5 12.5t-28.5 31t-22 37t-21.5 31.5t-27.5 13q-36 0 -36 -48v-75h-31zM222 -8q-52 0 -92.5 18.5t-63.5 52
t-23 77.5t23 77.5t63.5 52t92.5 18.5q79 0 128 -40q12 -10 22 -23v75q0 66 -36.5 104t-99.5 38q-50 0 -84.5 -25.5t-47.5 -71.5h-38q11 40 34.5 69.5t58 45t76.5 15.5q80 0 127 -47.5t47 -128.5v-299h-36v59q-10 -14 -24 -26q-48 -41 -127 -41zM226 24q65 0 105.5 32.5
t40.5 84.5t-40 83.5t-106 31.5q-65 0 -105.5 -32t-40.5 -84t40.5 -84t105.5 -32z" />
    <glyph glyph-name="adieresis" unicode="&#xe4;" horiz-adv-x="474" 
d="M153 572q-14 0 -22.5 9t-8.5 22q0 14 8.5 22.5t22.5 8.5t22.5 -8.5t8.5 -22.5q0 -13 -8.5 -22t-22.5 -9zM318 572q-14 0 -23 9t-9 22q0 14 9 22.5t23 8.5q13 0 22 -8.5t9 -22.5q0 -13 -9 -22t-22 -9zM222 -8q-52 0 -92.5 18.5t-63.5 52t-23 77.5t23 77.5t63.5 52
t92.5 18.5q79 0 128 -40q12 -10 22 -23v75q0 66 -36.5 104t-99.5 38q-50 0 -84.5 -25.5t-47.5 -71.5h-38q11 40 34.5 69.5t58 45t76.5 15.5q80 0 127 -47.5t47 -128.5v-299h-36v59q-10 -14 -24 -26q-48 -41 -127 -41zM227 24q64 0 104.5 32.5t40.5 84.5t-40 83.5t-106 31.5
q-65 0 -105.5 -32t-40.5 -84t40.5 -84t106.5 -32z" />
    <glyph glyph-name="aring" unicode="&#xe5;" horiz-adv-x="474" 
d="M222 -8q-52 0 -92.5 18.5t-63.5 52t-23 77.5t23 77.5t63.5 52t92.5 18.5q79 0 128 -40q12 -10 22 -23v75q0 66 -36.5 104t-99.5 38q-49 0 -84 -25.5t-48 -71.5h-38q13 51 49 85q26 24 59 36q-13 10 -23 23q-18 26 -18 59q0 44 30.5 72.5t75.5 28.5q31 0 54.5 -13
t37.5 -36t14 -52q0 -33 -17 -59q-11 -15 -25 -25q43 -14 71 -51q35 -46 35 -114v-299h-36v59q-10 -14 -24 -26q-48 -41 -127 -41zM239 475q34 0 54 20.5t20 52.5q0 31 -20 51.5t-54 20.5q-33 0 -53.5 -20.5t-20.5 -51.5q0 -32 20.5 -52.5t53.5 -20.5zM226 24
q65 0 105.5 32.5t40.5 84.5t-40 83.5t-106 31.5q-65 0 -105.5 -32t-40.5 -84t40.5 -84t105.5 -32z" />
    <glyph glyph-name="ae" unicode="&#xe6;" horiz-adv-x="870" 
d="M609 -8q-66 0 -119 32q-48 29 -79 75v-99h-35v63q-11 -16 -27 -30q-48 -41 -127 -41q-52 0 -92.5 18.5t-63.5 52t-23 77.5t23 77.5t63.5 52t92.5 18.5q79 0 128 -40q12 -10 22 -23v75q0 66 -36.5 104t-99.5 38q-50 0 -84.5 -25.5t-47.5 -71.5h-38q11 40 34.5 69.5t58 45
t76.5 15.5q79 0 126 -47q30 -31 40 -77q2 2 3 4q32 55 86 87.5t119 32.5q64 0 114.5 -29t80.5 -78.5t30 -109.5v-13h-425v-6v-9q0 -55 27.5 -101.5t72.5 -75t100 -28.5q60 0 107 29t74 78h37q-19 -42 -51.5 -73.5t-75 -49t-91.5 -17.5zM797 277q-3 40 -25 75
q-25 41 -67.5 65.5t-95.5 24.5q-55 0 -100 -28t-73 -74q-18 -30 -24 -63h385zM226 24q65 0 105.5 32.5t40.5 84.5t-40 83.5t-106 31.5q-65 0 -105.5 -32t-40.5 -84t40.5 -84t105.5 -32z" />
    <glyph glyph-name="ccedilla" unicode="&#xe7;" horiz-adv-x="552" 
d="M266 -139l4 131q-59 2 -109 32q-55 33 -87.5 88t-32.5 121q0 68 32.5 122.5t87.5 87t121 32.5q53 0 99.5 -21t80 -59t49.5 -89h-38q-24 62 -75.5 98.5t-115.5 36.5q-56 0 -102.5 -28t-73.5 -75t-27 -105q0 -56 27 -103.5t73.5 -75.5t102.5 -28q45 0 84.5 18t68.5 51
t41 77h38q-14 -53 -47.5 -93.5t-79.5 -63.5q-39 -19 -84 -23v-131h-37z" />
    <glyph glyph-name="egrave" unicode="&#xe8;" horiz-adv-x="542" 
d="M291 536h-35l-81 151h41zM278 -8q-65 0 -118.5 32.5t-86 87.5t-32.5 121q0 67 32.5 122t86 87.5t118.5 32.5q64 0 115 -29t81 -78.5t30 -109.5v-13h-425v-6v-9q0 -56 27.5 -102.5t73 -74.5t98.5 -28q60 0 107 29t75 78h37q-19 -42 -51.5 -73.5t-75 -49t-92.5 -17.5z
M467 277q-4 41 -25 75q-25 41 -68 65.5t-96 24.5t-98.5 -28t-73.5 -74q-18 -29 -24 -63h385z" />
    <glyph glyph-name="eacute" unicode="&#xe9;" horiz-adv-x="542" 
d="M256 536l81 151h41l-87 -151h-35zM278 -8q-65 0 -118.5 32.5t-86 87.5t-32.5 121q0 67 32.5 122t86 87.5t118.5 32.5q64 0 115 -29t81 -78.5t30 -109.5v-13h-425v-6v-9q0 -56 27.5 -102.5t73 -74.5t98.5 -28q60 0 107 29t75 78h37q-19 -42 -51.5 -73.5t-75 -49
t-92.5 -17.5zM467 277q-4 41 -25 75q-25 41 -68 65.5t-96 24.5t-98.5 -28t-73.5 -74q-18 -29 -24 -63h385z" />
    <glyph glyph-name="ecircumflex" unicode="&#xea;" horiz-adv-x="542" 
d="M292 687l111 -151h-40l-90 124l-89 -124h-40l111 151h37zM278 -8q-65 0 -118.5 32.5t-86 87.5t-32.5 121q0 67 32.5 122t86 87.5t118.5 32.5q64 0 115 -29t81 -78.5t30 -109.5v-13h-425v-6v-9q0 -56 27.5 -102.5t73 -74.5t98.5 -28q60 0 107 29t75 78h37
q-19 -42 -51.5 -73.5t-75 -49t-92.5 -17.5zM467 277q-4 41 -25 75q-25 41 -68 65.5t-96 24.5t-98.5 -28t-73.5 -74q-18 -29 -24 -63h385z" />
    <glyph glyph-name="edieresis" unicode="&#xeb;" horiz-adv-x="542" 
d="M191 572q-13 0 -22 9t-9 22q0 14 9 22.5t22 8.5q14 0 22.5 -8.5t8.5 -22.5q0 -13 -8.5 -22t-22.5 -9zM356 572q-13 0 -22 9t-9 22q0 14 9 22.5t22 8.5q14 0 22.5 -8.5t8.5 -22.5q0 -13 -8.5 -22t-22.5 -9zM278 -8q-65 0 -118.5 32.5t-86 87.5t-32.5 121q0 67 32.5 122
t86 87.5t118.5 32.5q64 0 115 -29t81 -78.5t30 -109.5v-13h-425v-6v-9q0 -56 27.5 -102.5t73 -74.5t98.5 -28q60 0 107 29t75 78h37q-19 -42 -51.5 -73.5t-75 -49t-92.5 -17.5zM467 277q-4 41 -25 75q-25 41 -68 65.5t-96 24.5t-98.5 -28t-73.5 -74q-18 -29 -24 -63h385z
" />
    <glyph glyph-name="igrave" unicode="&#xec;" horiz-adv-x="172" 
d="M104 536h-35l-82 151h42zM67 467h37v-467h-37v467z" />
    <glyph glyph-name="iacute" unicode="&#xed;" horiz-adv-x="172" 
d="M69 536l81 151h41l-87 -151h-35zM67 467h37v-467h-37v467z" />
    <glyph glyph-name="icircumflex" unicode="&#xee;" horiz-adv-x="172" 
d="M105 687l111 -151h-40l-90 124l-89 -124h-40l111 151h37zM67 467h37v-467h-37v467z" />
    <glyph glyph-name="idieresis" unicode="&#xef;" horiz-adv-x="172" 
d="M4 572q-13 0 -22 9t-9 22q0 14 9 22.5t22 8.5q14 0 22.5 -8.5t8.5 -22.5q0 -13 -8.5 -22t-22.5 -9zM169 572q-13 0 -22 9t-9 22q0 14 9 22.5t22 8.5q14 0 22.5 -8.5t8.5 -22.5q0 -13 -8.5 -22t-22.5 -9zM67 467h37v-467h-37v467z" />
    <glyph glyph-name="eth" unicode="&#xf0;" horiz-adv-x="523" 
d="M261 -8q-61 0 -111 28.5t-79.5 77t-29.5 107.5q0 60 29.5 108t80 76.5t111.5 28.5q54 0 101 -26q3 -2 7 -4l-88 135l-146 -50v31l129 44l-65 102h39l59 -90l145 50v-32l-129 -44l119 -185q18 -27 29 -51t15.5 -46t4.5 -46q0 -59 -29.5 -108t-79.5 -77.5t-112 -28.5z
M262 26q50 0 92 24t66.5 65t24.5 90q0 50 -24.5 91t-66.5 65t-92 24t-92 -24t-67 -65t-25 -91q0 -49 25 -90t67 -65t92 -24z" />
    <glyph glyph-name="ntilde" unicode="&#xf1;" horiz-adv-x="487" 
d="M108 536v75q0 38 18 58.5t48 20.5q23 0 39 -13t28 -31t22.5 -37t22 -31.5t26.5 -12.5q18 0 27 12.5t9 35.5v74h31v-74q0 -37 -17 -58t-48 -21q-23 0 -39 12.5t-28 31t-22.5 37t-22 31.5t-27.5 13q-35 0 -35 -48v-75h-32zM67 0v467h36v-72q9 15 20 28q48 52 127 52
q78 0 125 -50.5t47 -137.5v-287h-37v286q0 72 -38 114t-102 42t-102.5 -42t-38.5 -114v-286h-37z" />
    <glyph glyph-name="ograve" unicode="&#xf2;" horiz-adv-x="567" 
d="M301 536h-35l-82 151h42zM283 -8q-66 0 -121.5 32.5t-88 87t-32.5 121.5q0 68 32.5 122.5t88 87t121.5 32.5q68 0 123 -32.5t87.5 -87t32.5 -122.5q0 -66 -32.5 -121t-87.5 -87.5t-123 -32.5zM283 441q-55 0 -102 -28t-74.5 -75t-27.5 -105q0 -56 27.5 -103.5t74.5 -75.5
t102 -28q57 0 103.5 28t74 75.5t27.5 103.5q0 58 -27.5 105t-74 75t-103.5 28z" />
    <glyph glyph-name="oacute" unicode="&#xf3;" horiz-adv-x="567" 
d="M266 536l81 151h41l-87 -151h-35zM283 -8q-66 0 -121.5 32.5t-88 87t-32.5 121.5q0 68 32.5 122.5t88 87t121.5 32.5q68 0 123 -32.5t87.5 -87t32.5 -122.5q0 -66 -32.5 -121t-87.5 -87.5t-123 -32.5zM283 441q-55 0 -102 -28t-74.5 -75t-27.5 -105q0 -56 27.5 -103.5
t74.5 -75.5t102 -28q57 0 103.5 28t74 75.5t27.5 103.5q0 58 -27.5 105t-74 75t-103.5 28z" />
    <glyph glyph-name="ocircumflex" unicode="&#xf4;" horiz-adv-x="567" 
d="M302 687l111 -151h-40l-90 124l-89 -124h-40l111 151h37zM283 -8q-66 0 -121.5 32.5t-88 87t-32.5 121.5q0 68 32.5 122.5t88 87t121.5 32.5q68 0 123 -32.5t87.5 -87t32.5 -122.5q0 -66 -32.5 -121t-87.5 -87.5t-123 -32.5zM283 441q-55 0 -102 -28t-74.5 -75
t-27.5 -105q0 -56 27.5 -103.5t74.5 -75.5t102 -28q57 0 103.5 28t74 75.5t27.5 103.5q0 58 -27.5 105t-74 75t-103.5 28z" />
    <glyph glyph-name="otilde" unicode="&#xf5;" horiz-adv-x="567" 
d="M148 536v75q0 38 18 58.5t47 20.5q23 0 39.5 -13t28.5 -31t22.5 -37t21.5 -31.5t27 -12.5q18 0 27 12.5t9 35.5v74h31v-74q0 -37 -17 -58t-49 -21q-22 0 -38.5 12.5t-28.5 31t-22.5 37t-22 31.5t-26.5 13q-36 0 -36 -48v-75h-31zM283 -8q-66 0 -121.5 32.5t-88 87
t-32.5 121.5q0 68 32.5 122.5t88 87t121.5 32.5q68 0 123 -32.5t87.5 -87t32.5 -122.5q0 -66 -32.5 -121t-87.5 -87.5t-123 -32.5zM283 441q-55 0 -102 -28t-74.5 -75t-27.5 -105q0 -56 27.5 -103.5t74.5 -75.5t102 -28q57 0 103.5 28t74 75.5t27.5 103.5q0 58 -27.5 105
t-74 75t-103.5 28z" />
    <glyph glyph-name="odieresis" unicode="&#xf6;" horiz-adv-x="567" 
d="M201 572q-13 0 -22 9t-9 22q0 14 9 22.5t22 8.5q14 0 23 -8.5t9 -22.5q0 -13 -9 -22t-23 -9zM366 572q-13 0 -22 9t-9 22q0 14 9 22.5t22 8.5q14 0 22.5 -8.5t8.5 -22.5q0 -13 -8.5 -22t-22.5 -9zM283 -8q-66 0 -121.5 32.5t-88 87t-32.5 122.5q0 67 32.5 121.5t88 87
t121.5 32.5q68 0 123 -32.5t87.5 -87t32.5 -122.5q0 -66 -32.5 -121t-87.5 -87.5t-123 -32.5zM283 441q-55 0 -102 -28t-74.5 -75t-27.5 -105q0 -56 27.5 -103.5t74.5 -75.5t103 -28t102.5 28t74 75.5t27.5 103.5q0 58 -27.5 105t-74 75t-103.5 28z" />
    <glyph glyph-name="divide" unicode="&#xf7;" horiz-adv-x="460" 
d="M230 476q-13 0 -22 8.5t-9 21.5q0 14 9 22.5t22 8.5q14 0 22.5 -8.5t8.5 -22.5q0 -13 -8.5 -21.5t-22.5 -8.5zM47 336h367v-32h-367v32zM230 102q-13 0 -22 9t-9 22t9 22t22 9q14 0 22.5 -9t8.5 -22t-8.5 -22t-22.5 -9z" />
    <glyph glyph-name="oslash" unicode="&#xf8;" horiz-adv-x="577" 
d="M288 -8q-66 0 -122 32q-19 11 -35 25l-48 -49h-47l71 73q-16 17 -28 39q-33 54 -33 121q0 68 32.5 122.5t88 87t121.5 32.5q68 0 123 -32q19 -11 35 -25l48 49h47l-71 -72q16 -18 28 -39q33 -55 33 -123q0 -66 -32.5 -121t-87.5 -87.5t-123 -32.5zM288 441
q-55 0 -102 -28t-74.5 -75t-27.5 -105q0 -56 27 -104q10 -16 22 -30l287 293q-13 12 -29 21q-46 28 -103 28zM156 75q14 -12 30 -21q47 -28 102 -28q57 0 103.5 28t74 75.5t27.5 103.5q0 58 -28 105q-9 16 -21 30z" />
    <glyph glyph-name="ugrave" unicode="&#xf9;" horiz-adv-x="479" 
d="M258 536h-35l-82 151h41zM65 467h37v-294q0 -69 37.5 -108t99.5 -39q63 0 100.5 39t37.5 108v294h37v-292q0 -86 -47 -134.5t-128 -48.5q-79 0 -126.5 48.5t-47.5 134.5v292z" />
    <glyph glyph-name="uacute" unicode="&#xfa;" horiz-adv-x="479" 
d="M223 536l80 151h41l-86 -151h-35zM65 467h37v-294q0 -69 37.5 -108t99.5 -39q63 0 100.5 39t37.5 108v294h37v-292q0 -86 -47 -134.5t-128 -48.5q-79 0 -126.5 48.5t-47.5 134.5v292z" />
    <glyph glyph-name="ucircumflex" unicode="&#xfb;" horiz-adv-x="479" 
d="M258 687l111 -151h-40l-90 124l-89 -124h-40l111 151h37zM65 467h37v-294q0 -69 37.5 -108t99.5 -39q63 0 100.5 39t37.5 108v294h37v-292q0 -86 -47 -134.5t-128 -48.5q-79 0 -126.5 48.5t-47.5 134.5v292z" />
    <glyph glyph-name="udieresis" unicode="&#xfc;" horiz-adv-x="479" 
d="M157 572q-13 0 -22 9t-9 22q0 14 9 22.5t22 8.5q14 0 22.5 -8.5t8.5 -22.5q0 -13 -8.5 -22t-22.5 -9zM322 572q-14 0 -22.5 9t-8.5 22q0 14 8.5 22.5t22.5 8.5t22.5 -8.5t8.5 -22.5q0 -13 -8.5 -22t-22.5 -9zM65 467h37v-294q0 -69 37.5 -108t99.5 -39q63 0 100.5 39
t37.5 108v294h37v-292q0 -86 -47 -134.5t-128 -48.5q-79 0 -126.5 48.5t-47.5 134.5v292z" />
    <glyph glyph-name="yacute" unicode="&#xfd;" horiz-adv-x="466" 
d="M247 536l81 151h41l-87 -151h-35zM47 253q0 51 7 104.5t23 109.5h37q-16 -63 -23 -114t-7 -100q0 -105 55 -163q53 -55 141 -57l124 434h37l-175 -617h-39l43 149q-62 3 -110 29q-54 30 -83.5 87.5t-29.5 137.5z" />
    <glyph glyph-name="thorn" unicode="&#xfe;" horiz-adv-x="526" 
d="M67 -150v800h37v-183h120q77 0 135.5 -31t92 -85.5t33.5 -126.5q0 -68 -29.5 -120.5t-80 -82t-115.5 -29.5q-53 0 -99 22q-31 15 -57 39v-203h-37zM104 93q32 -31 67 -48q40 -20 85 -20q56 0 99 25t67.5 70t24.5 104q0 62 -28 109t-78.5 73.5t-116.5 26.5h-120v-340z" />
    <glyph glyph-name="ydieresis" unicode="&#xff;" horiz-adv-x="466" 
d="M182 572q-13 0 -22 9t-9 22q0 14 9 22.5t22 8.5q14 0 23 -8.5t9 -22.5q0 -13 -9 -22t-23 -9zM347 572q-13 0 -22 9t-9 22q0 14 9 22.5t22 8.5q14 0 23 -8.5t9 -22.5q0 -13 -9 -22t-23 -9zM47 253q0 51 7 104.5t23 109.5h37q-16 -63 -23 -114t-7 -100q0 -105 55 -163
q53 -55 141 -57l124 434h37l-175 -617h-39l43 149q-62 3 -110 29q-54 30 -83.5 87.5t-29.5 137.5z" />
    <glyph glyph-name="Amacron" unicode="&#x100;" 
d="M149 801h237v-34h-237v34zM73 0v461q0 58 25 102.5t69.5 69.5t100.5 25q58 0 101.5 -25t68.5 -69.5t25 -102.5v-461h-38v31q0 115 -76.5 181t-215.5 66h-22v-278h-38zM111 313h15q135 0 218 -53q54 -35 81 -89v290q0 47 -20 83t-55.5 57t-81.5 21q-45 0 -81 -21t-56 -57
t-20 -83v-148z" />
    <glyph glyph-name="amacron" unicode="&#x101;" horiz-adv-x="474" 
d="M110 619h237v-34h-237v34zM222 -8q-52 0 -92.5 18.5t-63.5 52t-23 77.5t23 77.5t63.5 52t92.5 18.5q79 0 128 -40q12 -10 22 -23v75q0 66 -36.5 104t-99.5 38q-50 0 -84.5 -25.5t-47.5 -71.5h-38q11 40 34.5 69.5t58 45t76.5 15.5q80 0 127 -47.5t47 -128.5v-299h-36v59
q-10 -14 -24 -26q-48 -41 -127 -41zM226 24q65 0 105.5 32.5t40.5 84.5t-40 83.5t-106 31.5q-65 0 -105.5 -32t-40.5 -84t40.5 -84t105.5 -32z" />
    <glyph glyph-name="Abreve" unicode="&#x102;" 
d="M267 747q46 0 72 25t26 70v24h32v-24q0 -60 -34.5 -93t-95.5 -33q-60 0 -94.5 33t-34.5 93v24h31v-24q0 -45 26 -70t72 -25zM73 0v461q0 58 25 102.5t69.5 69.5t100.5 25q58 0 101.5 -25t68.5 -69.5t25 -102.5v-461h-38v31q0 115 -76.5 181t-215.5 66h-22v-278h-38z
M111 313h15q135 0 218 -53q54 -35 81 -89v290q0 47 -20 83t-55.5 57t-81.5 21q-45 0 -81 -21t-56 -57t-20 -83v-148z" />
    <glyph glyph-name="abreve" unicode="&#x103;" horiz-adv-x="474" 
d="M229 564q45 0 71 25t26 71v24h32v-24q0 -61 -34.5 -93.5t-94.5 -32.5q-61 0 -95.5 32.5t-34.5 93.5v24h32v-24q0 -46 25.5 -71t72.5 -25zM222 -8q-52 0 -92.5 18.5t-63.5 52t-23 77.5t23 77.5t63.5 52t92.5 18.5q79 0 128 -40q12 -10 22 -23v75q0 66 -36.5 104t-99.5 38
q-50 0 -84.5 -25.5t-47.5 -71.5h-38q11 40 34.5 69.5t58 45t76.5 15.5q80 0 127 -47.5t47 -128.5v-299h-36v59q-10 -14 -24 -26q-48 -41 -127 -41zM226 24q65 0 105.5 32.5t40.5 84.5t-40 83.5t-106 31.5q-65 0 -105.5 -32t-40.5 -84t40.5 -84t105.5 -32z" />
    <glyph glyph-name="Aogonek" unicode="&#x104;" 
d="M73 0v461q0 58 25 102.5t69.5 69.5t100.5 25q58 0 101.5 -25t68.5 -69.5t25 -102.5v-461q-48 -21 -68 -42.5t-20 -45.5q0 -20 14 -31.5t39 -11.5h35v-30h-36q-38 0 -61.5 20t-23.5 51q0 21 10.5 39.5t32.5 35.5q17 13 40 24v22q0 115 -76.5 181t-215.5 66h-22v-278h-38z
M111 313h15q135 0 218 -53q54 -35 81 -89v290q0 47 -20 83t-55.5 57t-81.5 21q-45 0 -81 -21t-56 -57t-20 -83v-148z" />
    <glyph glyph-name="aogonek" unicode="&#x105;" horiz-adv-x="474" 
d="M222 -8q-52 0 -92.5 18.5t-63.5 52t-23 77.5t23 77.5t63.5 52t92.5 18.5q79 0 128 -40q12 -10 22 -23v75q0 66 -36.5 104t-99.5 38q-49 0 -84 -25.5t-48 -71.5h-38q11 40 34.5 69.5t58 45t76.5 15.5q81 0 127.5 -47t46.5 -129v-299q-45 -19 -66.5 -40.5t-21.5 -47.5
q0 -20 14 -31.5t39 -11.5h35v-30h-36q-39 0 -62 19.5t-23 51.5t24 58q22 23 61 42v49q-10 -14 -24 -26q-48 -41 -127 -41zM226 24q65 0 105.5 32.5t40.5 84.5t-40 83.5t-106 31.5q-65 0 -105.5 -32t-40.5 -84t40.5 -84t105.5 -32z" />
    <glyph glyph-name="Cacute" unicode="&#x106;" horiz-adv-x="739" 
d="M358 719l80 151h42l-87 -151h-35zM661 261h39q-14 -78 -61 -138.5t-115.5 -95.5t-148.5 -35q-69 0 -129 25.5t-105.5 71.5t-71 106.5t-25.5 129.5t25.5 129.5t71 106.5t105.5 71.5t129 25.5q75 0 140 -31t112 -85.5t66 -125.5h-39q-19 61 -61 107.5t-98 73t-120 26.5
q-60 0 -113 -23.5t-93.5 -64.5t-63 -95t-22.5 -115t22.5 -115.5t63 -95.5t93.5 -64t113 -23q69 0 128.5 30.5t101.5 83.5t56 120z" />
    <glyph glyph-name="cacute" unicode="&#x107;" horiz-adv-x="552" 
d="M262 536l81 151h41l-87 -151h-35zM476 172h38q-14 -54 -48 -94.5t-81 -63t-103 -22.5q-66 0 -121 32.5t-87.5 87t-32.5 121.5q0 68 32.5 122.5t87.5 87t121 32.5q53 0 99 -21t80 -59t50 -89h-38q-23 61 -75 98t-116 37q-55 0 -101.5 -28t-74 -75t-27.5 -105
q0 -56 27.5 -103.5t74 -75.5t101.5 -28q45 0 84.5 18t68.5 51.5t41 76.5z" />
    <glyph glyph-name="Ccircumflex" unicode="&#x108;" horiz-adv-x="739" 
d="M394 870l111 -151h-40l-90 124l-90 -124h-40l111 151h38zM661 261h39q-14 -78 -61 -138.5t-115.5 -95.5t-148.5 -35q-69 0 -129 25.5t-105.5 71.5t-71 106.5t-25.5 129.5t25.5 129.5t71 106.5t105.5 71.5t129 25.5q75 0 140 -31t112 -85.5t66 -125.5h-39
q-19 61 -61 107.5t-98 73t-120 26.5q-60 0 -113 -23.5t-93.5 -64.5t-63 -95t-22.5 -115t22.5 -115.5t63 -95.5t93.5 -64t113 -23q69 0 128.5 30.5t101.5 83.5t56 120z" />
    <glyph glyph-name="ccircumflex" unicode="&#x109;" horiz-adv-x="552" 
d="M298 687l111 -151h-40l-90 124l-89 -124h-40l110 151h38zM476 172h38q-14 -54 -48 -94.5t-81 -63t-103 -22.5q-66 0 -121 32.5t-87.5 87t-32.5 121.5q0 68 32.5 122.5t87.5 87t121 32.5q53 0 99 -21t80 -59t50 -89h-38q-23 61 -75 98t-116 37q-55 0 -101.5 -28t-74 -75
t-27.5 -105q0 -56 27.5 -103.5t74 -75.5t101.5 -28q45 0 84.5 18t68.5 51.5t41 76.5z" />
    <glyph glyph-name="Cdotaccent" unicode="&#x10a;" horiz-adv-x="739" 
d="M375 755q-16 0 -26.5 10.5t-10.5 26.5t10.5 26.5t26.5 10.5t27 -10.5t11 -26.5t-11 -26.5t-27 -10.5zM661 261h39q-14 -78 -61 -138.5t-115.5 -95.5t-148.5 -35q-69 0 -129 25.5t-105.5 71.5t-71 106.5t-25.5 129.5t25.5 129.5t71 106.5t105.5 71.5t129 25.5
q75 0 140 -31t112 -85.5t66 -125.5h-39q-19 61 -61 107.5t-98 73t-120 26.5q-60 0 -113 -23.5t-93.5 -64.5t-63 -95t-22.5 -115t22.5 -115.5t63 -95.5t93.5 -64t113 -23q69 0 128.5 30.5t101.5 83.5t56 120z" />
    <glyph glyph-name="cdotaccent" unicode="&#x10b;" horiz-adv-x="552" 
d="M283 572q-17 0 -27.5 10.5t-10.5 26.5q0 17 10.5 27.5t27.5 10.5q16 0 26.5 -10.5t10.5 -27.5q0 -16 -10.5 -26.5t-26.5 -10.5zM476 172h38q-14 -54 -48 -94.5t-81 -63t-103 -22.5q-66 0 -121 32.5t-87.5 87t-32.5 121.5q0 68 32.5 122.5t87.5 87t121 32.5q53 0 99 -21
t80 -59t50 -89h-38q-23 61 -75 98t-116 37q-55 0 -101.5 -28t-74 -75t-27.5 -105q0 -56 27.5 -103.5t74 -75.5t101.5 -28q45 0 84.5 18t68.5 51.5t41 76.5z" />
    <glyph glyph-name="Ccaron" unicode="&#x10c;" horiz-adv-x="739" 
d="M356 719l-111 151h41l89 -124l90 124h40l-111 -151h-38zM661 261h39q-14 -78 -61 -138.5t-115.5 -95.5t-148.5 -35q-69 0 -129 25.5t-105.5 71.5t-71 106.5t-25.5 129.5t25.5 129.5t71 106.5t105.5 71.5t129 25.5q75 0 140 -31t112 -85.5t66 -125.5h-39q-19 61 -61 107.5
t-98 73t-120 26.5q-60 0 -113 -23.5t-93.5 -64.5t-63 -95t-22.5 -115t22.5 -115.5t63 -95.5t93.5 -64t113 -23q69 0 128.5 30.5t101.5 83.5t56 120z" />
    <glyph glyph-name="ccaron" unicode="&#x10d;" horiz-adv-x="552" 
d="M261 536l-111 151h40l90 -124l89 124h40l-111 -151h-37zM476 172h38q-14 -54 -48 -94.5t-81 -63t-103 -22.5q-66 0 -121 32.5t-87.5 87t-32.5 121.5q0 68 32.5 122.5t87.5 87t121 32.5q53 0 99 -21t80 -59t50 -89h-38q-23 61 -75 98t-116 37q-55 0 -101.5 -28t-74 -75
t-27.5 -105q0 -56 27.5 -103.5t74 -75.5t101.5 -28q45 0 84.5 18t68.5 51.5t41 76.5z" />
    <glyph glyph-name="Dcaron" unicode="&#x10e;" horiz-adv-x="522" 
d="M238 719l-111 151h40l90 -124l90 124h39l-110 -151h-38zM82 0v650h44q106 0 185 -42t123 -115t44 -168q0 -94 -44 -167.5t-123 -115.5t-185 -42h-44zM119 36h13q92 0 161 37.5t108 103t39 148.5q0 84 -39 149t-108 103t-161 38h-13v-579z" />
    <glyph glyph-name="dcaron" unicode="&#x10f;" horiz-adv-x="626" 
d="M459 0h-157q-77 0 -136 30.5t-92 85.5t-33 126q0 68 29 121t80 82.5t117 29.5q51 0 98 -21q31 -14 56 -36v232h38v-650zM557 460v190h38l-6 -190h-32zM421 34v345q-29 28 -65 44q-42 18 -86 18q-56 0 -99 -25.5t-67.5 -70t-24.5 -103.5q0 -61 28 -108t78 -73.5t115 -26.5
h121z" />
    <glyph glyph-name="Dcroat" unicode="&#x110;" horiz-adv-x="535" 
d="M95 0v306h-87v35h87v309h44q106 0 185 -42t123 -115t44 -168q0 -94 -44 -167.5t-123 -115.5t-185 -42h-44zM275 306h-143v-270h13q92 0 161 37.5t108 103t39 148.5q0 84 -39 149t-108 103t-161 38h-13v-274h143v-35z" />
    <glyph glyph-name="dcroat" unicode="&#x111;" horiz-adv-x="529" 
d="M279 565h142v85h38v-85h97v-32h-97v-533h-157q-77 0 -136 29.5t-92 82t-33 120.5q0 65 29 115.5t80 79t117 28.5q51 0 98 -21q31 -14 56 -36v135h-142v32zM421 34v325q-29 28 -65 44q-42 19 -86 19q-56 0 -99 -24.5t-67.5 -67t-24.5 -98.5q0 -58 28 -103t78 -70t115 -25
h121z" />
    <glyph glyph-name="Emacron" unicode="&#x112;" horiz-adv-x="446" 
d="M122 801h237v-34h-237v34zM82 0v650h322v-35h-285v-392q2 2 3 5q32 58 92 89t145 31h11v-35h-11q-113 0 -176.5 -59.5t-63.5 -165.5v-52h285v-36h-322z" />
    <glyph glyph-name="emacron" unicode="&#x113;" horiz-adv-x="542" 
d="M155 619h237v-34h-237v34zM278 -8q-65 0 -118.5 32.5t-86 87.5t-32.5 121q0 67 32.5 122t86 87.5t118.5 32.5q64 0 115 -29t81 -78.5t30 -109.5v-13h-425v-6v-9q0 -56 27.5 -102.5t73 -74.5t98.5 -28q60 0 107 29t75 78h37q-19 -42 -51.5 -73.5t-75 -49t-92.5 -17.5z
M467 277q-4 41 -25 75q-25 41 -68 65.5t-96 24.5t-98.5 -28t-73.5 -74q-18 -29 -24 -63h385z" />
    <glyph glyph-name="Ebreve" unicode="&#x114;" horiz-adv-x="446" 
d="M240 747q46 0 72 25t26 70v24h32v-24q0 -60 -34.5 -93t-95.5 -33q-60 0 -94.5 33t-34.5 93v24h32v-24q0 -45 25.5 -70t71.5 -25zM82 0v650h322v-35h-285v-392q2 2 3 5q32 58 92 89t145 31h11v-35h-11q-113 0 -176.5 -59.5t-63.5 -165.5v-52h285v-36h-322z" />
    <glyph glyph-name="ebreve" unicode="&#x115;" horiz-adv-x="542" 
d="M274 564q45 0 71 25t26 71v24h32v-24q0 -61 -34.5 -93.5t-94.5 -32.5q-61 0 -95.5 32.5t-34.5 93.5v24h32v-24q0 -46 25.5 -71t72.5 -25zM278 -8q-65 0 -118.5 32.5t-86 87.5t-32.5 121q0 67 32.5 122t86 87.5t118.5 32.5q64 0 115 -29t81 -78.5t30 -109.5v-13h-425v-6
v-9q0 -56 27.5 -102.5t73 -74.5t98.5 -28q60 0 107 29t75 78h37q-19 -42 -51.5 -73.5t-75 -49t-92.5 -17.5zM467 277q-4 41 -25 75q-25 41 -68 65.5t-96 24.5t-98.5 -28t-73.5 -74q-18 -29 -24 -63h385z" />
    <glyph glyph-name="Edotaccent" unicode="&#x116;" horiz-adv-x="446" 
d="M240 755q-16 0 -26.5 10.5t-10.5 26.5t10.5 26.5t26.5 10.5q17 0 27.5 -10.5t10.5 -26.5t-10.5 -26.5t-27.5 -10.5zM82 0v650h322v-35h-285v-392q2 2 3 5q32 58 92 89t145 31h11v-35h-11q-113 0 -176.5 -59.5t-63.5 -165.5v-52h285v-36h-322z" />
    <glyph glyph-name="edotaccent" unicode="&#x117;" horiz-adv-x="542" 
d="M274 572q-17 0 -27.5 10.5t-10.5 26.5q0 17 10.5 27.5t27.5 10.5t27 -10.5t10 -27.5q0 -16 -10 -26.5t-27 -10.5zM278 -8q-65 0 -118.5 32.5t-86 87.5t-32.5 121q0 67 32.5 122t86 87.5t118.5 32.5q64 0 115 -29t81 -78.5t30 -109.5v-13h-425v-6v-9q0 -56 27.5 -102.5
t73 -74.5t98.5 -28q60 0 107 29t75 78h37q-19 -42 -51.5 -73.5t-75 -49t-92.5 -17.5zM467 277q-4 41 -25 75q-25 41 -68 65.5t-96 24.5t-98.5 -28t-73.5 -74q-18 -29 -24 -63h385z" />
    <glyph glyph-name="Eogonek" unicode="&#x118;" horiz-adv-x="446" 
d="M82 0v650h322v-35h-285v-392q2 2 3 5q32 58 92 89t145 31h11v-35h-11q-113 0 -176.5 -59.5t-63.5 -165.5v-52h285v-36q-48 -21 -68 -42.5t-20 -45.5q0 -20 14 -31.5t39 -11.5h35v-30h-36q-39 0 -62 20t-23 51q0 21 10.5 39.5t32.5 35.5q10 8 23 15h-267z" />
    <glyph glyph-name="eogonek" unicode="&#x119;" horiz-adv-x="542" 
d="M342 -161h-36q-38 0 -61.5 20.5t-23.5 54.5q0 18 9 35.5t28 32.5q6 5 13 10q-61 2 -111 32q-54 33 -86.5 88t-32.5 121q0 67 32.5 122t86 87.5t118.5 32.5q64 0 115 -29t81 -78.5t30 -109.5v-13h-425v-6v-9q0 -56 27.5 -102.5t73 -74.5t98.5 -28q60 0 107 29t75 78h37
q-18 -38 -41.5 -63.5t-51.5 -41t-59 -27.5q-42 -15 -66.5 -35t-24.5 -48q0 -23 14.5 -35.5t39.5 -12.5h34v-30zM467 277q-4 41 -25 75q-25 41 -68 65.5t-96 24.5t-98.5 -28t-73.5 -74q-18 -29 -24 -63h385z" />
    <glyph glyph-name="Ecaron" unicode="&#x11a;" horiz-adv-x="446" 
d="M232 719l-111 151h41l89 -124l90 124h40l-111 -151h-38zM82 0v650h322v-35h-285v-392q2 2 3 5q32 58 92 89t145 31h11v-35h-11q-113 0 -176.5 -59.5t-63.5 -165.5v-52h285v-36h-322z" />
    <glyph glyph-name="ecaron" unicode="&#x11b;" horiz-adv-x="542" 
d="M255 536l-111 151h40l90 -124l89 124h40l-111 -151h-37zM278 -8q-65 0 -118.5 32.5t-86 87.5t-32.5 121q0 67 32.5 122t86 87.5t118.5 32.5q64 0 115 -29t81 -78.5t30 -109.5v-13h-425v-6v-9q0 -56 27.5 -102.5t73 -74.5t98.5 -28q60 0 107 29t75 78h37
q-19 -42 -51.5 -73.5t-75 -49t-92.5 -17.5zM467 277q-4 41 -25 75q-25 41 -68 65.5t-96 24.5t-98.5 -28t-73.5 -74q-18 -29 -24 -63h385z" />
    <glyph glyph-name="Gcircumflex" unicode="&#x11c;" horiz-adv-x="761" 
d="M394 870l111 -151h-40l-90 124l-89 -124h-40l111 151h37zM667 0v182q-16 -35 -39 -65q-45 -58 -110 -91.5t-142 -33.5q-69 0 -129.5 25.5t-106 71.5t-71 106.5t-25.5 129.5t25.5 129.5t71 106.5t106 71.5t129.5 25.5q76 0 141 -31t111.5 -85.5t65.5 -125.5h-40
q-19 61 -60.5 107.5t-97.5 73t-120 26.5q-60 0 -113 -23.5t-94 -64.5t-63.5 -95t-22.5 -115t22.5 -115t63.5 -95t94 -64.5t113 -23.5q70 0 129.5 31t101.5 83.5t57 119.5h38v-261h-35z" />
    <glyph glyph-name="gcircumflex" unicode="&#x11d;" horiz-adv-x="482" 
d="M249 687l111 -151h-40l-89 124l-90 -124h-40l111 151h37zM230 91q-57 0 -102.5 25t-72 69t-26.5 99q0 54 26.5 97.5t72.5 68.5t103 25q30 0 59 -8h181v-32l-125 2q34 -21 56 -53q30 -45 30 -101q0 -53 -27 -97q-28 -44 -73 -70q25 -4 46 -13q35 -17 54.5 -47t19.5 -71
q0 -40 -19 -70.5t-54 -47.5t-84 -17h-239v35h239q54 0 86.5 28t32.5 75t-32 75t-87 28h-65zM396 283q0 46 -22 82.5t-59 57t-84 20.5q-46 0 -83.5 -20.5t-59.5 -57t-22 -82.5q0 -45 22 -81.5t59.5 -57.5t83.5 -21t83 22t59.5 58t22.5 80z" />
    <glyph glyph-name="Gbreve" unicode="&#x11e;" horiz-adv-x="761" 
d="M375 747q46 0 72 25t26 70v24h32v-24q0 -60 -34.5 -93t-95.5 -33q-60 0 -94.5 33t-34.5 93v24h31v-24q0 -45 26 -70t72 -25zM667 0v182q-16 -35 -39 -65q-45 -58 -110 -91.5t-142 -33.5q-69 0 -129.5 25.5t-106 71.5t-71 106.5t-25.5 129.5t25.5 129.5t71 106.5t106 71.5
t129.5 25.5q76 0 141 -31t111.5 -85.5t65.5 -125.5h-40q-19 61 -60.5 107.5t-97.5 73t-120 26.5q-60 0 -113 -23.5t-94 -64.5t-63.5 -95t-22.5 -115t22.5 -115t63.5 -95t94 -64.5t113 -23.5q70 0 129.5 31t101.5 83.5t57 119.5h38v-261h-35z" />
    <glyph glyph-name="gbreve" unicode="&#x11f;" horiz-adv-x="482" 
d="M231 564q46 0 72 24.5t26 70.5v24h32v-24q0 -61 -34.5 -93.5t-95.5 -32.5q-60 0 -94.5 32.5t-34.5 93.5v24h31v-24q0 -46 26 -70.5t72 -24.5zM230 91q-57 0 -102.5 25t-72 69t-26.5 99q0 54 26.5 97.5t72.5 68.5t103 25q30 0 59 -8h181v-32l-125 2q34 -21 56 -53
q30 -45 30 -101q0 -53 -27 -97q-28 -44 -73 -70q25 -4 46 -13q35 -17 54.5 -47t19.5 -71q0 -40 -19 -70.5t-54 -47.5t-84 -17h-239v35h239q54 0 86.5 28t32.5 75t-32 75t-87 28h-65zM396 283q0 46 -22 82.5t-59 57t-84 20.5q-46 0 -83.5 -20.5t-59.5 -57t-22 -82.5
q0 -45 22 -81.5t59.5 -57.5t83.5 -21t83 22t59.5 58t22.5 80z" />
    <glyph glyph-name="Gdotaccent" unicode="&#x120;" horiz-adv-x="761" 
d="M378 755q-17 0 -27.5 10.5t-10.5 26.5t10.5 26.5t27.5 10.5t27 -10.5t10 -26.5t-10 -26.5t-27 -10.5zM667 0v182q-16 -35 -39 -65q-45 -58 -110 -91.5t-142 -33.5q-69 0 -129.5 25.5t-106 71.5t-71 106.5t-25.5 129.5t25.5 129.5t71 106.5t106 71.5t129.5 25.5
q76 0 141 -31t111.5 -85.5t65.5 -125.5h-40q-19 61 -60.5 107.5t-97.5 73t-120 26.5q-60 0 -113 -23.5t-94 -64.5t-63.5 -95t-22.5 -115t22.5 -115t63.5 -95t94 -64.5t113 -23.5q70 0 129.5 31t101.5 83.5t57 119.5h38v-261h-35z" />
    <glyph glyph-name="gdotaccent" unicode="&#x121;" horiz-adv-x="482" 
d="M231 572q-16 0 -26.5 10.5t-10.5 26.5q0 17 10.5 27.5t26.5 10.5q17 0 27.5 -10.5t10.5 -27.5q0 -16 -10.5 -26.5t-27.5 -10.5zM230 91q-57 0 -102.5 25t-72 69t-26.5 99q0 54 26.5 97.5t72.5 68.5t103 25q30 0 59 -8h181v-32l-125 2q34 -21 56 -53q30 -45 30 -101
q0 -53 -27 -97q-28 -44 -73 -70q25 -4 46 -13q35 -17 54.5 -47t19.5 -71q0 -40 -19 -70.5t-54 -47.5t-84 -17h-239v35h239q54 0 86.5 28t32.5 75t-32 75t-87 28h-65zM396 283q0 46 -22 82.5t-59 57t-84 20.5q-46 0 -83.5 -20.5t-59.5 -57t-22 -82.5q0 -45 22 -81.5
t59.5 -57.5t83.5 -21t83 22t59.5 58t22.5 80z" />
    <glyph glyph-name="uni0122" unicode="&#x122;" horiz-adv-x="761" 
d="M667 0v182q-16 -35 -39 -65q-45 -58 -110 -91.5t-142 -33.5q-69 0 -129.5 25.5t-106 71.5t-71 106.5t-25.5 129.5t25.5 129.5t71 106.5t106 71.5t129.5 25.5q76 0 141 -31t111.5 -85.5t65.5 -125.5h-40q-19 61 -60.5 107.5t-97.5 73t-120 26.5q-60 0 -113 -23.5
t-94 -64.5t-63.5 -95t-22.5 -115t22.5 -115t63.5 -95t94 -64.5t113 -23.5q70 0 129.5 31t101.5 83.5t57 119.5h38v-261h-35zM345 -212q20 37 28 64q3 9 5 18q-12 1 -20 8q-8 9 -8 22q0 14 8.5 22.5t22.5 8.5t22.5 -9t8.5 -25t-8.5 -44t-28.5 -65h-30z" />
    <glyph glyph-name="uni0123" unicode="&#x123;" horiz-adv-x="482" 
d="M263 689q-19 -37 -27 -63q-3 -10 -5 -19q12 -1 19 -8q9 -9 9 -22q0 -14 -8.5 -22.5t-22.5 -8.5t-22.5 9t-8.5 25t8.5 44.5t28.5 64.5h29zM230 91q-57 0 -102.5 25t-72 69t-26.5 99q0 54 26.5 97.5t72.5 68.5t103 25q30 0 59 -8h181v-32l-125 2q34 -21 56 -53
q30 -45 30 -101q0 -53 -27 -97q-28 -44 -73 -70q25 -4 46 -13q35 -17 54.5 -47t19.5 -71q0 -40 -19 -70.5t-54 -47.5t-84 -17h-239v35h239q54 0 86.5 28t32.5 75t-32 75t-87 28h-65zM396 283q0 46 -22 82.5t-59 57t-84 20.5q-46 0 -83.5 -20.5t-59.5 -57t-22 -82.5
q0 -45 22 -81.5t59.5 -57.5t83.5 -21t83 22t59.5 58t22.5 80z" />
    <glyph glyph-name="Hcircumflex" unicode="&#x124;" horiz-adv-x="564" 
d="M301 870l111 -151h-40l-90 124l-90 -124h-39l110 151h38zM82 0v650h37v-464q11 25 26 48q43 65 118.5 100.5t174.5 35.5h7v280h38v-650h-38v334h-14q-95 0 -165 -37t-108.5 -104t-38.5 -159v-34h-37z" />
    <glyph glyph-name="hcircumflex" unicode="&#x125;" horiz-adv-x="487" 
d="M226 870l111 -151h-41l-89 124l-90 -124h-40l111 151h38zM67 0v650h37v-252q9 13 19 25q48 52 127 52q78 0 125 -50.5t47 -137.5v-287h-37v286q0 72 -38 114t-102 42t-102.5 -42t-38.5 -114v-286h-37z" />
    <glyph glyph-name="Hbar" unicode="&#x126;" horiz-adv-x="588" 
d="M93 0v488h-95v34h95v128h38v-128h326v128h37v-128h95v-34h-95v-488h-37v334h-14q-95 0 -165 -36.5t-108.5 -104t-38.5 -159.5v-34h-38zM131 186q10 25 25 48q44 65 119 100.5t175 35.5h7v118h-326v-302z" />
    <glyph glyph-name="hbar" unicode="&#x127;" horiz-adv-x="487" 
d="M-27 572h94v78h37v-78h146v-33h-146v-161q9 13 19 25q48 52 127 52q78 0 125 -50.5t47 -137.5v-267h-37v266q0 72 -38 114t-102 42t-102.5 -42t-38.5 -114v-266h-37v539h-94v33z" />
    <glyph glyph-name="Itilde" unicode="&#x128;" horiz-adv-x="201" 
d="M-35 719v74q0 38 18 58.5t48 20.5q22 0 38.5 -12.5t28.5 -31t22.5 -37t22 -31.5t26.5 -13q18 0 27 13t9 36v74h31v-74q0 -37 -17 -58.5t-48 -21.5q-23 0 -39.5 13t-28.5 31.5t-22.5 37t-21.5 31t-27 12.5q-36 0 -36 -48v-74h-31zM119 0h-37v650h37v-650z" />
    <glyph glyph-name="itilde" unicode="&#x129;" horiz-adv-x="172" 
d="M-49 536v75q0 38 18 58.5t48 20.5q22 0 38.5 -13t28.5 -31t22.5 -37t22 -31.5t26.5 -12.5q18 0 27 12.5t9 35.5v74h31v-74q0 -37 -17 -58t-48 -21q-23 0 -39.5 12.5t-28.5 31t-22 37t-21.5 31.5t-27.5 13q-36 0 -36 -48v-75h-31zM67 467h37v-467h-37v467z" />
    <glyph glyph-name="Imacron" unicode="&#x12a;" horiz-adv-x="201" 
d="M-18 801h237v-34h-237v34zM119 0h-37v650h37v-650z" />
    <glyph glyph-name="imacron" unicode="&#x12b;" horiz-adv-x="172" 
d="M-32 622h237v-33h-237v33zM67 467h37v-467h-37v467z" />
    <glyph glyph-name="Ibreve" unicode="&#x12c;" horiz-adv-x="201" 
d="M101 747q45 0 71 25t26 70v24h32v-24q0 -60 -34.5 -93t-94.5 -33q-61 0 -95.5 33t-34.5 93v24h32v-24q0 -45 25.5 -70t72.5 -25zM119 0h-37v650h37v-650z" />
    <glyph glyph-name="ibreve" unicode="&#x12d;" horiz-adv-x="172" 
d="M87 564q45 0 71 25t26 71v24h32v-24q0 -61 -34.5 -93.5t-94.5 -32.5q-61 0 -95.5 32.5t-34.5 93.5v24h32v-24q0 -46 25.5 -71t72.5 -25zM67 467h37v-467h-37v467z" />
    <glyph glyph-name="Iogonek" unicode="&#x12e;" horiz-adv-x="201" 
d="M119 -161h-36q-38 0 -61.5 20t-23.5 51q0 21 11 39.5t33 35.5q16 13 40 24v641h37v-650q-47 -21 -67 -42.5t-20 -45.5q0 -20 14 -31.5t39 -11.5h34v-30z" />
    <glyph glyph-name="iogonek" unicode="&#x12f;" horiz-adv-x="172" 
d="M86 563q-14 0 -22.5 9t-8.5 22q0 14 8.5 22.5t22.5 8.5t22.5 -8.5t8.5 -22.5q0 -13 -8.5 -22t-22.5 -9zM104 -161h-36q-38 0 -61.5 20t-23.5 51q0 21 11 39.5t33 35.5q16 13 40 24v458h37v-467q-47 -21 -67 -42.5t-20 -45.5q0 -20 14 -31.5t39 -11.5h34v-30z" />
    <glyph glyph-name="Idotaccent" unicode="&#x130;" horiz-adv-x="201" 
d="M101 755q-17 0 -27.5 10.5t-10.5 26.5t10.5 26.5t27.5 10.5t27 -10.5t10 -26.5t-10 -26.5t-27 -10.5zM119 0h-37v650h37v-650z" />
    <glyph glyph-name="dotlessi" unicode="&#x131;" horiz-adv-x="172" 
d="M67 467h37v-467h-37v467z" />
    <glyph glyph-name="IJ" unicode="&#x132;" horiz-adv-x="492" 
d="M119 0h-37v650h37v-650zM223 0v36h26q61 0 96.5 33t35.5 96v450h-158v35h196v-485q0 -80 -46 -122.5t-124 -42.5h-26z" />
    <glyph glyph-name="ij" unicode="&#x133;" horiz-adv-x="331" 
d="M86 563q-14 0 -22.5 9t-8.5 22q0 14 8.5 22.5t22.5 8.5t22.5 -8.5t8.5 -22.5q0 -13 -8.5 -22t-22.5 -9zM245 563q-14 0 -22.5 9t-8.5 22q0 14 8.5 22.5t22.5 8.5t22.5 -8.5t8.5 -22.5q0 -13 -8.5 -22t-22.5 -9zM67 467h37v-467h-37v467zM226 467h37v-499q0 -60 -31 -89
t-89 -29h-8v34h8q41 0 62 20t21 64v499z" />
    <glyph glyph-name="Jcircumflex" unicode="&#x134;" horiz-adv-x="299" 
d="M157 870l111 -151h-40l-90 124l-90 -124h-39l110 151h38zM29 0v36h26q61 0 97 33t36 96v450h-159v35h196v-485q0 -80 -46 -122.5t-124 -42.5h-26z" />
    <glyph glyph-name="jcircumflex" unicode="&#x135;" horiz-adv-x="172" 
d="M104 687l111 -151h-40l-89 124l-90 -124h-40l111 151h37zM67 467h37v-499q0 -60 -31 -89t-89 -29h-8v34h8q41 0 62 20t21 64v499z" />
    <glyph glyph-name="uni0136" unicode="&#x136;" horiz-adv-x="537" 
d="M82 0v650h37v-455l311 455h43l-261 -381l16 6q30 10 61 10q62 0 108.5 -26.5t72.5 -72t26 -103.5v-83h-38v82q0 47 -21 84.5t-59 60t-89 22.5t-89.5 -22.5t-59.5 -60.5t-21 -84v-82h-37zM253 -212q19 37 28 64q2 9 5 18q-12 1 -20 8q-9 9 -9 22q0 14 9 22.5t22 8.5
q14 0 22.5 -9t8.5 -25t-8.5 -44t-28.5 -65h-29z" />
    <glyph glyph-name="uni0137" unicode="&#x137;" horiz-adv-x="482" 
d="M67 0v650h37v-459q11 15 27 32l233 244h45l-207 -217q1 0 2 1q26 7 49 7q87 0 136.5 -51t49.5 -138v-69h-37v69q0 73 -40.5 114.5t-108.5 41.5q-69 0 -109 -40.5t-40 -115.5v-69h-37zM220 -212q20 37 28 64q3 9 5 18q-12 1 -20 8q-9 9 -9 22q0 14 9 22.5t22 8.5
q14 0 23 -9t9 -25t-9 -44t-29 -65h-29z" />
    <glyph glyph-name="Lacute" unicode="&#x139;" horiz-adv-x="412" 
d="M83 719l81 151h41l-87 -151h-35zM381 0h-299v650h37v-614h262v-36z" />
    <glyph glyph-name="lacute" unicode="&#x13a;" horiz-adv-x="209" 
d="M66 719l81 151h41l-87 -151h-35zM190 0h-11q-60 0 -88.5 30t-28.5 91v529h37v-528q0 -46 19 -67t61 -21h11v-34z" />
    <glyph glyph-name="uni013B" unicode="&#x13b;" horiz-adv-x="412" 
d="M381 0h-299v650h37v-614h262v-36zM194 -212q20 37 28 64q3 9 5 18q-12 1 -20 8q-8 9 -8 22q0 14 8.5 22.5t22.5 8.5t22.5 -9t8.5 -25t-8.5 -44t-28.5 -65h-30z" />
    <glyph glyph-name="uni013C" unicode="&#x13c;" horiz-adv-x="209" 
d="M190 0h-11q-60 0 -88.5 30t-28.5 91v529h37v-528q0 -46 19 -67t61 -21h11v-34zM79 -212q20 37 28 64q3 9 5 18q-12 1 -20 8q-8 9 -8 22q0 14 8.5 22.5t22.5 8.5t22.5 -9t8.5 -25t-8.5 -44t-28.5 -65h-30z" />
    <glyph glyph-name="Lcaron" unicode="&#x13d;" horiz-adv-x="412" 
d="M381 0h-299v650h37v-614h262v-36zM325 460v190h38l-7 -190h-31z" />
    <glyph glyph-name="lcaron" unicode="&#x13e;" horiz-adv-x="266" 
d="M190 0h-11q-60 0 -88.5 30t-28.5 91v529h37v-528q0 -46 19 -67t61 -21h11v-34zM197 460v190h38l-6 -190h-32z" />
    <glyph glyph-name="Ldot" unicode="&#x13f;" horiz-adv-x="422" 
d="M381 0h-299v650h37v-614h262v-36zM305 272q-13 0 -22 9t-9 22q0 14 9 22.5t22 8.5q14 0 22.5 -8.5t8.5 -22.5q0 -13 -8.5 -22t-22.5 -9z" />
    <glyph glyph-name="ldot" unicode="&#x140;" horiz-adv-x="269" 
d="M190 0h-11q-60 0 -88.5 30t-28.5 91v529h37v-528q0 -46 19 -67t61 -21h11v-34zM213 268q-14 0 -23 8.5t-9 21.5q0 14 9 22.5t23 8.5q13 0 22 -8.5t9 -22.5q0 -13 -9 -21.5t-22 -8.5z" />
    <glyph glyph-name="Lslash" unicode="&#x141;" horiz-adv-x="425" 
d="M299 352l-166 -89v-227h262v-36h-300v243l-87 -47v39l87 46v369h38v-349l166 89v-38z" />
    <glyph glyph-name="lslash" unicode="&#x142;" horiz-adv-x="243" 
d="M216 352l-91 -47v-183q0 -46 19 -67t61 -21h11v-34h-11q-60 0 -88.5 30t-28.5 91v165l-80 -41v37l80 41v327h37v-308l91 47v-37z" />
    <glyph glyph-name="Nacute" unicode="&#x143;" horiz-adv-x="564" 
d="M262 719l80 151h42l-87 -151h-35zM82 0v650h36q60 -143 145 -262q80 -112 182 -203v465h38v-650h-38v136q-73 65 -132 132q-62 71 -113 149q-43 67 -81 143v-560h-37z" />
    <glyph glyph-name="nacute" unicode="&#x144;" horiz-adv-x="487" 
d="M227 536l80 151h41l-86 -151h-35zM67 0v467h36v-72q9 15 20 28q48 52 127 52q78 0 125 -50.5t47 -137.5v-287h-37v286q0 72 -38 114t-102 42t-102.5 -42t-38.5 -114v-286h-37z" />
    <glyph glyph-name="uni0145" unicode="&#x145;" horiz-adv-x="564" 
d="M82 0v650h36q60 -143 145 -262q80 -112 182 -203v465h38v-650h-38v136q-73 65 -132 132q-62 71 -113 149q-43 67 -81 143v-560h-37zM255 -212q20 37 28 64q3 9 5 18q-12 1 -20 8q-9 9 -9 22q0 14 9 22.5t22 8.5q14 0 23 -9t9 -25t-9 -44t-29 -65h-29z" />
    <glyph glyph-name="uni0146" unicode="&#x146;" horiz-adv-x="487" 
d="M67 0v467h36v-72q9 15 20 28q48 52 127 52q78 0 125 -50.5t47 -137.5v-287h-37v286q0 72 -38 114t-102 42t-102.5 -42t-38.5 -114v-286h-37zM213 -212q20 37 28 64q3 9 5 18q-12 1 -20 8q-9 9 -9 22q0 14 9 22.5t22 8.5q14 0 23 -9t9 -25t-9 -44t-29 -65h-29z" />
    <glyph glyph-name="Ncaron" unicode="&#x147;" horiz-adv-x="564" 
d="M263 719l-111 151h40l90 -124l89 124h40l-111 -151h-37zM82 0v650h36q60 -143 145 -262q80 -112 182 -203v465h38v-650h-38v136q-73 65 -132 132q-62 71 -113 149q-43 67 -81 143v-560h-37z" />
    <glyph glyph-name="ncaron" unicode="&#x148;" horiz-adv-x="487" 
d="M225 536l-111 151h40l90 -124l90 124h39l-110 -151h-38zM67 0v467h36v-72q9 15 20 28q48 52 127 52q78 0 125 -50.5t47 -137.5v-287h-37v286q0 72 -38 114t-102 42t-102.5 -42t-38.5 -114v-286h-37z" />
    <glyph glyph-name="Omacron" unicode="&#x14c;" horiz-adv-x="750" 
d="M257 801h237v-34h-237v34zM44 325q0 69 25.5 129.5t71 106.5t105.5 71.5t129 25.5t129 -25.5t105.5 -71.5t71 -106.5t25.5 -129.5t-25.5 -129.5t-71 -106.5t-105.5 -71.5t-129 -25.5t-129 25.5t-105.5 71.5t-71 106.5t-25.5 129.5zM83 325q0 -61 22.5 -115t63 -95
t93.5 -64.5t113 -23.5t113 23.5t93.5 64.5t63.5 95t23 115t-23 115t-63.5 95t-93.5 64.5t-113 23.5t-113 -23.5t-93.5 -64.5t-63 -95t-22.5 -115z" />
    <glyph glyph-name="omacron" unicode="&#x14d;" horiz-adv-x="567" 
d="M165 619h237v-34h-237v34zM283 -8q-66 0 -121.5 32.5t-88 87t-32.5 122.5q0 67 32.5 121.5t88 87t121.5 32.5q68 0 123 -32.5t87.5 -87t32.5 -122.5q0 -66 -32.5 -121t-87.5 -87.5t-123 -32.5zM283 441q-55 0 -102 -28t-74.5 -75t-27.5 -105q0 -56 27.5 -103.5
t74.5 -75.5t103 -28t102.5 28t74 75.5t27.5 103.5q0 58 -27.5 105t-74 75t-103.5 28z" />
    <glyph glyph-name="Obreve" unicode="&#x14e;" horiz-adv-x="750" 
d="M375 747q46 0 72 25t26 70v24h32v-24q0 -60 -34.5 -93t-95.5 -33q-60 0 -94.5 33t-34.5 93v24h31v-24q0 -45 26 -70t72 -25zM44 325q0 69 25.5 129.5t71 106.5t105.5 71.5t129 25.5t129 -25.5t105.5 -71.5t71 -106.5t25.5 -129.5t-25.5 -129.5t-71 -106.5t-105.5 -71.5
t-129 -25.5t-129 25.5t-105.5 71.5t-71 106.5t-25.5 129.5zM83 325q0 -61 22.5 -115t63 -95t93.5 -64.5t113 -23.5t113 23.5t93.5 64.5t63.5 95t23 115t-23 115t-63.5 95t-93.5 64.5t-113 23.5t-113 -23.5t-93.5 -64.5t-63 -95t-22.5 -115z" />
    <glyph glyph-name="obreve" unicode="&#x14f;" horiz-adv-x="567" 
d="M283 564q46 0 72 25t26 71v24h32v-24q0 -61 -34.5 -93.5t-95.5 -32.5q-60 0 -94.5 32.5t-34.5 93.5v24h32v-24q0 -46 25.5 -71t71.5 -25zM283 -8q-66 0 -121.5 32.5t-88 87t-32.5 121.5q0 68 32.5 122.5t88 87t121.5 32.5q68 0 123 -32.5t87.5 -87t32.5 -122.5
q0 -66 -32.5 -121t-87.5 -87.5t-123 -32.5zM283 441q-55 0 -102 -28t-74.5 -75t-27.5 -105q0 -56 27.5 -103.5t74.5 -75.5t102 -28q57 0 103.5 28t74 75.5t27.5 103.5q0 58 -27.5 105t-74 75t-103.5 28z" />
    <glyph glyph-name="Ohungarumlaut" unicode="&#x150;" horiz-adv-x="750" 
d="M425 719l65 151h39l-71 -151h-33zM279 719l56 151h38l-60 -151h-34zM44 325q0 69 25.5 129.5t71 106.5t105.5 71.5t129 25.5t129 -25.5t105.5 -71.5t71 -106.5t25.5 -129.5t-25.5 -129.5t-71 -106.5t-105.5 -71.5t-129 -25.5t-129 25.5t-105.5 71.5t-71 106.5
t-25.5 129.5zM83 325q0 -61 22.5 -115t63 -95t93.5 -64.5t113 -23.5t113 23.5t93.5 64.5t63.5 95t23 115t-23 115t-63.5 95t-93.5 64.5t-113 23.5t-113 -23.5t-93.5 -64.5t-63 -95t-22.5 -115z" />
    <glyph glyph-name="ohungarumlaut" unicode="&#x151;" horiz-adv-x="567" 
d="M331 536l66 151h39l-71 -151h-34zM186 536l55 151h38l-60 -151h-33zM283 -8q-66 0 -121.5 32.5t-88 87t-32.5 121.5q0 68 32.5 122.5t88 87t121.5 32.5q68 0 123 -32.5t87.5 -87t32.5 -122.5q0 -66 -32.5 -121t-87.5 -87.5t-123 -32.5zM283 441q-55 0 -102 -28t-74.5 -75
t-27.5 -105q0 -56 27.5 -103.5t74.5 -75.5t102 -28q57 0 103.5 28t74 75.5t27.5 103.5q0 58 -27.5 105t-74 75t-103.5 28z" />
    <glyph glyph-name="OE" unicode="&#x152;" horiz-adv-x="815" 
d="M488 36h285v-36h-390q-72 0 -133.5 24.5t-107.5 69t-72 103.5t-26 128q0 68 26 127.5t72 103.5t107.5 69t133.5 25h390v-35h-285v-391q2 3 3 5q33 58 93 89t144 31h11v-36h-11q-113 0 -176.5 -58.5t-63.5 -163.5v-55zM451 36v579h-76q-60 0 -113 -22.5t-93.5 -62.5
t-63 -92.5t-22.5 -112.5t22.5 -112.5t63 -92.5t93.5 -62t113 -22h76z" />
    <glyph glyph-name="oe" unicode="&#x153;" horiz-adv-x="989" 
d="M283 -8q-66 0 -121.5 32.5t-88 87t-32.5 121.5q0 68 32.5 122.5t88 87t121.5 32.5q57 0 105.5 -23.5t81.5 -66.5q24 -29 37 -64q13 35 36 64q33 42 80.5 66t101.5 24q65 0 115.5 -29t80.5 -78.5t30 -109.5v-13h-425v-6v-9q0 -55 27 -101.5t72.5 -75t99.5 -28.5
q61 0 108 29t74 78h37q-19 -42 -51.5 -73.5t-75 -49t-92.5 -17.5q-55 0 -102.5 24t-80.5 66q-23 29 -36 64q-12 -35 -35 -64q-34 -42 -82.5 -66t-105.5 -24zM914 277q-4 40 -25 75q-25 41 -67.5 65.5t-96.5 24.5t-99.5 -28t-72.5 -74q-18 -30 -24 -63h385zM283 26
q57 0 103.5 28t74 75.5t27.5 103.5q0 58 -27.5 105t-74 75t-103.5 28q-55 0 -102 -28t-74.5 -75t-27.5 -105q0 -56 27.5 -103.5t74.5 -75.5t102 -28z" />
    <glyph glyph-name="Racute" unicode="&#x154;" 
d="M231 719l81 151h41l-87 -151h-35zM82 0v650h171q64 0 113.5 -23t77.5 -65t28 -100q0 -49 -17.5 -83t-46 -58.5t-63 -42.5t-69.5 -36q13 1 25 1q48 0 91 -21t71 -64t28 -99v-59h-38v58q0 44 -20.5 79.5t-58.5 56.5t-87 21q-50 0 -88 -21t-59 -56.5t-21 -79.5v-58h-37z
M119 615v-450q20 32 50 54t65.5 39.5t70.5 34.5t64.5 39t47 52.5t17.5 76.5q0 71 -50 112.5t-130 41.5h-135z" />
    <glyph glyph-name="racute" unicode="&#x155;" horiz-adv-x="293" 
d="M142 536l81 151h41l-87 -151h-35zM67 0v467h35v-78q10 19 23 35q46 51 124 51h16v-35h-19q-66 0 -104 -42.5t-38 -117.5v-280h-37z" />
    <glyph glyph-name="uni0156" unicode="&#x156;" 
d="M82 0v650h171q64 0 113.5 -23t77.5 -65t28 -100q0 -49 -17.5 -83t-46 -58.5t-63 -42.5t-69.5 -36q13 1 25 1q48 0 91 -21t71 -64t28 -99v-59h-38v58q0 44 -20.5 79.5t-58.5 56.5t-87 21q-50 0 -88 -21t-59 -56.5t-21 -79.5v-58h-37zM119 615v-450q20 32 50 54t65.5 39.5
t70.5 34.5t64.5 39t47 52.5t17.5 76.5q0 71 -50 112.5t-130 41.5h-135zM256 -212q20 37 28 64q3 9 5 18q-12 1 -20 8q-9 9 -9 22q0 14 9 22.5t22 8.5q14 0 23 -9t9 -25t-9 -44t-29 -65h-29z" />
    <glyph glyph-name="uni0157" unicode="&#x157;" horiz-adv-x="293" 
d="M67 0v467h35v-78q10 19 23 35q46 51 124 51h16v-35h-19q-66 0 -104 -42.5t-38 -117.5v-280h-37zM49 -212q20 37 28 64q3 9 5 18q-12 1 -19 8q-9 9 -9 22q0 14 8.5 22.5t22.5 8.5t22.5 -9t8.5 -25t-8.5 -44t-28.5 -65h-30z" />
    <glyph glyph-name="Rcaron" unicode="&#x158;" 
d="M230 719l-111 151h40l90 -124l89 124h40l-111 -151h-37zM82 0v650h171q64 0 113.5 -23t77.5 -65t28 -100q0 -49 -17.5 -83t-46 -58.5t-63 -42.5t-69.5 -36q13 1 25 1q48 0 91 -21t71 -64t28 -99v-59h-38v58q0 44 -20.5 79.5t-58.5 56.5t-87 21q-50 0 -88 -21t-59 -56.5
t-21 -79.5v-58h-37zM119 615v-450q20 32 50 54t65.5 39.5t70.5 34.5t64.5 39t47 52.5t17.5 76.5q0 71 -50 112.5t-130 41.5h-135z" />
    <glyph glyph-name="rcaron" unicode="&#x159;" horiz-adv-x="293" 
d="M138 536l-111 151h40l90 -124l90 124h39l-110 -151h-38zM67 0v467h35v-78q10 19 23 35q46 51 124 51h16v-35h-19q-66 0 -104 -42.5t-38 -117.5v-280h-37z" />
    <glyph glyph-name="Sacute" unicode="&#x15a;" horiz-adv-x="463" 
d="M214 719l81 151h41l-87 -151h-35zM235 -8q-51 0 -97 22t-74 64.5t-28 105.5h38q0 -49 22 -84.5t59.5 -54t79.5 -18.5q67 0 108.5 38t41.5 99q0 40 -18 66.5t-47 45t-64 32.5t-70.5 29.5t-64.5 35.5t-46.5 50.5t-17.5 75.5q0 44 23 80t62.5 57.5t86.5 21.5q53 0 93 -22
t63 -61t23 -90h-38q0 61 -39.5 99.5t-101.5 38.5q-36 0 -67 -17t-49 -45t-18 -62q0 -38 17.5 -63.5t47 -43.5t64.5 -32t70 -29t64.5 -36.5t47 -53t17.5 -77.5q0 -50 -24 -89t-66.5 -61t-97.5 -22z" />
    <glyph glyph-name="sacute" unicode="&#x15b;" horiz-adv-x="389" 
d="M179 536l80 151h42l-87 -151h-35zM45 0v34h161q52 0 80.5 24.5t28.5 67.5q0 34 -20 53t-51 30t-66.5 19.5t-66.5 22t-51 38t-20 66.5q0 50 34.5 81t96.5 31h158v-34h-158q-45 0 -69.5 -21t-24.5 -56q0 -34 20 -52.5t51 -29.5t66 -19.5t66.5 -22.5t51.5 -38.5t20 -67.5
q0 -57 -39 -91.5t-106 -34.5h-162z" />
    <glyph glyph-name="Scircumflex" unicode="&#x15c;" horiz-adv-x="463" 
d="M250 870l111 -151h-40l-90 124l-89 -124h-40l111 151h37zM235 -8q-51 0 -97 22t-74 64.5t-28 105.5h38q0 -49 22 -84.5t59.5 -54t79.5 -18.5q67 0 108.5 38t41.5 99q0 40 -18 66.5t-47 45t-64 32.5t-70.5 29.5t-64.5 35.5t-46.5 50.5t-17.5 75.5q0 44 23 80t62.5 57.5
t86.5 21.5q53 0 93 -22t63 -61t23 -90h-38q0 61 -39.5 99.5t-101.5 38.5q-36 0 -67 -17t-49 -45t-18 -62q0 -38 17.5 -63.5t47 -43.5t64.5 -32t70 -29t64.5 -36.5t47 -53t17.5 -77.5q0 -50 -24 -89t-66.5 -61t-97.5 -22z" />
    <glyph glyph-name="scircumflex" unicode="&#x15d;" horiz-adv-x="389" 
d="M213 687l111 -151h-40l-90 124l-90 -124h-39l110 151h38zM45 0v34h161q52 0 80.5 24.5t28.5 67.5q0 34 -20 53t-51 30t-66.5 19.5t-66.5 22t-51 38t-20 66.5q0 50 34.5 81t96.5 31h158v-34h-158q-45 0 -69.5 -21t-24.5 -56q0 -34 20 -52.5t51 -29.5t66 -19.5t66.5 -22.5
t51.5 -38.5t20 -67.5q0 -57 -39 -91.5t-106 -34.5h-162z" />
    <glyph glyph-name="Scedilla" unicode="&#x15e;" horiz-adv-x="463" 
d="M219 -139l4 131q-44 2 -85 22q-46 22 -74 64.5t-28 105.5h38q0 -49 22 -84.5t59.5 -54t79.5 -18.5q67 0 108.5 38t41.5 99q0 40 -18 66.5t-47 45t-64 32.5t-70.5 29.5t-64.5 35.5t-46.5 50.5t-17.5 75.5q0 44 23 80t62.5 57.5t86.5 21.5q53 0 93 -22t63 -61t23 -90h-38
q0 61 -39.5 99.5t-101.5 38.5q-36 0 -67 -17t-49 -45t-18 -62q0 -38 17.5 -63.5t47 -43.5t64.5 -32t70 -29t64.5 -36.5t47 -53t17.5 -77.5q0 -49 -23 -87.5t-64 -60.5q-35 -20 -80 -23v-132h-37z" />
    <glyph glyph-name="scedilla" unicode="&#x15f;" horiz-adv-x="389" 
d="M45 0v34h161q52 0 80.5 24.5t28.5 67.5q0 34 -20 53t-51 30t-66.5 19.5t-66.5 22t-51 38t-20 66.5q0 50 34.5 81t96.5 31h158v-34h-158q-45 0 -69.5 -21t-24.5 -56q0 -34 20 -52.5t51 -29.5t66 -19.5t66.5 -22.5t51.5 -38.5t20 -67.5q0 -57 -39 -91q-37 -33 -98 -35v-139
h-37l4 139h-137z" />
    <glyph glyph-name="Scaron" unicode="&#x160;" horiz-adv-x="463" 
d="M213 719l-111 151h40l90 -124l89 124h40l-111 -151h-37zM235 -8q-51 0 -97 22t-74 64.5t-28 105.5h38q0 -49 22 -84.5t59.5 -54t79.5 -18.5q67 0 108.5 38t41.5 99q0 40 -18 66.5t-47 45t-64 32.5t-70.5 29.5t-64.5 35.5t-46.5 50.5t-17.5 75.5q0 44 23 80t62.5 57.5
t86.5 21.5q53 0 93 -22t63 -61t23 -90h-38q0 61 -39.5 99.5t-101.5 38.5q-36 0 -67 -17t-49 -45t-18 -62q0 -38 17.5 -63.5t47 -43.5t64.5 -32t70 -29t64.5 -36.5t47 -53t17.5 -77.5q0 -50 -24 -89t-66.5 -61t-97.5 -22z" />
    <glyph glyph-name="scaron" unicode="&#x161;" horiz-adv-x="389" 
d="M177 536l-111 151h40l90 -124l90 124h39l-110 -151h-38zM45 0v34h161q52 0 80.5 24.5t28.5 67.5q0 34 -20 53t-51 30t-66.5 19.5t-66.5 22t-51 38t-20 66.5q0 50 34.5 81t96.5 31h158v-34h-158q-45 0 -69.5 -21t-24.5 -56q0 -34 20 -52.5t51 -29.5t66 -19.5t66.5 -22.5
t51.5 -38.5t20 -67.5q0 -57 -39 -91.5t-106 -34.5h-162z" />
    <glyph glyph-name="uni0162" unicode="&#x162;" horiz-adv-x="434" 
d="M198 0v623q-44 -1 -87 -4q-51 -5 -93 -12v35q43 8 95 12t104 4t104.5 -4.5t94.5 -11.5v-35q-27 4 -59.5 8t-66.5 6l-54 2v-623h-38zM181 -212q19 37 28 64q2 9 5 18q-12 1 -20 8q-9 9 -9 22q0 14 9 22.5t22 8.5q14 0 22.5 -9t8.5 -25t-8.5 -44t-28.5 -65h-29z" />
    <glyph glyph-name="uni0163" unicode="&#x163;" horiz-adv-x="296" 
d="M261 433h-164v-289q0 -56 29 -83t78 -27h58v-34h-59q-65 0 -104 36t-39 108v447l37 12v-136h164v-34zM117 -212q20 37 28 64q3 9 5 18q-12 1 -20 8q-9 9 -9 22q0 14 9 22.5t22 8.5q14 0 23 -9t9 -25t-9 -44t-29 -65h-29z" />
    <glyph glyph-name="Tcaron" unicode="&#x164;" horiz-adv-x="434" 
d="M199 719l-111 151h40l90 -124l90 124h39l-110 -151h-38zM198 0v623q-44 -1 -87 -4q-51 -5 -93 -12v35q43 8 95 12t104 4t104.5 -4.5t94.5 -11.5v-35q-27 4 -59.5 8t-66.5 6l-54 2v-623h-38z" />
    <glyph glyph-name="tcaron" unicode="&#x165;" horiz-adv-x="296" 
d="M183 560v190h38l-6 -190h-32zM261 433h-164v-289q0 -56 29 -83t78 -27h58v-34h-59q-65 0 -104 36t-39 108v447l37 12v-136h164v-34z" />
    <glyph glyph-name="Tbar" unicode="&#x166;" horiz-adv-x="434" 
d="M198 0v296h-139v35h139v292q-44 -1 -87 -4q-51 -5 -93 -12v35q43 8 95 12t104 4t104.5 -4.5t94.5 -11.5v-35q-27 5 -59.5 8.5t-66.5 5.5l-54 2v-292h139v-35h-139v-296h-38z" />
    <glyph glyph-name="tbar" unicode="&#x167;" horiz-adv-x="316" 
d="M2 262h78v329l37 12v-136h164v-34h-164v-171h141v-32h-141v-86q0 -56 29 -83t78 -27h58v-34h-59q-65 0 -104 36t-39 108v86h-78v32z" />
    <glyph glyph-name="Utilde" unicode="&#x168;" horiz-adv-x="533" 
d="M132 719v74q0 38 17.5 58.5t47.5 20.5q23 0 39 -12.5t28.5 -31t22.5 -37t21.5 -31.5t27.5 -13q18 0 26.5 13t8.5 36v74h32v-74q0 -37 -17.5 -58.5t-48.5 -21.5q-23 0 -39 13t-28 31.5t-22.5 37t-22 31t-26.5 12.5q-36 0 -36 -48v-74h-31zM267 28q45 0 80 19.5t55 54.5
t20 79v469h38v-469q0 -55 -24.5 -98t-68 -67t-100.5 -24t-100.5 24t-68.5 67t-25 98v469h38v-469q0 -44 20.5 -79t56 -54.5t79.5 -19.5z" />
    <glyph glyph-name="utilde" unicode="&#x169;" horiz-adv-x="479" 
d="M104 536v75q0 38 18 58.5t48 20.5q22 0 38.5 -13t28.5 -31t22.5 -37t21.5 -31.5t27 -12.5q18 0 27 12.5t9 35.5v74h31v-74q0 -37 -17 -58t-49 -21q-22 0 -38.5 12.5t-28.5 31t-22.5 37t-22 31.5t-26.5 13q-36 0 -36 -48v-75h-31zM65 467h37v-294q0 -69 37.5 -108
t99.5 -39q63 0 100.5 39t37.5 108v294h37v-292q0 -86 -47 -134.5t-128 -48.5q-79 0 -126.5 48.5t-47.5 134.5v292z" />
    <glyph glyph-name="Umacron" unicode="&#x16a;" horiz-adv-x="533" 
d="M149 801h237v-34h-237v34zM267 28q45 0 80 19.5t55 54.5t20 79v469h38v-469q0 -55 -24.5 -98t-68 -67t-100.5 -24t-100.5 24t-68.5 67t-25 98v469h38v-469q0 -44 20.5 -79t56 -54.5t79.5 -19.5z" />
    <glyph glyph-name="umacron" unicode="&#x16b;" horiz-adv-x="479" 
d="M121 619h237v-34h-237v34zM65 467h37v-294q0 -69 37.5 -108t99.5 -39q63 0 100.5 39t37.5 108v294h37v-292q0 -86 -47 -134.5t-128 -48.5q-79 0 -126.5 48.5t-47.5 134.5v292z" />
    <glyph glyph-name="Ubreve" unicode="&#x16c;" horiz-adv-x="533" 
d="M267 747q46 0 72 25t26 70v24h32v-24q0 -60 -34.5 -93t-95.5 -33q-60 0 -94.5 33t-34.5 93v24h31v-24q0 -45 26 -70t72 -25zM267 28q45 0 80 19.5t55 54.5t20 79v469h38v-469q0 -55 -24.5 -98t-68 -67t-100.5 -24t-100.5 24t-68.5 67t-25 98v469h38v-469q0 -44 20.5 -79
t56 -54.5t79.5 -19.5z" />
    <glyph glyph-name="ubreve" unicode="&#x16d;" horiz-adv-x="479" 
d="M239 564q46 0 72 25t26 71v24h32v-24q0 -61 -34.5 -93.5t-95.5 -32.5q-60 0 -94.5 32.5t-34.5 93.5v24h32v-24q0 -46 25.5 -71t71.5 -25zM65 467h37v-294q0 -69 37.5 -108t99.5 -39q63 0 100.5 39t37.5 108v294h37v-292q0 -86 -47 -134.5t-128 -48.5q-79 0 -126.5 48.5
t-47.5 134.5v292z" />
    <glyph glyph-name="Uring" unicode="&#x16e;" horiz-adv-x="533" 
d="M267 714q-30 0 -54 13t-38 36t-14 52q0 44 30 73t76 29q31 0 55 -13t37.5 -36t13.5 -53q0 -44 -29.5 -72.5t-76.5 -28.5zM267 743q34 0 54 20.5t20 51.5q0 32 -20 52.5t-54 20.5q-33 0 -53.5 -20.5t-20.5 -52.5q0 -31 20.5 -51.5t53.5 -20.5zM267 28q45 0 80 19.5
t55 54.5t20 79v469h38v-469q0 -55 -24.5 -98t-68 -67t-100.5 -24t-100.5 24t-68.5 67t-25 98v469h38v-469q0 -44 20.5 -79t56 -54.5t79.5 -19.5z" />
    <glyph glyph-name="uring" unicode="&#x16f;" horiz-adv-x="479" 
d="M239 531q-30 0 -54 13t-38 36t-14 53q0 44 30 73t76 29q31 0 55 -13t38 -36t14 -53q0 -44 -30 -73t-77 -29zM239 561q34 0 54.5 20t20.5 52t-20.5 52t-54.5 20q-32 0 -53 -20t-21 -52t21 -52t53 -20zM65 467h37v-294q0 -69 37.5 -108t99.5 -39q63 0 100.5 39t37.5 108
v294h37v-292q0 -86 -47 -134.5t-128 -48.5q-79 0 -126.5 48.5t-47.5 134.5v292z" />
    <glyph glyph-name="Uhungarumlaut" unicode="&#x170;" horiz-adv-x="533" 
d="M315 719l65 151h40l-72 -151h-33zM170 719l55 151h38l-60 -151h-33zM267 28q45 0 80 19.5t55 54.5t20 79v469h38v-469q0 -55 -24.5 -98t-68 -67t-100.5 -24t-100.5 24t-68.5 67t-25 98v469h38v-469q0 -44 20.5 -79t56 -54.5t79.5 -19.5z" />
    <glyph glyph-name="uhungarumlaut" unicode="&#x171;" horiz-adv-x="479" 
d="M287 536l66 151h39l-71 -151h-34zM142 536l56 151h37l-60 -151h-33zM65 467h37v-294q0 -69 37.5 -108t99.5 -39q63 0 100.5 39t37.5 108v294h37v-292q0 -86 -47 -134.5t-128 -48.5q-79 0 -126.5 48.5t-47.5 134.5v292z" />
    <glyph glyph-name="Uogonek" unicode="&#x172;" horiz-adv-x="533" 
d="M329 -161h-33q-41 0 -66 21t-25 55q0 28 18 50q12 14 33 27q-50 2 -89 24q-44 24 -69 67t-25 98v469h38v-469q0 -44 20.5 -79t56 -54.5t79.5 -19.5q45 0 80 19.5t55 54.5t20 79v469h38v-469q0 -66 -33.5 -112t-87.5 -65q-38 -13 -60 -26.5t-31.5 -27.5t-9.5 -31
q0 -24 15.5 -37t43.5 -13h32v-30z" />
    <glyph glyph-name="uogonek" unicode="&#x173;" horiz-adv-x="479" 
d="M299 -161h-36q-38 0 -61.5 20t-23.5 53q0 21 10.5 38.5t32.5 34.5q5 3 10 7q-73 2 -118 48q-48 49 -48 135v292h37v-294q0 -69 37.5 -108t99.5 -39q63 0 100.5 39t37.5 108v294h37v-292q0 -64 -27 -108t-89 -69q-50 -19 -68.5 -39t-18.5 -44q0 -21 14.5 -33.5t39.5 -12.5
h34v-30z" />
    <glyph glyph-name="Wcircumflex" unicode="&#x174;" horiz-adv-x="811" 
d="M427 870l111 -151h-40l-90 124l-89 -124h-40l111 151h37zM82 0v650h37v-613q129 2 199 73q73 73 73 207v333h37v-613q81 1 133 23q55 24 86 81t42 158l40 351h38l-40 -351q-12 -113 -48.5 -178t-100.5 -93t-163 -28h-24v156q-20 -41 -51 -73q-82 -83 -230 -83h-28z" />
    <glyph glyph-name="wcircumflex" unicode="&#x175;" horiz-adv-x="739" 
d="M392 687l111 -151h-40l-90 124l-89 -124h-40l111 151h37zM67 0v467h37v-431h50q99 0 151 50q51 50 51 146v235h37v-431h35q95 0 143 44.5t60 144.5l30 242h38l-30 -242q-15 -119 -71.5 -172t-168.5 -53h-71v107q-16 -37 -46 -61q-27 -22 -67.5 -34t-97.5 -12h-80z" />
    <glyph glyph-name="Ycircumflex" unicode="&#x176;" horiz-adv-x="479" 
d="M283 870l111 -151h-40l-90 124l-89 -124h-40l111 151h37zM237 0l55 198q-75 2 -129 31q-58 30 -88.5 89t-30.5 143q0 41 6.5 86t20.5 103h38q-14 -60 -21 -105t-7 -84q0 -110 58 -169q58 -57 163 -58l117 416h38l-180 -650h-40z" />
    <glyph glyph-name="ycircumflex" unicode="&#x177;" horiz-adv-x="466" 
d="M286 687l111 -151h-40l-90 124l-90 -124h-39l110 151h38zM47 253q0 51 7 104.5t23 109.5h37q-16 -63 -23 -114t-7 -100q0 -105 55 -163q53 -55 141 -57l124 434h37l-175 -617h-39l43 149q-62 3 -110 29q-54 30 -83.5 87.5t-29.5 137.5z" />
    <glyph glyph-name="Ydieresis" unicode="&#x178;" horiz-adv-x="479" 
d="M182 755q-13 0 -22 8.5t-9 22.5q0 13 9 22t22 9q14 0 22.5 -9t8.5 -22q0 -14 -8.5 -22.5t-22.5 -8.5zM347 755q-13 0 -22 8.5t-9 22.5q0 13 9 22t22 9q14 0 22.5 -9t8.5 -22q0 -14 -8.5 -22.5t-22.5 -8.5zM237 0l55 198q-75 2 -129 31q-58 30 -88.5 89t-30.5 143
q0 41 6.5 86t20.5 103h38q-14 -60 -21 -105t-7 -84q0 -110 58 -169q58 -57 163 -58l117 416h38l-180 -650h-40z" />
    <glyph glyph-name="Zacute" unicode="&#x179;" horiz-adv-x="432" 
d="M172 719l80 151h41l-86 -151h-35zM406 0h-374l313 615h-315v35h374l-313 -614h315v-36z" />
    <glyph glyph-name="zacute" unicode="&#x17a;" horiz-adv-x="393" 
d="M177 536l80 151h42l-87 -151h-35zM361 0h-326l258 433h-258v34h318l-257 -433h265v-34z" />
    <glyph glyph-name="Zdotaccent" unicode="&#x17b;" horiz-adv-x="432" 
d="M216 755q-17 0 -27.5 10.5t-10.5 26.5t10.5 26.5t27.5 10.5t27 -10.5t10 -26.5t-10 -26.5t-27 -10.5zM406 0h-374l313 615h-315v35h374l-313 -614h315v-36z" />
    <glyph glyph-name="zdotaccent" unicode="&#x17c;" horiz-adv-x="393" 
d="M200 572q-17 0 -27.5 10.5t-10.5 26.5q0 17 10.5 27.5t27.5 10.5t27 -10.5t10 -27.5q0 -16 -10 -26.5t-27 -10.5zM361 0h-326l258 433h-258v34h318l-257 -433h265v-34z" />
    <glyph glyph-name="Zcaron" unicode="&#x17d;" horiz-adv-x="432" 
d="M199 719l-111 151h41l89 -124l90 124h40l-111 -151h-38zM406 0h-374l313 615h-315v35h374l-313 -614h315v-36z" />
    <glyph glyph-name="zcaron" unicode="&#x17e;" horiz-adv-x="393" 
d="M180 536l-111 151h40l90 -124l89 124h40l-110 -151h-38zM361 0h-326l258 433h-258v34h318l-257 -433h265v-34z" />
    <glyph glyph-name="Ohorn" unicode="&#x1a0;" horiz-adv-x="750" 
d="M44 325q0 69 25.5 129.5t71 106.5t105.5 71.5t129 25.5q39 0 75 -8q46 0 75 23.5t29 71.5v24h31v-24q0 -62 -35 -94q-16 -14 -38 -22q55 -25 97 -68q46 -46 71.5 -106.5t25.5 -129.5t-25.5 -129.5t-71 -106.5t-105.5 -71.5t-129 -25.5t-129 25.5t-105.5 71.5t-71 106.5
t-25.5 129.5zM83 325q0 -61 22.5 -115t63 -95t93.5 -64.5t113 -23.5t113 23.5t93.5 64.5t63.5 95t23 115t-23 115t-63.5 95t-93.5 64.5t-113 23.5t-113 -23.5t-93.5 -64.5t-63 -95t-22.5 -115z" />
    <glyph glyph-name="ohorn" unicode="&#x1a1;" horiz-adv-x="567" 
d="M283 -8q-66 0 -121.5 32.5t-88 87t-32.5 122.5q0 67 32.5 121.5t88 87t121.5 32.5q35 0 66 -8q45 0 74 23.5t29 72.5v23h32v-23q0 -63 -36 -95q-18 -16 -44 -24q1 -1 2 -1q55 -33 87.5 -87.5t32.5 -122.5q0 -66 -32.5 -121t-87.5 -87.5t-123 -32.5zM283 441
q-55 0 -102 -28t-74.5 -75t-27.5 -105q0 -56 27.5 -103.5t74.5 -75.5t103 -28t102.5 28t74 75.5t27.5 103.5q0 58 -27.5 105t-74 75t-103.5 28z" />
    <glyph glyph-name="Uhorn" unicode="&#x1af;" horiz-adv-x="533" 
d="M267 28q45 0 80 19.5t55 54.5t20 79v469q46 0 74.5 23.5t28.5 71.5v24h32v-24q0 -62 -35 -94q-25 -22 -62 -28v-442q0 -55 -24.5 -98t-68 -67t-100.5 -24t-100.5 24t-68.5 67t-25 98v469h38v-469q0 -44 20.5 -79t56 -54.5t79.5 -19.5z" />
    <glyph glyph-name="uhorn" unicode="&#x1b0;" horiz-adv-x="479" 
d="M65 467h37v-294q0 -69 37.5 -108t99.5 -39q63 0 100.5 39t37.5 108v294q45 0 74 23.5t29 72.5v23h31v-23q0 -63 -35 -95q-25 -22 -62 -28v-265q0 -86 -47 -134.5t-128 -48.5q-79 0 -126.5 48.5t-47.5 134.5v292z" />
    <glyph glyph-name="uni0218" unicode="&#x218;" horiz-adv-x="463" 
d="M235 -8q-51 0 -97 22t-74 64.5t-28 105.5h38q0 -49 22 -84.5t59.5 -54t79.5 -18.5q67 0 108.5 38t41.5 99q0 40 -18 66.5t-47 45t-64 32.5t-70.5 29.5t-64.5 35.5t-46.5 50.5t-17.5 75.5q0 44 23 80t62.5 57.5t86.5 21.5q53 0 93 -22t63 -61t23 -90h-38q0 61 -39.5 99.5
t-101.5 38.5q-36 0 -67 -17t-49 -45t-18 -62q0 -38 17.5 -63.5t47 -43.5t64.5 -32t70 -29t64.5 -36.5t47 -53t17.5 -77.5q0 -50 -24 -89t-66.5 -61t-97.5 -22zM207 -212q20 37 28 64q3 9 5 18q-12 1 -20 8q-8 9 -8 22q0 14 8.5 22.5t22.5 8.5t22.5 -9t8.5 -25t-8.5 -44
t-28.5 -65h-30z" />
    <glyph glyph-name="uni0219" unicode="&#x219;" horiz-adv-x="389" 
d="M45 0v34h161q52 0 80.5 24.5t28.5 67.5q0 34 -20 53t-51 30t-66.5 19.5t-66.5 22t-51 38t-20 66.5q0 50 34.5 81t96.5 31h158v-34h-158q-45 0 -69.5 -21t-24.5 -56q0 -34 20 -52.5t51 -29.5t66 -19.5t66.5 -22.5t51.5 -38.5t20 -67.5q0 -57 -39 -91.5t-106 -34.5h-162z
M164 -212q20 37 28 64q3 9 5 18q-12 1 -19 8q-9 9 -9 22q0 14 8.5 22.5t22.5 8.5t22.5 -9t8.5 -25t-8.5 -44t-28.5 -65h-30z" />
    <glyph glyph-name="uni021A" unicode="&#x21a;" horiz-adv-x="434" 
d="M198 0v623q-44 -1 -87 -4q-51 -5 -93 -12v35q43 8 95 12t104 4t104.5 -4.5t94.5 -11.5v-35q-27 4 -59.5 8t-66.5 6l-54 2v-623h-38zM181 -212q19 37 28 64q2 9 5 18q-12 1 -20 8q-9 9 -9 22q0 14 9 22.5t22 8.5q14 0 22.5 -9t8.5 -25t-8.5 -44t-28.5 -65h-29z" />
    <glyph glyph-name="uni021B" unicode="&#x21b;" horiz-adv-x="296" 
d="M261 433h-164v-289q0 -56 29 -83t78 -27h58v-34h-59q-65 0 -104 36t-39 108v447l37 12v-136h164v-34zM117 -212q20 37 28 64q3 9 5 18q-12 1 -20 8q-9 9 -9 22q0 14 9 22.5t22 8.5q14 0 23 -9t9 -25t-9 -44t-29 -65h-29z" />
    <glyph glyph-name="uni0237" unicode="&#x237;" horiz-adv-x="172" 
d="M67 467h37v-499q0 -60 -31 -89t-89 -29h-8v34h8q41 0 62 20t21 64v499z" />
    <glyph glyph-name="circumflex" unicode="&#x2c6;" horiz-adv-x="513" 
d="M275 687l111 -151h-40l-90 124l-89 -124h-40l111 151h37z" />
    <glyph glyph-name="caron" unicode="&#x2c7;" horiz-adv-x="513" 
d="M238 536l-111 151h40l90 -124l90 124h39l-110 -151h-38z" />
    <glyph glyph-name="breve" unicode="&#x2d8;" horiz-adv-x="513" 
d="M257 564q46 0 72 25t26 71v24h31v-24q0 -61 -34.5 -93.5t-94.5 -32.5q-61 0 -95.5 32.5t-34.5 93.5v24h32v-24q0 -46 26 -71t72 -25z" />
    <glyph glyph-name="dotaccent" unicode="&#x2d9;" horiz-adv-x="513" 
d="M257 572q-17 0 -27.5 10.5t-10.5 26.5q0 17 10.5 27.5t27.5 10.5t27 -10.5t10 -27.5q0 -16 -10 -26.5t-27 -10.5z" />
    <glyph glyph-name="ring" unicode="&#x2da;" horiz-adv-x="513" 
d="M257 531q-30 0 -54.5 13t-38 36t-13.5 53q0 44 30 73t76 29q30 0 54 -13t38 -36t14 -53q0 -44 -30 -73t-76 -29zM257 561q34 0 54 20t20 52t-20 52t-54 20q-33 0 -53.5 -20t-20.5 -52t20.5 -52t53.5 -20z" />
    <glyph glyph-name="ogonek" unicode="&#x2db;" horiz-adv-x="520" 
d="M352 -166h-34q-47 0 -75.5 23t-28.5 62q0 21 10.5 39.5t31 35.5t49.5 31l47 -25q-34 -18 -52 -37t-18 -38q0 -15 10.5 -23t29.5 -8h30v-60z" />
    <glyph glyph-name="tilde" unicode="&#x2dc;" horiz-adv-x="513" 
d="M121 536v75q0 38 18 58.5t48 20.5q22 0 38.5 -13t28.5 -31t22.5 -37t22 -31.5t26.5 -12.5q18 0 27 12.5t9 35.5v74h31v-74q0 -37 -17 -58t-48 -21q-23 0 -39 12.5t-28 31t-22.5 37t-22 31.5t-27.5 13q-35 0 -35 -48v-75h-32z" />
    <glyph glyph-name="hungarumlaut" unicode="&#x2dd;" horiz-adv-x="513" 
d="M304 536l66 151h39l-71 -151h-34zM159 536l56 151h37l-59 -151h-34z" />
    <glyph glyph-name="hookabovecomb" unicode="&#x309;" horiz-adv-x="152" 
d="M38 829h36q39 0 62 -19.5t23 -51.5q0 -21 -10.5 -39.5t-32.5 -35t-57 -31.5l-21 16q48 21 68 42.5t20 45.5q0 20 -14 32t-39 12h-35v29z" />
    <glyph glyph-name="uni031B" unicode="&#x31b;" horiz-adv-x="172" 
d="M154 -116q46 0 75 23t29 72v24h31v-24q0 -62 -35.5 -94t-99.5 -32v31z" />
    <glyph glyph-name="dotbelowcomb" unicode="&#x323;" horiz-adv-x="513" 
d="M256 -142q-17 0 -27.5 10.5t-10.5 27.5q0 16 10.5 26.5t27.5 10.5t27 -10.5t10 -26.5q0 -17 -10 -27.5t-27 -10.5z" />
    <glyph glyph-name="Wgrave" unicode="&#x1e80;" horiz-adv-x="811" 
d="M426 719h-35l-82 151h42zM82 0v650h37v-613q129 2 199 73q73 73 73 207v333h37v-613q81 1 133 23q55 24 86 81t42 158l40 351h38l-40 -351q-12 -113 -48.5 -178t-100.5 -93t-163 -28h-24v156q-20 -41 -51 -73q-82 -83 -230 -83h-28z" />
    <glyph glyph-name="wgrave" unicode="&#x1e81;" horiz-adv-x="739" 
d="M390 536h-35l-82 151h41zM67 0v467h37v-431h50q99 0 151 50q51 50 51 146v235h37v-431h35q95 0 143 44.5t60 144.5l30 242h38l-30 -242q-15 -119 -71.5 -172t-168.5 -53h-71v107q-16 -37 -46 -61q-27 -22 -67.5 -34t-97.5 -12h-80z" />
    <glyph glyph-name="Wacute" unicode="&#x1e82;" horiz-adv-x="811" 
d="M391 719l81 151h41l-87 -151h-35zM82 0v650h37v-613q129 2 199 73q73 73 73 207v333h37v-613q81 1 133 23q55 24 86 81t42 158l40 351h38l-40 -351q-12 -113 -48.5 -178t-100.5 -93t-163 -28h-24v156q-20 -41 -51 -73q-82 -83 -230 -83h-28z" />
    <glyph glyph-name="wacute" unicode="&#x1e83;" horiz-adv-x="739" 
d="M356 536l81 151h41l-87 -151h-35zM67 0v467h37v-431h50q99 0 151 50q51 50 51 146v235h37v-431h35q95 0 143 44.5t60 144.5l30 242h38l-30 -242q-15 -119 -71.5 -172t-168.5 -53h-71v107q-16 -37 -46 -61q-27 -22 -67.5 -34t-97.5 -12h-80z" />
    <glyph glyph-name="Wdieresis" unicode="&#x1e84;" horiz-adv-x="811" 
d="M326 755q-13 0 -22 8.5t-9 22.5q0 13 9 22t22 9q14 0 22.5 -9t8.5 -22q0 -14 -8.5 -22.5t-22.5 -8.5zM491 755q-14 0 -22.5 8.5t-8.5 22.5q0 13 8.5 22t22.5 9t22.5 -9t8.5 -22q0 -14 -8.5 -22.5t-22.5 -8.5zM82 0v650h37v-613q129 2 199 73q73 73 73 207v333h37v-613
q81 1 133 23q55 24 86 81t42 158l40 351h38l-40 -351q-12 -113 -48.5 -178t-100.5 -93t-163 -28h-24v156q-20 -41 -51 -73q-82 -83 -230 -83h-28z" />
    <glyph glyph-name="wdieresis" unicode="&#x1e85;" horiz-adv-x="739" 
d="M291 572q-13 0 -22 9t-9 22q0 14 9 22.5t22 8.5q14 0 22.5 -8.5t8.5 -22.5q0 -13 -8.5 -22t-22.5 -9zM456 572q-14 0 -22.5 9t-8.5 22q0 14 8.5 22.5t22.5 8.5t22.5 -8.5t8.5 -22.5q0 -13 -8.5 -22t-22.5 -9zM67 0v467h37v-431h50q99 0 151 50q51 50 51 146v235h37v-431
h35q95 0 143 44.5t60 144.5l30 242h38l-30 -242q-15 -119 -71.5 -172t-168.5 -53h-71v107q-16 -37 -46 -61q-27 -22 -67.5 -34t-97.5 -12h-80z" />
    <glyph glyph-name="Germandbls" unicode="&#x1e9e;" horiz-adv-x="570" 
d="M72 0v455q0 60 26 103.5t70 67.5t100 24h199l-125 -253q47 -4 85 -24q48 -25 75 -69t27 -102q0 -91 -55 -146.5t-153 -55.5h-47v36h47q81 0 125.5 46t44.5 120q0 47 -22 83.5t-61.5 58t-90.5 21.5h-31l127 250h-146q-44 0 -80 -19.5t-56.5 -55.5t-20.5 -85v-455h-38z" />
    <glyph glyph-name="uni1EA0" unicode="&#x1ea0;" 
d="M73 0v461q0 58 25 102.5t69.5 69.5t100.5 25q58 0 101.5 -25t68.5 -69.5t25 -102.5v-461h-38v31q0 115 -76.5 181t-215.5 66h-22v-278h-38zM111 313h15q135 0 218 -53q54 -35 81 -89v290q0 47 -20 83t-55.5 57t-81.5 21q-45 0 -81 -21t-56 -57t-20 -83v-148zM269 -142
q-17 0 -27.5 10.5t-10.5 27.5q0 16 10.5 26.5t27.5 10.5t27 -10.5t10 -26.5q0 -17 -10 -27.5t-27 -10.5z" />
    <glyph glyph-name="uni1EA1" unicode="&#x1ea1;" horiz-adv-x="474" 
d="M222 -8q-52 0 -92.5 18.5t-63.5 52t-23 77.5t23 77.5t63.5 52t92.5 18.5q79 0 128 -40q12 -10 22 -23v75q0 66 -36.5 104t-99.5 38q-50 0 -84.5 -25.5t-47.5 -71.5h-38q11 40 34.5 69.5t58 45t76.5 15.5q80 0 127 -47.5t47 -128.5v-299h-36v59q-10 -14 -24 -26
q-48 -41 -127 -41zM226 24q65 0 105.5 32.5t40.5 84.5t-40 83.5t-106 31.5q-65 0 -105.5 -32t-40.5 -84t40.5 -84t105.5 -32zM237 -142q-17 0 -27.5 10.5t-10.5 27.5q0 16 10.5 26.5t27.5 10.5t27 -10.5t10 -26.5q0 -17 -10 -27.5t-27 -10.5z" />
    <glyph glyph-name="uni1EA2" unicode="&#x1ea2;" 
d="M216 875h36q38 0 61.5 -20t23.5 -51q0 -21 -10.5 -39.5t-33 -35.5t-56.5 -31l-21 16q48 21 68 42.5t20 45.5q0 20 -14 31.5t-40 11.5h-34v30zM73 0v461q0 58 25 102.5t69.5 69.5t100.5 25q58 0 101.5 -25t68.5 -69.5t25 -102.5v-461h-38v31q0 115 -76.5 181t-215.5 66
h-22v-278h-38zM111 313h15q135 0 218 -53q54 -35 81 -89v290q0 47 -20 83t-55.5 57t-81.5 21q-45 0 -81 -21t-56 -57t-20 -83v-148z" />
    <glyph glyph-name="uni1EA3" unicode="&#x1ea3;" horiz-adv-x="474" 
d="M183 695h36q38 0 61 -20t23 -51q0 -21 -10.5 -39.5t-32.5 -35.5t-56 -31l-21 16q47 21 67 42.5t20 45.5q0 20 -13.5 31.5t-39.5 11.5h-34v30zM222 -8q-52 0 -92.5 18.5t-63.5 52t-23 77.5t23 77.5t63.5 52t92.5 18.5q79 0 128 -40q12 -10 22 -23v75q0 66 -36.5 104
t-99.5 38q-50 0 -84.5 -25.5t-47.5 -71.5h-38q11 40 34.5 69.5t58 45t76.5 15.5q80 0 127 -47.5t47 -128.5v-299h-36v59q-10 -14 -24 -26q-48 -41 -127 -41zM226 24q65 0 105.5 32.5t40.5 84.5t-40 83.5t-106 31.5q-65 0 -105.5 -32t-40.5 -84t40.5 -84t105.5 -32z" />
    <glyph glyph-name="uni1EA4" unicode="&#x1ea4;" 
d="M373 838l81 152h41l-87 -152h-35zM286 870l111 -151h-40l-90 124l-90 -124h-39l110 151h38zM73 0v461q0 58 25 102.5t69.5 69.5t100.5 25q58 0 101.5 -25t68.5 -69.5t25 -102.5v-461h-38v31q0 115 -76.5 181t-215.5 66h-22v-278h-38zM111 313h15q135 0 218 -53
q54 -35 81 -89v290q0 47 -20 83t-55.5 57t-81.5 21q-45 0 -81 -21t-56 -57t-20 -83v-148z" />
    <glyph glyph-name="uni1EA5" unicode="&#x1ea5;" horiz-adv-x="474" 
d="M342 650l81 151h41l-86 -151h-36zM254 687l111 -151h-40l-90 124l-90 -124h-39l110 151h38zM222 -8q-52 0 -92.5 18.5t-63.5 52t-23 77.5t23 77.5t63.5 52t92.5 18.5q79 0 128 -40q12 -10 22 -23v75q0 66 -36.5 104t-99.5 38q-50 0 -84.5 -25.5t-47.5 -71.5h-38
q11 40 34.5 69.5t58 45t76.5 15.5q80 0 127 -47.5t47 -128.5v-299h-36v59q-10 -14 -24 -26q-48 -41 -127 -41zM226 24q65 0 105.5 32.5t40.5 84.5t-40 83.5t-106 31.5q-65 0 -105.5 -32t-40.5 -84t40.5 -84t105.5 -32z" />
    <glyph glyph-name="uni1EA6" unicode="&#x1ea6;" 
d="M415 838h-35l-82 152h41zM286 870l111 -151h-40l-90 124l-90 -124h-39l110 151h38zM73 0v461q0 58 25 102.5t69.5 69.5t100.5 25q58 0 101.5 -25t68.5 -69.5t25 -102.5v-461h-38v31q0 115 -76.5 181t-215.5 66h-22v-278h-38zM111 313h15q135 0 218 -53q54 -35 81 -89v290
q0 47 -20 83t-55.5 57t-81.5 21q-45 0 -81 -21t-56 -57t-20 -83v-148z" />
    <glyph glyph-name="uni1EA7" unicode="&#x1ea7;" horiz-adv-x="474" 
d="M396 650h-35l-81 151h41zM254 687l111 -151h-40l-90 124l-90 -124h-39l110 151h38zM222 -8q-52 0 -92.5 18.5t-63.5 52t-23 77.5t23 77.5t63.5 52t92.5 18.5q79 0 128 -40q12 -10 22 -23v75q0 66 -36.5 104t-99.5 38q-50 0 -84.5 -25.5t-47.5 -71.5h-38q11 40 34.5 69.5
t58 45t76.5 15.5q80 0 127 -47.5t47 -128.5v-299h-36v59q-10 -14 -24 -26q-48 -41 -127 -41zM226 24q65 0 105.5 32.5t40.5 84.5t-40 83.5t-106 31.5q-65 0 -105.5 -32t-40.5 -84t40.5 -84t105.5 -32z" />
    <glyph glyph-name="uni1EA8" unicode="&#x1ea8;" 
d="M364 994h36q38 0 61 -19.5t23 -51.5q0 -21 -10.5 -39.5t-32.5 -35t-56 -31.5l-21 16q47 21 67 42.5t20 45.5q0 20 -13.5 32t-39.5 12h-34v29zM286 870l111 -151h-40l-90 124l-90 -124h-39l110 151h38zM73 0v461q0 58 25 102.5t69.5 69.5t100.5 25q58 0 101.5 -25
t68.5 -69.5t25 -102.5v-461h-38v31q0 115 -76.5 181t-215.5 66h-22v-278h-38zM111 313h15q135 0 218 -53q54 -35 81 -89v290q0 47 -20 83t-55.5 57t-81.5 21q-45 0 -81 -21t-56 -57t-20 -83v-148z" />
    <glyph glyph-name="uni1EA9" unicode="&#x1ea9;" horiz-adv-x="474" 
d="M327 827h36q38 0 61 -19.5t23 -51.5q0 -21 -10.5 -39.5t-32.5 -35t-56 -31.5l-21 16q47 21 67 42.5t20 45.5q0 20 -13.5 32t-39.5 12h-34v29zM254 687l111 -151h-40l-90 124l-90 -124h-39l110 151h38zM222 -8q-52 0 -92.5 18.5t-63.5 52t-23 77.5t23 77.5t63.5 52
t92.5 18.5q79 0 128 -40q12 -10 22 -23v75q0 66 -36.5 104t-99.5 38q-50 0 -84.5 -25.5t-47.5 -71.5h-38q11 40 34.5 69.5t58 45t76.5 15.5q80 0 127 -47.5t47 -128.5v-299h-36v59q-10 -14 -24 -26q-48 -41 -127 -41zM226 24q65 0 105.5 32.5t40.5 84.5t-40 83.5t-106 31.5
q-65 0 -105.5 -32t-40.5 -84t40.5 -84t105.5 -32z" />
    <glyph glyph-name="uni1EAA" unicode="&#x1eaa;" 
d="M128 903v75q0 38 18 58.5t48 20.5q23 0 39 -13t28 -31t22.5 -37t22 -31.5t26.5 -12.5q18 0 27 12.5t9 35.5v75h31v-75q0 -37 -17 -58t-48 -21q-23 0 -39 12.5t-28 31t-22.5 37t-22 31.5t-27.5 13q-35 0 -35 -48v-75h-32zM286 870l111 -151h-40l-90 124l-90 -124h-39
l110 151h38zM73 0v461q0 58 25 102.5t69.5 69.5t100.5 25q58 0 101.5 -25t68.5 -69.5t25 -102.5v-461h-38v31q0 115 -76.5 181t-215.5 66h-22v-278h-38zM111 313h15q135 0 218 -53q54 -35 81 -89v290q0 47 -20 83t-55.5 57t-81.5 21q-45 0 -81 -21t-56 -57t-20 -83v-148z
" />
    <glyph glyph-name="uni1EAB" unicode="&#x1eab;" horiz-adv-x="474" 
d="M99 726v75q0 38 18 58.5t48 20.5q23 0 39 -13t28 -31t22.5 -37t22 -31.5t26.5 -12.5q18 0 27 12.5t9 35.5v75h31v-75q0 -37 -17 -58t-48 -21q-23 0 -39 12.5t-28 31t-22.5 37t-22 31.5t-27.5 13q-35 0 -35 -48v-75h-32zM254 687l111 -151h-40l-90 124l-90 -124h-39
l110 151h38zM222 -8q-52 0 -92.5 18.5t-63.5 52t-23 77.5t23 77.5t63.5 52t92.5 18.5q79 0 128 -40q12 -10 22 -23v75q0 66 -36.5 104t-99.5 38q-50 0 -84.5 -25.5t-47.5 -71.5h-38q11 40 34.5 69.5t58 45t76.5 15.5q80 0 127 -47.5t47 -128.5v-299h-36v59q-10 -14 -24 -26
q-48 -41 -127 -41zM226 24q65 0 105.5 32.5t40.5 84.5t-40 83.5t-106 31.5q-65 0 -105.5 -32t-40.5 -84t40.5 -84t105.5 -32z" />
    <glyph glyph-name="uni1EAC" unicode="&#x1eac;" 
d="M287 870l111 -151h-40l-90 124l-89 -124h-40l111 151h37zM73 0v461q0 58 25 102.5t69.5 69.5t100.5 25q58 0 101.5 -25t68.5 -69.5t25 -102.5v-461h-38v31q0 115 -76.5 181t-215.5 66h-22v-278h-38zM111 313h15q135 0 218 -53q54 -35 81 -89v290q0 47 -20 83t-55.5 57
t-81.5 21q-45 0 -81 -21t-56 -57t-20 -83v-148zM269 -142q-17 0 -27.5 10.5t-10.5 27.5q0 16 10.5 26.5t27.5 10.5t27 -10.5t10 -26.5q0 -17 -10 -27.5t-27 -10.5z" />
    <glyph glyph-name="uni1EAD" unicode="&#x1ead;" horiz-adv-x="474" 
d="M254 687l111 -151h-40l-90 124l-90 -124h-39l110 151h38zM222 -8q-52 0 -92.5 18.5t-63.5 52t-23 77.5t23 77.5t63.5 52t92.5 18.5q79 0 128 -40q12 -10 22 -23v75q0 66 -36.5 104t-99.5 38q-50 0 -84.5 -25.5t-47.5 -71.5h-38q11 40 34.5 69.5t58 45t76.5 15.5
q80 0 127 -47.5t47 -128.5v-299h-36v59q-10 -14 -24 -26q-48 -41 -127 -41zM226 24q65 0 105.5 32.5t40.5 84.5t-40 83.5t-106 31.5q-65 0 -105.5 -32t-40.5 -84t40.5 -84t105.5 -32zM237 -142q-17 0 -27.5 10.5t-10.5 27.5q0 16 10.5 26.5t27.5 10.5t27 -10.5t10 -26.5
q0 -17 -10 -27.5t-27 -10.5z" />
    <glyph glyph-name="uni1EAE" unicode="&#x1eae;" 
d="M250 872l81 151h41l-87 -151h-35zM267 747q46 0 72 25t26 70v24h32v-24q0 -60 -34.5 -93t-95.5 -33q-60 0 -94.5 33t-34.5 93v24h31v-24q0 -45 26 -70t72 -25zM73 0v461q0 58 25 102.5t69.5 69.5t100.5 25q58 0 101.5 -25t68.5 -69.5t25 -102.5v-461h-38v31
q0 115 -76.5 181t-215.5 66h-22v-278h-38zM111 313h15q135 0 218 -53q54 -35 81 -89v290q0 47 -20 83t-55.5 57t-81.5 21q-45 0 -81 -21t-56 -57t-20 -83v-148z" />
    <glyph glyph-name="uni1EAF" unicode="&#x1eaf;" horiz-adv-x="474" 
d="M211 684l80 151h41l-86 -151h-35zM229 564q45 0 71 25t26 71v24h32v-24q0 -61 -34.5 -93.5t-94.5 -32.5q-61 0 -95.5 32.5t-34.5 93.5v24h32v-24q0 -46 25.5 -71t72.5 -25zM222 -8q-52 0 -92.5 18.5t-63.5 52t-23 77.5t23 77.5t63.5 52t92.5 18.5q79 0 128 -40
q12 -10 22 -23v75q0 66 -36.5 104t-99.5 38q-50 0 -84.5 -25.5t-47.5 -71.5h-38q11 40 34.5 69.5t58 45t76.5 15.5q80 0 127 -47.5t47 -128.5v-299h-36v59q-10 -14 -24 -26q-48 -41 -127 -41zM226 24q65 0 105.5 32.5t40.5 84.5t-40 83.5t-106 31.5q-65 0 -105.5 -32
t-40.5 -84t40.5 -84t105.5 -32z" />
    <glyph glyph-name="uni1EB0" unicode="&#x1eb0;" 
d="M289 872h-35l-82 151h42zM267 747q46 0 72 25t26 70v24h32v-24q0 -60 -34.5 -93t-95.5 -33q-60 0 -94.5 33t-34.5 93v24h31v-24q0 -45 26 -70t72 -25zM73 0v461q0 58 25 102.5t69.5 69.5t100.5 25q58 0 101.5 -25t68.5 -69.5t25 -102.5v-461h-38v31q0 115 -76.5 181
t-215.5 66h-22v-278h-38zM111 313h15q135 0 218 -53q54 -35 81 -89v290q0 47 -20 83t-55.5 57t-81.5 21q-45 0 -81 -21t-56 -57t-20 -83v-148z" />
    <glyph glyph-name="uni1EB1" unicode="&#x1eb1;" horiz-adv-x="474" 
d="M247 684h-35l-81 151h41zM229 564q45 0 71 25t26 71v24h32v-24q0 -61 -34.5 -93.5t-94.5 -32.5q-61 0 -95.5 32.5t-34.5 93.5v24h32v-24q0 -46 25.5 -71t72.5 -25zM222 -8q-52 0 -92.5 18.5t-63.5 52t-23 77.5t23 77.5t63.5 52t92.5 18.5q79 0 128 -40q12 -10 22 -23v75
q0 66 -36.5 104t-99.5 38q-50 0 -84.5 -25.5t-47.5 -71.5h-38q11 40 34.5 69.5t58 45t76.5 15.5q80 0 127 -47.5t47 -128.5v-299h-36v59q-10 -14 -24 -26q-48 -41 -127 -41zM226 24q65 0 105.5 32.5t40.5 84.5t-40 83.5t-106 31.5q-65 0 -105.5 -32t-40.5 -84t40.5 -84
t105.5 -32z" />
    <glyph glyph-name="uni1EB2" unicode="&#x1eb2;" 
d="M210 1038h36q39 0 62 -20t23 -52q0 -21 -10.5 -39.5t-32.5 -35t-56 -31.5l-22 17q48 21 68 42.5t20 44.5q0 21 -13.5 32.5t-39.5 11.5h-35v30zM267 747q46 0 72 25t26 70v24h32v-24q0 -60 -34.5 -93t-95.5 -33q-60 0 -94.5 33t-34.5 93v24h31v-24q0 -45 26 -70t72 -25z
M73 0v461q0 58 25 102.5t69.5 69.5t100.5 25q58 0 101.5 -25t68.5 -69.5t25 -102.5v-461h-38v31q0 115 -76.5 181t-215.5 66h-22v-278h-38zM111 313h15q135 0 218 -53q54 -35 81 -89v290q0 47 -20 83t-55.5 57t-81.5 21q-45 0 -81 -21t-56 -57t-20 -83v-148z" />
    <glyph glyph-name="uni1EB3" unicode="&#x1eb3;" horiz-adv-x="474" 
d="M168 864h36q39 0 62 -19.5t23 -51.5q0 -21 -10.5 -39.5t-32.5 -35t-57 -31.5l-21 17q48 20 68 41.5t20 45.5q0 20 -14 32t-39 12h-35v29zM229 564q45 0 71 25t26 71v24h32v-24q0 -61 -34.5 -93.5t-94.5 -32.5q-61 0 -95.5 32.5t-34.5 93.5v24h32v-24q0 -46 25.5 -71
t72.5 -25zM222 -8q-52 0 -92.5 18.5t-63.5 52t-23 77.5t23 77.5t63.5 52t92.5 18.5q79 0 128 -40q12 -10 22 -23v75q0 66 -36.5 104t-99.5 38q-50 0 -84.5 -25.5t-47.5 -71.5h-38q11 40 34.5 69.5t58 45t76.5 15.5q80 0 127 -47.5t47 -128.5v-299h-36v59q-10 -14 -24 -26
q-48 -41 -127 -41zM226 24q65 0 105.5 32.5t40.5 84.5t-40 83.5t-106 31.5q-65 0 -105.5 -32t-40.5 -84t40.5 -84t105.5 -32z" />
    <glyph glyph-name="uni1EB4" unicode="&#x1eb4;" 
d="M128 903v75q0 38 18 58.5t48 20.5q23 0 39 -13t28 -31t22.5 -37t22 -31.5t26.5 -12.5q18 0 27 12.5t9 35.5v75h31v-75q0 -37 -17 -58t-48 -21q-23 0 -39 12.5t-28 31t-22.5 37t-22 31.5t-27.5 13q-35 0 -35 -48v-75h-32zM267 747q46 0 72 25t26 70v24h32v-24
q0 -60 -34.5 -93t-95.5 -33q-60 0 -94.5 33t-34.5 93v24h31v-24q0 -45 26 -70t72 -25zM73 0v461q0 58 25 102.5t69.5 69.5t100.5 25q58 0 101.5 -25t68.5 -69.5t25 -102.5v-461h-38v31q0 115 -76.5 181t-215.5 66h-22v-278h-38zM111 313h15q135 0 218 -53q54 -35 81 -89v290
q0 47 -20 83t-55.5 57t-81.5 21q-45 0 -81 -21t-56 -57t-20 -83v-148z" />
    <glyph glyph-name="uni1EB5" unicode="&#x1eb5;" horiz-adv-x="474" 
d="M93 722v75q0 38 18 58.5t48 20.5q22 0 38.5 -13t28.5 -31t22.5 -37t22 -31.5t26.5 -12.5q18 0 27 12.5t9 35.5v75h31v-75q0 -37 -17 -58t-48 -21q-23 0 -39.5 12.5t-28.5 31t-22 37t-21.5 31.5t-27.5 13q-36 0 -36 -48v-75h-31zM229 564q45 0 71 25t26 71v24h32v-24
q0 -61 -34.5 -93.5t-94.5 -32.5q-61 0 -95.5 32.5t-34.5 93.5v24h32v-24q0 -46 25.5 -71t72.5 -25zM222 -8q-52 0 -92.5 18.5t-63.5 52t-23 77.5t23 77.5t63.5 52t92.5 18.5q79 0 128 -40q12 -10 22 -23v75q0 66 -36.5 104t-99.5 38q-50 0 -84.5 -25.5t-47.5 -71.5h-38
q11 40 34.5 69.5t58 45t76.5 15.5q80 0 127 -47.5t47 -128.5v-299h-36v59q-10 -14 -24 -26q-48 -41 -127 -41zM226 24q65 0 105.5 32.5t40.5 84.5t-40 83.5t-106 31.5q-65 0 -105.5 -32t-40.5 -84t40.5 -84t105.5 -32z" />
    <glyph glyph-name="uni1EB6" unicode="&#x1eb6;" 
d="M268 747q46 0 72 25t26 71v23h32v-23q0 -61 -34.5 -93.5t-95.5 -32.5q-60 0 -94.5 32.5t-34.5 93.5v23h32v-23q0 -46 25.5 -71t71.5 -25zM73 0v461q0 58 25 102.5t69.5 69.5t100.5 25q58 0 101.5 -25t68.5 -69.5t25 -102.5v-461h-38v31q0 115 -76.5 181t-215.5 66h-22
v-278h-38zM111 313h15q135 0 218 -53q54 -35 81 -89v290q0 47 -20 83t-55.5 57t-81.5 21q-45 0 -81 -21t-56 -57t-20 -83v-148zM269 -142q-17 0 -27.5 10.5t-10.5 27.5q0 16 10.5 26.5t27.5 10.5t27 -10.5t10 -26.5q0 -17 -10 -27.5t-27 -10.5z" />
    <glyph glyph-name="uni1EB7" unicode="&#x1eb7;" horiz-adv-x="474" 
d="M237 564q45 0 71 25t26 71v24h32v-24q0 -61 -34.5 -93.5t-94.5 -32.5q-61 0 -95.5 32.5t-34.5 93.5v24h32v-24q0 -46 25.5 -71t72.5 -25zM222 -8q-52 0 -92.5 18.5t-63.5 52t-23 77.5t23 77.5t63.5 52t92.5 18.5q79 0 128 -40q12 -10 22 -23v75q0 66 -36.5 104t-99.5 38
q-50 0 -84.5 -25.5t-47.5 -71.5h-38q11 40 34.5 69.5t58 45t76.5 15.5q80 0 127 -47.5t47 -128.5v-299h-36v59q-10 -14 -24 -26q-48 -41 -127 -41zM226 24q65 0 105.5 32.5t40.5 84.5t-40 83.5t-106 31.5q-65 0 -105.5 -32t-40.5 -84t40.5 -84t105.5 -32zM237 -142
q-17 0 -27.5 10.5t-10.5 27.5q0 16 10.5 26.5t27.5 10.5t27 -10.5t10 -26.5q0 -17 -10 -27.5t-27 -10.5z" />
    <glyph glyph-name="uni1EB8" unicode="&#x1eb8;" horiz-adv-x="446" 
d="M82 0v650h322v-35h-285v-392q2 2 3 5q32 58 92 89t145 31h11v-35h-11q-113 0 -176.5 -59.5t-63.5 -165.5v-52h285v-36h-322zM223 -142q-16 0 -26.5 10.5t-10.5 27.5q0 16 10.5 26.5t26.5 10.5q17 0 27.5 -10.5t10.5 -26.5q0 -17 -10.5 -27.5t-27.5 -10.5z" />
    <glyph glyph-name="uni1EB9" unicode="&#x1eb9;" horiz-adv-x="542" 
d="M278 -8q-65 0 -118.5 32.5t-86 87.5t-32.5 121q0 67 32.5 122t86 87.5t118.5 32.5q64 0 115 -29t81 -78.5t30 -109.5v-13h-425v-6v-9q0 -56 27.5 -102.5t73 -74.5t98.5 -28q60 0 107 29t75 78h37q-19 -42 -51.5 -73.5t-75 -49t-92.5 -17.5zM467 277q-4 41 -25 75
q-25 41 -68 65.5t-96 24.5t-98.5 -28t-73.5 -74q-18 -29 -24 -63h385zM271 -142q-16 0 -26.5 10.5t-10.5 27.5q0 16 10.5 26.5t26.5 10.5q18 0 28 -10.5t10 -26.5q0 -17 -10 -27.5t-28 -10.5z" />
    <glyph glyph-name="uni1EBA" unicode="&#x1eba;" horiz-adv-x="446" 
d="M182 868h36q39 0 62 -19.5t23 -51.5q0 -21 -10.5 -39.5t-32.5 -35t-56 -31.5l-22 17q48 20 68 41.5t20 45.5q0 20 -13.5 32t-39.5 12h-35v29zM82 0v650h322v-35h-285v-392q2 2 3 5q32 58 92 89t145 31h11v-35h-11q-113 0 -176.5 -59.5t-63.5 -165.5v-52h285v-36h-322z
" />
    <glyph glyph-name="uni1EBB" unicode="&#x1ebb;" horiz-adv-x="542" 
d="M212 688h36q39 0 62 -19.5t23 -51.5q0 -21 -10.5 -39.5t-32.5 -35t-56 -31.5l-22 16q48 21 68 42.5t20 45.5q0 20 -13.5 31.5t-39.5 11.5h-35v30zM278 -8q-65 0 -118.5 32.5t-86 87.5t-32.5 121q0 67 32.5 122t86 87.5t118.5 32.5q64 0 115 -29t81 -78.5t30 -109.5v-13
h-425v-6v-9q0 -56 27.5 -102.5t73 -74.5t98.5 -28q60 0 107 29t75 78h37q-19 -42 -51.5 -73.5t-75 -49t-92.5 -17.5zM467 277q-4 41 -25 75q-25 41 -68 65.5t-96 24.5t-98.5 -28t-73.5 -74q-18 -29 -24 -63h385z" />
    <glyph glyph-name="uni1EBC" unicode="&#x1ebc;" horiz-adv-x="446" 
d="M107 719v75q0 38 18 58.5t48 20.5q22 0 38.5 -13t28.5 -31t22.5 -37t22 -31.5t26.5 -12.5q18 0 27 12.5t9 35.5v74h31v-74q0 -37 -17 -58t-48 -21q-23 0 -39 12.5t-28 31t-22.5 37t-22 31.5t-27.5 13q-35 0 -35 -48v-75h-32zM82 0v650h322v-35h-285v-392q2 2 3 5
q32 58 92 89t145 31h11v-35h-11q-113 0 -176.5 -59.5t-63.5 -165.5v-52h285v-36h-322z" />
    <glyph glyph-name="uni1EBD" unicode="&#x1ebd;" horiz-adv-x="542" 
d="M136 536v75q0 38 17.5 58.5t47.5 20.5q23 0 39 -13t28.5 -31t22.5 -37t21.5 -31.5t27.5 -12.5q18 0 26.5 12.5t8.5 35.5v74h32v-74q0 -37 -17.5 -58t-48.5 -21q-23 0 -39 12.5t-28 31t-22.5 37t-22 31.5t-26.5 13q-36 0 -36 -48v-75h-31zM278 -8q-65 0 -118.5 32.5
t-86 87.5t-32.5 121q0 67 32.5 122t86 87.5t118.5 32.5q64 0 115 -29t81 -78.5t30 -109.5v-13h-425v-6v-9q0 -56 27.5 -102.5t73 -74.5t98.5 -28q60 0 107 29t75 78h37q-19 -42 -51.5 -73.5t-75 -49t-92.5 -17.5zM467 277q-4 41 -25 75q-25 41 -68 65.5t-96 24.5t-98.5 -28
t-73.5 -74q-18 -29 -24 -63h385z" />
    <glyph glyph-name="uni1EBE" unicode="&#x1ebe;" horiz-adv-x="446" 
d="M344 838l80 152h42l-87 -152h-35zM259 870l111 -151h-40l-90 124l-89 -124h-40l110 151h38zM82 0v650h322v-35h-285v-392q2 2 3 5q32 58 92 89t145 31h11v-35h-11q-113 0 -176.5 -59.5t-63.5 -165.5v-52h285v-36h-322z" />
    <glyph glyph-name="uni1EBF" unicode="&#x1ebf;" horiz-adv-x="542" 
d="M386 650l81 151h41l-87 -151h-35zM292 687l111 -151h-40l-90 124l-89 -124h-40l111 151h37zM278 -8q-65 0 -118.5 32.5t-86 87.5t-32.5 121q0 67 32.5 122t86 87.5t118.5 32.5q64 0 115 -29t81 -78.5t30 -109.5v-13h-425v-6v-9q0 -56 27.5 -102.5t73 -74.5t98.5 -28
q60 0 107 29t75 78h37q-19 -42 -51.5 -73.5t-75 -49t-92.5 -17.5zM467 277q-4 41 -25 75q-25 41 -68 65.5t-96 24.5t-98.5 -28t-73.5 -74q-18 -29 -24 -63h385z" />
    <glyph glyph-name="uni1EC0" unicode="&#x1ec0;" horiz-adv-x="446" 
d="M389 838h-36l-81 152h41zM259 870l111 -151h-40l-90 124l-89 -124h-40l110 151h38zM82 0v650h322v-35h-285v-392q2 2 3 5q32 58 92 89t145 31h11v-35h-11q-113 0 -176.5 -59.5t-63.5 -165.5v-52h285v-36h-322z" />
    <glyph glyph-name="uni1EC1" unicode="&#x1ec1;" horiz-adv-x="542" 
d="M432 650h-35l-82 151h41zM292 687l111 -151h-40l-90 124l-89 -124h-40l111 151h37zM278 -8q-65 0 -118.5 32.5t-86 87.5t-32.5 121q0 67 32.5 122t86 87.5t118.5 32.5q64 0 115 -29t81 -78.5t30 -109.5v-13h-425v-6v-9q0 -56 27.5 -102.5t73 -74.5t98.5 -28q60 0 107 29
t75 78h37q-19 -42 -51.5 -73.5t-75 -49t-92.5 -17.5zM467 277q-4 41 -25 75q-25 41 -68 65.5t-96 24.5t-98.5 -28t-73.5 -74q-18 -29 -24 -63h385z" />
    <glyph glyph-name="uni1EC2" unicode="&#x1ec2;" horiz-adv-x="446" 
d="M338 994h36q39 0 62 -19.5t23 -51.5q0 -21 -10.5 -39.5t-32.5 -35t-56 -31.5l-22 16q48 21 68 42.5t20 45.5q0 20 -14 32t-39 12h-35v29zM259 870l111 -151h-40l-90 124l-89 -124h-40l110 151h38zM82 0v650h322v-35h-285v-392q2 2 3 5q32 58 92 89t145 31h11v-35h-11
q-113 0 -176.5 -59.5t-63.5 -165.5v-52h285v-36h-322z" />
    <glyph glyph-name="uni1EC3" unicode="&#x1ec3;" horiz-adv-x="542" 
d="M366 827h36q38 0 61 -19.5t23 -51.5q0 -21 -10.5 -39.5t-32.5 -35t-56 -31.5l-21 16q47 21 67 42.5t20 45.5q0 20 -13.5 32t-39.5 12h-34v29zM292 687l111 -151h-40l-90 124l-89 -124h-40l111 151h37zM278 -8q-65 0 -118.5 32.5t-86 87.5t-32.5 121q0 67 32.5 122
t86 87.5t118.5 32.5q64 0 115 -29t81 -78.5t30 -109.5v-13h-425v-6v-9q0 -56 27.5 -102.5t73 -74.5t98.5 -28q60 0 107 29t75 78h37q-19 -42 -51.5 -73.5t-75 -49t-92.5 -17.5zM467 277q-4 41 -25 75q-25 41 -68 65.5t-96 24.5t-98.5 -28t-73.5 -74q-18 -29 -24 -63h385z
" />
    <glyph glyph-name="uni1EC4" unicode="&#x1ec4;" horiz-adv-x="446" 
d="M106 903v74q0 38 18 59t47 21q23 0 39 -13t28.5 -31.5t22.5 -37t21.5 -31.5t27.5 -13q18 0 27 13t9 36v74h31v-74q0 -37 -17.5 -58.5t-48.5 -21.5q-22 0 -38.5 13t-28.5 31.5t-22.5 37t-22 31t-26.5 12.5q-36 0 -36 -48v-74h-31zM259 870l111 -151h-40l-90 124l-89 -124
h-40l110 151h38zM82 0v650h322v-35h-285v-392q2 2 3 5q32 58 92 89t145 31h11v-35h-11q-113 0 -176.5 -59.5t-63.5 -165.5v-52h285v-36h-322z" />
    <glyph glyph-name="uni1EC5" unicode="&#x1ec5;" horiz-adv-x="542" 
d="M138 727v74q0 38 17.5 59t47.5 21q23 0 39 -13t28.5 -31.5t22.5 -37t21.5 -31.5t27.5 -13q18 0 26.5 13t8.5 36v74h32v-74q0 -37 -17.5 -58.5t-48.5 -21.5q-23 0 -39 13t-28 31.5t-22.5 37t-22 31.5t-26.5 13q-36 0 -36 -49v-74h-31zM292 687l111 -151h-40l-90 124
l-89 -124h-40l111 151h37zM278 -8q-65 0 -118.5 32.5t-86 87.5t-32.5 121q0 67 32.5 122t86 87.5t118.5 32.5q64 0 115 -29t81 -78.5t30 -109.5v-13h-425v-6v-9q0 -56 27.5 -102.5t73 -74.5t98.5 -28q60 0 107 29t75 78h37q-19 -42 -51.5 -73.5t-75 -49t-92.5 -17.5z
M467 277q-4 41 -25 75q-25 41 -68 65.5t-96 24.5t-98.5 -28t-73.5 -74q-18 -29 -24 -63h385z" />
    <glyph glyph-name="uni1EC6" unicode="&#x1ec6;" horiz-adv-x="446" 
d="M259 870l111 -151h-40l-90 124l-89 -124h-40l110 151h38zM82 0v650h322v-35h-285v-392q2 2 3 5q32 58 92 89t145 31h11v-35h-11q-113 0 -176.5 -59.5t-63.5 -165.5v-52h285v-36h-322zM223 -142q-16 0 -26.5 10.5t-10.5 27.5q0 16 10.5 26.5t26.5 10.5q17 0 27.5 -10.5
t10.5 -26.5q0 -17 -10.5 -27.5t-27.5 -10.5z" />
    <glyph glyph-name="uni1EC7" unicode="&#x1ec7;" horiz-adv-x="542" 
d="M292 687l111 -151h-40l-90 124l-89 -124h-40l111 151h37zM278 -8q-65 0 -118.5 32.5t-86 87.5t-32.5 121q0 67 32.5 122t86 87.5t118.5 32.5q64 0 115 -29t81 -78.5t30 -109.5v-13h-425v-6v-9q0 -56 27.5 -102.5t73 -74.5t98.5 -28q60 0 107 29t75 78h37
q-19 -42 -51.5 -73.5t-75 -49t-92.5 -17.5zM467 277q-4 41 -25 75q-25 41 -68 65.5t-96 24.5t-98.5 -28t-73.5 -74q-18 -29 -24 -63h385zM271 -142q-16 0 -26.5 10.5t-10.5 27.5q0 16 10.5 26.5t26.5 10.5q18 0 28 -10.5t10 -26.5q0 -17 -10 -27.5t-28 -10.5z" />
    <glyph glyph-name="uni1EC8" unicode="&#x1ec8;" horiz-adv-x="201" 
d="M40 870h36q39 0 62 -20t23 -51q0 -21 -10.5 -39.5t-32.5 -35.5t-57 -31l-21 16q48 21 68 42.5t20 45.5q0 20 -14 31.5t-39 11.5h-35v30zM119 0h-37v650h37v-650z" />
    <glyph glyph-name="uni1EC9" unicode="&#x1ec9;" horiz-adv-x="172" 
d="M25 695h36q39 0 62 -20t23 -52q0 -21 -10.5 -39.5t-32.5 -35t-56 -31.5l-22 17q48 20 68 42t20 45q0 21 -13.5 32.5t-39.5 11.5h-35v30zM67 467h37v-467h-37v467z" />
    <glyph glyph-name="uni1ECA" unicode="&#x1eca;" horiz-adv-x="201" 
d="M119 0h-37v650h37v-650zM101 -142q-17 0 -27.5 10.5t-10.5 27.5q0 16 10.5 26.5t27.5 10.5t27 -10.5t10 -26.5q0 -17 -10 -27.5t-27 -10.5z" />
    <glyph glyph-name="uni1ECB" unicode="&#x1ecb;" horiz-adv-x="172" 
d="M86 563q-14 0 -22.5 9t-8.5 22q0 14 8.5 22.5t22.5 8.5t22.5 -8.5t8.5 -22.5q0 -13 -8.5 -22t-22.5 -9zM67 467h37v-467h-37v467zM86 -142q-16 0 -26.5 10.5t-10.5 27.5q0 16 10.5 26.5t26.5 10.5q17 0 27.5 -10.5t10.5 -26.5q0 -17 -10.5 -27.5t-27.5 -10.5z" />
    <glyph glyph-name="uni1ECC" unicode="&#x1ecc;" horiz-adv-x="750" 
d="M44 325q0 69 25.5 129.5t71 106.5t105.5 71.5t129 25.5t129 -25.5t105.5 -71.5t71 -106.5t25.5 -129.5t-25.5 -129.5t-71 -106.5t-105.5 -71.5t-129 -25.5t-129 25.5t-105.5 71.5t-71 106.5t-25.5 129.5zM83 325q0 -61 22.5 -115t63 -95t93.5 -64.5t113 -23.5t113 23.5
t93.5 64.5t63.5 95t23 115t-23 115t-63.5 95t-93.5 64.5t-113 23.5t-113 -23.5t-93.5 -64.5t-63 -95t-22.5 -115zM375 -142q-16 0 -26.5 10.5t-10.5 27.5q0 16 10.5 26.5t26.5 10.5q18 0 28 -10.5t10 -26.5q0 -17 -10 -27.5t-28 -10.5z" />
    <glyph glyph-name="uni1ECD" unicode="&#x1ecd;" horiz-adv-x="567" 
d="M283 -8q-66 0 -121.5 32.5t-88 87t-32.5 122.5q0 67 32.5 121.5t88 87t121.5 32.5q68 0 123 -32.5t87.5 -87t32.5 -122.5q0 -66 -32.5 -121t-87.5 -87.5t-123 -32.5zM283 441q-55 0 -102 -28t-74.5 -75t-27.5 -105q0 -56 27.5 -103.5t74.5 -75.5t103 -28t102.5 28
t74 75.5t27.5 103.5q0 58 -27.5 105t-74 75t-103.5 28zM284 -142q-17 0 -27.5 10.5t-10.5 27.5q0 16 10.5 26.5t27.5 10.5t27 -10.5t10 -26.5q0 -17 -10 -27.5t-27 -10.5z" />
    <glyph glyph-name="uni1ECE" unicode="&#x1ece;" horiz-adv-x="750" 
d="M314 884h36q39 0 62 -20t23 -52q0 -21 -10.5 -39.5t-32.5 -35t-56 -31.5l-22 17q48 20 68 42t20 45q0 21 -13.5 32.5t-39.5 11.5h-35v30zM44 325q0 69 25.5 129.5t71 106.5t105.5 71.5t129 25.5t129 -25.5t105.5 -71.5t71 -106.5t25.5 -129.5t-25.5 -129.5t-71 -106.5
t-105.5 -71.5t-129 -25.5t-129 25.5t-105.5 71.5t-71 106.5t-25.5 129.5zM83 325q0 -61 22.5 -115t63 -95t93.5 -64.5t113 -23.5t113 23.5t93.5 64.5t63.5 95t23 115t-23 115t-63.5 95t-93.5 64.5t-113 23.5t-113 -23.5t-93.5 -64.5t-63 -95t-22.5 -115z" />
    <glyph glyph-name="uni1ECF" unicode="&#x1ecf;" horiz-adv-x="567" 
d="M230 692h36q38 0 61 -19.5t23 -51.5q0 -21 -10.5 -39.5t-32.5 -35.5t-56 -31l-21 16q47 21 67 42.5t20 45.5q0 20 -13.5 31.5t-39.5 11.5h-34v30zM283 -8q-66 0 -121.5 32.5t-88 87t-32.5 122.5q0 67 32.5 121.5t88 87t121.5 32.5q68 0 123 -32.5t87.5 -87t32.5 -122.5
q0 -66 -32.5 -121t-87.5 -87.5t-123 -32.5zM283 441q-55 0 -102 -28t-74.5 -75t-27.5 -105q0 -56 27.5 -103.5t74.5 -75.5t103 -28t102.5 28t74 75.5t27.5 103.5q0 58 -27.5 105t-74 75t-103.5 28z" />
    <glyph glyph-name="uni1ED0" unicode="&#x1ed0;" horiz-adv-x="750" 
d="M480 838l81 152h41l-87 -152h-35zM394 870l111 -151h-40l-90 124l-90 -124h-39l110 151h38zM44 325q0 69 25.5 129.5t71 106.5t105.5 71.5t129 25.5t129 -25.5t105.5 -71.5t71 -106.5t25.5 -129.5t-25.5 -129.5t-71 -106.5t-105.5 -71.5t-129 -25.5t-129 25.5
t-105.5 71.5t-71 106.5t-25.5 129.5zM83 325q0 -61 22.5 -115t63 -95t93.5 -64.5t113 -23.5t113 23.5t93.5 64.5t63.5 95t23 115t-23 115t-63.5 95t-93.5 64.5t-113 23.5t-113 -23.5t-93.5 -64.5t-63 -95t-22.5 -115z" />
    <glyph glyph-name="uni1ED1" unicode="&#x1ed1;" horiz-adv-x="567" 
d="M394 650l81 151h41l-86 -151h-36zM302 687l111 -151h-40l-90 124l-89 -124h-40l111 151h37zM283 -8q-66 0 -121.5 32.5t-88 87t-32.5 121.5q0 68 32.5 122.5t88 87t121.5 32.5q68 0 123 -32.5t87.5 -87t32.5 -122.5q0 -66 -32.5 -121t-87.5 -87.5t-123 -32.5zM283 441
q-55 0 -102 -28t-74.5 -75t-27.5 -105q0 -56 27.5 -103.5t74.5 -75.5t102 -28q57 0 103.5 28t74 75.5t27.5 103.5q0 58 -27.5 105t-74 75t-103.5 28z" />
    <glyph glyph-name="uni1ED2" unicode="&#x1ed2;" horiz-adv-x="750" 
d="M518 845h-35l-82 151h42zM394 870l111 -151h-40l-90 124l-90 -124h-39l110 151h38zM44 325q0 69 25.5 129.5t71 106.5t105.5 71.5t129 25.5t129 -25.5t105.5 -71.5t71 -106.5t25.5 -129.5t-25.5 -129.5t-71 -106.5t-105.5 -71.5t-129 -25.5t-129 25.5t-105.5 71.5
t-71 106.5t-25.5 129.5zM83 325q0 -61 22.5 -115t63 -95t93.5 -64.5t113 -23.5t113 23.5t93.5 64.5t63.5 95t23 115t-23 115t-63.5 95t-93.5 64.5t-113 23.5t-113 -23.5t-93.5 -64.5t-63 -95t-22.5 -115z" />
    <glyph glyph-name="uni1ED3" unicode="&#x1ed3;" horiz-adv-x="567" 
d="M443 650h-35l-81 151h41zM302 687l111 -151h-40l-90 124l-89 -124h-40l111 151h37zM283 -8q-66 0 -121.5 32.5t-88 87t-32.5 121.5q0 68 32.5 122.5t88 87t121.5 32.5q68 0 123 -32.5t87.5 -87t32.5 -122.5q0 -66 -32.5 -121t-87.5 -87.5t-123 -32.5zM283 441
q-55 0 -102 -28t-74.5 -75t-27.5 -105q0 -56 27.5 -103.5t74.5 -75.5t102 -28q57 0 103.5 28t74 75.5t27.5 103.5q0 58 -27.5 105t-74 75t-103.5 28z" />
    <glyph glyph-name="uni1ED4" unicode="&#x1ed4;" horiz-adv-x="750" 
d="M475 994h36q38 0 61.5 -19.5t23.5 -51.5q0 -21 -10.5 -39.5t-32.5 -35t-57 -31.5l-21 16q48 21 68 42.5t20 45.5q0 20 -14 32t-39 12h-35v29zM394 870l111 -151h-40l-90 124l-90 -124h-39l110 151h38zM44 325q0 69 25.5 129.5t71 106.5t105.5 71.5t129 25.5t129 -25.5
t105.5 -71.5t71 -106.5t25.5 -129.5t-25.5 -129.5t-71 -106.5t-105.5 -71.5t-129 -25.5t-129 25.5t-105.5 71.5t-71 106.5t-25.5 129.5zM83 325q0 -61 22.5 -115t63 -95t93.5 -64.5t113 -23.5t113 23.5t93.5 64.5t63.5 95t23 115t-23 115t-63.5 95t-93.5 64.5t-113 23.5
t-113 -23.5t-93.5 -64.5t-63 -95t-22.5 -115z" />
    <glyph glyph-name="uni1ED5" unicode="&#x1ed5;" horiz-adv-x="567" 
d="M377 827h36q39 0 62 -19.5t23 -51.5q0 -21 -10.5 -39.5t-32.5 -35t-57 -31.5l-21 16q48 21 68 42.5t20 45.5q0 20 -14 32t-39 12h-35v29zM302 687l111 -151h-40l-90 124l-89 -124h-40l111 151h37zM283 -8q-66 0 -121.5 32.5t-88 87t-32.5 121.5q0 68 32.5 122.5t88 87
t121.5 32.5q68 0 123 -32.5t87.5 -87t32.5 -122.5q0 -66 -32.5 -121t-87.5 -87.5t-123 -32.5zM283 441q-55 0 -102 -28t-74.5 -75t-27.5 -105q0 -56 27.5 -103.5t74.5 -75.5t102 -28q57 0 103.5 28t74 75.5t27.5 103.5q0 58 -27.5 105t-74 75t-103.5 28z" />
    <glyph glyph-name="uni1ED6" unicode="&#x1ed6;" horiz-adv-x="750" 
d="M240 903v74q0 38 17.5 59t47.5 21q23 0 39 -13t28.5 -31.5t22.5 -37t21.5 -31.5t27.5 -13q18 0 26.5 13t8.5 36v74h32v-74q0 -37 -17.5 -58.5t-48.5 -21.5q-23 0 -39 13t-28 31.5t-22.5 37t-22 31t-27.5 12.5q-35 0 -35 -48v-74h-31zM394 870l111 -151h-40l-90 124
l-90 -124h-39l110 151h38zM44 325q0 69 25.5 129.5t71 106.5t105.5 71.5t129 25.5t129 -25.5t105.5 -71.5t71 -106.5t25.5 -129.5t-25.5 -129.5t-71 -106.5t-105.5 -71.5t-129 -25.5t-129 25.5t-105.5 71.5t-71 106.5t-25.5 129.5zM83 325q0 -61 22.5 -115t63 -95
t93.5 -64.5t113 -23.5t113 23.5t93.5 64.5t63.5 95t23 115t-23 115t-63.5 95t-93.5 64.5t-113 23.5t-113 -23.5t-93.5 -64.5t-63 -95t-22.5 -115z" />
    <glyph glyph-name="uni1ED7" unicode="&#x1ed7;" horiz-adv-x="567" 
d="M148 724v75q0 38 18 58.5t47 20.5q23 0 39.5 -12.5t28.5 -31t22.5 -37t21.5 -31.5t27 -13q18 0 27 13t9 35v75h31v-75q0 -36 -17 -57.5t-49 -21.5q-22 0 -38.5 13t-28.5 31t-22.5 37t-22 31.5t-26.5 12.5q-36 0 -36 -48v-75h-31zM302 687l111 -151h-40l-90 124l-89 -124
h-40l111 151h37zM283 -8q-66 0 -121.5 32.5t-88 87t-32.5 121.5q0 68 32.5 122.5t88 87t121.5 32.5q68 0 123 -32.5t87.5 -87t32.5 -122.5q0 -66 -32.5 -121t-87.5 -87.5t-123 -32.5zM283 441q-55 0 -102 -28t-74.5 -75t-27.5 -105q0 -56 27.5 -103.5t74.5 -75.5t102 -28
q57 0 103.5 28t74 75.5t27.5 103.5q0 58 -27.5 105t-74 75t-103.5 28z" />
    <glyph glyph-name="uni1ED8" unicode="&#x1ed8;" horiz-adv-x="750" 
d="M394 870l111 -151h-40l-90 124l-90 -124h-39l110 151h38zM44 325q0 69 25.5 129.5t71 106.5t105.5 71.5t129 25.5t129 -25.5t105.5 -71.5t71 -106.5t25.5 -129.5t-25.5 -129.5t-71 -106.5t-105.5 -71.5t-129 -25.5t-129 25.5t-105.5 71.5t-71 106.5t-25.5 129.5zM83 325
q0 -61 22.5 -115t63 -95t93.5 -64.5t113 -23.5t113 23.5t93.5 64.5t63.5 95t23 115t-23 115t-63.5 95t-93.5 64.5t-113 23.5t-113 -23.5t-93.5 -64.5t-63 -95t-22.5 -115zM375 -142q-16 0 -26.5 10.5t-10.5 27.5q0 16 10.5 26.5t26.5 10.5q18 0 28 -10.5t10 -26.5
q0 -17 -10 -27.5t-28 -10.5z" />
    <glyph glyph-name="uni1ED9" unicode="&#x1ed9;" horiz-adv-x="567" 
d="M302 687l111 -151h-40l-90 124l-89 -124h-40l111 151h37zM283 -8q-66 0 -121.5 32.5t-88 87t-32.5 122.5q0 67 32.5 121.5t88 87t121.5 32.5q68 0 123 -32.5t87.5 -87t32.5 -122.5q0 -66 -32.5 -121t-87.5 -87.5t-123 -32.5zM283 441q-55 0 -102 -28t-74.5 -75
t-27.5 -105q0 -56 27.5 -103.5t74.5 -75.5t103 -28t102.5 28t74 75.5t27.5 103.5q0 58 -27.5 105t-74 75t-103.5 28zM284 -142q-17 0 -27.5 10.5t-10.5 27.5q0 16 10.5 26.5t27.5 10.5t27 -10.5t10 -26.5q0 -17 -10 -27.5t-27 -10.5z" />
    <glyph glyph-name="uni1EDA" unicode="&#x1eda;" horiz-adv-x="750" 
d="M314 719l81 151h41l-87 -151h-35zM44 325q0 69 25.5 129.5t71 106.5t105.5 71.5t129 25.5q39 0 75 -8q46 0 75 23.5t29 71.5v24h31v-24q0 -62 -35 -94q-16 -14 -38 -22q55 -25 97 -68q46 -46 71.5 -106.5t25.5 -129.5t-25.5 -129.5t-71 -106.5t-105.5 -71.5t-129 -25.5
t-129 25.5t-105.5 71.5t-71 106.5t-25.5 129.5zM83 325q0 -61 22.5 -115t63 -95t93.5 -64.5t113 -23.5t113 23.5t93.5 64.5t63.5 95t23 115t-23 115t-63.5 95t-93.5 64.5t-113 23.5t-113 -23.5t-93.5 -64.5t-63 -95t-22.5 -115z" />
    <glyph glyph-name="uni1EDB" unicode="&#x1edb;" horiz-adv-x="567" 
d="M266 536l80 151h41l-86 -151h-35zM283 -8q-66 0 -121.5 32.5t-88 87t-32.5 122.5q0 67 32.5 121.5t88 87t121.5 32.5q35 0 66 -8q45 0 74 23.5t29 72.5v23h32v-23q0 -63 -36 -95q-18 -16 -44 -24q1 -1 2 -1q55 -33 87.5 -87.5t32.5 -122.5q0 -66 -32.5 -121t-87.5 -87.5
t-123 -32.5zM283 441q-55 0 -102 -28t-74.5 -75t-27.5 -105q0 -56 27.5 -103.5t74.5 -75.5t103 -28t102.5 28t74 75.5t27.5 103.5q0 58 -27.5 105t-74 75t-103.5 28z" />
    <glyph glyph-name="uni1EDC" unicode="&#x1edc;" horiz-adv-x="750" 
d="M400 720h-35l-82 151h41zM44 325q0 69 25.5 129.5t71 106.5t105.5 71.5t129 25.5q39 0 75 -8q46 0 75 23.5t29 71.5v24h31v-24q0 -62 -35 -94q-16 -14 -38 -22q55 -25 97 -68q46 -46 71.5 -106.5t25.5 -129.5t-25.5 -129.5t-71 -106.5t-105.5 -71.5t-129 -25.5t-129 25.5
t-105.5 71.5t-71 106.5t-25.5 129.5zM83 325q0 -61 22.5 -115t63 -95t93.5 -64.5t113 -23.5t113 23.5t93.5 64.5t63.5 95t23 115t-23 115t-63.5 95t-93.5 64.5t-113 23.5t-113 -23.5t-93.5 -64.5t-63 -95t-22.5 -115z" />
    <glyph glyph-name="uni1EDD" unicode="&#x1edd;" horiz-adv-x="567" 
d="M308 537h-35l-82 152h42zM283 -8q-66 0 -121.5 32.5t-88 87t-32.5 122.5q0 67 32.5 121.5t88 87t121.5 32.5q35 0 66 -8q45 0 74 23.5t29 72.5v23h32v-23q0 -63 -36 -95q-18 -16 -44 -24q1 -1 2 -1q55 -33 87.5 -87.5t32.5 -122.5q0 -66 -32.5 -121t-87.5 -87.5
t-123 -32.5zM283 441q-55 0 -102 -28t-74.5 -75t-27.5 -105q0 -56 27.5 -103.5t74.5 -75.5t103 -28t102.5 28t74 75.5t27.5 103.5q0 58 -27.5 105t-74 75t-103.5 28z" />
    <glyph glyph-name="uni1EDE" unicode="&#x1ede;" horiz-adv-x="750" 
d="M314 874h36q39 0 62 -20t23 -52q0 -21 -10.5 -39.5t-32.5 -35t-56 -31.5l-22 17q48 20 68 42t20 45q0 21 -13.5 32.5t-39.5 11.5h-35v30zM44 325q0 69 25.5 129.5t71 106.5t105.5 71.5t129 25.5q39 0 75 -8q46 0 75 23.5t29 71.5v24h31v-24q0 -62 -35 -94
q-16 -14 -38 -22q55 -25 97 -68q46 -46 71.5 -106.5t25.5 -129.5t-25.5 -129.5t-71 -106.5t-105.5 -71.5t-129 -25.5t-129 25.5t-105.5 71.5t-71 106.5t-25.5 129.5zM83 325q0 -61 22.5 -115t63 -95t93.5 -64.5t113 -23.5t113 23.5t93.5 64.5t63.5 95t23 115t-23 115
t-63.5 95t-93.5 64.5t-113 23.5t-113 -23.5t-93.5 -64.5t-63 -95t-22.5 -115z" />
    <glyph glyph-name="uni1EDF" unicode="&#x1edf;" horiz-adv-x="567" 
d="M223 691h36q38 0 61.5 -19.5t23.5 -51.5q0 -21 -10.5 -39.5t-33 -35t-56.5 -31.5l-21 16q48 21 67.5 42.5t19.5 45.5q0 20 -13.5 31.5t-39.5 11.5h-34v30zM283 -8q-66 0 -121.5 32.5t-88 87t-32.5 122.5q0 67 32.5 121.5t88 87t121.5 32.5q35 0 66 -8q45 0 74 23.5
t29 72.5v23h32v-23q0 -63 -36 -95q-18 -16 -44 -24q1 -1 2 -1q55 -33 87.5 -87.5t32.5 -122.5q0 -66 -32.5 -121t-87.5 -87.5t-123 -32.5zM283 441q-55 0 -102 -28t-74.5 -75t-27.5 -105q0 -56 27.5 -103.5t74.5 -75.5t103 -28t102.5 28t74 75.5t27.5 103.5q0 58 -27.5 105
t-74 75t-103.5 28z" />
    <glyph glyph-name="uni1EE0" unicode="&#x1ee0;" horiz-adv-x="750" 
d="M240 719v75q0 38 17.5 58.5t47.5 20.5q23 0 39 -13t28.5 -31t22.5 -37t21.5 -31.5t27.5 -12.5q18 0 26.5 12.5t8.5 35.5v74h32v-74q0 -37 -17.5 -58t-48.5 -21q-23 0 -39 12.5t-28 31t-22.5 37t-22 31.5t-27.5 13q-35 0 -35 -48v-75h-31zM44 325q0 69 25.5 129.5
t71 106.5t105.5 71.5t129 25.5q39 0 75 -8q46 0 75 23.5t29 71.5v24h31v-24q0 -62 -35 -94q-16 -14 -38 -22q55 -25 97 -68q46 -46 71.5 -106.5t25.5 -129.5t-25.5 -129.5t-71 -106.5t-105.5 -71.5t-129 -25.5t-129 25.5t-105.5 71.5t-71 106.5t-25.5 129.5zM83 325
q0 -61 22.5 -115t63 -95t93.5 -64.5t113 -23.5t113 23.5t93.5 64.5t63.5 95t23 115t-23 115t-63.5 95t-93.5 64.5t-113 23.5t-113 -23.5t-93.5 -64.5t-63 -95t-22.5 -115z" />
    <glyph glyph-name="uni1EE1" unicode="&#x1ee1;" horiz-adv-x="567" 
d="M148 536v75q0 38 18 58.5t47 20.5q23 0 39.5 -13t28.5 -31t22.5 -37t21.5 -31.5t27 -12.5q18 0 27 12.5t9 35.5v74h31v-74q0 -37 -17 -58t-49 -21q-22 0 -38.5 12.5t-28.5 31t-22.5 37t-22 31.5t-26.5 13q-36 0 -36 -48v-75h-31zM283 -8q-66 0 -121.5 32.5t-88 87
t-32.5 122.5q0 67 32.5 121.5t88 87t121.5 32.5q35 0 66 -8q45 0 74 23.5t29 72.5v23h32v-23q0 -63 -36 -95q-18 -16 -44 -24q1 -1 2 -1q55 -33 87.5 -87.5t32.5 -122.5q0 -66 -32.5 -121t-87.5 -87.5t-123 -32.5zM283 441q-55 0 -102 -28t-74.5 -75t-27.5 -105
q0 -56 27.5 -103.5t74.5 -75.5t103 -28t102.5 28t74 75.5t27.5 103.5q0 58 -27.5 105t-74 75t-103.5 28z" />
    <glyph glyph-name="uni1EE2" unicode="&#x1ee2;" horiz-adv-x="750" 
d="M44 325q0 69 25.5 129.5t71 106.5t105.5 71.5t129 25.5q39 0 75 -8q46 0 75 23.5t29 71.5v24h31v-24q0 -62 -35 -94q-16 -14 -38 -22q55 -25 97 -68q46 -46 71.5 -106.5t25.5 -129.5t-25.5 -129.5t-71 -106.5t-105.5 -71.5t-129 -25.5t-129 25.5t-105.5 71.5t-71 106.5
t-25.5 129.5zM83 325q0 -61 22.5 -115t63 -95t93.5 -64.5t113 -23.5t113 23.5t93.5 64.5t63.5 95t23 115t-23 115t-63.5 95t-93.5 64.5t-113 23.5t-113 -23.5t-93.5 -64.5t-63 -95t-22.5 -115zM375 -142q-16 0 -26.5 10.5t-10.5 27.5q0 16 10.5 26.5t26.5 10.5
q18 0 28 -10.5t10 -26.5q0 -17 -10 -27.5t-28 -10.5z" />
    <glyph glyph-name="uni1EE3" unicode="&#x1ee3;" horiz-adv-x="567" 
d="M283 -8q-66 0 -121.5 32.5t-88 87t-32.5 122.5q0 67 32.5 121.5t88 87t121.5 32.5q35 0 66 -8q45 0 74 23.5t29 72.5v23h32v-23q0 -63 -36 -95q-18 -16 -44 -24q1 -1 2 -1q55 -33 87.5 -87.5t32.5 -122.5q0 -66 -32.5 -121t-87.5 -87.5t-123 -32.5zM283 441
q-55 0 -102 -28t-74.5 -75t-27.5 -105q0 -56 27.5 -103.5t74.5 -75.5t103 -28t102.5 28t74 75.5t27.5 103.5q0 58 -27.5 105t-74 75t-103.5 28zM284 -142q-17 0 -27.5 10.5t-10.5 27.5q0 16 10.5 26.5t27.5 10.5t27 -10.5t10 -26.5q0 -17 -10 -27.5t-27 -10.5z" />
    <glyph glyph-name="uni1EE4" unicode="&#x1ee4;" horiz-adv-x="533" 
d="M267 28q45 0 80 19.5t55 54.5t20 79v469h38v-469q0 -55 -24.5 -98t-68 -67t-100.5 -24t-100.5 24t-68.5 67t-25 98v469h38v-469q0 -44 20.5 -79t56 -54.5t79.5 -19.5zM268 -142q-17 0 -27.5 10.5t-10.5 27.5q0 16 10.5 26.5t27.5 10.5t27 -10.5t10 -26.5q0 -17 -10 -27.5
t-27 -10.5z" />
    <glyph glyph-name="uni1EE5" unicode="&#x1ee5;" horiz-adv-x="479" 
d="M65 467h37v-294q0 -69 37.5 -108t99.5 -39q63 0 100.5 39t37.5 108v294h37v-292q0 -86 -47 -134.5t-128 -48.5q-79 0 -126.5 48.5t-47.5 134.5v292zM240 -142q-17 0 -27.5 10.5t-10.5 27.5q0 16 10.5 26.5t27.5 10.5t27 -10.5t10 -26.5q0 -17 -10 -27.5t-27 -10.5z" />
    <glyph glyph-name="uni1EE6" unicode="&#x1ee6;" horiz-adv-x="533" 
d="M200 865h36q38 0 61.5 -20t23.5 -51q0 -21 -10.5 -39.5t-32.5 -35.5t-57 -31l-21 16q48 21 68 42.5t20 45.5q0 20 -14 31.5t-39 11.5h-35v30zM267 28q45 0 80 19.5t55 54.5t20 79v469h38v-469q0 -55 -24.5 -98t-68 -67t-100.5 -24t-100.5 24t-68.5 67t-25 98v469h38v-469
q0 -44 20.5 -79t56 -54.5t79.5 -19.5z" />
    <glyph glyph-name="uni1EE7" unicode="&#x1ee7;" horiz-adv-x="479" 
d="M179 682h36q38 0 61.5 -19.5t23.5 -51.5q0 -21 -10.5 -39.5t-33 -35t-56.5 -31.5l-21 17q48 20 68 41.5t20 45.5q0 20 -14 32t-40 12h-34v29zM65 467h37v-294q0 -69 37.5 -108t99.5 -39q63 0 100.5 39t37.5 108v294h37v-292q0 -86 -47 -134.5t-128 -48.5
q-79 0 -126.5 48.5t-47.5 134.5v292z" />
    <glyph glyph-name="uni1EE8" unicode="&#x1ee8;" horiz-adv-x="533" 
d="M254 716l80 151h41l-86 -151h-35zM267 28q45 0 80 19.5t55 54.5t20 79v469q46 0 74.5 23.5t28.5 71.5v24h32v-24q0 -62 -35 -94q-25 -22 -62 -28v-442q0 -55 -24.5 -98t-68 -67t-100.5 -24t-100.5 24t-68.5 67t-25 98v469h38v-469q0 -44 20.5 -79t56 -54.5t79.5 -19.5z
" />
    <glyph glyph-name="uni1EE9" unicode="&#x1ee9;" horiz-adv-x="479" 
d="M227 537l81 151h41l-87 -151h-35zM65 467h37v-294q0 -69 37.5 -108t99.5 -39q63 0 100.5 39t37.5 108v294q45 0 74 23.5t29 72.5v23h31v-23q0 -63 -35 -95q-25 -22 -62 -28v-265q0 -86 -47 -134.5t-128 -48.5q-79 0 -126.5 48.5t-47.5 134.5v292z" />
    <glyph glyph-name="uni1EEA" unicode="&#x1eea;" horiz-adv-x="533" 
d="M291 720h-35l-82 151h41zM267 28q45 0 80 19.5t55 54.5t20 79v469q46 0 74.5 23.5t28.5 71.5v24h32v-24q0 -62 -35 -94q-25 -22 -62 -28v-442q0 -55 -24.5 -98t-68 -67t-100.5 -24t-100.5 24t-68.5 67t-25 98v469h38v-469q0 -44 20.5 -79t56 -54.5t79.5 -19.5z" />
    <glyph glyph-name="uni1EEB" unicode="&#x1eeb;" horiz-adv-x="479" 
d="M265 536h-35l-82 151h41zM65 467h37v-294q0 -69 37.5 -108t99.5 -39q63 0 100.5 39t37.5 108v294q45 0 74 23.5t29 72.5v23h31v-23q0 -63 -35 -95q-25 -22 -62 -28v-265q0 -86 -47 -134.5t-128 -48.5q-79 0 -126.5 48.5t-47.5 134.5v292z" />
    <glyph glyph-name="uni1EEC" unicode="&#x1eec;" horiz-adv-x="533" 
d="M206 872h36q38 0 61.5 -20t23.5 -52q0 -21 -10.5 -39.5t-33 -35t-56.5 -31.5l-21 17q48 21 68 42.5t20 44.5q0 21 -14 32.5t-40 11.5h-34v30zM267 28q45 0 80 19.5t55 54.5t20 79v469q46 0 74.5 23.5t28.5 71.5v24h32v-24q0 -62 -35 -94q-25 -22 -62 -28v-442
q0 -55 -24.5 -98t-68 -67t-100.5 -24t-100.5 24t-68.5 67t-25 98v469h38v-469q0 -44 20.5 -79t56 -54.5t79.5 -19.5z" />
    <glyph glyph-name="uni1EED" unicode="&#x1eed;" horiz-adv-x="479" 
d="M179 690h36q38 0 61.5 -20t23.5 -52q0 -21 -10.5 -39.5t-33 -35t-56.5 -31.5l-21 17q48 20 68 42t20 45q0 21 -14 32.5t-40 11.5h-34v30zM65 467h37v-294q0 -69 37.5 -108t99.5 -39q63 0 100.5 39t37.5 108v294q45 0 74 23.5t29 72.5v23h31v-23q0 -63 -35 -95
q-25 -22 -62 -28v-265q0 -86 -47 -134.5t-128 -48.5q-79 0 -126.5 48.5t-47.5 134.5v292z" />
    <glyph glyph-name="uni1EEE" unicode="&#x1eee;" horiz-adv-x="533" 
d="M132 719v75q0 38 17.5 58.5t47.5 20.5q23 0 39 -13t28.5 -31t22.5 -37t21.5 -31.5t27.5 -12.5q18 0 26.5 12.5t8.5 35.5v74h32v-74q0 -37 -17.5 -58t-48.5 -21q-23 0 -39 12.5t-28 31t-22.5 37t-22 31.5t-26.5 13q-36 0 -36 -48v-75h-31zM267 28q45 0 80 19.5t55 54.5
t20 79v469q46 0 74.5 23.5t28.5 71.5v24h32v-24q0 -62 -35 -94q-25 -22 -62 -28v-442q0 -55 -24.5 -98t-68 -67t-100.5 -24t-100.5 24t-68.5 67t-25 98v469h38v-469q0 -44 20.5 -79t56 -54.5t79.5 -19.5z" />
    <glyph glyph-name="uni1EEF" unicode="&#x1eef;" horiz-adv-x="479" 
d="M104 536v75q0 38 18 58.5t48 20.5q22 0 38.5 -13t28.5 -31t22.5 -37t21.5 -31.5t27 -12.5q18 0 27 12.5t9 35.5v74h31v-74q0 -37 -17 -58t-49 -21q-22 0 -38.5 12.5t-28.5 31t-22.5 37t-22 31.5t-26.5 13q-36 0 -36 -48v-75h-31zM65 467h37v-294q0 -69 37.5 -108
t99.5 -39q63 0 100.5 39t37.5 108v294q45 0 74 23.5t29 72.5v23h31v-23q0 -63 -35 -95q-25 -22 -62 -28v-265q0 -86 -47 -134.5t-128 -48.5q-79 0 -126.5 48.5t-47.5 134.5v292z" />
    <glyph glyph-name="uni1EF0" unicode="&#x1ef0;" horiz-adv-x="533" 
d="M267 28q45 0 80 19.5t55 54.5t20 79v469q46 0 74.5 23.5t28.5 71.5v24h32v-24q0 -62 -35 -94q-25 -22 -62 -28v-442q0 -55 -24.5 -98t-68 -67t-100.5 -24t-100.5 24t-68.5 67t-25 98v469h38v-469q0 -44 20.5 -79t56 -54.5t79.5 -19.5zM268 -142q-17 0 -27.5 10.5
t-10.5 27.5q0 16 10.5 26.5t27.5 10.5t27 -10.5t10 -26.5q0 -17 -10 -27.5t-27 -10.5z" />
    <glyph glyph-name="uni1EF1" unicode="&#x1ef1;" horiz-adv-x="479" 
d="M65 467h37v-294q0 -69 37.5 -108t99.5 -39q63 0 100.5 39t37.5 108v294q45 0 74 23.5t29 72.5v23h31v-23q0 -63 -35 -95q-25 -22 -62 -28v-265q0 -86 -47 -134.5t-128 -48.5q-79 0 -126.5 48.5t-47.5 134.5v292zM240 -142q-17 0 -27.5 10.5t-10.5 27.5q0 16 10.5 26.5
t27.5 10.5t27 -10.5t10 -26.5q0 -17 -10 -27.5t-27 -10.5z" />
    <glyph glyph-name="Ygrave" unicode="&#x1ef2;" horiz-adv-x="479" 
d="M282 719h-35l-81 151h41zM237 0l55 198q-75 2 -129 31q-58 30 -88.5 89t-30.5 143q0 41 6.5 86t20.5 103h38q-14 -60 -21 -105t-7 -84q0 -110 58 -169q58 -57 163 -58l117 416h38l-180 -650h-40z" />
    <glyph glyph-name="ygrave" unicode="&#x1ef3;" horiz-adv-x="466" 
d="M282 536h-35l-81 151h41zM47 253q0 51 7 104.5t23 109.5h37q-16 -63 -23 -114t-7 -100q0 -105 55 -163q53 -55 141 -57l124 434h37l-175 -617h-39l43 149q-62 3 -110 29q-54 30 -83.5 87.5t-29.5 137.5z" />
    <glyph glyph-name="uni1EF4" unicode="&#x1ef4;" horiz-adv-x="479" 
d="M237 0l55 198q-75 2 -129 31q-58 30 -88.5 89t-30.5 143q0 41 6.5 86t20.5 103h38q-14 -60 -21 -105t-7 -84q0 -110 58 -169q58 -57 163 -58l117 416h38l-180 -650h-40zM240 -142q-17 0 -27.5 10.5t-10.5 27.5q0 16 10.5 26.5t27.5 10.5t27 -10.5t10 -26.5
q0 -17 -10 -27.5t-27 -10.5z" />
    <glyph glyph-name="uni1EF5" unicode="&#x1ef5;" horiz-adv-x="466" 
d="M47 253q0 51 7 104.5t23 109.5h37q-16 -63 -23 -114t-7 -100q0 -105 55 -163q53 -55 141 -57l124 434h37l-175 -617h-39l43 149q-62 3 -110 29q-54 30 -83.5 87.5t-29.5 137.5zM404 -105q-16 0 -26.5 10.5t-10.5 26.5t10.5 26.5t26.5 10.5q17 0 27.5 -10.5t10.5 -26.5
t-10.5 -26.5t-27.5 -10.5z" />
    <glyph glyph-name="uni1EF6" unicode="&#x1ef6;" horiz-adv-x="479" 
d="M211 865h36q38 0 61.5 -20t23.5 -51q0 -21 -10.5 -39.5t-32.5 -35.5t-57 -31l-21 16q48 21 68 42.5t20 44.5q0 21 -14 32.5t-39 11.5h-35v30zM237 0l55 198q-75 2 -129 31q-58 30 -88.5 89t-30.5 143q0 41 6.5 86t20.5 103h38q-14 -60 -21 -105t-7 -84q0 -110 58 -169
q58 -57 163 -58l117 416h38l-180 -650h-40z" />
    <glyph glyph-name="uni1EF7" unicode="&#x1ef7;" horiz-adv-x="466" 
d="M219 667h36q38 0 61 -19.5t23 -51.5q0 -21 -10.5 -39.5t-32.5 -35t-56 -31.5l-21 16q47 21 67 42.5t20 45.5q0 20 -13.5 31.5t-39.5 11.5h-34v30zM47 253q0 51 7 104.5t23 109.5h37q-16 -63 -23 -114t-7 -100q0 -105 55 -163q53 -55 141 -57l124 434h37l-175 -617h-39
l43 149q-62 3 -110 29q-54 30 -83.5 87.5t-29.5 137.5z" />
    <glyph glyph-name="uni1EF8" unicode="&#x1ef8;" horiz-adv-x="479" 
d="M104 719v75q0 38 17.5 58.5t47.5 20.5q23 0 39 -13t28.5 -31t22.5 -37t21.5 -31.5t27.5 -12.5q18 0 26.5 12.5t8.5 35.5v74h32v-74q0 -37 -17.5 -58t-48.5 -21q-23 0 -39 12.5t-28 31t-22.5 37t-22 31.5t-26.5 13q-36 0 -36 -48v-75h-31zM237 0l55 198q-75 2 -129 31
q-58 30 -88.5 89t-30.5 143q0 41 6.5 86t20.5 103h38q-14 -60 -21 -105t-7 -84q0 -110 58 -169q58 -57 163 -58l117 416h38l-180 -650h-40z" />
    <glyph glyph-name="uni1EF9" unicode="&#x1ef9;" horiz-adv-x="466" 
d="M124 536v74q0 38 18 58.5t48 20.5q22 0 38.5 -12.5t28.5 -31t22.5 -37t22 -31.5t26.5 -13q18 0 27 13t9 36v74h31v-74q0 -37 -17 -58.5t-48 -21.5q-23 0 -39.5 13t-28.5 31.5t-22.5 37t-21.5 31t-27 12.5q-36 0 -36 -48v-74h-31zM47 253q0 51 7 104.5t23 109.5h37
q-16 -63 -23 -114t-7 -100q0 -105 55 -163q53 -55 141 -57l124 434h37l-175 -617h-39l43 149q-62 3 -110 29q-54 30 -83.5 87.5t-29.5 137.5z" />
    <glyph glyph-name="endash" unicode="&#x2013;" horiz-adv-x="513" 
d="M37 265h440v-35h-440v35z" />
    <glyph glyph-name="emdash" unicode="&#x2014;" horiz-adv-x="1013" 
d="M37 265h940v-35h-940v35z" />
    <glyph glyph-name="quoteleft" unicode="&#x2018;" horiz-adv-x="143" 
d="M78 650h29q-18 -46 -27 -79q-5 -17 -7 -31q12 -1 19 -8q9 -9 9 -22q0 -14 -9 -22.5t-22 -8.5q-14 0 -23 9t-9 24q0 18 10.5 54.5t29.5 83.5z" />
    <glyph glyph-name="quoteright" unicode="&#x2019;" horiz-adv-x="143" 
d="M66 485h-30q18 46 27 79q5 17 8 31q-12 1 -19 8q-9 9 -9 23q0 13 8.5 21.5t22.5 8.5t22.5 -9t8.5 -24q0 -17 -10.5 -53.5t-28.5 -84.5z" />
    <glyph glyph-name="quotesinglbase" unicode="&#x201a;" horiz-adv-x="150" 
d="M66 -116h-30q18 46 27 79q5 17 8 31q-12 1 -19 8q-9 9 -9 23q0 13 8.5 21.5t22.5 8.5t22.5 -9t8.5 -24q0 -17 -10.5 -53.5t-28.5 -84.5z" />
    <glyph glyph-name="quotedblleft" unicode="&#x201c;" horiz-adv-x="291" 
d="M78 650h29q-18 -46 -27 -79q-5 -17 -7 -31q12 -1 19 -8q9 -9 9 -22q0 -14 -9 -22.5t-22 -8.5q-14 0 -23 9t-9 24q0 18 10.5 54.5t29.5 83.5zM225 650h30q-18 -46 -27 -79q-5 -17 -8 -31q12 -1 20 -8q8 -9 8 -22q0 -14 -8.5 -22.5t-22.5 -8.5q-13 0 -22 9t-9 24
q0 18 10.5 54.5t28.5 83.5z" />
    <glyph glyph-name="quotedblright" unicode="&#x201d;" horiz-adv-x="291" 
d="M66 485h-30q18 46 27 79q5 17 8 31q-12 1 -19 8q-9 9 -9 23q0 13 8.5 21.5t22.5 8.5t22.5 -9t8.5 -24q0 -17 -10.5 -53.5t-28.5 -84.5zM214 485h-30q18 46 27 79q5 17 7 31q-11 1 -19 8q-9 9 -9 23q0 13 9 21.5t22 8.5q14 0 23 -9t9 -24q0 -17 -10.5 -53.5t-28.5 -84.5z
" />
    <glyph glyph-name="quotedblbase" unicode="&#x201e;" horiz-adv-x="298" 
d="M66 -116h-30q18 46 27 79q5 17 8 31q-12 1 -19 8q-9 9 -9 23q0 13 8.5 21.5t22.5 8.5t22.5 -9t8.5 -24q0 -17 -10.5 -53.5t-28.5 -84.5zM214 -116h-30q18 46 27 79q5 17 7 31q-11 1 -19 8q-9 9 -9 23q0 13 9 21.5t22 8.5q14 0 23 -9t9 -24q0 -17 -10.5 -53.5t-28.5 -84.5
z" />
    <glyph glyph-name="dagger" unicode="&#x2020;" horiz-adv-x="433" 
d="M236 -150h-38l1 583l-181 -1v35l181 -1l-1 184h38l-2 -184l181 1v-35l-181 1z" />
    <glyph glyph-name="daggerdbl" unicode="&#x2021;" horiz-adv-x="433" 
d="M236 -150h-38l1 187l-181 -1v35l181 -1v363l-181 -1v35l181 -1l-1 184h38l-2 -184l181 1v-35l-180 1v-363l180 1v-35l-181 1z" />
    <glyph glyph-name="bullet" unicode="&#x2022;" horiz-adv-x="187" 
d="M94 351q21 0 35.5 -14.5t14.5 -35.5t-14.5 -35.5t-35.5 -14.5q-22 0 -36.5 14.5t-14.5 35.5t14.5 35.5t36.5 14.5z" />
    <glyph glyph-name="ellipsis" unicode="&#x2026;" horiz-adv-x="529" 
d="M76 -6q-13 0 -22 8.5t-9 22.5q0 13 9 21.5t22 8.5q14 0 23 -8.5t9 -21.5q0 -14 -9 -22.5t-23 -8.5zM264 -6q-13 0 -22 8.5t-9 22.5q0 13 9 21.5t22 8.5q14 0 22.5 -8.5t8.5 -21.5q0 -14 -8.5 -22.5t-22.5 -8.5zM453 -6q-14 0 -23 8.5t-9 22.5q0 13 9 21.5t23 8.5
q13 0 22 -8.5t9 -21.5q0 -14 -9 -22.5t-22 -8.5z" />
    <glyph glyph-name="perthousand" unicode="&#x2030;" horiz-adv-x="1098" 
d="M180 369q-40 0 -73 19.5t-52.5 52.5t-19.5 73q0 39 19.5 72t52.5 52.5t73 19.5t72.5 -19.5t52 -52.5t19.5 -72q0 -40 -19.5 -73t-52 -52.5t-72.5 -19.5zM177 0l348 650h41l-348 -650h-41zM180 627q-30 0 -56 -15.5t-41 -41t-15 -57.5q0 -30 15 -56t41 -41.5t56 -15.5
t55 15.5t40.5 41.5t15.5 56q0 32 -15.5 57.5t-40.5 41t-55 15.5zM918 -8q-40 0 -72.5 19.5t-52 52.5t-19.5 73t19.5 73t52 52t72.5 19t72.5 -19t52.5 -52t20 -73t-20 -73t-52.5 -52.5t-72.5 -19.5zM563 -8q-40 0 -73 19.5t-52.5 52.5t-19.5 73t19.5 73t52.5 52t73 19
t72.5 -19t52 -52t19.5 -73t-19.5 -73t-52 -52.5t-72.5 -19.5zM918 250q-30 0 -55.5 -15.5t-40.5 -41t-15 -56.5t15 -57t40.5 -41.5t55.5 -15.5q31 0 56 15.5t40 41.5t15 57t-15 56.5t-40 41t-56 15.5zM563 250q-31 0 -56 -15.5t-40.5 -41t-15.5 -56.5t15.5 -57t40.5 -41.5
t56 -15.5q30 0 55.5 15.5t40.5 41.5t15 57t-15 56.5t-40.5 41t-55.5 15.5z" />
    <glyph glyph-name="guilsinglleft" unicode="&#x2039;" horiz-adv-x="229" 
d="M159 49l-134 196l134 196h39l-131 -195l132 -197h-40z" />
    <glyph glyph-name="guilsinglright" unicode="&#x203a;" horiz-adv-x="229" 
d="M31 49l132 195l-133 197h41l133 -196l-133 -196h-40z" />
    <glyph glyph-name="fraction" unicode="&#x2044;" horiz-adv-x="251" 
d="M-68 0l348 650h39l-347 -650h-40z" />
    <glyph glyph-name="uni2070" unicode="&#x2070;" horiz-adv-x="445" 
d="M223 263q-56 0 -101 26t-72 70.5t-27 99.5t27 99.5t72 70.5t101 26t101 -26t71.5 -70.5t26.5 -99.5t-26.5 -99.5t-71.5 -70.5t-101 -26zM223 297q45 0 82 21.5t59 59t22 81.5q0 45 -22 81.5t-59 58.5t-82 22t-82 -22t-59.5 -59t-22.5 -81t22.5 -81t59.5 -59t82 -22z" />
    <glyph glyph-name="uni2074" unicode="&#x2074;" horiz-adv-x="328" 
d="M277 268h-35v51q0 32 -14.5 50t-36.5 27t-47.5 17.5t-47.5 21.5t-36.5 38t-14.5 69v108h35v-108q0 -37 13.5 -57t36 -30t47 -18t46.5 -20q10 -6 19 -14v152h35v-287z" />
    <glyph glyph-name="uni2075" unicode="&#x2075;" horiz-adv-x="324" 
d="M168 263q-38 0 -68.5 16.5t-48.5 45t-18 65.5h35q0 -39 28.5 -67t71.5 -28q41 0 67 26.5t26 64.5q0 35 -24.5 58.5t-67.5 31.5l-115 20l33 154h170v-33h-144l-19 -94l80 -15q59 -9 90.5 -41.5t31.5 -80.5q0 -35 -16.5 -63t-45.5 -44t-66 -16z" />
    <glyph glyph-name="uni2076" unicode="&#x2076;" horiz-adv-x="330" 
d="M167 263q-39 0 -70 18t-50 48t-19 67q0 33 13.5 60t33 50.5t40 46t35.5 46t18 51.5h35q-3 -30 -17 -53.5t-32.5 -44t-36.5 -42.5q27 14 56 14q4 0 23.5 -1.5t47.5 -18t45.5 -44.5t17.5 -64q0 -37 -18.5 -67t-50.5 -48t-71 -18zM167 295q29 0 53 13.5t38 37t14 50.5
q0 28 -14 50.5t-37.5 36.5t-53.5 14q-28 0 -51.5 -14t-38 -36.5t-14.5 -50.5q0 -27 14 -50.5t38 -37t52 -13.5z" />
    <glyph glyph-name="uni2077" unicode="&#x2077;" horiz-adv-x="284" 
d="M146 268h-36q4 53 11 98t20 87.5t33 88.5q16 35 35 75h-194v33h245q-29 -58 -49.5 -105t-33.5 -89.5t-20 -87.5t-11 -100z" />
    <glyph glyph-name="uni2078" unicode="&#x2078;" horiz-adv-x="324" 
d="M161 263q-38 0 -69.5 16.5t-50 44t-18.5 60.5q0 34 18 61.5t49 43.5q10 5 21 9q-10 5 -19 14q-26 25 -26 58q0 35 26 60t69 25q44 0 70.5 -25t26.5 -60q0 -33 -26 -58q-9 -9 -20 -14q11 -4 21 -9q32 -16 50 -43.5t18 -61.5q0 -33 -19 -60.5t-50 -44t-71 -16.5zM161 627
q-28 0 -45.5 -16.5t-17.5 -41.5q0 -23 17.5 -40.5t45.5 -17.5q29 0 47 17.5t18 40.5q0 25 -17.5 41.5t-47.5 16.5zM161 295q44 0 74 27t30 63q0 41 -29.5 67t-74.5 26q-44 0 -73 -26t-29 -67q0 -36 29.5 -63t72.5 -27z" />
    <glyph glyph-name="uni2079" unicode="&#x2079;" horiz-adv-x="330" 
d="M157 655q39 0 70 -18t50 -47.5t19 -67.5q0 -33 -13.5 -60t-33 -50.5t-40 -46t-35.5 -46t-18 -51.5h-35q4 31 17.5 54.5t32 44t36.5 41.5q-27 -14 -56 -14q-4 0 -23.5 1.5t-47.5 18t-45.5 44.5t-17.5 64q0 38 18.5 67.5t50.5 47.5t71 18zM157 623q-29 0 -53 -13.5t-38 -36
t-14 -51.5q0 -27 14 -50t37.5 -37t53.5 -14q28 0 51.5 14t38 37t14.5 50q0 29 -14 51.5t-37.5 36t-52.5 13.5z" />
    <glyph glyph-name="uni2080" unicode="&#x2080;" horiz-adv-x="445" 
d="M223 -4q-56 0 -101 26t-72 70.5t-27 99.5t27 99.5t72 70.5t101 26t101 -26t71.5 -70.5t26.5 -99.5t-26.5 -99.5t-71.5 -70.5t-101 -26zM223 30q45 0 82 21.5t59 59t22 81.5q0 45 -22 81.5t-59 58.5t-82 22t-82 -22t-59.5 -59t-22.5 -81t22.5 -81t59.5 -59t82 -22z" />
    <glyph glyph-name="uni2081" unicode="&#x2081;" horiz-adv-x="210" 
d="M10 337q37 6 73.5 19t61.5 34v-390h-35v332q-12 -7 -27 -12q-36 -12 -73 -17v34z" />
    <glyph glyph-name="uni2082" unicode="&#x2082;" horiz-adv-x="318" 
d="M158 387q35 0 62 -15t43.5 -40.5t16.5 -57.5q0 -27 -11.5 -50.5t-41.5 -55.5l-123 -135h184v-33h-258l164 179q30 32 40.5 52.5t10.5 42.5q0 34 -25.5 57.5t-61.5 23.5q-35 0 -61 -23.5t-26 -57.5q0 -39 32 -69l-22 -24q-44 40 -44 93q0 32 16 57.5t44 40.5t61 15z" />
    <glyph glyph-name="uni2083" unicode="&#x2083;" horiz-adv-x="321" 
d="M161 -5q-39 0 -70 18t-49.5 48.5t-18.5 68.5h35q0 -29 14 -52.5t37 -37t52 -13.5q44 0 73 28.5t29 69.5q0 26 -13.5 46.5t-37 33t-53.5 12.5h-12v33h12q27 0 51 -8q20 23 20 50q0 26 -20.5 44.5t-51.5 18.5q-29 0 -50 -19t-21 -46h-35q0 40 30.5 68.5t75.5 28.5
q46 0 76.5 -27t30.5 -67q0 -20 -10 -40q-7 -13 -17 -24q26 -16 42 -40q18 -29 18 -64q0 -37 -18 -66.5t-49 -46.5t-70 -17z" />
    <glyph glyph-name="uni2084" unicode="&#x2084;" horiz-adv-x="328" 
d="M277 0h-35v51q0 32 -14.5 50t-36.5 27t-47.5 17.5t-47.5 21.5t-36.5 38t-14.5 69v108h35v-108q0 -37 13.5 -57t36 -30t47 -18t46.5 -20q10 -6 19 -14v152h35v-287z" />
    <glyph glyph-name="uni2085" unicode="&#x2085;" horiz-adv-x="324" 
d="M168 -5q-38 0 -68.5 16.5t-48.5 45t-18 65.5h35q0 -39 28.5 -67t71.5 -28q41 0 67 26.5t26 64.5q0 35 -24.5 58.5t-67.5 31.5l-115 20l33 154h170v-33h-144l-19 -94l80 -15q59 -9 90.5 -41.5t31.5 -80.5q0 -35 -16.5 -63t-45.5 -44t-66 -16z" />
    <glyph glyph-name="uni2086" unicode="&#x2086;" horiz-adv-x="330" 
d="M167 -5q-39 0 -70 18t-50 48t-19 67q0 33 13.5 60t33 50.5t40 46t35.5 46t18 51.5h35q-3 -30 -17 -53.5t-32.5 -44t-36.5 -42.5q27 14 56 14q4 0 23.5 -1.5t47.5 -18t45.5 -44.5t17.5 -64q0 -37 -18.5 -67t-50.5 -48t-71 -18zM167 27q29 0 53 13.5t38 37t14 50.5
q0 28 -14 50.5t-37.5 36.5t-53.5 14q-28 0 -51.5 -14t-38 -36.5t-14.5 -50.5q0 -27 14 -50.5t38 -37t52 -13.5z" />
    <glyph glyph-name="uni2087" unicode="&#x2087;" horiz-adv-x="284" 
d="M146 0h-36q4 53 11 98t20 87.5t33 88.5q16 35 35 75h-194v33h245q-29 -58 -49.5 -105t-33.5 -89.5t-20 -87.5t-11 -100z" />
    <glyph glyph-name="uni2088" unicode="&#x2088;" horiz-adv-x="324" 
d="M161 -5q-38 0 -69.5 16.5t-50 44t-18.5 60.5q0 34 18 61.5t49 43.5q10 5 21 9q-10 5 -19 14q-26 25 -26 58q0 35 26 60t69 25q44 0 70.5 -25t26.5 -60q0 -33 -26 -58q-9 -9 -20 -14q11 -4 21 -9q32 -16 50 -43.5t18 -61.5q0 -33 -19 -60.5t-50 -44t-71 -16.5zM161 359
q-28 0 -45.5 -16.5t-17.5 -41.5q0 -23 17.5 -40.5t45.5 -17.5q29 0 47 17.5t18 40.5q0 25 -17.5 41.5t-47.5 16.5zM161 27q44 0 74 27t30 63q0 41 -29.5 67t-74.5 26q-44 0 -73 -26t-29 -67q0 -36 29.5 -63t72.5 -27z" />
    <glyph glyph-name="uni2089" unicode="&#x2089;" horiz-adv-x="330" 
d="M163 387q39 0 70.5 -18t50 -47.5t18.5 -67.5q0 -33 -13 -60t-32.5 -50.5t-40.5 -46t-35.5 -46t-17.5 -51.5h-35q3 31 16.5 54.5t32.5 44t37 41.5q-28 -14 -56 -14q-5 0 -24 1.5t-47.5 18t-46 44.5t-17.5 64q0 38 19 67.5t51 47.5t70 18zM163 355q-28 0 -52 -13.5
t-38.5 -36t-14.5 -51.5q0 -27 14.5 -50t38 -37t52.5 -14q28 0 52 14t38 37t14 50q0 29 -13.5 51.5t-37 36t-53.5 13.5z" />
    <glyph glyph-name="Euro" unicode="&#x20ac;" horiz-adv-x="498" 
d="M388 388h-254q-7 -30 -7 -63t7 -63h254v-33h-245l6 -16q22 -52 60.5 -92.5t89.5 -62.5t109 -22h57v-36h-57q-66 0 -124 25.5t-102 70t-69 103.5q-6 15 -10 30h-95v33h86q-5 30 -5 63t5 63h-86v34h94q5 15 11 30q25 58 69 103t102 70t124 25h57v-35h-57q-58 0 -109 -22.5
t-89.5 -63t-60.5 -92.5q-3 -8 -6 -15h245v-34z" />
    <glyph glyph-name="uni20B9" unicode="&#x20b9;" horiz-adv-x="423" 
d="M414 434h-93q-4 -48 -28 -87q-27 -45 -80 -70q-43 -21 -103 -25l251 -252h-51l-252 252v34h28q96 0 147 45q45 40 50 103h-225v34h225q-6 62 -50 102q-51 46 -147 46h-28v34h356v-34h-194q35 -17 59 -45q37 -44 41 -103h94v-34z" />
    <glyph glyph-name="uni2116" unicode="&#x2116;" horiz-adv-x="864" 
d="M703 401q-35 0 -64 17t-46.5 46t-17.5 64t17.5 64t46.5 46t64 17q36 0 65 -17t46 -46t17 -64t-17 -64t-46 -46t-65 -17zM82 0v650h36q52 -133 136 -252q80 -113 191 -212v464h38v-650h-38v136q-78 71 -140 140q-64 73 -112 149q-41 64 -74 135v-560h-37zM703 432
q40 0 67.5 28t27.5 68q0 41 -27.5 68.5t-67.5 27.5q-25 0 -47 -13t-35 -34.5t-13 -48.5t13 -48.5t35 -34.5t47 -13zM584 266v33h238v-33h-238z" />
    <glyph glyph-name="trademark" unicode="&#x2122;" horiz-adv-x="745" 
d="M255 620h-104v-352h-34v352h-104v30h242v-30zM312 650h24q69 0 116 -37q32 -25 45 -60q13 35 45 60q46 37 115 37h25v-382h-33v351q-63 -1 -99 -37q-37 -37 -37 -99v-82h-32v82q0 62 -37 99q-36 36 -99 37v-351h-33v382z" />
    <glyph glyph-name="estimated" unicode="&#x212e;" horiz-adv-x="725" 
d="M669 257h-496q-4 0 -4 -3v-150q0 -11 7 -18q36 -36 84.5 -58t103.5 -22q60 0 110.5 24.5t86.5 65.5h44q-41 -48 -104.5 -77.5t-137.5 -29.5q-63 0 -118.5 21.5t-97.5 59t-66 87.5t-24 107t24 107.5t66 88.5t97.5 59.5t118.5 21.5t118.5 -21.5t97.5 -59.5t66 -88.5
t24 -107.5v-7zM557 276v151q0 11 -8 19q-35 36 -82.5 57t-102.5 21t-102.5 -22t-84.5 -59q-8 -8 -8 -19v-148q0 -4 4 -4h381q3 0 3 4z" />
    <glyph glyph-name="uni2150" unicode="&#x2150;" horiz-adv-x="705" 
d="M10 605q37 6 73.5 19t61.5 34v-390h-35v332q-12 -7 -27 -12q-36 -12 -73 -17v34zM117 0l347 650h40l-347 -650h-40zM567 0h-35q3 53 10.5 98t20.5 87.5t33 88.5q15 35 35 75h-194v33h245q-30 -58 -50.5 -105t-33 -89.5t-20 -87.5t-11.5 -100z" />
    <glyph glyph-name="uni2151" unicode="&#x2151;" horiz-adv-x="732" 
d="M10 605q37 6 73.5 19t61.5 34v-390h-35v332q-12 -7 -27 -12q-36 -12 -73 -17v34zM117 0l347 650h40l-347 -650h-40zM565 387q38 0 69.5 -18t50 -47.5t18.5 -67.5q0 -33 -13 -60t-32.5 -50.5t-40 -46t-35.5 -46t-18 -51.5h-35q3 31 17 54.5t32.5 44t36.5 41.5
q-27 -14 -56 -14q-4 0 -23.5 1.5t-48 18t-45.5 44.5t-17 64q0 38 18.5 67.5t50.5 47.5t71 18zM565 355q-29 0 -53 -13.5t-38.5 -36t-14.5 -51.5q0 -27 14.5 -50t38.5 -37t53 -14q28 0 51.5 14t38 37t14.5 50q0 29 -14 51.5t-37.5 36t-52.5 13.5z" />
    <glyph glyph-name="onethird" unicode="&#x2153;" horiz-adv-x="700" 
d="M10 605q37 6 73.5 19t61.5 34v-390h-35v332q-12 -7 -27 -12q-36 -12 -73 -17v34zM117 0l347 650h40l-347 -650h-40zM540 -5q-38 0 -69.5 18t-50 48.5t-18.5 68.5h35q0 -29 14 -52.5t37 -37t52 -13.5q44 0 73 28.5t29 69.5q0 26 -13.5 46.5t-37 33t-53.5 12.5h-12v33h12
q28 0 51 -8q20 23 20 50q0 26 -20.5 44.5t-51.5 18.5q-29 0 -50 -19t-21 -46h-35q0 40 30.5 68.5t75.5 28.5q46 0 76.5 -27t30.5 -67q0 -20 -10 -40q-7 -13 -17 -24q26 -16 42 -40q18 -29 18 -64q0 -37 -18 -66.5t-49 -46.5t-70 -17z" />
    <glyph glyph-name="twothirds" unicode="&#x2154;" horiz-adv-x="816" 
d="M158 655q35 0 62 -15.5t43.5 -40.5t16.5 -57q0 -27 -11.5 -50.5t-41.5 -55.5l-123 -135h184v-33h-258l164 179q30 32 40.5 52.5t10.5 42.5q0 34 -25.5 57.5t-61.5 23.5q-35 0 -61 -23.5t-26 -57.5q0 -39 32 -69l-22 -24q-44 40 -44 93q0 32 16 57t44 40.5t61 15.5zM232 0
l348 650h40l-348 -650h-40zM656 -5q-39 0 -70 18t-49.5 48.5t-18.5 68.5h35q0 -29 13 -52.5t36.5 -37t53.5 -13.5q43 0 72.5 28.5t29.5 69.5q0 26 -14 46.5t-37 33t-53 12.5h-12v33h12q27 0 50 -8q20 23 21 50q0 26 -21 44.5t-52 18.5q-29 0 -50 -19t-21 -46h-34
q0 40 30 68.5t75 28.5q46 0 76.5 -27t30.5 -67q0 -20 -10 -40q-6 -13 -16 -24q25 -16 41 -40q18 -29 18 -64q0 -37 -18 -66.5t-48.5 -46.5t-69.5 -17z" />
    <glyph glyph-name="uni2155" unicode="&#x2155;" horiz-adv-x="712" 
d="M10 605q37 6 73.5 19t61.5 34v-390h-35v332q-12 -7 -27 -12q-36 -12 -73 -17v34zM118 0l347 650h40l-347 -650h-40zM555 -5q-38 0 -68.5 16.5t-48.5 45t-18 65.5h35q0 -39 28.5 -67t71.5 -28q41 0 67 26.5t26 64.5q0 35 -24.5 58.5t-67.5 31.5l-115 20l33 154h170v-33
h-144l-19 -94l80 -15q59 -9 90.5 -41.5t31.5 -80.5q0 -35 -16.5 -63t-45.5 -44t-66 -16z" />
    <glyph glyph-name="uni2156" unicode="&#x2156;" horiz-adv-x="821" 
d="M158 655q35 0 62 -15.5t43.5 -40.5t16.5 -57q0 -27 -11.5 -50.5t-41.5 -55.5l-123 -135h184v-33h-258l164 179q30 32 40.5 52.5t10.5 42.5q0 34 -25.5 57.5t-61.5 23.5q-35 0 -61 -23.5t-26 -57.5q0 -39 32 -69l-22 -24q-44 40 -44 93q0 32 16 57t44 40.5t61 15.5zM232 0
l348 650h40l-348 -650h-40zM668 -5q-38 0 -68.5 16.5t-48.5 45t-18 65.5h35q0 -39 28.5 -67t71.5 -28q40 0 66 26.5t26 64.5q0 35 -24 58.5t-68 31.5l-114 20l33 154h169v-33h-143l-19 -94l80 -15q59 -9 90.5 -41.5t31.5 -80.5q0 -35 -16.5 -63t-45.5 -44t-66 -16z" />
    <glyph glyph-name="uni2157" unicode="&#x2157;" horiz-adv-x="805" 
d="M161 263q-39 0 -70 18t-49.5 48.5t-18.5 68.5h35q0 -29 14 -52.5t37 -37t52 -13.5q44 0 73 28.5t29 69.5q0 26 -13.5 46.5t-37 33t-53.5 12.5h-12v33h12q27 0 51 -8q20 23 20 50q0 26 -20.5 44.5t-51.5 18.5q-29 0 -50 -19t-21 -46h-35q0 40 30.5 68.5t75.5 28.5
q46 0 76.5 -27t30.5 -67q0 -20 -10 -40q-7 -13 -17 -24q26 -16 42 -40q18 -29 18 -64q0 -37 -18 -66.5t-49 -46.5t-70 -17zM215 0l347 650h40l-347 -650h-40zM652 -5q-38 0 -68.5 16.5t-48.5 45t-18 65.5h35q0 -39 28.5 -67t71.5 -28q41 0 67 26.5t26 64.5q0 35 -24.5 58.5
t-67.5 31.5l-115 20l33 154h170v-33h-144l-19 -94l80 -15q59 -9 90.5 -41.5t31.5 -80.5q0 -35 -16.5 -63t-45.5 -44t-66 -16z" />
    <glyph glyph-name="uni2158" unicode="&#x2158;" horiz-adv-x="827" 
d="M277 268h-35v51q0 32 -14.5 50t-36.5 27t-47.5 17.5t-47.5 21.5t-36.5 38t-14.5 69v108h35v-108q0 -37 13.5 -57t36 -30t47 -18t46.5 -20q10 -6 19 -14v152h35v-287zM234 0l347 650h40l-347 -650h-40zM671 -5q-38 0 -68.5 16.5t-48.5 45t-18 65.5h35q0 -39 28.5 -67
t71.5 -28q41 0 67 26.5t26 64.5q0 35 -24.5 58.5t-67.5 31.5l-115 20l33 154h170v-33h-144l-19 -94l80 -15q59 -9 90.5 -41.5t31.5 -80.5q0 -35 -16.5 -63t-45.5 -44t-66 -16z" />
    <glyph glyph-name="uni2159" unicode="&#x2159;" horiz-adv-x="685" 
d="M10 605q37 6 73.5 19t61.5 34v-390h-35v332q-12 -7 -27 -12q-36 -12 -73 -17v34zM117 0l348 650h40l-348 -650h-40zM522 -5q-38 0 -69.5 18t-50.5 48t-19 67q0 33 13 60t33 50.5t40.5 46t35 46t17.5 51.5h36q-3 -30 -17 -53.5t-32.5 -44t-37.5 -42.5q28 14 56 14
q5 0 24 -1.5t47.5 -18t46 -44.5t17.5 -64q0 -37 -19 -67t-50.5 -48t-70.5 -18zM522 27q29 0 53 13.5t38 37t14 50.5q0 28 -14 50.5t-38 36.5t-53 14q-28 0 -51.5 -14t-38 -36.5t-14.5 -50.5q0 -27 14 -50.5t38 -37t52 -13.5z" />
    <glyph glyph-name="uni215A" unicode="&#x215a;" horiz-adv-x="784" 
d="M168 263q-38 0 -68.5 16.5t-48.5 45t-18 65.5h35q0 -39 28.5 -67t71.5 -28q41 0 67 26.5t26 64.5q0 35 -24.5 58.5t-67.5 31.5l-115 20l33 154h170v-33h-144l-19 -94l80 -15q59 -9 90.5 -41.5t31.5 -80.5q0 -35 -16.5 -63t-45.5 -44t-66 -16zM216 0l347 650h40l-348 -650
h-39zM620 -5q-38 0 -69.5 18t-50 48t-18.5 67q0 33 13 60t32.5 50.5t40.5 46t35.5 46t17.5 51.5h35q-3 -30 -17 -53.5t-32.5 -44t-36.5 -42.5q28 14 56 14q5 0 24 -1.5t47.5 -18t45.5 -44.5t17 -64q0 -37 -18.5 -67t-50.5 -48t-71 -18zM620 27q29 0 53 13.5t38.5 37
t14.5 50.5q0 28 -14.5 50.5t-38 36.5t-53.5 14q-28 0 -51.5 -14t-38 -36.5t-14.5 -50.5q0 -27 14 -50.5t38 -37t52 -13.5z" />
    <glyph glyph-name="oneeighth" unicode="&#x215b;" horiz-adv-x="697" 
d="M10 605q37 6 73.5 19t61.5 34v-390h-35v332q-12 -7 -27 -12q-36 -12 -73 -17v34zM117 0l347 650h40l-347 -650h-40zM535 -5q-39 0 -70.5 16t-49.5 44t-18 61q0 34 17.5 61t49.5 44q10 5 21 8q-11 6 -19 14q-27 26 -27 58q0 36 26.5 61t69.5 25q44 0 70.5 -25t26.5 -61
q0 -32 -27 -58q-9 -8 -19 -14q11 -3 21 -8q31 -17 49 -44t18 -61q0 -33 -18.5 -60.5t-50 -44t-70.5 -16.5zM535 358q-29 0 -46.5 -16.5t-17.5 -41.5q0 -22 17.5 -40t46.5 -18t47 18t18 40q0 25 -18 41.5t-47 16.5zM535 27q44 0 73.5 26.5t29.5 63.5q0 40 -29 66.5t-74 26.5
q-44 0 -73 -26.5t-29 -66.5q0 -37 29.5 -63.5t72.5 -26.5z" />
    <glyph glyph-name="threeeighths" unicode="&#x215c;" horiz-adv-x="795" 
d="M161 263q-39 0 -70 18t-49.5 48.5t-18.5 68.5h35q0 -29 14 -52.5t37 -37t52 -13.5q44 0 73 28.5t29 69.5q0 26 -13.5 46.5t-37 33t-53.5 12.5h-12v33h12q27 0 51 -8q20 23 20 50q0 26 -20.5 44.5t-51.5 18.5q-29 0 -50 -19t-21 -46h-35q0 40 30.5 68.5t75.5 28.5
q46 0 76.5 -27t30.5 -67q0 -20 -10 -40q-7 -13 -17 -24q26 -16 42 -40q18 -29 18 -64q0 -37 -18 -66.5t-49 -46.5t-70 -17zM215 0l347 650h40l-347 -650h-40zM633 -5q-39 0 -70.5 16.5t-49.5 44t-18 60.5q0 34 17.5 61.5t49.5 43.5q10 5 21 9q-11 5 -20 14q-26 25 -26 58
q0 35 26.5 60t69.5 25t70 -25t27 -60q0 -33 -27 -58q-9 -9 -19 -14q11 -4 21 -9q31 -16 49 -43.5t18 -61.5q0 -33 -18.5 -60.5t-50 -44t-70.5 -16.5zM633 359q-29 0 -46.5 -16.5t-17.5 -41.5q0 -23 17.5 -40.5t46.5 -17.5t47 17.5t18 40.5q0 25 -18 41.5t-47 16.5zM633 27
q44 0 73.5 27t29.5 63q0 41 -29 67t-74 26q-44 0 -73 -26t-29 -67q0 -36 29.5 -63t72.5 -27z" />
    <glyph glyph-name="fiveeighths" unicode="&#x215d;" horiz-adv-x="796" 
d="M168 263q-38 0 -68.5 16.5t-48.5 45t-18 65.5h35q0 -39 28.5 -67t71.5 -28q41 0 67 26.5t26 64.5q0 35 -24.5 58.5t-67.5 31.5l-115 20l33 154h170v-33h-144l-19 -94l80 -15q59 -9 90.5 -41.5t31.5 -80.5q0 -35 -16.5 -63t-45.5 -44t-66 -16zM216 0l347 650h40l-348 -650
h-39zM634 -5q-39 0 -70.5 16.5t-49.5 44t-18 60.5q0 34 17.5 61.5t49.5 43.5q10 5 21 9q-11 5 -20 14q-26 25 -26 58q0 35 26.5 60t69.5 25t70 -25t27 -60q0 -33 -27 -58q-9 -9 -19 -14q11 -4 21 -9q31 -16 49 -43.5t18 -61.5q0 -33 -18.5 -60.5t-50 -44t-70.5 -16.5z
M634 359q-29 0 -46.5 -16.5t-17.5 -41.5q0 -23 17.5 -40.5t46.5 -17.5t47 17.5t18 40.5q0 25 -18 41.5t-47 16.5zM634 27q44 0 73.5 27t29.5 63q0 41 -29 67t-74 26q-44 0 -73 -26t-29 -67q0 -36 29.5 -63t72.5 -27z" />
    <glyph glyph-name="seveneighths" unicode="&#x215e;" horiz-adv-x="706" 
d="M146 268h-36q4 53 11 98t20 87.5t33 88.5q16 35 35 75h-194v33h245q-29 -58 -49.5 -105t-33.5 -89.5t-20 -87.5t-11 -100zM125 0l348 650h40l-348 -650h-40zM544 -5q-39 0 -70.5 16.5t-50 44t-18.5 60.5q0 34 18 61.5t49 43.5q10 5 21 9q-10 5 -19 14q-26 25 -26 58
q0 35 26 60t70 25q43 0 69.5 -25t26.5 -60q0 -33 -26 -58q-9 -9 -20 -14q11 -4 21 -9q32 -16 50 -43.5t18 -61.5q0 -33 -19 -60.5t-50 -44t-70 -16.5zM544 359q-29 0 -46.5 -16.5t-17.5 -41.5q0 -23 17.5 -40.5t46.5 -17.5q28 0 46 17.5t18 40.5q0 25 -17.5 41.5t-46.5 16.5
zM544 27q43 0 73 27t30 63q0 41 -29.5 67t-73.5 26q-45 0 -74 -26t-29 -67q0 -36 29.5 -63t73.5 -27z" />
    <glyph glyph-name="arrowleft" unicode="&#x2190;" horiz-adv-x="614" 
d="M192 25l-168 209l168 208h39l-152 -192l500 1v-35l-499 1l151 -192h-39z" />
    <glyph glyph-name="arrowup" unicode="&#x2191;" horiz-adv-x="486" 
d="M34 387l209 167l208 -167v-39l-191 152l1 -500h-36l1 500l-192 -152v39z" />
    <glyph glyph-name="arrowright" unicode="&#x2192;" horiz-adv-x="614" 
d="M422 442l167 -208l-167 -209h-40l153 192l-501 -1v35l500 -1l-152 192h40z" />
    <glyph glyph-name="arrowdown" unicode="&#x2193;" horiz-adv-x="486" 
d="M34 81v38l192 -152l-1 500h36l-1 -500l191 152v-38l-208 -167z" />
    <glyph glyph-name="arrowboth" unicode="&#x2194;" horiz-adv-x="628" 
d="M79 217l152 -192h-39l-168 209l168 208h39l-152 -192l235 1l235 -1l-152 192h40l166 -208l-166 -209h-40l152 192h-470z" />
    <glyph glyph-name="arrowupdn" unicode="&#x2195;" horiz-adv-x="486" 
d="M34 354l209 167l208 -167v-38l-191 151l1 -233l-1 -233l191 152v-39l-208 -167l-209 167v39l192 -152l-1 233l1 234l-192 -152v38z" />
    <glyph glyph-name="uni2196" unicode="&#x2196;" horiz-adv-x="545" 
d="M57 169v298h282l29 -30l-256 1l397 -414l-26 -25l-397 415l2 -277z" />
    <glyph glyph-name="uni2197" unicode="&#x2197;" horiz-adv-x="545" 
d="M489 169l-31 -32l1 277l-397 -415l-25 25l396 414l-255 -1l29 30h282v-298z" />
    <glyph glyph-name="uni2198" unicode="&#x2198;" horiz-adv-x="545" 
d="M489 298v-298h-282l-29 30l255 -1l-396 414l25 25l397 -415l-1 277z" />
    <glyph glyph-name="uni2199" unicode="&#x2199;" horiz-adv-x="545" 
d="M57 298l31 32l-2 -277l397 415l26 -25l-397 -414l256 1l-29 -30h-282v298z" />
    <glyph glyph-name="minus" unicode="&#x2212;" horiz-adv-x="460" 
d="M47 336h367v-32h-367v32z" />
    <glyph glyph-name="uni2215" unicode="&#x2215;" horiz-adv-x="251" 
d="M-68 0l348 650h39l-347 -650h-40z" />
    <glyph glyph-name="approxequal" unicode="&#x2248;" horiz-adv-x="460" 
d="M329 426q45 0 85 20v-32q-19 -9 -40.5 -14.5t-44.5 -5.5q-35 0 -68.5 10t-65 20t-64.5 10q-23 0 -44 -5t-40 -15v32q19 10 40 15t44 5q36 0 69 -10t65 -20t64 -10zM329 205q45 0 85 20v-31q-19 -10 -40.5 -15t-44.5 -5q-35 0 -68.5 10t-65 20t-64.5 10q-23 0 -44 -5.5
t-40 -14.5v31q19 10 40 15t44 5q36 0 69 -10t65 -20t64 -10z" />
    <glyph glyph-name="notequal" unicode="&#x2260;" horiz-adv-x="460" 
d="M305 555h33l-42 -109h118v-32h-130l-72 -189h202v-31h-215l-41 -109h-34l42 109h-119v31h131l73 189h-204v32l216 -1z" />
    <glyph glyph-name="lessequal" unicode="&#x2264;" horiz-adv-x="460" 
d="M53 303v39l344 168v-37l-312 -150l312 -147v-37zM53 30h344v-30h-344v30z" />
    <glyph glyph-name="greaterequal" unicode="&#x2265;" horiz-adv-x="460" 
d="M63 139v37l312 150l-312 147v37l344 -164v-40zM63 0v30h344v-30h-344z" />
    <glyph glyph-name="uni2780" unicode="&#x2780;" horiz-adv-x="823" 
d="M412 -42q-78 0 -145 28.5t-118 79t-79.5 117t-28.5 142.5t28.5 142.5t79.5 117t118 79t145 28.5q77 0 144 -28.5t118 -79t80 -117t29 -142.5t-29 -142.5t-80 -117t-118 -79t-144 -28.5zM412 658q-69 0 -130 -26t-107 -72t-71.5 -106t-25.5 -129t25.5 -129t71.5 -106
t107 -72t130 -26q70 0 130 26t106 72t72 106t26 129t-26 129t-72 106t-106 72t-130 26zM448 524v-390h-34v333q-18 -10 -44 -18t-57 -12v34q43 6 77.5 20t57.5 33z" />
    <glyph glyph-name="uni2781" unicode="&#x2781;" horiz-adv-x="823" 
d="M412 -42q-78 0 -145 28.5t-118 79t-79.5 117t-28.5 142.5t28.5 142.5t79.5 117t118 79t145 28.5q77 0 144 -28.5t118 -79t80 -117t29 -142.5t-29 -142.5t-80 -117t-118 -79t-144 -28.5zM412 658q-69 0 -130 -26t-107 -72t-71.5 -106t-25.5 -129t25.5 -129t71.5 -106
t107 -72t130 -26q70 0 130 26t106 72t72 106t26 129t-26 129t-72 106t-106 72t-130 26zM540 167v-33h-258l164 179q30 32 40.5 52.5t10.5 42.5q0 34 -25.5 57.5t-61.5 23.5t-61.5 -23.5t-25.5 -57.5q0 -39 31 -69l-21 -24q-44 40 -44 93q0 32 16 57.5t44 40.5t61 15
q34 0 61.5 -15t43.5 -40.5t16 -57.5q0 -27 -11.5 -50.5t-40.5 -55.5l-125 -135h186z" />
    <glyph glyph-name="uni2782" unicode="&#x2782;" horiz-adv-x="823" 
d="M412 -42q-78 0 -145 28.5t-118 79t-79.5 117t-28.5 142.5t28.5 142.5t79.5 117t118 79t145 28.5q77 0 144 -28.5t118 -79t80 -117t29 -142.5t-29 -142.5t-80 -117t-118 -79t-144 -28.5zM412 658q-69 0 -130 -26t-107 -72t-71.5 -106t-25.5 -129t25.5 -129t71.5 -106
t107 -72t130 -26q70 0 130 26t106 72t72 106t26 129t-26 129t-72 106t-106 72t-130 26zM550 259q0 -37 -18 -66.5t-49 -46.5t-70 -17t-70 18t-49.5 48.5t-18.5 68.5h35q0 -29 14 -52.5t37 -37t52 -13.5q44 0 73 28.5t29 69.5q0 26 -13.5 46.5t-37 33t-53.5 12.5h-12v33h12
q13 0 26 -2.5t23 -6.5q22 24 22 51q0 26 -20.5 44.5t-51.5 18.5q-29 0 -50 -19t-21 -46h-35q0 41 30.5 69t75.5 28t76 -27t31 -67q0 -17 -7.5 -34.5t-19.5 -29.5q29 -17 44.5 -44.5t15.5 -59.5z" />
    <glyph glyph-name="uni2783" unicode="&#x2783;" horiz-adv-x="823" 
d="M412 -42q-78 0 -145 28.5t-118 79t-79.5 117t-28.5 142.5t28.5 142.5t79.5 117t118 79t145 28.5q77 0 144 -28.5t118 -79t80 -117t29 -142.5t-29 -142.5t-80 -117t-118 -79t-144 -28.5zM412 658q-69 0 -130 -26t-107 -72t-71.5 -106t-25.5 -129t25.5 -129t71.5 -106
t107 -72t130 -26q70 0 130 26t106 72t72 106t26 129t-26 129t-72 106t-106 72t-130 26zM514 421v-287h-35v51q0 32 -14.5 50t-36.5 27t-47.5 17.5t-47.5 21.5t-36.5 38t-14.5 69v108h35v-108q0 -34 12 -53t31.5 -29.5t41.5 -18t42.5 -16.5t34.5 -25v155h35z" />
    <glyph glyph-name="uni2784" unicode="&#x2784;" horiz-adv-x="823" 
d="M412 -42q-78 0 -145 28.5t-118 79t-79.5 117t-28.5 142.5t28.5 142.5t79.5 117t118 79t145 28.5q77 0 144 -28.5t118 -79t80 -117t29 -142.5t-29 -142.5t-80 -117t-118 -79t-144 -28.5zM412 658q-69 0 -130 -26t-107 -72t-71.5 -106t-25.5 -129t25.5 -129t71.5 -106
t107 -72t130 -26q70 0 130 26t106 72t72 106t26 129t-26 129t-72 106t-106 72t-130 26zM546 252q0 -35 -16.5 -62.5t-45.5 -44t-66 -16.5q-38 0 -68.5 17t-48.5 45.5t-18 64.5h35q0 -39 28.5 -66.5t71.5 -27.5q41 0 67 26t26 65q0 35 -24.5 58t-67.5 31l-115 20l33 154h170
v-33h-143l-20 -94l80 -14q59 -10 90.5 -42t31.5 -81z" />
    <glyph glyph-name="uni2785" unicode="&#x2785;" horiz-adv-x="823" 
d="M412 -42q-78 0 -145 28.5t-118 79t-79.5 117t-28.5 142.5t28.5 142.5t79.5 117t118 79t145 28.5q77 0 144 -28.5t118 -79t80 -117t29 -142.5t-29 -142.5t-80 -117t-118 -79t-144 -28.5zM412 658q-69 0 -130 -26t-107 -72t-71.5 -106t-25.5 -129t25.5 -129t71.5 -106
t107 -72t130 -26q70 0 130 26t106 72t72 106t26 129t-26 129t-72 106t-106 72t-130 26zM411 129q-39 0 -70.5 18t-50 48t-18.5 67q0 33 13 60t32.5 50.5t40.5 46t35.5 46t17.5 51.5h35q-3 -30 -17 -53.5t-32.5 -44t-36.5 -42.5q28 14 56 14q5 0 24 -1.5t47.5 -18t46 -44.5
t17.5 -64q0 -37 -19 -67t-51 -48t-70 -18zM410 161q29 0 53 13.5t38.5 37t14.5 50.5q0 28 -14.5 50.5t-38 36.5t-53.5 14q-27 0 -51 -14t-38.5 -36.5t-14.5 -50.5q0 -27 14 -50.5t38 -37t52 -13.5z" />
    <glyph glyph-name="uni2786" unicode="&#x2786;" horiz-adv-x="823" 
d="M412 -42q-78 0 -145 28.5t-118 79t-79.5 117t-28.5 142.5t28.5 142.5t79.5 117t118 79t145 28.5q77 0 144 -28.5t118 -79t80 -117t29 -142.5t-29 -142.5t-80 -117t-118 -79t-144 -28.5zM412 658q-69 0 -130 -26t-107 -72t-71.5 -106t-25.5 -129t25.5 -129t71.5 -106
t107 -72t130 -26q70 0 130 26t106 72t72 106t26 129t-26 129t-72 106t-106 72t-130 26zM533 516q-30 -58 -50.5 -105t-33.5 -89.5t-20 -87.5t-11 -100h-35q4 66 14.5 120t31 108t53.5 121h-195v33h246z" />
    <glyph glyph-name="uni2787" unicode="&#x2787;" horiz-adv-x="823" 
d="M412 -42q-78 0 -145 28.5t-118 79t-79.5 117t-28.5 142.5t28.5 142.5t79.5 117t118 79t145 28.5q77 0 144 -28.5t118 -79t80 -117t29 -142.5t-29 -142.5t-80 -117t-118 -79t-144 -28.5zM412 658q-69 0 -130 -26t-107 -72t-71.5 -106t-25.5 -129t25.5 -129t71.5 -106
t107 -72t130 -26q70 0 130 26t106 72t72 106t26 129t-26 129t-72 106t-106 72t-130 26zM551 250q0 -33 -18.5 -60.5t-50 -44t-70.5 -16.5t-70.5 16.5t-49.5 44t-18 60.5q0 39 24 70.5t65 42.5q-22 12 -34.5 31.5t-12.5 41.5q0 35 26 60t70 25q43 0 70 -25t27 -60
q0 -22 -12.5 -41.5t-35.5 -31.5q41 -11 65.5 -42.5t24.5 -70.5zM412 493q-29 0 -46.5 -16.5t-17.5 -41.5q0 -23 17.5 -40.5t46.5 -17.5t47 17.5t18 40.5q0 25 -18 41.5t-47 16.5zM412 161q44 0 73.5 27t29.5 63q0 41 -29.5 67t-73.5 26q-45 0 -74 -26t-29 -67
q0 -36 29.5 -63t73.5 -27z" />
    <glyph glyph-name="uni2788" unicode="&#x2788;" horiz-adv-x="823" 
d="M412 -42q-78 0 -145 28.5t-118 79t-79.5 117t-28.5 142.5t28.5 142.5t79.5 117t118 79t145 28.5q77 0 144 -28.5t118 -79t80 -117t29 -142.5t-29 -142.5t-80 -117t-118 -79t-144 -28.5zM412 658q-69 0 -130 -26t-107 -71.5t-71.5 -106t-25.5 -129.5t25.5 -129.5
t71.5 -106t107 -71.5t130 -26q70 0 130 26t106 72t72 106t26 129t-26 129t-72 106t-106 72t-130 26zM410 521q39 0 70 -18t50 -47.5t19 -67.5q0 -33 -13 -60t-33 -50.5t-40.5 -46t-35 -46t-17.5 -51.5h-36q4 31 17.5 54.5t32.5 44t37 41.5q-28 -14 -56 -14q-5 0 -24 1.5
t-47.5 18t-46 44.5t-17.5 64q0 38 19 67.5t50.5 47.5t70.5 18zM410 489q-29 0 -53 -13.5t-38 -36t-14 -51.5q0 -27 14 -50t38 -37t53 -14q28 0 51.5 14t38 37t14.5 50q0 29 -14 51.5t-37 36t-53 13.5z" />
    <glyph glyph-name="uni278A" unicode="&#x278a;" horiz-adv-x="823" 
d="M412 -42q-78 0 -145 28.5t-118 79t-79.5 117t-28.5 142.5t28.5 142.5t79.5 117t118 79t145 28.5q77 0 144 -28.5t118 -79t80 -117t29 -142.5t-29 -142.5t-80 -117t-118 -79t-144 -28.5zM448 524q-23 -19 -57.5 -33t-77.5 -20v-34q31 4 57 12t44 18v-333h34v390z" />
    <glyph glyph-name="uni278B" unicode="&#x278b;" horiz-adv-x="823" 
d="M412 -42q-78 0 -145 28.5t-118 79t-79.5 117t-28.5 142.5t28.5 142.5t79.5 117t118 79t145 28.5q77 0 144 -28.5t118 -79t80 -117t29 -142.5t-29 -142.5t-80 -117t-118 -79t-144 -28.5zM540 167h-186l125 135q29 32 40.5 55.5t11.5 50.5q0 32 -16 57.5t-43.5 40.5
t-61.5 15q-33 0 -61 -15t-44 -40.5t-16 -57.5q0 -53 44 -93l21 24q-31 30 -31 69q0 34 25.5 57.5t61.5 23.5t61.5 -23.5t25.5 -57.5q0 -22 -10.5 -42.5t-40.5 -52.5l-164 -179h258v33z" />
    <glyph glyph-name="uni278C" unicode="&#x278c;" horiz-adv-x="823" 
d="M412 -42q-78 0 -145 28.5t-118 79t-79.5 117t-28.5 142.5t28.5 142.5t79.5 117t118 79t145 28.5q77 0 144 -28.5t118 -79t80 -117t29 -142.5t-29 -142.5t-80 -117t-118 -79t-144 -28.5zM550 259q0 32 -15.5 59.5t-44.5 44.5q12 12 19.5 29.5t7.5 34.5q0 40 -31 67t-76 27
t-75.5 -28t-30.5 -69h35q0 27 21 46t50 19q31 0 51.5 -18.5t20.5 -44.5q0 -27 -22 -51q-10 4 -23 6.5t-26 2.5h-12v-33h12q30 0 53.5 -12.5t37 -33t13.5 -46.5q0 -41 -29 -69.5t-73 -28.5q-29 0 -52 13.5t-37 37t-14 52.5h-35q0 -38 18.5 -68.5t49.5 -48.5t70 -18t70 17
t49 46.5t18 66.5z" />
    <glyph glyph-name="uni278D" unicode="&#x278d;" horiz-adv-x="823" 
d="M412 -42q-78 0 -145 28.5t-118 79t-79.5 117t-28.5 142.5t28.5 142.5t79.5 117t118 79t145 28.5q77 0 144 -28.5t118 -79t80 -117t29 -142.5t-29 -142.5t-80 -117t-118 -79t-144 -28.5zM514 421h-35v-155q-14 16 -34.5 25t-42.5 16.5t-41.5 18t-31.5 29.5t-12 53v108h-35
v-108q0 -44 14.5 -69t36.5 -38t47.5 -21.5t47.5 -17.5t36.5 -27t14.5 -50v-51h35v287z" />
    <glyph glyph-name="uni278E" unicode="&#x278e;" horiz-adv-x="823" 
d="M412 -42q-78 0 -145 28.5t-118 79t-79.5 117t-28.5 142.5t28.5 142.5t79.5 117t118 79t145 28.5q77 0 144 -28.5t118 -79t80 -117t29 -142.5t-29 -142.5t-80 -117t-118 -79t-144 -28.5zM546 252q0 49 -31.5 81t-90.5 42l-80 14l20 94h143v33h-170l-33 -154l115 -20
q43 -8 67.5 -31t24.5 -58q0 -39 -26 -65t-67 -26q-43 0 -71.5 27.5t-28.5 66.5h-35q0 -36 18 -64.5t48.5 -45.5t68.5 -17q37 0 66 16.5t45.5 44t16.5 62.5z" />
    <glyph glyph-name="uni278F" unicode="&#x278f;" horiz-adv-x="823" 
d="M412 -42q-78 0 -145 28.5t-118 79t-79.5 117t-28.5 142.5t28.5 142.5t79.5 117t118 79t145 28.5q77 0 144 -28.5t118 -79t80 -117t29 -142.5t-29 -142.5t-80 -117t-118 -79t-144 -28.5zM411 129q38 0 70 18t51 48t19 67q0 36 -17.5 64t-46 44.5t-47.5 18t-24 1.5
q-28 0 -56 -14q18 22 36.5 42.5t32.5 44t17 53.5h-35q-3 -28 -17.5 -51.5t-35.5 -46t-40.5 -46t-32.5 -50.5t-13 -60q0 -37 18.5 -67t50 -48t70.5 -18zM410 161q-28 0 -52 13.5t-38 37t-14 50.5q0 28 14.5 50.5t38.5 36.5t51 14q30 0 53.5 -14t38 -36.5t14.5 -50.5
q0 -27 -14.5 -50.5t-38.5 -37t-53 -13.5z" />
    <glyph glyph-name="uni2790" unicode="&#x2790;" horiz-adv-x="823" 
d="M412 -42q-78 0 -145 28.5t-118 79t-79.5 117t-28.5 142.5t28.5 142.5t79.5 117t118 79t145 28.5q77 0 144 -28.5t118 -79t80 -117t29 -142.5t-29 -142.5t-80 -117t-118 -79t-144 -28.5zM533 516h-246v-33h195q-33 -67 -53.5 -121t-31 -108t-14.5 -120h35q4 55 11 100
t20 87.5t33.5 89.5t50.5 105z" />
    <glyph glyph-name="uni2791" unicode="&#x2791;" horiz-adv-x="823" 
d="M412 -42q-78 0 -145 28.5t-118 79t-79.5 117t-28.5 142.5t28.5 142.5t79.5 117t118 79t145 28.5q77 0 144 -28.5t118 -79t80 -117t29 -142.5t-29 -142.5t-80 -117t-118 -79t-144 -28.5zM551 250q0 39 -24.5 70.5t-65.5 42.5q23 12 35.5 31.5t12.5 41.5q0 35 -27 60
t-70 25q-44 0 -70 -25t-26 -60q0 -22 12.5 -41.5t34.5 -31.5q-41 -11 -65 -42.5t-24 -70.5q0 -33 18 -60.5t49.5 -44t70.5 -16.5t70.5 16.5t50 44t18.5 60.5zM412 493q29 0 47 -16.5t18 -41.5q0 -23 -18 -40.5t-47 -17.5t-46.5 17.5t-17.5 40.5q0 25 17.5 41.5t46.5 16.5z
M412 161q-44 0 -73.5 27t-29.5 63q0 41 29 67t74 26q44 0 73.5 -26t29.5 -67q0 -36 -29.5 -63t-73.5 -27z" />
    <glyph glyph-name="uni2792" unicode="&#x2792;" horiz-adv-x="823" 
d="M412 -42q-78 0 -145 28.5t-118 79t-79.5 117t-28.5 142.5t28.5 142.5t79.5 117t118 79t145 28.5q77 0 144 -28.5t118 -79t80 -117t29 -142.5t-29 -142.5t-80 -117t-118 -79t-144 -28.5zM410 521q-39 0 -70.5 -18t-50.5 -47.5t-19 -67.5q0 -36 17.5 -64t46 -44.5t47.5 -18
t24 -1.5q28 0 56 14q-18 -21 -37 -41.5t-32.5 -44t-17.5 -54.5h36q3 28 17.5 51.5t35 46t40.5 46t33 50.5t13 60q0 38 -19 67.5t-50 47.5t-70 18zM410 489q30 0 53 -13.5t37 -36t14 -51.5q0 -27 -14.5 -50t-38 -37t-51.5 -14q-29 0 -53 14t-38 37t-14 50q0 29 14 51.5t38 36
t53 13.5z" />
    <glyph glyph-name="uniF6C3" unicode="&#xf6c3;" horiz-adv-x="513" 
d="M220 -212q19 37 27 64q3 9 5 18q-11 1 -19 8q-9 9 -9 22q0 14 9 22.5t22 8.5q14 0 22.5 -9t8.5 -25t-8.5 -44t-28.5 -65h-29z" />
    <glyph glyph-name="A.alt1" 
d="M111 55v-55h-38v461q0 60 26 104.5t70.5 68.5t98.5 24q56 0 100 -24t69.5 -68.5t25.5 -104.5v-461h-38v330q-19 -31 -49.5 -51.5t-66 -35.5t-70.5 -29.5t-64 -33.5t-46.5 -49t-17.5 -76zM111 461v-301q20 32 50 52t65.5 35t70.5 29.5t64 34t46.5 49t17.5 75.5v26
q0 49 -21 85t-56.5 56t-79.5 20q-43 0 -79 -20t-57 -56t-21 -85z" />
    <glyph glyph-name="A.alt2" 
d="M73 0v461q0 60 26 104.5t70.5 68.5t98.5 24q56 0 100 -24t69.5 -68.5t25.5 -104.5v-461h-38v226h-314v-226h-38zM111 461v-199h314v199q0 49 -21 85t-56.5 56t-79.5 20q-43 0 -79 -20t-57 -56t-21 -85z" />
    <glyph glyph-name="B.alt1" horiz-adv-x="528" 
d="M81 0v650h176q48 0 81 -16.5t50.5 -45.5t17.5 -66q0 -59 -42 -99q-17 -15 -39 -25q32 -6 59 -21q49 -26 76 -71t27 -102t-27.5 -103t-76.5 -73.5t-114 -27.5h-188zM119 410h127q60 0 91.5 31.5t31.5 76.5q0 42 -29 69.5t-83 27.5h-138v-205zM119 36h150q53 0 93.5 22.5
t63.5 61t23 84.5q0 48 -23 86.5t-63 61.5t-94 23h-150v-339z" />
    <glyph glyph-name="C.alt1" horiz-adv-x="405" 
d="M370 0h-7q-66 0 -124 25.5t-102 70t-68.5 103.5t-24.5 126q0 68 24.5 126.5t68.5 103.5t102 70t124 25h7v-35h-7q-58 0 -108.5 -22.5t-89.5 -63t-60.5 -92.5t-21.5 -112t21.5 -112t60.5 -92.5t89.5 -62.5t108.5 -22h7v-36z" />
    <glyph glyph-name="E.alt1" horiz-adv-x="446" 
d="M367 348v-35h-248v-277h285v-36h-322v650h322v-35h-285v-267h248z" />
    <glyph glyph-name="F.alt1" horiz-adv-x="435" 
d="M368 345v-36h-249v-309h-37v650h320v-35h-283v-270h249z" />
    <glyph glyph-name="G.alt1" horiz-adv-x="450" 
d="M387 0h-24q-66 0 -124 25.5t-102 70t-68.5 103.5t-24.5 126t24.5 126t68.5 103.5t102 70t124 25.5h21v-35h-21q-57 0 -108 -22.5t-90 -63t-60.5 -92.5t-21.5 -112t21.5 -112t60.5 -92.5t90 -62.5q45 -20 96 -22v334h36v-370z" />
    <glyph glyph-name="H.alt1" horiz-adv-x="564" 
d="M445 0v379q-16 -22 -38 -37q-32 -23 -70.5 -38.5t-76.5 -30t-70 -34t-51.5 -50.5t-19.5 -79v-110h-37v650h37v-429q16 22 38 37q32 23 70.5 38.5t76.5 30t70 34t51.5 50.5t19.5 79v160h38v-650h-38z" />
    <glyph glyph-name="H.alt2" horiz-adv-x="564" 
d="M483 0h-38v293h-326v-293h-37v650h37v-322h326v322h38v-650z" />
    <glyph glyph-name="I.alt1" horiz-adv-x="201" 
d="M82 569v81h37v-72q-5 0 -12 -1.5t-13.5 -3.5t-11.5 -4zM82 -1v505q8 3 19 5.5t18 3.5v-514h-37z" />
    <glyph glyph-name="K.alt1" horiz-adv-x="533" 
d="M119 0h-37v650h37v-453q74 31 128 68q62 42 102 96t61.5 125t27.5 164h38q-6 -100 -29.5 -176t-66.5 -134q-36 -49 -89 -90l231 -250h-50l-213 229q-37 -23 -74 -42q-31 -16 -66 -30v-157z" />
    <glyph glyph-name="P.alt1" horiz-adv-x="517" 
d="M82 0v650h146q74 0 130 -31t87.5 -83.5t31.5 -119.5q0 -74 -30.5 -128t-83.5 -83.5t-121 -29.5q-34 0 -72 9q-27 6 -51 16v-200h-37zM119 238q24 -11 51 -18q37 -9 71 -9q58 0 102.5 24.5t69.5 70.5t25 110q0 57 -26.5 101.5t-73.5 71t-109 26.5h-110v-377z" />
    <glyph glyph-name="Q.alt1" horiz-adv-x="750" 
d="M724 0h-347q-69 0 -129.5 25.5t-106.5 70.5t-71.5 105t-25.5 128t25.5 128t71 105t105 70.5t127.5 25.5q69 0 128.5 -25.5t105 -70.5t71 -105t25.5 -128q0 -76 -33 -141.5t-90 -111.5q-32 -25 -68 -42l212 2v-36zM373 623q-60 0 -112.5 -23t-92.5 -63.5t-62.5 -93.5
t-22.5 -114t22.5 -114t63 -93.5t93 -63t112.5 -22.5q59 0 111.5 22.5t93 63t63 93.5t22.5 114t-22.5 114t-63 93.5t-93 63.5t-112.5 23z" />
    <glyph glyph-name="R.alt1" horiz-adv-x="521" 
d="M438 0l-319 253v-253h-37v650h162q70 0 121.5 -27t80.5 -73.5t29 -105.5q0 -64 -30.5 -112.5t-83.5 -75t-122 -26.5q-19 0 -38 2l292 -232h-55zM119 290q24 -12 50 -18q35 -7 70 -7q59 0 103.5 22t69 63t24.5 94q0 49 -23.5 87.5t-67 61t-101.5 22.5h-125v-325z" />
    <glyph glyph-name="S.alt1" horiz-adv-x="344" 
d="M154 469q0 87 45 134t122 47h4v-35h-4q-59 0 -94 -37.5t-35 -108.5v-288q0 -87 -45.5 -134t-123.5 -47h-3v36h3q60 0 95.5 37.5t35.5 107.5v288z" />
    <glyph glyph-name="T.alt1" horiz-adv-x="434" 
d="M416 615h-180v-615h-38v615h-180v35h398v-35z" />
    <glyph glyph-name="X.alt1" horiz-adv-x="527" 
d="M264 254q43 0 78.5 17t56.5 49.5t21 78.5v251h37v-251q0 -56 -25 -96t-69 -62q-6 -2 -12 -5q9 -3 18 -8q47 -22 73.5 -64t26.5 -102v-62h-38v62q0 50 -22 84.5t-60 52.5t-85 18t-85 -18t-60.5 -52.5t-22.5 -84.5v-62h-38v62q0 60 27 102t73 64q9 4 19 8q-7 2 -13 5
q-44 22 -69 62t-25 96v251h38v-251q0 -46 20.5 -78.5t56 -49.5t79.5 -17z" />
    <glyph glyph-name="X.alt2" horiz-adv-x="527" 
d="M264 397q43 0 78.5 17t56.5 49.5t21 78.5v108h37v-108q0 -57 -25 -97t-69 -61q-6 -3 -12 -5l18 -8q47 -22 73.5 -64t26.5 -103v-204h-38v204q0 51 -22 85.5t-60 52.5t-85 18t-85 -18t-60.5 -52.5t-22.5 -85.5v-204h-38v204q0 61 27 103t73 64q9 4 19 8q-6 2 -13 5
q-44 21 -69 61t-25 97v108h38v-108q0 -46 20.5 -78.5t56.5 -49.5t79 -17z" />
    <glyph glyph-name="AE.alt1" horiz-adv-x="762" 
d="M73 0v455q0 60 26 103.5t70.5 67.5t98.5 24h453v-35h-285v-267h248v-35h-248v-277h285v-36h-322v226h-288v-226h-38zM111 262h288v353h-131q-43 -1 -79 -20.5t-57 -55.5t-21 -84v-193z" />
    <glyph glyph-name="OE.alt1" horiz-adv-x="815" 
d="M736 348v-35h-248v-277h285v-36h-390q-72 0 -133.5 24.5t-107.5 69t-72 103.5t-26 128q0 68 26 127.5t72 103.5t107.5 69t133.5 25h390v-35h-285v-267h248zM451 36v579h-76q-60 0 -113 -22.5t-93.5 -62.5t-63 -92.5t-22.5 -112.5t22.5 -112.5t63 -92.5t93.5 -62t113 -22
h76z" />
    <glyph glyph-name="x.alt1" horiz-adv-x="467" 
d="M60 467h37v-77q0 -60 36 -95t100 -35q65 0 101 34.5t36 95.5v77h37v-77q0 -48 -21 -84t-59 -56q-7 -4 -15 -7q10 -3 19 -8q40 -20 61.5 -58t21.5 -91v-86h-37v86q0 66 -37.5 103t-106.5 37q-68 0 -105.5 -37.5t-37.5 -102.5v-86h-37v86q0 53 21.5 91t61.5 58q9 5 19 8
q-7 3 -14 7q-39 20 -60 56t-21 84v77z" />
    <glyph glyph-name="Aacute.alt1" 
d="M250 719l80 151h42l-87 -151h-35zM111 55v-55h-38v461q0 60 26 104.5t70.5 68.5t98.5 24q56 0 100 -24t69.5 -68.5t25.5 -104.5v-461h-38v330q-19 -31 -49.5 -51.5t-66 -35.5t-70.5 -29.5t-64 -33.5t-46.5 -49t-17.5 -76zM111 461v-301q20 32 50 52t65.5 35t70.5 29.5
t64 34t46.5 49t17.5 75.5v26q0 49 -21 85t-56.5 56t-79.5 20q-43 0 -79 -20t-57 -56t-21 -85z" />
    <glyph glyph-name="Acircumflex.alt1" 
d="M286 870l111 -151h-40l-90 124l-90 -124h-39l110 151h38zM111 55v-55h-38v461q0 60 26 104.5t70.5 68.5t98.5 24q56 0 100 -24t69.5 -68.5t25.5 -104.5v-461h-38v330q-19 -31 -49.5 -51.5t-66 -35.5t-70.5 -29.5t-64 -33.5t-46.5 -49t-17.5 -76zM111 461v-301
q20 32 50 52t65.5 35t70.5 29.5t64 34t46.5 49t17.5 75.5v26q0 49 -21 85t-56.5 56t-79.5 20q-43 0 -79 -20t-57 -56t-21 -85z" />
    <glyph glyph-name="Adieresis.alt1" 
d="M185 755q-14 0 -22.5 8.5t-8.5 22.5q0 13 8.5 22t22.5 9t22.5 -9t8.5 -22q0 -14 -8.5 -22.5t-22.5 -8.5zM350 755q-14 0 -23 8.5t-9 22.5q0 13 9 22t23 9q13 0 22 -9t9 -22q0 -14 -9 -22.5t-22 -8.5zM111 55v-55h-38v461q0 60 26 104.5t70.5 68.5t98.5 24q56 0 100 -24
t69.5 -68.5t25.5 -104.5v-461h-38v330q-19 -31 -49.5 -51.5t-66 -35.5t-70.5 -29.5t-64 -33.5t-46.5 -49t-17.5 -76zM111 461v-301q20 32 50 52t65.5 35t70.5 29.5t64 34t46.5 49t17.5 75.5v26q0 49 -21 85t-56.5 56t-79.5 20q-43 0 -79 -20t-57 -56t-21 -85z" />
    <glyph glyph-name="Agrave.alt1" 
d="M285 719h-35l-82 151h41zM111 55v-55h-38v461q0 60 26 104.5t70.5 68.5t98.5 24q56 0 100 -24t69.5 -68.5t25.5 -104.5v-461h-38v330q-19 -31 -49.5 -51.5t-66 -35.5t-70.5 -29.5t-64 -33.5t-46.5 -49t-17.5 -76zM111 461v-301q20 32 50 52t65.5 35t70.5 29.5t64 34
t46.5 49t17.5 75.5v26q0 49 -21 85t-56.5 56t-79.5 20q-43 0 -79 -20t-57 -56t-21 -85z" />
    <glyph glyph-name="Aring.alt1" 
d="M73 0v461q0 79 45 130q35 41 85 57q-12 10 -22 23q-19 26 -19 60q0 44 30 72.5t76 28.5q31 0 55 -13t38 -35.5t14 -52.5q0 -34 -19 -60q-9 -13 -22 -23q50 -16 85 -57q44 -51 44 -130v-461h-38v330q-19 -31 -49.5 -51.5t-66 -35.5t-70.5 -29.5t-64 -33.5t-46.5 -49
t-17.5 -76v-55h-38zM268 658q34 0 54.5 20.5t20.5 52.5q0 31 -20.5 51.5t-54.5 20.5q-32 0 -53 -20.5t-21 -51.5q0 -32 21 -52.5t53 -20.5zM111 461v-301q20 32 50 52t65.5 35t70.5 29.5t64 34t46.5 49t17.5 75.5v26q0 49 -21 85t-56.5 56t-79.5 20q-43 0 -79 -20t-57 -56
t-21 -85z" />
    <glyph glyph-name="Atilde.alt1" 
d="M132 719v74q0 38 17.5 58.5t47.5 20.5q23 0 39 -12.5t28.5 -31t22.5 -37t21.5 -31.5t27.5 -13q18 0 26.5 13t8.5 36v74h32v-74q0 -37 -17.5 -58.5t-48.5 -21.5q-23 0 -39 13t-28 31.5t-22.5 37t-22 31t-26.5 12.5q-36 0 -36 -48v-74h-31zM111 55v-55h-38v461
q0 60 26 104.5t70.5 68.5t98.5 24q56 0 100 -24t69.5 -68.5t25.5 -104.5v-461h-38v330q-19 -31 -49.5 -51.5t-66 -35.5t-70.5 -29.5t-64 -33.5t-46.5 -49t-17.5 -76zM111 461v-301q20 32 50 52t65.5 35t70.5 29.5t64 34t46.5 49t17.5 75.5v26q0 49 -21 85t-56.5 56t-79.5 20
q-43 0 -79 -20t-57 -56t-21 -85z" />
    <glyph glyph-name="Abreve.alt1" 
d="M267 747q46 0 72 25t26 70v24h32v-24q0 -60 -34.5 -93t-95.5 -33q-60 0 -94.5 33t-34.5 93v24h31v-24q0 -45 26 -70t72 -25zM111 55v-55h-38v461q0 60 26 104.5t70.5 68.5t98.5 24q56 0 100 -24t69.5 -68.5t25.5 -104.5v-461h-38v330q-19 -31 -49.5 -51.5t-66 -35.5
t-70.5 -29.5t-64 -33.5t-46.5 -49t-17.5 -76zM111 461v-301q20 32 50 52t65.5 35t70.5 29.5t64 34t46.5 49t17.5 75.5v26q0 49 -21 85t-56.5 56t-79.5 20q-43 0 -79 -20t-57 -56t-21 -85z" />
    <glyph glyph-name="Amacron.alt1" 
d="M149 801h237v-34h-237v34zM111 55v-55h-38v461q0 60 26 104.5t70.5 68.5t98.5 24q56 0 100 -24t69.5 -68.5t25.5 -104.5v-461h-38v330q-19 -31 -49.5 -51.5t-66 -35.5t-70.5 -29.5t-64 -33.5t-46.5 -49t-17.5 -76zM111 461v-301q20 32 50 52t65.5 35t70.5 29.5t64 34
t46.5 49t17.5 75.5v26q0 49 -21 85t-56.5 56t-79.5 20q-43 0 -79 -20t-57 -56t-21 -85z" />
    <glyph glyph-name="Aogonek.alt1" 
d="M73 0v461q0 60 26 104.5t70.5 68.5t98.5 24q56 0 100 -24t69.5 -68.5t25.5 -104.5v-461q-48 -21 -68 -42.5t-20 -45.5q0 -20 14 -31.5t39 -11.5h35v-30h-36q-38 0 -61.5 20t-23.5 51q0 21 10.5 39.5t32.5 35.5q17 13 40 24v321q-19 -31 -49.5 -51.5t-66 -35.5
t-70.5 -29.5t-64 -33.5t-46.5 -49t-17.5 -76v-55h-38zM111 461v-301q20 32 50 52t65.5 35t70.5 29.5t64 34t46.5 49t17.5 75.5v26q0 49 -21 85t-56.5 56t-79.5 20q-43 0 -79 -20t-57 -56t-21 -85z" />
    <glyph glyph-name="Aacute.alt2" 
d="M250 719l80 151h42l-87 -151h-35zM73 0v461q0 60 26 104.5t70.5 68.5t98.5 24q56 0 100 -24t69.5 -68.5t25.5 -104.5v-461h-38v226h-314v-226h-38zM111 461v-199h314v199q0 49 -21 85t-56.5 56t-79.5 20q-43 0 -79 -20t-57 -56t-21 -85z" />
    <glyph glyph-name="Acircumflex.alt2" 
d="M286 870l111 -151h-40l-90 124l-90 -124h-39l110 151h38zM73 0v461q0 60 26 104.5t70.5 68.5t98.5 24q56 0 100 -24t69.5 -68.5t25.5 -104.5v-461h-38v226h-314v-226h-38zM111 461v-199h314v199q0 49 -21 85t-56.5 56t-79.5 20q-43 0 -79 -20t-57 -56t-21 -85z" />
    <glyph glyph-name="Adieresis.alt2" 
d="M185 755q-14 0 -22.5 8.5t-8.5 22.5q0 13 8.5 22t22.5 9t22.5 -9t8.5 -22q0 -14 -8.5 -22.5t-22.5 -8.5zM350 755q-14 0 -23 8.5t-9 22.5q0 13 9 22t23 9q13 0 22 -9t9 -22q0 -14 -9 -22.5t-22 -8.5zM73 0v461q0 60 26 104.5t70.5 68.5t98.5 24q56 0 100 -24t69.5 -68.5
t25.5 -104.5v-461h-38v226h-314v-226h-38zM111 461v-199h314v199q0 49 -21 85t-56.5 56t-79.5 20q-43 0 -79 -20t-57 -56t-21 -85z" />
    <glyph glyph-name="Agrave.alt2" 
d="M285 719h-35l-82 151h41zM73 0v461q0 60 26 104.5t70.5 68.5t98.5 24q56 0 100 -24t69.5 -68.5t25.5 -104.5v-461h-38v226h-314v-226h-38zM111 461v-199h314v199q0 49 -21 85t-56.5 56t-79.5 20q-43 0 -79 -20t-57 -56t-21 -85z" />
    <glyph glyph-name="Aring.alt2" 
d="M73 0v461q0 80 45 131q35 41 86 57q-13 9 -23 22q-19 25 -19 60q0 44 30 72.5t76 28.5q31 0 55 -13t38 -35.5t14 -52.5q0 -34 -19 -60q-9 -14 -22 -23q50 -16 85 -57q44 -51 44 -130v-461h-38v226h-314v-226h-38zM268 658q34 0 54.5 20.5t20.5 52.5q0 31 -20.5 51.5
t-54.5 20.5q-32 0 -53 -20.5t-21 -51.5q0 -32 21 -52.5t53 -20.5zM111 461v-199h314v199q0 49 -21 85t-56.5 56t-79.5 20q-43 0 -79 -20t-57 -56t-21 -85z" />
    <glyph glyph-name="Atilde.alt2" 
d="M132 719v74q0 38 17.5 58.5t47.5 20.5q23 0 39 -12.5t28.5 -31t22.5 -37t21.5 -31.5t27.5 -13q18 0 26.5 13t8.5 36v74h32v-74q0 -37 -17.5 -58.5t-48.5 -21.5q-23 0 -39 13t-28 31.5t-22.5 37t-22 31t-26.5 12.5q-36 0 -36 -48v-74h-31zM73 0v461q0 60 26 104.5
t70.5 68.5t98.5 24q56 0 100 -24t69.5 -68.5t25.5 -104.5v-461h-38v226h-314v-226h-38zM111 461v-199h314v199q0 49 -21 85t-56.5 56t-79.5 20q-43 0 -79 -20t-57 -56t-21 -85z" />
    <glyph glyph-name="Abreve.alt2" 
d="M267 747q46 0 72 25t26 70v24h32v-24q0 -60 -34.5 -93t-95.5 -33q-60 0 -94.5 33t-34.5 93v24h31v-24q0 -45 26 -70t72 -25zM73 0v461q0 60 26 104.5t70.5 68.5t98.5 24q56 0 100 -24t69.5 -68.5t25.5 -104.5v-461h-38v226h-314v-226h-38zM111 461v-199h314v199
q0 49 -21 85t-56.5 56t-79.5 20q-43 0 -79 -20t-57 -56t-21 -85z" />
    <glyph glyph-name="Amacron.alt2" 
d="M149 801h237v-34h-237v34zM73 0v461q0 60 26 104.5t70.5 68.5t98.5 24q56 0 100 -24t69.5 -68.5t25.5 -104.5v-461h-38v226h-314v-226h-38zM111 461v-199h314v199q0 49 -21 85t-56.5 56t-79.5 20q-43 0 -79 -20t-57 -56t-21 -85z" />
    <glyph glyph-name="Aogonek.alt2" 
d="M73 0v461q0 60 26 104.5t70.5 68.5t98.5 24q56 0 100 -24t69.5 -68.5t25.5 -104.5v-461q-48 -21 -68 -42.5t-20 -45.5q0 -20 14 -31.5t39 -11.5h35v-30h-36q-38 0 -61.5 20t-23.5 51q0 21 10.5 39.5t32.5 35.5q17 13 40 24v217h-314v-226h-38zM111 461v-199h314v199
q0 49 -21 85t-56.5 56t-79.5 20q-43 0 -79 -20t-57 -56t-21 -85z" />
    <glyph glyph-name="Ccedilla.alt1" horiz-adv-x="405" 
d="M44 325q0 68 24.5 126.5t68.5 103.5t102 70t124 25h7v-35h-7q-58 0 -108.5 -22.5t-89.5 -63t-60.5 -92.5t-21.5 -112t21.5 -112t60.5 -92.5t89.5 -62.5t108.5 -22h7v-36h-7q-12 0 -24 1l-14 2v-142h-37l4 147q-67 16 -122 58q-59 46 -92.5 113t-33.5 146z" />
    <glyph glyph-name="Cacute.alt1" horiz-adv-x="405" 
d="M255 719l80 151h41l-86 -151h-35zM370 0h-7q-66 0 -124 25.5t-102 70t-68.5 103.5t-24.5 126q0 68 24.5 126.5t68.5 103.5t102 70t124 25h7v-35h-7q-58 0 -108.5 -22.5t-89.5 -63t-60.5 -92.5t-21.5 -112t21.5 -112t60.5 -92.5t89.5 -62.5t108.5 -22h7v-36z" />
    <glyph glyph-name="Ccaron.alt1" horiz-adv-x="405" 
d="M266 719l-111 151h41l89 -124l90 124h40l-111 -151h-38zM370 0h-7q-66 0 -124 25.5t-102 70t-68.5 103.5t-24.5 126q0 68 24.5 126.5t68.5 103.5t102 70t124 25h7v-35h-7q-58 0 -108.5 -22.5t-89.5 -63t-60.5 -92.5t-21.5 -112t21.5 -112t60.5 -92.5t89.5 -62.5
t108.5 -22h7v-36z" />
    <glyph glyph-name="Ccircumflex.alt1" horiz-adv-x="405" 
d="M304 870l111 -151h-40l-90 124l-90 -124h-40l111 151h38zM370 0h-7q-66 0 -124 25.5t-102 70t-68.5 103.5t-24.5 126q0 68 24.5 126.5t68.5 103.5t102 70t124 25h7v-35h-7q-58 0 -108.5 -22.5t-89.5 -63t-60.5 -92.5t-21.5 -112t21.5 -112t60.5 -92.5t89.5 -62.5
t108.5 -22h7v-36z" />
    </font>
</defs>
</svg>
