<?xml version="1.0" standalone="no"?>
<!DOCTYPE svg PUBLIC "-//W3C//DTD SVG 1.1//EN" "http://www.w3.org/Graphics/SVG/1.1/DTD/svg11.dtd" >
<svg xmlns="http://www.w3.org/2000/svg" xmlns:xlink="http://www.w3.org/1999/xlink" version="1.1">
<metadata>
Created by FontForge 20201107 at Thu Mar 21 11:25:36 2024
 By 
Copyright 2019 (c) Paris 2024 Olympic and Paralympic Games
</metadata>
<defs>
<font id="Paris2024-SemiBold" horiz-adv-x="560" >
  <font-face 
    font-family="Paris 2024 Variable SemBd"
    font-weight="600"
    font-stretch="normal"
    units-per-em="1000"
    panose-1="2 1 5 3 3 2 1 2 1 3"
    ascent="750"
    descent="-250"
    x-height="478"
    cap-height="650"
    bbox="-95 -238 1168 1075"
    underline-thickness="100"
    underline-position="-132"
    unicode-range="U+000D-F6C3"
  />
<missing-glyph horiz-adv-x="582" 
d="M520 0h-457v650h457v-650zM180 113h222v424h-222v-424z" />
    <glyph glyph-name=".notdef" horiz-adv-x="582" 
d="M520 0h-457v650h457v-650zM180 113h222v424h-222v-424z" />
    <glyph glyph-name=".null" horiz-adv-x="0" 
 />
    <glyph glyph-name=".null" horiz-adv-x="0" 
 />
    <glyph glyph-name="uni000D" unicode="&#xd;" horiz-adv-x="0" 
 />
    <glyph glyph-name="space" unicode=" " horiz-adv-x="209" 
 />
    <glyph glyph-name="exclam" unicode="!" horiz-adv-x="226" 
d="M55 650h117l-8 -450h-102zM113 -10q-29 0 -48 18.5t-19 47.5q0 28 19 47t48 19q30 0 48.5 -18.5t18.5 -47.5t-18.5 -47.5t-48.5 -18.5z" />
    <glyph glyph-name="quotedbl" unicode="&#x22;" horiz-adv-x="368" 
d="M37 650h113l-10 -230h-92zM218 650h113l-11 -230h-91z" />
    <glyph glyph-name="numbersign" unicode="#" horiz-adv-x="653" 
d="M66 0l34 151h-81v97h100l35 160q-37 -10 -81 -10h-34v97h34q55 0 86.5 22.5t44.5 79.5l12 53h111l-12 -53q-12 -58 -37 -98h165l33 151h111l-34 -151h81v-98h-100l-34 -159q36 10 80 10h34v-98h-34q-55 0 -86.5 -22.5t-44.5 -78.5l-12 -53h-111l12 53q12 57 37 98h-165
l-33 -151h-111zM229 245h160l34 159h-159z" />
    <glyph glyph-name="dollar" unicode="$" horiz-adv-x="503" 
d="M202 739h100v-85q30 -6 55 -19q48 -24 75 -67.5t27 -101.5h-116q0 41 -27 66t-70 25q-24 0 -44 -10t-32 -27.5t-12 -39.5q0 -28 17 -45.5t45 -30.5t61.5 -24.5t67 -26t61.5 -36.5t45 -55t17 -82q0 -53 -28 -96.5t-76 -68.5q-29 -15 -64 -21v-83h-100v84q-33 6 -62 20
q-52 25 -81.5 70.5t-29.5 109.5h115q0 -30 13.5 -53t38.5 -36t57 -13q44 0 72 24t28 61q0 29 -17 47.5t-45 31.5t-61.5 24.5t-67 26t-61.5 35.5t-44.5 53t-16.5 81q0 50 26.5 91.5t73.5 66.5q28 15 60 21v83z" />
    <glyph glyph-name="percent" unicode="%" horiz-adv-x="818" 
d="M190 346q-46 0 -82.5 20.5t-58.5 56.5t-22 80t22 79.5t58.5 56.5t82.5 21q45 0 81.5 -21t58.5 -56.5t22 -79.5t-22 -80t-58.5 -56.5t-81.5 -20.5zM177 0l357 650h108l-358 -650h-107zM190 581q-22 0 -40 -10.5t-28.5 -28t-10.5 -39.5q0 -21 10.5 -39.5t28.5 -28.5t40 -10
q21 0 39 10t28 28.5t10 39.5q0 22 -10 39.5t-27.5 28t-39.5 10.5zM629 -10q-46 0 -82.5 21t-58 56.5t-21.5 79.5t21.5 80t58 56.5t82.5 20.5t82 -20.5t58 -56.5t22 -80t-22 -79.5t-58 -56.5t-82 -21zM629 226q-22 0 -40 -10.5t-28 -28.5t-10 -40q0 -21 10 -39t28 -28.5
t40 -10.5t39.5 10.5t27.5 28.5t10 39q0 22 -10 40t-27.5 28.5t-39.5 10.5z" />
    <glyph glyph-name="ampersand" unicode="&#x26;" horiz-adv-x="603" 
d="M484 470h-106q0 25 -12.5 45t-34.5 32t-50 12q-27 0 -49 -11.5t-34.5 -31.5t-12.5 -46q0 -29 18 -56q33 8 71 8h24v-96h-24q-37 0 -66 -14.5t-45 -40.5t-16 -59q0 -34 18 -60.5t48.5 -42t68.5 -15.5q43 0 75 16t50 45.5t18 67.5v15h-58v99h233v-99h-61v-15
q0 -68 -33 -120.5t-91.5 -82.5t-134.5 -30q-72 0 -129.5 28.5t-90 78.5t-32.5 113q0 60 32 109q21 30 50 52q-6 8 -12 17q-24 38 -24 85q0 53 27 95.5t74 67t106 24.5t104.5 -25t72 -67.5t26.5 -97.5z" />
    <glyph glyph-name="quotesingle" unicode="'" horiz-adv-x="188" 
d="M37 650h113l-10 -230h-92z" />
    <glyph glyph-name="parenleft" unicode="(" horiz-adv-x="348" 
d="M330 -177l-17 5q-86 26 -148.5 85.5t-96.5 144.5t-34 187q0 103 34 187.5t96.5 144t148.5 85.5l17 5v-102l-13 -6q-80 -34 -125 -116.5t-45 -197.5t45 -197t125 -117l13 -6v-102z" />
    <glyph glyph-name="parenright" unicode=")" horiz-adv-x="348" 
d="M19 -177v102l12 6q80 35 125 117t45 197t-45 197.5t-125 116.5l-12 6v102l16 -5q86 -26 148.5 -85.5t96.5 -144t34 -187.5q0 -102 -34 -187t-96.5 -144.5t-148.5 -85.5z" />
    <glyph glyph-name="asterisk" unicode="*" horiz-adv-x="396" 
d="M346 344l-75 -55l-74 112l-72 -112l-75 55l81 100l-124 33l29 90l121 -46l-6 129h94l-6 -129l121 46l29 -90l-125 -33z" />
    <glyph glyph-name="plus" unicode="+" horiz-adv-x="486" 
d="M47 363h150v149h92v-149h150v-92h-150v-150h-92v150h-150v92z" />
    <glyph glyph-name="comma" unicode="," horiz-adv-x="212" 
d="M39 -129q21 49 35 88q7 17 12 34q-17 4 -29 16q-20 20 -20 48q0 30 20 49t49 19q31 0 50 -20t19 -52q0 -27 -16.5 -74t-47.5 -108h-72z" />
    <glyph glyph-name="hyphen" unicode="-" horiz-adv-x="391" 
d="M35 296h320v-100h-320v100z" />
    <glyph glyph-name="period" unicode="." horiz-adv-x="212" 
d="M106 -10q-29 0 -49 19t-20 48t20 48.5t49 19.5q30 0 49.5 -19t19.5 -49q0 -29 -19.5 -48t-49.5 -19z" />
    <glyph glyph-name="slash" unicode="/" horiz-adv-x="333" 
d="M198 650h115l-177 -800h-116z" />
    <glyph glyph-name="zero" unicode="0" horiz-adv-x="751" 
d="M34 325q0 71 26 131.5t73 106.5t109 71.5t134 25.5q71 0 133 -25.5t109 -71.5t73.5 -106.5t26.5 -131.5t-26.5 -131.5t-73.5 -106.5t-109 -71.5t-133 -25.5q-72 0 -134 25.5t-109 71.5t-73 106.5t-26 131.5zM154 325q0 -47 17.5 -88t47.5 -72t70 -48t87 -17q46 0 86 17
t70.5 48t47.5 72t17 88t-17 88t-47.5 72t-70.5 48t-86 17q-47 0 -87 -17t-70 -48t-47.5 -72t-17.5 -88z" />
    <glyph glyph-name="one" unicode="1" horiz-adv-x="323" 
d="M17 577q45 6 88 18t82.5 28.5t73.5 36.5v-660h-117v495q-21 -8 -45 -13q-38 -9 -82 -14v109z" />
    <glyph glyph-name="two" unicode="2" horiz-adv-x="513" 
d="M27 0l278 354q29 36 39.5 59.5t10.5 48.5q0 26 -13.5 47t-36.5 33.5t-51 12.5q-29 0 -52.5 -12.5t-37.5 -33.5t-14 -47q0 -25 10 -45.5t30 -39.5l-66 -86q-88 67 -88 169q0 57 28.5 102t78 71.5t111.5 26.5t111 -25.5t77.5 -69.5t28.5 -101q0 -27 -7 -52.5t-23.5 -53
t-44.5 -64.5l-148 -187h243v-107h-464z" />
    <glyph glyph-name="three" unicode="3" horiz-adv-x="548" 
d="M273 -10q-74 0 -130 29.5t-87 82.5t-31 120h110q0 -36 17.5 -65.5t48.5 -46t70 -16.5q41 0 71 15.5t46.5 42.5t16.5 60q0 35 -17.5 62t-48 42.5t-68.5 15.5h-23v94h25q38 0 72 -8q3 4 5 8q12 22 12 46q0 26 -12.5 46t-35 30.5t-50.5 10.5q-26 0 -48 -12t-35 -32t-13 -45
h-109q0 53 27 96.5t73.5 68.5t104.5 25q60 0 107 -23t73.5 -64t26.5 -94q0 -47 -22 -86q-5 -9 -11 -18q29 -22 49 -52q32 -49 32 -112q0 -64 -32 -114t-87 -78.5t-127 -28.5z" />
    <glyph glyph-name="four" unicode="4" horiz-adv-x="530" 
d="M361 478h114v-478h-114v71q0 39 -17 62.5t-44.5 38.5t-61 27t-67 28.5t-61 41.5t-44.5 66.5t-17 104.5v210h117v-204q0 -45 15 -71t39.5 -40.5t54 -25.5t58.5 -25q14 -7 28 -17v211z" />
    <glyph glyph-name="five" unicode="5" horiz-adv-x="519" 
d="M257 -10q-67 0 -120 28.5t-83 78.5t-30 113h119q0 -31 14.5 -57t40.5 -41t59 -15t58.5 14.5t40.5 39.5t15 57q0 48 -30 77t-91 37l-194 25l55 303h316v-107h-231l-20 -107l88 -12q111 -15 168 -69.5t57 -146.5q0 -62 -30 -112t-82.5 -78t-119.5 -28z" />
    <glyph glyph-name="six" unicode="6" horiz-adv-x="566" 
d="M282 -10q-69 0 -125 31t-89.5 84.5t-33.5 118.5q0 55 18 101t45.5 86.5t56.5 78.5t51.5 77t29.5 83h121q-6 -44 -23.5 -80t-40.5 -67q-20 -27 -39 -51q19 4 40 4q67 0 121 -30t86 -82t32 -117q0 -66 -33 -120t-89.5 -85.5t-127.5 -31.5zM282 97q38 0 68 17.5t48 46.5
t18 65q0 37 -18 65.5t-48 46t-68 17.5q-36 0 -66 -17.5t-48 -46.5t-18 -65t18 -65t48 -46.5t66 -17.5z" />
    <glyph glyph-name="seven" unicode="7" horiz-adv-x="474" 
d="M286 0h-119q5 95 17 176.5t33 156.5t53 149q12 30 27 61h-270v107h434q-38 -81 -65 -146.5t-46 -123.5t-31.5 -115.5t-20 -121.5t-12.5 -143z" />
    <glyph glyph-name="eight" unicode="8" horiz-adv-x="545" 
d="M272 -10q-69 0 -124.5 27.5t-87.5 75.5t-32 107q0 60 31.5 105.5t86.5 71.5v0q-22 17 -37 39q-24 37 -24 80q0 48 24.5 85t67 58t95.5 21q54 0 96.5 -21t67 -58t24.5 -85q0 -43 -25 -80q-15 -22 -37 -38l1 -1q55 -26 86.5 -71.5t31.5 -105.5q0 -59 -32 -107t-87.5 -75.5
t-125.5 -27.5zM272 413q24 0 42.5 10t29.5 27t11 39q0 21 -10.5 38.5t-29.5 27t-43 9.5q-23 0 -42 -9.5t-29.5 -27t-10.5 -38.5q0 -22 11 -39t29.5 -27t41.5 -10zM272 92q37 0 65.5 15.5t45 42t16.5 59.5q0 34 -16.5 60t-45 40.5t-65.5 14.5q-35 0 -64 -15t-45.5 -41
t-16.5 -59t16.5 -59.5t45.5 -42t64 -15.5z" />
    <glyph glyph-name="nine" unicode="9" horiz-adv-x="566" 
d="M283 660q70 0 126 -31t89.5 -84t33.5 -119q0 -55 -18 -100.5t-45.5 -86.5t-56.5 -79t-51.5 -77t-29.5 -83h-121q6 44 23.5 80t40.5 67q20 27 39 51q-19 -4 -40 -4q-67 0 -121 30.5t-86 82t-32 116.5q0 67 33 120.5t89.5 85t126.5 31.5zM283 553q-36 0 -66.5 -17
t-48.5 -46t-18 -66q0 -35 18 -64.5t48.5 -47t66.5 -17.5q37 0 67 17.5t48 46.5t18 65t-18 65.5t-48 46.5t-67 17z" />
    <glyph glyph-name="colon" unicode=":" horiz-adv-x="212" 
d="M106 326q-29 0 -49 19t-20 48t20 48.5t49 19.5q30 0 49.5 -19t19.5 -49q0 -29 -19.5 -48t-49.5 -19zM106 -10q-29 0 -49 19t-20 48t20 48.5t49 19.5q30 0 49.5 -19t19.5 -49q0 -29 -19.5 -48t-49.5 -19z" />
    <glyph glyph-name="semicolon" unicode=";" horiz-adv-x="212" 
d="M106 326q-29 0 -49 19t-20 48t20 48.5t49 19.5q30 0 49.5 -19t19.5 -49q0 -29 -19.5 -48t-49.5 -19zM39 -129q21 49 35 88q7 17 12 34q-17 4 -29 16q-20 20 -20 48q0 30 20 49t49 19q31 0 50 -20t19 -52q0 -27 -16.5 -74t-47.5 -108h-72z" />
    <glyph glyph-name="less" unicode="&#x3c;" horiz-adv-x="486" 
d="M57 265v118l365 161v-108l-269 -112l269 -111v-109z" />
    <glyph glyph-name="equal" unicode="=" horiz-adv-x="486" 
d="M47 473h392v-90h-392v90zM47 251h392v-91h-392v91z" />
    <glyph glyph-name="greater" unicode="&#x3e;" horiz-adv-x="486" 
d="M429 383v-118l-365 -161v108l269 112l-269 111v109z" />
    <glyph glyph-name="question" unicode="?" horiz-adv-x="518" 
d="M213 200l-2 144h46q34 0 60.5 14.5t42.5 39t16 55.5t-16 55.5t-42.5 39t-60.5 14.5q-35 0 -61.5 -15t-42 -41t-15.5 -60h-113q0 64 29.5 112t82 75t120.5 27q67 0 119.5 -26t82 -72.5t29.5 -106.5q0 -59 -28.5 -103.5t-80.5 -68.5q-29 -13 -63 -19l-2 -64h-101zM263 -10
q-28 0 -47.5 18.5t-19.5 47.5q0 28 19 47t48 19q30 0 49 -18.5t19 -47.5t-19 -47.5t-49 -18.5z" />
    <glyph glyph-name="at" unicode="@" horiz-adv-x="805" 
d="M508 -197h-93q-82 0 -152 27t-122 75.5t-81 114t-29 141.5q0 80 29 148t81 119.5t122 79.5t152 28q78 0 144 -25.5t115 -71t76.5 -106.5t27.5 -133q0 -96 -44.5 -152.5t-120.5 -56.5q-68 0 -109 41l-6 8q-44 -50 -111 -50q-46 0 -82.5 22.5t-58 61t-21.5 88.5
q0 54 24.5 94.5t69 63t101.5 22.5h140v-199q0 -30 15 -46.5t42 -16.5q33 0 49.5 30t16.5 89q0 72 -35 128t-95 88t-138 32q-62 0 -114.5 -21.5t-91.5 -60.5t-61 -91t-22 -113q0 -57 22 -106t61 -86t91.5 -57t114.5 -20h93v-89zM464 254h-47q-42 0 -68.5 -25t-26.5 -65
q0 -38 22 -62t57 -24q27 0 48 10q9 5 19 12q-4 20 -4 43v111z" />
    <glyph glyph-name="A" unicode="A" 
d="M55 0v434q0 67 28 118t79.5 79.5t117.5 28.5q68 0 118.5 -28.5t78.5 -79.5t28 -118v-434h-116v18q0 85 -51 136.5t-146 51.5h-21v-206h-116zM171 312h7q116 0 185 -51q14 -10 26 -23v196q0 34 -14 59t-38.5 39.5t-56.5 14.5t-57 -14.5t-38.5 -39.5t-13.5 -59v-122z" />
    <glyph glyph-name="B" unicode="B" horiz-adv-x="563" 
d="M63 0v650h200q61 0 105 -20.5t68 -56.5t24 -84t-25 -87q-16 -23 -39 -40q31 -10 56 -25q38 -24 58.5 -59.5t20.5 -80.5q0 -57 -29 -101.5t-80 -70t-118 -25.5h-241zM179 549v-62q0 -29 10.5 -49.5t31 -31.5t46.5 -11q37 0 60 22.5t23 53.5q0 35 -24 56.5t-65 21.5h-82z
M179 101h115q35 1 62 13.5t42 35t15 51.5t-15 49t-45 33t-78 18q-31 4 -55 13t-41 23v-236z" />
    <glyph glyph-name="C" unicode="C" horiz-adv-x="742" 
d="M592 276h121q-11 -81 -58.5 -146t-119.5 -102.5t-159 -37.5q-72 0 -134 25.5t-109 71.5t-73 106.5t-26 131.5t26 131.5t73 106.5t109 71.5t134 25.5q82 0 152 -34.5t117.5 -94t63.5 -135.5h-122q-15 45 -45.5 80t-73.5 54.5t-92 19.5q-47 0 -87 -17t-70 -48t-47.5 -72
t-17.5 -88t17.5 -88t47.5 -72t70 -48t87 -17q53 0 98.5 23t76.5 63t41 90z" />
    <glyph glyph-name="D" unicode="D" horiz-adv-x="563" 
d="M63 0v650h107q106 0 187 -41.5t126.5 -114.5t45.5 -169q0 -95 -45.5 -168.5t-126.5 -115t-187 -41.5h-107zM180 111h12q63 0 112 28.5t77 76.5t28 109t-28 109.5t-77 76.5t-112 28h-12v-428z" />
    <glyph glyph-name="E" unicode="E" horiz-adv-x="461" 
d="M63 0v650h361v-105h-247v-243q26 28 60 47q60 32 142 32h16v-104h-19q-92 0 -146 -49q-51 -46 -54 -123h248v-105h-361z" />
    <glyph glyph-name="F" unicode="F" horiz-adv-x="449" 
d="M63 0v650h355v-106h-238v-244q24 27 58 46q59 33 141 33h13v-104h-16q-91 0 -143.5 -50.5t-52.5 -138.5v-86h-117z" />
    <glyph glyph-name="G" unicode="G" horiz-adv-x="760" 
d="M605 0v113q-2 -2 -3 -4q-40 -57 -100 -88t-134 -31q-70 0 -130.5 25.5t-106.5 71.5t-71.5 106.5t-25.5 131.5t26 131.5t73 106.5t109 71.5t134 25.5q82 0 152 -33.5t117.5 -93t63.5 -137.5h-122q-15 47 -46.5 81t-74 53.5t-90.5 19.5q-47 0 -87 -17t-70 -48t-47.5 -72
t-17.5 -88t17.5 -88t47.5 -72t70 -48t87 -17q53 0 98 22.5t76.5 62.5t41.5 91h121v-276h-108z" />
    <glyph glyph-name="H" unicode="H" horiz-adv-x="582" 
d="M63 0v650h117v-360q38 45 96 70q56 25 126 28v262h118v-650h-118v276h-3q-66 0 -115 -29t-76.5 -80t-27.5 -121v-46h-117z" />
    <glyph glyph-name="I" unicode="I" horiz-adv-x="243" 
d="M180 0h-117v650h117v-650z" />
    <glyph glyph-name="J" unicode="J" horiz-adv-x="333" 
d="M33 0v109h25q50 0 77 24.5t27 71.5v338h-129v107h245v-443q0 -98 -58 -152.5t-162 -54.5h-25z" />
    <glyph glyph-name="K" unicode="K" horiz-adv-x="569" 
d="M63 0v650h117v-396l225 396h128l-204 -350q55 -3 98 -26q52 -28 80.5 -77t28.5 -116v-81h-119v73q0 37 -15 64.5t-41.5 43.5t-61.5 16t-62 -16t-42 -43.5t-15 -64.5v-73h-117z" />
    <glyph glyph-name="L" unicode="L" horiz-adv-x="430" 
d="M401 0h-338v650h117v-543h221v-107z" />
    <glyph glyph-name="M" unicode="M" horiz-adv-x="787" 
d="M63 0v650h59q81 0 146.5 -26t107.5 -75q10 -10 18 -22q8 12 17 22q43 49 108 75t147 26h59v-650h-117v529q-47 -1 -82 -20q-36 -20 -55.5 -58.5t-19.5 -91.5v-168h-115v168q0 53 -19.5 91t-55.5 59q-34 19 -81 20v-529h-117z" />
    <glyph glyph-name="N" unicode="N" horiz-adv-x="582" 
d="M63 0v650h110q49 -124 111 -223q52 -81 120 -154v377h116v-650h-118v124q-49 46 -91 95q-50 57 -91 120q-22 34 -41 69v-408h-116z" />
    <glyph glyph-name="O" unicode="O" horiz-adv-x="751" 
d="M34 325q0 71 26 131.5t73 106.5t109 71.5t134 25.5q71 0 133 -25.5t109 -71.5t73.5 -106.5t26.5 -131.5t-26.5 -131.5t-73.5 -106.5t-109 -71.5t-133 -25.5q-72 0 -134 25.5t-109 71.5t-73 106.5t-26 131.5zM154 325q0 -47 17.5 -88t47.5 -72t70 -48t87 -17q46 0 86 17
t70.5 48t47.5 72t17 88t-17 88t-47.5 72t-70.5 48t-86 17q-47 0 -87 -17t-70 -48t-47.5 -72t-17.5 -88z" />
    <glyph glyph-name="P" unicode="P" horiz-adv-x="540" 
d="M63 0v650h206q74 0 129.5 -26.5t86.5 -73t31 -108.5q0 -57 -18 -95t-48.5 -64t-66 -44.5t-71.5 -36t-66 -38t-48 -51t-18 -75.5v-38h-117zM180 242q21 19 45 33t48 25.5t46.5 23.5t39.5 26.5t27 35t10 50.5q0 48 -33 76.5t-89 28.5h-94v-299z" />
    <glyph glyph-name="Q" unicode="Q" horiz-adv-x="763" 
d="M641 0v29q0 39 -16 69q-1 1 -2 3q-43 -50 -101 -78q-67 -33 -146 -33q-72 0 -134 25.5t-109 71.5t-73 106.5t-26 131.5t26 131.5t73 106.5t109 71.5t134 25.5q71 0 133 -25.5t109 -71.5t73.5 -106.5t26.5 -131.5q0 -57 -19 -109q-4 -13 -10 -26q22 -21 37 -48
q30 -52 30 -122v-20h-115zM310 109q7 19 16 36q29 50 79.5 79.5t113.5 29.5q34 0 65 -7q13 37 13 78q0 47 -17 88t-47.5 72t-70.5 48t-86 17q-47 0 -87 -17t-70 -48t-47.5 -72t-17.5 -88t17.5 -88t47.5 -72t70 -48q11 -4 21 -8zM415 103q25 5 47 14q37 16 66 44q-4 1 -9 1
q-35 0 -63 -17q-25 -16 -41 -42z" />
    <glyph glyph-name="R" unicode="R" horiz-adv-x="572" 
d="M63 0v650h202q75 0 131 -25.5t87.5 -71t31.5 -106.5q0 -38 -10 -68t-27 -52t-38.5 -39.5t-46.5 -31.5q45 -14 77.5 -43.5t50 -70.5t17.5 -92v-50h-120v51q0 37 -15 65t-42 43.5t-62 15.5q-36 0 -62.5 -15.5t-41.5 -43.5t-15 -65v-51h-117zM180 541v-301q20 19 44 32.5
t47.5 25.5t46 24t40 27.5t27.5 36t10 48.5q0 50 -34 78.5t-92 28.5h-89z" />
    <glyph glyph-name="S" unicode="S" horiz-adv-x="503" 
d="M255 -10q-62 0 -113.5 25t-81 70.5t-29.5 109.5h115q0 -30 13.5 -53t38.5 -36t57 -13q44 0 72 24t28 61q0 29 -17 47.5t-45 31.5t-61.5 24.5t-67 26t-61.5 35.5t-44.5 53t-16.5 81q0 50 26.5 91.5t73 66.5t104.5 25q63 0 111 -24.5t75 -68t27 -101.5h-116q0 41 -27 66
t-70 25q-24 0 -44 -10t-32 -27.5t-12 -39.5q0 -28 17 -45.5t45 -30.5t61.5 -24.5t67 -26t61.5 -36.5t45 -55t17 -82q0 -53 -28 -96.5t-76.5 -68.5t-112.5 -25z" />
    <glyph glyph-name="T" unicode="T" horiz-adv-x="472" 
d="M178 0v552q-30 -1 -59 -4q-53 -4 -95 -10v107q40 6 97.5 10.5t114.5 4.5t114 -4.5t98 -10.5v-107q-30 4 -62.5 7.5t-66.5 5.5q-12 1 -25 1v-552h-116z" />
    <glyph glyph-name="U" unicode="U" horiz-adv-x="561" 
d="M281 104q32 0 55.5 14t37.5 38t14 56v438h118v-438q0 -66 -28 -116t-78.5 -78t-118.5 -28t-119 28t-79 78t-28 116v438h118v-438q0 -32 13.5 -56t38 -38t56.5 -14z" />
    <glyph glyph-name="V" unicode="V" horiz-adv-x="563" 
d="M140 0h-77v650h117v-533q57 2 95 18q42 18 65 58.5t30 108.5l43 348h119l-42 -348q-13 -106 -55 -172.5t-115 -98t-180 -31.5z" />
    <glyph glyph-name="W" unicode="W" horiz-adv-x="835" 
d="M63 0v650h117v-533q85 3 132 51q50 51 50 146v336h115v-533q46 3 78 17q40 18 61.5 59t28.5 109l40 348h119l-40 -348q-12 -108 -52.5 -174.5t-110.5 -97t-173 -30.5h-54v94l-10 -12q-78 -82 -218 -82h-83z" />
    <glyph glyph-name="X" unicode="X" horiz-adv-x="515" 
d="M509 0h-134l-118 291l-121 -291h-130l147 343l-136 307h126l115 -261l119 261h121l-137 -307z" />
    <glyph glyph-name="Y" unicode="Y" horiz-adv-x="527" 
d="M216 0l49 179q-59 6 -106 31q-61 33 -95 94.5t-34 147.5q0 44 8 91t24 107h114q-17 -65 -24 -109t-7 -86q0 -81 42 -124q40 -41 108 -43l99 362h117l-171 -650h-124z" />
    <glyph glyph-name="Z" unicode="Z" horiz-adv-x="479" 
d="M454 0h-425l252 543h-251v107h425l-251 -543h250v-107z" />
    <glyph glyph-name="bracketleft" unicode="[" horiz-adv-x="329" 
d="M63 -178v849h246v-95h-131v-660h131v-94h-246z" />
    <glyph glyph-name="backslash" unicode="\" horiz-adv-x="333" 
d="M313 -150h-115l-178 800h116z" />
    <glyph glyph-name="bracketright" unicode="]" horiz-adv-x="329" 
d="M266 -178h-246v94h131v660h-131v95h246v-849z" />
    <glyph glyph-name="asciicircum" unicode="^" horiz-adv-x="542" 
d="M46 160l166 350h118l166 -350h-115l-111 247l-112 -247h-112z" />
    <glyph glyph-name="underscore" unicode="_" horiz-adv-x="482" 
d="M31 -56h420v-101h-420v101z" />
    <glyph glyph-name="grave" unicode="`" horiz-adv-x="514" 
d="M303 536h-94l-97 164h120z" />
    <glyph glyph-name="a" unicode="a" horiz-adv-x="503" 
d="M216 -10q-53 0 -95 19.5t-65.5 54t-23.5 79.5t23.5 79.5t65.5 53.5t97 19q75 0 122 -34v42q0 43 -23.5 67t-64.5 24q-32 0 -54.5 -15.5t-29.5 -42.5h-111q6 45 32.5 79t68.5 53.5t93 19.5q94 0 148 -53t54 -144v-291h-104v36q-1 -2 -2 -3q-49 -43 -131 -43zM240 72
q45 0 72.5 20.5t27.5 54.5t-27 53t-73 19q-45 0 -72 -19.5t-27 -53.5t27 -54t72 -20z" />
    <glyph glyph-name="b" unicode="b" horiz-adv-x="546" 
d="M52 0v650h114v-202q3 2 5 4q52 36 119 36q62 0 113 -30t81 -83.5t30 -122.5q0 -74 -34.5 -131t-96 -89t-143.5 -32h-188zM166 101h77q47 0 83 19t56 52.5t20 77.5q0 43 -17.5 73.5t-47 46.5t-67.5 16t-70 -17q-17 -9 -34 -24v-244z" />
    <glyph glyph-name="c" unicode="c" horiz-adv-x="564" 
d="M424 197h112q-10 -61 -45 -107.5t-87.5 -73t-116.5 -26.5q-71 0 -129 33t-92 89.5t-34 126.5t34 126.5t92 89.5t129 33q63 0 114.5 -25t87 -70.5t45.5 -104.5h-112q-15 43 -51 70t-84 27q-39 0 -71.5 -19t-51.5 -52t-19 -75q0 -41 19 -74t51.5 -52.5t71.5 -19.5
q33 0 61 13t48 36.5t28 54.5z" />
    <glyph glyph-name="d" unicode="d" horiz-adv-x="546" 
d="M494 0h-187q-82 0 -144 31.5t-96.5 88.5t-34.5 130q0 69 30 122.5t81 84.5t115 31q65 0 117 -33q3 -2 5 -4v199h114v-650zM380 101v250q-15 11 -32 19q-36 16 -71 16q-39 0 -69 -17.5t-46.5 -49t-16.5 -71.5q0 -43 19.5 -76t55 -52t81.5 -19h79z" />
    <glyph glyph-name="e" unicode="e" 
d="M285 -10q-73 0 -130.5 33.5t-90 90t-32.5 125.5t33 125.5t90 90t128 33.5t126 -30.5t87.5 -84.5t32.5 -124v-30h-384q2 -38 20 -68q19 -32 51 -49.5t69 -17.5q42 0 75.5 17t55.5 51h110q-16 -48 -51.5 -84.5t-84 -57t-105.5 -20.5zM416 292q-4 25 -16 45q-18 29 -48.5 45
t-68.5 16q-36 0 -67.5 -18.5t-50.5 -49.5q-11 -18 -16 -38h267z" />
    <glyph glyph-name="f" unicode="f" horiz-adv-x="347" 
d="M52 0v478q0 82 47 127t131 45h92v-100h-85q-35 0 -53.5 -18.5t-18.5 -54.5v-104q48 50 135 50h14v-101h-17q-66 0 -99 -35t-33 -104v-183h-113z" />
    <glyph glyph-name="g" unicode="g" horiz-adv-x="518" 
d="M245 86q-64 0 -114 26t-79 71.5t-29 103.5q0 57 29 102.5t79.5 72t112.5 26.5q39 0 74 -10h187v-88l-90 4q17 -14 28 -33q23 -36 23 -82q0 -54 -31 -98q-16 -25 -39 -43l4 -2q40 -19 63 -52.5t23 -78.5t-21.5 -80t-61.5 -55t-95 -20h-260v103h248q36 0 57 18t21 49
q0 30 -21 48t-57 18h-51zM364 287q0 33 -15 58.5t-41.5 40t-60.5 14.5q-32 0 -59 -14.5t-42 -40t-15 -58.5q0 -32 15 -58t42 -40.5t59 -14.5q34 0 60.5 15t41.5 41t15 57z" />
    <glyph glyph-name="h" unicode="h" horiz-adv-x="516" 
d="M52 0v650h114v-211q49 49 126 49q78 0 125.5 -52t47.5 -140v-296h-114v284q0 45 -25 72t-67 27t-67.5 -27t-25.5 -72v-284h-114z" />
    <glyph glyph-name="i" unicode="i" horiz-adv-x="218" 
d="M109 544q-30 0 -49 18.5t-19 46.5q0 29 19 47t49 18q31 0 49.5 -18t18.5 -47q0 -28 -18.5 -46.5t-49.5 -18.5zM52 478h114v-478h-114v478z" />
    <glyph glyph-name="j" unicode="j" horiz-adv-x="218" 
d="M109 544q-30 0 -49 18.5t-19 46.5q0 29 19 47t49 18q31 0 49.5 -18t18.5 -47q0 -28 -18.5 -46.5t-49.5 -18.5zM52 478h114v-476q0 -75 -41.5 -113.5t-120.5 -38.5h-20v101h13q29 0 42 13t13 41v473z" />
    <glyph glyph-name="k" unicode="k" horiz-adv-x="512" 
d="M52 0v650h114v-404l176 232h125l-161 -209q75 -7 119 -50q53 -51 53 -143v-76h-114v77q0 47 -26.5 74t-72.5 27q-45 0 -72 -27t-27 -74v-77h-114z" />
    <glyph glyph-name="l" unicode="l" horiz-adv-x="253" 
d="M232 0h-23q-80 0 -121.5 38.5t-41.5 113.5v498h114v-490q0 -30 14 -44.5t42 -14.5h16v-101z" />
    <glyph glyph-name="m" unicode="m" horiz-adv-x="781" 
d="M52 0v478h105v-47q0 1 1 2q47 55 124 55q75 0 120 -52q8 -9 14 -19q20 29 48 47q39 24 89 24q82 0 130 -52.5t48 -144.5v-291h-114v285q0 44 -23 71t-62 27q-38 0 -61 -27t-23 -71v-285h-114v285q0 44 -22.5 71t-61.5 27q-38 0 -61 -27t-23 -71v-285h-114z" />
    <glyph glyph-name="n" unicode="n" horiz-adv-x="516" 
d="M52 0v478h105v-50q2 3 4 5q49 55 131 55q78 0 125.5 -52t47.5 -140v-296h-114v284q0 45 -25 72t-67 27t-67.5 -27t-25.5 -72v-284h-114z" />
    <glyph glyph-name="o" unicode="o" horiz-adv-x="578" 
d="M289 -10q-72 0 -130.5 33t-92.5 89.5t-34 126.5t34 126.5t92.5 89.5t130.5 33q73 0 131 -33t92 -89.5t34 -126.5t-34 -126.5t-92 -89.5t-131 -33zM289 385q-40 0 -73 -19.5t-52 -53t-19 -73.5t19 -73.5t52 -53t73 -19.5t73 19.5t52 53t19 73.5t-19 73.5t-52 53t-73 19.5z
" />
    <glyph glyph-name="p" unicode="p" horiz-adv-x="546" 
d="M52 -150v628h188q82 0 143.5 -32t96 -88.5t34.5 -130.5q0 -70 -30 -123t-81 -83.5t-113 -30.5q-67 0 -119 37l-5 3v-180h-114zM166 134q17 -16 34 -25q32 -17 70 -17t67.5 16.5t47 46.5t17.5 73q0 44 -20 78t-56 52.5t-83 18.5h-77v-243z" />
    <glyph glyph-name="q" unicode="q" horiz-adv-x="546" 
d="M494 -150h-114v180q-2 -2 -5 -3q-51 -37 -118 -37q-63 0 -114 30.5t-81 83.5t-30 123q0 74 35 130.5t97 88.5t143 32h187v-628zM380 377h-76q-48 0 -83.5 -18.5t-55.5 -52.5t-20 -78q0 -43 17.5 -73t47 -46.5t66.5 -16.5q39 0 71 17q17 9 33 24v244z" />
    <glyph glyph-name="r" unicode="r" horiz-adv-x="341" 
d="M52 0v478h104v-55q4 6 9 12q49 53 133 53h15v-107h-40q-53 0 -80 -27.5t-27 -81.5v-272h-114z" />
    <glyph glyph-name="s" unicode="s" horiz-adv-x="427" 
d="M43 0v93h183q29 0 45 13t16 35q0 21 -18.5 32.5t-47 18.5t-61 15.5t-61 23.5t-47 41.5t-18.5 71.5q0 59 43 96.5t115 37.5h182v-93h-178q-26 0 -38.5 -11t-12.5 -29q0 -20 18.5 -31t47 -18t61 -15t61 -23.5t47 -42.5t18.5 -72q0 -62 -45 -102.5t-125 -40.5h-185z" />
    <glyph glyph-name="t" unicode="t" horiz-adv-x="338" 
d="M303 378h-144v-204q0 -38 18 -55.5t55 -17.5h72v-101h-80q-87 0 -132.5 43.5t-45.5 126.5v410l113 28v-130h144v-100z" />
    <glyph glyph-name="u" unicode="u" horiz-adv-x="505" 
d="M50 478h114v-289q0 -44 24 -70t65 -26t64.5 26t23.5 70v289h114v-282q0 -97 -54.5 -151.5t-147.5 -54.5t-148 54.5t-55 151.5v282z" />
    <glyph glyph-name="v" unicode="v" horiz-adv-x="495" 
d="M52 0v478h114v-374h29q62 0 92 27.5t37 90.5l30 256h114l-30 -256q-14 -115 -72 -168.5t-169 -53.5h-145z" />
    <glyph glyph-name="w" unicode="w" horiz-adv-x="756" 
d="M52 0v478h114v-374h29q61 0 97 34q35 34 35 99v241h111v-374h19q62 0 91.5 27t37.5 91l30 256h113l-30 -256q-14 -115 -71.5 -168.5t-169.5 -53.5h-115v65q-22 -28 -57 -43q-24 -11 -55 -16.5t-72 -5.5h-107z" />
    <glyph glyph-name="x" unicode="x" horiz-adv-x="467" 
d="M11 0l128 252l-118 226h115l97 -186l96 186h118l-120 -227l129 -251h-122l-102 208l-98 -208h-123z" />
    <glyph glyph-name="y" unicode="y" horiz-adv-x="508" 
d="M37 257q0 53 8 107.5t25 113.5h114q-18 -70 -26 -121t-8 -97q0 -77 39 -117q31 -32 80 -38l103 373h117l-170 -628h-120l41 147q-43 8 -79 27q-58 32 -91 91t-33 142z" />
    <glyph glyph-name="z" unicode="z" horiz-adv-x="425" 
d="M393 0h-368l203 378h-200v100h371l-202 -377h196v-101z" />
    <glyph glyph-name="braceleft" unicode="{" horiz-adv-x="387" 
d="M367 -178h-67q-86 0 -133 45.5t-47 129.5v143q0 56 -55 56h-41v101h41q55 0 55 57v143q0 83 47 128.5t133 45.5h67v-95h-50q-82 0 -82 -79v-136q0 -46 -23 -77q-18 -25 -51 -37q33 -12 51 -37q23 -32 23 -78v-136q0 -80 82 -80h50v-94z" />
    <glyph glyph-name="bar" unicode="|" horiz-adv-x="242" 
d="M63 650h117v-800h-117v800z" />
    <glyph glyph-name="braceright" unicode="}" horiz-adv-x="387" 
d="M20 -178v94h50q82 0 82 80v136q0 46 23 78q18 25 51 37q-33 12 -51 37q-23 31 -23 77v136q0 79 -82 79h-50v95h66q87 0 133.5 -45.5t46.5 -128.5v-143q0 -57 55 -57h42v-101h-42q-55 0 -55 -56v-143q0 -84 -46.5 -129.5t-133.5 -45.5h-66z" />
    <glyph glyph-name="asciitilde" unicode="~" horiz-adv-x="486" 
d="M352 343q46 0 87 20v-91q-20 -10 -42 -15t-45 -5q-41 0 -78.5 9.5t-72 19t-67.5 9.5q-23 0 -44 -5t-43 -15v92q22 10 43 15t44 5q41 0 77.5 -9.5t71 -19.5t69.5 -10z" />
    <glyph glyph-name="uni00A0" unicode="&#xa0;" horiz-adv-x="209" 
 />
    <glyph glyph-name="exclamdown" unicode="&#xa1;" horiz-adv-x="226" 
d="M113 488q30 0 48.5 -18.5t18.5 -46.5q0 -29 -18.5 -47.5t-48.5 -18.5q-29 0 -48 18.5t-19 47.5q0 28 19 46.5t48 18.5zM172 -172h-117l7 450h102z" />
    <glyph glyph-name="cent" unicode="&#xa2;" horiz-adv-x="564" 
d="M237 650h100v-83q34 -7 64 -21q52 -26 87.5 -71t45.5 -105h-112q-15 44 -51 71t-84 27q-39 0 -71.5 -19.5t-51.5 -52.5t-19 -75q0 -40 19 -73.5t51.5 -52.5t71.5 -19q33 0 61 13t48 36.5t28 54.5h112q-10 -61 -45 -108t-87 -73q-32 -16 -67 -22v-77h-100v77q-42 8 -79 29
q-58 33 -92 89t-34 126q0 71 34 127.5t92 89.5q37 21 79 28v84z" />
    <glyph glyph-name="sterling" unicode="&#xa3;" horiz-adv-x="485" 
d="M25 0v105h5q36 0 53 16t17 49v73h-76v90h76v125q0 91 52.5 141.5t141.5 50.5h144v-105h-137q-38 0 -61.5 -21.5t-23.5 -68.5v-122h199v-90h-199v-55q0 -48 -29 -78l-5 -5h271v-105h-428z" />
    <glyph glyph-name="currency" unicode="&#xa4;" horiz-adv-x="625" 
d="M21 537l79 80l90 -94q1 0 2 1q54 30 120 30q67 0 121 -30q1 0 1 -1l90 94l80 -80l-90 -87q3 -4 5 -9q33 -52 33 -117q0 -64 -33 -117q-2 -4 -5 -8l90 -87l-80 -80l-90 93l-1 -1q-54 -30 -121 -30q-66 0 -120 30q-1 1 -2 1l-90 -93l-79 80l90 87l-6 8q-32 53 -32 117
q0 65 32 117q3 5 6 9zM312 193q37 0 66.5 18t47 47.5t17.5 65.5t-17.5 66t-47 47.5t-66.5 17.5q-36 0 -65.5 -17.5t-47 -47.5t-17.5 -66t17.5 -65.5t47 -47.5t65.5 -18z" />
    <glyph glyph-name="yen" unicode="&#xa5;" horiz-adv-x="516" 
d="M316 0h-117v162h-148v87h148v69h-148v87h103l-134 245h125l114 -229l114 229h123l-135 -245h104v-87h-149v-69h149v-87h-149v-162z" />
    <glyph glyph-name="brokenbar" unicode="&#xa6;" horiz-adv-x="242" 
d="M63 650h117v-373h-117v373zM63 223h117v-373h-117v373z" />
    <glyph glyph-name="section" unicode="&#xa7;" horiz-adv-x="489" 
d="M61 -150v101h200q24 0 38.5 10t14.5 27q0 19 -21 31.5t-53.5 23t-69 23.5t-69 34.5t-53.5 54.5t-21 84q0 43 24.5 83t68.5 65q12 8 25 13q-33 17 -51 37q-30 34 -30 80q0 39 20 69t56 47t85 17h181v-101h-173q-25 0 -39 -10t-14 -28q0 -20 20 -33.5t52 -24.5t68.5 -25
t68.5 -34.5t52.5 -53.5t20.5 -84q0 -44 -24 -84.5t-67 -65.5l-16 -8q26 -15 42 -31q32 -34 32 -81q0 -40 -20 -70.5t-55.5 -48t-83.5 -17.5h-209zM247 146q27 0 50 14t37 37.5t14 51.5q0 30 -15 52t-39 34.5t-52 12.5q-27 0 -50 -14t-37 -37.5t-14 -51.5q0 -29 15 -51
t39 -35t52 -13z" />
    <glyph glyph-name="dieresis" unicode="&#xa8;" horiz-adv-x="514" 
d="M162 550q-27 0 -45 18t-18 44q0 27 17.5 44.5t45.5 17.5q29 0 46.5 -17t17.5 -44t-17.5 -45t-46.5 -18zM352 550q-28 0 -46 18t-18 44q0 27 18 44.5t46 17.5t45.5 -17t17.5 -44t-17.5 -45t-45.5 -18z" />
    <glyph glyph-name="copyright" unicode="&#xa9;" horiz-adv-x="759" 
d="M379 -10q-73 0 -135.5 25.5t-109.5 71.5t-73.5 106.5t-26.5 131.5t26.5 131.5t73.5 106.5t109.5 71.5t135.5 25.5t136 -25.5t110 -71.5t73.5 -106.5t26.5 -131.5t-26.5 -131.5t-73.5 -106.5t-110 -71.5t-136 -25.5zM379 69q55 0 102 19.5t83 54.5t56 82t20 100
q0 54 -20 100.5t-56 81.5t-83 54.5t-102 19.5q-54 0 -101.5 -19.5t-83 -54.5t-55.5 -81.5t-20 -100.5q0 -53 20 -99.5t55.5 -82t83 -55t101.5 -19.5zM382 156q-48 0 -87.5 23t-62.5 61.5t-23 86.5t23 87t62.5 62t87.5 23q63 0 109.5 -37.5t60.5 -99.5h-89q-10 26 -31.5 40.5
t-49.5 14.5q-23 0 -43 -12t-32 -32.5t-12 -45.5q0 -24 12 -44.5t32 -32.5t43 -12q29 0 51.5 15t31.5 40h88q-12 -63 -59 -100t-112 -37z" />
    <glyph glyph-name="ordfeminine" unicode="&#xaa;" horiz-adv-x="396" 
d="M166 261q-44 0 -76.5 15.5t-51 42.5t-18.5 61q0 53 40 86.5t107 33.5q55 0 90 -24v32q0 21 -8 36.5t-23 24t-37 8.5q-26 0 -43 -12.5t-24 -33.5h-90q6 36 27.5 64.5t55 44.5t76.5 16q49 0 85.5 -19t57 -54t20.5 -84v-231h-84v30l-4 -4q-38 -33 -100 -33zM184 330
q33 0 53 15t20 39t-20 38.5t-53 14.5t-52.5 -14.5t-19.5 -39.5q0 -23 20 -38t52 -15z" />
    <glyph glyph-name="guillemotleft" unicode="&#xab;" horiz-adv-x="527" 
d="M144 49l-123 196l123 196h120l-120 -192l125 -200h-125zM376 49l-123 196l123 196h120l-120 -193l125 -199h-125z" />
    <glyph glyph-name="logicalnot" unicode="&#xac;" horiz-adv-x="486" 
d="M47 363h392v-242h-93v150h-299v92z" />
    <glyph glyph-name="uni00AD" unicode="&#xad;" horiz-adv-x="0" 
 />
    <glyph glyph-name="registered" unicode="&#xae;" horiz-adv-x="479" 
d="M238 233q-62 0 -111 28t-78 76t-29 109q0 62 29 110t78 76t111 28t112.5 -28t79.5 -76t29 -110q0 -61 -29 -109t-79.5 -76t-112.5 -28zM238 606q-47 0 -82.5 -20t-56 -56.5t-20.5 -83.5q0 -46 20.5 -82t56 -56.5t82.5 -20.5t84 20.5t58 56.5t21 82q0 47 -21 83.5
t-58 56.5t-84 20zM164 557h85q39 0 60 -19t21 -45q0 -25 -11.5 -40t-28.5 -25q14 -6 24 -15q23 -22 23 -56v-14h-54v16q0 16 -9 24.5t-24 8.5q-14 0 -23.5 -8.5t-9.5 -22.5v-18h-53v214zM217 430q2 1 3 2q13 9 25.5 16t21.5 15.5t9 22.5q0 10 -7 16t-20 6h-32v-78z" />
    <glyph glyph-name="macron" unicode="&#xaf;" horiz-adv-x="514" 
d="M125 649h264v-90h-264v90z" />
    <glyph glyph-name="degree" unicode="&#xb0;" horiz-adv-x="342" 
d="M171 385q-39 0 -71.5 18.5t-51.5 49.5t-19 70q0 38 19 69t51.5 49.5t71.5 18.5q40 0 72 -18.5t51.5 -49.5t19.5 -69q0 -39 -19.5 -70t-51.5 -49.5t-72 -18.5zM171 584q-17 0 -31 -8.5t-22 -22.5t-8 -30q0 -17 8 -31t22 -22.5t31 -8.5q26 0 44 18t18 44q0 25 -18 43
t-44 18z" />
    <glyph glyph-name="plusminus" unicode="&#xb1;" horiz-adv-x="486" 
d="M47 417h150v149h92v-149h150v-92h-150v-150h-92v150h-150v92zM47 92h392v-92h-392v92z" />
    <glyph glyph-name="twosuperior" unicode="&#xb2;" horiz-adv-x="332" 
d="M163 656q40 0 70.5 -17t49 -45t18.5 -64q0 -27 -11 -52t-38 -58l-55 -66h110v-86h-285l158 193q20 23 27 37.5t7 28.5q0 20 -15 34.5t-36 14.5t-36 -14.5t-15 -34.5q0 -24 21 -43l-51 -62q-57 44 -57 108q0 36 18 64t49 45t71 17z" />
    <glyph glyph-name="threesuperior" unicode="&#xb3;" horiz-adv-x="340" 
d="M170 262q-45 0 -79.5 18.5t-54 51t-19.5 73.5h89q0 -18 8.5 -32.5t22.5 -22.5t33 -8q28 0 44.5 15.5t16.5 36.5q0 13 -7.5 24t-20.5 17t-32 6h-21v75h21q15 0 29 -1q8 13 8 27q0 15 -11.5 25.5t-30.5 10.5t-31 -11.5t-12 -28.5h-89q0 51 36 84.5t96 33.5q58 0 94.5 -31
t36.5 -77q0 -27 -14 -51q-3 -6 -7 -11q17 -13 28 -30q18 -28 18 -63q0 -37 -19.5 -66.5t-53.5 -47t-79 -17.5z" />
    <glyph glyph-name="acute" unicode="&#xb4;" horiz-adv-x="514" 
d="M209 536l67 164h118l-91 -164h-94z" />
    <glyph glyph-name="paragraph" unicode="&#xb6;" horiz-adv-x="636" 
d="M218 -150v239q0 47 -14 80.5t-36.5 59t-47 48.5t-46.5 48t-36 58t-14 79q0 58 27.5 100t76 65t111.5 23h335v-800h-117v685h-125v-685h-114z" />
    <glyph glyph-name="periodcentered" unicode="&#xb7;" horiz-adv-x="514" 
d="M255 220q-29 0 -48.5 19t-19.5 49q0 29 19.5 48t48.5 19q30 0 49.5 -19t19.5 -48q0 -30 -19 -49t-50 -19z" />
    <glyph glyph-name="cedilla" unicode="&#xb8;" horiz-adv-x="514" 
d="M313 45v-180h-105l14 180h91z" />
    <glyph glyph-name="onesuperior" unicode="&#xb9;" horiz-adv-x="232" 
d="M12 602q49 7 93.5 21t79.5 35v-390h-93v261q-34 -11 -80 -14v87z" />
    <glyph glyph-name="ordmasculine" unicode="&#xba;" horiz-adv-x="453" 
d="M227 263q-58 0 -104.5 26t-73.5 70.5t-27 99.5q0 56 27 100.5t73.5 70.5t104.5 26t104 -26t73 -70.5t27 -100.5q0 -55 -27 -99.5t-73 -70.5t-104 -26zM227 350q30 0 54.5 14.5t39.5 39.5t15 55t-15 54.5t-39.5 40t-54.5 15.5t-55 -15t-40 -39.5t-15 -55.5q0 -30 15 -54.5
t40 -39.5t55 -15z" />
    <glyph glyph-name="guillemotright" unicode="&#xbb;" horiz-adv-x="527" 
d="M31 49l120 192l-125 200h125l123 -196l-123 -196h-120zM263 49l120 192l-125 200h125l123 -196l-123 -196h-120z" />
    <glyph glyph-name="onequarter" unicode="&#xbc;" horiz-adv-x="814" 
d="M12 602q49 7 93.5 21t79.5 35v-390h-93v261q-34 -11 -80 -14v87zM118 0l358 650h106l-358 -650h-106zM777 0h-91v33q0 29 -13 45t-34 26t-44.5 19t-44 24t-34 41.5t-13.5 70.5v123h93v-118q0 -27 11 -40.5t29 -21.5t38 -16l12 -6v113h91v-293z" />
    <glyph glyph-name="onehalf" unicode="&#xbd;" horiz-adv-x="775" 
d="M12 602q49 7 93.5 21t79.5 35v-390h-93v261q-34 -11 -80 -14v87zM118 0l358 650h106l-358 -650h-106zM606 388q40 0 71 -17t49 -45t18 -64q0 -27 -10.5 -52t-38.5 -58l-55 -66h110v-86h-285l159 193q19 23 26 37.5t7 28.5q0 20 -14.5 34.5t-36.5 14.5q-21 0 -36 -14.5
t-15 -34.5q0 -24 21 -43l-51 -62q-56 44 -56 108q0 36 18 64t49.5 45t69.5 17z" />
    <glyph glyph-name="threequarters" unicode="&#xbe;" horiz-adv-x="911" 
d="M170 262q-45 0 -79.5 18.5t-54 51t-19.5 73.5h89q0 -18 8.5 -32.5t22.5 -22.5t33 -8q28 0 44.5 15.5t16.5 36.5q0 13 -7.5 24t-20.5 17t-32 6h-21v75h21q15 0 29 -1q8 13 8 27q0 15 -11.5 25.5t-30.5 10.5t-31 -11.5t-12 -28.5h-89q0 51 36 84.5t96 33.5q58 0 94.5 -31
t36.5 -77q0 -27 -14 -51q-3 -6 -7 -11q17 -13 28 -30q18 -28 18 -63q0 -37 -19.5 -66.5t-53.5 -47t-79 -17.5zM213 0l357 650h106l-357 -650h-106zM873 0h-91v33q0 29 -13 45t-33.5 26t-44.5 19t-44.5 24t-33.5 41.5t-13 70.5v123h92v-118q0 -27 11.5 -40.5t29 -21.5
t37.5 -16l12 -6v113h91v-293z" />
    <glyph glyph-name="questiondown" unicode="&#xbf;" horiz-adv-x="518" 
d="M255 488q29 0 48 -18.5t19 -46.5q0 -29 -18.5 -47.5t-48.5 -18.5q-29 0 -48 18.5t-19 47.5q0 28 19 46.5t48 18.5zM306 278l2 -144h-46q-34 0 -61 -14t-42.5 -38.5t-15.5 -55.5t16 -56t43 -39t60 -14q34 0 61 15t42.5 41t15.5 59h112q0 -63 -29.5 -111t-81 -75.5
t-120.5 -27.5q-67 0 -119.5 26.5t-82.5 72.5t-30 106t29 104t81 68q28 14 62 19l2 64h102z" />
    <glyph glyph-name="Agrave" unicode="&#xc0;" 
d="M326 707h-94l-97 164h120zM55 0v434q0 67 28 118t79.5 79.5t117.5 28.5q68 0 118.5 -28.5t78.5 -79.5t28 -118v-434h-116v18q0 85 -51 136.5t-146 51.5h-21v-206h-116zM171 312h7q116 0 185 -51q14 -10 26 -23v196q0 34 -14 59t-38.5 39.5t-56.5 14.5t-57 -14.5
t-38.5 -39.5t-13.5 -59v-122z" />
    <glyph glyph-name="Aacute" unicode="&#xc1;" 
d="M232 707l67 164h118l-91 -164h-94zM55 0v434q0 67 28 118t79.5 79.5t117.5 28.5q68 0 118.5 -28.5t78.5 -79.5t28 -118v-434h-116v18q0 85 -51 136.5t-146 51.5h-21v-206h-116zM171 312h7q116 0 185 -51q14 -10 26 -23v196q0 34 -14 59t-38.5 39.5t-56.5 14.5t-57 -14.5
t-38.5 -39.5t-13.5 -59v-122z" />
    <glyph glyph-name="Acircumflex" unicode="&#xc2;" 
d="M341 871l104 -164h-107l-59 102l-58 -102h-105l103 164h122zM55 0v434q0 67 28 118t79.5 79.5t117.5 28.5q68 0 118.5 -28.5t78.5 -79.5t28 -118v-434h-116v18q0 85 -51 136.5t-146 51.5h-21v-206h-116zM171 312h7q116 0 185 -51q14 -10 26 -23v196q0 34 -14 59
t-38.5 39.5t-56.5 14.5t-57 -14.5t-38.5 -39.5t-13.5 -59v-122z" />
    <glyph glyph-name="Atilde" unicode="&#xc3;" 
d="M120 707v61q0 52 24 79.5t65 27.5q23 0 39.5 -8.5t29 -20.5t22.5 -24.5t19 -21t18 -8.5q11 0 15.5 7.5t4.5 22.5v49h83v-60q0 -52 -24 -79.5t-65 -27.5q-23 0 -39.5 8.5t-29.5 20.5t-22.5 24t-18 20.5t-18.5 8.5q-20 0 -20 -30v-49h-83zM55 0v434q0 67 28 118t79.5 79.5
t117.5 28.5q68 0 118.5 -28.5t78.5 -79.5t28 -118v-434h-116v18q0 85 -51 136.5t-146 51.5h-21v-206h-116zM171 312h7q116 0 185 -51q14 -10 26 -23v196q0 34 -14 59t-38.5 39.5t-56.5 14.5t-57 -14.5t-38.5 -39.5t-13.5 -59v-122z" />
    <glyph glyph-name="Adieresis" unicode="&#xc4;" 
d="M185 722q-27 0 -45 17.5t-18 43.5q0 27 17.5 45t45.5 18q29 0 46.5 -17.5t17.5 -44.5t-17.5 -44.5t-46.5 -17.5zM375 722q-28 0 -46 17.5t-18 43.5q0 27 18 45t46 18q29 0 46.5 -17.5t17.5 -44.5t-17.5 -44.5t-46.5 -17.5zM55 0v434q0 67 28 118t79.5 79.5t117.5 28.5
q68 0 118.5 -28.5t78.5 -79.5t28 -118v-434h-116v18q0 85 -51 136.5t-146 51.5h-21v-206h-116zM171 312h7q116 0 185 -51q14 -10 26 -23v196q0 34 -14 59t-38.5 39.5t-56.5 14.5t-57 -14.5t-38.5 -39.5t-13.5 -59v-122z" />
    <glyph glyph-name="Aring" unicode="&#xc5;" 
d="M55 0v434q0 88 47 147q30 36 71 56q-1 1 -2 3q-23 30 -23 69q0 54 37.5 88.5t94.5 34.5q38 0 67.5 -16t47 -44t17.5 -63q0 -40 -22 -70q-1 -1 -2 -3q41 -19 70 -55q47 -60 47 -147v-434h-116v18q0 85 -51 136.5t-146 51.5h-21v-206h-116zM280 660q24 0 37.5 13.5
t13.5 35.5t-13.5 36t-37.5 14q-23 0 -37 -14t-14 -36q0 -21 14 -35t37 -14zM171 312h7q116 0 185 -51q14 -10 26 -23v196q0 34 -14 59t-38.5 39.5t-56.5 14.5t-57 -14.5t-38.5 -39.5t-13.5 -59v-122z" />
    <glyph glyph-name="AE" unicode="&#xc6;" horiz-adv-x="773" 
d="M55 0v430q0 66 28 115.5t79.5 77t117.5 27.5h456v-105h-247v-242q26 28 61 47q60 32 141 32h17v-105h-20q-92 0 -146 -48q-53 -46 -55 -124h249v-105h-361v175h-203v-175h-117zM172 284h203v261h-95q-31 -1 -56 -15.5t-38.5 -38.5t-13.5 -55v-152z" />
    <glyph glyph-name="Ccedilla" unicode="&#xc7;" horiz-adv-x="742" 
d="M34 325q0 71 26 131.5t73 106.5t109 71.5t134 25.5q81 0 151 -34t118 -93t64 -137h-122q-15 46 -46.5 80.5t-74 54t-90.5 19.5q-47 0 -87 -17t-70 -48t-47.5 -72t-17.5 -88t17.5 -88t47.5 -72t70 -48t87 -17q53 0 98 22.5t76.5 62.5t41.5 91h121q-8 -61 -36.5 -112.5
t-73.5 -90t-101 -60.5q-36 -14 -75 -20v-128h-106l11 128q-49 5 -92 24q-62 25 -108 71t-72 106.5t-26 130.5z" />
    <glyph glyph-name="Egrave" unicode="&#xc8;" horiz-adv-x="461" 
d="M295 707h-94l-97 164h120zM63 0v650h361v-105h-247v-243q26 28 60 47q60 32 142 32h16v-104h-19q-92 0 -146 -49q-51 -46 -54 -123h248v-105h-361z" />
    <glyph glyph-name="Eacute" unicode="&#xc9;" horiz-adv-x="461" 
d="M191 707l67 164h118l-90 -164h-95zM63 0v650h361v-105h-247v-243q26 28 60 47q60 32 142 32h16v-104h-19q-92 0 -146 -49q-51 -46 -54 -123h248v-105h-361z" />
    <glyph glyph-name="Ecircumflex" unicode="&#xca;" horiz-adv-x="461" 
d="M300 871l105 -164h-107l-59 102l-58 -102h-106l104 164h121zM63 0v650h361v-105h-247v-243q26 28 60 47q60 32 142 32h16v-104h-19q-92 0 -146 -49q-51 -46 -54 -123h248v-105h-361z" />
    <glyph glyph-name="Edieresis" unicode="&#xcb;" horiz-adv-x="461" 
d="M145 722q-27 0 -45 17.5t-18 43.5q0 27 17.5 45t45.5 18q29 0 46.5 -17.5t17.5 -44.5t-17.5 -44.5t-46.5 -17.5zM335 722q-28 0 -46 17.5t-18 43.5q0 27 18 45t46 18t45.5 -17.5t17.5 -44.5t-17.5 -44.5t-45.5 -17.5zM63 0v650h361v-105h-247v-243q26 28 60 47
q60 32 142 32h16v-104h-19q-92 0 -146 -49q-51 -46 -54 -123h248v-105h-361z" />
    <glyph glyph-name="Igrave" unicode="&#xcc;" horiz-adv-x="243" 
d="M168 707h-95l-97 164h120zM180 0h-117v650h117v-650z" />
    <glyph glyph-name="Iacute" unicode="&#xcd;" horiz-adv-x="243" 
d="M75 707l66 164h119l-91 -164h-94zM180 0h-117v650h117v-650z" />
    <glyph glyph-name="Icircumflex" unicode="&#xce;" horiz-adv-x="243" 
d="M182 871l104 -164h-106l-59 102l-59 -102h-105l103 164h122zM180 0h-117v650h117v-650z" />
    <glyph glyph-name="Idieresis" unicode="&#xcf;" horiz-adv-x="243" 
d="M27 722q-28 0 -46 17.5t-18 43.5q0 27 18 45t46 18t45.5 -17.5t17.5 -44.5t-17.5 -44.5t-45.5 -17.5zM216 722q-27 0 -45 17.5t-18 43.5q0 27 18 45t45 18q29 0 46.5 -17.5t17.5 -44.5t-17.5 -44.5t-46.5 -17.5zM180 0h-117v650h117v-650z" />
    <glyph glyph-name="Eth" unicode="&#xd0;" horiz-adv-x="583" 
d="M82 0v278h-73v95h73v277h107q106 0 187 -41.5t127 -114.5t46 -169q0 -95 -46 -168.5t-127 -115t-187 -41.5h-107zM302 278h-103v-167h13q63 0 112 28.5t77 76.5t28 109t-28 109.5t-77 76.5t-112 28h-13v-166h103v-95z" />
    <glyph glyph-name="Ntilde" unicode="&#xd1;" horiz-adv-x="582" 
d="M130 707v61q0 52 24 79.5t65 27.5q22 0 39 -8.5t29.5 -20.5t22.5 -24.5t18.5 -21t18.5 -8.5t15 7.5t5 22.5v49h83v-60q0 -52 -24 -79.5t-65 -27.5q-23 0 -40 8.5t-29.5 20.5t-22.5 24t-18.5 20.5t-17.5 8.5q-20 0 -20 -30v-49h-83zM63 0v650h110q49 -124 111 -223
q52 -81 120 -154v377h116v-650h-118v124q-49 46 -91 95q-50 57 -91 120q-22 34 -41 69v-408h-116z" />
    <glyph glyph-name="Ograve" unicode="&#xd2;" horiz-adv-x="751" 
d="M422 707h-94l-98 164h120zM34 325q0 71 26 131.5t73 106.5t109 71.5t134 25.5q71 0 133 -25.5t109 -71.5t73.5 -106.5t26.5 -131.5t-26.5 -131.5t-73.5 -106.5t-109 -71.5t-133 -25.5q-72 0 -134 25.5t-109 71.5t-73 106.5t-26 131.5zM154 325q0 -47 17.5 -88t47.5 -72
t70 -48t87 -17q46 0 86 17t70.5 48t47.5 72t17 88t-17 88t-47.5 72t-70.5 48t-86 17q-47 0 -87 -17t-70 -48t-47.5 -72t-17.5 -88z" />
    <glyph glyph-name="Oacute" unicode="&#xd3;" horiz-adv-x="751" 
d="M328 707l66 164h119l-91 -164h-94zM34 325q0 71 26 131.5t73 106.5t109 71.5t134 25.5q71 0 133 -25.5t109 -71.5t73.5 -106.5t26.5 -131.5t-26.5 -131.5t-73.5 -106.5t-109 -71.5t-133 -25.5q-72 0 -134 25.5t-109 71.5t-73 106.5t-26 131.5zM154 325q0 -47 17.5 -88
t47.5 -72t70 -48t87 -17q46 0 86 17t70.5 48t47.5 72t17 88t-17 88t-47.5 72t-70.5 48t-86 17q-47 0 -87 -17t-70 -48t-47.5 -72t-17.5 -88z" />
    <glyph glyph-name="Ocircumflex" unicode="&#xd4;" horiz-adv-x="751" 
d="M436 871l104 -164h-106l-59 102l-59 -102h-105l104 164h121zM34 325q0 71 26 131.5t73 106.5t109 71.5t134 25.5q71 0 133 -25.5t109 -71.5t73.5 -106.5t26.5 -131.5t-26.5 -131.5t-73.5 -106.5t-109 -71.5t-133 -25.5q-72 0 -134 25.5t-109 71.5t-73 106.5t-26 131.5z
M154 325q0 -47 17.5 -88t47.5 -72t70 -48t87 -17q46 0 86 17t70.5 48t47.5 72t17 88t-17 88t-47.5 72t-70.5 48t-86 17q-47 0 -87 -17t-70 -48t-47.5 -72t-17.5 -88z" />
    <glyph glyph-name="Otilde" unicode="&#xd5;" horiz-adv-x="751" 
d="M216 707v61q0 52 23.5 79.5t65.5 27.5q22 0 38.5 -8.5t29.5 -20.5t23 -24.5t18.5 -21t18.5 -8.5t15 7.5t5 22.5v49h83v-60q0 -52 -24 -79.5t-65 -27.5q-23 0 -40 8.5t-29.5 20.5t-22.5 24t-18.5 20.5t-17.5 8.5q-20 0 -20 -30v-49h-83zM34 325q0 71 26 131.5t73 106.5
t109 71.5t134 25.5q71 0 133 -25.5t109 -71.5t73.5 -106.5t26.5 -131.5t-26.5 -131.5t-73.5 -106.5t-109 -71.5t-133 -25.5q-72 0 -134 25.5t-109 71.5t-73 106.5t-26 131.5zM154 325q0 -47 17.5 -88t47.5 -72t70 -48t87 -17q46 0 86 17t70.5 48t47.5 72t17 88t-17 88
t-47.5 72t-70.5 48t-86 17q-47 0 -87 -17t-70 -48t-47.5 -72t-17.5 -88z" />
    <glyph glyph-name="Odieresis" unicode="&#xd6;" horiz-adv-x="751" 
d="M281 722q-28 0 -46 17.5t-18 43.5q0 27 18 45t46 18t45.5 -17.5t17.5 -44.5t-17.5 -44.5t-45.5 -17.5zM471 722q-28 0 -46 17.5t-18 43.5q0 27 18 45t46 18t45.5 -17.5t17.5 -44.5t-17.5 -44.5t-45.5 -17.5zM34 325q0 71 26 131.5t73 106.5t109 71.5t134 25.5
q71 0 133 -25.5t109 -71.5t73.5 -106.5t26.5 -131.5t-26.5 -131.5t-73.5 -106.5t-109 -71.5t-133 -25.5q-72 0 -134 25.5t-109 71.5t-73 106.5t-26 131.5zM154 325q0 -47 17.5 -88t47.5 -72t70 -48t87 -17q46 0 86 17t70.5 48t47.5 72t17 88t-17 88t-47.5 72t-70.5 48
t-86 17q-47 0 -87 -17t-70 -48t-47.5 -72t-17.5 -88z" />
    <glyph glyph-name="multiply" unicode="&#xd7;" horiz-adv-x="486" 
d="M59 198l119 119l-119 119l66 65l118 -119l119 119l64 -64l-119 -120l119 -119l-64 -65l-120 119l-118 -119z" />
    <glyph glyph-name="Oslash" unicode="&#xd8;" horiz-adv-x="751" 
d="M376 -10q-72 0 -134 26q-30 12 -56 29l-40 -45h-129l97 107q-33 39 -54 87q-26 60 -26 131t26 131.5t73 106.5t109 71.5t134 25.5q71 0 133 -26q30 -12 56 -29l40 45h129l-97 -107q34 -39 54 -87q27 -60 27 -131t-26.5 -131.5t-73.5 -106.5t-109 -71.5t-133 -25.5z
M489 523q-13 7 -26 13q-40 17 -87 17t-87.5 -17.5t-71.5 -48.5t-48.5 -72.5t-17.5 -89.5t17 -89q10 -23 24 -43zM376 97q47 0 87.5 17.5t71 48.5t48 72.5t17.5 89.5t-17 89q-10 23 -23 43l-297 -330q12 -7 25 -13q41 -17 88 -17z" />
    <glyph glyph-name="Ugrave" unicode="&#xd9;" horiz-adv-x="561" 
d="M327 707h-94l-97 164h119zM281 104q32 0 55.5 14t37.5 38t14 56v438h118v-438q0 -66 -28 -116t-78.5 -78t-118.5 -28t-119 28t-79 78t-28 116v438h118v-438q0 -32 13.5 -56t38 -38t56.5 -14z" />
    <glyph glyph-name="Uacute" unicode="&#xda;" horiz-adv-x="561" 
d="M233 707l66 164h119l-91 -164h-94zM281 104q32 0 55.5 14t37.5 38t14 56v438h118v-438q0 -66 -28 -116t-78.5 -78t-118.5 -28t-119 28t-79 78t-28 116v438h118v-438q0 -32 13.5 -56t38 -38t56.5 -14z" />
    <glyph glyph-name="Ucircumflex" unicode="&#xdb;" horiz-adv-x="561" 
d="M341 871l104 -164h-106l-59 102l-59 -102h-105l104 164h121zM281 104q32 0 55.5 14t37.5 38t14 56v438h118v-438q0 -66 -28 -116t-78.5 -78t-118.5 -28t-119 28t-79 78t-28 116v438h118v-438q0 -32 13.5 -56t38 -38t56.5 -14z" />
    <glyph glyph-name="Udieresis" unicode="&#xdc;" horiz-adv-x="561" 
d="M186 722q-28 0 -46 17.5t-18 43.5q0 27 18 45t46 18t46 -17.5t18 -44.5t-18 -44.5t-46 -17.5zM376 722q-28 0 -46 17.5t-18 43.5q0 27 18 45t46 18t45.5 -17.5t17.5 -44.5t-17.5 -44.5t-45.5 -17.5zM281 104q32 0 55.5 14t37.5 38t14 56v438h118v-438q0 -66 -28 -116
t-78.5 -78t-118.5 -28t-119 28t-79 78t-28 116v438h118v-438q0 -32 13.5 -56t38 -38t56.5 -14z" />
    <glyph glyph-name="Yacute" unicode="&#xdd;" horiz-adv-x="527" 
d="M230 707l67 164h118l-90 -164h-95zM216 0l49 179q-59 6 -106 31q-61 33 -95 94.5t-34 147.5q0 44 8 91t24 107h114q-17 -65 -24 -109t-7 -86q0 -81 42 -124q40 -41 108 -43l99 362h117l-171 -650h-124z" />
    <glyph glyph-name="Thorn" unicode="&#xde;" horiz-adv-x="527" 
d="M63 0v650h117v-94h76q74 0 129.5 -24.5t86.5 -68.5t31 -101q0 -52 -17.5 -87.5t-46.5 -58.5t-63 -39.5t-68.5 -31.5t-63.5 -33.5t-46.5 -44.5t-17.5 -67h-117zM180 189q22 14 45 26q30 14 58 26t50.5 26.5t36 35.5t13.5 52q0 42 -33 67t-89 25h-81v-258z" />
    <glyph glyph-name="germandbls" unicode="&#xdf;" horiz-adv-x="596" 
d="M52 0v432q0 70 27 121t76 79t118 28q60 0 103 -21t66.5 -55.5t23.5 -75.5q0 -33 -9.5 -56.5t-22.5 -40t-23 -30.5t-10 -28q0 -18 17 -31t42.5 -26.5t50.5 -31.5t42 -46t17 -71q0 -66 -45 -106.5t-120 -40.5h-136v92h127q31 0 47.5 15t16.5 41q0 24 -17 40t-42 29
t-50.5 27.5t-42.5 35t-17 51.5q0 27 10.5 47.5t24 38t24 35t10.5 38.5q0 32 -23 51.5t-64 19.5q-51 0 -79 -34t-28 -91v-436h-114z" />
    <glyph glyph-name="agrave" unicode="&#xe0;" horiz-adv-x="503" 
d="M301 536h-95l-97 164h120zM216 -10q-53 0 -95 19.5t-65.5 54t-23.5 79.5t23.5 79.5t65.5 53.5t97 19q75 0 122 -34v42q0 43 -23.5 67t-64.5 24q-32 0 -54.5 -15.5t-29.5 -42.5h-111q6 45 32.5 79t68.5 53.5t93 19.5q94 0 148 -53t54 -144v-291h-104v36q-1 -2 -2 -3
q-49 -43 -131 -43zM240 72q45 0 72.5 20.5t27.5 54.5t-27 53t-73 19q-45 0 -72 -19.5t-27 -53.5t27 -54t72 -20z" />
    <glyph glyph-name="aacute" unicode="&#xe1;" horiz-adv-x="503" 
d="M203 536l67 164h118l-91 -164h-94zM216 -10q-53 0 -95 19.5t-65.5 54t-23.5 79.5t23.5 79.5t65.5 53.5t97 19q75 0 122 -34v42q0 43 -23.5 67t-64.5 24q-32 0 -54.5 -15.5t-29.5 -42.5h-111q6 45 32.5 79t68.5 53.5t93 19.5q94 0 148 -53t54 -144v-291h-104v36
q-1 -2 -2 -3q-49 -43 -131 -43zM240 72q45 0 72.5 20.5t27.5 54.5t-27 53t-73 19q-45 0 -72 -19.5t-27 -53.5t27 -54t72 -20z" />
    <glyph glyph-name="acircumflex" unicode="&#xe2;" horiz-adv-x="503" 
d="M315 700l104 -164h-107l-59 102l-58 -102h-105l103 164h122zM216 -10q-53 0 -95 19.5t-65.5 54t-23.5 79.5t23.5 79.5t65.5 53.5t97 19q75 0 122 -34v42q0 43 -23.5 67t-64.5 24q-32 0 -54.5 -15.5t-29.5 -42.5h-111q6 45 32.5 79t68.5 53.5t93 19.5q94 0 148 -53
t54 -144v-291h-104v36q-1 -2 -2 -3q-49 -43 -131 -43zM240 72q45 0 72.5 20.5t27.5 54.5t-27 53t-73 19q-45 0 -72 -19.5t-27 -53.5t27 -54t72 -20z" />
    <glyph glyph-name="atilde" unicode="&#xe3;" horiz-adv-x="503" 
d="M94 536v61q0 52 24 79.5t65 27.5q23 0 39.5 -8.5t29 -20.5t22.5 -24.5t19 -21t18 -8.5q11 0 15.5 7.5t4.5 22.5v49h83v-60q0 -53 -23.5 -80.5t-65.5 -27.5q-23 0 -39.5 8.5t-29 21t-22.5 24.5t-18.5 20.5t-18.5 8.5q-20 0 -20 -30v-49h-83zM216 -10q-53 0 -95 19.5
t-65.5 54t-23.5 79.5t23.5 79.5t65.5 53.5t97 19q75 0 122 -34v42q0 43 -23.5 67t-64.5 24q-32 0 -54.5 -15.5t-29.5 -42.5h-111q6 45 32.5 79t68.5 53.5t93 19.5q94 0 148 -53t54 -144v-291h-104v36q-1 -2 -2 -3q-49 -43 -131 -43zM240 72q45 0 72.5 20.5t27.5 54.5t-27 53
t-73 19q-45 0 -72 -19.5t-27 -53.5t27 -54t72 -20z" />
    <glyph glyph-name="adieresis" unicode="&#xe4;" horiz-adv-x="503" 
d="M159 550q-27 0 -45 18t-18 44q0 27 18 44.5t45 17.5q29 0 46.5 -17t17.5 -44t-17.5 -45t-46.5 -18zM349 550q-27 0 -45 18t-18 44q0 27 17.5 44.5t45.5 17.5q29 0 46.5 -17t17.5 -44t-17.5 -45t-46.5 -18zM216 -10q-53 0 -95 19.5t-65.5 54t-23.5 79.5t23.5 79.5
t65.5 53.5t97 19q75 0 122 -34v42q0 43 -23.5 67t-64.5 24q-32 0 -54.5 -15.5t-29.5 -42.5h-111q6 45 32.5 79t68.5 53.5t93 19.5q94 0 148 -53t54 -144v-291h-104v36q-1 -2 -2 -3q-49 -43 -131 -43zM240 72q45 0 72.5 20.5t27.5 54.5t-27 53t-73 19q-45 0 -72 -19.5
t-27 -53.5t27 -54t72 -20z" />
    <glyph glyph-name="aring" unicode="&#xe5;" horiz-adv-x="503" 
d="M216 -10q-53 0 -95 19.5t-65.5 54t-23.5 79.5t23.5 79.5t65.5 53.5t97 19q75 0 122 -34v42q0 43 -23.5 67t-64.5 24q-32 0 -54.5 -15.5t-29.5 -42.5h-111q8 58 49 97q21 20 48 33q-1 3 -3 5q-21 30 -21 67q0 53 37 88t94 35q38 0 67.5 -16.5t47 -44t17.5 -62.5
q0 -38 -22 -68q-3 -5 -7 -9q31 -17 52 -46q37 -50 37 -124v-291h-104v36q-1 -2 -2 -3q-49 -43 -131 -43zM261 488q24 0 37.5 13.5t13.5 36.5q0 21 -13.5 35t-37.5 14q-23 0 -37 -13.5t-14 -35.5t14 -36t37 -14zM240 72q45 0 72.5 20.5t27.5 54.5t-27 53t-73 19
q-45 0 -72 -19.5t-27 -53.5t27 -54t72 -20z" />
    <glyph glyph-name="ae" unicode="&#xe6;" horiz-adv-x="864" 
d="M595 -10q-68 0 -123 34q-13 8 -26 17v-41h-94v38l-5 -5q-49 -43 -131 -43q-53 0 -95 19.5t-65.5 54t-23.5 79.5t23.5 79.5t65.5 53.5t97 19q75 0 122 -34v42q0 43 -23.5 67t-64.5 24q-32 0 -54.5 -15t-29.5 -43h-111q7 45 33.5 79.5t68 53.5t92.5 19q88 0 137 -52
q14 -15 23 -32q26 30 59 51q54 33 121 33q69 0 124 -31t86.5 -85t31.5 -123v-30h-383q1 -36 19 -66q18 -32 50 -50.5t70 -18.5q44 0 77 17t55 51h110q-17 -49 -52 -85t-82 -56.5t-102 -20.5zM721 292q-4 24 -16 44q-18 29 -48 45.5t-69 16.5q-38 0 -69.5 -19t-49.5 -50
q-11 -17 -15 -37h267zM240 72q45 0 72.5 20.5t27.5 54.5t-27 53t-73 19q-45 0 -72 -19.5t-27 -53.5t27 -54t72 -20z" />
    <glyph glyph-name="ccedilla" unicode="&#xe7;" horiz-adv-x="564" 
d="M232 -135l10 128q-46 8 -86 31q-56 33 -90 89.5t-34 125.5q0 70 34 126.5t92 89.5t129 33q63 0 115 -25t87 -70t45 -105h-112q-16 45 -52 71t-83 26q-40 0 -72.5 -19.5t-51 -52.5t-18.5 -74t18.5 -74t51 -52.5t72.5 -19.5q33 0 61 13t48 36.5t28 54.5h112
q-10 -60 -44 -106t-84 -72q-33 -18 -71 -25v-129h-105z" />
    <glyph glyph-name="egrave" unicode="&#xe8;" 
d="M334 536h-94l-97 164h119zM285 -10q-73 0 -130.5 33.5t-90 90t-32.5 125.5t33 125.5t90 90t128 33.5t126 -30.5t87.5 -84.5t32.5 -124v-30h-384q2 -38 20 -68q19 -32 51 -49.5t69 -17.5q42 0 75.5 17t55.5 51h110q-16 -48 -51.5 -84.5t-84 -57t-105.5 -20.5zM416 292
q-4 25 -16 45q-18 29 -48.5 45t-68.5 16q-36 0 -67.5 -18.5t-50.5 -49.5q-11 -18 -16 -38h267z" />
    <glyph glyph-name="eacute" unicode="&#xe9;" 
d="M240 536l66 164h119l-91 -164h-94zM285 -10q-73 0 -130.5 33.5t-90 90t-32.5 125.5t33 125.5t90 90t128 33.5t126 -30.5t87.5 -84.5t32.5 -124v-30h-384q2 -38 20 -68q19 -32 51 -49.5t69 -17.5q42 0 75.5 17t55.5 51h110q-16 -48 -51.5 -84.5t-84 -57t-105.5 -20.5z
M416 292q-4 25 -16 45q-18 29 -48.5 45t-68.5 16q-36 0 -67.5 -18.5t-50.5 -49.5q-11 -18 -16 -38h267z" />
    <glyph glyph-name="ecircumflex" unicode="&#xea;" 
d="M348 700l104 -164h-106l-59 102l-59 -102h-105l104 164h121zM285 -10q-73 0 -130.5 33.5t-90 90t-32.5 125.5t33 125.5t90 90t128 33.5t126 -30.5t87.5 -84.5t32.5 -124v-30h-384q2 -38 20 -68q19 -32 51 -49.5t69 -17.5q42 0 75.5 17t55.5 51h110q-16 -48 -51.5 -84.5
t-84 -57t-105.5 -20.5zM416 292q-4 25 -16 45q-18 29 -48.5 45t-68.5 16q-36 0 -67.5 -18.5t-50.5 -49.5q-11 -18 -16 -38h267z" />
    <glyph glyph-name="edieresis" unicode="&#xeb;" 
d="M193 550q-28 0 -46 18t-18 44q0 27 18 44.5t46 17.5t46 -17t18 -44t-18 -45t-46 -18zM383 550q-28 0 -46 18t-18 44q0 27 18 44.5t46 17.5t45.5 -17t17.5 -44t-17.5 -45t-45.5 -18zM285 -10q-73 0 -130.5 33.5t-90 90t-32.5 125.5t33 125.5t90 90t128 33.5t126 -30.5
t87.5 -84.5t32.5 -124v-30h-384q2 -38 20 -68q19 -32 51 -49.5t69 -17.5q42 0 75.5 17t55.5 51h110q-16 -48 -51.5 -84.5t-84 -57t-105.5 -20.5zM416 292q-4 25 -16 45q-18 29 -48.5 45t-68.5 16q-36 0 -67.5 -18.5t-50.5 -49.5q-11 -18 -16 -38h267z" />
    <glyph glyph-name="igrave" unicode="&#xec;" horiz-adv-x="218" 
d="M157 536h-94l-98 164h120zM52 478h114v-478h-114v478z" />
    <glyph glyph-name="iacute" unicode="&#xed;" horiz-adv-x="218" 
d="M63 536l66 164h119l-91 -164h-94zM52 478h114v-478h-114v478z" />
    <glyph glyph-name="icircumflex" unicode="&#xee;" horiz-adv-x="218" 
d="M171 700l104 -164h-106l-60 102l-58 -102h-105l103 164h122zM52 478h114v-478h-114v478z" />
    <glyph glyph-name="idieresis" unicode="&#xef;" horiz-adv-x="218" 
d="M16 550q-28 0 -46 18t-18 44q0 27 18 44.5t46 17.5t46 -17t18 -44t-18 -45t-46 -18zM206 550q-28 0 -46 18t-18 44q0 27 17.5 44.5t46.5 17.5q28 0 45.5 -17t17.5 -44t-17.5 -45t-45.5 -18zM52 478h114v-478h-114v478z" />
    <glyph glyph-name="eth" unicode="&#xf0;" horiz-adv-x="534" 
d="M265 -10q-65 0 -118 29.5t-84 80.5t-31 113q0 61 31 110t83 78t117 29q24 0 47 -6l-52 81l-138 -40v76l96 28l-53 81h117l33 -53l143 41v-76l-102 -29l79 -124q28 -43 43 -75t20.5 -59.5t5.5 -58.5q0 -63 -31.5 -114.5t-85.5 -81.5t-120 -30zM267 89q35 0 63.5 17t45 45
t16.5 61q0 34 -16.5 62.5t-45 45.5t-63.5 17q-34 0 -62.5 -17t-45.5 -45.5t-17 -62.5t16.5 -62t45.5 -44.5t63 -16.5z" />
    <glyph glyph-name="ntilde" unicode="&#xf1;" horiz-adv-x="516" 
d="M99 536v61q0 52 23.5 79.5t64.5 27.5q23 0 39.5 -8.5t29 -20.5t22.5 -24.5t19 -21t18 -8.5q11 0 16 7.5t5 22.5v49h82v-60q0 -53 -23.5 -80.5t-64.5 -27.5q-24 0 -40.5 8.5t-29 21t-22.5 24.5t-18.5 20.5t-17.5 8.5q-21 0 -21 -30v-49h-82zM52 0v478h105v-50q2 3 4 5
q49 55 131 55q78 0 125.5 -52t47.5 -140v-296h-114v284q0 45 -25 72t-67 27t-67.5 -27t-25.5 -72v-284h-114z" />
    <glyph glyph-name="ograve" unicode="&#xf2;" horiz-adv-x="578" 
d="M335 536h-94l-97 164h120zM289 -10q-72 0 -130.5 33t-92.5 89.5t-34 126.5t34 126.5t92.5 89.5t130.5 33q73 0 131 -33t92 -89.5t34 -126.5t-34 -126.5t-92 -89.5t-131 -33zM289 385q-40 0 -73 -19.5t-52 -53t-19 -73.5t19 -73.5t52 -53t73 -19.5t73 19.5t52 53t19 73.5
t-19 73.5t-52 53t-73 19.5z" />
    <glyph glyph-name="oacute" unicode="&#xf3;" horiz-adv-x="578" 
d="M241 536l67 164h118l-91 -164h-94zM289 -10q-72 0 -130.5 33t-92.5 89.5t-34 126.5t34 126.5t92.5 89.5t130.5 33q73 0 131 -33t92 -89.5t34 -126.5t-34 -126.5t-92 -89.5t-131 -33zM289 385q-40 0 -73 -19.5t-52 -53t-19 -73.5t19 -73.5t52 -53t73 -19.5t73 19.5t52 53
t19 73.5t-19 73.5t-52 53t-73 19.5z" />
    <glyph glyph-name="ocircumflex" unicode="&#xf4;" horiz-adv-x="578" 
d="M350 700l104 -164h-107l-59 102l-58 -102h-105l103 164h122zM289 -10q-72 0 -130.5 33t-92.5 89.5t-34 126.5t34 126.5t92.5 89.5t130.5 33q73 0 131 -33t92 -89.5t34 -126.5t-34 -126.5t-92 -89.5t-131 -33zM289 385q-40 0 -73 -19.5t-52 -53t-19 -73.5t19 -73.5t52 -53
t73 -19.5t73 19.5t52 53t19 73.5t-19 73.5t-52 53t-73 19.5z" />
    <glyph glyph-name="otilde" unicode="&#xf5;" horiz-adv-x="578" 
d="M129 536v61q0 52 24 79.5t65 27.5q23 0 39.5 -8.5t29 -20.5t22.5 -24.5t19 -21t18 -8.5q11 0 15.5 7.5t4.5 22.5v49h83v-60q0 -53 -24 -80.5t-65 -27.5q-23 0 -39.5 8.5t-29 21t-22.5 24.5t-18.5 20.5t-18.5 8.5q-20 0 -20 -30v-49h-83zM289 -10q-72 0 -130.5 33
t-92.5 89.5t-34 126.5t34 126.5t92.5 89.5t130.5 33q73 0 131 -33t92 -89.5t34 -126.5t-34 -126.5t-92 -89.5t-131 -33zM289 385q-40 0 -73 -19.5t-52 -53t-19 -73.5t19 -73.5t52 -53t73 -19.5t73 19.5t52 53t19 73.5t-19 73.5t-52 53t-73 19.5z" />
    <glyph glyph-name="odieresis" unicode="&#xf6;" horiz-adv-x="578" 
d="M195 550q-28 0 -46 18t-18 44q0 27 18 44.5t46 17.5q29 0 46.5 -17t17.5 -44t-17.5 -45t-46.5 -18zM385 550q-28 0 -46 18t-18 44q0 27 18 44.5t46 17.5t45.5 -17t17.5 -44t-17.5 -45t-45.5 -18zM289 -10q-72 0 -130.5 33t-92.5 89.5t-34 126.5t34 126.5t92.5 89.5
t130.5 33q73 0 131 -33t92 -89.5t34 -126.5t-34 -126.5t-92 -89.5t-131 -33zM289 385q-40 0 -73 -19.5t-52 -53t-19 -73.5t19 -73.5t52 -53t73 -19.5t73 19.5t52 53t19 73.5t-19 73.5t-52 53t-73 19.5z" />
    <glyph glyph-name="divide" unicode="&#xf7;" horiz-adv-x="486" 
d="M243 454q-27 0 -45 17t-18 45q0 27 18 44.5t45 17.5q29 0 46.5 -17.5t17.5 -44.5t-17.5 -44.5t-46.5 -17.5zM47 363h392v-92h-392v92zM243 56q-27 0 -45 17t-18 45q0 27 18 44.5t45 17.5q29 0 46.5 -17.5t17.5 -44.5t-17.5 -44.5t-46.5 -17.5z" />
    <glyph glyph-name="oslash" unicode="&#xf8;" horiz-adv-x="597" 
d="M298 -10q-72 0 -130 33q-3 2 -6 3l-23 -26h-113l72 80q-12 15 -22 32q-34 57 -34 127t34 126.5t92 89.5t130 33q73 0 131 -33q3 -1 6 -3l23 26h113l-73 -80q13 -15 23 -32q34 -57 34 -127t-34 -126.5t-92 -89.5t-131 -33zM298 394q-42 0 -77 -21t-55.5 -56t-20.5 -78
t20 -78q2 -2 3 -4l200 221q-32 16 -70 16zM229 100q32 -16 69 -16q44 0 78.5 21t55 56t20.5 78t-21 78l-2 4z" />
    <glyph glyph-name="ugrave" unicode="&#xf9;" horiz-adv-x="505" 
d="M300 536h-95l-97 164h120zM50 478h114v-289q0 -44 24 -70t65 -26t64.5 26t23.5 70v289h114v-282q0 -97 -54.5 -151.5t-147.5 -54.5t-148 54.5t-55 151.5v282z" />
    <glyph glyph-name="uacute" unicode="&#xfa;" horiz-adv-x="505" 
d="M205 536l67 164h118l-90 -164h-95zM50 478h114v-289q0 -44 24 -70t65 -26t64.5 26t23.5 70v289h114v-282q0 -97 -54.5 -151.5t-147.5 -54.5t-148 54.5t-55 151.5v282z" />
    <glyph glyph-name="ucircumflex" unicode="&#xfb;" horiz-adv-x="505" 
d="M313 700l104 -164h-106l-59 102l-59 -102h-105l104 164h121zM50 478h114v-289q0 -44 24 -70t65 -26t64.5 26t23.5 70v289h114v-282q0 -97 -54.5 -151.5t-147.5 -54.5t-148 54.5t-55 151.5v282z" />
    <glyph glyph-name="udieresis" unicode="&#xfc;" horiz-adv-x="505" 
d="M158 550q-28 0 -46 18t-18 44q0 27 18 44.5t46 17.5t45.5 -17t17.5 -44t-17.5 -45t-45.5 -18zM348 550q-28 0 -46 18t-18 44q0 27 18 44.5t46 17.5t45.5 -17t17.5 -44t-17.5 -45t-45.5 -18zM50 478h114v-289q0 -44 24 -70t65 -26t64.5 26t23.5 70v289h114v-282
q0 -97 -54.5 -151.5t-147.5 -54.5t-148 54.5t-55 151.5v282z" />
    <glyph glyph-name="yacute" unicode="&#xfd;" horiz-adv-x="508" 
d="M235 536l66 164h119l-91 -164h-94zM37 257q0 53 8 107.5t25 113.5h114q-18 -70 -26 -121t-8 -97q0 -77 39 -117q31 -32 80 -38l103 373h117l-170 -628h-120l41 147q-43 8 -79 27q-58 32 -91 91t-33 142z" />
    <glyph glyph-name="thorn" unicode="&#xfe;" horiz-adv-x="546" 
d="M52 -150v800h114v-172h74q82 0 143.5 -32t96 -88.5t34.5 -130.5q0 -70 -30 -123t-81 -83.5t-113 -30.5q-67 0 -119 37l-5 3v-180h-114zM166 133q17 -15 34 -25q32 -17 70 -17t67.5 16.5t47 47t17.5 73.5q0 44 -20 78t-56 52.5t-83 18.5h-77v-244z" />
    <glyph glyph-name="ydieresis" unicode="&#xff;" horiz-adv-x="508" 
d="M191 550q-28 0 -46 18t-18 44q0 27 18 44.5t46 17.5t45.5 -17t17.5 -44t-17.5 -45t-45.5 -18zM380 550q-27 0 -45 18t-18 44q0 27 18 44.5t45 17.5q29 0 46.5 -17t17.5 -44t-17.5 -45t-46.5 -18zM37 257q0 53 8 107.5t25 113.5h114q-18 -70 -26 -121t-8 -97
q0 -77 39 -117q31 -32 80 -38l103 373h117l-170 -628h-120l41 147q-43 8 -79 27q-58 32 -91 91t-33 142z" />
    <glyph glyph-name="Amacron" unicode="&#x100;" 
d="M148 820h264v-90h-264v90zM55 0v434q0 67 28 118t79.5 79.5t117.5 28.5q68 0 118.5 -28.5t78.5 -79.5t28 -118v-434h-116v18q0 85 -51 136.5t-146 51.5h-21v-206h-116zM171 312h7q116 0 185 -51q14 -10 26 -23v196q0 34 -14 59t-38.5 39.5t-56.5 14.5t-57 -14.5
t-38.5 -39.5t-13.5 -59v-122z" />
    <glyph glyph-name="amacron" unicode="&#x101;" horiz-adv-x="503" 
d="M122 649h264v-90h-264v90zM216 -10q-53 0 -95 19.5t-65.5 54t-23.5 79.5t23.5 79.5t65.5 53.5t97 19q75 0 122 -34v42q0 43 -23.5 67t-64.5 24q-32 0 -54.5 -15.5t-29.5 -42.5h-111q6 45 32.5 79t68.5 53.5t93 19.5q94 0 148 -53t54 -144v-291h-104v36q-1 -2 -2 -3
q-49 -43 -131 -43zM240 72q45 0 72.5 20.5t27.5 54.5t-27 53t-73 19q-45 0 -72 -19.5t-27 -53.5t27 -54t72 -20z" />
    <glyph glyph-name="Abreve" unicode="&#x102;" 
d="M280 786q33 0 51 16t18 45v24h85v-28q0 -67 -42 -103t-112 -36q-71 0 -112.5 36t-41.5 103v28h85v-24q0 -29 18 -45t51 -16zM55 0v434q0 67 28 118t79.5 79.5t117.5 28.5q68 0 118.5 -28.5t78.5 -79.5t28 -118v-434h-116v18q0 85 -51 136.5t-146 51.5h-21v-206h-116z
M171 312h7q116 0 185 -51q14 -10 26 -23v196q0 34 -14 59t-38.5 39.5t-56.5 14.5t-57 -14.5t-38.5 -39.5t-13.5 -59v-122z" />
    <glyph glyph-name="abreve" unicode="&#x103;" horiz-adv-x="503" 
d="M254 615q33 0 51 16t18 45v24h85v-28q0 -67 -41.5 -103.5t-112.5 -36.5q-70 0 -111.5 36.5t-41.5 103.5v28h85v-24q0 -29 17.5 -45t50.5 -16zM216 -10q-53 0 -95 19.5t-65.5 54t-23.5 79.5t23.5 79.5t65.5 53.5t97 19q75 0 122 -34v42q0 43 -23.5 67t-64.5 24
q-32 0 -54.5 -15.5t-29.5 -42.5h-111q6 45 32.5 79t68.5 53.5t93 19.5q94 0 148 -53t54 -144v-291h-104v36q-1 -2 -2 -3q-49 -43 -131 -43zM240 72q45 0 72.5 20.5t27.5 54.5t-27 53t-73 19q-45 0 -72 -19.5t-27 -53.5t27 -54t72 -20z" />
    <glyph glyph-name="Aogonek" unicode="&#x104;" 
d="M55 0v434q0 67 28 118t79.5 79.5t117.5 28.5q68 0 118.5 -28.5t78.5 -79.5t28 -118v-434q-32 -17 -47.5 -33.5t-15.5 -32.5q0 -12 9.5 -19.5t25.5 -7.5h28v-78h-34q-54 0 -85 24.5t-31 63.5q0 23 11.5 43t37.5 37q2 2 4 3h-19v18q0 85 -51 136.5t-146 51.5h-21v-206h-116
zM171 312h7q116 0 185 -51q14 -10 26 -23v196q0 34 -14 59t-38.5 39.5t-56.5 14.5t-57 -14.5t-38.5 -39.5t-13.5 -59v-122z" />
    <glyph glyph-name="aogonek" unicode="&#x105;" horiz-adv-x="503" 
d="M216 -10q-53 0 -95 19.5t-65.5 54t-23.5 79.5t23.5 79.5t65.5 53.5t97 19q75 0 122 -34v42q0 43 -23.5 67t-64.5 24q-32 0 -54.5 -15.5t-29.5 -42.5h-111q6 45 32.5 79.5t68.5 53.5t93 19q94 0 148 -53t54 -144v-291q-32 -17 -47.5 -33t-15.5 -33q0 -13 9.5 -20t25.5 -7
h28v-78h-34q-52 0 -84 24t-32 64q0 36 28 63q11 11 26 20h-8v36q-1 -2 -2 -3q-49 -43 -131 -43zM240 72q45 0 72.5 20.5t27.5 54.5t-27 53t-73 19q-45 0 -72 -19.5t-27 -53.5t27 -54t72 -20z" />
    <glyph glyph-name="Cacute" unicode="&#x106;" horiz-adv-x="742" 
d="M325 707l67 164h118l-90 -164h-95zM592 276h121q-11 -81 -58.5 -146t-119.5 -102.5t-159 -37.5q-72 0 -134 25.5t-109 71.5t-73 106.5t-26 131.5t26 131.5t73 106.5t109 71.5t134 25.5q82 0 152 -34.5t117.5 -94t63.5 -135.5h-122q-15 45 -45.5 80t-73.5 54.5t-92 19.5
q-47 0 -87 -17t-70 -48t-47.5 -72t-17.5 -88t17.5 -88t47.5 -72t70 -48t87 -17q53 0 98.5 23t76.5 63t41 90z" />
    <glyph glyph-name="cacute" unicode="&#x107;" horiz-adv-x="564" 
d="M234 536l66 164h119l-91 -164h-94zM424 197h112q-10 -61 -45 -107.5t-87.5 -73t-116.5 -26.5q-71 0 -129 33t-92 89.5t-34 126.5t34 126.5t92 89.5t129 33q63 0 114.5 -25t87 -70.5t45.5 -104.5h-112q-15 43 -51 70t-84 27q-39 0 -71.5 -19t-51.5 -52t-19 -75
q0 -41 19 -74t51.5 -52.5t71.5 -19.5q33 0 61 13t48 36.5t28 54.5z" />
    <glyph glyph-name="Ccircumflex" unicode="&#x108;" horiz-adv-x="742" 
d="M434 871l104 -164h-106l-59 102l-59 -102h-105l103 164h122zM592 276h121q-11 -81 -58.5 -146t-119.5 -102.5t-159 -37.5q-72 0 -134 25.5t-109 71.5t-73 106.5t-26 131.5t26 131.5t73 106.5t109 71.5t134 25.5q82 0 152 -34.5t117.5 -94t63.5 -135.5h-122
q-15 45 -45.5 80t-73.5 54.5t-92 19.5q-47 0 -87 -17t-70 -48t-47.5 -72t-17.5 -88t17.5 -88t47.5 -72t70 -48t87 -17q53 0 98.5 23t76.5 63t41 90z" />
    <glyph glyph-name="ccircumflex" unicode="&#x109;" horiz-adv-x="564" 
d="M342 700l104 -164h-106l-59 102l-59 -102h-105l104 164h121zM424 197h112q-10 -61 -45 -107.5t-87.5 -73t-116.5 -26.5q-71 0 -129 33t-92 89.5t-34 126.5t34 126.5t92 89.5t129 33q63 0 114.5 -25t87 -70.5t45.5 -104.5h-112q-15 43 -51 70t-84 27q-39 0 -71.5 -19
t-51.5 -52t-19 -75q0 -41 19 -74t51.5 -52.5t71.5 -19.5q33 0 61 13t48 36.5t28 54.5z" />
    <glyph glyph-name="Cdotaccent" unicode="&#x10a;" horiz-adv-x="742" 
d="M374 722q-32 0 -52.5 19.5t-20.5 50.5t20.5 51t52.5 20q31 0 51.5 -20t20.5 -51q0 -30 -20.5 -50t-51.5 -20zM592 276h121q-11 -81 -58.5 -146t-119.5 -102.5t-159 -37.5q-72 0 -134 25.5t-109 71.5t-73 106.5t-26 131.5t26 131.5t73 106.5t109 71.5t134 25.5
q82 0 152 -34.5t117.5 -94t63.5 -135.5h-122q-15 45 -45.5 80t-73.5 54.5t-92 19.5q-47 0 -87 -17t-70 -48t-47.5 -72t-17.5 -88t17.5 -88t47.5 -72t70 -48t87 -17q53 0 98.5 23t76.5 63t41 90z" />
    <glyph glyph-name="cdotaccent" unicode="&#x10b;" horiz-adv-x="564" 
d="M282 550q-31 0 -52 20t-21 51t20.5 51t52.5 20q31 0 51.5 -20t20.5 -51q0 -30 -20.5 -50.5t-51.5 -20.5zM424 197h112q-10 -61 -45 -107.5t-87.5 -73t-116.5 -26.5q-71 0 -129 33t-92 89.5t-34 126.5t34 126.5t92 89.5t129 33q63 0 114.5 -25t87 -70.5t45.5 -104.5h-112
q-15 43 -51 70t-84 27q-39 0 -71.5 -19t-51.5 -52t-19 -75q0 -41 19 -74t51.5 -52.5t71.5 -19.5q33 0 61 13t48 36.5t28 54.5z" />
    <glyph glyph-name="Ccaron" unicode="&#x10c;" horiz-adv-x="742" 
d="M313 707l-104 164h106l59 -101l59 101h105l-103 -164h-122zM592 276h121q-11 -81 -58.5 -146t-119.5 -102.5t-159 -37.5q-72 0 -134 25.5t-109 71.5t-73 106.5t-26 131.5t26 131.5t73 106.5t109 71.5t134 25.5q82 0 152 -34.5t117.5 -94t63.5 -135.5h-122
q-15 45 -45.5 80t-73.5 54.5t-92 19.5q-47 0 -87 -17t-70 -48t-47.5 -72t-17.5 -88t17.5 -88t47.5 -72t70 -48t87 -17q53 0 98.5 23t76.5 63t41 90z" />
    <glyph glyph-name="ccaron" unicode="&#x10d;" horiz-adv-x="564" 
d="M221 536l-104 164h107l59 -101l58 101h105l-103 -164h-122zM424 197h112q-10 -61 -45 -107.5t-87.5 -73t-116.5 -26.5q-71 0 -129 33t-92 89.5t-34 126.5t34 126.5t92 89.5t129 33q63 0 114.5 -25t87 -70.5t45.5 -104.5h-112q-15 43 -51 70t-84 27q-39 0 -71.5 -19
t-51.5 -52t-19 -75q0 -41 19 -74t51.5 -52.5t71.5 -19.5q33 0 61 13t48 36.5t28 54.5z" />
    <glyph glyph-name="Dcaron" unicode="&#x10e;" horiz-adv-x="563" 
d="M193 707l-105 164h107l59 -101l58 101h106l-104 -164h-121zM63 0v650h107q106 0 187 -41.5t126.5 -114.5t45.5 -169q0 -95 -45.5 -168.5t-126.5 -115t-187 -41.5h-107zM180 111h12q63 0 112 28.5t77 76.5t28 109t-28 109.5t-77 76.5t-112 28h-12v-428z" />
    <glyph glyph-name="dcaron" unicode="&#x10f;" horiz-adv-x="709" 
d="M494 0h-187q-82 0 -144 31.5t-96.5 88.5t-34.5 130q0 69 30 122.5t81 84.5t115 31q65 0 117 -33q3 -2 5 -4v199h114v-650zM575 443v207h107l-20 -207h-87zM380 101v250q-15 11 -32 19q-36 16 -71 16q-39 0 -69 -17.5t-46.5 -49t-16.5 -71.5q0 -43 19.5 -76t55 -52
t81.5 -19h79z" />
    <glyph glyph-name="Dcroat" unicode="&#x110;" horiz-adv-x="583" 
d="M82 0v278h-73v95h73v277h107q106 0 187 -41.5t127 -114.5t46 -169q0 -95 -46 -168.5t-127 -115t-187 -41.5h-107zM302 278h-103v-167h13q63 0 112 28.5t77 76.5t28 109t-28 109.5t-77 76.5t-112 28h-13v-166h103v-95z" />
    <glyph glyph-name="dcroat" unicode="&#x111;" horiz-adv-x="555" 
d="M272 594h108v56h114v-56h79v-72h-79v-522h-188q-81 0 -143 30.5t-96.5 85t-34.5 124.5q0 66 30 117.5t81 81t115 29.5q65 0 117 -33q3 -2 5 -4v91h-108v72zM380 101v231q-16 11 -34 19q-35 16 -71 16q-39 0 -68 -16.5t-45.5 -46t-16.5 -66.5q0 -40 19.5 -71t54 -48.5
t80.5 -17.5h81z" />
    <glyph glyph-name="Emacron" unicode="&#x112;" horiz-adv-x="461" 
d="M108 820h264v-90h-264v90zM63 0v650h361v-105h-247v-243q26 28 60 47q60 32 142 32h16v-104h-19q-92 0 -146 -49q-51 -46 -54 -123h248v-105h-361z" />
    <glyph glyph-name="emacron" unicode="&#x113;" 
d="M156 649h264v-90h-264v90zM285 -10q-73 0 -130.5 33.5t-90 90t-32.5 125.5t33 125.5t90 90t128 33.5t126 -30.5t87.5 -84.5t32.5 -124v-30h-384q2 -38 20 -68q19 -32 51 -49.5t69 -17.5q42 0 75.5 17t55.5 51h110q-16 -48 -51.5 -84.5t-84 -57t-105.5 -20.5zM416 292
q-4 25 -16 45q-18 29 -48.5 45t-68.5 16q-36 0 -67.5 -18.5t-50.5 -49.5q-11 -18 -16 -38h267z" />
    <glyph glyph-name="Ebreve" unicode="&#x114;" horiz-adv-x="461" 
d="M240 786q32 0 50.5 16t18.5 45v24h85v-28q0 -67 -42 -103t-112 -36q-71 0 -112.5 36t-41.5 103v28h85v-24q0 -29 18 -45t51 -16zM63 0v650h361v-105h-247v-243q26 28 60 47q60 32 142 32h16v-104h-19q-92 0 -146 -49q-51 -46 -54 -123h248v-105h-361z" />
    <glyph glyph-name="ebreve" unicode="&#x115;" 
d="M288 615q32 0 50.5 16t18.5 45v24h84v-28q0 -67 -41.5 -103.5t-111.5 -36.5q-71 0 -112.5 36.5t-41.5 103.5v28h85v-24q0 -29 18 -45t51 -16zM285 -10q-73 0 -130.5 33.5t-90 90t-32.5 125.5t33 125.5t90 90t128 33.5t126 -30.5t87.5 -84.5t32.5 -124v-30h-384
q2 -38 20 -68q19 -32 51 -49.5t69 -17.5q42 0 75.5 17t55.5 51h110q-16 -48 -51.5 -84.5t-84 -57t-105.5 -20.5zM416 292q-4 25 -16 45q-18 29 -48.5 45t-68.5 16q-36 0 -67.5 -18.5t-50.5 -49.5q-11 -18 -16 -38h267z" />
    <glyph glyph-name="Edotaccent" unicode="&#x116;" horiz-adv-x="461" 
d="M240 722q-31 0 -51.5 19.5t-20.5 50.5t20.5 51t51.5 20t51.5 -20t20.5 -51q0 -30 -20.5 -50t-51.5 -20zM63 0v650h361v-105h-247v-243q26 28 60 47q60 32 142 32h16v-104h-19q-92 0 -146 -49q-51 -46 -54 -123h248v-105h-361z" />
    <glyph glyph-name="edotaccent" unicode="&#x117;" 
d="M288 550q-31 0 -52 20t-21 51t20.5 51t52.5 20q31 0 51.5 -20t20.5 -51q0 -30 -20.5 -50.5t-51.5 -20.5zM285 -10q-73 0 -130.5 33.5t-90 90t-32.5 125.5t33 125.5t90 90t128 33.5t126 -30.5t87.5 -84.5t32.5 -124v-30h-384q2 -38 20 -68q19 -32 51 -49.5t69 -17.5
q42 0 75.5 17t55.5 51h110q-16 -48 -51.5 -84.5t-84 -57t-105.5 -20.5zM416 292q-4 25 -16 45q-18 29 -48.5 45t-68.5 16q-36 0 -67.5 -18.5t-50.5 -49.5q-11 -18 -16 -38h267z" />
    <glyph glyph-name="Eogonek" unicode="&#x118;" horiz-adv-x="461" 
d="M63 0v650h361v-105h-247v-243q26 28 60 47q60 32 142 32h16v-104h-19q-92 0 -146 -49q-51 -46 -54 -123h248v-105q-33 -17 -48 -33.5t-15 -32.5q0 -12 9 -19.5t26 -7.5h28v-78h-34q-54 0 -85 24.5t-31 63.5q0 23 11.5 43t36.5 37q2 2 5 3h-264z" />
    <glyph glyph-name="eogonek" unicode="&#x119;" 
d="M359 -171h-34q-54 0 -85 25t-31 65q0 22 11 43q9 16 28 30q-51 7 -93 31q-58 34 -90.5 90.5t-32.5 125.5t33 125.5t90 90t128 33.5t126 -30.5t87.5 -84.5t32.5 -124v-30h-384q2 -38 20 -68q19 -32 51 -49.5t69 -17.5q42 0 75.5 17t55.5 51h110q-15 -43 -39 -71.5
t-55 -47.5t-65 -32q-44 -17 -57.5 -33.5t-13.5 -27.5q0 -16 9.5 -24.5t25.5 -8.5h28v-78zM416 292q-4 25 -16 45q-18 29 -48.5 45t-68.5 16q-36 0 -67.5 -18.5t-50.5 -49.5q-11 -18 -16 -38h267z" />
    <glyph glyph-name="Ecaron" unicode="&#x11a;" horiz-adv-x="461" 
d="M180 707l-105 164h107l59 -101l58 101h106l-104 -164h-121zM63 0v650h361v-105h-247v-243q26 28 60 47q60 32 142 32h16v-104h-19q-92 0 -146 -49q-51 -46 -54 -123h248v-105h-361z" />
    <glyph glyph-name="ecaron" unicode="&#x11b;" 
d="M227 536l-104 164h107l59 -101l58 101h105l-103 -164h-122zM285 -10q-73 0 -130.5 33.5t-90 90t-32.5 125.5t33 125.5t90 90t128 33.5t126 -30.5t87.5 -84.5t32.5 -124v-30h-384q2 -38 20 -68q19 -32 51 -49.5t69 -17.5q42 0 75.5 17t55.5 51h110q-16 -48 -51.5 -84.5
t-84 -57t-105.5 -20.5zM416 292q-4 25 -16 45q-18 29 -48.5 45t-68.5 16q-36 0 -67.5 -18.5t-50.5 -49.5q-11 -18 -16 -38h267z" />
    <glyph glyph-name="Gcircumflex" unicode="&#x11c;" horiz-adv-x="760" 
d="M442 871l104 -164h-106l-59 102l-59 -102h-105l104 164h121zM605 0v113q-2 -2 -3 -4q-40 -57 -100 -88t-134 -31q-70 0 -130.5 25.5t-106.5 71.5t-71.5 106.5t-25.5 131.5t26 131.5t73 106.5t109 71.5t134 25.5q82 0 152 -33.5t117.5 -93t63.5 -137.5h-122
q-15 47 -46.5 81t-74 53.5t-90.5 19.5q-47 0 -87 -17t-70 -48t-47.5 -72t-17.5 -88t17.5 -88t47.5 -72t70 -48t87 -17q53 0 98 22.5t76.5 62.5t41.5 91h121v-276h-108z" />
    <glyph glyph-name="gcircumflex" unicode="&#x11d;" horiz-adv-x="518" 
d="M313 700l104 -165h-106l-59 102l-59 -102h-105l104 165h121zM245 86q-64 0 -114 26t-79 71.5t-29 103.5q0 57 29 102.5t79.5 72t112.5 26.5q39 0 74 -10h187v-88l-90 4q17 -14 28 -33q23 -36 23 -82q0 -54 -31 -98q-16 -25 -39 -43l4 -2q40 -19 63 -52.5t23 -78.5
t-21.5 -80t-61.5 -55t-95 -20h-260v103h248q36 0 57 18t21 49q0 30 -21 48t-57 18h-51zM364 287q0 33 -15 58.5t-41.5 40t-60.5 14.5q-32 0 -59 -14.5t-42 -40t-15 -58.5q0 -32 15 -58t42 -40.5t59 -14.5q34 0 60.5 15t41.5 41t15 57z" />
    <glyph glyph-name="Gbreve" unicode="&#x11e;" horiz-adv-x="760" 
d="M382 786q32 0 50 16t18 45v24h85v-28q0 -67 -41.5 -103t-111.5 -36q-71 0 -112.5 36t-41.5 103v28h85v-24q0 -29 18 -45t51 -16zM605 0v113q-2 -2 -3 -4q-40 -57 -100 -88t-134 -31q-70 0 -130.5 25.5t-106.5 71.5t-71.5 106.5t-25.5 131.5t26 131.5t73 106.5t109 71.5
t134 25.5q82 0 152 -33.5t117.5 -93t63.5 -137.5h-122q-15 47 -46.5 81t-74 53.5t-90.5 19.5q-47 0 -87 -17t-70 -48t-47.5 -72t-17.5 -88t17.5 -88t47.5 -72t70 -48t87 -17q53 0 98 22.5t76.5 62.5t41.5 91h121v-276h-108z" />
    <glyph glyph-name="gbreve" unicode="&#x11f;" horiz-adv-x="518" 
d="M251 615q32 0 50.5 16t18.5 45v24h84v-28q0 -67 -41.5 -103.5t-111.5 -36.5q-71 0 -112.5 36.5t-41.5 103.5v28h85v-24q0 -29 18 -45t51 -16zM245 86q-64 0 -114 26t-79 71.5t-29 103.5q0 57 29 102.5t79.5 72t112.5 26.5q39 0 74 -10h187v-88l-90 4q17 -14 28 -33
q23 -36 23 -82q0 -54 -31 -98q-16 -25 -39 -43l4 -2q40 -19 63 -52.5t23 -78.5t-21.5 -80t-61.5 -55t-95 -20h-260v103h248q36 0 57 18t21 49q0 30 -21 48t-57 18h-51zM364 287q0 33 -15 58.5t-41.5 40t-60.5 14.5q-32 0 -59 -14.5t-42 -40t-15 -58.5q0 -32 15 -58t42 -40.5
t59 -14.5q34 0 60.5 15t41.5 41t15 57z" />
    <glyph glyph-name="Gdotaccent" unicode="&#x120;" horiz-adv-x="760" 
d="M382 722q-31 0 -52 19.5t-21 50.5t20.5 51t52.5 20q31 0 51.5 -20t20.5 -51q0 -30 -20.5 -50t-51.5 -20zM605 0v113q-2 -2 -3 -4q-40 -57 -100 -88t-134 -31q-70 0 -130.5 25.5t-106.5 71.5t-71.5 106.5t-25.5 131.5t26 131.5t73 106.5t109 71.5t134 25.5q82 0 152 -33.5
t117.5 -93t63.5 -137.5h-122q-15 47 -46.5 81t-74 53.5t-90.5 19.5q-47 0 -87 -17t-70 -48t-47.5 -72t-17.5 -88t17.5 -88t47.5 -72t70 -48t87 -17q53 0 98 22.5t76.5 62.5t41.5 91h121v-276h-108z" />
    <glyph glyph-name="gdotaccent" unicode="&#x121;" horiz-adv-x="518" 
d="M249 550q-31 0 -51.5 20t-20.5 51t20.5 51t51.5 20q32 0 52.5 -20t20.5 -51q0 -30 -20.5 -50.5t-52.5 -20.5zM245 86q-64 0 -114 26t-79 71.5t-29 103.5q0 57 29 102.5t79.5 72t112.5 26.5q39 0 74 -10h187v-88l-90 4q17 -14 28 -33q23 -36 23 -82q0 -54 -31 -98
q-16 -25 -39 -43l4 -2q40 -19 63 -52.5t23 -78.5t-21.5 -80t-61.5 -55t-95 -20h-260v103h248q36 0 57 18t21 49q0 30 -21 48t-57 18h-51zM364 287q0 33 -15 58.5t-41.5 40t-60.5 14.5q-32 0 -59 -14.5t-42 -40t-15 -58.5q0 -32 15 -58t42 -40.5t59 -14.5q34 0 60.5 15
t41.5 41t15 57z" />
    <glyph glyph-name="uni0122" unicode="&#x122;" horiz-adv-x="760" 
d="M605 0v113q-2 -2 -3 -4q-40 -57 -100 -88t-134 -31q-70 0 -130.5 25.5t-106.5 71.5t-71.5 106.5t-25.5 131.5t26 131.5t73 106.5t109 71.5t134 25.5q82 0 152 -33.5t117.5 -93t63.5 -137.5h-122q-15 47 -46.5 81t-74 53.5t-90.5 19.5q-47 0 -87 -17t-70 -48t-47.5 -72
t-17.5 -88t17.5 -88t47.5 -72t70 -48t87 -17q53 0 98 22.5t76.5 62.5t41.5 91h121v-276h-108zM330 -237q14 28 26 60q3 6 5 12q-14 3 -24 13q-17 16 -17 41t17 42t43 17t43 -17t17 -46q0 -23 -12 -53.5t-36 -68.5h-62z" />
    <glyph glyph-name="uni0123" unicode="&#x123;" horiz-adv-x="518" 
d="M299 736q-14 -29 -26 -60q-3 -6 -5 -12q14 -4 24 -14q17 -16 17 -41t-16.5 -42t-43.5 -17q-25 0 -42.5 17t-17.5 46q0 23 12.5 53.5t35.5 69.5h62zM245 86q-64 0 -114 26t-79 71.5t-29 103.5q0 57 29 102.5t79.5 72t112.5 26.5q39 0 74 -10h187v-88l-90 4q17 -14 28 -33
q23 -36 23 -82q0 -54 -31 -98q-16 -25 -39 -43l4 -2q40 -19 63 -52.5t23 -78.5t-21.5 -80t-61.5 -55t-95 -20h-260v103h248q36 0 57 18t21 49q0 30 -21 48t-57 18h-51zM364 287q0 33 -15 58.5t-41.5 40t-60.5 14.5q-32 0 -59 -14.5t-42 -40t-15 -58.5q0 -32 15 -58t42 -40.5
t59 -14.5q34 0 60.5 15t41.5 41t15 57z" />
    <glyph glyph-name="Hcircumflex" unicode="&#x124;" horiz-adv-x="582" 
d="M352 871l104 -164h-107l-59 102l-58 -102h-105l103 164h122zM63 0v650h117v-360q38 45 96 70q56 25 126 28v262h118v-650h-118v276h-3q-66 0 -115 -29t-76.5 -80t-27.5 -121v-46h-117z" />
    <glyph glyph-name="hcircumflex" unicode="&#x125;" horiz-adv-x="516" 
d="M292 871l104 -164h-107l-59 102l-58 -102h-105l103 164h122zM52 0v650h114v-211q49 49 126 49q78 0 125.5 -52t47.5 -140v-296h-114v284q0 45 -25 72t-67 27t-67.5 -27t-25.5 -72v-284h-114z" />
    <glyph glyph-name="Hbar" unicode="&#x126;" horiz-adv-x="622" 
d="M82 0v459h-77v96h77v95h118v-95h222v95h117v-95h78v-96h-78v-459h-117v266h-4q-66 0 -115 -28t-76 -80t-27 -121v-37h-118zM200 281q38 45 96 70q56 24 126 27v81h-222v-178z" />
    <glyph glyph-name="hbar" unicode="&#x127;" horiz-adv-x="517" 
d="M-19 594h73v56h114v-56h115v-72h-115v-103q48 49 125 49q79 0 126.5 -52t47.5 -140v-276h-114v264q0 45 -25 72t-68 27q-42 0 -67 -27t-25 -72v-264h-114v522h-73v72z" />
    <glyph glyph-name="Itilde" unicode="&#x128;" horiz-adv-x="243" 
d="M-38 707v61q0 52 23.5 79.5t64.5 27.5q23 0 39.5 -8.5t29.5 -20.5t22.5 -24.5t18.5 -21t18 -8.5q11 0 16 7.5t5 22.5v49h82v-60q0 -52 -23.5 -79.5t-64.5 -27.5q-24 0 -40.5 8.5t-29 20.5t-22.5 24t-18.5 20.5t-17.5 8.5q-21 0 -21 -30v-49h-82zM180 0h-117v650h117v-650
z" />
    <glyph glyph-name="itilde" unicode="&#x129;" horiz-adv-x="218" 
d="M-49 536v61q0 52 23.5 79.5t65.5 27.5q22 0 38.5 -8.5t29.5 -20.5t22.5 -24.5t18.5 -21t19 -8.5t15 7.5t5 22.5v49h83v-60q0 -53 -24 -80.5t-65 -27.5q-23 0 -40 8.5t-29.5 21t-22.5 24.5t-18.5 20.5t-17.5 8.5q-20 0 -20 -30v-49h-83zM52 478h114v-478h-114v478z" />
    <glyph glyph-name="Imacron" unicode="&#x12a;" horiz-adv-x="243" 
d="M-11 820h265v-90h-265v90zM180 0h-117v650h117v-650z" />
    <glyph glyph-name="imacron" unicode="&#x12b;" horiz-adv-x="218" 
d="M-22 657h264v-90h-264v90zM52 478h114v-478h-114v478z" />
    <glyph glyph-name="Ibreve" unicode="&#x12c;" horiz-adv-x="243" 
d="M122 786q32 0 50 16t18 45v24h85v-28q0 -67 -41.5 -103t-111.5 -36q-71 0 -112.5 36t-41.5 103v28h85v-24q0 -29 18 -45t51 -16zM180 0h-117v650h117v-650z" />
    <glyph glyph-name="ibreve" unicode="&#x12d;" horiz-adv-x="218" 
d="M110 615q33 0 51 16t18 45v24h85v-28q0 -67 -42 -103.5t-112 -36.5q-71 0 -112 36.5t-41 103.5v28h85v-24q0 -29 17.5 -45t50.5 -16zM52 478h114v-478h-114v478z" />
    <glyph glyph-name="Iogonek" unicode="&#x12e;" horiz-adv-x="243" 
d="M180 -171h-34q-54 0 -85 24.5t-31 63.5q0 23 11.5 43t37.5 37q2 2 4 3h-20v650h117v-650q-32 -17 -47.5 -33.5t-15.5 -32.5q0 -12 9.5 -19.5t25.5 -7.5h28v-78z" />
    <glyph glyph-name="iogonek" unicode="&#x12f;" horiz-adv-x="218" 
d="M109 544q-30 0 -49 18.5t-19 46.5q0 29 19 47t49 18q31 0 49.5 -18t18.5 -47q0 -28 -18.5 -46.5t-49.5 -18.5zM166 -171h-34q-54 0 -85 24.5t-31 63.5q0 23 11.5 43t36.5 37q2 2 5 3h-17v478h114v-478q-33 -17 -48 -33.5t-15 -32.5q0 -12 9.5 -19.5t25.5 -7.5h28v-78z
" />
    <glyph glyph-name="Idotaccent" unicode="&#x130;" horiz-adv-x="243" 
d="M122 722q-32 0 -52.5 19.5t-20.5 50.5t20.5 51t52.5 20q31 0 51.5 -20t20.5 -51q0 -30 -20.5 -50t-51.5 -20zM180 0h-117v650h117v-650z" />
    <glyph glyph-name="dotlessi" unicode="&#x131;" horiz-adv-x="218" 
d="M52 478h114v-478h-114v478z" />
    <glyph glyph-name="IJ" unicode="&#x132;" horiz-adv-x="561" 
d="M180 0h-117v650h117v-650zM261 0v109h25q50 0 77 24.5t27 71.5v338h-129v107h245v-443q0 -98 -58 -152.5t-162 -54.5h-25z" />
    <glyph glyph-name="ij" unicode="&#x133;" horiz-adv-x="424" 
d="M109 544q-30 0 -49 18.5t-19 46.5q0 29 19 47t49 18q31 0 49.5 -18t18.5 -47q0 -28 -18.5 -46.5t-49.5 -18.5zM315 544q-30 0 -49 18.5t-19 46.5q0 29 19 47t49 18q31 0 49.5 -18t18.5 -47q0 -28 -18.5 -46.5t-49.5 -18.5zM52 478h114v-478h-114v478zM258 478h114v-476
q0 -75 -41.5 -113.5t-120.5 -38.5h-20v101h13q29 0 42 13t13 41v473z" />
    <glyph glyph-name="Jcircumflex" unicode="&#x134;" horiz-adv-x="332" 
d="M224 871l105 -164h-107l-59 102l-58 -102h-106l104 164h121zM32 0v109h25q50 0 77 24.5t27 71.5v338h-129v107h246v-443q0 -98 -58 -152.5t-163 -54.5h-25z" />
    <glyph glyph-name="jcircumflex" unicode="&#x135;" horiz-adv-x="218" 
d="M169 700l105 -164h-107l-59 102l-58 -102h-106l104 164h121zM52 478h114v-476q0 -75 -41.5 -113.5t-121.5 -38.5h-19v101h13q29 0 42 13t13 41v473z" />
    <glyph glyph-name="uni0136" unicode="&#x136;" horiz-adv-x="569" 
d="M63 0v650h117v-396l225 396h128l-204 -350q55 -3 98 -26q52 -28 80.5 -77t28.5 -116v-81h-119v73q0 37 -15 64.5t-41.5 43.5t-61.5 16t-62 -16t-42 -43.5t-15 -64.5v-73h-117zM249 -237q15 28 27 60q3 6 5 12q-14 3 -25 13q-17 16 -17 41t17.5 42t42.5 17q27 0 43.5 -17
t16.5 -46q0 -23 -11.5 -53.5t-36.5 -68.5h-62z" />
    <glyph glyph-name="uni0137" unicode="&#x137;" horiz-adv-x="512" 
d="M52 0v650h114v-404l176 232h125l-161 -209q75 -7 119 -50q53 -51 53 -143v-76h-114v77q0 47 -26.5 74t-72.5 27q-45 0 -72 -27t-27 -74v-77h-114zM215 -237q15 28 27 60l4 12q-13 3 -24 13q-17 16 -17 41t17 42t43 17q27 0 43.5 -17t16.5 -46q0 -23 -11.5 -53.5
t-36.5 -68.5h-62z" />
    <glyph glyph-name="Lacute" unicode="&#x139;" horiz-adv-x="430" 
d="M75 707l66 164h119l-91 -164h-94zM401 0h-338v650h117v-543h221v-107z" />
    <glyph glyph-name="lacute" unicode="&#x13a;" horiz-adv-x="253" 
d="M58 707l67 164h118l-91 -164h-94zM232 0h-23q-80 0 -121.5 38.5t-41.5 113.5v498h114v-490q0 -30 14 -44.5t42 -14.5h16v-101z" />
    <glyph glyph-name="uni013B" unicode="&#x13b;" horiz-adv-x="430" 
d="M401 0h-338v650h117v-543h221v-107zM184 -237q15 28 27 60l4 12q-13 3 -24 13q-17 16 -17 41t17 42t43 17q27 0 43.5 -17t16.5 -46q0 -23 -11.5 -53.5t-36.5 -68.5h-62z" />
    <glyph glyph-name="uni013C" unicode="&#x13c;" horiz-adv-x="253" 
d="M232 0h-23q-80 0 -121.5 38.5t-41.5 113.5v498h114v-490q0 -30 14 -44.5t42 -14.5h16v-101zM82 -237q14 28 26 60q2 6 5 12q-14 3 -25 13q-16 16 -16 41t16.5 42t42.5 17q27 0 43.5 -17t16.5 -46q0 -23 -11.5 -53.5t-35.5 -68.5h-62z" />
    <glyph glyph-name="Lcaron" unicode="&#x13d;" horiz-adv-x="439" 
d="M307 444v206h107l-20 -206h-87zM401 0h-338v650h117v-543h221v-107z" />
    <glyph glyph-name="lcaron" unicode="&#x13e;" horiz-adv-x="375" 
d="M232 0h-23q-80 0 -121.5 38.5t-41.5 113.5v498h114v-490q0 -30 14 -44.5t42 -14.5h16v-101zM241 443v207h107l-21 -207h-86z" />
    <glyph glyph-name="Ldot" unicode="&#x13f;" horiz-adv-x="476" 
d="M401 0h-338v650h117v-543h221v-107zM358 264q-29 0 -48.5 19t-19.5 49q0 29 19.5 48t48.5 19q30 0 49.5 -19t19.5 -48q0 -30 -19.5 -49t-49.5 -19z" />
    <glyph glyph-name="ldot" unicode="&#x140;" horiz-adv-x="387" 
d="M232 0h-23q-80 0 -121.5 38.5t-41.5 113.5v498h114v-490q0 -30 14 -44.5t42 -14.5h16v-101zM295 242q-29 0 -49 19t-20 49q0 29 20 48t49 19q30 0 49.5 -19t19.5 -48q0 -30 -19.5 -49t-49.5 -19z" />
    <glyph glyph-name="Lslash" unicode="&#x141;" horiz-adv-x="451" 
d="M339 331l-138 -64v-160h221v-107h-338v213l-74 -35v111l74 34v327h117v-272l138 64v-111z" />
    <glyph glyph-name="lslash" unicode="&#x142;" horiz-adv-x="290" 
d="M262 326l-72 -31v-135q0 -30 14 -44.5t43 -14.5h15v-101h-23q-80 0 -121.5 38.5t-41.5 113.5v94l-61 -27v101l61 26v304h114v-255l72 31v-100z" />
    <glyph glyph-name="Nacute" unicode="&#x143;" horiz-adv-x="582" 
d="M237 707l66 164h119l-91 -164h-94zM63 0v650h110q49 -124 111 -223q52 -81 120 -154v377h116v-650h-118v124q-49 46 -91 95q-50 57 -91 120q-22 34 -41 69v-408h-116z" />
    <glyph glyph-name="nacute" unicode="&#x144;" horiz-adv-x="516" 
d="M210 536l67 164h118l-90 -164h-95zM52 0v478h105v-50q2 3 4 5q49 55 131 55q78 0 125.5 -52t47.5 -140v-296h-114v284q0 45 -25 72t-67 27t-67.5 -27t-25.5 -72v-284h-114z" />
    <glyph glyph-name="uni0145" unicode="&#x145;" horiz-adv-x="582" 
d="M63 0v650h110q49 -124 111 -223q52 -81 120 -154v377h116v-650h-118v124q-49 46 -91 95q-50 57 -91 120q-22 34 -41 69v-408h-116zM242 -237q15 28 27 60l4 12q-13 3 -24 13q-17 16 -17 41t17 42t43 17q27 0 43.5 -17t16.5 -46q0 -23 -11.5 -53.5t-36.5 -68.5h-62z" />
    <glyph glyph-name="uni0146" unicode="&#x146;" horiz-adv-x="516" 
d="M52 0v478h105v-50q2 3 4 5q49 55 131 55q78 0 125.5 -52t47.5 -140v-296h-114v284q0 45 -25 72t-67 27t-67.5 -27t-25.5 -72v-284h-114zM210 -237q15 28 27 60l4 12q-13 3 -24 13q-17 16 -17 41t17 42t43 17q27 0 43.5 -17t16.5 -46q0 -23 -11.5 -53.5t-36.5 -68.5h-62z
" />
    <glyph glyph-name="Ncaron" unicode="&#x147;" horiz-adv-x="582" 
d="M230 707l-105 164h107l59 -101l58 101h106l-104 -164h-121zM63 0v650h110q49 -124 111 -223q52 -81 120 -154v377h116v-650h-118v124q-49 46 -91 95q-50 57 -91 120q-22 34 -41 69v-408h-116z" />
    <glyph glyph-name="ncaron" unicode="&#x148;" horiz-adv-x="516" 
d="M198 536l-104 164h106l59 -101l59 101h105l-103 -164h-122zM52 0v478h105v-50q2 3 4 5q49 55 131 55q78 0 125.5 -52t47.5 -140v-296h-114v284q0 45 -25 72t-67 27t-67.5 -27t-25.5 -72v-284h-114z" />
    <glyph glyph-name="Omacron" unicode="&#x14c;" horiz-adv-x="751" 
d="M244 820h264v-90h-264v90zM34 325q0 71 26 131.5t73 106.5t109 71.5t134 25.5q71 0 133 -25.5t109 -71.5t73.5 -106.5t26.5 -131.5t-26.5 -131.5t-73.5 -106.5t-109 -71.5t-133 -25.5q-72 0 -134 25.5t-109 71.5t-73 106.5t-26 131.5zM154 325q0 -47 17.5 -88t47.5 -72
t70 -48t87 -17q46 0 86 17t70.5 48t47.5 72t17 88t-17 88t-47.5 72t-70.5 48t-86 17q-47 0 -87 -17t-70 -48t-47.5 -72t-17.5 -88z" />
    <glyph glyph-name="omacron" unicode="&#x14d;" horiz-adv-x="578" 
d="M157 649h264v-90h-264v90zM289 -10q-72 0 -130.5 33t-92.5 89.5t-34 126.5t34 126.5t92.5 89.5t130.5 33q73 0 131 -33t92 -89.5t34 -126.5t-34 -126.5t-92 -89.5t-131 -33zM289 385q-40 0 -73 -19.5t-52 -53t-19 -73.5t19 -73.5t52 -53t73 -19.5t73 19.5t52 53t19 73.5
t-19 73.5t-52 53t-73 19.5z" />
    <glyph glyph-name="Obreve" unicode="&#x14e;" horiz-adv-x="751" 
d="M376 786q32 0 50 16t18 45v24h85v-28q0 -67 -41.5 -103t-111.5 -36q-71 0 -112.5 36t-41.5 103v28h85v-24q0 -29 18 -45t51 -16zM34 325q0 71 26 131.5t73 106.5t109 71.5t134 25.5q71 0 133 -25.5t109 -71.5t73.5 -106.5t26.5 -131.5t-26.5 -131.5t-73.5 -106.5
t-109 -71.5t-133 -25.5q-72 0 -134 25.5t-109 71.5t-73 106.5t-26 131.5zM154 325q0 -47 17.5 -88t47.5 -72t70 -48t87 -17q46 0 86 17t70.5 48t47.5 72t17 88t-17 88t-47.5 72t-70.5 48t-86 17q-47 0 -87 -17t-70 -48t-47.5 -72t-17.5 -88z" />
    <glyph glyph-name="obreve" unicode="&#x14f;" horiz-adv-x="578" 
d="M289 615q33 0 51 16t18 45v24h85v-28q0 -67 -42 -103.5t-112 -36.5q-71 0 -112.5 36.5t-41.5 103.5v28h85v-24q0 -29 18 -45t51 -16zM289 -10q-72 0 -130.5 33t-92.5 89.5t-34 126.5t34 126.5t92.5 89.5t130.5 33q73 0 131 -33t92 -89.5t34 -126.5t-34 -126.5t-92 -89.5
t-131 -33zM289 385q-40 0 -73 -19.5t-52 -53t-19 -73.5t19 -73.5t52 -53t73 -19.5t73 19.5t52 53t19 73.5t-19 73.5t-52 53t-73 19.5z" />
    <glyph glyph-name="Ohungarumlaut" unicode="&#x150;" horiz-adv-x="751" 
d="M404 707l71 164h110l-87 -164h-94zM239 707l54 164h106l-70 -164h-90zM34 325q0 71 26 131.5t73 106.5t109 71.5t134 25.5q71 0 133 -25.5t109 -71.5t73.5 -106.5t26.5 -131.5t-26.5 -131.5t-73.5 -106.5t-109 -71.5t-133 -25.5q-72 0 -134 25.5t-109 71.5t-73 106.5
t-26 131.5zM154 325q0 -47 17.5 -88t47.5 -72t70 -48t87 -17q46 0 86 17t70.5 48t47.5 72t17 88t-17 88t-47.5 72t-70.5 48t-86 17q-47 0 -87 -17t-70 -48t-47.5 -72t-17.5 -88z" />
    <glyph glyph-name="ohungarumlaut" unicode="&#x151;" horiz-adv-x="578" 
d="M318 536l71 164h110l-87 -164h-94zM153 536l54 164h105l-70 -164h-89zM289 -10q-72 0 -130.5 33t-92.5 89.5t-34 126.5t34 126.5t92.5 89.5t130.5 33q73 0 131 -33t92 -89.5t34 -126.5t-34 -126.5t-92 -89.5t-131 -33zM289 385q-40 0 -73 -19.5t-52 -53t-19 -73.5
t19 -73.5t52 -53t73 -19.5t73 19.5t52 53t19 73.5t-19 73.5t-52 53t-73 19.5z" />
    <glyph glyph-name="OE" unicode="&#x152;" horiz-adv-x="834" 
d="M551 303q26 28 61 47q60 32 141 32h16v-105h-19q-92 0 -147 -48q-52 -46 -54 -124h249v-105h-407q-77 0 -142.5 24t-113.5 68t-74.5 103.5t-26.5 129.5t26.5 129.5t74.5 103.5t113.5 68t142.5 24h407v-105h-247v-242zM437 106v438h-61q-47 0 -87 -17t-70 -46.5
t-47.5 -69.5t-17.5 -86t17.5 -86t47.5 -69.5t70 -46.5t87 -17h61z" />
    <glyph glyph-name="oe" unicode="&#x153;" horiz-adv-x="961" 
d="M289 -10q-72 0 -130.5 33t-92.5 89.5t-34 126.5t34 126.5t92.5 89.5t130.5 33q54 0 100.5 -20.5t80.5 -58.5q9 -11 18 -23q8 12 18 23q34 38 79.5 58.5t98.5 20.5q71 0 126.5 -31t87.5 -84.5t32 -123.5v-30h-383q1 -36 18 -66q19 -32 50.5 -50.5t70.5 -18.5q43 0 76.5 17
t54.5 51h110q-16 -48 -51.5 -84.5t-84 -57t-105.5 -20.5q-55 0 -101 20.5t-79 58.5q-10 11 -18 23q-9 -12 -18 -23q-34 -38 -80.5 -58.5t-100.5 -20.5zM817 292q-4 24 -16 44q-18 29 -48 45.5t-69 16.5q-37 0 -68.5 -19t-50.5 -50q-10 -17 -15 -37h267zM289 93q40 0 73 19.5
t52 53t19 73.5t-19 73.5t-52 53t-73 19.5t-73 -19.5t-52 -53t-19 -73.5t19 -73.5t52 -53t73 -19.5z" />
    <glyph glyph-name="Racute" unicode="&#x154;" horiz-adv-x="572" 
d="M218 707l67 164h118l-90 -164h-95zM63 0v650h202q75 0 131 -25.5t87.5 -71t31.5 -106.5q0 -38 -10 -68t-27 -52t-38.5 -39.5t-46.5 -31.5q45 -14 77.5 -43.5t50 -70.5t17.5 -92v-50h-120v51q0 37 -15 65t-42 43.5t-62 15.5q-36 0 -62.5 -15.5t-41.5 -43.5t-15 -65v-51
h-117zM180 541v-301q20 19 44 32.5t47.5 25.5t46 24t40 27.5t27.5 36t10 48.5q0 50 -34 78.5t-92 28.5h-89z" />
    <glyph glyph-name="racute" unicode="&#x155;" horiz-adv-x="341" 
d="M129 536l67 164h118l-91 -164h-94zM52 0v478h104v-55q4 6 9 12q49 53 133 53h15v-107h-40q-53 0 -80 -27.5t-27 -81.5v-272h-114z" />
    <glyph glyph-name="uni0156" unicode="&#x156;" horiz-adv-x="572" 
d="M63 0v650h202q75 0 131 -25.5t87.5 -71t31.5 -106.5q0 -38 -10 -68t-27 -52t-38.5 -39.5t-46.5 -31.5q45 -14 77.5 -43.5t50 -70.5t17.5 -92v-50h-120v51q0 37 -15 65t-42 43.5t-62 15.5q-36 0 -62.5 -15.5t-41.5 -43.5t-15 -65v-51h-117zM180 541v-301q20 19 44 32.5
t47.5 25.5t46 24t40 27.5t27.5 36t10 48.5q0 50 -34 78.5t-92 28.5h-89zM247 -237q15 28 27 60l4 12q-14 3 -24 13q-17 16 -17 41t17 42t43 17t43 -17t17 -46q0 -23 -12 -53.5t-36 -68.5h-62z" />
    <glyph glyph-name="uni0157" unicode="&#x157;" horiz-adv-x="341" 
d="M52 0v478h104v-55q4 6 9 12q49 53 133 53h15v-107h-40q-53 0 -80 -27.5t-27 -81.5v-272h-114zM58 -237q15 28 27 60l4 12q-14 3 -24 13q-17 16 -17 41t17 42t43 17t43 -17t17 -46q0 -23 -12 -53.5t-36 -68.5h-62z" />
    <glyph glyph-name="Rcaron" unicode="&#x158;" horiz-adv-x="572" 
d="M206 707l-104 164h106l59 -101l59 101h105l-104 -164h-121zM63 0v650h202q75 0 131 -25.5t87.5 -71t31.5 -106.5q0 -38 -10 -68t-27 -52t-38.5 -39.5t-46.5 -31.5q45 -14 77.5 -43.5t50 -70.5t17.5 -92v-50h-120v51q0 37 -15 65t-42 43.5t-62 15.5q-36 0 -62.5 -15.5
t-41.5 -43.5t-15 -65v-51h-117zM180 541v-301q20 19 44 32.5t47.5 25.5t46 24t40 27.5t27.5 36t10 48.5q0 50 -34 78.5t-92 28.5h-89z" />
    <glyph glyph-name="rcaron" unicode="&#x159;" horiz-adv-x="341" 
d="M111 536l-104 164h106l59 -101l59 101h105l-103 -164h-122zM52 0v478h104v-55q4 6 9 12q49 53 133 53h15v-107h-40q-53 0 -80 -27.5t-27 -81.5v-272h-114z" />
    <glyph glyph-name="Sacute" unicode="&#x15a;" horiz-adv-x="503" 
d="M203 707l67 164h118l-90 -164h-95zM255 -10q-62 0 -113.5 25t-81 70.5t-29.5 109.5h115q0 -30 13.5 -53t38.5 -36t57 -13q44 0 72 24t28 61q0 29 -17 47.5t-45 31.5t-61.5 24.5t-67 26t-61.5 35.5t-44.5 53t-16.5 81q0 50 26.5 91.5t73 66.5t104.5 25q63 0 111 -24.5
t75 -68t27 -101.5h-116q0 41 -27 66t-70 25q-24 0 -44 -10t-32 -27.5t-12 -39.5q0 -28 17 -45.5t45 -30.5t61.5 -24.5t67 -26t61.5 -36.5t45 -55t17 -82q0 -53 -28 -96.5t-76.5 -68.5t-112.5 -25z" />
    <glyph glyph-name="sacute" unicode="&#x15b;" horiz-adv-x="427" 
d="M168 536l67 164h118l-90 -164h-95zM43 0v93h183q29 0 45 13t16 35q0 21 -18.5 32.5t-47 18.5t-61 15.5t-61 23.5t-47 41.5t-18.5 71.5q0 59 43 96.5t115 37.5h182v-93h-178q-26 0 -38.5 -11t-12.5 -29q0 -20 18.5 -31t47 -18t61 -15t61 -23.5t47 -42.5t18.5 -72
q0 -62 -45 -102.5t-125 -40.5h-185z" />
    <glyph glyph-name="Scircumflex" unicode="&#x15c;" horiz-adv-x="503" 
d="M312 871l104 -164h-107l-59 102l-58 -102h-105l103 164h122zM255 -10q-62 0 -113.5 25t-81 70.5t-29.5 109.5h115q0 -30 13.5 -53t38.5 -36t57 -13q44 0 72 24t28 61q0 29 -17 47.5t-45 31.5t-61.5 24.5t-67 26t-61.5 35.5t-44.5 53t-16.5 81q0 50 26.5 91.5t73 66.5
t104.5 25q63 0 111 -24.5t75 -68t27 -101.5h-116q0 41 -27 66t-70 25q-24 0 -44 -10t-32 -27.5t-12 -39.5q0 -28 17 -45.5t45 -30.5t61.5 -24.5t67 -26t61.5 -36.5t45 -55t17 -82q0 -53 -28 -96.5t-76.5 -68.5t-112.5 -25z" />
    <glyph glyph-name="scircumflex" unicode="&#x15d;" horiz-adv-x="427" 
d="M269 700l105 -164h-107l-59 102l-58 -102h-106l104 164h121zM43 0v93h183q29 0 45 13t16 35q0 21 -18.5 32.5t-47 18.5t-61 15.5t-61 23.5t-47 41.5t-18.5 71.5q0 59 43 96.5t115 37.5h182v-93h-178q-26 0 -38.5 -11t-12.5 -29q0 -20 18.5 -31t47 -18t61 -15t61 -23.5
t47 -42.5t18.5 -72q0 -62 -45 -102.5t-125 -40.5h-185z" />
    <glyph glyph-name="Scedilla" unicode="&#x15e;" horiz-adv-x="503" 
d="M203 -135l11 128q-39 6 -72 22q-52 25 -81.5 70.5t-29.5 109.5h115q0 -30 13.5 -53t38.5 -36t57 -13q44 0 72 24t28 61q0 29 -17 47.5t-45 31.5t-61.5 24.5t-67 26t-61.5 35.5t-44.5 53t-16.5 81q0 50 26.5 91.5t73 66.5t104.5 25q63 0 111 -24.5t75 -68t27 -101.5h-116
q0 41 -27 66t-70 25q-24 0 -44 -10t-32 -27.5t-12 -39.5q0 -28 17 -45.5t45 -30.5t61.5 -24.5t67 -26t61.5 -36.5t45 -55t17 -82q0 -53 -27 -95.5t-73 -67.5q-29 -15 -63 -22v-130h-106z" />
    <glyph glyph-name="scedilla" unicode="&#x15f;" horiz-adv-x="427" 
d="M43 0v93h183q29 0 45 13t16 35q0 21 -18.5 32.5t-47 18.5t-61 15.5t-61 23.5t-47 41.5t-18.5 71.5q0 59 43 96.5t115 37.5h182v-93h-178q-26 0 -38.5 -11t-12.5 -29q0 -20 18.5 -31t47 -18t61 -15t61 -23.5t47 -42.5t18.5 -72q0 -62 -45 -103q-36 -32 -94 -38v-137h-105
l11 135h-122z" />
    <glyph glyph-name="Scaron" unicode="&#x160;" horiz-adv-x="503" 
d="M191 707l-104 164h106l59 -101l59 101h105l-104 -164h-121zM255 -10q-62 0 -113.5 25t-81 70.5t-29.5 109.5h115q0 -30 13.5 -53t38.5 -36t57 -13q44 0 72 24t28 61q0 29 -17 47.5t-45 31.5t-61.5 24.5t-67 26t-61.5 35.5t-44.5 53t-16.5 81q0 50 26.5 91.5t73 66.5
t104.5 25q63 0 111 -24.5t75 -68t27 -101.5h-116q0 41 -27 66t-70 25q-24 0 -44 -10t-32 -27.5t-12 -39.5q0 -28 17 -45.5t45 -30.5t61.5 -24.5t67 -26t61.5 -36.5t45 -55t17 -82q0 -53 -28 -96.5t-76.5 -68.5t-112.5 -25z" />
    <glyph glyph-name="scaron" unicode="&#x161;" horiz-adv-x="427" 
d="M152 536l-104 164h106l59 -101l59 101h105l-103 -164h-122zM43 0v93h183q29 0 45 13t16 35q0 21 -18.5 32.5t-47 18.5t-61 15.5t-61 23.5t-47 41.5t-18.5 71.5q0 59 43 96.5t115 37.5h182v-93h-178q-26 0 -38.5 -11t-12.5 -29q0 -20 18.5 -31t47 -18t61 -15t61 -23.5
t47 -42.5t18.5 -72q0 -62 -45 -102.5t-125 -40.5h-185z" />
    <glyph glyph-name="uni0162" unicode="&#x162;" horiz-adv-x="472" 
d="M178 0v552q-30 -1 -59 -4q-53 -4 -95 -10v107q40 6 97.5 10.5t114.5 4.5t114 -4.5t98 -10.5v-107q-30 4 -62.5 7.5t-66.5 5.5q-12 1 -25 1v-552h-116zM185 -237q15 28 27 60q3 6 5 12q-14 3 -25 13q-17 16 -17 41t17.5 42t42.5 17q27 0 43.5 -17t16.5 -46
q0 -23 -11.5 -53.5t-36.5 -68.5h-62z" />
    <glyph glyph-name="uni0163" unicode="&#x163;" horiz-adv-x="338" 
d="M303 378h-144v-204q0 -38 18 -55.5t55 -17.5h72v-101h-80q-87 0 -132.5 43.5t-45.5 126.5v410l113 28v-130h144v-100zM120 -237q14 28 26 60q3 6 5 12q-14 3 -24 13q-17 16 -17 41t17 42t43 17t43 -17t17 -46q0 -23 -12 -53.5t-36 -68.5h-62z" />
    <glyph glyph-name="Tcaron" unicode="&#x164;" horiz-adv-x="472" 
d="M177 707l-104 164h106l59 -101l59 101h105l-104 -164h-121zM178 0v552q-30 -1 -59 -4q-53 -4 -95 -10v107q40 6 97.5 10.5t114.5 4.5t114 -4.5t98 -10.5v-107q-30 4 -62.5 7.5t-66.5 5.5q-12 1 -25 1v-552h-116z" />
    <glyph glyph-name="tcaron" unicode="&#x165;" horiz-adv-x="338" 
d="M224 545v206h108l-21 -206h-87zM303 378h-144v-204q0 -38 18 -55.5t55 -17.5h72v-101h-80q-87 0 -132.5 43.5t-45.5 126.5v410l113 28v-130h144v-100z" />
    <glyph glyph-name="Tbar" unicode="&#x166;" horiz-adv-x="472" 
d="M178 0v258h-115v96h115v198q-30 -1 -59 -4q-53 -4 -95 -10v107q40 6 97.5 10.5t114.5 4.5t114 -4.5t98 -10.5v-107q-30 4 -62 7.5t-67 5.5q-12 0 -25 1v-198h115v-96h-115v-258h-116z" />
    <glyph glyph-name="tbar" unicode="&#x167;" horiz-adv-x="358" 
d="M4 279h62v301l113 28v-130h144v-100h-144v-99h123v-70h-123v-35q0 -38 18 -55.5t55 -17.5h72v-101h-80q-87 0 -132.5 43.5t-45.5 126.5v39h-62v70z" />
    <glyph glyph-name="Utilde" unicode="&#x168;" horiz-adv-x="561" 
d="M121 707v61q0 52 24 79.5t65 27.5q22 0 38.5 -8.5t29.5 -20.5t23 -24.5t18.5 -21t18.5 -8.5t15 7.5t5 22.5v49h83v-60q0 -52 -24 -79.5t-65 -27.5q-23 0 -40 8.5t-29.5 20.5t-22.5 24t-18.5 20.5t-17.5 8.5q-20 0 -20 -30v-49h-83zM281 104q32 0 55.5 14t37.5 38t14 56
v438h118v-438q0 -66 -28 -116t-78.5 -78t-118.5 -28t-119 28t-79 78t-28 116v438h118v-438q0 -32 13.5 -56t38 -38t56.5 -14z" />
    <glyph glyph-name="utilde" unicode="&#x169;" horiz-adv-x="505" 
d="M93 536v61q0 52 23.5 79.5t65.5 27.5q22 0 38.5 -8.5t29.5 -20.5t23 -24.5t18.5 -21t18.5 -8.5t15 7.5t5 22.5v49h83v-60q0 -53 -24 -80.5t-65 -27.5q-23 0 -40 8.5t-29.5 21t-22.5 24.5t-18.5 20.5t-17.5 8.5q-20 0 -20 -30v-49h-83zM50 478h114v-289q0 -44 24 -70
t65 -26t64.5 26t23.5 70v289h114v-282q0 -97 -54.5 -151.5t-147.5 -54.5t-148 54.5t-55 151.5v282z" />
    <glyph glyph-name="Umacron" unicode="&#x16a;" horiz-adv-x="561" 
d="M149 820h264v-90h-264v90zM281 104q32 0 55.5 14t37.5 38t14 56v438h118v-438q0 -66 -28 -116t-78.5 -78t-118.5 -28t-119 28t-79 78t-28 116v438h118v-438q0 -32 13.5 -56t38 -38t56.5 -14z" />
    <glyph glyph-name="umacron" unicode="&#x16b;" horiz-adv-x="505" 
d="M121 649h264v-90h-264v90zM50 478h114v-289q0 -44 24 -70t65 -26t64.5 26t23.5 70v289h114v-282q0 -97 -54.5 -151.5t-147.5 -54.5t-148 54.5t-55 151.5v282z" />
    <glyph glyph-name="Ubreve" unicode="&#x16c;" horiz-adv-x="561" 
d="M281 786q32 0 50.5 16t18.5 45v24h84v-28q0 -67 -41.5 -103t-111.5 -36q-71 0 -112.5 36t-41.5 103v28h85v-24q0 -29 18 -45t51 -16zM281 104q32 0 55.5 14t37.5 38t14 56v438h118v-438q0 -66 -28 -116t-78.5 -78t-118.5 -28t-119 28t-79 78t-28 116v438h118v-438
q0 -32 13.5 -56t38 -38t56.5 -14z" />
    <glyph glyph-name="ubreve" unicode="&#x16d;" horiz-adv-x="505" 
d="M253 615q32 0 50 16t18 45v24h85v-28q0 -67 -41.5 -103.5t-111.5 -36.5q-71 0 -112.5 36.5t-41.5 103.5v28h85v-24q0 -29 18 -45t51 -16zM50 478h114v-289q0 -44 24 -70t65 -26t64.5 26t23.5 70v289h114v-282q0 -97 -54.5 -151.5t-147.5 -54.5t-148 54.5t-55 151.5v282z
" />
    <glyph glyph-name="Uring" unicode="&#x16e;" horiz-adv-x="561" 
d="M281 702q-38 0 -68 16.5t-47 44.5t-17 62q0 54 37 88.5t95 34.5q38 0 67.5 -16t46.5 -44t17 -63q0 -53 -37 -88t-94 -35zM281 776q24 0 37.5 13.5t13.5 35.5t-13.5 36t-37.5 14q-23 0 -37 -14t-14 -36q0 -21 14 -35t37 -14zM281 104q32 0 55.5 14t37.5 38t14 56v438h118
v-438q0 -66 -28 -116t-78.5 -78t-118.5 -28t-119 28t-79 78t-28 116v438h118v-438q0 -32 13.5 -56t38 -38t56.5 -14z" />
    <glyph glyph-name="uring" unicode="&#x16f;" horiz-adv-x="505" 
d="M253 531q-37 0 -67.5 16.5t-47.5 44t-17 62.5q0 53 37 88t95 35q38 0 67.5 -16t46.5 -44t17 -63q0 -53 -37 -88t-94 -35zM253 605q24 0 37.5 13.5t13.5 35.5t-13.5 36t-37.5 14q-23 0 -37 -14t-14 -36q0 -21 14 -35t37 -14zM50 478h114v-289q0 -44 24 -70t65 -26t64.5 26
t23.5 70v289h114v-282q0 -97 -54.5 -151.5t-147.5 -54.5t-148 54.5t-55 151.5v282z" />
    <glyph glyph-name="Uhungarumlaut" unicode="&#x170;" horiz-adv-x="561" 
d="M309 707l71 164h110l-87 -164h-94zM144 707l55 164h105l-70 -164h-90zM281 104q32 0 55.5 14t37.5 38t14 56v438h118v-438q0 -66 -28 -116t-78.5 -78t-118.5 -28t-119 28t-79 78t-28 116v438h118v-438q0 -32 13.5 -56t38 -38t56.5 -14z" />
    <glyph glyph-name="uhungarumlaut" unicode="&#x171;" horiz-adv-x="505" 
d="M281 536l71 164h110l-87 -164h-94zM116 536l54 164h106l-70 -164h-90zM50 478h114v-289q0 -44 24 -70t65 -26t64.5 26t23.5 70v289h114v-282q0 -97 -54.5 -151.5t-147.5 -54.5t-148 54.5t-55 151.5v282z" />
    <glyph glyph-name="Uogonek" unicode="&#x172;" horiz-adv-x="561" 
d="M356 -171h-34q-53 0 -84.5 24t-31.5 64q0 33 22 58q8 9 19 17q-47 5 -85 26q-51 28 -79 78t-28 116v438h118v-438q0 -32 13.5 -56t38 -38t56.5 -14t55.5 14t37.5 38t14 56v438h118v-438q0 -76 -33 -126.5t-91 -76.5q-37 -17 -56.5 -29t-26 -21.5t-6.5 -20.5
q0 -15 9.5 -23t25.5 -8h28v-78z" />
    <glyph glyph-name="uogonek" unicode="&#x173;" horiz-adv-x="505" 
d="M324 -171h-34q-54 0 -85 24.5t-31 63.5q0 23 12 43q10 17 30 32q-68 9 -111 53q-55 54 -55 151v282h114v-289q0 -44 24 -70t65 -26t64.5 26t23.5 70v289h114v-282q0 -80 -33.5 -125.5t-98.5 -75.5q-35 -15 -48 -28t-13 -29q0 -14 9 -22.5t25 -8.5h28v-78z" />
    <glyph glyph-name="Wcircumflex" unicode="&#x174;" horiz-adv-x="835" 
d="M479 871l105 -164h-107l-59 102l-58 -102h-106l104 164h121zM63 0v650h117v-533q85 3 132 51q50 51 50 146v336h115v-533q46 3 78 17q40 18 61.5 59t28.5 109l40 348h119l-40 -348q-12 -108 -52.5 -174.5t-110.5 -97t-173 -30.5h-54v94l-10 -12q-78 -82 -218 -82h-83z
" />
    <glyph glyph-name="wcircumflex" unicode="&#x175;" horiz-adv-x="756" 
d="M445 700l104 -164h-107l-59 102l-58 -102h-105l103 164h122zM52 0v478h114v-374h29q61 0 97 34q35 34 35 99v241h111v-374h19q62 0 91.5 27t37.5 91l30 256h113l-30 -256q-14 -115 -71.5 -168.5t-169.5 -53.5h-115v65q-22 -28 -57 -43q-24 -11 -55 -16.5t-72 -5.5h-107z
" />
    <glyph glyph-name="Ycircumflex" unicode="&#x176;" horiz-adv-x="527" 
d="M348 871l104 -164h-107l-59 102l-58 -102h-105l103 164h122zM216 0l49 179q-59 6 -106 31q-61 33 -95 94.5t-34 147.5q0 44 8 91t24 107h114q-17 -65 -24 -109t-7 -86q0 -81 42 -124q40 -41 108 -43l99 362h117l-171 -650h-124z" />
    <glyph glyph-name="ycircumflex" unicode="&#x177;" horiz-adv-x="508" 
d="M341 700l104 -164h-106l-59 102l-59 -102h-105l104 164h121zM37 257q0 53 8 107.5t25 113.5h114q-18 -70 -26 -121t-8 -97q0 -77 39 -117q31 -32 80 -38l103 373h117l-170 -628h-120l41 147q-43 8 -79 27q-58 32 -91 91t-33 142z" />
    <glyph glyph-name="Ydieresis" unicode="&#x178;" horiz-adv-x="527" 
d="M193 722q-28 0 -46 17.5t-18 43.5q0 27 18 45t46 18t45.5 -17.5t17.5 -44.5t-17.5 -44.5t-45.5 -17.5zM382 722q-27 0 -45 17.5t-18 43.5q0 27 17.5 45t45.5 18q29 0 46.5 -17.5t17.5 -44.5t-17.5 -44.5t-46.5 -17.5zM216 0l49 179q-59 6 -106 31q-61 33 -95 94.5
t-34 147.5q0 44 8 91t24 107h114q-17 -65 -24 -109t-7 -86q0 -81 42 -124q40 -41 108 -43l99 362h117l-171 -650h-124z" />
    <glyph glyph-name="Zacute" unicode="&#x179;" horiz-adv-x="479" 
d="M176 707l67 164h118l-90 -164h-95zM454 0h-425l252 543h-251v107h425l-251 -543h250v-107z" />
    <glyph glyph-name="zacute" unicode="&#x17a;" horiz-adv-x="425" 
d="M162 536l67 164h118l-91 -164h-94zM393 0h-368l203 378h-200v100h371l-202 -377h196v-101z" />
    <glyph glyph-name="Zdotaccent" unicode="&#x17b;" horiz-adv-x="479" 
d="M240 722q-31 0 -52 19.5t-21 50.5t20.5 51t52.5 20q31 0 51.5 -20t20.5 -51q0 -30 -20.5 -50t-51.5 -20zM454 0h-425l252 543h-251v107h425l-251 -543h250v-107z" />
    <glyph glyph-name="zdotaccent" unicode="&#x17c;" horiz-adv-x="425" 
d="M219 550q-31 0 -51.5 20t-20.5 51t20.5 51t51.5 20t51.5 -20t20.5 -51q0 -30 -20.5 -50.5t-51.5 -20.5zM393 0h-368l203 378h-200v100h371l-202 -377h196v-101z" />
    <glyph glyph-name="Zcaron" unicode="&#x17d;" horiz-adv-x="479" 
d="M187 707l-104 164h107l59 -101l58 101h105l-103 -164h-122zM454 0h-425l252 543h-251v107h425l-251 -543h250v-107z" />
    <glyph glyph-name="zcaron" unicode="&#x17e;" horiz-adv-x="425" 
d="M159 536l-105 164h107l59 -101l58 101h106l-104 -164h-121zM393 0h-368l203 378h-200v100h371l-202 -377h196v-101z" />
    <glyph glyph-name="Ohorn" unicode="&#x1a0;" horiz-adv-x="751" 
d="M34 325q0 71 26 131.5t73 106.5t109 71.5t134 25.5q44 0 85 -10q36 0 60.5 12.5t24.5 48.5v24h85v-29q0 -74 -47 -106q-3 -2 -5 -4q21 -15 39 -33q47 -46 73.5 -106.5t26.5 -131.5t-26.5 -131.5t-73.5 -106.5t-109 -71.5t-133 -25.5q-72 0 -134 25.5t-109 71.5t-73 106.5
t-26 131.5zM154 325q0 -47 17.5 -88t47.5 -72t70 -48t87 -17q46 0 86 17t70.5 48t47.5 72t17 88t-17 88t-47.5 72t-70.5 48t-86 17q-47 0 -87 -17t-70 -48t-47.5 -72t-17.5 -88z" />
    <glyph glyph-name="ohorn" unicode="&#x1a1;" horiz-adv-x="578" 
d="M289 -10q-72 0 -130.5 33t-92.5 89.5t-34 126.5t34 126.5t92.5 89.5t130.5 33q40 0 76 -10q35 0 59.5 12.5t24.5 48.5v24h85v-29q0 -73 -46 -106q-8 -6 -17 -10q23 -23 41 -52q34 -57 34 -127t-34 -126.5t-92 -89.5t-131 -33zM289 385q-40 0 -73 -19.5t-52 -53t-19 -73.5
t19 -73.5t52 -53t73 -19.5t73 19.5t52 53t19 73.5t-19 73.5t-52 53t-73 19.5z" />
    <glyph glyph-name="Uhorn" unicode="&#x1af;" horiz-adv-x="561" 
d="M281 104q32 0 55.5 14t37.5 38t14 56v438h27q36 0 60.5 12.5t24.5 48.5v24h84v-29q0 -74 -46 -106q-15 -10 -32 -17v-371q0 -66 -28 -116t-78.5 -78t-118.5 -28t-119 28t-79 78t-28 116v438h118v-438q0 -32 13.5 -56t38 -38t56.5 -14z" />
    <glyph glyph-name="uhorn" unicode="&#x1b0;" horiz-adv-x="505" 
d="M50 478h114v-289q0 -44 24 -70t65 -26t64.5 26t23.5 70v289h24q36 0 60.5 12.5t24.5 48.5v24h85v-29q0 -73 -47 -106q-15 -10 -33 -18v-214q0 -97 -54.5 -151.5t-147.5 -54.5t-148 54.5t-55 151.5v282z" />
    <glyph glyph-name="uni0218" unicode="&#x218;" horiz-adv-x="503" 
d="M255 -10q-62 0 -113.5 25t-81 70.5t-29.5 109.5h115q0 -30 13.5 -53t38.5 -36t57 -13q44 0 72 24t28 61q0 29 -17 47.5t-45 31.5t-61.5 24.5t-67 26t-61.5 35.5t-44.5 53t-16.5 81q0 50 26.5 91.5t73 66.5t104.5 25q63 0 111 -24.5t75 -68t27 -101.5h-116q0 41 -27 66
t-70 25q-24 0 -44 -10t-32 -27.5t-12 -39.5q0 -28 17 -45.5t45 -30.5t61.5 -24.5t67 -26t61.5 -36.5t45 -55t17 -82q0 -53 -28 -96.5t-76.5 -68.5t-112.5 -25zM206 -237q14 28 26 60q2 6 5 12q-14 3 -25 13q-16 16 -16 41t16.5 42t42.5 17q27 0 43.5 -17t16.5 -46
q0 -23 -11.5 -53.5t-35.5 -68.5h-62z" />
    <glyph glyph-name="uni0219" unicode="&#x219;" horiz-adv-x="427" 
d="M43 0v93h183q29 0 45 13t16 35q0 21 -18.5 32.5t-47 18.5t-61 15.5t-61 23.5t-47 41.5t-18.5 71.5q0 59 43 96.5t115 37.5h182v-93h-178q-26 0 -38.5 -11t-12.5 -29q0 -20 18.5 -31t47 -18t61 -15t61 -23.5t47 -42.5t18.5 -72q0 -62 -45 -102.5t-125 -40.5h-185z
M167 -237q15 28 27 60l4 12q-13 3 -24 13q-17 16 -17 41t17 42t43 17q27 0 43.5 -17t16.5 -46q0 -23 -11.5 -53.5t-36.5 -68.5h-62z" />
    <glyph glyph-name="uni021A" unicode="&#x21a;" horiz-adv-x="472" 
d="M178 0v552q-30 -1 -59 -4q-53 -4 -95 -10v107q40 6 97.5 10.5t114.5 4.5t114 -4.5t98 -10.5v-107q-30 4 -62.5 7.5t-66.5 5.5q-12 1 -25 1v-552h-116zM185 -237q15 28 27 60q3 6 5 12q-14 3 -25 13q-17 16 -17 41t17.5 42t42.5 17q27 0 43.5 -17t16.5 -46
q0 -23 -11.5 -53.5t-36.5 -68.5h-62z" />
    <glyph glyph-name="uni021B" unicode="&#x21b;" horiz-adv-x="338" 
d="M303 378h-144v-204q0 -38 18 -55.5t55 -17.5h72v-101h-80q-87 0 -132.5 43.5t-45.5 126.5v410l113 28v-130h144v-100zM120 -237q14 28 26 60q3 6 5 12q-14 3 -24 13q-17 16 -17 41t17 42t43 17t43 -17t17 -46q0 -23 -12 -53.5t-36 -68.5h-62z" />
    <glyph glyph-name="uni0237" unicode="&#x237;" horiz-adv-x="218" 
d="M52 478h114v-476q0 -75 -41.5 -113.5t-120.5 -38.5h-20v101h13q29 0 42 13t13 41v473z" />
    <glyph glyph-name="circumflex" unicode="&#x2c6;" horiz-adv-x="514" 
d="M317 700l105 -164h-107l-59 102l-58 -102h-106l104 164h121z" />
    <glyph glyph-name="caron" unicode="&#x2c7;" horiz-adv-x="514" 
d="M197 536l-105 164h107l59 -101l58 101h106l-104 -164h-121z" />
    <glyph glyph-name="breve" unicode="&#x2d8;" horiz-adv-x="514" 
d="M257 615q32 0 50.5 16t18.5 45v24h85v-28q0 -67 -42 -103.5t-112 -36.5q-71 0 -112.5 36.5t-41.5 103.5v28h85v-24q0 -29 18 -45t51 -16z" />
    <glyph glyph-name="dotaccent" unicode="&#x2d9;" horiz-adv-x="514" 
d="M257 550q-31 0 -51.5 20t-20.5 51t20.5 51t51.5 20t51.5 -20t20.5 -51q0 -30 -20.5 -50.5t-51.5 -20.5z" />
    <glyph glyph-name="ring" unicode="&#x2da;" horiz-adv-x="514" 
d="M257 531q-37 0 -67 16.5t-47.5 44t-17.5 62.5q0 53 37 88t95 35q38 0 67.5 -16t47 -44t17.5 -63q0 -53 -37 -88t-95 -35zM257 605q24 0 37.5 13.5t13.5 35.5t-13.5 36t-37.5 14q-23 0 -37 -14t-14 -36q0 -21 14 -35t37 -14z" />
    <glyph glyph-name="ogonek" unicode="&#x2db;" horiz-adv-x="520" 
d="M352 -166h-34q-47 0 -75.5 23t-28.5 62q0 21 10.5 39.5t31 35.5t49.5 31l47 -25q-34 -18 -52 -37t-18 -38q0 -15 10.5 -23t29.5 -8h30v-60z" />
    <glyph glyph-name="tilde" unicode="&#x2dc;" horiz-adv-x="514" 
d="M97 536v61q0 52 24 79.5t65 27.5q23 0 39.5 -8.5t29 -20.5t22.5 -24.5t18.5 -21t18.5 -8.5t15 7.5t5 22.5v49h83v-60q0 -53 -24 -80.5t-65 -27.5q-23 0 -40 8.5t-29.5 21t-22 24.5t-18 20.5t-18.5 8.5q-20 0 -20 -30v-49h-83z" />
    <glyph glyph-name="hungarumlaut" unicode="&#x2dd;" horiz-adv-x="514" 
d="M286 536l71 164h110l-88 -164h-93zM121 536l54 164h105l-70 -164h-89z" />
    <glyph glyph-name="hookabovecomb" unicode="&#x309;" horiz-adv-x="212" 
d="M29 833h34q54 0 85 -24.5t31 -63.5q0 -23 -11.5 -43t-36.5 -37t-65 -29l-37 26q33 18 48 34t15 32q0 13 -9 20t-26 7h-28v78z" />
    <glyph glyph-name="uni031B" unicode="&#x31b;" horiz-adv-x="218" 
d="M198 -48q36 0 60.5 12.5t24.5 48.5v24h85v-29q0 -73 -46.5 -105.5t-123.5 -32.5v82z" />
    <glyph glyph-name="dotbelowcomb" unicode="&#x323;" horiz-adv-x="514" 
d="M258 -188q-31 0 -51.5 20t-20.5 50q0 31 20.5 51t51.5 20t52 -20t21 -51q0 -30 -20.5 -50t-52.5 -20z" />
    <glyph glyph-name="Wgrave" unicode="&#x1e80;" horiz-adv-x="835" 
d="M465 707h-94l-97 164h120zM63 0v650h117v-533q85 3 132 51q50 51 50 146v336h115v-533q46 3 78 17q40 18 61.5 59t28.5 109l40 348h119l-40 -348q-12 -108 -52.5 -174.5t-110.5 -97t-173 -30.5h-54v94l-10 -12q-78 -82 -218 -82h-83z" />
    <glyph glyph-name="wgrave" unicode="&#x1e81;" horiz-adv-x="756" 
d="M427 536h-94l-98 164h120zM52 0v478h114v-374h29q61 0 97 34q35 34 35 99v241h111v-374h19q62 0 91.5 27t37.5 91l30 256h113l-30 -256q-14 -115 -71.5 -168.5t-169.5 -53.5h-115v65q-22 -28 -57 -43q-24 -11 -55 -16.5t-72 -5.5h-107z" />
    <glyph glyph-name="Wacute" unicode="&#x1e82;" horiz-adv-x="835" 
d="M371 707l66 164h119l-91 -164h-94zM63 0v650h117v-533q85 3 132 51q50 51 50 146v336h115v-533q46 3 78 17q40 18 61.5 59t28.5 109l40 348h119l-40 -348q-12 -108 -52.5 -174.5t-110.5 -97t-173 -30.5h-54v94l-10 -12q-78 -82 -218 -82h-83z" />
    <glyph glyph-name="wacute" unicode="&#x1e83;" horiz-adv-x="756" 
d="M335 536l67 164h118l-90 -164h-95zM52 0v478h114v-374h29q61 0 97 34q35 34 35 99v241h111v-374h19q62 0 91.5 27t37.5 91l30 256h113l-30 -256q-14 -115 -71.5 -168.5t-169.5 -53.5h-115v65q-22 -28 -57 -43q-24 -11 -55 -16.5t-72 -5.5h-107z" />
    <glyph glyph-name="Wdieresis" unicode="&#x1e84;" horiz-adv-x="835" 
d="M324 722q-27 0 -45.5 17.5t-18.5 43.5q0 27 18 45t46 18q29 0 46.5 -17.5t17.5 -44.5t-17.5 -44.5t-46.5 -17.5zM514 722q-28 0 -46 17.5t-18 43.5q0 27 18 45t46 18t45.5 -17.5t17.5 -44.5t-17.5 -44.5t-45.5 -17.5zM63 0v650h117v-533q85 3 132 51q50 51 50 146v336
h115v-533q46 3 78 17q40 18 61.5 59t28.5 109l40 348h119l-40 -348q-12 -108 -52.5 -174.5t-110.5 -97t-173 -30.5h-54v94l-10 -12q-78 -82 -218 -82h-83z" />
    <glyph glyph-name="wdieresis" unicode="&#x1e85;" horiz-adv-x="756" 
d="M289 550q-28 0 -46 18t-18 44q0 27 18 44.5t46 17.5t45.5 -17t17.5 -44t-17.5 -45t-45.5 -18zM478 550q-27 0 -45 18t-18 44q0 27 17.5 44.5t45.5 17.5q29 0 46.5 -17t17.5 -44t-17.5 -45t-46.5 -18zM52 0v478h114v-374h29q61 0 97 34q35 34 35 99v241h111v-374h19
q62 0 91.5 27t37.5 91l30 256h113l-30 -256q-14 -115 -71.5 -168.5t-169.5 -53.5h-115v65q-22 -28 -57 -43q-24 -11 -55 -16.5t-72 -5.5h-107z" />
    <glyph glyph-name="Germandbls" unicode="&#x1e9e;" horiz-adv-x="605" 
d="M55 0v430q0 66 28.5 115.5t79.5 77t118 27.5h248l-105 -243q23 -6 43 -16q54 -24 82.5 -69.5t28.5 -107.5q0 -101 -63 -157.5t-173 -56.5h-55v104h55q56 0 88.5 29.5t32.5 80.5q0 34 -15.5 58t-44 37.5t-68.5 13.5h-57l100 221h-97q-31 0 -56 -13.5t-38.5 -38
t-13.5 -55.5v-437h-118z" />
    <glyph glyph-name="uni1EA0" unicode="&#x1ea0;" 
d="M55 0v434q0 67 28 118t79.5 79.5t117.5 28.5q68 0 118.5 -28.5t78.5 -79.5t28 -118v-434h-116v18q0 85 -51 136.5t-146 51.5h-21v-206h-116zM171 312h7q116 0 185 -51q14 -10 26 -23v196q0 34 -14 59t-38.5 39.5t-56.5 14.5t-57 -14.5t-38.5 -39.5t-13.5 -59v-122z
M281 -188q-31 0 -51.5 20t-20.5 50q0 31 20 51t52 20q31 0 51.5 -20t20.5 -51q0 -30 -20.5 -50t-51.5 -20z" />
    <glyph glyph-name="uni1EA1" unicode="&#x1ea1;" horiz-adv-x="503" 
d="M216 -10q-53 0 -95 19.5t-65.5 54t-23.5 79.5t23.5 79.5t65.5 53.5t97 19q75 0 122 -34v42q0 43 -23.5 67t-64.5 24q-32 0 -54.5 -15.5t-29.5 -42.5h-111q6 45 32.5 79t68.5 53.5t93 19.5q94 0 148 -53t54 -144v-291h-104v36q-1 -2 -2 -3q-49 -43 -131 -43zM240 72
q45 0 72.5 20.5t27.5 54.5t-27 53t-73 19q-45 0 -72 -19.5t-27 -53.5t27 -54t72 -20zM252 -188q-31 0 -51.5 20t-20.5 50q0 31 20.5 51t51.5 20t51.5 -20t20.5 -51q0 -30 -20 -50t-52 -20z" />
    <glyph glyph-name="uni1EA2" unicode="&#x1ea2;" 
d="M213 896h34q54 0 85 -24.5t31 -63.5q0 -23 -11.5 -43t-36.5 -37t-66 -29l-36 26q33 18 48 34t15 32q0 13 -9 20t-26 7h-28v78zM55 0v434q0 67 28 118t79.5 79.5t117.5 28.5q68 0 118.5 -28.5t78.5 -79.5t28 -118v-434h-116v18q0 85 -51 136.5t-146 51.5h-21v-206h-116z
M171 312h7q116 0 185 -51q14 -10 26 -23v196q0 34 -14 59t-38.5 39.5t-56.5 14.5t-57 -14.5t-38.5 -39.5t-13.5 -59v-122z" />
    <glyph glyph-name="uni1EA3" unicode="&#x1ea3;" horiz-adv-x="503" 
d="M193 718h34q54 0 85 -24.5t31 -63.5q0 -23 -11.5 -43t-37 -37t-65.5 -29l-36 26q33 18 48 34t15 32q0 12 -9.5 19.5t-25.5 7.5h-28v78zM216 -10q-53 0 -95 19.5t-65.5 54t-23.5 79.5t23.5 79.5t65.5 53.5t97 19q75 0 122 -34v42q0 43 -23.5 67t-64.5 24
q-32 0 -54.5 -15.5t-29.5 -42.5h-111q6 45 32.5 79t68.5 53.5t93 19.5q94 0 148 -53t54 -144v-291h-104v36q-1 -2 -2 -3q-49 -43 -131 -43zM240 72q45 0 72.5 20.5t27.5 54.5t-27 53t-73 19q-45 0 -72 -19.5t-27 -53.5t27 -54t72 -20z" />
    <glyph glyph-name="uni1EA4" unicode="&#x1ea4;" 
d="M408 842l67 164h118l-91 -164h-94zM341 871l104 -164h-107l-59 102l-58 -102h-105l103 164h122zM55 0v434q0 67 28 118t79.5 79.5t117.5 28.5q68 0 118.5 -28.5t78.5 -79.5t28 -118v-434h-116v18q0 85 -51 136.5t-146 51.5h-21v-206h-116zM171 312h7q116 0 185 -51
q14 -10 26 -23v196q0 34 -14 59t-38.5 39.5t-56.5 14.5t-57 -14.5t-38.5 -39.5t-13.5 -59v-122z" />
    <glyph glyph-name="uni1EA5" unicode="&#x1ea5;" horiz-adv-x="503" 
d="M405 650l67 164h118l-91 -164h-94zM315 700l104 -164h-107l-59 102l-58 -102h-105l103 164h122zM216 -10q-53 0 -95 19.5t-65.5 54t-23.5 79.5t23.5 79.5t65.5 53.5t97 19q75 0 122 -34v42q0 43 -23.5 67t-64.5 24q-32 0 -54.5 -15.5t-29.5 -42.5h-111q6 45 32.5 79
t68.5 53.5t93 19.5q94 0 148 -53t54 -144v-291h-104v36q-1 -2 -2 -3q-49 -43 -131 -43zM240 72q45 0 72.5 20.5t27.5 54.5t-27 53t-73 19q-45 0 -72 -19.5t-27 -53.5t27 -54t72 -20z" />
    <glyph glyph-name="uni1EA6" unicode="&#x1ea6;" 
d="M505 842h-95l-97 164h120zM341 871l104 -164h-107l-59 102l-58 -102h-105l103 164h122zM55 0v434q0 67 28 118t79.5 79.5t117.5 28.5q68 0 118.5 -28.5t78.5 -79.5t28 -118v-434h-116v18q0 85 -51 136.5t-146 51.5h-21v-206h-116zM171 312h7q116 0 185 -51q14 -10 26 -23
v196q0 34 -14 59t-38.5 39.5t-56.5 14.5t-57 -14.5t-38.5 -39.5t-13.5 -59v-122z" />
    <glyph glyph-name="uni1EA7" unicode="&#x1ea7;" horiz-adv-x="503" 
d="M505 650h-94l-98 164h120zM315 700l104 -164h-107l-59 102l-58 -102h-105l103 164h122zM216 -10q-53 0 -95 19.5t-65.5 54t-23.5 79.5t23.5 79.5t65.5 53.5t97 19q75 0 122 -34v42q0 43 -23.5 67t-64.5 24q-32 0 -54.5 -15.5t-29.5 -42.5h-111q6 45 32.5 79t68.5 53.5
t93 19.5q94 0 148 -53t54 -144v-291h-104v36q-1 -2 -2 -3q-49 -43 -131 -43zM240 72q45 0 72.5 20.5t27.5 54.5t-27 53t-73 19q-45 0 -72 -19.5t-27 -53.5t27 -54t72 -20z" />
    <glyph glyph-name="uni1EA8" unicode="&#x1ea8;" 
d="M406 1008h34q54 0 85 -24.5t31 -63.5q0 -23 -11.5 -43t-36.5 -37t-66 -30l-36 27q33 18 48 34t15 31q0 13 -9 20.5t-26 7.5h-28v78zM341 871l104 -164h-107l-59 102l-58 -102h-105l103 164h122zM55 0v434q0 67 28 118t79.5 79.5t117.5 28.5q68 0 118.5 -28.5t78.5 -79.5
t28 -118v-434h-116v18q0 85 -51 136.5t-146 51.5h-21v-206h-116zM171 312h7q116 0 185 -51q14 -10 26 -23v196q0 34 -14 59t-38.5 39.5t-56.5 14.5t-57 -14.5t-38.5 -39.5t-13.5 -59v-122z" />
    <glyph glyph-name="uni1EA9" unicode="&#x1ea9;" horiz-adv-x="503" 
d="M369 848h34q54 0 85 -25t31 -64q0 -23 -12 -42.5t-37 -36.5t-65 -30l-36 27q32 17 47.5 33t15.5 32q0 13 -9.5 20t-25.5 7h-28v79zM315 700l104 -164h-107l-59 102l-58 -102h-105l103 164h122zM216 -10q-53 0 -95 19.5t-65.5 54t-23.5 79.5t23.5 79.5t65.5 53.5t97 19
q75 0 122 -34v42q0 43 -23.5 67t-64.5 24q-32 0 -54.5 -15.5t-29.5 -42.5h-111q6 45 32.5 79t68.5 53.5t93 19.5q94 0 148 -53t54 -144v-291h-104v36q-1 -2 -2 -3q-49 -43 -131 -43zM240 72q45 0 72.5 20.5t27.5 54.5t-27 53t-73 19q-45 0 -72 -19.5t-27 -53.5t27 -54
t72 -20z" />
    <glyph glyph-name="uni1EAA" unicode="&#x1eaa;" 
d="M119 907v61q0 52 24 79.5t65 27.5q22 0 39 -8.5t29.5 -20.5t22.5 -24t18.5 -20.5t18.5 -8.5t15 7t5 22v50h83v-61q0 -52 -24 -79.5t-65 -27.5q-23 0 -40 8.5t-29.5 20.5t-22.5 24t-18.5 20.5t-17.5 8.5q-20 0 -20 -29v-50h-83zM341 871l104 -164h-107l-59 102l-58 -102
h-105l103 164h122zM55 0v434q0 67 28 118t79.5 79.5t117.5 28.5q68 0 118.5 -28.5t78.5 -79.5t28 -118v-434h-116v18q0 85 -51 136.5t-146 51.5h-21v-206h-116zM171 312h7q116 0 185 -51q14 -10 26 -23v196q0 34 -14 59t-38.5 39.5t-56.5 14.5t-57 -14.5t-38.5 -39.5
t-13.5 -59v-122z" />
    <glyph glyph-name="uni1EAB" unicode="&#x1eab;" horiz-adv-x="503" 
d="M93 738v61q0 51 24 78.5t65 27.5q23 0 39.5 -8.5t29 -20.5t22.5 -24t19 -20.5t18 -8.5q11 0 15.5 7t4.5 23v49h83v-61q0 -52 -23.5 -79.5t-65.5 -27.5q-23 0 -39.5 8.5t-29 20.5t-22.5 24.5t-18.5 21t-18.5 8.5q-20 0 -20 -30v-49h-83zM315 700l104 -164h-107l-59 102
l-58 -102h-105l103 164h122zM216 -10q-53 0 -95 19.5t-65.5 54t-23.5 79.5t23.5 79.5t65.5 53.5t97 19q75 0 122 -34v42q0 43 -23.5 67t-64.5 24q-32 0 -54.5 -15.5t-29.5 -42.5h-111q6 45 32.5 79t68.5 53.5t93 19.5q94 0 148 -53t54 -144v-291h-104v36q-1 -2 -2 -3
q-49 -43 -131 -43zM240 72q45 0 72.5 20.5t27.5 54.5t-27 53t-73 19q-45 0 -72 -19.5t-27 -53.5t27 -54t72 -20z" />
    <glyph glyph-name="uni1EAC" unicode="&#x1eac;" 
d="M341 872l104 -164h-107l-59 101l-58 -101h-105l103 164h122zM55 0v434q0 67 28 118t79.5 79.5t117.5 28.5q68 0 118.5 -28.5t78.5 -79.5t28 -118v-434h-116v18q0 85 -51 136.5t-146 51.5h-21v-206h-116zM171 312h7q116 0 185 -51q14 -10 26 -23v196q0 34 -14 59
t-38.5 39.5t-56.5 14.5t-57 -14.5t-38.5 -39.5t-13.5 -59v-122zM281 -188q-31 0 -51.5 20t-20.5 50q0 31 20 51t52 20q31 0 51.5 -20t20.5 -51q0 -30 -20.5 -50t-51.5 -20z" />
    <glyph glyph-name="uni1EAD" unicode="&#x1ead;" horiz-adv-x="503" 
d="M315 700l104 -164h-107l-59 102l-58 -102h-105l103 164h122zM216 -10q-53 0 -95 19.5t-65.5 54t-23.5 79.5t23.5 79.5t65.5 53.5t97 19q75 0 122 -34v42q0 43 -23.5 67t-64.5 24q-32 0 -54.5 -15.5t-29.5 -42.5h-111q6 45 32.5 79t68.5 53.5t93 19.5q94 0 148 -53
t54 -144v-291h-104v36q-1 -2 -2 -3q-49 -43 -131 -43zM240 72q45 0 72.5 20.5t27.5 54.5t-27 53t-73 19q-45 0 -72 -19.5t-27 -53.5t27 -54t72 -20zM252 -188q-31 0 -51.5 20t-20.5 50q0 31 20.5 51t51.5 20t51.5 -20t20.5 -51q0 -30 -20 -50t-52 -20z" />
    <glyph glyph-name="uni1EAE" unicode="&#x1eae;" 
d="M236 891l67 164h118l-91 -164h-94zM280 786q33 0 51 16t18 45v24h85v-28q0 -67 -42 -103t-112 -36q-71 0 -112.5 36t-41.5 103v28h85v-24q0 -29 18 -45t51 -16zM55 0v434q0 67 28 118t79.5 79.5t117.5 28.5q68 0 118.5 -28.5t78.5 -79.5t28 -118v-434h-116v18
q0 85 -51 136.5t-146 51.5h-21v-206h-116zM171 312h7q116 0 185 -51q14 -10 26 -23v196q0 34 -14 59t-38.5 39.5t-56.5 14.5t-57 -14.5t-38.5 -39.5t-13.5 -59v-122z" />
    <glyph glyph-name="uni1EAF" unicode="&#x1eaf;" horiz-adv-x="503" 
d="M207 707l67 164h118l-90 -164h-95zM254 615q33 0 51 16t18 45v24h85v-28q0 -67 -41.5 -103.5t-112.5 -36.5q-70 0 -111.5 36.5t-41.5 103.5v28h85v-24q0 -29 17.5 -45t50.5 -16zM216 -10q-53 0 -95 19.5t-65.5 54t-23.5 79.5t23.5 79.5t65.5 53.5t97 19q75 0 122 -34v42
q0 43 -23.5 67t-64.5 24q-32 0 -54.5 -15.5t-29.5 -42.5h-111q6 45 32.5 79t68.5 53.5t93 19.5q94 0 148 -53t54 -144v-291h-104v36q-1 -2 -2 -3q-49 -43 -131 -43zM240 72q45 0 72.5 20.5t27.5 54.5t-27 53t-73 19q-45 0 -72 -19.5t-27 -53.5t27 -54t72 -20z" />
    <glyph glyph-name="uni1EB0" unicode="&#x1eb0;" 
d="M328 891h-94l-98 164h120zM280 786q33 0 51 16t18 45v24h85v-28q0 -67 -42 -103t-112 -36q-71 0 -112.5 36t-41.5 103v28h85v-24q0 -29 18 -45t51 -16zM55 0v434q0 67 28 118t79.5 79.5t117.5 28.5q68 0 118.5 -28.5t78.5 -79.5t28 -118v-434h-116v18q0 85 -51 136.5
t-146 51.5h-21v-206h-116zM171 312h7q116 0 185 -51q14 -10 26 -23v196q0 34 -14 59t-38.5 39.5t-56.5 14.5t-57 -14.5t-38.5 -39.5t-13.5 -59v-122z" />
    <glyph glyph-name="uni1EB1" unicode="&#x1eb1;" horiz-adv-x="503" 
d="M303 707h-94l-97 164h119zM254 615q33 0 51 16t18 45v24h85v-28q0 -67 -41.5 -103.5t-112.5 -36.5q-70 0 -111.5 36.5t-41.5 103.5v28h85v-24q0 -29 17.5 -45t50.5 -16zM216 -10q-53 0 -95 19.5t-65.5 54t-23.5 79.5t23.5 79.5t65.5 53.5t97 19q75 0 122 -34v42
q0 43 -23.5 67t-64.5 24q-32 0 -54.5 -15.5t-29.5 -42.5h-111q6 45 32.5 79t68.5 53.5t93 19.5q94 0 148 -53t54 -144v-291h-104v36q-1 -2 -2 -3q-49 -43 -131 -43zM240 72q45 0 72.5 20.5t27.5 54.5t-27 53t-73 19q-45 0 -72 -19.5t-27 -53.5t27 -54t72 -20z" />
    <glyph glyph-name="uni1EB2" unicode="&#x1eb2;" 
d="M212 1070h34q55 0 85.5 -24.5t30.5 -63.5q0 -23 -11.5 -43t-36.5 -37t-65 -30l-37 27q33 18 48 34t15 31q0 13 -9 20.5t-26 7.5h-28v78zM280 786q33 0 51 16t18 45v24h85v-28q0 -67 -42 -103t-112 -36q-71 0 -112.5 36t-41.5 103v28h85v-24q0 -29 18 -45t51 -16zM55 0
v434q0 67 28 118t79.5 79.5t117.5 28.5q68 0 118.5 -28.5t78.5 -79.5t28 -118v-434h-116v18q0 85 -51 136.5t-146 51.5h-21v-206h-116zM171 312h7q116 0 185 -51q14 -10 26 -23v196q0 34 -14 59t-38.5 39.5t-56.5 14.5t-57 -14.5t-38.5 -39.5t-13.5 -59v-122z" />
    <glyph glyph-name="uni1EB3" unicode="&#x1eb3;" horiz-adv-x="503" 
d="M179 905h34q55 0 85.5 -25t30.5 -64q0 -23 -11.5 -42.5t-36.5 -36.5t-65 -30l-37 27q33 17 48 33t15 32q0 13 -9 20t-25 7h-29v79zM254 615q33 0 51 16t18 45v24h85v-28q0 -67 -41.5 -103.5t-112.5 -36.5q-70 0 -111.5 36.5t-41.5 103.5v28h85v-24q0 -29 17.5 -45
t50.5 -16zM216 -10q-53 0 -95 19.5t-65.5 54t-23.5 79.5t23.5 79.5t65.5 53.5t97 19q75 0 122 -34v42q0 43 -23.5 67t-64.5 24q-32 0 -54.5 -15.5t-29.5 -42.5h-111q6 45 32.5 79t68.5 53.5t93 19.5q94 0 148 -53t54 -144v-291h-104v36q-1 -2 -2 -3q-49 -43 -131 -43z
M240 72q45 0 72.5 20.5t27.5 54.5t-27 53t-73 19q-45 0 -72 -19.5t-27 -53.5t27 -54t72 -20z" />
    <glyph glyph-name="uni1EB4" unicode="&#x1eb4;" 
d="M120 907v61q0 52 24 79.5t65 27.5q23 0 39.5 -8.5t29 -20.5t22.5 -24t19 -20.5t18 -8.5q11 0 15.5 7t4.5 22v50h83v-61q0 -52 -24 -79.5t-65 -27.5q-23 0 -39.5 8.5t-29 20.5t-22.5 24t-18.5 20.5t-18.5 8.5q-20 0 -20 -29v-50h-83zM280 786q33 0 51 16t18 45v24h85v-28
q0 -67 -42 -103t-112 -36q-71 0 -112.5 36t-41.5 103v28h85v-24q0 -29 18 -45t51 -16zM55 0v434q0 67 28 118t79.5 79.5t117.5 28.5q68 0 118.5 -28.5t78.5 -79.5t28 -118v-434h-116v18q0 85 -51 136.5t-146 51.5h-21v-206h-116zM171 312h7q116 0 185 -51q14 -10 26 -23v196
q0 34 -14 59t-38.5 39.5t-56.5 14.5t-57 -14.5t-38.5 -39.5t-13.5 -59v-122z" />
    <glyph glyph-name="uni1EB5" unicode="&#x1eb5;" horiz-adv-x="503" 
d="M94 739v61q0 52 24 79.5t65 27.5q23 0 39.5 -8.5t29 -20.5t22.5 -24.5t19 -21t18 -8.5q11 0 15.5 7.5t4.5 22.5v49h83v-60q0 -53 -23.5 -80.5t-65.5 -27.5q-23 0 -39.5 8.5t-29 21t-22.5 24.5t-18.5 20.5t-18.5 8.5q-20 0 -20 -30v-49h-83zM254 615q33 0 51 16t18 45v24
h85v-28q0 -67 -41.5 -103.5t-112.5 -36.5q-70 0 -111.5 36.5t-41.5 103.5v28h85v-24q0 -29 17.5 -45t50.5 -16zM216 -10q-53 0 -95 19.5t-65.5 54t-23.5 79.5t23.5 79.5t65.5 53.5t97 19q75 0 122 -34v42q0 43 -23.5 67t-64.5 24q-32 0 -54.5 -15.5t-29.5 -42.5h-111
q6 45 32.5 79t68.5 53.5t93 19.5q94 0 148 -53t54 -144v-291h-104v36q-1 -2 -2 -3q-49 -43 -131 -43zM240 72q45 0 72.5 20.5t27.5 54.5t-27 53t-73 19q-45 0 -72 -19.5t-27 -53.5t27 -54t72 -20z" />
    <glyph glyph-name="uni1EB6" unicode="&#x1eb6;" 
d="M280 787q33 0 51 15.5t18 45.5v24h85v-29q0 -66 -42 -102.5t-112 -36.5q-71 0 -112.5 36.5t-41.5 102.5v29h85v-24q0 -30 18 -45.5t51 -15.5zM55 0v434q0 67 28 118t79.5 79.5t117.5 28.5q68 0 118.5 -28.5t78.5 -79.5t28 -118v-434h-116v18q0 85 -51 136.5t-146 51.5
h-21v-206h-116zM171 312h7q116 0 185 -51q14 -10 26 -23v196q0 34 -14 59t-38.5 39.5t-56.5 14.5t-57 -14.5t-38.5 -39.5t-13.5 -59v-122zM281 -188q-31 0 -51.5 20t-20.5 50q0 31 20 51t52 20q31 0 51.5 -20t20.5 -51q0 -30 -20.5 -50t-51.5 -20z" />
    <glyph glyph-name="uni1EB7" unicode="&#x1eb7;" horiz-adv-x="503" 
d="M251 615q33 0 51 16t18 45v24h85v-28q0 -67 -41.5 -103.5t-112.5 -36.5q-70 0 -111.5 36.5t-41.5 103.5v28h85v-24q0 -29 18 -45t50 -16zM216 -10q-53 0 -95 19.5t-65.5 54t-23.5 79.5t23.5 79.5t65.5 53.5t97 19q75 0 122 -34v42q0 43 -23.5 67t-64.5 24
q-32 0 -54.5 -15.5t-29.5 -42.5h-111q6 45 32.5 79t68.5 53.5t93 19.5q94 0 148 -53t54 -144v-291h-104v36q-1 -2 -2 -3q-49 -43 -131 -43zM240 72q45 0 72.5 20.5t27.5 54.5t-27 53t-73 19q-45 0 -72 -19.5t-27 -53.5t27 -54t72 -20zM252 -188q-31 0 -51.5 20t-20.5 50
q0 31 20.5 51t51.5 20t51.5 -20t20.5 -51q0 -30 -20 -50t-52 -20z" />
    <glyph glyph-name="uni1EB8" unicode="&#x1eb8;" horiz-adv-x="461" 
d="M63 0v650h361v-105h-247v-243q26 28 60 47q60 32 142 32h16v-104h-19q-92 0 -146 -49q-51 -46 -54 -123h248v-105h-361zM231 -188q-31 0 -51.5 20t-20.5 50q0 31 20.5 51t51.5 20t51.5 -20t20.5 -51q0 -30 -20 -50t-52 -20z" />
    <glyph glyph-name="uni1EB9" unicode="&#x1eb9;" 
d="M285 -10q-73 0 -130.5 33.5t-90 90t-32.5 125.5t33 125.5t90 90t128 33.5t126 -30.5t87.5 -84.5t32.5 -124v-30h-384q2 -38 20 -68q19 -32 51 -49.5t69 -17.5q42 0 75.5 17t55.5 51h110q-16 -48 -51.5 -84.5t-84 -57t-105.5 -20.5zM416 292q-4 25 -16 45q-18 29 -48.5 45
t-68.5 16q-36 0 -67.5 -18.5t-50.5 -49.5q-11 -18 -16 -38h267zM281 -188q-31 0 -52 20t-21 50q0 31 20.5 51t52.5 20q31 0 51.5 -20t20.5 -51q0 -30 -20.5 -50t-51.5 -20z" />
    <glyph glyph-name="uni1EBA" unicode="&#x1eba;" horiz-adv-x="461" 
d="M168 891h34q55 0 85.5 -24.5t30.5 -63.5q0 -23 -11.5 -43t-36.5 -37t-65 -29l-37 26q33 18 48 34t15 32q0 12 -9 19.5t-26 7.5h-28v78zM63 0v650h361v-105h-247v-243q26 28 60 47q60 32 142 32h16v-104h-19q-92 0 -146 -49q-51 -46 -54 -123h248v-105h-361z" />
    <glyph glyph-name="uni1EBB" unicode="&#x1ebb;" 
d="M207 719h34q55 0 85.5 -24.5t30.5 -64.5q0 -23 -11.5 -42.5t-36.5 -36.5t-65 -30l-37 27q33 17 48 33t15 32q0 13 -9 20t-25 7h-29v79zM285 -10q-73 0 -130.5 33.5t-90 90t-32.5 125.5t33 125.5t90 90t128 33.5t126 -30.5t87.5 -84.5t32.5 -124v-30h-384q2 -38 20 -68
q19 -32 51 -49.5t69 -17.5q42 0 75.5 17t55.5 51h110q-16 -48 -51.5 -84.5t-84 -57t-105.5 -20.5zM416 292q-4 25 -16 45q-18 29 -48.5 45t-68.5 16q-36 0 -67.5 -18.5t-50.5 -49.5q-11 -18 -16 -38h267z" />
    <glyph glyph-name="uni1EBC" unicode="&#x1ebc;" horiz-adv-x="461" 
d="M83 708v61q0 52 24 79.5t65 27.5q23 0 39.5 -8.5t29 -21t22.5 -24.5t18.5 -20.5t18.5 -8.5t15 7.5t5 22.5v49h83v-61q0 -52 -24 -79.5t-65 -27.5q-23 0 -40 8.5t-29.5 21t-22 24.5t-18 20.5t-18.5 8.5q-20 0 -20 -30v-49h-83zM63 0v650h361v-105h-247v-243q26 28 60 47
q60 32 142 32h16v-104h-19q-92 0 -146 -49q-51 -46 -54 -123h248v-105h-361z" />
    <glyph glyph-name="uni1EBD" unicode="&#x1ebd;" 
d="M120 536v61q0 52 24 79.5t65 27.5q23 0 39.5 -8.5t29 -20.5t22.5 -24.5t18.5 -21t18.5 -8.5t15 7.5t5 22.5v49h83v-60q0 -53 -24 -80.5t-65 -27.5q-23 0 -40 8.5t-29.5 21t-22 24.5t-18 20.5t-18.5 8.5q-20 0 -20 -30v-49h-83zM285 -10q-73 0 -130.5 33.5t-90 90
t-32.5 125.5t33 125.5t90 90t128 33.5t126 -30.5t87.5 -84.5t32.5 -124v-30h-384q2 -38 20 -68q19 -32 51 -49.5t69 -17.5q42 0 75.5 17t55.5 51h110q-16 -48 -51.5 -84.5t-84 -57t-105.5 -20.5zM416 292q-4 25 -16 45q-18 29 -48.5 45t-68.5 16q-36 0 -67.5 -18.5
t-50.5 -49.5q-11 -18 -16 -38h267z" />
    <glyph glyph-name="uni1EBE" unicode="&#x1ebe;" horiz-adv-x="461" 
d="M370 842l67 164h118l-90 -164h-95zM300 871l105 -164h-107l-59 102l-58 -102h-106l104 164h121zM63 0v650h361v-105h-247v-243q26 28 60 47q60 32 142 32h16v-104h-19q-92 0 -146 -49q-51 -46 -54 -123h248v-105h-361z" />
    <glyph glyph-name="uni1EBF" unicode="&#x1ebf;" 
d="M440 649l66 164h119l-91 -164h-94zM348 700l104 -164h-106l-59 102l-59 -102h-105l104 164h121zM285 -10q-73 0 -130.5 33.5t-90 90t-32.5 125.5t33 125.5t90 90t128 33.5t126 -30.5t87.5 -84.5t32.5 -124v-30h-384q2 -38 20 -68q19 -32 51 -49.5t69 -17.5q42 0 75.5 17
t55.5 51h110q-16 -48 -51.5 -84.5t-84 -57t-105.5 -20.5zM416 292q-4 25 -16 45q-18 29 -48.5 45t-68.5 16q-36 0 -67.5 -18.5t-50.5 -49.5q-11 -18 -16 -38h267z" />
    <glyph glyph-name="uni1EC0" unicode="&#x1ec0;" horiz-adv-x="461" 
d="M463 842h-94l-98 164h120zM300 871l105 -164h-107l-59 102l-58 -102h-106l104 164h121zM63 0v650h361v-105h-247v-243q26 28 60 47q60 32 142 32h16v-104h-19q-92 0 -146 -49q-51 -46 -54 -123h248v-105h-361z" />
    <glyph glyph-name="uni1EC1" unicode="&#x1ec1;" 
d="M542 650h-94l-97 164h120zM348 700l104 -164h-106l-59 102l-59 -102h-105l104 164h121zM285 -10q-73 0 -130.5 33.5t-90 90t-32.5 125.5t33 125.5t90 90t128 33.5t126 -30.5t87.5 -84.5t32.5 -124v-30h-384q2 -38 20 -68q19 -32 51 -49.5t69 -17.5q42 0 75.5 17t55.5 51
h110q-16 -48 -51.5 -84.5t-84 -57t-105.5 -20.5zM416 292q-4 25 -16 45q-18 29 -48.5 45t-68.5 16q-36 0 -67.5 -18.5t-50.5 -49.5q-11 -18 -16 -38h267z" />
    <glyph glyph-name="uni1EC2" unicode="&#x1ec2;" horiz-adv-x="461" 
d="M369 1008h34q55 0 85.5 -24.5t30.5 -63.5q0 -23 -11.5 -43t-36.5 -37t-65 -30l-37 27q33 18 48 34t15 31q0 13 -9 20.5t-25 7.5h-29v78zM300 871l105 -164h-107l-59 102l-58 -102h-106l104 164h121zM63 0v650h361v-105h-247v-243q26 28 60 47q60 32 142 32h16v-104h-19
q-92 0 -146 -49q-51 -46 -54 -123h248v-105h-361z" />
    <glyph glyph-name="uni1EC3" unicode="&#x1ec3;" 
d="M403 848h34q54 0 85 -25t31 -64q0 -23 -11.5 -42.5t-36.5 -36.5t-65 -30l-37 27q33 17 48 33t15 32q0 13 -9 20t-26 7h-28v79zM348 700l104 -164h-106l-59 102l-59 -102h-105l104 164h121zM285 -10q-73 0 -130.5 33.5t-90 90t-32.5 125.5t33 125.5t90 90t128 33.5
t126 -30.5t87.5 -84.5t32.5 -124v-30h-384q2 -38 20 -68q19 -32 51 -49.5t69 -17.5q42 0 75.5 17t55.5 51h110q-16 -48 -51.5 -84.5t-84 -57t-105.5 -20.5zM416 292q-4 25 -16 45q-18 29 -48.5 45t-68.5 16q-36 0 -67.5 -18.5t-50.5 -49.5q-11 -18 -16 -38h267z" />
    <glyph glyph-name="uni1EC4" unicode="&#x1ec4;" horiz-adv-x="461" 
d="M80 907v61q0 51 24 78.5t65 27.5q23 0 39.5 -8.5t29 -20.5t22.5 -24t19 -20.5t18 -8.5q11 0 15.5 7t4.5 23v49h83v-61q0 -52 -24 -79.5t-65 -27.5q-23 0 -39.5 8.5t-29 21t-22.5 24.5t-18.5 20.5t-18.5 8.5q-20 0 -20 -30v-49h-83zM300 871l105 -164h-107l-59 102
l-58 -102h-106l104 164h121zM63 0v650h361v-105h-247v-243q26 28 60 47q60 32 142 32h16v-104h-19q-92 0 -146 -49q-51 -46 -54 -123h248v-105h-361z" />
    <glyph glyph-name="uni1EC5" unicode="&#x1ec5;" 
d="M127 739v61q0 52 24 79.5t65 27.5q22 0 38.5 -8.5t29.5 -20.5t23 -24.5t18.5 -21t18.5 -8.5t15 7.5t5 22.5v49h83v-60q0 -53 -24 -80.5t-65 -27.5q-23 0 -40 8.5t-29.5 21t-22.5 24.5t-18.5 20.5t-17.5 8.5q-20 0 -20 -30v-49h-83zM348 700l104 -164h-106l-59 102
l-59 -102h-105l104 164h121zM285 -10q-73 0 -130.5 33.5t-90 90t-32.5 125.5t33 125.5t90 90t128 33.5t126 -30.5t87.5 -84.5t32.5 -124v-30h-384q2 -38 20 -68q19 -32 51 -49.5t69 -17.5q42 0 75.5 17t55.5 51h110q-16 -48 -51.5 -84.5t-84 -57t-105.5 -20.5zM416 292
q-4 25 -16 45q-18 29 -48.5 45t-68.5 16q-36 0 -67.5 -18.5t-50.5 -49.5q-11 -18 -16 -38h267z" />
    <glyph glyph-name="uni1EC6" unicode="&#x1ec6;" horiz-adv-x="461" 
d="M300 871l105 -164h-107l-59 102l-58 -102h-106l104 164h121zM63 0v650h361v-105h-247v-243q26 28 60 47q60 32 142 32h16v-104h-19q-92 0 -146 -49q-51 -46 -54 -123h248v-105h-361zM231 -188q-31 0 -51.5 20t-20.5 50q0 31 20.5 51t51.5 20t51.5 -20t20.5 -51
q0 -30 -20 -50t-52 -20z" />
    <glyph glyph-name="uni1EC7" unicode="&#x1ec7;" 
d="M348 700l104 -164h-106l-59 102l-59 -102h-105l104 164h121zM285 -10q-73 0 -130.5 33.5t-90 90t-32.5 125.5t33 125.5t90 90t128 33.5t126 -30.5t87.5 -84.5t32.5 -124v-30h-384q2 -38 20 -68q19 -32 51 -49.5t69 -17.5q42 0 75.5 17t55.5 51h110q-16 -48 -51.5 -84.5
t-84 -57t-105.5 -20.5zM416 292q-4 25 -16 45q-18 29 -48.5 45t-68.5 16q-36 0 -67.5 -18.5t-50.5 -49.5q-11 -18 -16 -38h267zM281 -188q-31 0 -52 20t-21 50q0 31 20.5 51t52.5 20q31 0 51.5 -20t20.5 -51q0 -30 -20.5 -50t-51.5 -20z" />
    <glyph glyph-name="uni1EC8" unicode="&#x1ec8;" horiz-adv-x="243" 
d="M49 889h34q54 0 85 -24.5t31 -63.5q0 -23 -12 -43t-37 -37t-65 -29l-36 26q32 18 47 34t15 32q0 13 -9 20t-25 7h-28v78zM180 0h-117v650h117v-650z" />
    <glyph glyph-name="uni1EC9" unicode="&#x1ec9;" horiz-adv-x="218" 
d="M34 718h34q55 0 85.5 -24.5t30.5 -63.5q0 -23 -11.5 -43t-36.5 -37t-65 -29l-37 26q33 18 48 34t15 32q0 13 -9 20t-26 7h-28v78zM52 478h114v-478h-114v478z" />
    <glyph glyph-name="uni1ECA" unicode="&#x1eca;" horiz-adv-x="243" 
d="M180 0h-117v650h117v-650zM122 -188q-31 0 -51.5 20t-20.5 50q0 31 20.5 51t51.5 20t52 -20t21 -51q0 -30 -20.5 -50t-52.5 -20z" />
    <glyph glyph-name="uni1ECB" unicode="&#x1ecb;" horiz-adv-x="218" 
d="M109 544q-30 0 -49 18.5t-19 46.5q0 29 19 47t49 18q31 0 49.5 -18t18.5 -47q0 -28 -18.5 -46.5t-49.5 -18.5zM52 478h114v-478h-114v478zM110 -188q-31 0 -52 20t-21 50q0 31 20.5 51t52.5 20q31 0 51.5 -20t20.5 -51q0 -30 -20.5 -50t-51.5 -20z" />
    <glyph glyph-name="uni1ECC" unicode="&#x1ecc;" horiz-adv-x="751" 
d="M34 325q0 71 26 131.5t73 106.5t109 71.5t134 25.5q71 0 133 -25.5t109 -71.5t73.5 -106.5t26.5 -131.5t-26.5 -131.5t-73.5 -106.5t-109 -71.5t-133 -25.5q-72 0 -134 25.5t-109 71.5t-73 106.5t-26 131.5zM154 325q0 -47 17.5 -88t47.5 -72t70 -48t87 -17q46 0 86 17
t70.5 48t47.5 72t17 88t-17 88t-47.5 72t-70.5 48t-86 17q-47 0 -87 -17t-70 -48t-47.5 -72t-17.5 -88zM376 -188q-31 0 -51.5 20t-20.5 50q0 31 20.5 51t51.5 20q32 0 52.5 -20t20.5 -51q0 -30 -20.5 -50t-52.5 -20z" />
    <glyph glyph-name="uni1ECD" unicode="&#x1ecd;" horiz-adv-x="578" 
d="M289 -10q-72 0 -130.5 33t-92.5 89.5t-34 126.5t34 126.5t92.5 89.5t130.5 33q73 0 131 -33t92 -89.5t34 -126.5t-34 -126.5t-92 -89.5t-131 -33zM289 385q-40 0 -73 -19.5t-52 -53t-19 -73.5t19 -73.5t52 -53t73 -19.5t73 19.5t52 53t19 73.5t-19 73.5t-52 53t-73 19.5z
M290 -188q-31 0 -51.5 20t-20.5 50q0 31 20 51t52 20q31 0 51.5 -20t20.5 -51q0 -30 -20.5 -50t-51.5 -20z" />
    <glyph glyph-name="uni1ECE" unicode="&#x1ece;" horiz-adv-x="751" 
d="M303 898h34q55 0 85.5 -24.5t30.5 -63.5q0 -23 -11.5 -43t-36.5 -37t-65 -29l-37 26q33 18 48 34t15 32q0 13 -9 20t-26 7h-28v78zM34 325q0 71 26 131.5t73 106.5t109 71.5t134 25.5q71 0 133 -25.5t109 -71.5t73.5 -106.5t26.5 -131.5t-26.5 -131.5t-73.5 -106.5
t-109 -71.5t-133 -25.5q-72 0 -134 25.5t-109 71.5t-73 106.5t-26 131.5zM154 325q0 -47 17.5 -88t47.5 -72t70 -48t87 -17q46 0 86 17t70.5 48t47.5 72t17 88t-17 88t-47.5 72t-70.5 48t-86 17q-47 0 -87 -17t-70 -48t-47.5 -72t-17.5 -88z" />
    <glyph glyph-name="uni1ECF" unicode="&#x1ecf;" horiz-adv-x="578" 
d="M215 723h34q54 0 85 -24.5t31 -63.5q0 -23 -12 -43t-37 -37t-65 -29l-36 26q32 18 47.5 34t15.5 32q0 12 -9.5 19.5t-25.5 7.5h-28v78zM289 -10q-72 0 -130.5 33t-92.5 89.5t-34 126.5t34 126.5t92.5 89.5t130.5 33q73 0 131 -33t92 -89.5t34 -126.5t-34 -126.5
t-92 -89.5t-131 -33zM289 385q-40 0 -73 -19.5t-52 -53t-19 -73.5t19 -73.5t52 -53t73 -19.5t73 19.5t52 53t19 73.5t-19 73.5t-52 53t-73 19.5z" />
    <glyph glyph-name="uni1ED0" unicode="&#x1ed0;" horiz-adv-x="751" 
d="M507 842l67 164h118l-90 -164h-95zM436 871l104 -164h-106l-59 102l-59 -102h-105l104 164h121zM34 325q0 71 26 131.5t73 106.5t109 71.5t134 25.5q71 0 133 -25.5t109 -71.5t73.5 -106.5t26.5 -131.5t-26.5 -131.5t-73.5 -106.5t-109 -71.5t-133 -25.5q-72 0 -134 25.5
t-109 71.5t-73 106.5t-26 131.5zM154 325q0 -47 17.5 -88t47.5 -72t70 -48t87 -17q46 0 86 17t70.5 48t47.5 72t17 88t-17 88t-47.5 72t-70.5 48t-86 17q-47 0 -87 -17t-70 -48t-47.5 -72t-17.5 -88z" />
    <glyph glyph-name="uni1ED1" unicode="&#x1ed1;" horiz-adv-x="578" 
d="M443 650l67 164h118l-91 -164h-94zM350 700l104 -164h-107l-59 102l-58 -102h-105l103 164h122zM289 -10q-72 0 -130.5 33t-92.5 89.5t-34 126.5t34 126.5t92.5 89.5t130.5 33q73 0 131 -33t92 -89.5t34 -126.5t-34 -126.5t-92 -89.5t-131 -33zM289 385q-40 0 -73 -19.5
t-52 -53t-19 -73.5t19 -73.5t52 -53t73 -19.5t73 19.5t52 53t19 73.5t-19 73.5t-52 53t-73 19.5z" />
    <glyph glyph-name="uni1ED2" unicode="&#x1ed2;" horiz-adv-x="751" 
d="M598 842h-94l-98 164h120zM436 871l104 -164h-106l-59 102l-59 -102h-105l104 164h121zM34 325q0 71 26 131.5t73 106.5t109 71.5t134 25.5q71 0 133 -25.5t109 -71.5t73.5 -106.5t26.5 -131.5t-26.5 -131.5t-73.5 -106.5t-109 -71.5t-133 -25.5q-72 0 -134 25.5
t-109 71.5t-73 106.5t-26 131.5zM154 325q0 -47 17.5 -88t47.5 -72t70 -48t87 -17q46 0 86 17t70.5 48t47.5 72t17 88t-17 88t-47.5 72t-70.5 48t-86 17q-47 0 -87 -17t-70 -48t-47.5 -72t-17.5 -88z" />
    <glyph glyph-name="uni1ED3" unicode="&#x1ed3;" horiz-adv-x="578" 
d="M537 650h-94l-97 164h120zM350 700l104 -164h-107l-59 102l-58 -102h-105l103 164h122zM289 -10q-72 0 -130.5 33t-92.5 89.5t-34 126.5t34 126.5t92.5 89.5t130.5 33q73 0 131 -33t92 -89.5t34 -126.5t-34 -126.5t-92 -89.5t-131 -33zM289 385q-40 0 -73 -19.5t-52 -53
t-19 -73.5t19 -73.5t52 -53t73 -19.5t73 19.5t52 53t19 73.5t-19 73.5t-52 53t-73 19.5z" />
    <glyph glyph-name="uni1ED4" unicode="&#x1ed4;" horiz-adv-x="751" 
d="M508 1008h34q55 0 85.5 -24.5t30.5 -63.5q0 -23 -11.5 -43t-36.5 -37t-65 -30l-37 27q33 18 48 34t15 31q0 13 -9 20.5t-26 7.5h-28v78zM436 871l104 -164h-106l-59 102l-59 -102h-105l104 164h121zM34 325q0 71 26 131.5t73 106.5t109 71.5t134 25.5q71 0 133 -25.5
t109 -71.5t73.5 -106.5t26.5 -131.5t-26.5 -131.5t-73.5 -106.5t-109 -71.5t-133 -25.5q-72 0 -134 25.5t-109 71.5t-73 106.5t-26 131.5zM154 325q0 -47 17.5 -88t47.5 -72t70 -48t87 -17q46 0 86 17t70.5 48t47.5 72t17 88t-17 88t-47.5 72t-70.5 48t-86 17q-47 0 -87 -17
t-70 -48t-47.5 -72t-17.5 -88z" />
    <glyph glyph-name="uni1ED5" unicode="&#x1ed5;" horiz-adv-x="578" 
d="M408 848h34q54 0 85 -25t31 -64q0 -23 -11.5 -42.5t-37 -36.5t-65.5 -30l-36 27q33 17 48 33t15 32q0 13 -9 20t-26 7h-28v79zM350 700l104 -164h-107l-59 102l-58 -102h-105l103 164h122zM289 -10q-72 0 -130.5 33t-92.5 89.5t-34 126.5t34 126.5t92.5 89.5t130.5 33
q73 0 131 -33t92 -89.5t34 -126.5t-34 -126.5t-92 -89.5t-131 -33zM289 385q-40 0 -73 -19.5t-52 -53t-19 -73.5t19 -73.5t52 -53t73 -19.5t73 19.5t52 53t19 73.5t-19 73.5t-52 53t-73 19.5z" />
    <glyph glyph-name="uni1ED6" unicode="&#x1ed6;" horiz-adv-x="751" 
d="M216 907v61q0 51 23.5 78.5t65.5 27.5q22 0 38.5 -8.5t29.5 -20.5t23 -24t18.5 -20.5t18.5 -8.5t15 7t5 23v49h83v-61q0 -52 -24 -79.5t-65 -27.5q-23 0 -40 8.5t-29.5 21t-22.5 24.5t-18.5 20.5t-17.5 8.5q-20 0 -20 -30v-49h-83zM436 871l104 -164h-106l-59 102
l-59 -102h-105l104 164h121zM34 325q0 71 26 131.5t73 106.5t109 71.5t134 25.5q71 0 133 -25.5t109 -71.5t73.5 -106.5t26.5 -131.5t-26.5 -131.5t-73.5 -106.5t-109 -71.5t-133 -25.5q-72 0 -134 25.5t-109 71.5t-73 106.5t-26 131.5zM154 325q0 -47 17.5 -88t47.5 -72
t70 -48t87 -17q46 0 86 17t70.5 48t47.5 72t17 88t-17 88t-47.5 72t-70.5 48t-86 17q-47 0 -87 -17t-70 -48t-47.5 -72t-17.5 -88z" />
    <glyph glyph-name="uni1ED7" unicode="&#x1ed7;" horiz-adv-x="578" 
d="M129 738v61q0 51 24 78.5t65 27.5q23 0 39.5 -8.5t29 -20.5t22.5 -24t19 -20.5t18 -8.5q11 0 15.5 7t4.5 23v49h83v-61q0 -52 -24 -79.5t-65 -27.5q-23 0 -39.5 8.5t-29 21t-22.5 24.5t-18.5 20.5t-18.5 8.5q-20 0 -20 -30v-49h-83zM350 700l104 -164h-107l-59 102
l-58 -102h-105l103 164h122zM289 -10q-72 0 -130.5 33t-92.5 89.5t-34 126.5t34 126.5t92.5 89.5t130.5 33q73 0 131 -33t92 -89.5t34 -126.5t-34 -126.5t-92 -89.5t-131 -33zM289 385q-40 0 -73 -19.5t-52 -53t-19 -73.5t19 -73.5t52 -53t73 -19.5t73 19.5t52 53t19 73.5
t-19 73.5t-52 53t-73 19.5z" />
    <glyph glyph-name="uni1ED8" unicode="&#x1ed8;" horiz-adv-x="751" 
d="M436 872l104 -164h-106l-59 101l-59 -101h-105l104 164h121zM34 325q0 71 26 131.5t73 106.5t109 71.5t134 25.5q71 0 133 -25.5t109 -71.5t73.5 -106.5t26.5 -131.5t-26.5 -131.5t-73.5 -106.5t-109 -71.5t-133 -25.5q-72 0 -134 25.5t-109 71.5t-73 106.5t-26 131.5z
M154 325q0 -47 17.5 -88t47.5 -72t70 -48t87 -17q46 0 86 17t70.5 48t47.5 72t17 88t-17 88t-47.5 72t-70.5 48t-86 17q-47 0 -87 -17t-70 -48t-47.5 -72t-17.5 -88zM376 -188q-31 0 -51.5 20t-20.5 50q0 31 20.5 51t51.5 20q32 0 52.5 -20t20.5 -51q0 -30 -20.5 -50
t-52.5 -20z" />
    <glyph glyph-name="uni1ED9" unicode="&#x1ed9;" horiz-adv-x="578" 
d="M350 700l104 -164h-107l-59 102l-58 -102h-105l103 164h122zM289 -10q-72 0 -130.5 33t-92.5 89.5t-34 126.5t34 126.5t92.5 89.5t130.5 33q73 0 131 -33t92 -89.5t34 -126.5t-34 -126.5t-92 -89.5t-131 -33zM289 385q-40 0 -73 -19.5t-52 -53t-19 -73.5t19 -73.5t52 -53
t73 -19.5t73 19.5t52 53t19 73.5t-19 73.5t-52 53t-73 19.5zM290 -188q-31 0 -51.5 20t-20.5 50q0 31 20 51t52 20q31 0 51.5 -20t20.5 -51q0 -30 -20.5 -50t-51.5 -20z" />
    <glyph glyph-name="uni1EDA" unicode="&#x1eda;" horiz-adv-x="751" 
d="M299 708l67 164h118l-91 -164h-94zM34 325q0 71 26 131.5t73 106.5t109 71.5t134 25.5q44 0 85 -10q36 0 60.5 12.5t24.5 48.5v24h85v-29q0 -74 -47 -106q-3 -2 -5 -4q21 -15 39 -33q47 -46 73.5 -106.5t26.5 -131.5t-26.5 -131.5t-73.5 -106.5t-109 -71.5t-133 -25.5
q-72 0 -134 25.5t-109 71.5t-73 106.5t-26 131.5zM154 325q0 -47 17.5 -88t47.5 -72t70 -48t87 -17q46 0 86 17t70.5 48t47.5 72t17 88t-17 88t-47.5 72t-70.5 48t-86 17q-47 0 -87 -17t-70 -48t-47.5 -72t-17.5 -88z" />
    <glyph glyph-name="uni1EDB" unicode="&#x1edb;" horiz-adv-x="578" 
d="M235 538l66 164h119l-91 -164h-94zM289 -10q-72 0 -130.5 33t-92.5 89.5t-34 126.5t34 126.5t92.5 89.5t130.5 33q40 0 76 -10q35 0 59.5 12.5t24.5 48.5v24h85v-29q0 -73 -46 -106q-8 -6 -17 -10q23 -23 41 -52q34 -57 34 -127t-34 -126.5t-92 -89.5t-131 -33zM289 385
q-40 0 -73 -19.5t-52 -53t-19 -73.5t19 -73.5t52 -53t73 -19.5t73 19.5t52 53t19 73.5t-19 73.5t-52 53t-73 19.5z" />
    <glyph glyph-name="uni1EDC" unicode="&#x1edc;" horiz-adv-x="751" 
d="M430 710h-94l-98 164h120zM34 325q0 71 26 131.5t73 106.5t109 71.5t134 25.5q44 0 85 -10q36 0 60.5 12.5t24.5 48.5v24h85v-29q0 -74 -47 -106q-3 -2 -5 -4q21 -15 39 -33q47 -46 73.5 -106.5t26.5 -131.5t-26.5 -131.5t-73.5 -106.5t-109 -71.5t-133 -25.5
q-72 0 -134 25.5t-109 71.5t-73 106.5t-26 131.5zM154 325q0 -47 17.5 -88t47.5 -72t70 -48t87 -17q46 0 86 17t70.5 48t47.5 72t17 88t-17 88t-47.5 72t-70.5 48t-86 17q-47 0 -87 -17t-70 -48t-47.5 -72t-17.5 -88z" />
    <glyph glyph-name="uni1EDD" unicode="&#x1edd;" horiz-adv-x="578" 
d="M343 538h-94l-97 165h120zM289 -10q-72 0 -130.5 33t-92.5 89.5t-34 126.5t34 126.5t92.5 89.5t130.5 33q40 0 76 -10q35 0 59.5 12.5t24.5 48.5v24h85v-29q0 -73 -46 -106q-8 -6 -17 -10q23 -23 41 -52q34 -57 34 -127t-34 -126.5t-92 -89.5t-131 -33zM289 385
q-40 0 -73 -19.5t-52 -53t-19 -73.5t19 -73.5t52 -53t73 -19.5t73 19.5t52 53t19 73.5t-19 73.5t-52 53t-73 19.5z" />
    <glyph glyph-name="uni1EDE" unicode="&#x1ede;" horiz-adv-x="751" 
d="M300 896h34q54 0 85 -24.5t31 -64.5q0 -23 -11.5 -42.5t-37 -36.5t-65.5 -30l-36 27q33 17 48 33t15 32q0 13 -9 20t-26 7h-28v79zM34 325q0 71 26 131.5t73 106.5t109 71.5t134 25.5q44 0 85 -10q36 0 60.5 12.5t24.5 48.5v24h85v-29q0 -74 -47 -106q-3 -2 -5 -4
q21 -15 39 -33q47 -46 73.5 -106.5t26.5 -131.5t-26.5 -131.5t-73.5 -106.5t-109 -71.5t-133 -25.5q-72 0 -134 25.5t-109 71.5t-73 106.5t-26 131.5zM154 325q0 -47 17.5 -88t47.5 -72t70 -48t87 -17q46 0 86 17t70.5 48t47.5 72t17 88t-17 88t-47.5 72t-70.5 48t-86 17
q-47 0 -87 -17t-70 -48t-47.5 -72t-17.5 -88z" />
    <glyph glyph-name="uni1EDF" unicode="&#x1edf;" horiz-adv-x="578" 
d="M214 727h34q54 0 85 -25t31 -64q0 -23 -11.5 -42.5t-36.5 -36.5t-66 -30l-36 27q33 17 48 33t15 32q0 13 -9 20t-26 7h-28v79zM289 -10q-72 0 -130.5 33t-92.5 89.5t-34 126.5t34 126.5t92.5 89.5t130.5 33q40 0 76 -10q35 0 59.5 12.5t24.5 48.5v24h85v-29
q0 -73 -46 -106q-8 -6 -17 -10q23 -23 41 -52q34 -57 34 -127t-34 -126.5t-92 -89.5t-131 -33zM289 385q-40 0 -73 -19.5t-52 -53t-19 -73.5t19 -73.5t52 -53t73 -19.5t73 19.5t52 53t19 73.5t-19 73.5t-52 53t-73 19.5z" />
    <glyph glyph-name="uni1EE0" unicode="&#x1ee0;" horiz-adv-x="751" 
d="M216 708v61q0 52 23.5 79.5t65.5 27.5q22 0 38.5 -8.5t29.5 -21t23 -24.5t18.5 -20.5t18.5 -8.5t15 7.5t5 22.5v49h83v-61q0 -52 -24 -79.5t-65 -27.5q-23 0 -40 8.5t-29.5 21t-22.5 24.5t-18.5 20.5t-17.5 8.5q-20 0 -20 -30v-49h-83zM34 325q0 71 26 131.5t73 106.5
t109 71.5t134 25.5q44 0 85 -10q36 0 60.5 12.5t24.5 48.5v24h85v-29q0 -74 -47 -106q-3 -2 -5 -4q21 -15 39 -33q47 -46 73.5 -106.5t26.5 -131.5t-26.5 -131.5t-73.5 -106.5t-109 -71.5t-133 -25.5q-72 0 -134 25.5t-109 71.5t-73 106.5t-26 131.5zM154 325
q0 -47 17.5 -88t47.5 -72t70 -48t87 -17q46 0 86 17t70.5 48t47.5 72t17 88t-17 88t-47.5 72t-70.5 48t-86 17q-47 0 -87 -17t-70 -48t-47.5 -72t-17.5 -88z" />
    <glyph glyph-name="uni1EE1" unicode="&#x1ee1;" horiz-adv-x="578" 
d="M129 536v61q0 52 24 79.5t65 27.5q23 0 39.5 -8.5t29 -20.5t22.5 -24.5t19 -21t18 -8.5q11 0 15.5 7.5t4.5 22.5v49h83v-60q0 -53 -24 -80.5t-65 -27.5q-23 0 -39.5 8.5t-29 21t-22.5 24.5t-18.5 20.5t-18.5 8.5q-20 0 -20 -30v-49h-83zM289 -10q-72 0 -130.5 33
t-92.5 89.5t-34 126.5t34 126.5t92.5 89.5t130.5 33q40 0 76 -10q35 0 59.5 12.5t24.5 48.5v24h85v-29q0 -73 -46 -106q-8 -6 -17 -10q23 -23 41 -52q34 -57 34 -127t-34 -126.5t-92 -89.5t-131 -33zM289 385q-40 0 -73 -19.5t-52 -53t-19 -73.5t19 -73.5t52 -53t73 -19.5
t73 19.5t52 53t19 73.5t-19 73.5t-52 53t-73 19.5z" />
    <glyph glyph-name="uni1EE2" unicode="&#x1ee2;" horiz-adv-x="751" 
d="M34 325q0 71 26 131.5t73 106.5t109 71.5t134 25.5q44 0 85 -10q36 0 60.5 12.5t24.5 48.5v24h85v-29q0 -74 -47 -106q-3 -2 -5 -4q21 -15 39 -33q47 -46 73.5 -106.5t26.5 -131.5t-26.5 -131.5t-73.5 -106.5t-109 -71.5t-133 -25.5q-72 0 -134 25.5t-109 71.5t-73 106.5
t-26 131.5zM154 325q0 -47 17.5 -88t47.5 -72t70 -48t87 -17q46 0 86 17t70.5 48t47.5 72t17 88t-17 88t-47.5 72t-70.5 48t-86 17q-47 0 -87 -17t-70 -48t-47.5 -72t-17.5 -88zM376 -188q-31 0 -51.5 20t-20.5 50q0 31 20.5 51t51.5 20t51.5 -20t20.5 -51q0 -30 -20 -50
t-52 -20z" />
    <glyph glyph-name="uni1EE3" unicode="&#x1ee3;" horiz-adv-x="578" 
d="M289 -10q-72 0 -130.5 33t-92.5 89.5t-34 126.5t34 126.5t92.5 89.5t130.5 33q40 0 76 -10q35 0 59.5 12.5t24.5 48.5v24h85v-29q0 -73 -46 -106q-8 -6 -17 -10q23 -23 41 -52q34 -57 34 -127t-34 -126.5t-92 -89.5t-131 -33zM289 385q-40 0 -73 -19.5t-52 -53t-19 -73.5
t19 -73.5t52 -53t73 -19.5t73 19.5t52 53t19 73.5t-19 73.5t-52 53t-73 19.5zM290 -188q-32 0 -52.5 20t-20.5 50q0 31 20.5 51t52.5 20q31 0 51.5 -20t20.5 -51q0 -30 -20.5 -50t-51.5 -20z" />
    <glyph glyph-name="uni1EE4" unicode="&#x1ee4;" horiz-adv-x="561" 
d="M281 104q32 0 55.5 14t37.5 38t14 56v438h118v-438q0 -66 -28 -116t-78.5 -78t-118.5 -28t-119 28t-79 78t-28 116v438h118v-438q0 -32 13.5 -56t38 -38t56.5 -14zM281 -188q-31 0 -51.5 20t-20.5 50q0 31 20.5 51t51.5 20q32 0 52.5 -20t20.5 -51q0 -30 -20.5 -50
t-52.5 -20z" />
    <glyph glyph-name="uni1EE5" unicode="&#x1ee5;" horiz-adv-x="505" 
d="M50 478h114v-289q0 -44 24 -70t65 -26t64.5 26t23.5 70v289h114v-282q0 -97 -54.5 -151.5t-147.5 -54.5t-148 54.5t-55 151.5v282zM253 -188q-31 0 -51.5 20t-20.5 50q0 31 20.5 51t51.5 20q32 0 52.5 -20t20.5 -51q0 -30 -20.5 -50t-52.5 -20z" />
    <glyph glyph-name="uni1EE6" unicode="&#x1ee6;" horiz-adv-x="561" 
d="M203 886h34q54 0 85 -24.5t31 -63.5q0 -23 -12 -43t-37 -37t-65 -30l-36 27q32 18 47 34t15 31q0 13 -9 20.5t-25 7.5h-28v78zM281 104q32 0 55.5 14t37.5 38t14 56v438h118v-438q0 -66 -28 -116t-78.5 -78t-118.5 -28t-119 28t-79 78t-28 116v438h118v-438
q0 -32 13.5 -56t38 -38t56.5 -14z" />
    <glyph glyph-name="uni1EE7" unicode="&#x1ee7;" horiz-adv-x="505" 
d="M177 714h34q55 0 85.5 -24.5t30.5 -63.5q0 -23 -11.5 -43t-36.5 -37t-65 -30l-37 27q33 18 48 34t15 31q0 13 -9 20.5t-26 7.5h-28v78zM50 478h114v-289q0 -44 24 -70t65 -26t64.5 26t23.5 70v289h114v-282q0 -97 -54.5 -151.5t-147.5 -54.5t-148 54.5t-55 151.5v282z
" />
    <glyph glyph-name="uni1EE8" unicode="&#x1ee8;" horiz-adv-x="561" 
d="M234 706l67 164h118l-91 -164h-94zM281 104q32 0 55.5 14t37.5 38t14 56v438h27q36 0 60.5 12.5t24.5 48.5v24h84v-29q0 -74 -46 -106q-15 -10 -32 -17v-371q0 -66 -28 -116t-78.5 -78t-118.5 -28t-119 28t-79 78t-28 116v438h118v-438q0 -32 13.5 -56t38 -38t56.5 -14z
" />
    <glyph glyph-name="uni1EE9" unicode="&#x1ee9;" horiz-adv-x="505" 
d="M210 537l66 165h119l-91 -165h-94zM50 478h114v-289q0 -44 24 -70t65 -26t64.5 26t23.5 70v289h24q36 0 60.5 12.5t24.5 48.5v24h85v-29q0 -73 -47 -106q-15 -10 -33 -18v-214q0 -97 -54.5 -151.5t-147.5 -54.5t-148 54.5t-55 151.5v282z" />
    <glyph glyph-name="uni1EEA" unicode="&#x1eea;" horiz-adv-x="561" 
d="M329 712h-94l-97 164h120zM281 104q32 0 55.5 14t37.5 38t14 56v438h27q36 0 60.5 12.5t24.5 48.5v24h84v-29q0 -74 -46 -106q-15 -10 -32 -17v-371q0 -66 -28 -116t-78.5 -78t-118.5 -28t-119 28t-79 78t-28 116v438h118v-438q0 -32 13.5 -56t38 -38t56.5 -14z" />
    <glyph glyph-name="uni1EEB" unicode="&#x1eeb;" horiz-adv-x="505" 
d="M305 537h-95l-97 165h120zM50 478h114v-289q0 -44 24 -70t65 -26t64.5 26t23.5 70v289h24q36 0 60.5 12.5t24.5 48.5v24h85v-29q0 -73 -47 -106q-15 -10 -33 -18v-214q0 -97 -54.5 -151.5t-147.5 -54.5t-148 54.5t-55 151.5v282z" />
    <glyph glyph-name="uni1EEC" unicode="&#x1eec;" horiz-adv-x="561" 
d="M205 897h34q55 0 85.5 -24.5t30.5 -63.5q0 -23 -11.5 -43t-36.5 -37t-65 -29l-37 26q33 18 48 34t15 32q0 13 -9 20t-26 7h-28v78zM281 104q32 0 55.5 14t37.5 38t14 56v438h27q36 0 60.5 12.5t24.5 48.5v24h84v-29q0 -74 -46 -106q-15 -10 -32 -17v-371q0 -66 -28 -116
t-78.5 -78t-118.5 -28t-119 28t-79 78t-28 116v438h118v-438q0 -32 13.5 -56t38 -38t56.5 -14z" />
    <glyph glyph-name="uni1EED" unicode="&#x1eed;" horiz-adv-x="505" 
d="M177 713h34q55 0 85.5 -25t30.5 -64q0 -23 -11.5 -42.5t-36.5 -36.5t-65 -30l-37 27q33 17 48 33t15 32q0 13 -9 20t-26 7h-28v79zM50 478h114v-289q0 -44 24 -70t65 -26t64.5 26t23.5 70v289h24q36 0 60.5 12.5t24.5 48.5v24h85v-29q0 -73 -47 -106q-15 -10 -33 -18
v-214q0 -97 -54.5 -151.5t-147.5 -54.5t-148 54.5t-55 151.5v282z" />
    <glyph glyph-name="uni1EEE" unicode="&#x1eee;" horiz-adv-x="561" 
d="M121 708v61q0 52 24 79.5t65 27.5q22 0 38.5 -8.5t29.5 -21t23 -24.5t18.5 -20.5t18.5 -8.5t15 7.5t5 22.5v49h83v-61q0 -52 -24 -79.5t-65 -27.5q-23 0 -40 8.5t-29.5 21t-22.5 24.5t-18.5 20.5t-17.5 8.5q-20 0 -20 -30v-49h-83zM281 104q32 0 55.5 14t37.5 38t14 56
v438h27q36 0 60.5 12.5t24.5 48.5v24h84v-29q0 -74 -46 -106q-15 -10 -32 -17v-371q0 -66 -28 -116t-78.5 -78t-118.5 -28t-119 28t-79 78t-28 116v438h118v-438q0 -32 13.5 -56t38 -38t56.5 -14z" />
    <glyph glyph-name="uni1EEF" unicode="&#x1eef;" horiz-adv-x="505" 
d="M93 536v61q0 52 23.5 79.5t65.5 27.5q22 0 38.5 -8.5t29.5 -20.5t23 -24.5t18.5 -21t18.5 -8.5t15 7.5t5 22.5v49h83v-60q0 -53 -24 -80.5t-65 -27.5q-23 0 -40 8.5t-29.5 21t-22.5 24.5t-18.5 20.5t-17.5 8.5q-20 0 -20 -30v-49h-83zM50 478h114v-289q0 -44 24 -70
t65 -26t64.5 26t23.5 70v289h24q36 0 60.5 12.5t24.5 48.5v24h85v-29q0 -73 -47 -106q-15 -10 -33 -18v-214q0 -97 -54.5 -151.5t-147.5 -54.5t-148 54.5t-55 151.5v282z" />
    <glyph glyph-name="uni1EF0" unicode="&#x1ef0;" horiz-adv-x="561" 
d="M281 104q32 0 55.5 14t37.5 38t14 56v438h27q36 0 60.5 12.5t24.5 48.5v24h84v-29q0 -74 -46 -106q-15 -10 -32 -17v-371q0 -66 -28 -116t-78.5 -78t-118.5 -28t-119 28t-79 78t-28 116v438h118v-438q0 -32 13.5 -56t38 -38t56.5 -14zM281 -188q-31 0 -51.5 20t-20.5 50
q0 31 20.5 51t51.5 20t51.5 -20t20.5 -51q0 -30 -20 -50t-52 -20z" />
    <glyph glyph-name="uni1EF1" unicode="&#x1ef1;" horiz-adv-x="505" 
d="M50 478h114v-289q0 -44 24 -70t65 -26t64.5 26t23.5 70v289h24q36 0 60.5 12.5t24.5 48.5v24h85v-29q0 -73 -47 -106q-15 -10 -33 -18v-214q0 -97 -54.5 -151.5t-147.5 -54.5t-148 54.5t-55 151.5v282zM253 -188q-31 0 -51.5 20t-20.5 50q0 31 20.5 51t51.5 20t51.5 -20
t20.5 -51q0 -30 -20 -50t-52 -20z" />
    <glyph glyph-name="Ygrave" unicode="&#x1ef2;" horiz-adv-x="527" 
d="M334 707h-95l-97 164h120zM216 0l49 179q-59 6 -106 31q-61 33 -95 94.5t-34 147.5q0 44 8 91t24 107h114q-17 -65 -24 -109t-7 -86q0 -81 42 -124q40 -41 108 -43l99 362h117l-171 -650h-124z" />
    <glyph glyph-name="ygrave" unicode="&#x1ef3;" horiz-adv-x="508" 
d="M327 536h-94l-98 164h120zM37 257q0 53 8 107.5t25 113.5h114q-18 -70 -26 -121t-8 -97q0 -77 39 -117q31 -32 80 -38l103 373h117l-170 -628h-120l41 147q-43 8 -79 27q-58 32 -91 91t-33 142z" />
    <glyph glyph-name="uni1EF4" unicode="&#x1ef4;" horiz-adv-x="527" 
d="M216 0l49 179q-59 6 -106 31q-61 33 -95 94.5t-34 147.5q0 44 8 91t24 107h114q-17 -65 -24 -109t-7 -86q0 -81 42 -124q40 -41 108 -43l99 362h117l-171 -650h-124zM264 -188q-31 0 -51.5 20t-20.5 50q0 31 20 51t52 20q31 0 51.5 -20t20.5 -51q0 -30 -20.5 -50
t-51.5 -20z" />
    <glyph glyph-name="uni1EF5" unicode="&#x1ef5;" horiz-adv-x="508" 
d="M37 257q0 53 8 107.5t25 113.5h114q-18 -70 -26 -121t-8 -97q0 -77 39 -117q31 -32 80 -38l103 373h117l-170 -628h-120l41 147q-43 8 -79 27q-58 32 -91 91t-33 142zM451 -103q-31 0 -52 20t-21 51q0 30 20.5 50.5t52.5 20.5q31 0 51.5 -20t20.5 -51t-20.5 -51
t-51.5 -20z" />
    <glyph glyph-name="uni1EF6" unicode="&#x1ef6;" horiz-adv-x="527" 
d="M209 871h34q54 0 85 -24.5t31 -63.5q0 -23 -11.5 -43t-36.5 -37t-66 -29l-36 26q33 18 48 34t15 32q0 12 -9 19.5t-26 7.5h-28v78zM216 0l49 179q-59 6 -106 31q-61 33 -95 94.5t-34 147.5q0 44 8 91t24 107h114q-17 -65 -24 -109t-7 -86q0 -81 42 -124q40 -41 108 -43
l99 362h117l-171 -650h-124z" />
    <glyph glyph-name="uni1EF7" unicode="&#x1ef7;" horiz-adv-x="508" 
d="M221 718h34q54 0 85 -24.5t31 -63.5q0 -23 -12 -43t-37 -37t-65 -30l-36 27q32 18 47 34t15 31q0 13 -9 20.5t-25 7.5h-28v78zM37 257q0 53 8 107.5t25 113.5h114q-18 -70 -26 -121t-8 -97q0 -77 39 -117q31 -32 80 -38l103 373h117l-170 -628h-120l41 147q-43 8 -79 27
q-58 32 -91 91t-33 142z" />
    <glyph glyph-name="uni1EF8" unicode="&#x1ef8;" horiz-adv-x="527" 
d="M103 708v61q0 52 24 79.5t65 27.5q23 0 39.5 -8.5t29 -21t22.5 -24.5t19 -20.5t18 -8.5q11 0 15.5 7.5t4.5 22.5v49h83v-61q0 -52 -24 -79.5t-65 -27.5q-23 0 -39.5 8.5t-29 21t-22.5 24.5t-18.5 20.5t-18.5 8.5q-20 0 -20 -30v-49h-83zM216 0l49 179q-59 6 -106 31
q-61 33 -95 94.5t-34 147.5q0 44 8 91t24 107h114q-17 -65 -24 -109t-7 -86q0 -81 42 -124q40 -41 108 -43l99 362h117l-171 -650h-124z" />
    <glyph glyph-name="uni1EF9" unicode="&#x1ef9;" horiz-adv-x="508" 
d="M119 535v61q0 52 24 79.5t65 27.5q22 0 39 -8.5t29.5 -21t22.5 -24.5t18.5 -20.5t18.5 -8.5t15 7t5 23v49h83v-61q0 -52 -24 -79.5t-65 -27.5q-23 0 -40 8.5t-29.5 21t-22.5 24.5t-18.5 20.5t-17.5 8.5q-20 0 -20 -30v-49h-83zM37 257q0 53 8 107.5t25 113.5h114
q-18 -70 -26 -121t-8 -97q0 -77 39 -117q31 -32 80 -38l103 373h117l-170 -628h-120l41 147q-43 8 -79 27q-58 32 -91 91t-33 142z" />
    <glyph glyph-name="endash" unicode="&#x2013;" horiz-adv-x="514" 
d="M35 299h444v-106h-444v106z" />
    <glyph glyph-name="emdash" unicode="&#x2014;" horiz-adv-x="1014" 
d="M35 299h944v-106h-944v106z" />
    <glyph glyph-name="quoteleft" unicode="&#x2018;" horiz-adv-x="207" 
d="M95 650h73q-19 -44 -31 -77q-5 -13 -9 -25q16 -5 28 -17q19 -19 19 -48t-19 -48t-50 -19q-30 0 -49.5 20t-19.5 52q0 25 15.5 67t42.5 95z" />
    <glyph glyph-name="quoteright" unicode="&#x2019;" horiz-adv-x="207" 
d="M112 426h-72q19 44 31 77q4 13 8 25q-15 5 -27 17q-19 19 -19 48t19.5 48t48.5 19q31 0 50 -19.5t19 -51.5q0 -26 -15 -67.5t-43 -95.5z" />
    <glyph glyph-name="quotesinglbase" unicode="&#x201a;" horiz-adv-x="207" 
d="M112 -109h-72q19 43 31 77q4 13 8 25q-15 5 -27 16q-19 20 -19 48q0 30 19.5 49t48.5 19q31 0 50 -20t19 -52q0 -25 -15 -66.5t-43 -95.5z" />
    <glyph glyph-name="quotedblleft" unicode="&#x201c;" horiz-adv-x="400" 
d="M95 650h73q-19 -44 -31 -77q-5 -13 -9 -25q16 -5 28 -17q19 -19 19 -48t-19 -48t-50 -19q-30 0 -49.5 20t-19.5 52q0 25 15.5 67t42.5 95zM288 650h72q-19 -44 -31 -77q-5 -13 -9 -25q16 -5 28 -17q20 -19 20 -48t-19.5 -48t-49.5 -19t-49.5 20t-19.5 52q0 25 15 67
t43 95z" />
    <glyph glyph-name="quotedblright" unicode="&#x201d;" horiz-adv-x="400" 
d="M112 426h-72q19 44 31 77q4 13 8 25q-15 5 -27 17q-19 19 -19 48t19.5 48t48.5 19q31 0 50 -19.5t19 -51.5q0 -26 -15 -67.5t-43 -95.5zM305 426h-73q20 44 32 77q4 13 8 25q-16 5 -28 17q-19 19 -19 48t19.5 48t49.5 19q31 0 50 -19.5t19 -51.5q0 -26 -15 -67.5
t-43 -95.5z" />
    <glyph glyph-name="quotedblbase" unicode="&#x201e;" horiz-adv-x="400" 
d="M112 -109h-72q19 43 31 77q4 13 8 25q-15 5 -27 16q-19 20 -19 48q0 30 19.5 49t48.5 19q31 0 50 -20t19 -52q0 -25 -15 -66.5t-43 -95.5zM305 -109h-73q20 43 32 77q4 13 8 25q-16 5 -28 16q-19 20 -19 48q0 30 19.5 49t49.5 19q31 0 50 -20t19 -52q0 -25 -15 -66.5
t-43 -95.5z" />
    <glyph glyph-name="dagger" unicode="&#x2020;" horiz-adv-x="498" 
d="M308 -150h-118l7 526l-173 -5v107l172 -5l-6 177h118l-6 -177l172 5v-107l-172 5z" />
    <glyph glyph-name="daggerdbl" unicode="&#x2021;" horiz-adv-x="498" 
d="M308 -150h-118l6 174l-172 -5v108l172 -5v254l-172 -5v107l172 -5l-6 177h118l-6 -177l172 5v-107l-172 5v-254l172 5v-108l-172 5z" />
    <glyph glyph-name="bullet" unicode="&#x2022;" horiz-adv-x="258" 
d="M129 385q42 0 68.5 -26t26.5 -66q0 -39 -26.5 -66t-68.5 -27t-68.5 26.5t-26.5 66.5q0 39 26.5 65.5t68.5 26.5z" />
    <glyph glyph-name="ellipsis" unicode="&#x2026;" horiz-adv-x="661" 
d="M106 -10q-29 0 -49 19t-20 48t20 48.5t49 19.5q30 0 49.5 -19t19.5 -49q0 -29 -19.5 -48t-49.5 -19zM555 -10q-29 0 -49 19t-20 48t19.5 48.5t49.5 19.5t49.5 -19t19.5 -49q0 -29 -19.5 -48t-49.5 -19zM330 -10q-29 0 -49 19t-20 48t19.5 48t49.5 19t49.5 -19t19.5 -48
t-19.5 -48t-49.5 -19z" />
    <glyph glyph-name="perthousand" unicode="&#x2030;" horiz-adv-x="1195" 
d="M190 346q-46 0 -82.5 20.5t-58.5 56.5t-22 80t22 79.5t58.5 56.5t82.5 21q45 0 81.5 -21t58.5 -56.5t22 -79.5t-22 -80t-58.5 -56.5t-81.5 -20.5zM177 0l357 650h108l-358 -650h-107zM190 581q-22 0 -40 -10.5t-28.5 -28t-10.5 -39.5q0 -21 10.5 -39.5t28.5 -28.5t40 -10
t39.5 10t27.5 28.5t10 39.5q0 22 -10 39.5t-27.5 28t-39.5 10.5zM1006 -10q-46 0 -83 21t-58.5 56.5t-21.5 79.5t21.5 80t58.5 56.5t82 20.5q46 0 82.5 -20.5t58.5 -56.5t22 -79q0 -45 -22 -80.5t-58.5 -56.5t-81.5 -21zM629 -10q-46 0 -82.5 21t-58 56.5t-21.5 79.5
t21.5 80t58 56.5t82.5 20.5t82 -20.5t58 -56.5t22 -79q0 -45 -22 -80.5t-58 -56.5t-82 -21zM1005 226q-21 0 -39 -10.5t-28.5 -28.5t-10.5 -40q0 -21 10.5 -39t28.5 -28.5t39 -10.5q22 0 39.5 10.5t28 28.5t10.5 39q0 22 -10.5 40t-28 28.5t-39.5 10.5zM629 226
q-22 0 -40 -10.5t-28 -28.5t-10 -40q0 -21 10 -39t28 -28.5t40 -10.5t39.5 10.5t27.5 28.5t10 39q0 22 -10 40t-27.5 28.5t-39.5 10.5z" />
    <glyph glyph-name="guilsinglleft" unicode="&#x2039;" horiz-adv-x="295" 
d="M144 49l-123 196l123 196h120l-120 -192l125 -200h-125z" />
    <glyph glyph-name="guilsinglright" unicode="&#x203a;" horiz-adv-x="295" 
d="M31 49l120 192l-125 200h125l123 -196l-123 -196h-120z" />
    <glyph glyph-name="fraction" unicode="&#x2044;" horiz-adv-x="274" 
d="M-95 0l358 650h106l-358 -650h-106z" />
    <glyph glyph-name="uni2070" unicode="&#x2070;" horiz-adv-x="442" 
d="M221 262q-57 0 -103.5 26t-73.5 71t-27 100t27 100t73.5 71t103.5 26q58 0 104 -26t73 -71t27 -100t-26.5 -100t-73 -71t-104.5 -26zM221 352q30 0 54.5 14.5t38.5 39t14 53.5t-14.5 53t-38.5 39t-54 15t-54.5 -14.5t-38.5 -39t-14 -53.5t14.5 -53t39 -39t53.5 -15z" />
    <glyph glyph-name="uni2074" unicode="&#x2074;" horiz-adv-x="342" 
d="M304 268h-90v33q0 29 -13.5 45t-34 26t-44 19t-44.5 24t-34 41.5t-13 70.5v123h92v-118q0 -27 11.5 -40.5t29.5 -21.5t37 -16q7 -3 13 -6v113h90v-293z" />
    <glyph glyph-name="uni2075" unicode="&#x2075;" horiz-adv-x="337" 
d="M173 262q-43 0 -77 17t-53 47.5t-19 71.5h90q0 -23 15 -39.5t44 -16.5q24 0 38.5 14t14.5 35q0 19 -14 32t-41 16l-134 15l39 196h204v-81h-135l-9 -48l49 -6q66 -7 99 -40t33 -85q0 -36 -19 -65t-51 -46t-74 -17z" />
    <glyph glyph-name="uni2076" unicode="&#x2076;" horiz-adv-x="348" 
d="M176 262q-45 0 -80 19t-55.5 51.5t-20.5 72.5q0 32 12 58.5t28.5 49t34.5 44.5t31 44.5t16 48.5h96q-3 -22 -11 -40.5t-19.5 -34.5t-25.5 -34q32 0 59 -10t47.5 -28t32 -42.5t11.5 -53.5q0 -41 -21 -73.5t-56 -52t-79 -19.5zM176 345q18 0 33 8t23.5 22.5t8.5 31.5
t-8.5 31t-23.5 22t-33 8q-17 0 -32 -8.5t-24 -22t-9 -30.5t8.5 -31.5t23.5 -22.5t33 -8z" />
    <glyph glyph-name="uni2077" unicode="&#x2077;" horiz-adv-x="312" 
d="M194 268h-95q5 56 12.5 103t20.5 90.5t32 87.5q3 8 7 17h-149v84h275q-26 -57 -43.5 -104t-29 -90t-18.5 -88t-12 -100z" />
    <glyph glyph-name="uni2078" unicode="&#x2078;" horiz-adv-x="348" 
d="M174 262q-46 0 -81 16t-55 44t-20 63q0 34 19 61q18 26 52 41q-1 1 -3 2q-33 26 -33 69t33.5 70.5t87.5 27.5t88 -27.5t34 -70.5t-34 -69q-2 -1 -3 -2q34 -15 53 -41t19 -61q0 -34 -20.5 -62t-55.5 -44.5t-81 -16.5zM174 589q-17 0 -28.5 -10t-11.5 -26q0 -15 11 -25.5
t29 -10.5q17 0 29 10.5t12 25.5q0 16 -11.5 26t-29.5 10zM174 339q28 0 46 15t18 37q0 23 -18 38.5t-46 15.5t-45.5 -15.5t-17.5 -38.5q0 -22 18 -37t45 -15z" />
    <glyph glyph-name="uni2079" unicode="&#x2079;" horiz-adv-x="348" 
d="M172 656q45 0 80.5 -19t55.5 -50.5t20 -73.5q0 -32 -11.5 -58t-28.5 -49t-34.5 -44.5t-31 -44.5t-16.5 -49h-96q3 22 11 40.5t20 35t26 33.5q-32 0 -59.5 10t-47.5 28t-31.5 42.5t-11.5 53.5q0 42 20.5 74t56 51.5t78.5 19.5zM172 573q-18 0 -32.5 -8t-23.5 -22t-9 -32
q0 -16 9 -30.5t23.5 -22.5t32.5 -8t33 8.5t24 22.5t9 30q0 18 -9 32t-23.5 22t-33.5 8z" />
    <glyph glyph-name="uni2080" unicode="&#x2080;" horiz-adv-x="442" 
d="M221 -5q-57 0 -103.5 26t-73.5 70.5t-27 100.5q0 55 27 99.5t73.5 70.5t103.5 26q58 0 104 -26t73 -70.5t27 -99.5q0 -56 -26.5 -100.5t-73 -70.5t-104.5 -26zM221 85q30 0 54.5 14.5t38.5 39t14 53.5t-14.5 53t-38.5 39t-54 15t-54.5 -14.5t-38.5 -39t-14 -53.5
t14.5 -53.5t39 -39t53.5 -14.5z" />
    <glyph glyph-name="uni2081" unicode="&#x2081;" horiz-adv-x="232" 
d="M12 334q49 7 93.5 21t79.5 35v-390h-93v261q-34 -11 -80 -14v87z" />
    <glyph glyph-name="uni2082" unicode="&#x2082;" horiz-adv-x="332" 
d="M163 388q40 0 70.5 -17t49 -45t18.5 -64q0 -27 -11 -52t-38 -58l-55 -66h110v-86h-285l158 193q20 23 27 37.5t7 28.5q0 20 -15 34.5t-36 14.5t-36 -14.5t-15 -34.5q0 -24 21 -43l-51 -62q-57 44 -57 108q0 36 18 64t49 45t71 17z" />
    <glyph glyph-name="uni2083" unicode="&#x2083;" horiz-adv-x="340" 
d="M170 -6q-45 0 -79.5 18.5t-54 51t-19.5 73.5h89q0 -18 8.5 -32.5t22.5 -22.5t33 -8q28 0 44.5 15.5t16.5 36.5q0 13 -7.5 24t-20.5 17t-32 6h-21v75h21q15 0 29 -1q8 13 8 27q0 15 -11.5 25.5t-30.5 10.5t-31 -11.5t-12 -28.5h-89q0 51 36 84.5t96 33.5q58 0 94.5 -31
t36.5 -77q0 -27 -14 -51q-3 -6 -7 -11q17 -13 28 -30q18 -28 18 -63q0 -37 -19.5 -66.5t-53.5 -47t-79 -17.5z" />
    <glyph glyph-name="uni2084" unicode="&#x2084;" horiz-adv-x="342" 
d="M304 0h-90v33q0 29 -13.5 45t-34 26t-44 19t-44.5 24t-34 41.5t-13 70.5v123h92v-118q0 -27 11.5 -40.5t29.5 -21.5t37 -16q7 -3 13 -6v113h90v-293z" />
    <glyph glyph-name="uni2085" unicode="&#x2085;" horiz-adv-x="337" 
d="M173 -6q-43 0 -77 17t-53 47.5t-19 71.5h90q0 -23 15 -39.5t44 -16.5q24 0 38.5 14t14.5 35q0 19 -14 32t-41 16l-134 15l39 196h204v-81h-135l-9 -48l49 -6q66 -7 99 -40t33 -85q0 -36 -19 -65t-51 -46t-74 -17z" />
    <glyph glyph-name="uni2086" unicode="&#x2086;" horiz-adv-x="348" 
d="M176 -6q-45 0 -80 19t-55.5 51.5t-20.5 72.5q0 32 12 58.5t28.5 49t34.5 44.5t31 44.5t16 48.5h96q-3 -22 -11 -40.5t-19.5 -34.5t-25.5 -34q32 0 59 -10t47.5 -28t32 -42.5t11.5 -53.5q0 -41 -21 -73.5t-56 -52t-79 -19.5zM176 77q18 0 33 8t23.5 22.5t8.5 31.5t-8.5 31
t-23.5 22t-33 8q-17 0 -32 -8.5t-24 -22t-9 -30.5t8.5 -31.5t23.5 -22.5t33 -8z" />
    <glyph glyph-name="uni2087" unicode="&#x2087;" horiz-adv-x="312" 
d="M194 0h-95q5 56 12.5 103t20.5 90.5t32 87.5q3 8 7 17h-149v84h275q-26 -57 -43.5 -104t-29 -90t-18.5 -88t-12 -100z" />
    <glyph glyph-name="uni2088" unicode="&#x2088;" horiz-adv-x="348" 
d="M174 -6q-46 0 -81 16t-55 44t-20 63q0 34 19 61q18 26 52 41q-1 1 -3 2q-33 26 -33 69t33.5 70.5t87.5 27.5t88 -27.5t34 -70.5t-34 -69q-2 -1 -3 -2q34 -15 53 -41t19 -61q0 -34 -20.5 -62t-55.5 -44.5t-81 -16.5zM174 321q-17 0 -28.5 -10t-11.5 -26q0 -15 11 -25.5
t29 -10.5q17 0 29 10.5t12 25.5q0 16 -11.5 26t-29.5 10zM174 71q28 0 46 15t18 37q0 23 -18 38.5t-46 15.5t-45.5 -15.5t-17.5 -38.5q0 -22 18 -37t45 -15z" />
    <glyph glyph-name="uni2089" unicode="&#x2089;" horiz-adv-x="348" 
d="M172 388q45 0 80.5 -19t55.5 -50.5t20 -73.5q0 -32 -11.5 -58t-28.5 -49t-34.5 -44.5t-31 -44.5t-16.5 -49h-96q3 22 11 40.5t20 35t26 33.5q-32 0 -59.5 10t-47.5 28t-31.5 42.5t-11.5 53.5q0 42 20.5 74t56 51.5t78.5 19.5zM172 305q-18 0 -32.5 -8t-23.5 -22t-9 -32
q0 -16 9 -30.5t23.5 -22.5t32.5 -8t33 8.5t24 22.5t9 30q0 18 -9 32t-23.5 22t-33.5 8z" />
    <glyph glyph-name="Euro" unicode="&#x20ac;" horiz-adv-x="491" 
d="M394 360h-199q-2 -17 -2 -35t2 -34h199v-75h-175q14 -28 36 -49q29 -30 69 -46.5t89 -16.5h45v-104h-45q-71 0 -132 24.5t-106.5 69.5t-71.5 104q-3 9 -7 18h-84v75h68q-2 16 -2 34t2 35h-68v74h84q3 10 7 19q26 59 71.5 103.5t106.5 69t132 24.5h45v-104h-45
q-49 0 -89 -16.5t-69 -46.5q-22 -21 -36 -49h175v-74z" />
    <glyph glyph-name="uni20B9" unicode="&#x20b9;" horiz-adv-x="459" 
d="M435 385h-89q-7 -37 -26 -69q-29 -49 -82 -77q-22 -12 -48 -18l197 -221h-146l-194 212v85h33q76 0 115 34q24 21 33 54h-181v89h179q-9 30 -32 51q-39 37 -114 37h-33v88h388v-88h-141q8 -8 15 -17q25 -32 35 -71h91v-89z" />
    <glyph glyph-name="uni2116" unicode="&#x2116;" horiz-adv-x="927" 
d="M744 349q-44 0 -80.5 20.5t-57.5 55.5t-21 78q0 44 21.5 78.5t57.5 55t80 20.5q45 0 81 -20.5t57 -55t21 -78.5q0 -43 -21 -78t-57 -55.5t-81 -20.5zM63 0v650h110q49 -124 111 -223q52 -81 120 -154v377h116v-650h-118v124q-49 46 -91 95q-50 57 -91 120q-22 34 -41 69
v-408h-116zM744 434q28 0 48.5 19.5t20.5 49.5q0 31 -20.5 50t-48.5 19q-18 0 -34 -8.5t-25 -24t-9 -36.5q0 -20 9 -35.5t25 -24.5t34 -9zM598 190v94h292v-94h-292z" />
    <glyph glyph-name="trademark" unicode="&#x2122;" horiz-adv-x="805" 
d="M280 570h-86v-302h-88v302h-86v80h260v-80zM329 650h40q77 0 131 -34q26 -17 42 -39q15 22 41 39q53 34 131 34h40v-382h-86v293q-38 -3 -60 -24q-25 -25 -25 -71v-84h-83v84q0 46 -25 71q-22 22 -60 24v-293h-86v382z" />
    <glyph glyph-name="estimated" unicode="&#x212e;" horiz-adv-x="726" 
d="M669 257h-496q-4 0 -4 -3v-150q0 -11 7 -18q36 -36 84.5 -58t103.5 -22q60 0 110.5 24.5t86.5 65.5h44q-41 -48 -104.5 -77.5t-137.5 -29.5q-63 0 -118.5 21.5t-97.5 59t-66 87.5t-24 107t24 107.5t66 88.5t97.5 59.5t118.5 21.5t118.5 -21.5t97.5 -59.5t66 -88.5
t24 -107.5v-7zM557 276v151q0 11 -8 19q-35 36 -82.5 57t-102.5 21t-102.5 -22t-84.5 -59q-8 -8 -8 -19v-148q0 -4 4 -4h381q3 0 3 4z" />
    <glyph glyph-name="uni2150" unicode="&#x2150;" horiz-adv-x="779" 
d="M12 602q49 7 93.5 21t79.5 35v-390h-93v261q-34 -11 -80 -14v87zM118 0l358 650h106l-358 -650h-106zM662 0h-95q4 56 12 103t20.5 90.5t32.5 87.5q3 8 7 17h-149v84h274q-25 -57 -43 -104t-29.5 -90t-18.5 -88t-11 -100z" />
    <glyph glyph-name="uni2151" unicode="&#x2151;" horiz-adv-x="794" 
d="M12 602q49 7 93.5 21t79.5 35v-390h-93v261q-34 -11 -80 -14v87zM118 0l358 650h106l-358 -650h-106zM618 388q45 0 80 -19t55.5 -50.5t20.5 -73.5q0 -32 -11.5 -58t-28.5 -49t-35 -44.5t-31 -44.5t-16 -49h-96q3 22 11 40.5t20 35t26 33.5q-33 0 -60 10t-47 28
t-31.5 42.5t-11.5 53.5q0 42 20.5 74t55.5 51.5t79 19.5zM618 305q-18 0 -32.5 -8t-23.5 -22t-9 -32q0 -16 9 -30.5t23.5 -22.5t32.5 -8t32.5 8.5t23.5 22.5t9 30q0 18 -8.5 32t-23 22t-33.5 8z" />
    <glyph glyph-name="onethird" unicode="&#x2153;" horiz-adv-x="782" 
d="M12 602q49 7 93.5 21t79.5 35v-390h-93v261q-34 -11 -80 -14v87zM118 0l358 650h106l-358 -650h-106zM612 -6q-45 0 -79.5 18.5t-54 51t-19.5 73.5h89q0 -18 8 -32.5t22.5 -22.5t33.5 -8q28 0 44.5 15.5t16.5 36.5q0 13 -7.5 24t-20.5 17t-32 6h-21v75h21q15 0 29 -1
q8 13 8 27q0 15 -11.5 25.5t-30.5 10.5t-31 -11.5t-12 -28.5h-89q0 51 36 84.5t96 33.5q58 0 94.5 -31t36.5 -77q0 -27 -14 -51q-3 -6 -7 -11q17 -13 28 -30q18 -28 18 -63q0 -37 -19.5 -66.5t-53.5 -47t-79 -17.5z" />
    <glyph glyph-name="twothirds" unicode="&#x2154;" horiz-adv-x="895" 
d="M163 656q40 0 70.5 -17t49 -45t18.5 -64q0 -27 -11 -52t-38 -58l-55 -66h110v-86h-285l158 193q20 23 27 37.5t7 28.5q0 20 -15 34.5t-36 14.5t-36 -14.5t-15 -34.5q0 -24 21 -43l-51 -62q-57 44 -57 108q0 36 18 64t49 45t71 17zM231 0l358 650h106l-358 -650h-106z
M725 -6q-45 0 -79 18.5t-54 51t-20 73.5h90q0 -18 8 -32.5t22 -22.5t33 -8q28 0 44.5 15.5t16.5 36.5q0 13 -7 24t-20 17t-33 6h-21v75h21q15 0 29 -1q8 13 8 27q0 15 -11.5 25.5t-30.5 10.5t-31 -11.5t-12 -28.5h-88q0 51 35.5 84.5t95.5 33.5q59 0 95 -31t36 -77
q0 -27 -14 -51q-3 -6 -7 -11q18 -13 29 -30q18 -28 18 -63q0 -37 -19.5 -66.5t-54 -47t-79.5 -17.5z" />
    <glyph glyph-name="uni2155" unicode="&#x2155;" horiz-adv-x="781" 
d="M12 602q49 7 93.5 21t79.5 35v-390h-93v261q-34 -11 -80 -14v87zM119 0l357 650h106l-357 -650h-106zM616 -6q-43 0 -76.5 17t-53 47.5t-19.5 71.5h90q0 -23 15 -39.5t44 -16.5q24 0 39 14t15 35q0 19 -14.5 32t-40.5 16l-134 15l38 196h205v-81h-135l-10 -48l49 -6
q67 -7 100 -40t33 -85q0 -36 -19 -65t-51.5 -46t-74.5 -17z" />
    <glyph glyph-name="uni2156" unicode="&#x2156;" horiz-adv-x="890" 
d="M163 656q40 0 70.5 -17t49 -45t18.5 -64q0 -27 -11 -52t-38 -58l-55 -66h110v-86h-285l158 193q20 23 27 37.5t7 28.5q0 20 -15 34.5t-36 14.5t-36 -14.5t-15 -34.5q0 -24 21 -43l-51 -62q-57 44 -57 108q0 36 18 64t49 45t71 17zM231 0l358 650h106l-358 -650h-106z
M725 -6q-42 0 -76 17t-53 47.5t-19 71.5h89q0 -23 15.5 -39.5t43.5 -16.5q24 0 39 14t15 35q0 19 -14 32t-41 16l-134 15l38 196h205v-81h-135l-10 -48l50 -6q66 -7 99 -40t33 -85q0 -36 -19 -65t-51 -46t-75 -17z" />
    <glyph glyph-name="uni2157" unicode="&#x2157;" horiz-adv-x="875" 
d="M170 262q-45 0 -79.5 18.5t-54 51t-19.5 73.5h89q0 -18 8.5 -32.5t22.5 -22.5t33 -8q28 0 44.5 15.5t16.5 36.5q0 13 -7.5 24t-20.5 17t-32 6h-21v75h21q15 0 29 -1q8 13 8 27q0 15 -11.5 25.5t-30.5 10.5t-31 -11.5t-12 -28.5h-89q0 51 36 84.5t96 33.5q58 0 94.5 -31
t36.5 -77q0 -27 -14 -51q-3 -6 -7 -11q17 -13 28 -30q18 -28 18 -63q0 -37 -19.5 -66.5t-53.5 -47t-79 -17.5zM213 0l357 650h106l-357 -650h-106zM710 -6q-43 0 -76.5 17t-53 47.5t-19.5 71.5h90q0 -23 15 -39.5t44 -16.5q24 0 39 14t15 35q0 19 -14.5 32t-40.5 16l-134 15
l38 196h205v-81h-135l-10 -48l49 -6q67 -7 100 -40t33 -85q0 -36 -19 -65t-51.5 -46t-74.5 -17z" />
    <glyph glyph-name="uni2158" unicode="&#x2158;" horiz-adv-x="894" 
d="M304 268h-90v33q0 29 -13.5 45t-34 26t-44 19t-44.5 24t-34 41.5t-13 70.5v123h92v-118q0 -27 11.5 -40.5t29.5 -21.5t37 -16q7 -3 13 -6v113h90v-293zM232 0l357 650h106l-357 -650h-106zM729 -6q-43 0 -76.5 17t-53 47.5t-19.5 71.5h90q0 -23 15 -39.5t44 -16.5
q24 0 39 14t15 35q0 19 -14.5 32t-40.5 16l-134 15l38 196h205v-81h-135l-10 -48l49 -6q67 -7 100 -40t33 -85q0 -36 -19 -65t-51.5 -46t-74.5 -17z" />
    <glyph glyph-name="uni2159" unicode="&#x2159;" horiz-adv-x="760" 
d="M12 602q49 7 93.5 21t79.5 35v-390h-93v261q-34 -11 -80 -14v87zM119 0l357 650h106l-357 -650h-106zM588 -6q-45 0 -80.5 19t-55.5 51.5t-20 72.5q0 32 11.5 58.5t28.5 49t34.5 44.5t31 44.5t16.5 48.5h96q-3 -22 -11 -40.5t-19.5 -34.5t-26.5 -34q32 0 59.5 -10
t47.5 -28t31.5 -42.5t11.5 -53.5q0 -41 -20.5 -73.5t-55.5 -52t-79 -19.5zM588 77q18 0 32.5 8t23.5 22.5t9 31.5t-9 31t-23.5 22t-32.5 8t-32.5 -8.5t-24 -22t-9.5 -30.5t9 -31.5t23.5 -22.5t33.5 -8z" />
    <glyph glyph-name="uni215A" unicode="&#x215a;" horiz-adv-x="848" 
d="M173 262q-43 0 -77 17t-53 47.5t-19 71.5h90q0 -23 15 -39.5t44 -16.5q24 0 38.5 14t14.5 35q0 19 -14 32t-41 16l-134 15l39 196h204v-81h-135l-9 -48l49 -6q66 -7 99 -40t33 -85q0 -36 -19 -65t-51 -46t-74 -17zM206 0l358 650h106l-358 -650h-106zM675 -6
q-44 0 -79.5 19t-55.5 51.5t-20 72.5q0 32 11.5 58.5t28.5 49t34.5 44.5t31 44.5t16.5 48.5h95q-3 -22 -11 -40.5t-19.5 -34.5t-25.5 -34q32 0 59.5 -10t47.5 -28t31.5 -42.5t11.5 -53.5q0 -41 -20.5 -73.5t-56 -52t-79.5 -19.5zM675 77q19 0 33.5 8t23 22.5t8.5 31.5
t-8.5 31t-23 22t-33.5 8q-17 0 -32 -8.5t-24 -22t-9 -30.5t9 -31.5t23.5 -22.5t32.5 -8z" />
    <glyph glyph-name="oneeighth" unicode="&#x215b;" horiz-adv-x="775" 
d="M12 602q49 7 93.5 21t79.5 35v-390h-93v261q-34 -11 -80 -14v87zM118 0l358 650h106l-358 -650h-106zM600 -6q-46 0 -81 15.5t-55 43.5t-20 63q0 34 19 61q19 26 53 41q-2 1 -3 2q-34 26 -34 69t33.5 70.5t87.5 27.5t88 -27.5t34 -70.5t-34 -69q-1 -1 -3 -2
q34 -15 53 -41t19 -61q0 -34 -20 -62t-55.5 -44t-81.5 -16zM600 321q-17 0 -28.5 -10.5t-11.5 -25.5q0 -16 11.5 -26.5t28.5 -10.5q18 0 29.5 10.5t11.5 26.5q0 15 -11.5 25.5t-29.5 10.5zM600 71q28 0 46 15t18 36q0 24 -18 39t-46 15t-45.5 -15t-17.5 -39q0 -21 18 -36
t45 -15z" />
    <glyph glyph-name="threeeighths" unicode="&#x215c;" horiz-adv-x="869" 
d="M170 262q-45 0 -79.5 18.5t-54 51t-19.5 73.5h89q0 -18 8.5 -32.5t22.5 -22.5t33 -8q28 0 44.5 15.5t16.5 36.5q0 13 -7.5 24t-20.5 17t-32 6h-21v75h21q15 0 29 -1q8 13 8 27q0 15 -11.5 25.5t-30.5 10.5t-31 -11.5t-12 -28.5h-89q0 51 36 84.5t96 33.5q58 0 94.5 -31
t36.5 -77q0 -27 -14 -51q-3 -6 -7 -11q17 -13 28 -30q18 -28 18 -63q0 -37 -19.5 -66.5t-53.5 -47t-79 -17.5zM213 0l357 650h106l-357 -650h-106zM695 -6q-46 0 -81 16t-55 44t-20 63q0 34 19 61q18 26 52 41l-2 2q-34 26 -34 69t33.5 70.5t87.5 27.5t88 -27.5t34 -70.5
t-34 -69q-2 -1 -3 -2q34 -15 53 -41t19 -61q0 -34 -20.5 -62t-55.5 -44.5t-81 -16.5zM695 321q-17 0 -28.5 -10t-11.5 -26q0 -15 11.5 -25.5t28.5 -10.5t29 10.5t12 25.5q0 16 -11.5 26t-29.5 10zM695 71q28 0 46 15t18 37q0 23 -18 38.5t-46 15.5t-45.5 -15.5t-17.5 -38.5
q0 -22 18 -37t45 -15z" />
    <glyph glyph-name="fiveeighths" unicode="&#x215d;" horiz-adv-x="863" 
d="M173 262q-43 0 -77 17t-53 47.5t-19 71.5h90q0 -23 15 -39.5t44 -16.5q24 0 38.5 14t14.5 35q0 19 -14 32t-41 16l-134 15l39 196h204v-81h-135l-9 -48l49 -6q66 -7 99 -40t33 -85q0 -36 -19 -65t-51 -46t-74 -17zM206 0l358 650h106l-358 -650h-106zM689 -6
q-46 0 -81.5 16t-55.5 44t-20 63q0 34 19 61q19 26 53 41q-1 1 -3 2q-33 26 -33 69t33.5 70.5t87.5 27.5q53 0 87 -27.5t34 -70.5t-34 -69q-1 -1 -3 -2q35 -15 53 -41q20 -26 20 -61q0 -34 -20.5 -62t-55.5 -44.5t-81 -16.5zM689 321q-18 0 -29.5 -10t-11.5 -26
q0 -15 11.5 -25.5t29.5 -10.5q17 0 29 10.5t12 25.5q0 16 -11.5 26t-29.5 10zM689 71q28 0 45.5 15t17.5 37q0 23 -17.5 38.5t-45.5 15.5t-45.5 -15.5t-17.5 -38.5q0 -22 17.5 -37t45.5 -15z" />
    <glyph glyph-name="seveneighths" unicode="&#x215e;" horiz-adv-x="795" 
d="M194 268h-95q5 56 12.5 103t20.5 90.5t32 87.5q3 8 7 17h-149v84h275q-26 -57 -43.5 -104t-29 -90t-18.5 -88t-12 -100zM138 0l358 650h106l-357 -650h-107zM621 -6q-46 0 -81.5 16t-55.5 44t-20 63q0 34 20 61q18 26 52 41q-1 1 -3 2q-33 26 -33 69t33.5 70.5t87.5 27.5
t87.5 -27.5t33.5 -70.5t-34 -69l-2 -2q34 -15 53 -41t19 -61q0 -34 -20.5 -62t-55.5 -44.5t-81 -16.5zM621 321q-17 0 -29 -10t-12 -26q0 -15 11.5 -25.5t29.5 -10.5q17 0 29 10.5t12 25.5q0 16 -11.5 26t-29.5 10zM621 71q28 0 46 15t18 37q0 23 -18 38.5t-46 15.5
t-45.5 -15.5t-17.5 -38.5q0 -22 17.5 -37t45.5 -15z" />
    <glyph glyph-name="arrowleft" unicode="&#x2190;" horiz-adv-x="627" 
d="M172 23l-150 217l150 217h111l-115 -169l426 4v-106l-426 4l115 -167h-111z" />
    <glyph glyph-name="arrowup" unicode="&#x2191;" horiz-adv-x="499" 
d="M32 418l217 149l217 -149v-107l-166 114l4 -425h-110l5 425l-167 -114v107z" />
    <glyph glyph-name="arrowright" unicode="&#x2192;" horiz-adv-x="627" 
d="M455 457l149 -217l-149 -217h-111l115 167l-427 -4v106l427 -4l-115 169h111z" />
    <glyph glyph-name="arrowdown" unicode="&#x2193;" horiz-adv-x="499" 
d="M32 61v106l167 -114l-5 425h110l-4 -425l166 114v-106l-217 -149z" />
    <glyph glyph-name="arrowboth" unicode="&#x2194;" horiz-adv-x="693" 
d="M346 189l-178 2l115 -168h-111l-150 217l150 217h111l-115 -169l178 2l179 -2l-115 169h111l149 -217l-149 -217h-111l115 168z" />
    <glyph glyph-name="arrowupdn" unicode="&#x2195;" horiz-adv-x="499" 
d="M32 406l217 149l217 -149v-106l-166 113l2 -171l-2 -171l166 114v-107l-217 -149l-217 149v107l167 -115l-2 172l2 171l-167 -113v106z" />
    <glyph glyph-name="uni2196" unicode="&#x2196;" horiz-adv-x="546" 
d="M44 178v300h297l87 -85l-231 4l326 -328l-76 -76l-322 337l4 -241z" />
    <glyph glyph-name="uni2197" unicode="&#x2197;" horiz-adv-x="546" 
d="M503 178l-86 -89l4 241l-322 -337l-75 76l324 328l-229 -4l86 85h298v-300z" />
    <glyph glyph-name="uni2198" unicode="&#x2198;" horiz-adv-x="546" 
d="M503 300v-300h-298l-86 86l229 -4l-324 328l75 75l322 -337l-4 241z" />
    <glyph glyph-name="uni2199" unicode="&#x2199;" horiz-adv-x="546" 
d="M44 300l85 89l-4 -241l322 337l76 -75l-326 -328l231 4l-87 -86h-297v300z" />
    <glyph glyph-name="minus" unicode="&#x2212;" horiz-adv-x="486" 
d="M47 363h392v-92h-392v92z" />
    <glyph glyph-name="uni2215" unicode="&#x2215;" horiz-adv-x="274" 
d="M-95 0l358 650h106l-358 -650h-106z" />
    <glyph glyph-name="approxequal" unicode="&#x2248;" horiz-adv-x="486" 
d="M352 455q46 0 87 20v-92q-20 -9 -42 -14.5t-45 -5.5q-41 0 -78.5 10t-72 19.5t-67.5 9.5q-23 0 -44 -5t-43 -15v92q22 9 43 14.5t44 5.5q41 0 77.5 -10t71 -19.5t69.5 -9.5zM352 232q46 0 87 20v-92q-20 -9 -42 -14.5t-45 -5.5q-41 0 -78.5 9.5t-72 19.5t-67.5 10
q-23 0 -44 -5.5t-43 -14.5v91q22 10 43 15t44 5q41 0 77.5 -9.5t71 -19t69.5 -9.5z" />
    <glyph glyph-name="notequal" unicode="&#x2260;" horiz-adv-x="486" 
d="M285 572h96l-35 -99h93v-90h-125l-46 -132h171v-91h-204l-34 -97h-95l34 97h-93v91h125l46 132h-171v90h203z" />
    <glyph glyph-name="lessequal" unicode="&#x2264;" horiz-adv-x="486" 
d="M57 297v124l365 143v-106l-279 -98l279 -92v-108zM57 86h365v-86h-365v86z" />
    <glyph glyph-name="greaterequal" unicode="&#x2265;" horiz-adv-x="486" 
d="M64 160v107l279 98l-279 91v108l365 -136v-124zM64 0v86h365v-86h-365z" />
    <glyph glyph-name="uni2780" unicode="&#x2780;" horiz-adv-x="809" 
d="M405 -42q-79 0 -146.5 28t-118 78t-78.5 117t-28 144t28 144t78.5 117t118 78t146.5 28t146.5 -28t117.5 -78t78.5 -117t28.5 -144t-28.5 -144t-78.5 -117t-117.5 -78t-146.5 -28zM405 611q-60 0 -112 -21.5t-90.5 -60.5t-60 -91t-21.5 -113t21.5 -113t60 -91t90.5 -60.5
t112 -21.5q61 0 112 21.5t89.5 60.5t60.5 91t22 113t-22 113t-60.5 91t-89.5 60.5t-112 21.5zM469 524v-390h-92v262q-17 -6 -37 -9.5t-44 -5.5v87q50 7 94 21t79 35z" />
    <glyph glyph-name="uni2781" unicode="&#x2781;" horiz-adv-x="809" 
d="M405 -42q-79 0 -146.5 28t-118 78t-78.5 117t-28 144t28 144t78.5 117t118 78t146.5 28t146.5 -28t117.5 -78t78.5 -117t28.5 -144t-28.5 -144t-78.5 -117t-117.5 -78t-146.5 -28zM405 611q-60 0 -112 -21.5t-90.5 -60.5t-60 -91t-21.5 -113t21.5 -113t60 -91t90.5 -60.5
t112 -21.5q61 0 112 21.5t89.5 60.5t60.5 91t22 113t-22 113t-60.5 91t-89.5 60.5t-112 21.5zM548 220v-86h-285l158 193q20 23 27 37.5t7 28.5q0 20 -15 34.5t-36 14.5t-36 -14.5t-15 -34.5q0 -24 21 -43l-51 -62q-57 44 -57 108q0 36 18.5 64t49.5 45t70 17q40 0 71 -17
t49 -45t18 -64q0 -27 -11 -52t-38 -58l-56 -66h111z" />
    <glyph glyph-name="uni2782" unicode="&#x2782;" horiz-adv-x="809" 
d="M405 -42q-79 0 -146.5 28t-118 78t-78.5 117t-28 144t28 144t78.5 117t118 78t146.5 28t146.5 -28t117.5 -78t78.5 -117t28.5 -144t-28.5 -144t-78.5 -117t-117.5 -78t-146.5 -28zM405 611q-60 0 -112 -21.5t-90.5 -60.5t-60 -91t-21.5 -113t21.5 -113t60 -91t90.5 -60.5
t112 -21.5q61 0 112 21.5t89.5 60.5t60.5 91t22 113t-22 113t-60.5 91t-89.5 60.5t-112 21.5zM560 259q0 -37 -19.5 -66.5t-53.5 -47t-79 -17.5t-80 18.5t-54 51t-19 73.5h89q0 -18 8 -32.5t22 -22.5t33 -8q28 0 44.5 15t16.5 37q0 14 -7 24.5t-20.5 16.5t-31.5 6h-21v75h21
q9 0 16.5 -0.5t11.5 -1.5q9 14 9 28q0 15 -11.5 25.5t-31.5 10.5q-19 0 -31 -11.5t-12 -28.5h-88q0 52 36 85t96 33q58 0 94.5 -31t36.5 -77q0 -16 -5 -32t-17 -30q24 -17 35.5 -40.5t11.5 -52.5z" />
    <glyph glyph-name="uni2783" unicode="&#x2783;" horiz-adv-x="809" 
d="M405 -42q-79 0 -146.5 28t-118 78t-78.5 117t-28 144t28 144t78.5 117t118 78t146.5 28t146.5 -28t117.5 -78t78.5 -117t28.5 -144t-28.5 -144t-78.5 -117t-117.5 -78t-146.5 -28zM405 611q-60 0 -112 -21.5t-90.5 -60.5t-60 -91t-21.5 -113t21.5 -113t60 -91t90.5 -60.5
t112 -21.5q61 0 112 21.5t89.5 60.5t60.5 91t22 113t-22 113t-60.5 91t-89.5 60.5t-112 21.5zM529 427v-293h-90v33q0 30 -13.5 46t-34 25.5t-44 18.5t-44.5 24t-34 41.5t-13 71.5v122h92v-118q0 -18 5.5 -29.5t14.5 -19.5t20.5 -13t24.5 -10t26 -12v113h90z" />
    <glyph glyph-name="uni2784" unicode="&#x2784;" horiz-adv-x="809" 
d="M405 -42q-79 0 -146.5 28t-118 78t-78.5 117t-28 144t28 144t78.5 117t118 78t146.5 28t146.5 -28t117.5 -78t78.5 -117t28.5 -144t-28.5 -144t-78.5 -117t-117.5 -78t-146.5 -28zM405 611q-60 0 -112 -21.5t-90.5 -60.5t-60 -91t-21.5 -113t21.5 -113t60 -91t90.5 -60.5
t112 -21.5q61 0 112 21.5t89.5 60.5t60.5 91t22 113t-22 113t-60.5 91t-89.5 60.5t-112 21.5zM556 257q0 -37 -18.5 -66t-51 -45.5t-74.5 -16.5q-43 0 -77 17t-53 47.5t-19 71.5h90q0 -24 15 -40t44 -16q24 0 38.5 14t14.5 35q0 19 -14 32t-40 16l-134 15l38 196h204v-81
h-134l-10 -48l49 -6q66 -8 99 -40.5t33 -84.5z" />
    <glyph glyph-name="uni2785" unicode="&#x2785;" horiz-adv-x="809" 
d="M405 -42q-79 0 -146.5 28t-118 78t-78.5 117t-28 144t28 144t78.5 117t118 78t146.5 28t146.5 -28t117.5 -78t78.5 -117t28.5 -144t-28.5 -144t-78.5 -117t-117.5 -78t-146.5 -28zM405 611q-60 0 -112 -21.5t-90.5 -60.5t-60 -91t-21.5 -113t21.5 -113t60 -91t90.5 -60.5
t112 -21.5q61 0 112 21.5t89.5 60.5t60.5 91t22 113t-22 113t-60.5 91t-89.5 60.5t-112 21.5zM405 128q-44 0 -79.5 19t-55.5 51.5t-20 72.5q0 32 11.5 58.5t28.5 49t34.5 44.5t31 44.5t16.5 48.5h95q-3 -22 -11 -40.5t-19 -34.5t-26 -34q32 0 59.5 -10t47.5 -28t31.5 -42.5
t11.5 -53.5q0 -41 -20.5 -73.5t-55.5 -52t-80 -19.5zM405 211q19 0 33.5 8t23.5 22.5t9 31.5t-9 31t-23.5 22t-33.5 8q-17 0 -32 -8.5t-24 -22t-9 -30.5t8.5 -31.5t23.5 -22.5t33 -8z" />
    <glyph glyph-name="uni2786" unicode="&#x2786;" horiz-adv-x="809" 
d="M405 -42q-79 0 -146.5 28t-118 78t-78.5 117t-28 144t28 144t78.5 117t118 78t146.5 28t146.5 -28t117.5 -78t78.5 -117t28.5 -144t-28.5 -144t-78.5 -117t-117.5 -78t-146.5 -28zM405 611q-60 0 -112 -21.5t-90.5 -60.5t-60 -91t-21.5 -113t21.5 -113t60 -91t90.5 -60.5
t112 -21.5q61 0 112 21.5t89.5 60.5t60.5 91t22 113t-22 113t-60.5 91t-89.5 60.5t-112 21.5zM546 516q-25 -57 -43 -104t-29.5 -90t-18.5 -88t-11 -100h-95q5 60 13 109t22.5 94.5t36.5 94.5h-149v84h274z" />
    <glyph glyph-name="uni2787" unicode="&#x2787;" horiz-adv-x="809" 
d="M405 -42q-79 0 -146.5 28t-118 78t-78.5 117t-28 144t28 144t78.5 117t118 78t146.5 28t146.5 -28t117.5 -78t78.5 -117t28.5 -144t-28.5 -144t-78.5 -117t-117.5 -78t-146.5 -28zM405 611q-60 0 -112 -21.5t-90.5 -60.5t-60 -91t-21.5 -113t21.5 -113t60 -91t90.5 -60.5
t112 -21.5q61 0 112 21.5t89.5 60.5t60.5 91t22 113t-22 113t-60.5 91t-89.5 60.5t-112 21.5zM562 251q0 -34 -20 -62t-55.5 -44.5t-81.5 -16.5t-81.5 16t-55.5 44t-20 63q0 33 19.5 60t53.5 42q-17 12 -27 30.5t-10 40.5q0 43 33.5 70.5t87.5 27.5t87.5 -27.5t33.5 -70.5
q0 -22 -9.5 -40.5t-27.5 -30.5q34 -15 53.5 -41.5t19.5 -60.5zM405 455q-17 0 -29 -10t-12 -26q0 -15 11.5 -25.5t29.5 -10.5q17 0 29 10.5t12 25.5q0 16 -11.5 26t-29.5 10zM405 205q28 0 46 15t18 37q0 23 -18 38.5t-46 15.5t-45.5 -15.5t-17.5 -38.5q0 -22 17.5 -37
t45.5 -15z" />
    <glyph glyph-name="uni2788" unicode="&#x2788;" horiz-adv-x="809" 
d="M405 -42q-79 0 -146.5 28t-118 78t-78.5 117t-28 144t28 144t78.5 117t118 78t146.5 28t146.5 -28t117.5 -78t78.5 -117t28.5 -144t-28.5 -144t-78.5 -117t-117.5 -78t-146.5 -28zM405 611q-60 0 -112 -21.5t-90.5 -60t-60 -91t-21.5 -113.5t21.5 -113.5t60 -91t90.5 -60
t112 -21.5q61 0 112 21.5t89.5 60.5t60.5 91t22 113t-22 113t-60.5 91t-89.5 60.5t-112 21.5zM409 522q44 0 79.5 -19t55.5 -50.5t20 -73.5q0 -32 -11.5 -58t-28.5 -49t-34.5 -44.5t-31 -44.5t-16.5 -49h-95q3 22 10.5 40.5t19.5 35t26 33.5q-32 0 -59.5 10t-47.5 28
t-31.5 42.5t-11.5 53.5q0 42 20.5 74t56 51.5t79.5 19.5zM409 439q-19 0 -33.5 -8t-23.5 -22t-9 -32q0 -16 9 -30.5t23.5 -22.5t33.5 -8q17 0 32 8.5t24 22.5t9 30q0 18 -9 32t-23.5 22t-32.5 8z" />
    <glyph glyph-name="uni278A" unicode="&#x278a;" horiz-adv-x="809" 
d="M405 -42q-79 0 -146.5 28t-118 78t-78.5 117t-28 144t28 144t78.5 117t118 78t146.5 28t146.5 -28t117.5 -78t78.5 -117t28.5 -144t-28.5 -144t-78.5 -117t-117.5 -78t-146.5 -28zM469 524q-35 -21 -79 -35t-94 -21v-87q24 2 44 5.5t37 9.5v-262h92v390z" />
    <glyph glyph-name="uni278B" unicode="&#x278b;" horiz-adv-x="809" 
d="M405 -42q-79 0 -146.5 28t-118 78t-78.5 117t-28 144t28 144t78.5 117t118 78t146.5 28t146.5 -28t117.5 -78t78.5 -117t28.5 -144t-28.5 -144t-78.5 -117t-117.5 -78t-146.5 -28zM548 220h-111l56 66q27 33 38 58t11 52q0 36 -18 64t-49 45t-71 17q-39 0 -70 -17
t-49.5 -45t-18.5 -64q0 -64 57 -108l51 62q-21 19 -21 43q0 20 15 34.5t36 14.5t36 -14.5t15 -34.5q0 -14 -7 -28.5t-27 -37.5l-158 -193h285v86z" />
    <glyph glyph-name="uni278C" unicode="&#x278c;" horiz-adv-x="809" 
d="M405 -42q-79 0 -146.5 28t-118 78t-78.5 117t-28 144t28 144t78.5 117t118 78t146.5 28t146.5 -28t117.5 -78t78.5 -117t28.5 -144t-28.5 -144t-78.5 -117t-117.5 -78t-146.5 -28zM560 259q0 29 -11.5 52.5t-35.5 40.5q12 14 17 30t5 32q0 46 -36.5 77t-94.5 31
q-60 0 -96 -33t-36 -85h88q0 17 12 28.5t31 11.5q20 0 31.5 -10.5t11.5 -25.5q0 -14 -9 -28q-4 1 -11.5 1.5t-16.5 0.5h-21v-75h21q18 0 31.5 -6t20.5 -16.5t7 -24.5q0 -22 -16.5 -37t-44.5 -15q-19 0 -33 8t-22 22.5t-8 32.5h-89q0 -41 19 -73.5t54 -51t80 -18.5t79 17.5
t53.5 47t19.5 66.5z" />
    <glyph glyph-name="uni278D" unicode="&#x278d;" horiz-adv-x="809" 
d="M405 -42q-79 0 -146.5 28t-118 78t-78.5 117t-28 144t28 144t78.5 117t118 78t146.5 28t146.5 -28t117.5 -78t78.5 -117t28.5 -144t-28.5 -144t-78.5 -117t-117.5 -78t-146.5 -28zM529 427h-90v-113q-13 7 -26 12t-24.5 10t-20.5 13t-14.5 19.5t-5.5 29.5v118h-92v-122
q0 -45 13 -71.5t34 -41.5t44.5 -24t44 -18.5t34 -25.5t13.5 -46v-33h90v293z" />
    <glyph glyph-name="uni278E" unicode="&#x278e;" horiz-adv-x="809" 
d="M405 -42q-79 0 -146.5 28t-118 78t-78.5 117t-28 144t28 144t78.5 117t118 78t146.5 28t146.5 -28t117.5 -78t78.5 -117t28.5 -144t-28.5 -144t-78.5 -117t-117.5 -78t-146.5 -28zM556 257q0 52 -33 84.5t-99 40.5l-49 6l10 48h134v81h-204l-38 -196l134 -15
q26 -3 40 -16t14 -32q0 -21 -14.5 -35t-38.5 -14q-29 0 -44 16t-15 40h-90q0 -41 19 -71.5t53 -47.5t77 -17q42 0 74.5 16.5t51 45.5t18.5 66z" />
    <glyph glyph-name="uni278F" unicode="&#x278f;" horiz-adv-x="809" 
d="M405 -42q-79 0 -146.5 28t-118 78t-78.5 117t-28 144t28 144t78.5 117t118 78t146.5 28t146.5 -28t117.5 -78t78.5 -117t28.5 -144t-28.5 -144t-78.5 -117t-117.5 -78t-146.5 -28zM405 128q45 0 80 19.5t55.5 52t20.5 73.5q0 29 -11.5 53.5t-31.5 42.5t-47.5 28t-59.5 10
q15 18 26 34t19 34.5t11 40.5h-95q-3 -26 -16.5 -48.5t-31 -44.5t-34.5 -44.5t-28.5 -49t-11.5 -58.5q0 -40 20 -72.5t55.5 -51.5t79.5 -19zM405 211q-18 0 -33 8t-23.5 22.5t-8.5 31.5t9 30.5t24 22t32 8.5q19 0 33.5 -8t23.5 -22t9 -31t-9 -31.5t-23.5 -22.5t-33.5 -8z
" />
    <glyph glyph-name="uni2790" unicode="&#x2790;" horiz-adv-x="809" 
d="M405 -42q-79 0 -146.5 28t-118 78t-78.5 117t-28 144t28 144t78.5 117t118 78t146.5 28t146.5 -28t117.5 -78t78.5 -117t28.5 -144t-28.5 -144t-78.5 -117t-117.5 -78t-146.5 -28zM546 516h-274v-84h149q-22 -49 -36.5 -94.5t-22.5 -94.5t-13 -109h95q4 55 11 100
t18.5 88t29.5 90t43 104z" />
    <glyph glyph-name="uni2791" unicode="&#x2791;" horiz-adv-x="809" 
d="M405 -42q-79 0 -146.5 28t-118 78t-78.5 117t-28 144t28 144t78.5 117t118 78t146.5 28t146.5 -28t117.5 -78t78.5 -117t28.5 -144t-28.5 -144t-78.5 -117t-117.5 -78t-146.5 -28zM562 251q0 34 -19.5 60.5t-53.5 41.5q18 12 27.5 30.5t9.5 40.5q0 43 -33.5 70.5
t-87.5 27.5t-87.5 -27.5t-33.5 -70.5q0 -22 10 -40.5t27 -30.5q-34 -15 -53.5 -42t-19.5 -60q0 -35 20 -63t55.5 -44t81.5 -16t81.5 16.5t55.5 44.5t20 62zM405 455q18 0 29.5 -10t11.5 -26q0 -15 -12 -25.5t-29 -10.5q-18 0 -29.5 10.5t-11.5 25.5q0 16 12 26t29 10z
M405 205q-28 0 -45.5 15t-17.5 37q0 23 17.5 38.5t45.5 15.5t46 -15.5t18 -38.5q0 -22 -18 -37t-46 -15z" />
    <glyph glyph-name="uni2792" unicode="&#x2792;" horiz-adv-x="809" 
d="M405 -42q-79 0 -146.5 28t-118 78t-78.5 117t-28 144t28 144t78.5 117t118 78t146.5 28t146.5 -28t117.5 -78t78.5 -117t28.5 -144t-28.5 -144t-78.5 -117t-117.5 -78t-146.5 -28zM409 522q-44 0 -79.5 -19.5t-56 -51.5t-20.5 -74q0 -29 11.5 -53.5t31.5 -42.5t47.5 -28
t59.5 -10q-14 -17 -26 -33.5t-19.5 -35t-10.5 -40.5h95q3 26 16.5 49t31 44.5t34.5 44.5t28.5 49t11.5 58q0 42 -20 73.5t-55.5 50.5t-79.5 19zM409 439q18 0 32.5 -8t23.5 -22t9 -32q0 -16 -9 -30t-24 -22.5t-32 -8.5q-19 0 -33.5 8t-23.5 22.5t-9 30.5q0 18 9 32t23.5 22
t33.5 8z" />
    <glyph glyph-name="uniF6C3" unicode="&#xf6c3;" horiz-adv-x="514" 
d="M205 -237q15 28 27 60l4 12q-13 3 -24 13q-17 16 -17 41t17 42t43 17q27 0 43.5 -17t16.5 -46q0 -23 -11.5 -53.5t-36.5 -68.5h-62z" />
    <glyph glyph-name="A.alt1" 
d="M171 41v-41h-116v434q0 67 28 118t79.5 79.5t117.5 28.5q68 0 118.5 -28.5t78.5 -79.5t28 -118v-434h-116v235q-21 -17 -45 -30t-48.5 -25.5t-47 -25t-40 -28t-27.5 -36.5t-10 -49zM171 434v-208q21 16 45.5 29.5t49 25.5t46.5 24.5t39.5 28.5t27.5 37t10 49v14
q0 34 -14 59t-38.5 39.5t-56.5 14.5t-57 -14.5t-38.5 -39.5t-13.5 -59z" />
    <glyph glyph-name="A.alt2" 
d="M55 0v434q0 67 28 118t79.5 79.5t117.5 28.5q68 0 118.5 -28.5t78.5 -79.5t28 -118v-434h-116v176h-218v-176h-116zM171 434v-150h218v150q0 34 -14 59t-38.5 39.5t-56.5 14.5t-57 -14.5t-38.5 -39.5t-13.5 -59z" />
    <glyph glyph-name="B.alt1" horiz-adv-x="563" 
d="M62 0v650h216q56 0 97 -19t64.5 -53t23.5 -81q0 -69 -48 -109q-8 -6 -16 -11q15 -5 28 -11q49 -23 77 -64.5t28 -95.5q0 -60 -29.5 -106.5t-80.5 -73t-119 -26.5h-241zM178 408h95q37 0 58.5 20t21.5 51q0 32 -21 51t-59 19h-95v-141zM178 101h115q35 0 62.5 14.5
t42.5 39t15 55.5q0 32 -15.5 56.5t-42 38.5t-62.5 14h-115v-218z" />
    <glyph glyph-name="C.alt1" horiz-adv-x="416" 
d="M379 0h-10q-71 0 -132 24.5t-107 69.5t-71 104t-25 127q0 69 25 128t71 103.5t107 69t132 24.5h10v-110h-10q-46 0 -85.5 -16.5t-68.5 -45.5t-45 -68t-16 -85q0 -45 16 -84t45 -68.5t68.5 -46t85.5 -16.5h10v-110z" />
    <glyph glyph-name="E.alt1" horiz-adv-x="461" 
d="M393 381v-104h-215v-172h246v-105h-361v650h361v-105h-246v-164h215z" />
    <glyph glyph-name="F.alt1" horiz-adv-x="449" 
d="M388 362v-106h-208v-256h-117v650h355v-106h-238v-182h208z" />
    <glyph glyph-name="G.alt1" horiz-adv-x="494" 
d="M442 0h-72q-71 0 -132.5 24.5t-107 69.5t-71 104t-25.5 127q0 69 25.5 128t71 103.5t107 69t132.5 24.5h56v-110h-56q-46 0 -85 -16.5t-68.5 -45.5t-46 -68t-16.5 -85q0 -45 16.5 -84t46 -68.5t68.5 -46.5q22 -9 47 -13v254h110v-367z" />
    <glyph glyph-name="H.alt1" horiz-adv-x="582" 
d="M402 0v298q-17 -14 -36 -25q-33 -18 -65.5 -33t-59.5 -32t-44 -42t-17 -64v-102h-117v650h117v-353q18 14 37 25q33 18 65.5 33t59.5 32t43.5 41t16.5 62v160h118v-650h-118z" />
    <glyph glyph-name="H.alt2" horiz-adv-x="582" 
d="M520 0h-118v245h-222v-245h-117v650h117v-292h222v292h118v-650z" />
    <glyph glyph-name="I.alt1" horiz-adv-x="243" 
d="M63 555v95h117v-78q-18 -1 -39.5 -3.5t-41.5 -6t-36 -7.5zM63 0v500q27 7 57.5 11.5t59.5 5.5v-517h-117z" />
    <glyph glyph-name="K.alt1" horiz-adv-x="571" 
d="M180 0h-117v650h117v-397q32 17 57 36q56 39 89.5 89t49.5 116.5t20 155.5h118q-3 -106 -23.5 -187t-62.5 -144q-21 -33 -50 -63l182 -256h-142l-136 185q-22 -15 -47 -31q-25 -15 -55 -30v-124z" />
    <glyph glyph-name="P.alt1" horiz-adv-x="548" 
d="M63 0v650h185q80 0 141 -32t95.5 -89t34.5 -132t-33 -132.5t-90.5 -89.5t-131.5 -32q-36 0 -72 9q-6 1 -12 3v-155h-117zM180 264q7 -3 13 -5q32 -9 64 -9q43 0 75.5 18t50.5 51t18 78q0 43 -19 75.5t-53 50.5t-80 18h-69v-277z" />
    <glyph glyph-name="Q.alt1" horiz-adv-x="753" 
d="M734 0h-355q-74 0 -136.5 25t-109.5 70t-73 105t-26 130q0 69 25.5 129t72 105t107.5 70.5t131 25.5q71 0 132 -24.5t107.5 -68.5t72 -102.5t25.5 -125.5q0 -72 -32 -133t-88 -102l147 3v-107zM370 550q-45 0 -84 -17t-68.5 -47t-46.5 -70t-17 -86t17 -86t47 -70
t69.5 -47t84.5 -17q44 0 83 17t68.5 47t46.5 70t17 86t-17 86t-46.5 70t-68.5 47t-85 17z" />
    <glyph glyph-name="R.alt1" horiz-adv-x="554" 
d="M392 0l-212 217v-217h-117v650h192q79 0 137 -28t90 -78.5t32 -116.5t-32 -116.5t-89 -77.5q-28 -14 -61 -21l208 -212h-148zM180 315q8 -3 15 -5q30 -9 59 -9q43 0 75 15.5t49.5 43t17.5 63.5q0 35 -16.5 61.5t-48 41.5t-75.5 15h-76v-226z" />
    <glyph glyph-name="S.alt1" horiz-adv-x="377" 
d="M131 434q0 106 54.5 161t159.5 55h9v-107h-9q-46 0 -71.5 -27.5t-25.5 -78.5v-222q0 -105 -55 -160t-160 -55h-9v107h9q47 0 72.5 27.5t25.5 77.5v222z" />
    <glyph glyph-name="T.alt1" horiz-adv-x="472" 
d="M448 543h-154v-543h-116v543h-154v107h424v-107z" />
    <glyph glyph-name="X.alt1" horiz-adv-x="561" 
d="M280 293q33 0 57 13t37 36t13 53v255h117v-255q0 -59 -27 -104q-21 -32 -52 -54q36 -23 58 -58q29 -46 29 -108v-71h-118v71q0 32 -14 56.5t-39.5 38t-60.5 13.5q-34 0 -59.5 -13.5t-40 -38t-14.5 -56.5v-71h-117v71q0 62 29 108q22 35 58 58q-32 22 -52 54
q-28 45 -28 104v255h118v-255q0 -30 13 -53t37.5 -36t55.5 -13z" />
    <glyph glyph-name="X.alt2" horiz-adv-x="561" 
d="M280 445q33 0 57 13t37 36t13 53v103h117v-103q0 -60 -27 -104q-21 -32 -52 -54q36 -23 58 -58q29 -46 29 -108v-223h-118v223q0 32 -14 56.5t-39.5 37.5t-60.5 13q-33 0 -59 -13t-40.5 -37.5t-14.5 -56.5v-223h-117v223q0 62 29 108q22 35 58 58q-32 22 -52 54
q-28 44 -28 104v103h118v-103q0 -30 13 -53t37.5 -36t55.5 -13z" />
    <glyph glyph-name="AE.alt1" horiz-adv-x="773" 
d="M55 0v430q0 66 28 115.5t79.5 77t117.5 27.5h456v-105h-245v-163h214v-105h-214v-172h245v-105h-361v175h-203v-175h-117zM172 284h203v261h-95q-31 -1 -56 -15.5t-38.5 -38.5t-13.5 -55v-152z" />
    <glyph glyph-name="OE.alt1" horiz-adv-x="834" 
d="M766 382v-105h-214v-172h246v-105h-407q-77 0 -142.5 24t-113.5 68t-74.5 103.5t-26.5 129.5t26.5 129.5t74.5 103.5t113.5 68t142.5 24h407v-105h-246v-163h214zM437 106v438h-61q-47 0 -87 -17t-70 -46.5t-47.5 -69.5t-17.5 -86t17.5 -86t47.5 -69.5t70 -46.5t87 -17
h61z" />
    <glyph glyph-name="x.alt1" horiz-adv-x="496" 
d="M47 478h114v-102q0 -38 23.5 -60.5t63.5 -22.5q41 0 64 22.5t23 60.5v102h114v-100q0 -51 -25 -89q-17 -26 -44 -44q31 -20 50 -50q25 -40 25 -94v-101h-114v102q0 44 -25 68.5t-68 24.5t-68 -24.5t-25 -68.5v-102h-114v101q0 54 25 94q19 30 50 50q-27 18 -44 44
q-25 38 -25 89v100z" />
    <glyph glyph-name="Aacute.alt1" 
d="M232 707l67 164h118l-91 -164h-94zM171 41v-41h-116v434q0 67 28 118t79.5 79.5t117.5 28.5q68 0 118.5 -28.5t78.5 -79.5t28 -118v-434h-116v235q-21 -17 -45 -30t-48.5 -25.5t-47 -25t-40 -28t-27.5 -36.5t-10 -49zM171 434v-208q21 16 45.5 29.5t49 25.5t46.5 24.5
t39.5 28.5t27.5 37t10 49v14q0 34 -14 59t-38.5 39.5t-56.5 14.5t-57 -14.5t-38.5 -39.5t-13.5 -59z" />
    <glyph glyph-name="Acircumflex.alt1" 
d="M341 871l104 -164h-107l-59 102l-58 -102h-105l103 164h122zM171 41v-41h-116v434q0 67 28 118t79.5 79.5t117.5 28.5q68 0 118.5 -28.5t78.5 -79.5t28 -118v-434h-116v235q-21 -17 -45 -30t-48.5 -25.5t-47 -25t-40 -28t-27.5 -36.5t-10 -49zM171 434v-208
q21 16 45.5 29.5t49 25.5t46.5 24.5t39.5 28.5t27.5 37t10 49v14q0 34 -14 59t-38.5 39.5t-56.5 14.5t-57 -14.5t-38.5 -39.5t-13.5 -59z" />
    <glyph glyph-name="Adieresis.alt1" 
d="M185 722q-27 0 -45 17.5t-18 43.5q0 27 17.5 45t45.5 18q29 0 46.5 -17.5t17.5 -44.5t-17.5 -44.5t-46.5 -17.5zM375 722q-28 0 -46 17.5t-18 43.5q0 27 18 45t46 18q29 0 46.5 -17.5t17.5 -44.5t-17.5 -44.5t-46.5 -17.5zM171 41v-41h-116v434q0 67 28 118t79.5 79.5
t117.5 28.5q68 0 118.5 -28.5t78.5 -79.5t28 -118v-434h-116v235q-21 -17 -45 -30t-48.5 -25.5t-47 -25t-40 -28t-27.5 -36.5t-10 -49zM171 434v-208q21 16 45.5 29.5t49 25.5t46.5 24.5t39.5 28.5t27.5 37t10 49v14q0 34 -14 59t-38.5 39.5t-56.5 14.5t-57 -14.5
t-38.5 -39.5t-13.5 -59z" />
    <glyph glyph-name="Agrave.alt1" 
d="M326 707h-94l-97 164h120zM171 41v-41h-116v434q0 67 28 118t79.5 79.5t117.5 28.5q68 0 118.5 -28.5t78.5 -79.5t28 -118v-434h-116v235q-21 -17 -45 -30t-48.5 -25.5t-47 -25t-40 -28t-27.5 -36.5t-10 -49zM171 434v-208q21 16 45.5 29.5t49 25.5t46.5 24.5t39.5 28.5
t27.5 37t10 49v14q0 34 -14 59t-38.5 39.5t-56.5 14.5t-57 -14.5t-38.5 -39.5t-13.5 -59z" />
    <glyph glyph-name="Aring.alt1" 
d="M55 0v434q0 88 48 147q29 36 70 56l-2 2q-23 31 -23 70q0 54 37.5 88.5t94.5 34.5q38 0 67.5 -16t47 -44t17.5 -63q0 -40 -22 -70l-2 -2q41 -20 70 -56q47 -59 47 -147v-434h-116v235q-21 -17 -45 -30t-48.5 -25.5t-47 -25t-40 -28t-27.5 -36.5t-10 -49v-41h-116z
M280 660q24 0 37.5 13.5t13.5 35.5t-13.5 36t-37.5 14q-23 0 -37 -14t-14 -36q0 -21 14 -35t37 -14zM171 434v-208q21 16 45.5 29.5t49 25.5t46.5 24.5t39.5 28.5t27.5 37t10 49v14q0 34 -14 59t-38.5 39.5t-56.5 14.5t-57 -14.5t-38.5 -39.5t-13.5 -59z" />
    <glyph glyph-name="Atilde.alt1" 
d="M120 707v61q0 52 24 79.5t65 27.5q23 0 39.5 -8.5t29 -20.5t22.5 -24.5t19 -21t18 -8.5q11 0 15.5 7.5t4.5 22.5v49h83v-60q0 -52 -24 -79.5t-65 -27.5q-23 0 -39.5 8.5t-29.5 20.5t-22.5 24t-18 20.5t-18.5 8.5q-20 0 -20 -30v-49h-83zM171 41v-41h-116v434q0 67 28 118
t79.5 79.5t117.5 28.5q68 0 118.5 -28.5t78.5 -79.5t28 -118v-434h-116v235q-21 -17 -45 -30t-48.5 -25.5t-47 -25t-40 -28t-27.5 -36.5t-10 -49zM171 434v-208q21 16 45.5 29.5t49 25.5t46.5 24.5t39.5 28.5t27.5 37t10 49v14q0 34 -14 59t-38.5 39.5t-56.5 14.5t-57 -14.5
t-38.5 -39.5t-13.5 -59z" />
    <glyph glyph-name="Abreve.alt1" 
d="M280 786q33 0 51 16t18 45v24h85v-28q0 -67 -42 -103t-112 -36q-71 0 -112.5 36t-41.5 103v28h85v-24q0 -29 18 -45t51 -16zM171 41v-41h-116v434q0 67 28 118t79.5 79.5t117.5 28.5q68 0 118.5 -28.5t78.5 -79.5t28 -118v-434h-116v235q-21 -17 -45 -30t-48.5 -25.5
t-47 -25t-40 -28t-27.5 -36.5t-10 -49zM171 434v-208q21 16 45.5 29.5t49 25.5t46.5 24.5t39.5 28.5t27.5 37t10 49v14q0 34 -14 59t-38.5 39.5t-56.5 14.5t-57 -14.5t-38.5 -39.5t-13.5 -59z" />
    <glyph glyph-name="Amacron.alt1" 
d="M148 820h264v-90h-264v90zM171 41v-41h-116v434q0 67 28 118t79.5 79.5t117.5 28.5q68 0 118.5 -28.5t78.5 -79.5t28 -118v-434h-116v235q-21 -17 -45 -30t-48.5 -25.5t-47 -25t-40 -28t-27.5 -36.5t-10 -49zM171 434v-208q21 16 45.5 29.5t49 25.5t46.5 24.5t39.5 28.5
t27.5 37t10 49v14q0 34 -14 59t-38.5 39.5t-56.5 14.5t-57 -14.5t-38.5 -39.5t-13.5 -59z" />
    <glyph glyph-name="Aogonek.alt1" 
d="M55 0v434q0 67 28 118t79.5 79.5t117.5 28.5q68 0 118.5 -28.5t78.5 -79.5t28 -118v-434q-32 -17 -47.5 -33.5t-15.5 -32.5q0 -12 9.5 -19.5t25.5 -7.5h28v-78h-34q-54 0 -85 24.5t-31 63.5q0 23 11.5 43t37.5 37q2 2 4 3h-19v235q-21 -17 -45 -30t-48.5 -25.5t-47 -25
t-40 -28t-27.5 -36.5t-10 -49v-41h-116zM171 434v-208q21 16 45.5 29.5t49 25.5t46.5 24.5t39.5 28.5t27.5 37t10 49v14q0 34 -14 59t-38.5 39.5t-56.5 14.5t-57 -14.5t-38.5 -39.5t-13.5 -59z" />
    <glyph glyph-name="Aacute.alt2" 
d="M232 707l67 164h118l-91 -164h-94zM55 0v434q0 67 28 118t79.5 79.5t117.5 28.5q68 0 118.5 -28.5t78.5 -79.5t28 -118v-434h-116v176h-218v-176h-116zM171 434v-150h218v150q0 34 -14 59t-38.5 39.5t-56.5 14.5t-57 -14.5t-38.5 -39.5t-13.5 -59z" />
    <glyph glyph-name="Acircumflex.alt2" 
d="M341 871l104 -164h-107l-59 102l-58 -102h-105l103 164h122zM55 0v434q0 67 28 118t79.5 79.5t117.5 28.5q68 0 118.5 -28.5t78.5 -79.5t28 -118v-434h-116v176h-218v-176h-116zM171 434v-150h218v150q0 34 -14 59t-38.5 39.5t-56.5 14.5t-57 -14.5t-38.5 -39.5
t-13.5 -59z" />
    <glyph glyph-name="Adieresis.alt2" 
d="M185 722q-27 0 -45 17.5t-18 43.5q0 27 17.5 45t45.5 18q29 0 46.5 -17.5t17.5 -44.5t-17.5 -44.5t-46.5 -17.5zM375 722q-28 0 -46 17.5t-18 43.5q0 27 18 45t46 18q29 0 46.5 -17.5t17.5 -44.5t-17.5 -44.5t-46.5 -17.5zM55 0v434q0 67 28 118t79.5 79.5t117.5 28.5
q68 0 118.5 -28.5t78.5 -79.5t28 -118v-434h-116v176h-218v-176h-116zM171 434v-150h218v150q0 34 -14 59t-38.5 39.5t-56.5 14.5t-57 -14.5t-38.5 -39.5t-13.5 -59z" />
    <glyph glyph-name="Agrave.alt2" 
d="M326 707h-94l-97 164h120zM55 0v434q0 67 28 118t79.5 79.5t117.5 28.5q68 0 118.5 -28.5t78.5 -79.5t28 -118v-434h-116v176h-218v-176h-116zM171 434v-150h218v150q0 34 -14 59t-38.5 39.5t-56.5 14.5t-57 -14.5t-38.5 -39.5t-13.5 -59z" />
    <glyph glyph-name="Aring.alt2" 
d="M55 0v434q0 88 48 147q29 36 70 56l-2 2q-23 31 -23 70q0 54 37.5 88.5t94.5 34.5q38 0 67.5 -16t47 -44t17.5 -63q0 -40 -22 -70q-1 -1 -2 -3q41 -19 70 -55q47 -60 47 -147v-434h-116v176h-218v-176h-116zM280 660q24 0 37.5 13.5t13.5 35.5t-13.5 36t-37.5 14
q-23 0 -37 -14t-14 -36q0 -21 14 -35t37 -14zM171 434v-150h218v150q0 34 -14 59t-38.5 39.5t-56.5 14.5t-57 -14.5t-38.5 -39.5t-13.5 -59z" />
    <glyph glyph-name="Atilde.alt2" 
d="M120 707v61q0 52 24 79.5t65 27.5q23 0 39.5 -8.5t29 -20.5t22.5 -24.5t19 -21t18 -8.5q11 0 15.5 7.5t4.5 22.5v49h83v-60q0 -52 -24 -79.5t-65 -27.5q-23 0 -39.5 8.5t-29.5 20.5t-22.5 24t-18 20.5t-18.5 8.5q-20 0 -20 -30v-49h-83zM55 0v434q0 67 28 118t79.5 79.5
t117.5 28.5q68 0 118.5 -28.5t78.5 -79.5t28 -118v-434h-116v176h-218v-176h-116zM171 434v-150h218v150q0 34 -14 59t-38.5 39.5t-56.5 14.5t-57 -14.5t-38.5 -39.5t-13.5 -59z" />
    <glyph glyph-name="Abreve.alt2" 
d="M280 786q33 0 51 16t18 45v24h85v-28q0 -67 -42 -103t-112 -36q-71 0 -112.5 36t-41.5 103v28h85v-24q0 -29 18 -45t51 -16zM55 0v434q0 67 28 118t79.5 79.5t117.5 28.5q68 0 118.5 -28.5t78.5 -79.5t28 -118v-434h-116v176h-218v-176h-116zM171 434v-150h218v150
q0 34 -14 59t-38.5 39.5t-56.5 14.5t-57 -14.5t-38.5 -39.5t-13.5 -59z" />
    <glyph glyph-name="Amacron.alt2" 
d="M148 820h264v-90h-264v90zM55 0v434q0 67 28 118t79.5 79.5t117.5 28.5q68 0 118.5 -28.5t78.5 -79.5t28 -118v-434h-116v176h-218v-176h-116zM171 434v-150h218v150q0 34 -14 59t-38.5 39.5t-56.5 14.5t-57 -14.5t-38.5 -39.5t-13.5 -59z" />
    <glyph glyph-name="Aogonek.alt2" 
d="M55 0v434q0 67 28 118t79.5 79.5t117.5 28.5q68 0 118.5 -28.5t78.5 -79.5t28 -118v-434q-32 -17 -47.5 -33.5t-15.5 -32.5q0 -12 9.5 -19.5t25.5 -7.5h28v-78h-34q-54 0 -85 24.5t-31 63.5q0 23 11.5 43t37.5 37q2 2 4 3h-19v176h-218v-176h-116zM171 434v-150h218v150
q0 34 -14 59t-38.5 39.5t-56.5 14.5t-57 -14.5t-38.5 -39.5t-13.5 -59z" />
    <glyph glyph-name="Ccedilla.alt1" horiz-adv-x="416" 
d="M34 325q0 69 25 128t71 103.5t107 69t132 24.5h10v-110h-10q-46 0 -85.5 -16.5t-68.5 -45.5t-45 -68t-16 -85q0 -45 16 -84t45 -68.5t68.5 -46t85.5 -16.5h10v-110h-10q-21 0 -41 2l-5 1v-138h-106l13 163q-48 20 -88 55q-51 45 -79.5 107.5t-28.5 134.5z" />
    <glyph glyph-name="Cacute.alt1" horiz-adv-x="416" 
d="M226 707l67 164h118l-90 -164h-95zM379 0h-10q-71 0 -132 24.5t-107 69.5t-71 104t-25 127q0 69 25 128t71 103.5t107 69t132 24.5h10v-110h-10q-46 0 -85.5 -16.5t-68.5 -45.5t-45 -68t-16 -85q0 -45 16 -84t45 -68.5t68.5 -46t85.5 -16.5h10v-110z" />
    <glyph glyph-name="Ccaron.alt1" horiz-adv-x="416" 
d="M214 707l-104 164h106l59 -101l59 101h105l-104 -164h-121zM379 0h-10q-71 0 -132 24.5t-107 69.5t-71 104t-25 127q0 69 25 128t71 103.5t107 69t132 24.5h10v-110h-10q-46 0 -85.5 -16.5t-68.5 -45.5t-45 -68t-16 -85q0 -45 16 -84t45 -68.5t68.5 -46t85.5 -16.5h10
v-110z" />
    <glyph glyph-name="Ccircumflex.alt1" horiz-adv-x="416" 
d="M335 871l104 -164h-107l-59 102l-58 -102h-105l103 164h122zM379 0h-10q-71 0 -132 24.5t-107 69.5t-71 104t-25 127q0 69 25 128t71 103.5t107 69t132 24.5h10v-110h-10q-46 0 -85.5 -16.5t-68.5 -45.5t-45 -68t-16 -85q0 -45 16 -84t45 -68.5t68.5 -46t85.5 -16.5h10
v-110z" />
    <glyph glyph-name="Cdotaccent.alt1" horiz-adv-x="416" 
d="M271 722q-31 0 -51.5 19.5t-20.5 50.5t20.5 51t51.5 20t52 -20t21 -51q0 -30 -20.5 -50t-52.5 -20zM379 0h-10q-71 0 -132 24.5t-107 69.5t-71 104t-25 127q0 69 25 128t71 103.5t107 69t132 24.5h10v-110h-10q-46 0 -85.5 -16.5t-68.5 -45.5t-45 -68t-16 -85
q0 -45 16 -84t45 -68.5t68.5 -46t85.5 -16.5h10v-110z" />
    <glyph glyph-name="Eacute.alt1" horiz-adv-x="461" 
d="M191 707l67 164h118l-90 -164h-95zM393 381v-104h-215v-172h246v-105h-361v650h361v-105h-246v-164h215z" />
    <glyph glyph-name="Ecircumflex.alt1" horiz-adv-x="461" 
d="M300 871l105 -164h-107l-59 102l-58 -102h-106l104 164h121zM393 381v-104h-215v-172h246v-105h-361v650h361v-105h-246v-164h215z" />
    <glyph glyph-name="Edieresis.alt1" horiz-adv-x="461" 
d="M145 722q-27 0 -45 17.5t-18 43.5q0 27 17.5 45t45.5 18q29 0 46.5 -17.5t17.5 -44.5t-17.5 -44.5t-46.5 -17.5zM335 722q-28 0 -46 17.5t-18 43.5q0 27 18 45t46 18t45.5 -17.5t17.5 -44.5t-17.5 -44.5t-45.5 -17.5zM393 381v-104h-215v-172h246v-105h-361v650h361v-105
h-246v-164h215z" />
    <glyph glyph-name="Egrave.alt1" horiz-adv-x="461" 
d="M295 707h-94l-97 164h120zM393 381v-104h-215v-172h246v-105h-361v650h361v-105h-246v-164h215z" />
    <glyph glyph-name="Ebreve.alt1" horiz-adv-x="461" 
d="M240 786q32 0 50.5 16t18.5 45v24h85v-28q0 -67 -42 -103t-112 -36q-71 0 -112.5 36t-41.5 103v28h85v-24q0 -29 18 -45t51 -16zM393 381v-104h-215v-172h246v-105h-361v650h361v-105h-246v-164h215z" />
    <glyph glyph-name="Ecaron.alt1" horiz-adv-x="461" 
d="M180 707l-105 164h107l59 -101l58 101h106l-104 -164h-121zM393 381v-104h-215v-172h246v-105h-361v650h361v-105h-246v-164h215z" />
    <glyph glyph-name="Edotaccent.alt1" horiz-adv-x="461" 
d="M240 722q-31 0 -51.5 19.5t-20.5 50.5t20.5 51t51.5 20t51.5 -20t20.5 -51q0 -30 -20.5 -50t-51.5 -20zM393 381v-104h-215v-172h246v-105h-361v650h361v-105h-246v-164h215z" />
    <glyph glyph-name="Emacron.alt1" horiz-adv-x="461" 
d="M108 820h264v-90h-264v90zM393 381v-104h-215v-172h246v-105h-361v650h361v-105h-246v-164h215z" />
    <glyph glyph-name="Eogonek.alt1" horiz-adv-x="461" 
d="M393 382v-105h-215v-172h246v-105q-33 -17 -48 -33.5t-15 -32.5q0 -12 9 -19.5t26 -7.5h28v-78h-34q-54 0 -85 24.5t-31 63.5q0 23 11.5 43t36.5 37q2 2 5 3h-264v650h361v-105h-246v-163h215z" />
    <glyph glyph-name="Gbreve.alt1" horiz-adv-x="494" 
d="M291 786q32 0 50.5 15.5t18.5 45.5v24h85v-29q0 -66 -42 -102.5t-112 -36.5q-71 0 -112.5 36.5t-41.5 102.5v29h85v-24q0 -30 18 -45.5t51 -15.5zM442 0h-72q-71 0 -132.5 24.5t-107 69.5t-71 104t-25.5 127q0 69 25.5 128t71 103.5t107 69t132.5 24.5h56v-110h-56
q-46 0 -85 -16.5t-68.5 -45.5t-46 -68t-16.5 -85q0 -45 16.5 -84t46 -68.5t68.5 -46.5q22 -9 47 -13v254h110v-367z" />
    <glyph glyph-name="Gcircumflex.alt1" horiz-adv-x="494" 
d="M351 872l105 -165h-107l-59 102l-58 -102h-106l104 165h121zM442 0h-72q-71 0 -132.5 24.5t-107 69.5t-71 104t-25.5 127q0 69 25.5 128t71 103.5t107 69t132.5 24.5h56v-110h-56q-46 0 -85 -16.5t-68.5 -45.5t-46 -68t-16.5 -85q0 -45 16.5 -84t46 -68.5t68.5 -46.5
q22 -9 47 -13v254h110v-367z" />
    <glyph glyph-name="uni0122.alt1" horiz-adv-x="494" 
d="M442 0h-72q-71 0 -132.5 24.5t-107 69.5t-71 104t-25.5 127q0 69 25.5 128t71 103.5t107 69t132.5 24.5h56v-110h-56q-46 0 -85 -16.5t-68.5 -45.5t-46 -68t-16.5 -85q0 -45 16.5 -84t46 -68.5t68.5 -46.5q22 -9 47 -13v254h110v-367zM236 -237q15 28 27 60l4 12
q-14 3 -24 13q-17 16 -17 41t17 42t43 17t43 -17t17 -46q0 -23 -12 -53.5t-36 -68.5h-62z" />
    <glyph glyph-name="Gdotaccent.alt1" horiz-adv-x="494" 
d="M291 722q-31 0 -51.5 19.5t-20.5 50.5t20 51t52 20q31 0 51.5 -20t20.5 -51q0 -30 -20.5 -50t-51.5 -20zM442 0h-72q-71 0 -132.5 24.5t-107 69.5t-71 104t-25.5 127q0 69 25.5 128t71 103.5t107 69t132.5 24.5h56v-110h-56q-46 0 -85 -16.5t-68.5 -45.5t-46 -68
t-16.5 -85q0 -45 16.5 -84t46 -68.5t68.5 -46.5q22 -9 47 -13v254h110v-367z" />
    <glyph glyph-name="Hbar.alt1" horiz-adv-x="622" 
d="M82 0v459h-77v96h77v95h117v-95h224v95h116v-95h78v-96h-78v-459h-116v264q-18 -14 -38 -25q-32 -18 -65 -33t-60 -32t-44 -42t-17 -64v-68h-117zM199 262q18 14 38 26q33 18 65.5 33t59.5 32t44 41t17 62v3h-224v-197z" />
    <glyph glyph-name="Hcircumflex.alt1" horiz-adv-x="582" 
d="M352 871l104 -164h-107l-59 102l-58 -102h-105l103 164h122zM402 0v298q-17 -14 -36 -25q-33 -18 -65.5 -33t-59.5 -32t-44 -42t-17 -64v-102h-117v650h117v-353q18 14 37 25q33 18 65.5 33t59.5 32t43.5 41t16.5 62v160h118v-650h-118z" />
    </font>
</defs>
</svg>
