<?xml version="1.0" standalone="no"?>
<!DOCTYPE svg PUBLIC "-//W3C//DTD SVG 1.1//EN" "http://www.w3.org/Graphics/SVG/1.1/DTD/svg11.dtd" >
<svg xmlns="http://www.w3.org/2000/svg" xmlns:xlink="http://www.w3.org/1999/xlink" version="1.1">
<metadata>
Created by FontForge 20201107 at Thu Mar 21 18:24:40 2024
 By 
Copyright 2019 (c) Paris 2024 Olympic and Paralympic Games
</metadata>
<defs>
<font id="Paris2024Variable-Light" horiz-adv-x="554" >
  <font-face 
    font-family="Paris 2024 Variable"
    font-weight="350"
    font-stretch="normal"
    units-per-em="1000"
    panose-1="2 1 5 3 3 2 1 2 1 3"
    ascent="750"
    descent="-250"
    x-height="473"
    cap-height="650"
    bbox="-84 -225 1122 1068"
    underline-thickness="70"
    underline-position="-94"
    unicode-range="U+000D-F6C3"
  />
<missing-glyph horiz-adv-x="580" 
d="M505 0h-80v650h80v-650zM155 0h-80v650h80v-650zM453 576h-326v74h326v-74zM453 0h-326v74h326v-74z" />
    <glyph glyph-name=".notdef" horiz-adv-x="580" 
d="M505 0h-80v650h80v-650zM155 0h-80v650h80v-650zM453 576h-326v74h326v-74zM453 0h-326v74h326v-74z" />
    <glyph glyph-name=".null" horiz-adv-x="0" 
 />
    <glyph glyph-name=".null" horiz-adv-x="0" 
 />
    <glyph glyph-name="uni000D" unicode="&#xd;" horiz-adv-x="0" 
 />
    <glyph glyph-name="space" unicode=" " horiz-adv-x="214" 
 />
    <glyph glyph-name="exclam" unicode="!" horiz-adv-x="212" 
d="M66 650h80l-5 -464h-70zM106 -9q-22 0 -36.5 14t-14.5 36t14.5 36t36.5 14q23 0 37 -14t14 -36t-14 -36t-37 -14z" />
    <glyph glyph-name="quotedbl" unicode="&#x22;" horiz-adv-x="321" 
d="M45 650h78l-7 -197h-63zM198 650h78l-7 -197h-63z" />
    <glyph glyph-name="numbersign" unicode="#" horiz-adv-x="630" 
d="M73 0l36 162h-89v70h102l56 255h263l36 163h80l-36 -163h89v-70h-102l-54 -255h-266l-35 -162h-80zM201 232h187l40 185h-186zM304 650l-14 -67q-19 -89 -71 -130t-141 -41h-38v70h38q57 0 88.5 22.5t44.5 78.5l15 67h78zM326 0l14 66q19 88 71 129.5t141 41.5h38v-70
h-38q-57 0 -88.5 -22.5t-44.5 -78.5l-15 -66h-78z" />
    <glyph glyph-name="dollar" unicode="$" horiz-adv-x="490" 
d="M211 43h78v-136h-78v136zM208 743h78v-133h-78v133zM248 -9q-57 0 -105.5 23.5t-77.5 67.5t-29 108h80q0 -36 17 -64t47 -44t68 -16q54 0 88 29.5t34 76.5q0 34 -17 56t-45.5 37.5t-62.5 28t-68 27.5t-62.5 36t-45.5 52.5t-17 79.5q0 47 25.5 85.5t68.5 61.5t95 23
q58 0 102 -23.5t69 -65t25 -96.5h-80q0 49 -32.5 79.5t-83.5 30.5q-29 0 -53.5 -12.5t-39 -34t-14.5 -48.5q0 -33 17 -54t45.5 -36.5t62.5 -28t68 -27.5t62.5 -37t45.5 -54t17 -80q0 -52 -26.5 -93t-72.5 -64.5t-105 -23.5z" />
    <glyph glyph-name="percent" unicode="%" horiz-adv-x="791" 
d="M176 0l353 650h86l-353 -650h-86zM189 357q-43 0 -78 20t-55.5 54.5t-20.5 76.5t20.5 76t55.5 54.5t78 20.5t77.5 -20.5t55.5 -54.5t21 -76t-21 -76.5t-55.5 -54.5t-77.5 -20zM189 594q-23 0 -43 -11.5t-31.5 -31t-11.5 -43.5q0 -23 11.5 -43t31.5 -31.5t43 -11.5
t42.5 11.5t31 31.5t11.5 43q0 24 -11.5 43.5t-30.5 31t-43 11.5zM602 -9q-43 0 -78 20.5t-55.5 54.5t-20.5 76t20.5 76.5t55.5 54.5t78 20t77.5 -20t55.5 -54.5t21 -76.5t-21 -76t-55.5 -54.5t-77.5 -20.5zM602 228q-23 0 -43 -11.5t-31.5 -31t-11.5 -43.5q0 -23 11.5 -43
t31.5 -31.5t43 -11.5q24 0 43 11.5t30.5 31.5t11.5 43q0 24 -11.5 43.5t-30.5 31t-43 11.5z" />
    <glyph glyph-name="ampersand" unicode="&#x26;" horiz-adv-x="595" 
d="M460 483h-74q0 29 -15 52.5t-40.5 37t-58.5 13.5q-32 0 -58 -13.5t-41 -36.5t-15 -53q0 -57 57 -102l-47 -49q-43 34 -64.5 71.5t-21.5 79.5q0 50 25 90t68 63t97 23t96.5 -23t67 -62.5t24.5 -90.5zM275 -9q-68 0 -123 28.5t-86.5 77.5t-31.5 110q0 60 31.5 108.5
t85 76.5t119.5 28h27v-72h-27q-45 0 -80 -18t-54.5 -50t-19.5 -73q0 -40 21 -72t57.5 -51t80.5 -19q51 0 89 20t59 55.5t21 81.5v39l15 -17h-84v72h220v-72h-89l20 17v-39q0 -66 -32.5 -118.5t-89 -82.5t-129.5 -30z" />
    <glyph glyph-name="quotesingle" unicode="'" horiz-adv-x="168" 
d="M45 650h78l-7 -197h-63z" />
    <glyph glyph-name="parenleft" unicode="(" horiz-adv-x="333" 
d="M313 -167l-16 6q-79 29 -136 88t-88 140.5t-31 177.5q0 97 31 178t88 140t136 88l16 6v-72l-13 -6q-84 -40 -132 -128t-48 -206t48 -205.5t132 -128.5l13 -6v-72z" />
    <glyph glyph-name="parenright" unicode=")" horiz-adv-x="333" 
d="M20 -167v72l13 6q84 41 132 128.5t48 205.5t-48 206t-132 128l-13 6v72l16 -6q79 -29 136 -88t88 -140t31 -178q0 -96 -31 -177.5t-88 -140.5t-136 -88z" />
    <glyph glyph-name="asterisk" unicode="*" horiz-adv-x="386" 
d="M330 341l-59 -44l-79 117l-77 -117l-59 44l86 110l-134 37l22 71l132 -48l-6 139h74l-5 -140l131 49l22 -71l-135 -38z" />
    <glyph glyph-name="plus" unicode="+" horiz-adv-x="480" 
d="M50 350h380v-64h-380v64zM272 508v-380h-64v380h64z" />
    <glyph glyph-name="comma" unicode="," horiz-adv-x="192" 
d="M38 -126q20 49 32.5 85.5t17.5 66.5l33 -26q-3 -4 -10 -6.5t-15 -2.5q-22 0 -36.5 14t-14.5 36t14.5 36t36.5 14q23 0 37 -14.5t14 -37.5t-15 -67.5t-39 -97.5h-55z" />
    <glyph glyph-name="hyphen" unicode="-" horiz-adv-x="400" 
d="M40 281h320v-69h-320v69z" />
    <glyph glyph-name="period" unicode="." horiz-adv-x="192" 
d="M96 -9q-22 0 -36.5 14t-14.5 36t14.5 36t36.5 14q23 0 37 -14t14 -36t-14 -36t-37 -14z" />
    <glyph glyph-name="slash" unicode="/" horiz-adv-x="306" 
d="M201 650h80l-176 -800h-80z" />
    <glyph glyph-name="zero" unicode="0" horiz-adv-x="758" 
d="M124 325q0 -54 20 -101t55 -82.5t81 -55.5t99 -20t99 20t81 55.5t55 82.5t20 101t-20 101t-55 82.5t-81 55.5t-99 20t-99 -20t-81 -55.5t-55 -82.5t-20 -101zM42 325q0 70 26 130.5t72.5 106.5t107.5 71.5t131 25.5t131 -25.5t107.5 -71.5t72.5 -106.5t26 -130.5
t-26 -130.5t-72.5 -106.5t-107.5 -71.5t-131 -25.5t-131 25.5t-107.5 71.5t-72.5 106.5t-26 130.5z" />
    <glyph glyph-name="one" unicode="1" horiz-adv-x="307" 
d="M15 579q42 6 81.5 17.5t74 27.5t61.5 35v-659h-80v581l57 -11q-19 -16 -48 -29.5t-66 -22.5t-80 -14v75z" />
    <glyph glyph-name="two" unicode="2" horiz-adv-x="501" 
d="M30 0l279 342q36 44 49 72t13 59t-16.5 56t-44 40t-61.5 15t-62.5 -15t-45 -40t-16.5 -56t11.5 -55.5t35.5 -47.5l-47 -58q-80 64 -80 161q0 52 27 94t73.5 67t103.5 25q58 0 104 -24.5t73 -66.5t27 -95q0 -28 -7 -53.5t-24 -53t-46 -63.5l-237 -291l-3 63h340v-75h-446z
" />
    <glyph glyph-name="three" unicode="3" horiz-adv-x="542" 
d="M269 -9q-70 0 -124 29.5t-84.5 81.5t-30.5 117h76q0 -44 21.5 -79.5t58.5 -56t83 -20.5q48 0 84.5 19.5t57 52.5t20.5 74q0 42 -22 75.5t-59 53t-83 19.5h-22v70h22q70 0 124 -28t85 -77t31 -113q0 -63 -31 -112.5t-84.5 -77.5t-122.5 -28zM377 343l-50 47
q24 21 36.5 45.5t12.5 50.5q0 30 -14.5 53t-40.5 35.5t-59 12.5q-30 0 -55.5 -14t-41 -37.5t-15.5 -52.5h-76q0 49 25 89t68 63.5t95 23.5q55 0 98 -22t67.5 -60.5t24.5 -87.5q0 -43 -18.5 -79t-56.5 -67z" />
    <glyph glyph-name="four" unicode="4" horiz-adv-x="521" 
d="M378 473h78v-473h-78v80q0 42 -17.5 67.5t-46 41t-62.5 27t-68.5 26.5t-63 39t-46 64.5t-17.5 104.5v200h80v-196q0 -51 16.5 -81t44.5 -47t61 -28.5t65.5 -24.5t60.5 -34.5t44.5 -59t16.5 -99.5l-68 93v300z" />
    <glyph glyph-name="five" unicode="5" horiz-adv-x="512" 
d="M253 -9q-64 0 -114.5 28t-79.5 77t-29 110h82q0 -39 18.5 -71t50.5 -50.5t72 -18.5q41 0 72.5 18t50 49.5t18.5 70.5q0 59 -36.5 95t-109.5 47l-182 27l54 277h291v-75h-248l22 29l-40 -205l-28 44l140 -22q109 -17 164 -71.5t55 -145.5q0 -61 -29 -109.5t-79 -76
t-115 -27.5z" />
    <glyph glyph-name="six" unicode="6" horiz-adv-x="559" 
d="M279 65q44 0 79.5 20.5t56.5 55t21 76.5q0 43 -21 77t-56.5 54.5t-79.5 20.5q-43 0 -78.5 -20.5t-56.5 -55t-21 -76.5t21 -76.5t56.5 -55t78.5 -20.5zM279 -9q-66 0 -119.5 30t-85.5 81.5t-32 113.5q0 56 19.5 102.5t49 87.5t60 79.5t54 78.5t30.5 86h82q-5 -46 -24 -84
t-44.5 -71.5t-51 -64t-46 -61t-27.5 -63.5l-28 10q19 60 65.5 93.5t104.5 33.5q65 0 117 -29.5t83 -80.5t31 -114q0 -64 -32 -115.5t-85.5 -82t-120.5 -30.5z" />
    <glyph glyph-name="seven" unicode="7" horiz-adv-x="459" 
d="M257 0h-81q5 96 17 177.5t33 156.5t53 149.5t76 155.5l16 -64h-341v75h409q-38 -75 -66 -138.5t-48.5 -121.5t-34 -117t-21.5 -125.5t-12 -147.5z" />
    <glyph glyph-name="eight" unicode="8" horiz-adv-x="536" 
d="M268 66q43 0 77 18.5t54 50t20 70.5t-20 70t-54 48.5t-77 17.5q-42 0 -76.5 -18t-54.5 -49t-20 -69q0 -39 20 -70.5t54.5 -50t76.5 -18.5zM268 -9q-66 0 -118.5 27.5t-83.5 75t-31 105.5q0 60 30.5 106.5t83.5 73.5t119 27q67 0 119.5 -27t83 -73.5t30.5 -106.5
q0 -58 -30.5 -105.5t-83.5 -75t-119 -27.5zM268 353q-49 0 -87.5 20.5t-60.5 55.5t-22 76q0 44 22.5 79t61 55t86.5 20t86.5 -20t61 -55t22.5 -79q0 -41 -22.5 -76t-61 -55.5t-86.5 -20.5zM268 415q27 0 48.5 11.5t34.5 31t13 44.5t-12.5 44.5t-34 31t-49.5 11.5
q-27 0 -49 -11.5t-34.5 -31t-12.5 -44.5t13 -44.5t34.5 -31t48.5 -11.5z" />
    <glyph glyph-name="nine" unicode="9" horiz-adv-x="559" 
d="M280 585q-43 0 -79 -20.5t-57 -54.5t-21 -77q0 -42 21 -76.5t57 -55t79 -20.5t78.5 20.5t56.5 55t21 76.5t-21 76.5t-56.5 55t-78.5 20.5zM280 659q66 0 119.5 -30t85.5 -81t32 -114q0 -56 -19.5 -102.5t-49 -87.5t-60 -79.5t-54 -78.5t-30.5 -86h-82q5 46 24 84
t44.5 71.5t51 64t46 61t27.5 63.5l28 -10q-19 -59 -65 -93t-105 -34q-64 0 -116.5 30t-83.5 80.5t-31 113.5q0 64 32 115.5t86 82t120 30.5z" />
    <glyph glyph-name="colon" unicode=":" horiz-adv-x="192" 
d="M96 -9q-22 0 -36.5 14t-14.5 36t14.5 36t36.5 14q23 0 37 -14t14 -36t-14 -36t-37 -14zM96 342q-22 0 -36.5 14t-14.5 36t14.5 36t36.5 14q23 0 37 -14t14 -36t-14 -36t-37 -14z" />
    <glyph glyph-name="semicolon" unicode=";" horiz-adv-x="192" 
d="M38 -126q20 49 32.5 85.5t17.5 66.5l33 -26q-3 -4 -10 -6.5t-15 -2.5q-22 0 -36.5 14t-14.5 36t14.5 36t36.5 14q23 0 37 -14.5t14 -37.5t-15 -67.5t-39 -97.5h-55zM96 342q-22 0 -36.5 14t-14.5 36t14.5 36t36.5 14q23 0 37 -14t14 -36t-14 -36t-37 -14z" />
    <glyph glyph-name="less" unicode="&#x3c;" horiz-adv-x="480" 
d="M60 285v85l350 162v-75l-311 -139v20l311 -139v-76z" />
    <glyph glyph-name="equal" unicode="=" horiz-adv-x="480" 
d="M50 239h380v-64h-380v64zM50 460h380v-63h-380v63z" />
    <glyph glyph-name="greater" unicode="&#x3e;" horiz-adv-x="480" 
d="M420 371v-85l-350 -162v75l311 139v-20l-311 139v76z" />
    <glyph glyph-name="question" unicode="?" horiz-adv-x="511" 
d="M260 -9q-22 0 -36.5 14t-14.5 36t14.5 36t36.5 14q23 0 37 -14t14 -36t-14 -36t-37 -14zM225 186l-1 132h29q41 0 73.5 18t52 48.5t19.5 68.5t-19.5 68.5t-52 48.5t-73.5 18q-42 0 -74.5 -18.5t-51.5 -50.5t-19 -74h-78q0 63 28.5 111.5t79 75.5t115.5 27
q64 0 114.5 -26.5t79.5 -73t29 -106.5q0 -59 -28 -104.5t-78 -70.5t-117 -25l45 38l-3 -105h-70z" />
    <glyph glyph-name="at" unicode="@" horiz-adv-x="791" 
d="M506 -193h-99q-79 0 -146.5 26.5t-118 74t-78.5 111.5t-28 138q0 77 28 143t78.5 115.5t118 77t146.5 27.5q75 0 139.5 -25t112.5 -70t75 -104.5t27 -129.5q0 -91 -42 -145.5t-113 -54.5q-59 0 -97 39t-38 99v162l16 -30h-77q-48 0 -78 -28.5t-30 -74.5q0 -43 24.5 -70
t62.5 -27q29 0 53 11.5t50 37.5l23 -53q-53 -66 -133 -66q-45 0 -80.5 21.5t-56 59t-20.5 85.5q0 52 23.5 91t65.5 61t96 22h136v-202q0 -32 17 -50t47 -18q38 0 57.5 33.5t19.5 96.5q0 74 -37 132.5t-100 93t-143 34.5q-63 0 -117 -22.5t-94.5 -62.5t-63 -93.5
t-22.5 -115.5q0 -59 22.5 -110t63 -89.5t94.5 -60t117 -21.5h99v-69z" />
    <glyph glyph-name="A" unicode="A" 
d="M66 0v446q0 63 26.5 111t74.5 75t110 27q63 0 110.5 -27t74 -75t26.5 -111v-446h-80v21q0 99 -59.5 159t-172.5 60h-60v75h40q125 0 199.5 -46.5t92.5 -126.5h-40v304q0 40 -17 70t-46.5 47.5t-67.5 17.5t-68 -17.5t-46.5 -47.5t-16.5 -70v-446h-80z" />
    <glyph glyph-name="B" unicode="B" horiz-adv-x="553" 
d="M155 575v-73q0 -33 12.5 -57t36.5 -37t56 -13q41 0 69 26t28 63q0 41 -29 66t-78 25h-95zM75 0v650h175q55 0 96.5 -19.5t65 -54.5t23.5 -81q0 -49 -24.5 -86.5t-69.5 -57.5l-1 23q54 -10 92.5 -34.5t59.5 -61t21 -81.5q0 -57 -29 -101.5t-80 -70t-117 -25.5h-212z
M155 75h132q42 1 74.5 16.5t51 43t18.5 62.5q0 36 -18.5 61t-56 40.5t-96.5 21.5q-35 4 -61 14t-44 27v-286z" />
    <glyph glyph-name="C" unicode="C" horiz-adv-x="747" 
d="M629 272h83q-12 -80 -59 -143.5t-118 -100.5t-156 -37q-70 0 -131 25.5t-107.5 71.5t-72.5 106.5t-26 130.5t26 130.5t72.5 106.5t107.5 71.5t131 25.5q80 0 148.5 -33.5t115.5 -91.5t64 -132h-84q-16 53 -51.5 94t-85 64.5t-107.5 23.5q-53 0 -99 -20t-81 -55.5
t-55 -82.5t-20 -101t20 -101t55 -82.5t81 -55.5t99 -20q62 0 114 27t88 74t48 105z" />
    <glyph glyph-name="D" unicode="D" horiz-adv-x="551" 
d="M75 0v650h80q105 0 184.5 -42t124.5 -115t45 -168q0 -94 -45 -167.5t-124.5 -115.5t-184.5 -42h-80zM155 33l-31 42h48q74 0 131.5 33t90.5 89.5t33 127.5t-33 127.5t-90.5 89.5t-131.5 33h-48l31 41v-583z" />
    <glyph glyph-name="E" unicode="E" horiz-adv-x="460" 
d="M75 0v650h343v-75h-300l37 35v-426l-58 -97q0 87 33.5 150t95.5 97t147 34h15v-75h-15q-100 0 -159 -55.5t-59 -150.5v-47l-53 35h316v-75h-343z" />
    <glyph glyph-name="F" unicode="F" horiz-adv-x="449" 
d="M75 0v650h339v-75h-306l47 45v-426l-58 -97q0 87 33.5 150t95.5 97t147 34h15v-75h-15q-100 0 -159 -55.5t-59 -150.5v-97h-80z" />
    <glyph glyph-name="G" unicode="G" horiz-adv-x="766" 
d="M684 246q-18 -77 -61.5 -134.5t-106 -89t-137.5 -31.5q-70 0 -131 25.5t-107.5 71.5t-72.5 106.5t-26 130.5t26 130.5t72.5 106.5t107.5 71.5t131 25.5q80 0 148 -32.5t115.5 -90.5t64.5 -134h-85q-16 55 -52.5 95.5t-85.5 63.5t-105 23q-53 0 -99 -20t-81 -55.5
t-55 -82.5t-20 -101t20 -101t55 -82.5t81 -55.5t99 -20q62 0 114 26.5t88 73t48 106.5h82v-272h-76v246h49z" />
    <glyph glyph-name="H" unicode="H" horiz-adv-x="580" 
d="M75 0v650h80v-488h-40q15 69 59.5 119t112.5 77t153 27h40v-75h-60q-80 0 -139.5 -35t-92.5 -97.5t-33 -146.5v-31h-80zM505 0h-80v650h80v-650z" />
    <glyph glyph-name="I" unicode="I" horiz-adv-x="230" 
d="M155 0h-80v650h80v-650z" />
    <glyph glyph-name="J" unicode="J" horiz-adv-x="323" 
d="M177 608l39 -33h-180v75h221v-463q0 -88 -52 -137.5t-145 -49.5h-24v75h24q56 0 86.5 28.5t30.5 83.5v421z" />
    <glyph glyph-name="K" unicode="K" horiz-adv-x="555" 
d="M75 0v650h80v-474l-57 -16l319 490h90l-248 -381l-55 -3q20 14 45 22t47 8q66 0 116 -27t77.5 -75t27.5 -112v-82h-80v77q0 42 -18 74.5t-49.5 51t-73.5 18.5q-41 0 -73 -18.5t-50 -51t-18 -74.5v-77h-80z" />
    <glyph glyph-name="L" unicode="L" horiz-adv-x="428" 
d="M395 0h-320v650h80v-575h240v-75z" />
    <glyph glyph-name="M" unicode="M" horiz-adv-x="778" 
d="M75 0v650h43q78 0 140.5 -27t103.5 -75.5t53 -115.5h-52q13 67 53.5 115.5t103 75.5t140.5 27h43v-650h-80v582l23 -12h-26q-58 0 -101 -25.5t-66.5 -72.5t-23.5 -110v-162h-80v162q0 63 -23.5 110t-66.5 72.5t-101 25.5h-26l23 12v-582h-80z" />
    <glyph glyph-name="N" unicode="N" horiz-adv-x="580" 
d="M75 0v650h75q58 -136 129 -243.5t166 -199.5l-20 -10v453h80v-650h-80v149l15 -40q-60 54 -114.5 115t-100.5 127.5t-81 134.5h11v-486h-80z" />
    <glyph glyph-name="O" unicode="O" horiz-adv-x="758" 
d="M124 325q0 -54 20 -101t55 -82.5t81 -55.5t99 -20t99 20t81 55.5t55 82.5t20 101t-20 101t-55 82.5t-81 55.5t-99 20t-99 -20t-81 -55.5t-55 -82.5t-20 -101zM42 325q0 70 26 130.5t72.5 106.5t107.5 71.5t131 25.5t131 -25.5t107.5 -71.5t72.5 -106.5t26 -130.5
t-26 -130.5t-72.5 -106.5t-107.5 -71.5t-131 -25.5t-131 25.5t-107.5 71.5t-72.5 106.5t-26 130.5z" />
    <glyph glyph-name="P" unicode="P" horiz-adv-x="529" 
d="M75 0v650h190q70 0 122.5 -25t82 -69.5t29.5 -104.5q0 -57 -18.5 -95t-49.5 -63t-67.5 -42.5t-73 -34.5t-67.5 -38t-49.5 -53.5t-18.5 -81.5v-43h-80zM155 215q24 23 52.5 39.5t57.5 30t56.5 27.5t49 31.5t34 42.5t12.5 61q0 59 -40.5 93.5t-108.5 34.5h-113v-360z" />
    <glyph glyph-name="Q" unicode="Q" horiz-adv-x="770" 
d="M680 0v17q0 48 -19.5 85t-54 58.5t-79.5 21.5q-44 0 -79 -21t-54.5 -57.5t-19.5 -85.5h-77q0 68 30 121t82 84t118 31q68 0 120.5 -30.5t82.5 -83.5t30 -123v-17h-80zM379 66q53 0 99 20t81 55.5t55 82.5t20 101t-20 101t-55 82.5t-81 55.5t-99 20t-99 -20t-81 -55.5
t-55 -82.5t-20 -101t20 -101t55 -82.5t81 -55.5t99 -20zM379 -9q-70 0 -131 25.5t-107.5 71.5t-72.5 106.5t-26 130.5t26 130.5t72.5 106.5t107.5 71.5t131 25.5t131 -25.5t107.5 -71.5t72.5 -106.5t26 -130.5q0 -52 -15 -100t-44 -90l-5 -7q-48 -65 -119.5 -101t-153.5 -36
z" />
    <glyph glyph-name="R" unicode="R" horiz-adv-x="562" 
d="M75 0v650h190q70 0 122.5 -25t82 -69.5t29.5 -104.5q0 -40 -10.5 -70.5t-29 -53t-42 -39.5t-49.5 -31q47 -12 80.5 -41t52 -70.5t18.5 -93.5v-52h-80v47q0 44 -18 77.5t-50 52.5t-74 19t-74 -19t-50 -52.5t-18 -77.5v-47h-80zM155 575v-357q24 22 52.5 38t57.5 29.5
t56.5 27.5t49 32t34 42.5t12.5 59.5q0 59 -40.5 93.5t-108.5 34.5h-113z" />
    <glyph glyph-name="S" unicode="S" horiz-adv-x="490" 
d="M248 -9q-57 0 -105.5 23.5t-77.5 67.5t-29 108h80q0 -36 17 -64t47 -44t68 -16q54 0 88 29.5t34 76.5q0 34 -17 56t-45.5 37.5t-62.5 28t-68 27.5t-62.5 36t-45.5 52.5t-17 79.5q0 47 25.5 85.5t68.5 61.5t95 23q58 0 102 -23.5t69 -65t25 -96.5h-80q0 49 -32.5 79.5
t-83.5 30.5q-29 0 -53.5 -12.5t-39 -34t-14.5 -48.5q0 -33 17 -54t45.5 -36.5t62.5 -28t68 -27.5t62.5 -37t45.5 -54t17 -80q0 -52 -26.5 -93t-72.5 -64.5t-105 -23.5z" />
    <glyph glyph-name="T" unicode="T" horiz-adv-x="462" 
d="M191 0v613l30 -29q-53 0 -105.5 -4t-90.5 -9v75q39 5 94.5 9t111.5 4t111.5 -4t94.5 -9v-75q-25 3 -57 6t-67.5 5t-71.5 2l30 29v-613h-80z" />
    <glyph glyph-name="U" unicode="U" horiz-adv-x="553" 
d="M277 69q38 0 67 16.5t46 45.5t17 66v453h80v-453q0 -61 -26.5 -107.5t-73.5 -72.5t-110 -26t-110.5 26t-74 72.5t-26.5 107.5v453h80v-453q0 -37 17 -66t46.5 -45.5t67.5 -16.5z" />
    <glyph glyph-name="V" unicode="V" horiz-adv-x="556" 
d="M129 0h-54v650h80v-584l-12 14q83 0 134 21t78 69t36 130l42 350h83l-42 -350q-13 -106 -52.5 -172t-111.5 -97t-181 -31z" />
    <glyph glyph-name="W" unicode="W" horiz-adv-x="831" 
d="M75 0v650h80v-584l-11 13q113 0 173.5 61.5t60.5 174.5v335h80v-584l-19 13q76 0 123 21t72.5 69.5t34.5 130.5l40 350h82l-40 -350q-12 -109 -50 -175t-105.5 -95.5t-170.5 -29.5h-47v206l65 106q0 -147 -81.5 -229.5t-228.5 -82.5h-58z" />
    <glyph glyph-name="X" unicode="X" horiz-adv-x="495" 
d="M486 0h-95l-153 326l-53 -7l-163 331h89l148 -299l53 6zM9 0l172 357l55 -6l151 299h86l-165 -331l-52 7l-155 -326h-92z" />
    <glyph glyph-name="Y" unicode="Y" horiz-adv-x="507" 
d="M227 0l180 650h80l-175 -650h-85zM35 458q0 41 7 84t24 108h79q-18 -67 -25 -109t-7 -83q0 -94 51.5 -144.5t145.5 -50.5h24v-75h-24q-87 0 -148.5 32t-94 92.5t-32.5 145.5z" />
    <glyph glyph-name="Z" unicode="Z" horiz-adv-x="466" 
d="M436 0h-401l308 634v-59h-308v75h401l-307 -634v59h307v-75z" />
    <glyph glyph-name="bracketleft" unicode="[" horiz-adv-x="321" 
d="M75 -168v830h226v-66h-147v-698h147v-66h-226z" />
    <glyph glyph-name="backslash" unicode="\" horiz-adv-x="306" 
d="M281 -150h-80l-176 800h80z" />
    <glyph glyph-name="bracketright" unicode="]" horiz-adv-x="321" 
d="M246 -168h-226v66h147v698h-147v66h226v-830z" />
    <glyph glyph-name="asciicircum" unicode="^" horiz-adv-x="525" 
d="M252 460h20l-142 -300h-77l169 350h81l169 -350h-79z" />
    <glyph glyph-name="underscore" unicode="_" horiz-adv-x="500" 
d="M40 -59h420v-70h-420v70z" />
    <glyph glyph-name="grave" unicode="`" horiz-adv-x="520" 
d="M293 536h-70l-91 158h86z" />
    <glyph glyph-name="a" unicode="a" horiz-adv-x="495" 
d="M227 -9q-55 0 -97.5 19.5t-66 54t-23.5 79.5t24 79.5t66 54t97 19.5q83 0 132.5 -41t49.5 -110q0 -70 -49.5 -112.5t-132.5 -42.5zM237 57q55 0 87.5 24.5t32.5 64.5t-32 62.5t-88 22.5q-55 0 -87 -23t-32 -64q0 -40 32 -63.5t87 -23.5zM435 0h-73v105h-5v194
q0 53 -29 83t-80 30q-39 0 -65.5 -18t-37.5 -52h-80q9 42 34.5 73.5t63.5 49t84 17.5q87 0 137.5 -50.5t50.5 -136.5v-295z" />
    <glyph glyph-name="b" unicode="b" horiz-adv-x="539" 
d="M62 0v650h78v-600l-18 20h108q57 0 100 22.5t67 63t24 93.5q0 52 -21 88t-56 55t-78 19t-79.5 -20t-68.5 -64l-45 30q36 62 87.5 93.5t116.5 31.5q62 0 112.5 -29.5t80 -82t29.5 -121.5q0 -73 -34.5 -129.5t-95 -88t-139.5 -31.5h-168z" />
    <glyph glyph-name="c" unicode="c" horiz-adv-x="564" 
d="M452 188h77q-12 -58 -46.5 -102.5t-84.5 -69.5t-110 -25q-69 0 -125.5 32.5t-89.5 88t-33 124.5t33 125t89.5 88.5t125.5 32.5q59 0 108 -23.5t83.5 -66t47.5 -99.5h-78q-19 53 -62 85.5t-99 32.5q-47 0 -85.5 -23t-61.5 -62.5t-23 -89.5q0 -49 23 -88.5t61.5 -62.5
t85.5 -23q39 0 72.5 16t57.5 44.5t34 65.5z" />
    <glyph glyph-name="d" unicode="d" horiz-adv-x="539" 
d="M477 0h-168q-79 0 -140 31t-95 87t-34 129q0 68 29 121t79.5 83.5t115.5 30.5q62 0 114.5 -27.5t82.5 -74.5l-40 -38q-26 31 -67 50t-80 19q-46 0 -81 -21t-55 -58.5t-20 -86.5q0 -51 23.5 -90.5t66 -62t97.5 -22.5h112l-18 -20v600h78v-650z" />
    <glyph glyph-name="e" unicode="e" horiz-adv-x="558" 
d="M283 -9q-67 0 -122.5 32.5t-88 88.5t-32.5 124q0 67 32.5 123t88 89.5t122.5 33.5t120.5 -29.5t85 -81.5t31.5 -120v-27h-434v64h380l-23 -38v13q0 45 -21.5 78.5t-57.5 52.5t-81 19q-43 0 -81 -22t-61 -59t-23 -83v-21q0 -48 23.5 -86t61 -59.5t80.5 -21.5q51 0 91.5 21
t66.5 65h77q-18 -48 -52.5 -83t-81 -54t-101.5 -19z" />
    <glyph glyph-name="f" unicode="f" horiz-adv-x="329" 
d="M62 0v495q0 74 42.5 114.5t118.5 40.5h81v-70h-81q-41 0 -62.5 -21.5t-21.5 -63.5v-164l-45 -107q0 103 46.5 155.5t135.5 52.5h17v-71h-17q-69 0 -103 -35.5t-34 -106.5v-219h-77z" />
    <glyph glyph-name="g" unicode="g" horiz-adv-x="502" 
d="M238 88q-60 0 -108 25.5t-75.5 70.5t-27.5 101t28 100.5t76.5 70.5t108.5 26q65 0 117 -28v-21q46 -21 70 -60t24 -88q0 -56 -29 -101t-77 -70.5t-107 -25.5zM376 285q0 38 -18 68t-48.5 47t-69.5 17q-38 0 -69 -17t-49 -47t-18 -68q0 -37 18 -67t49 -47.5t69 -17.5
t69 18t49 48t18 66zM51 -150v73h244q44 0 70 22.5t26 60.5t-26 60t-70 22h-57v54h57q53 0 92.5 -18t61.5 -50.5t22 -75.5t-20.5 -76.5t-60 -52.5t-95.5 -19h-244zM295 415l-6 58h201v-65z" />
    <glyph glyph-name="h" unicode="h" horiz-adv-x="508" 
d="M62 0v650h78v-267l-55 -104q0 92 50.5 147.5t134.5 55.5q81 0 129.5 -51.5t48.5 -138.5v-292h-78v289q0 56 -31 89.5t-84 33.5q-52 0 -83.5 -33.5t-31.5 -89.5v-289h-78z" />
    <glyph glyph-name="i" unicode="i" horiz-adv-x="202" 
d="M62 473h78v-473h-78v473zM101 552q-22 0 -36.5 14t-14.5 36t14.5 36t36.5 14q23 0 37 -14t14 -36t-14 -36t-37 -14z" />
    <glyph glyph-name="j" unicode="j" horiz-adv-x="202" 
d="M62 473h78v-488q0 -67 -36.5 -101t-107.5 -34h-13v70h13q35 0 50.5 15.5t15.5 49.5v488zM101 552q-22 0 -36.5 14t-14.5 36t14.5 36t36.5 14q23 0 37 -14t14 -36t-14 -36t-37 -14z" />
    <glyph glyph-name="k" unicode="k" horiz-adv-x="504" 
d="M62 0v650h78v-457l-59 -122q0 38 4 64.5t14.5 46.5t28.5 41l223 250h93l-215 -241h-50q16 14 40.5 22.5t43.5 8.5q94 0 147.5 -51.5t53.5 -141.5v-70h-78v70q0 59 -33 92t-90 33t-90 -33t-33 -91v-71h-78z" />
    <glyph glyph-name="l" unicode="l" horiz-adv-x="239" 
d="M214 0h-15q-72 0 -108 35t-36 105v510h78v-508q0 -37 16.5 -54.5t51.5 -17.5h13v-70z" />
    <glyph glyph-name="m" unicode="m" horiz-adv-x="776" 
d="M62 0v473h73v-124l-50 -70q0 92 48 147.5t127 55.5q76 0 121.5 -51.5t45.5 -138.5l-62 -13q0 65 21.5 110t60.5 69t91 24q81 0 129.5 -51.5t48.5 -138.5v-292h-78v289q0 56 -28.5 89.5t-76.5 33.5t-76.5 -33.5t-28.5 -89.5v-289h-78v289q0 56 -28.5 89.5t-76.5 33.5
t-76.5 -33.5t-28.5 -89.5v-289h-78z" />
    <glyph glyph-name="n" unicode="n" horiz-adv-x="508" 
d="M135 349l-50 -70q0 92 50.5 147.5t134.5 55.5q81 0 129.5 -51.5t48.5 -138.5v-292h-78v289q0 56 -31 89.5t-84 33.5q-52 0 -83.5 -33.5t-31.5 -89.5v-289h-78v473h73v-124z" />
    <glyph glyph-name="o" unicode="o" horiz-adv-x="580" 
d="M290 -9q-70 0 -127 32.5t-90 88t-33 124.5t33 125t90 88.5t127 32.5q71 0 127.5 -32.5t89.5 -88.5t33 -125q0 -68 -33 -124t-89.5 -88.5t-127.5 -32.5zM290 411q-48 0 -87 -23.5t-62 -63.5t-23 -88t23 -87.5t62 -63t87 -23.5t87 23.5t62 63t23 87.5t-23 88t-62 63.5
t-87 23.5z" />
    <glyph glyph-name="p" unicode="p" horiz-adv-x="539" 
d="M62 -150v623h168q79 0 139.5 -31.5t95 -87.5t34.5 -130q0 -69 -29.5 -121.5t-80 -82t-112.5 -29.5q-65 0 -116.5 31.5t-87.5 93.5l45 30q32 -43 68.5 -63.5t79.5 -20.5t78 19t56 55t21 88q0 53 -24 93.5t-67 63t-100 22.5h-108l18 20v-573h-78z" />
    <glyph glyph-name="q" unicode="q" horiz-adv-x="539" 
d="M477 -150h-78v583l18 -30h-108q-57 0 -100 -22.5t-67 -63t-24 -93.5q0 -52 21 -88t56 -55t78 -19q44 0 80.5 20.5t67.5 63.5l45 -30q-36 -62 -87.5 -93.5t-116.5 -31.5q-62 0 -112.5 29.5t-80 82t-29.5 121.5q0 74 34.5 130t95.5 87.5t139 31.5h168v-623z" />
    <glyph glyph-name="r" unicode="r" horiz-adv-x="325" 
d="M62 0v473h72v-124l-39 -69q0 97 48.5 149.5t137.5 52.5h12v-75h-23q-65 0 -97.5 -33t-32.5 -100v-274h-78z" />
    <glyph glyph-name="s" unicode="s" horiz-adv-x="413" 
d="M47 0v70h173q39 0 60 17t21 47q0 27 -19 41.5t-48.5 23t-63 17t-63 23t-48.5 40t-19 69.5q0 54 39 89.5t106 35.5h170v-70h-170q-34 0 -51 -14.5t-17 -38.5q0 -25 19 -39t48.5 -23t63 -17.5t63 -23.5t48.5 -41.5t19 -71.5q0 -59 -41.5 -96.5t-113.5 -37.5h-176z" />
    <glyph glyph-name="t" unicode="t" horiz-adv-x="325" 
d="M285 403h-174v70h174v-70zM217 0q-80 0 -121 40t-41 119v426l77 20v-446q0 -46 21.5 -67.5t65.5 -21.5h68v-70h-70z" />
    <glyph glyph-name="u" unicode="u" horiz-adv-x="496" 
d="M60 473h78v-291q0 -55 29.5 -87.5t80.5 -32.5t80.5 32.5t29.5 87.5v291h78v-286q0 -92 -51 -144t-137 -52t-137 52t-51 144v286z" />
    <glyph glyph-name="v" unicode="v" horiz-adv-x="484" 
d="M62 0v473h78v-398h37q78 0 116 34.5t48 113.5l30 250h78l-30 -250q-14 -117 -71 -170t-168 -53h-118z" />
    <glyph glyph-name="w" unicode="w" horiz-adv-x="746" 
d="M62 0v473h78v-398h33q77 0 122 42q45 44 45 126v230h77v-398h22q79 0 116.5 34t47.5 114l30 250h78l-30 -250q-14 -117 -71 -170t-168 -53h-95v70q-19 -29 -53 -45q-26 -13 -60 -19t-81 -6h-91z" />
    <glyph glyph-name="x" unicode="x" horiz-adv-x="449" 
d="M14 0l151 263l47 -5l127 215h85l-144 -241l-45 8l-133 -240h-88zM435 0h-89l-136 240l-42 -8l-142 241h84l127 -215l45 5z" />
    <glyph glyph-name="y" unicode="y" horiz-adv-x="494" 
d="M45 251q0 52 7.5 106.5t23.5 115.5h79q-18 -76 -25 -125.5t-7 -96.5q0 -88 47 -135.5t126 -47.5h14v-73h-14q-74 0 -131 30t-88.5 87.5t-31.5 138.5zM214 -150l175 623h80l-172 -623h-83z" />
    <glyph glyph-name="z" unicode="z" horiz-adv-x="412" 
d="M377 0h-347l258 459l7 -56h-264v70h349l-257 -459l-3 56h257v-70z" />
    <glyph glyph-name="braceleft" unicode="{" horiz-adv-x="378" 
d="M358 -168h-58q-82 0 -125 42.5t-43 122.5v151q0 65 -62 65h-45v69h45q62 0 62 65v151q0 80 43 122t125 42h58v-66h-47q-100 0 -100 -98v-140q0 -46 -21 -75.5t-65 -40.5v11q44 -10 65 -40t21 -76v-140q0 -99 100 -99h47v-66z" />
    <glyph glyph-name="bar" unicode="|" horiz-adv-x="230" 
d="M75 650h80v-800h-80v800z" />
    <glyph glyph-name="braceright" unicode="}" horiz-adv-x="378" 
d="M20 -168v66h47q100 0 100 99v140q0 46 21.5 76t64.5 40v-11q-43 11 -64.5 40.5t-21.5 75.5v140q0 98 -100 98h-47v66h58q82 0 125 -42t43 -122v-151q0 -65 62 -65h45v-69h-45q-62 0 -62 -65v-151q0 -80 -43 -122.5t-125 -42.5h-58z" />
    <glyph glyph-name="asciitilde" unicode="~" horiz-adv-x="480" 
d="M345 330q45 0 85 20v-64q-19 -9 -40.5 -14.5t-44.5 -5.5q-39 0 -74.5 10t-69 20t-66.5 10q-24 0 -45 -5.5t-40 -14.5v64q19 9 40 14.5t45 5.5q39 0 74 -10t68.5 -20t67.5 -10z" />
    <glyph glyph-name="uni00A0" unicode="&#xa0;" horiz-adv-x="214" 
 />
    <glyph glyph-name="exclamdown" unicode="&#xa1;" horiz-adv-x="212" 
d="M146 -177h-80l5 464h70zM106 482q23 0 37 -14t14 -36t-14 -36t-37 -14q-22 0 -36.5 14t-14.5 36t14.5 36t36.5 14z" />
    <glyph glyph-name="cent" unicode="&#xa2;" horiz-adv-x="565" 
d="M249 99h78v-99h-78v99zM249 650h78v-104h-78v104zM452 274h77q-12 -58 -46.5 -102.5t-84.5 -69.5t-110 -25q-69 0 -125.5 32.5t-89.5 88t-33 124.5t33 125t89.5 88.5t125.5 32.5q59 0 108 -23.5t83.5 -66t47.5 -99.5h-78q-19 53 -62 85.5t-99 32.5q-47 0 -85.5 -23
t-61.5 -62.5t-23 -89.5q0 -49 23 -88.5t61.5 -62.5t85.5 -23q39 0 72.5 16t57.5 44.5t34 65.5z" />
    <glyph glyph-name="sterling" unicode="&#xa3;" horiz-adv-x="482" 
d="M25 0v75h5q41 0 60 17t19 54v317q0 91 50.5 139t134.5 48h136v-75h-136q-46 0 -75.5 -26.5t-29.5 -85.5v-306q0 -49 -27.5 -76.5t-82.5 -32.5l6 27h362v-75h-422zM24 246v72h384v-72h-384z" />
    <glyph glyph-name="currency" unicode="&#xa4;" horiz-adv-x="609" 
d="M28 544l57 58l119 -120l-57 -57zM581 544l-119 -119l-58 57l119 120zM28 104l119 119l57 -58l-119 -119zM581 104l-58 -58l-119 119l58 58zM304 101q-63 0 -115 30t-83 80.5t-31 112.5q0 63 31 113.5t83 80t115 29.5q64 0 116 -29.5t83 -80t31 -113.5q0 -62 -31 -112.5
t-83 -80.5t-116 -30zM304 171q43 0 77.5 21t55 55.5t20.5 76.5t-20.5 77t-55 55.5t-77.5 20.5q-42 0 -76.5 -20.5t-55 -55.5t-20.5 -77t20.5 -76.5t55 -55.5t76.5 -21z" />
    <glyph glyph-name="yen" unicode="&#xa5;" horiz-adv-x="504" 
d="M242 391l150 259h87l-182 -301h-92l-180 301h89l149 -259h-21zM291 0h-80v377h80v-377zM60 397h383v-68h-383v68zM60 247h383v-68h-383v68z" />
    <glyph glyph-name="brokenbar" unicode="&#xa6;" horiz-adv-x="230" 
d="M75 223h80v-373h-80v373zM75 650h80v-373h-80v373z" />
    <glyph glyph-name="section" unicode="&#xa7;" horiz-adv-x="483" 
d="M66 -150v75h197q32 0 50.5 12.5t18.5 34.5q0 23 -21.5 37.5t-55.5 26.5t-71.5 26t-71.5 36.5t-55.5 57.5t-21.5 89q0 47 26 89t71.5 68.5t103.5 26.5q16 0 28.5 -2t24.5 -5l-69 -30q-81 29 -112 60.5t-31 75.5q0 36 18.5 63.5t52 43t78.5 15.5h169v-75h-169
q-32 0 -50.5 -12.5t-18.5 -35.5q0 -24 21 -39.5t54 -28t70.5 -27t70.5 -36.5t54 -56.5t21 -88.5q0 -47 -26 -89.5t-71.5 -68.5t-104.5 -26q-13 0 -26 3.5t-23 8.5l65 28q83 -27 116.5 -58.5t33.5 -76.5q0 -36 -18.5 -63.5t-51.5 -43t-79 -15.5h-197zM245 122q34 0 62.5 17.5
t45.5 47t17 64.5q0 37 -18.5 64.5t-48.5 43t-65 15.5q-34 0 -62.5 -17.5t-45.5 -47t-17 -64.5q0 -36 18.5 -64t48.5 -43.5t65 -15.5z" />
    <glyph glyph-name="dieresis" unicode="&#xa8;" horiz-adv-x="520" 
d="M171 559q-22 0 -36.5 14t-14.5 36t14.5 36t36.5 14q23 0 37 -14t14 -36t-14 -36t-37 -14zM349 559q-22 0 -36.5 14t-14.5 36t14.5 36t36.5 14q23 0 37 -14t14 -36t-14 -36t-37 -14z" />
    <glyph glyph-name="copyright" unicode="&#xa9;" horiz-adv-x="769" 
d="M384 -9q-72 0 -134 25.5t-108.5 71.5t-73 106.5t-26.5 130.5t26.5 130.5t73 106.5t108.5 71.5t134 25.5t134 -25.5t109 -71.5t73.5 -106.5t26.5 -130.5t-26.5 -130.5t-73.5 -106.5t-109 -71.5t-134 -25.5zM384 60q56 0 104.5 20.5t85.5 57t58 84.5t21 103t-21 103
t-58 84.5t-85.5 57t-104.5 20.5q-55 0 -104 -20.5t-85.5 -57t-57.5 -84.5t-21 -103t21 -103t57.5 -84.5t85.5 -57t104 -20.5zM387 160q-47 0 -85.5 22.5t-61 60.5t-22.5 85t22.5 85.5t61 61t85.5 22.5q59 0 104.5 -35t61.5 -93h-72q-12 30 -37 47t-57 17q-27 0 -50.5 -14
t-37.5 -38t-14 -53q0 -28 14 -52t37.5 -38t50.5 -14q33 0 59.5 18t36.5 49h71q-14 -60 -59.5 -95.5t-107.5 -35.5z" />
    <glyph glyph-name="ordfeminine" unicode="&#xaa;" horiz-adv-x="393" 
d="M175 261q-46 0 -79.5 15.5t-52 42.5t-18.5 62q0 53 41 87.5t109 34.5q64 0 103 -32.5t39 -86.5q0 -58 -39.5 -90.5t-102.5 -32.5zM183 319q39 0 63 17t24 47q0 29 -24 45.5t-63 16.5t-62.5 -16.5t-23.5 -47.5q0 -28 24 -45t62 -17zM188 591q-31 0 -51.5 -14.5
t-28.5 -38.5h-72q8 35 29.5 61.5t53 41t69.5 14.5q47 0 82 -18t54 -52t19 -82v-235h-63v85h-10v154q0 26 -9.5 45t-28 29t-44.5 10z" />
    <glyph glyph-name="guillemotleft" unicode="&#xab;" horiz-adv-x="481" 
d="M305 280l146 -231h-87l-125 196l125 196h84l-146 -231zM91 280l146 -231h-87l-125 196l125 196h84l-146 -231z" />
    <glyph glyph-name="logicalnot" unicode="&#xac;" horiz-adv-x="480" 
d="M50 350h380v-222h-65v158h-315v64z" />
    <glyph glyph-name="uni00AD" unicode="&#xad;" horiz-adv-x="0" 
 />
    <glyph glyph-name="registered" unicode="&#xae;" horiz-adv-x="488" 
d="M241 232q-61 0 -110 28t-77.5 76t-28.5 109q0 62 28.5 110t77.5 76t110 28q62 0 112.5 -28t80 -76t29.5 -110q0 -61 -29.5 -109t-80 -76t-112.5 -28zM241 609q-47 0 -83.5 -21t-57 -58t-20.5 -85q0 -47 20.5 -84t57 -58t83.5 -21q49 0 86.5 21t59 58t21.5 84
q0 48 -21.5 85t-59 58t-86.5 21zM171 557h86q38 0 57.5 -18.5t19.5 -44.5q0 -25 -12 -40t-29 -25t-34.5 -19t-29.5 -20.5t-12 -31.5l-29 7q0 25 10 40.5t25 25t29.5 17t24.5 17t10 25.5q0 11 -8 17.5t-22 6.5h-49l10 8v-127l-25 -33q0 32 18 52t45 20q38 0 60.5 -21.5
t22.5 -54.5v-15h-47v16q0 17 -10 27t-27 10q-16 0 -26.5 -9.5t-10.5 -24.5v-19h-47v214z" />
    <glyph glyph-name="macron" unicode="&#xaf;" horiz-adv-x="520" 
d="M135 639h250v-70h-250v70z" />
    <glyph glyph-name="degree" unicode="&#xb0;" horiz-adv-x="338" 
d="M169 397q-37 0 -67.5 17.5t-48.5 47.5t-18 66q0 37 18 66.5t48.5 47t67.5 17.5q38 0 68 -17.5t48 -47t18 -66.5q0 -36 -18 -66t-48 -47.5t-68 -17.5zM169 594q-18 0 -33 -9t-24 -24t-9 -33t9 -33t24 -24t33 -9q27 0 46.5 19.5t19.5 46.5t-19.5 46.5t-46.5 19.5z" />
    <glyph glyph-name="plusminus" unicode="&#xb1;" horiz-adv-x="480" 
d="M50 384h380v-64h-380v64zM272 542v-380h-64v380h64zM50 64h380v-64h-380v64z" />
    <glyph glyph-name="twosuperior" unicode="&#xb2;" horiz-adv-x="325" 
d="M161 655q37 0 66 -16t46 -43t17 -61q0 -28 -10.5 -53t-38.5 -57l-131 -155l-5 68h190v-70h-275l158 186q24 28 32.5 45.5t8.5 33.5q0 23 -17 39.5t-41 16.5t-41 -16.5t-17 -39.5q0 -29 24 -50l-43 -50q-52 43 -52 102q0 34 17 61t46 43t66 16z" />
    <glyph glyph-name="threesuperior" unicode="&#xb3;" horiz-adv-x="331" 
d="M167 263q-42 0 -75 18.5t-52.5 51t-19.5 74.5h73q0 -22 9.5 -39.5t26 -27t38.5 -9.5q32 0 51.5 18t19.5 44q0 15 -8.5 27.5t-23.5 19.5t-37 7h-25v70h25q43 0 75 -16t49.5 -44t17.5 -64q0 -37 -19 -66.5t-51.5 -46.5t-73.5 -17zM235 465l-52 31q26 24 26 51
q0 17 -13 28.5t-33 11.5t-33.5 -13t-13.5 -32h-73q0 49 33 81t87 32q51 0 85 -29.5t34 -74.5q0 -25 -12 -47t-35 -39z" />
    <glyph glyph-name="acute" unicode="&#xb4;" horiz-adv-x="520" 
d="M223 536l70 158h86l-86 -158h-70z" />
    <glyph glyph-name="paragraph" unicode="&#xb6;" horiz-adv-x="610" 
d="M228 -150v237q0 47 -14.5 81t-37 60t-47.5 49.5t-47.5 49t-37 58.5t-14.5 79q0 57 27 99t74 64.5t107 22.5h297v-800h-80v746l28 -21h-205l30 21v-746h-80z" />
    <glyph glyph-name="periodcentered" unicode="&#xb7;" horiz-adv-x="520" 
d="M260 239q-22 0 -36.5 14t-14.5 36t14.5 36t36.5 14q23 0 37 -14t14 -36t-14 -36t-37 -14z" />
    <glyph glyph-name="cedilla" unicode="&#xb8;" horiz-adv-x="520" 
d="M300 32v-168h-78l10 168h68z" />
    <glyph glyph-name="onesuperior" unicode="&#xb9;" horiz-adv-x="225" 
d="M10 601q47 7 88 21.5t72 35.5v-390h-73v336l55 -22q-22 -21 -58.5 -34t-83.5 -17v70z" />
    <glyph glyph-name="ordmasculine" unicode="&#xba;" horiz-adv-x="458" 
d="M229 263q-57 0 -102.5 26t-72.5 70.5t-27 99.5t27 99.5t73 70.5t102 26q57 0 102.5 -26t72.5 -70.5t27 -99.5t-26.5 -99.5t-72.5 -70.5t-103 -26zM229 332q36 0 64.5 17t45.5 46t17 64t-17 63.5t-45.5 46t-64.5 17.5q-35 0 -64 -17t-46 -45.5t-17 -64.5q0 -35 17 -64
t46 -46t64 -17z" />
    <glyph glyph-name="guillemotright" unicode="&#xbb;" horiz-adv-x="481" 
d="M176 210l-146 231h87l125 -196l-125 -196h-84l146 231zM390 210l-146 231h87l125 -196l-125 -196h-84l146 231z" />
    <glyph glyph-name="onequarter" unicode="&#xbc;" horiz-adv-x="787" 
d="M10 601q47 7 88 21.5t72 35.5v-390h-73v336l55 -22q-22 -21 -58.5 -34t-83.5 -17v70zM116 0l353 650h84l-353 -650h-84zM742 0h-73v36q0 32 -13 49t-33.5 27t-44 18.5t-44 23t-33.5 41t-13 71.5v116h73v-116q0 -30 12.5 -46t32 -24.5t41 -16.5t41 -23t32 -43t12.5 -77
l-63 87v167h73v-290z" />
    <glyph glyph-name="onehalf" unicode="&#xbd;" horiz-adv-x="745" 
d="M10 601q47 7 88 21.5t72 35.5v-390h-73v336l55 -22q-22 -21 -58.5 -34t-83.5 -17v70zM116 0l353 650h84l-353 -650h-84zM581 387q37 0 66 -16t46 -43t17 -61q0 -28 -10.5 -53t-38.5 -57l-131 -155l-5 68h190v-70h-275l158 186q24 28 32.5 45.5t8.5 33.5q0 23 -17 39.5
t-41 16.5t-41 -16.5t-17 -39.5q0 -29 24 -50l-43 -50q-52 43 -52 102q0 34 17 61t46.5 43t65.5 16z" />
    <glyph glyph-name="threequarters" unicode="&#xbe;" horiz-adv-x="885" 
d="M167 263q-42 0 -75 18.5t-52.5 51t-19.5 74.5h73q0 -22 9.5 -39.5t26 -27t38.5 -9.5q32 0 51.5 18t19.5 44q0 15 -8.5 27.5t-23.5 19.5t-37 7h-25v70h25q43 0 75 -16t49.5 -44t17.5 -64q0 -37 -19 -66.5t-51.5 -46.5t-73.5 -17zM235 465l-52 31q26 24 26 51
q0 17 -13 28.5t-33 11.5t-33.5 -13t-13.5 -32h-73q0 49 33 81t87 32q51 0 85 -29.5t34 -74.5q0 -25 -12 -47t-35 -39zM212 0l353 650h84l-353 -650h-84zM840 0h-73v36q0 32 -13 49t-33.5 27t-44 18.5t-44 23t-33.5 41t-13 71.5v116h73v-116q0 -30 12.5 -46t32 -24.5
t41 -16.5t41 -23t32 -43t12.5 -77l-63 87v167h73v-290z" />
    <glyph glyph-name="questiondown" unicode="&#xbf;" horiz-adv-x="511" 
d="M251 482q22 0 36.5 -14t14.5 -36t-14 -36t-37 -14q-22 0 -36.5 14t-14.5 36t14.5 36t36.5 14zM286 287l1 -132h-29q-40 0 -73 -18t-52.5 -48.5t-19.5 -68.5t19.5 -68.5t52.5 -48.5t73 -18q42 0 75 18.5t51.5 51t18.5 73.5h78q0 -63 -28.5 -111t-78.5 -75.5t-116 -27.5
q-64 0 -114.5 26.5t-79.5 73t-29 106.5t28 105t78.5 70t116.5 25l-45 -38l3 105h70z" />
    <glyph glyph-name="Agrave" unicode="&#xc0;" 
d="M66 0v446q0 63 26.5 111t74.5 75t110 27q63 0 110.5 -27t74 -75t26.5 -111v-446h-80v21q0 99 -59.5 159t-172.5 60h-60v75h40q125 0 199.5 -46.5t92.5 -126.5h-40v304q0 40 -17 70t-46.5 47.5t-67.5 17.5t-68 -17.5t-46.5 -47.5t-16.5 -70v-446h-80zM310 712h-70l-91 158
h86z" />
    <glyph glyph-name="Aacute" unicode="&#xc1;" 
d="M240 712l70 158h86l-86 -158h-70zM66 0v446q0 63 26.5 111t74.5 75t110 27q63 0 110.5 -27t74 -75t26.5 -111v-446h-80v21q0 99 -59.5 159t-172.5 60h-60v75h40q125 0 199.5 -46.5t92.5 -126.5h-40v304q0 40 -17 70t-46.5 47.5t-67.5 17.5t-68 -17.5t-46.5 -47.5
t-16.5 -70v-446h-80z" />
    <glyph glyph-name="Acircumflex" unicode="&#xc2;" 
d="M66 0v446q0 63 26.5 111t74.5 75t110 27q63 0 110.5 -27t74 -75t26.5 -111v-446h-80v21q0 99 -59.5 159t-172.5 60h-60v75h40q125 0 199.5 -46.5t92.5 -126.5h-40v304q0 40 -17 70t-46.5 47.5t-67.5 17.5t-68 -17.5t-46.5 -47.5t-16.5 -70v-446h-80zM318 870l111 -158
h-81l-90 131h36l-89 -131h-80l110 158h83z" />
    <glyph glyph-name="Atilde" unicode="&#xc3;" 
d="M66 0v446q0 63 26.5 111t74.5 75t110 27q63 0 110.5 -27t74 -75t26.5 -111v-446h-80v21q0 99 -59.5 159t-172.5 60h-60v75h40q125 0 199.5 -46.5t92.5 -126.5h-40v304q0 40 -17 70t-46.5 47.5t-67.5 17.5t-68 -17.5t-46.5 -47.5t-16.5 -70v-446h-80zM127 712v64
q0 46 21.5 71.5t60.5 25.5q26 0 43.5 -10.5t30 -25.5t21.5 -30t17.5 -25.5t19.5 -10.5q12 0 17.5 8.5t5.5 26.5v64h63v-64q0 -46 -21.5 -71.5t-60.5 -25.5q-26 0 -43.5 10.5t-30 25.5t-21.5 30t-17.5 25.5t-19.5 10.5q-23 0 -23 -35v-64h-63z" />
    <glyph glyph-name="Adieresis" unicode="&#xc4;" 
d="M66 0v446q0 63 26.5 111t74.5 75t110 27q63 0 110.5 -27t74 -75t26.5 -111v-446h-80v21q0 99 -59.5 159t-172.5 60h-60v75h40q125 0 199.5 -46.5t92.5 -126.5h-40v304q0 40 -17 70t-46.5 47.5t-67.5 17.5t-68 -17.5t-46.5 -47.5t-16.5 -70v-446h-80zM188 735
q-22 0 -36.5 14t-14.5 36t14.5 36t36.5 14q23 0 37 -14t14 -36t-14 -36t-37 -14zM366 735q-22 0 -36.5 14t-14.5 36t14.5 36t36.5 14q23 0 37 -14t14 -36t-14 -36t-37 -14z" />
    <glyph glyph-name="Aring" unicode="&#xc5;" 
d="M277 659q26 0 40.5 14.5t14.5 38.5t-14.5 38.5t-40.5 14.5q-25 0 -40 -14.5t-15 -38.5t15 -38.5t40 -14.5zM66 0v446q0 80 42.5 135.5t113.5 71.5v-42q-29 14 -47 40.5t-18 60.5q0 48 34 80.5t86 32.5q35 0 62 -15t42.5 -40.5t15.5 -57.5q0 -34 -17.5 -60.5t-47.5 -40.5
v42q71 -16 113.5 -71.5t42.5 -135.5v-446h-80v21q0 99 -59.5 159t-172.5 60h-60v75h40q125 0 199.5 -46.5t92.5 -126.5h-40v304q0 40 -17 70t-46.5 47.5t-67.5 17.5t-68 -17.5t-46.5 -47.5t-16.5 -70v-446h-80z" />
    <glyph glyph-name="AE" unicode="&#xc6;" horiz-adv-x="773" 
d="M66 0v446q0 61 26.5 106.5t74.5 71.5t110 26h131v-75h-131q-38 -1 -68 -18t-46.5 -45.5t-16.5 -65.5v-446h-80zM126 200v75h282v-75h-282zM388 0v650h343v-75h-300l37 35v-426l-58 -87q0 83 34 144t96 94.5t146 33.5h15v-76h-15q-100 0 -159 -53t-59 -143v-57l-53 35h316
v-75h-343z" />
    <glyph glyph-name="Ccedilla" unicode="&#xc7;" horiz-adv-x="747" 
d="M42 325q0 70 26 130.5t72.5 106.5t107.5 71.5t131 25.5q79 0 147 -33t116 -90.5t65 -133.5h-84q-16 54 -52.5 95t-86 64t-105.5 23q-53 0 -99 -20t-81 -55.5t-55 -82.5t-20 -101t20 -101t55 -82.5t81 -55.5t99 -20q61 0 113 26.5t88.5 73t48.5 106.5h83q-9 -60 -38 -111
t-74 -89t-100 -59.5t-116 -21.5l36 41v-168h-78l10 168l27 -41q-70 0 -131 25.5t-107.5 71.5t-72.5 106.5t-26 130.5z" />
    <glyph glyph-name="Egrave" unicode="&#xc8;" horiz-adv-x="460" 
d="M75 0v650h343v-75h-300l37 35v-426l-58 -97q0 87 33.5 150t95.5 97t147 34h15v-75h-15q-100 0 -159 -55.5t-59 -150.5v-47l-53 35h316v-75h-343zM289 712h-70l-91 158h86z" />
    <glyph glyph-name="Eacute" unicode="&#xc9;" horiz-adv-x="460" 
d="M75 0v650h343v-75h-300l37 35v-426l-58 -97q0 87 33.5 150t95.5 97t147 34h15v-75h-15q-100 0 -159 -55.5t-59 -150.5v-47l-53 35h316v-75h-343zM206 712l70 158h86l-86 -158h-70z" />
    <glyph glyph-name="Ecircumflex" unicode="&#xca;" horiz-adv-x="460" 
d="M75 0v650h343v-75h-300l37 35v-426l-58 -97q0 87 33.5 150t95.5 97t147 34h15v-75h-15q-100 0 -159 -55.5t-59 -150.5v-47l-53 35h316v-75h-343zM284 870l111 -158h-81l-90 131h36l-89 -131h-80l110 158h83z" />
    <glyph glyph-name="Edieresis" unicode="&#xcb;" horiz-adv-x="460" 
d="M75 0v650h343v-75h-300l37 35v-426l-58 -97q0 87 33.5 150t95.5 97t147 34h15v-75h-15q-100 0 -159 -55.5t-59 -150.5v-47l-53 35h316v-75h-343zM154 735q-22 0 -36.5 14t-14.5 36t14.5 36t36.5 14q23 0 37 -14t14 -36t-14 -36t-37 -14zM332 735q-22 0 -36.5 14t-14.5 36
t14.5 36t36.5 14q23 0 37 -14t14 -36t-14 -36t-37 -14z" />
    <glyph glyph-name="Igrave" unicode="&#xcc;" horiz-adv-x="230" 
d="M155 0h-80v650h80v-650zM148 712h-70l-91 158h86z" />
    <glyph glyph-name="Iacute" unicode="&#xcd;" horiz-adv-x="230" 
d="M155 0h-80v650h80v-650zM80 712l70 158h86l-86 -158h-70z" />
    <glyph glyph-name="Icircumflex" unicode="&#xce;" horiz-adv-x="230" 
d="M155 0h-80v650h80v-650zM156 870l111 -158h-81l-90 131h36l-89 -131h-80l110 158h83z" />
    <glyph glyph-name="Idieresis" unicode="&#xcf;" horiz-adv-x="230" 
d="M155 0h-80v650h80v-650zM26 735q-22 0 -36.5 14t-14.5 36t14.5 36t36.5 14q23 0 37 -14t14 -36t-14 -36t-37 -14zM204 735q-22 0 -36.5 14t-14.5 36t14.5 36t36.5 14q23 0 37 -14t14 -36t-14 -36t-37 -14z" />
    <glyph glyph-name="Eth" unicode="&#xd0;" horiz-adv-x="566" 
d="M291 288h-281v75h281v-75zM90 0v650h80q105 0 184.5 -42t124.5 -115t45 -168q0 -94 -45 -167.5t-124.5 -115.5t-184.5 -42h-80zM170 33l-31 42h48q74 0 131.5 33t90.5 89.5t33 127.5t-33 127.5t-90.5 89.5t-131.5 33h-48l31 41v-583z" />
    <glyph glyph-name="Ntilde" unicode="&#xd1;" horiz-adv-x="580" 
d="M75 0v650h75q58 -136 129 -243.5t166 -199.5l-20 -10v453h80v-650h-80v149l15 -40q-60 54 -114.5 115t-100.5 127.5t-81 134.5h11v-486h-80zM138 712v64q0 46 21.5 71.5t60.5 25.5q26 0 43.5 -10.5t30 -25.5t21.5 -30t17.5 -25.5t19.5 -10.5q12 0 17.5 8.5t5.5 26.5v64
h63v-64q0 -46 -21.5 -71.5t-60.5 -25.5q-26 0 -43.5 10.5t-29.5 25.5t-21.5 30t-18 25.5t-19.5 10.5q-23 0 -23 -35v-64h-63z" />
    <glyph glyph-name="Ograve" unicode="&#xd2;" horiz-adv-x="758" 
d="M124 325q0 -54 20 -101t55 -82.5t81 -55.5t99 -20t99 20t81 55.5t55 82.5t20 101t-20 101t-55 82.5t-81 55.5t-99 20t-99 -20t-81 -55.5t-55 -82.5t-20 -101zM42 325q0 70 26 130.5t72.5 106.5t107.5 71.5t131 25.5t131 -25.5t107.5 -71.5t72.5 -106.5t26 -130.5
t-26 -130.5t-72.5 -106.5t-107.5 -71.5t-131 -25.5t-131 25.5t-107.5 71.5t-72.5 106.5t-26 130.5zM412 712h-70l-91 158h86z" />
    <glyph glyph-name="Oacute" unicode="&#xd3;" horiz-adv-x="758" 
d="M124 325q0 -54 20 -101t55 -82.5t81 -55.5t99 -20t99 20t81 55.5t55 82.5t20 101t-20 101t-55 82.5t-81 55.5t-99 20t-99 -20t-81 -55.5t-55 -82.5t-20 -101zM42 325q0 70 26 130.5t72.5 106.5t107.5 71.5t131 25.5t131 -25.5t107.5 -71.5t72.5 -106.5t26 -130.5
t-26 -130.5t-72.5 -106.5t-107.5 -71.5t-131 -25.5t-131 25.5t-107.5 71.5t-72.5 106.5t-26 130.5zM342 712l70 158h86l-86 -158h-70z" />
    <glyph glyph-name="Ocircumflex" unicode="&#xd4;" horiz-adv-x="758" 
d="M124 325q0 -54 20 -101t55 -82.5t81 -55.5t99 -20t99 20t81 55.5t55 82.5t20 101t-20 101t-55 82.5t-81 55.5t-99 20t-99 -20t-81 -55.5t-55 -82.5t-20 -101zM42 325q0 70 26 130.5t72.5 106.5t107.5 71.5t131 25.5t131 -25.5t107.5 -71.5t72.5 -106.5t26 -130.5
t-26 -130.5t-72.5 -106.5t-107.5 -71.5t-131 -25.5t-131 25.5t-107.5 71.5t-72.5 106.5t-26 130.5zM420 870l111 -158h-81l-90 131h36l-89 -131h-80l110 158h83z" />
    <glyph glyph-name="Otilde" unicode="&#xd5;" horiz-adv-x="758" 
d="M124 325q0 -54 20 -101t55 -82.5t81 -55.5t99 -20t99 20t81 55.5t55 82.5t20 101t-20 101t-55 82.5t-81 55.5t-99 20t-99 -20t-81 -55.5t-55 -82.5t-20 -101zM42 325q0 70 26 130.5t72.5 106.5t107.5 71.5t131 25.5t131 -25.5t107.5 -71.5t72.5 -106.5t26 -130.5
t-26 -130.5t-72.5 -106.5t-107.5 -71.5t-131 -25.5t-131 25.5t-107.5 71.5t-72.5 106.5t-26 130.5zM229 712v64q0 46 21.5 71.5t60.5 25.5q26 0 43.5 -10.5t30 -25.5t21.5 -30t17.5 -25.5t19.5 -10.5q12 0 17.5 8.5t5.5 26.5v64h63v-64q0 -46 -21.5 -71.5t-60.5 -25.5
q-26 0 -43.5 10.5t-29.5 25.5t-21.5 30t-18 25.5t-19.5 10.5q-23 0 -23 -35v-64h-63z" />
    <glyph glyph-name="Odieresis" unicode="&#xd6;" horiz-adv-x="758" 
d="M124 325q0 -54 20 -101t55 -82.5t81 -55.5t99 -20t99 20t81 55.5t55 82.5t20 101t-20 101t-55 82.5t-81 55.5t-99 20t-99 -20t-81 -55.5t-55 -82.5t-20 -101zM42 325q0 70 26 130.5t72.5 106.5t107.5 71.5t131 25.5t131 -25.5t107.5 -71.5t72.5 -106.5t26 -130.5
t-26 -130.5t-72.5 -106.5t-107.5 -71.5t-131 -25.5t-131 25.5t-107.5 71.5t-72.5 106.5t-26 130.5zM290 735q-22 0 -36.5 14t-14.5 36t14.5 36t36.5 14q23 0 37 -14t14 -36t-14 -36t-37 -14zM468 735q-22 0 -36.5 14t-14.5 36t14.5 36t36.5 14q23 0 37 -14t14 -36t-14 -36
t-37 -14z" />
    <glyph glyph-name="multiply" unicode="&#xd7;" horiz-adv-x="480" 
d="M70 193l295 296l45 -45l-295 -296zM116 489l294 -296l-45 -45l-295 295z" />
    <glyph glyph-name="Oslash" unicode="&#xd8;" horiz-adv-x="758" 
d="M379 66q53 0 99 20t81 55.5t55 82.5t20 101t-20 101t-55 82.5t-81 55.5t-99 20t-99 -20t-81 -55.5t-55 -82.5t-20 -101t20 -101t55 -82.5t81 -55.5t99 -20zM379 -9q-70 0 -131 25.5t-107.5 71.5t-72.5 106.5t-26 130.5t26 130.5t72.5 106.5t107.5 71.5t131 25.5
t131 -25.5t107.5 -71.5t72.5 -106.5t26 -130.5t-26 -130.5t-72.5 -106.5t-107.5 -71.5t-131 -25.5zM36 0l506 561l17 20l62 69h101l-504 -559l-15 -18l-66 -73h-101z" />
    <glyph glyph-name="Ugrave" unicode="&#xd9;" horiz-adv-x="553" 
d="M277 69q38 0 67 16.5t46 45.5t17 66v453h80v-453q0 -61 -26.5 -107.5t-73.5 -72.5t-110 -26t-110.5 26t-74 72.5t-26.5 107.5v453h80v-453q0 -37 17 -66t46.5 -45.5t67.5 -16.5zM310 712h-70l-91 158h86z" />
    <glyph glyph-name="Uacute" unicode="&#xda;" horiz-adv-x="553" 
d="M277 69q38 0 67 16.5t46 45.5t17 66v453h80v-453q0 -61 -26.5 -107.5t-73.5 -72.5t-110 -26t-110.5 26t-74 72.5t-26.5 107.5v453h80v-453q0 -37 17 -66t46.5 -45.5t67.5 -16.5zM240 712l70 158h86l-86 -158h-70z" />
    <glyph glyph-name="Ucircumflex" unicode="&#xdb;" horiz-adv-x="553" 
d="M277 69q38 0 67 16.5t46 45.5t17 66v453h80v-453q0 -61 -26.5 -107.5t-73.5 -72.5t-110 -26t-110.5 26t-74 72.5t-26.5 107.5v453h80v-453q0 -37 17 -66t46.5 -45.5t67.5 -16.5zM318 870l111 -158h-81l-90 131h36l-89 -131h-80l110 158h83z" />
    <glyph glyph-name="Udieresis" unicode="&#xdc;" horiz-adv-x="553" 
d="M277 69q38 0 67 16.5t46 45.5t17 66v453h80v-453q0 -61 -26.5 -107.5t-73.5 -72.5t-110 -26t-110.5 26t-74 72.5t-26.5 107.5v453h80v-453q0 -37 17 -66t46.5 -45.5t67.5 -16.5zM188 735q-22 0 -36.5 14t-14.5 36t14.5 36t36.5 14q23 0 37 -14t14 -36t-14 -36t-37 -14z
M366 735q-22 0 -36.5 14t-14.5 36t14.5 36t36.5 14q23 0 37 -14t14 -36t-14 -36t-37 -14z" />
    <glyph glyph-name="Yacute" unicode="&#xdd;" horiz-adv-x="507" 
d="M227 0l180 650h80l-175 -650h-85zM35 458q0 41 7 84t24 108h79q-18 -67 -25 -109t-7 -83q0 -94 51.5 -144.5t145.5 -50.5h24v-75h-24q-87 0 -148.5 32t-94 92.5t-32.5 145.5zM229 712l70 158h86l-86 -158h-70z" />
    <glyph glyph-name="Thorn" unicode="&#xde;" horiz-adv-x="510" 
d="M75 0v650h81v-520l-40 -20q19 33 46.5 54.5t59.5 37t63 29.5t56.5 30.5t41 41t15.5 61.5q0 50 -40.5 79t-108.5 29h-126v75h123q70 0 122.5 -22.5t82 -63t29.5 -93.5q0 -52 -17.5 -86.5t-46.5 -56.5t-63.5 -38t-69 -31t-63.5 -34.5t-46.5 -48t-17.5 -73.5h-81z" />
    <glyph glyph-name="germandbls" unicode="&#xdf;" horiz-adv-x="580" 
d="M62 0v442q0 66 24.5 114.5t69.5 75.5t108 27q55 0 95 -19.5t62 -52t22 -71.5q0 -35 -11 -59.5t-25 -42t-25 -32t-11 -29.5q0 -19 17.5 -32.5t43.5 -27t52 -32t43.5 -46.5t17.5 -71q0 -66 -44 -105t-118 -39h-127v70h127q41 0 63 20t22 54q0 29 -17.5 48t-43.5 33
t-52 28.5t-43.5 34t-17.5 50.5q0 29 11 49.5t25 38t25 36.5t11 44q0 37 -27.5 59.5t-74.5 22.5q-60 0 -92 -40.5t-32 -105.5v-442h-78z" />
    <glyph glyph-name="agrave" unicode="&#xe0;" horiz-adv-x="495" 
d="M227 -9q-55 0 -97.5 19.5t-66 54t-23.5 79.5t24 79.5t66 54t97 19.5q83 0 132.5 -41t49.5 -110q0 -70 -49.5 -112.5t-132.5 -42.5zM237 57q55 0 87.5 24.5t32.5 64.5t-32 62.5t-88 22.5q-55 0 -87 -23t-32 -64q0 -40 32 -63.5t87 -23.5zM435 0h-73v105h-5v194
q0 53 -29 83t-80 30q-39 0 -65.5 -18t-37.5 -52h-80q9 42 34.5 73.5t63.5 49t84 17.5q87 0 137.5 -50.5t50.5 -136.5v-295zM278 536h-70l-91 158h86z" />
    <glyph glyph-name="aacute" unicode="&#xe1;" horiz-adv-x="495" 
d="M227 -9q-55 0 -97.5 19.5t-66 54t-23.5 79.5t24 79.5t66 54t97 19.5q83 0 132.5 -41t49.5 -110q0 -70 -49.5 -112.5t-132.5 -42.5zM237 57q55 0 87.5 24.5t32.5 64.5t-32 62.5t-88 22.5q-55 0 -87 -23t-32 -64q0 -40 32 -63.5t87 -23.5zM435 0h-73v105h-5v194
q0 53 -29 83t-80 30q-39 0 -65.5 -18t-37.5 -52h-80q9 42 34.5 73.5t63.5 49t84 17.5q87 0 137.5 -50.5t50.5 -136.5v-295zM208 536l70 158h86l-86 -158h-70z" />
    <glyph glyph-name="acircumflex" unicode="&#xe2;" horiz-adv-x="495" 
d="M227 -9q-55 0 -97.5 19.5t-66 54t-23.5 79.5t24 79.5t66 54t97 19.5q83 0 132.5 -41t49.5 -110q0 -70 -49.5 -112.5t-132.5 -42.5zM237 57q55 0 87.5 24.5t32.5 64.5t-32 62.5t-88 22.5q-55 0 -87 -23t-32 -64q0 -40 32 -63.5t87 -23.5zM435 0h-73v105h-5v194
q0 53 -29 83t-80 30q-39 0 -65.5 -18t-37.5 -52h-80q9 42 34.5 73.5t63.5 49t84 17.5q87 0 137.5 -50.5t50.5 -136.5v-295zM286 694l111 -158h-81l-90 131h36l-89 -131h-80l110 158h83z" />
    <glyph glyph-name="atilde" unicode="&#xe3;" horiz-adv-x="495" 
d="M227 -9q-55 0 -97.5 19.5t-66 54t-23.5 79.5t24 79.5t66 54t97 19.5q83 0 132.5 -41t49.5 -110q0 -70 -49.5 -112.5t-132.5 -42.5zM237 57q55 0 87.5 24.5t32.5 64.5t-32 62.5t-88 22.5q-55 0 -87 -23t-32 -64q0 -40 32 -63.5t87 -23.5zM435 0h-73v105h-5v194
q0 53 -29 83t-80 30q-39 0 -65.5 -18t-37.5 -52h-80q9 42 34.5 73.5t63.5 49t84 17.5q87 0 137.5 -50.5t50.5 -136.5v-295zM95 536v64q0 46 21.5 71.5t60.5 25.5q26 0 43.5 -10.5t30 -25.5t21.5 -30t17.5 -25.5t19.5 -10.5q12 0 17.5 8.5t5.5 26.5v64h63v-64
q0 -46 -21.5 -71.5t-60.5 -25.5q-26 0 -43.5 10.5t-29.5 25.5t-21.5 30t-18 25.5t-19.5 10.5q-23 0 -23 -35v-64h-63z" />
    <glyph glyph-name="adieresis" unicode="&#xe4;" horiz-adv-x="495" 
d="M227 -9q-55 0 -97.5 19.5t-66 54t-23.5 79.5t24 79.5t66 54t97 19.5q83 0 132.5 -41t49.5 -110q0 -70 -49.5 -112.5t-132.5 -42.5zM237 57q55 0 87.5 24.5t32.5 64.5t-32 62.5t-88 22.5q-55 0 -87 -23t-32 -64q0 -40 32 -63.5t87 -23.5zM435 0h-73v105h-5v194
q0 53 -29 83t-80 30q-39 0 -65.5 -18t-37.5 -52h-80q9 42 34.5 73.5t63.5 49t84 17.5q87 0 137.5 -50.5t50.5 -136.5v-295zM156 559q-22 0 -36.5 14t-14.5 36t14.5 36t36.5 14q23 0 37 -14t14 -36t-14 -36t-37 -14zM334 559q-22 0 -36.5 14t-14.5 36t14.5 36t36.5 14
q23 0 37 -14t14 -36t-14 -36t-37 -14z" />
    <glyph glyph-name="aring" unicode="&#xe5;" horiz-adv-x="495" 
d="M255 482q26 0 40.5 14.5t14.5 38.5t-14.5 38.5t-40.5 14.5q-25 0 -40 -14.5t-15 -38.5t15 -38.5t40 -14.5zM227 -9q-55 0 -97.5 19.5t-66 54t-23.5 79.5t24 79.5t66 54t97 19.5q83 0 132.5 -41t49.5 -110q0 -70 -49.5 -112.5t-132.5 -42.5zM237 57q55 0 87.5 24.5
t32.5 64.5t-32 62.5t-88 22.5q-55 0 -87 -23t-32 -64q0 -40 32 -63.5t87 -23.5zM310 434v40q59 -17 92 -64.5t33 -114.5v-295h-73v105h-5v194q0 53 -29 83t-80 30q-39 0 -65.5 -18t-37.5 -52h-80q12 52 47.5 87t87.5 48v-44q-31 15 -48 42.5t-17 59.5q0 48 34.5 80.5
t85.5 32.5q34 0 61 -15t43 -40.5t16 -57.5q0 -33 -17.5 -60t-47.5 -41z" />
    <glyph glyph-name="ae" unicode="&#xe6;" horiz-adv-x="870" 
d="M600 -9q-68 0 -123 33t-87.5 88.5t-32.5 123.5t33 123.5t88 89t122 33.5q68 0 121.5 -30t84.5 -82t31 -119v-27h-434v64h380l-23 -38v13q0 43 -21 77t-57 53.5t-82 19.5q-45 0 -82.5 -22.5t-60 -59.5t-22.5 -82v-21q0 -46 22.5 -84t60 -60.5t82.5 -22.5q53 0 93 21.5
t65 64.5h77q-18 -48 -52.5 -83t-81 -54t-101.5 -19zM227 -9q-55 0 -97.5 19.5t-66 54t-23.5 79.5t24 79.5t66 54t97 19.5q83 0 132.5 -41t49.5 -110q0 -70 -49.5 -112.5t-132.5 -42.5zM237 57q55 0 87.5 24.5t32.5 64.5t-32 62.5t-88 22.5q-55 0 -87 -23t-32 -64
q0 -40 32 -63.5t87 -23.5zM370 0v85h-13v214q0 53 -29 83t-80 30q-39 0 -65.5 -17.5t-37.5 -52.5h-80q10 43 35.5 74.5t63 48.5t83.5 17q85 0 134 -50.5t49 -136.5v-190h13v-105h-73z" />
    <glyph glyph-name="ccedilla" unicode="&#xe7;" horiz-adv-x="564" 
d="M325 32v-168h-78l10 168l27 -41q-67 0 -122.5 33t-88.5 88.5t-33 123.5q0 69 33 125t89.5 88.5t125.5 32.5q59 0 108.5 -23.5t83.5 -66t47 -99.5h-78q-20 55 -63 86.5t-98 31.5q-48 0 -86.5 -23.5t-61 -63t-22.5 -88.5t22.5 -88.5t61 -62.5t86.5 -23q39 0 72.5 15.5
t57.5 44t34 66.5h77q-12 -58 -46.5 -102t-83.5 -69.5t-107 -25.5z" />
    <glyph glyph-name="egrave" unicode="&#xe8;" horiz-adv-x="558" 
d="M283 -9q-67 0 -122.5 32.5t-88 88.5t-32.5 124q0 67 32.5 123t88 89.5t122.5 33.5t120.5 -29.5t85 -81.5t31.5 -120v-27h-434v64h380l-23 -38v13q0 45 -21.5 78.5t-57.5 52.5t-81 19q-43 0 -81 -22t-61 -59t-23 -83v-21q0 -48 23.5 -86t61 -59.5t80.5 -21.5q51 0 91.5 21
t66.5 65h77q-18 -48 -52.5 -83t-81 -54t-101.5 -19zM321 536h-70l-91 158h86z" />
    <glyph glyph-name="eacute" unicode="&#xe9;" horiz-adv-x="558" 
d="M283 -9q-67 0 -122.5 32.5t-88 88.5t-32.5 124q0 67 32.5 123t88 89.5t122.5 33.5t120.5 -29.5t85 -81.5t31.5 -120v-27h-434v64h380l-23 -38v13q0 45 -21.5 78.5t-57.5 52.5t-81 19q-43 0 -81 -22t-61 -59t-23 -83v-21q0 -48 23.5 -86t61 -59.5t80.5 -21.5q51 0 91.5 21
t66.5 65h77q-18 -48 -52.5 -83t-81 -54t-101.5 -19zM251 536l70 158h86l-86 -158h-70z" />
    <glyph glyph-name="ecircumflex" unicode="&#xea;" horiz-adv-x="558" 
d="M283 -9q-67 0 -122.5 32.5t-88 88.5t-32.5 124q0 67 32.5 123t88 89.5t122.5 33.5t120.5 -29.5t85 -81.5t31.5 -120v-27h-434v64h380l-23 -38v13q0 45 -21.5 78.5t-57.5 52.5t-81 19q-43 0 -81 -22t-61 -59t-23 -83v-21q0 -48 23.5 -86t61 -59.5t80.5 -21.5q51 0 91.5 21
t66.5 65h77q-18 -48 -52.5 -83t-81 -54t-101.5 -19zM329 694l111 -158h-81l-90 131h36l-89 -131h-80l110 158h83z" />
    <glyph glyph-name="edieresis" unicode="&#xeb;" horiz-adv-x="558" 
d="M283 -9q-67 0 -122.5 32.5t-88 88.5t-32.5 124q0 67 32.5 123t88 89.5t122.5 33.5t120.5 -29.5t85 -81.5t31.5 -120v-27h-434v64h380l-23 -38v13q0 45 -21.5 78.5t-57.5 52.5t-81 19q-43 0 -81 -22t-61 -59t-23 -83v-21q0 -48 23.5 -86t61 -59.5t80.5 -21.5q51 0 91.5 21
t66.5 65h77q-18 -48 -52.5 -83t-81 -54t-101.5 -19zM199 559q-22 0 -36.5 14t-14.5 36t14.5 36t36.5 14q23 0 37 -14t14 -36t-14 -36t-37 -14zM377 559q-22 0 -36.5 14t-14.5 36t14.5 36t36.5 14q23 0 37 -14t14 -36t-14 -36t-37 -14z" />
    <glyph glyph-name="igrave" unicode="&#xec;" horiz-adv-x="202" 
d="M62 473h78v-473h-78v473zM136 536h-70l-91 158h86z" />
    <glyph glyph-name="iacute" unicode="&#xed;" horiz-adv-x="202" 
d="M62 473h78v-473h-78v473zM66 536l70 158h86l-86 -158h-70z" />
    <glyph glyph-name="icircumflex" unicode="&#xee;" horiz-adv-x="202" 
d="M62 473h78v-473h-78v473zM144 694l111 -158h-81l-90 131h36l-89 -131h-80l110 158h83z" />
    <glyph glyph-name="idieresis" unicode="&#xef;" horiz-adv-x="202" 
d="M62 473h78v-473h-78v473zM14 559q-22 0 -36.5 14t-14.5 36t14.5 36t36.5 14q23 0 37 -14t14 -36t-14 -36t-37 -14zM192 559q-22 0 -36.5 14t-14.5 36t14.5 36t36.5 14q23 0 37 -14t14 -36t-14 -36t-37 -14z" />
    <glyph glyph-name="eth" unicode="&#xf0;" horiz-adv-x="535" 
d="M268 62q41 0 75 20t54 53.5t20 73.5q0 41 -20 75t-54 54t-75 20t-75 -20t-54.5 -54t-20.5 -75t20 -74.5t54.5 -53t75.5 -19.5zM266 -9q-63 0 -114.5 29t-81.5 78.5t-30 110.5t30.5 110.5t82 78.5t115.5 29q51 0 95.5 -25t65.5 -64l-39 -12l-209 324h84l172 -269
q23 -35 35.5 -63t17.5 -53.5t5 -53.5q0 -61 -30.5 -111t-82.5 -79.5t-116 -29.5zM451 569l-319 -99v63l319 99v-63z" />
    <glyph glyph-name="ntilde" unicode="&#xf1;" horiz-adv-x="508" 
d="M135 349l-50 -70q0 92 50.5 147.5t134.5 55.5q81 0 129.5 -51.5t48.5 -138.5v-292h-78v289q0 56 -31 89.5t-84 33.5q-52 0 -83.5 -33.5t-31.5 -89.5v-289h-78v473h73v-124zM105 536v64q0 46 21.5 71.5t60.5 25.5q26 0 43.5 -10.5t30 -25.5t21.5 -30t17.5 -25.5
t19.5 -10.5q12 0 17.5 8.5t5.5 26.5v64h63v-64q0 -46 -21.5 -71.5t-60.5 -25.5q-26 0 -43.5 10.5t-29.5 25.5t-21.5 30t-18 25.5t-19.5 10.5q-23 0 -23 -35v-64h-63z" />
    <glyph glyph-name="ograve" unicode="&#xf2;" horiz-adv-x="580" 
d="M290 -9q-70 0 -127 32.5t-90 88t-33 124.5t33 125t90 88.5t127 32.5q71 0 127.5 -32.5t89.5 -88.5t33 -125q0 -68 -33 -124t-89.5 -88.5t-127.5 -32.5zM290 411q-48 0 -87 -23.5t-62 -63.5t-23 -88t23 -87.5t62 -63t87 -23.5t87 23.5t62 63t23 87.5t-23 88t-62 63.5
t-87 23.5zM323 536h-70l-91 158h86z" />
    <glyph glyph-name="oacute" unicode="&#xf3;" horiz-adv-x="580" 
d="M290 -9q-70 0 -127 32.5t-90 88t-33 124.5t33 125t90 88.5t127 32.5q71 0 127.5 -32.5t89.5 -88.5t33 -125q0 -68 -33 -124t-89.5 -88.5t-127.5 -32.5zM290 411q-48 0 -87 -23.5t-62 -63.5t-23 -88t23 -87.5t62 -63t87 -23.5t87 23.5t62 63t23 87.5t-23 88t-62 63.5
t-87 23.5zM253 536l70 158h86l-86 -158h-70z" />
    <glyph glyph-name="ocircumflex" unicode="&#xf4;" horiz-adv-x="580" 
d="M290 -9q-70 0 -127 32.5t-90 88t-33 124.5t33 125t90 88.5t127 32.5q71 0 127.5 -32.5t89.5 -88.5t33 -125q0 -68 -33 -124t-89.5 -88.5t-127.5 -32.5zM290 411q-48 0 -87 -23.5t-62 -63.5t-23 -88t23 -87.5t62 -63t87 -23.5t87 23.5t62 63t23 87.5t-23 88t-62 63.5
t-87 23.5zM331 694l111 -158h-81l-90 131h36l-89 -131h-80l110 158h83z" />
    <glyph glyph-name="otilde" unicode="&#xf5;" horiz-adv-x="580" 
d="M290 -9q-70 0 -127 32.5t-90 88t-33 124.5t33 125t90 88.5t127 32.5q71 0 127.5 -32.5t89.5 -88.5t33 -125q0 -68 -33 -124t-89.5 -88.5t-127.5 -32.5zM290 411q-48 0 -87 -23.5t-62 -63.5t-23 -88t23 -87.5t62 -63t87 -23.5t87 23.5t62 63t23 87.5t-23 88t-62 63.5
t-87 23.5zM140 536v64q0 46 21.5 71.5t60.5 25.5q26 0 43.5 -10.5t30 -25.5t21.5 -30t17.5 -25.5t19.5 -10.5q12 0 17.5 8.5t5.5 26.5v64h63v-64q0 -46 -21.5 -71.5t-60.5 -25.5q-26 0 -43.5 10.5t-29.5 25.5t-21.5 30t-18 25.5t-19.5 10.5q-23 0 -23 -35v-64h-63z" />
    <glyph glyph-name="odieresis" unicode="&#xf6;" horiz-adv-x="580" 
d="M290 -9q-70 0 -127 32.5t-90 88t-33 124.5t33 125t90 88.5t127 32.5q71 0 127.5 -32.5t89.5 -88.5t33 -125q0 -68 -33 -124t-89.5 -88.5t-127.5 -32.5zM290 411q-48 0 -87 -23.5t-62 -63.5t-23 -88t23 -87.5t62 -63t87 -23.5t87 23.5t62 63t23 87.5t-23 88t-62 63.5
t-87 23.5zM202 559q-22 0 -36.5 14t-14.5 36t14.5 36t36.5 14q23 0 37 -14t14 -36t-14 -36t-37 -14zM380 559q-22 0 -36.5 14t-14.5 36t14.5 36t36.5 14q23 0 37 -14t14 -36t-14 -36t-37 -14z" />
    <glyph glyph-name="divide" unicode="&#xf7;" horiz-adv-x="480" 
d="M50 350h380v-64h-380v64zM240 77q-22 0 -36.5 14t-14.5 36t14.5 36t36.5 14q23 0 37 -14t14 -36t-14 -36t-37 -14zM240 459q-22 0 -36.5 14t-14.5 36t14.5 36t36.5 14q23 0 37 -14t14 -36t-14 -36t-37 -14z" />
    <glyph glyph-name="oslash" unicode="&#xf8;" horiz-adv-x="590" 
d="M295 -9q-70 0 -127 32.5t-90 88t-33 124.5t33 125t90 88.5t127 32.5q71 0 127.5 -32.5t89.5 -88.5t33 -125q0 -68 -33 -124t-89.5 -88.5t-127.5 -32.5zM295 411q-48 0 -87 -23.5t-62 -63.5t-23 -88t23 -87.5t62 -63t87 -23.5t87 23.5t62 63t23 87.5t-23 88t-62 63.5
t-87 23.5zM462 473h95l-429 -473h-95z" />
    <glyph glyph-name="ugrave" unicode="&#xf9;" horiz-adv-x="496" 
d="M60 473h78v-291q0 -55 29.5 -87.5t80.5 -32.5t80.5 32.5t29.5 87.5v291h78v-286q0 -92 -51 -144t-137 -52t-137 52t-51 144v286zM282 536h-70l-91 158h86z" />
    <glyph glyph-name="uacute" unicode="&#xfa;" horiz-adv-x="496" 
d="M60 473h78v-291q0 -55 29.5 -87.5t80.5 -32.5t80.5 32.5t29.5 87.5v291h78v-286q0 -92 -51 -144t-137 -52t-137 52t-51 144v286zM212 536l70 158h86l-86 -158h-70z" />
    <glyph glyph-name="ucircumflex" unicode="&#xfb;" horiz-adv-x="496" 
d="M60 473h78v-291q0 -55 29.5 -87.5t80.5 -32.5t80.5 32.5t29.5 87.5v291h78v-286q0 -92 -51 -144t-137 -52t-137 52t-51 144v286zM289 694l111 -158h-81l-90 131h36l-89 -131h-80l110 158h83z" />
    <glyph glyph-name="udieresis" unicode="&#xfc;" horiz-adv-x="496" 
d="M60 473h78v-291q0 -55 29.5 -87.5t80.5 -32.5t80.5 32.5t29.5 87.5v291h78v-286q0 -92 -51 -144t-137 -52t-137 52t-51 144v286zM159 559q-22 0 -36.5 14t-14.5 36t14.5 36t36.5 14q23 0 37 -14t14 -36t-14 -36t-37 -14zM337 559q-22 0 -36.5 14t-14.5 36t14.5 36
t36.5 14q23 0 37 -14t14 -36t-14 -36t-37 -14z" />
    <glyph glyph-name="yacute" unicode="&#xfd;" horiz-adv-x="494" 
d="M45 251q0 52 7.5 106.5t23.5 115.5h79q-18 -76 -25 -125.5t-7 -96.5q0 -88 47 -135.5t126 -47.5h14v-73h-14q-74 0 -131 30t-88.5 87.5t-31.5 138.5zM214 -150l175 623h80l-172 -623h-83zM241 536l70 158h86l-86 -158h-70z" />
    <glyph glyph-name="thorn" unicode="&#xfe;" horiz-adv-x="539" 
d="M62 -150v800h78v-800h-78zM277 -9q-65 0 -116.5 31.5t-87.5 93.5l45 29q32 -43 68.5 -63.5t79.5 -20.5t78 19t56 55.5t21 88.5q0 53 -24 93.5t-67 63t-100 22.5h-108v70h108q79 0 139.5 -31.5t95 -87.5t34.5 -130q0 -69 -29.5 -121.5t-80 -82t-112.5 -29.5z" />
    <glyph glyph-name="ydieresis" unicode="&#xff;" horiz-adv-x="494" 
d="M45 251q0 52 7.5 106.5t23.5 115.5h79q-18 -76 -25 -125.5t-7 -96.5q0 -88 47 -135.5t126 -47.5h14v-73h-14q-74 0 -131 30t-88.5 87.5t-31.5 138.5zM214 -150l175 623h80l-172 -623h-83zM191 559q-22 0 -36.5 14t-14.5 36t14.5 36t36.5 14q23 0 37 -14t14 -36t-14 -36
t-37 -14zM369 559q-22 0 -36.5 14t-14.5 36t14.5 36t36.5 14q23 0 37 -14t14 -36t-14 -36t-37 -14z" />
    <glyph glyph-name="Amacron" unicode="&#x100;" 
d="M152 815h250v-70h-250v70zM66 0v446q0 63 26.5 111t74.5 75t110 27q63 0 110.5 -27t74 -75t26.5 -111v-446h-80v21q0 99 -59.5 159t-172.5 60h-60v75h40q125 0 199.5 -46.5t92.5 -126.5h-40v304q0 40 -17 70t-46.5 47.5t-67.5 17.5t-68 -17.5t-46.5 -47.5t-16.5 -70v-446
h-80z" />
    <glyph glyph-name="amacron" unicode="&#x101;" horiz-adv-x="495" 
d="M227 -9q-55 0 -97.5 19.5t-66 54t-23.5 79.5t24 79.5t66 54t97 19.5q83 0 132.5 -41t49.5 -110q0 -70 -49.5 -112.5t-132.5 -42.5zM237 57q55 0 87.5 24.5t32.5 64.5t-32 62.5t-88 22.5q-55 0 -87 -23t-32 -64q0 -40 32 -63.5t87 -23.5zM435 0h-73v105h-5v194
q0 53 -29 83t-80 30q-39 0 -65.5 -18t-37.5 -52h-80q9 42 34.5 73.5t63.5 49t84 17.5q87 0 137.5 -50.5t50.5 -136.5v-295zM120 639h250v-70h-250v70z" />
    <glyph glyph-name="Abreve" unicode="&#x102;" 
d="M277 772q38 0 60 18.5t22 54.5v25h64v-25q0 -66 -40 -101t-106 -35q-67 0 -106.5 35t-39.5 101v25h64v-25q0 -36 21.5 -54.5t60.5 -18.5zM66 0v446q0 63 26.5 111t74.5 75t110 27q63 0 110.5 -27t74 -75t26.5 -111v-446h-80v21q0 99 -59.5 159t-172.5 60h-60v75h40
q125 0 199.5 -46.5t92.5 -126.5h-40v304q0 40 -17 70t-46.5 47.5t-67.5 17.5t-68 -17.5t-46.5 -47.5t-16.5 -70v-446h-80z" />
    <glyph glyph-name="abreve" unicode="&#x103;" horiz-adv-x="495" 
d="M227 -9q-55 0 -97.5 19.5t-66 54t-23.5 79.5t24 79.5t66 54t97 19.5q83 0 132.5 -41t49.5 -110q0 -70 -49.5 -112.5t-132.5 -42.5zM237 57q55 0 87.5 24.5t32.5 64.5t-32 62.5t-88 22.5q-55 0 -87 -23t-32 -64q0 -40 32 -63.5t87 -23.5zM435 0h-73v105h-5v194
q0 53 -29 83t-80 30q-39 0 -65.5 -18t-37.5 -52h-80q9 42 34.5 73.5t63.5 49t84 17.5q87 0 137.5 -50.5t50.5 -136.5v-295zM245 596q38 0 60 18.5t22 54.5v25h64v-25q0 -66 -40 -101t-106 -35q-67 0 -106.5 35t-39.5 101v25h64v-25q0 -36 21.5 -54.5t60.5 -18.5z" />
    <glyph glyph-name="Aogonek" unicode="&#x104;" 
d="M66 0v446q0 63 26.5 111t74.5 75t110 27q63 0 110.5 -27t74 -75t26.5 -111v-446q-34 -18 -52 -37t-18 -38q0 -15 10.5 -23t29.5 -8h30v-60h-34q-47 0 -75.5 23t-28.5 62q0 21 10.5 39.5t31 35.5t49.5 31v-25h-33v21q0 99 -59.5 159t-172.5 60h-60v75h40
q125 0 199.5 -46.5t92.5 -126.5h-40v304q0 40 -17 70t-46.5 47.5t-67.5 17.5t-68 -17.5t-46.5 -47.5t-16.5 -70v-446h-80z" />
    <glyph glyph-name="aogonek" unicode="&#x105;" horiz-adv-x="495" 
d="M388 25v-25h-26v105h-5v194q0 53 -29 83t-80 30q-38 0 -65 -18t-38 -52h-80q9 42 34.5 73.5t63.5 49t84 17.5q87 0 137.5 -50.5t50.5 -136.5v-295q-34 -18 -52 -37t-18 -38q0 -15 10.5 -23t29.5 -8h30v-60h-34q-47 0 -75.5 23t-28.5 62q0 30 23 57t68 49zM227 -9
q-55 0 -97.5 19.5t-66 54t-23.5 79.5t24 79.5t66 54t97 19.5q83 0 132.5 -41t49.5 -110q0 -70 -49.5 -112.5t-132.5 -42.5zM237 57q55 0 87.5 24.5t32.5 64.5t-32 62.5t-88 22.5q-55 0 -87 -23t-32 -64q0 -40 32 -63.5t87 -23.5z" />
    <glyph glyph-name="Cacute" unicode="&#x106;" horiz-adv-x="747" 
d="M629 272h83q-12 -80 -59 -143.5t-118 -100.5t-156 -37q-70 0 -131 25.5t-107.5 71.5t-72.5 106.5t-26 130.5t26 130.5t72.5 106.5t107.5 71.5t131 25.5q80 0 148.5 -33.5t115.5 -91.5t64 -132h-84q-16 53 -51.5 94t-85 64.5t-107.5 23.5q-53 0 -99 -20t-81 -55.5
t-55 -82.5t-20 -101t20 -101t55 -82.5t81 -55.5t99 -20q62 0 114 27t88 74t48 105zM338 712l70 158h86l-86 -158h-70z" />
    <glyph glyph-name="cacute" unicode="&#x107;" horiz-adv-x="564" 
d="M452 188h77q-12 -58 -46.5 -102.5t-84.5 -69.5t-110 -25q-69 0 -125.5 32.5t-89.5 88t-33 124.5t33 125t89.5 88.5t125.5 32.5q59 0 108 -23.5t83.5 -66t47.5 -99.5h-78q-19 53 -62 85.5t-99 32.5q-47 0 -85.5 -23t-61.5 -62.5t-23 -89.5q0 -49 23 -88.5t61.5 -62.5
t85.5 -23q39 0 72.5 16t57.5 44.5t34 65.5zM245 536l70 158h86l-86 -158h-70z" />
    <glyph glyph-name="Ccircumflex" unicode="&#x108;" horiz-adv-x="747" 
d="M629 272h83q-12 -80 -59 -143.5t-118 -100.5t-156 -37q-70 0 -131 25.5t-107.5 71.5t-72.5 106.5t-26 130.5t26 130.5t72.5 106.5t107.5 71.5t131 25.5q80 0 148.5 -33.5t115.5 -91.5t64 -132h-84q-16 53 -51.5 94t-85 64.5t-107.5 23.5q-53 0 -99 -20t-81 -55.5
t-55 -82.5t-20 -101t20 -101t55 -82.5t81 -55.5t99 -20q62 0 114 27t88 74t48 105zM416 870l111 -158h-81l-90 131h36l-89 -131h-80l110 158h83z" />
    <glyph glyph-name="ccircumflex" unicode="&#x109;" horiz-adv-x="564" 
d="M452 188h77q-12 -58 -46.5 -102.5t-84.5 -69.5t-110 -25q-69 0 -125.5 32.5t-89.5 88t-33 124.5t33 125t89.5 88.5t125.5 32.5q59 0 108 -23.5t83.5 -66t47.5 -99.5h-78q-19 53 -62 85.5t-99 32.5q-47 0 -85.5 -23t-61.5 -62.5t-23 -89.5q0 -49 23 -88.5t61.5 -62.5
t85.5 -23q39 0 72.5 16t57.5 44.5t34 65.5zM323 694l111 -158h-81l-90 131h36l-89 -131h-80l110 158h83z" />
    <glyph glyph-name="Cdotaccent" unicode="&#x10a;" horiz-adv-x="747" 
d="M629 272h83q-12 -80 -59 -143.5t-118 -100.5t-156 -37q-70 0 -131 25.5t-107.5 71.5t-72.5 106.5t-26 130.5t26 130.5t72.5 106.5t107.5 71.5t131 25.5q80 0 148.5 -33.5t115.5 -91.5t64 -132h-84q-16 53 -51.5 94t-85 64.5t-107.5 23.5q-53 0 -99 -20t-81 -55.5
t-55 -82.5t-20 -101t20 -101t55 -82.5t81 -55.5t99 -20q62 0 114 27t88 74t48 105zM375 735q-25 0 -40.5 15.5t-15.5 39.5t15.5 39.5t40.5 15.5t40.5 -15.5t15.5 -39.5t-15.5 -39.5t-40.5 -15.5z" />
    <glyph glyph-name="cdotaccent" unicode="&#x10b;" horiz-adv-x="564" 
d="M452 188h77q-12 -58 -46.5 -102.5t-84.5 -69.5t-110 -25q-69 0 -125.5 32.5t-89.5 88t-33 124.5t33 125t89.5 88.5t125.5 32.5q59 0 108 -23.5t83.5 -66t47.5 -99.5h-78q-19 53 -62 85.5t-99 32.5q-47 0 -85.5 -23t-61.5 -62.5t-23 -89.5q0 -49 23 -88.5t61.5 -62.5
t85.5 -23q39 0 72.5 16t57.5 44.5t34 65.5zM282 559q-25 0 -40.5 15.5t-15.5 39.5t15.5 39.5t40.5 15.5t40.5 -15.5t15.5 -39.5t-15.5 -39.5t-40.5 -15.5z" />
    <glyph glyph-name="Ccaron" unicode="&#x10c;" horiz-adv-x="747" 
d="M629 272h83q-12 -80 -59 -143.5t-118 -100.5t-156 -37q-70 0 -131 25.5t-107.5 71.5t-72.5 106.5t-26 130.5t26 130.5t72.5 106.5t107.5 71.5t131 25.5q80 0 148.5 -33.5t115.5 -91.5t64 -132h-84q-16 53 -51.5 94t-85 64.5t-107.5 23.5q-53 0 -99 -20t-81 -55.5
t-55 -82.5t-20 -101t20 -101t55 -82.5t81 -55.5t99 -20q62 0 114 27t88 74t48 105zM334 712l-111 158h81l90 -131h-36l89 131h80l-110 -158h-83z" />
    <glyph glyph-name="ccaron" unicode="&#x10d;" horiz-adv-x="564" 
d="M452 188h77q-12 -58 -46.5 -102.5t-84.5 -69.5t-110 -25q-69 0 -125.5 32.5t-89.5 88t-33 124.5t33 125t89.5 88.5t125.5 32.5q59 0 108 -23.5t83.5 -66t47.5 -99.5h-78q-19 53 -62 85.5t-99 32.5q-47 0 -85.5 -23t-61.5 -62.5t-23 -89.5q0 -49 23 -88.5t61.5 -62.5
t85.5 -23q39 0 72.5 16t57.5 44.5t34 65.5zM241 536l-111 158h81l90 -131h-36l89 131h80l-110 -158h-83z" />
    <glyph glyph-name="Dcaron" unicode="&#x10e;" horiz-adv-x="551" 
d="M75 0v650h80q105 0 184.5 -42t124.5 -115t45 -168q0 -94 -45 -167.5t-124.5 -115.5t-184.5 -42h-80zM155 33l-31 42h48q74 0 131.5 33t90.5 89.5t33 127.5t-33 127.5t-90.5 89.5t-131.5 33h-48l31 41v-583zM202 712l-111 158h81l90 -131h-36l89 131h80l-110 -158h-83z
" />
    <glyph glyph-name="dcaron" unicode="&#x10f;" horiz-adv-x="678" 
d="M477 0h-168q-79 0 -140 31t-95 87t-34 129q0 68 29 121t79.5 83.5t115.5 30.5q62 0 114.5 -27.5t82.5 -74.5l-40 -38q-26 31 -67 50t-80 19q-46 0 -81 -21t-55 -58.5t-20 -86.5q0 -51 23.5 -90.5t66 -62t97.5 -22.5h112l-18 -20v600h78v-650zM567 453v197h79l-15 -197
h-64z" />
    <glyph glyph-name="Dcroat" unicode="&#x110;" horiz-adv-x="566" 
d="M291 288h-281v75h281v-75zM90 0v650h80q105 0 184.5 -42t124.5 -115t45 -168q0 -94 -45 -167.5t-124.5 -115.5t-184.5 -42h-80zM170 33l-31 42h48q74 0 131.5 33t90.5 89.5t33 127.5t-33 127.5t-90.5 89.5t-131.5 33h-48l31 41v-583z" />
    <glyph glyph-name="dcroat" unicode="&#x111;" horiz-adv-x="549" 
d="M279 590h290v-66h-290v66zM477 0h-168q-79 0 -140 30t-95 83.5t-34 123.5q0 65 29 116t79.5 80t115.5 29q62 0 114.5 -27.5t82.5 -74.5l-40 -37q-26 31 -67 50t-80 19q-46 0 -81 -20t-55 -55.5t-20 -81.5q0 -48 23.5 -85.5t66 -58.5t97.5 -21h112l-18 -20v600h78v-650z
" />
    <glyph glyph-name="Emacron" unicode="&#x112;" horiz-adv-x="460" 
d="M75 0v650h343v-75h-300l37 35v-426l-58 -97q0 87 33.5 150t95.5 97t147 34h15v-75h-15q-100 0 -159 -55.5t-59 -150.5v-47l-53 35h316v-75h-343zM118 815h250v-70h-250v70z" />
    <glyph glyph-name="emacron" unicode="&#x113;" horiz-adv-x="558" 
d="M283 -9q-67 0 -122.5 32.5t-88 88.5t-32.5 124q0 67 32.5 123t88 89.5t122.5 33.5t120.5 -29.5t85 -81.5t31.5 -120v-27h-434v64h380l-23 -38v13q0 45 -21.5 78.5t-57.5 52.5t-81 19q-43 0 -81 -22t-61 -59t-23 -83v-21q0 -48 23.5 -86t61 -59.5t80.5 -21.5q51 0 91.5 21
t66.5 65h77q-18 -48 -52.5 -83t-81 -54t-101.5 -19zM163 639h250v-70h-250v70z" />
    <glyph glyph-name="Ebreve" unicode="&#x114;" horiz-adv-x="460" 
d="M75 0v650h343v-75h-300l37 35v-426l-58 -97q0 87 33.5 150t95.5 97t147 34h15v-75h-15q-100 0 -159 -55.5t-59 -150.5v-47l-53 35h316v-75h-343zM243 772q38 0 60 18.5t22 54.5v25h64v-25q0 -66 -40 -101t-106 -35q-67 0 -106.5 35t-39.5 101v25h64v-25q0 -36 21.5 -54.5
t60.5 -18.5z" />
    <glyph glyph-name="ebreve" unicode="&#x115;" horiz-adv-x="558" 
d="M283 -9q-67 0 -122.5 32.5t-88 88.5t-32.5 124q0 67 32.5 123t88 89.5t122.5 33.5t120.5 -29.5t85 -81.5t31.5 -120v-27h-434v64h380l-23 -38v13q0 45 -21.5 78.5t-57.5 52.5t-81 19q-43 0 -81 -22t-61 -59t-23 -83v-21q0 -48 23.5 -86t61 -59.5t80.5 -21.5q51 0 91.5 21
t66.5 65h77q-18 -48 -52.5 -83t-81 -54t-101.5 -19zM288 596q38 0 60 18.5t22 54.5v25h64v-25q0 -66 -40 -101t-106 -35q-67 0 -106.5 35t-39.5 101v25h64v-25q0 -36 21.5 -54.5t60.5 -18.5z" />
    <glyph glyph-name="Edotaccent" unicode="&#x116;" horiz-adv-x="460" 
d="M75 0v650h343v-75h-300l37 35v-426l-58 -97q0 87 33.5 150t95.5 97t147 34h15v-75h-15q-100 0 -159 -55.5t-59 -150.5v-47l-53 35h316v-75h-343zM243 735q-25 0 -40.5 15.5t-15.5 39.5t15.5 39.5t40.5 15.5t40.5 -15.5t15.5 -39.5t-15.5 -39.5t-40.5 -15.5z" />
    <glyph glyph-name="edotaccent" unicode="&#x117;" horiz-adv-x="558" 
d="M283 -9q-67 0 -122.5 32.5t-88 88.5t-32.5 124q0 67 32.5 123t88 89.5t122.5 33.5t120.5 -29.5t85 -81.5t31.5 -120v-27h-434v64h380l-23 -38v13q0 45 -21.5 78.5t-57.5 52.5t-81 19q-43 0 -81 -22t-61 -59t-23 -83v-21q0 -48 23.5 -86t61 -59.5t80.5 -21.5q51 0 91.5 21
t66.5 65h77q-18 -48 -52.5 -83t-81 -54t-101.5 -19zM288 559q-25 0 -40.5 15.5t-15.5 39.5t15.5 39.5t40.5 15.5t40.5 -15.5t15.5 -39.5t-15.5 -39.5t-40.5 -15.5z" />
    <glyph glyph-name="Eogonek" unicode="&#x118;" horiz-adv-x="460" 
d="M75 0v650h343v-75h-300l37 35v-426l-58 -97q0 87 33.5 150t95.5 97t147 34h15v-75h-15q-100 0 -159 -55.5t-59 -150.5v-47l-53 35h316v-75q-34 -18 -52 -37t-18 -38q0 -15 10.5 -23t29.5 -8h30v-60h-34q-47 0 -75.5 23t-28.5 62q0 21 10.5 39.5t31 35.5t49.5 31v-25h-296
z" />
    <glyph glyph-name="eogonek" unicode="&#x119;" horiz-adv-x="558" 
d="M354 -166h-34q-47 0 -75.5 23.5t-28.5 63.5q0 20 10 39.5t33 38.5t64 36l4 -37q-8 -3 -18.5 -5t-25.5 -2q-67 0 -122.5 32.5t-88 88.5t-32.5 124q0 67 32.5 123t88 89.5t122.5 33.5t120.5 -29.5t85 -81.5t31.5 -120v-27h-434v64h380l-23 -38v13q0 45 -21.5 78.5
t-57.5 52.5t-81 19q-43 0 -81 -22t-61 -59t-23 -83v-21q0 -48 23.5 -86t61 -59.5t80.5 -21.5q51 0 91.5 21t66.5 65h77q-18 -46 -44 -74.5t-56 -45t-59 -27.5q-46 -17 -60.5 -36t-14.5 -32q0 -19 10.5 -28.5t29.5 -9.5h30v-60z" />
    <glyph glyph-name="Ecaron" unicode="&#x11a;" horiz-adv-x="460" 
d="M75 0v650h343v-75h-300l37 35v-426l-58 -97q0 87 33.5 150t95.5 97t147 34h15v-75h-15q-100 0 -159 -55.5t-59 -150.5v-47l-53 35h316v-75h-343zM202 712l-111 158h81l90 -131h-36l89 131h80l-110 -158h-83z" />
    <glyph glyph-name="ecaron" unicode="&#x11b;" horiz-adv-x="558" 
d="M283 -9q-67 0 -122.5 32.5t-88 88.5t-32.5 124q0 67 32.5 123t88 89.5t122.5 33.5t120.5 -29.5t85 -81.5t31.5 -120v-27h-434v64h380l-23 -38v13q0 45 -21.5 78.5t-57.5 52.5t-81 19q-43 0 -81 -22t-61 -59t-23 -83v-21q0 -48 23.5 -86t61 -59.5t80.5 -21.5q51 0 91.5 21
t66.5 65h77q-18 -48 -52.5 -83t-81 -54t-101.5 -19zM247 536l-111 158h81l90 -131h-36l89 131h80l-110 -158h-83z" />
    <glyph glyph-name="Gcircumflex" unicode="&#x11c;" horiz-adv-x="766" 
d="M684 246q-18 -77 -61.5 -134.5t-106 -89t-137.5 -31.5q-70 0 -131 25.5t-107.5 71.5t-72.5 106.5t-26 130.5t26 130.5t72.5 106.5t107.5 71.5t131 25.5q80 0 148 -32.5t115.5 -90.5t64.5 -134h-85q-16 55 -52.5 95.5t-85.5 63.5t-105 23q-53 0 -99 -20t-81 -55.5
t-55 -82.5t-20 -101t20 -101t55 -82.5t81 -55.5t99 -20q62 0 114 26.5t88 73t48 106.5h82v-272h-76v246h49zM426 870l111 -158h-81l-90 131h36l-89 -131h-80l110 158h83z" />
    <glyph glyph-name="gcircumflex" unicode="&#x11d;" horiz-adv-x="502" 
d="M238 88q-60 0 -108 25.5t-75.5 70.5t-27.5 101t28 100.5t76.5 70.5t108.5 26q65 0 117 -28v-21q46 -21 70 -60t24 -88q0 -56 -29 -101t-77 -70.5t-107 -25.5zM376 285q0 38 -18 68t-48.5 47t-69.5 17q-38 0 -69 -17t-49 -47t-18 -68q0 -37 18 -67t49 -47.5t69 -17.5
t69 18t49 48t18 66zM51 -150v73h244q44 0 70 22.5t26 60.5t-26 60t-70 22h-57v54h57q53 0 92.5 -18t61.5 -50t22 -76q0 -43 -20.5 -76.5t-60 -52.5t-95.5 -19h-244zM295 415l-6 58h201v-65zM287 693l111 -158h-81l-90 131h36l-89 -131h-80l110 158h83z" />
    <glyph glyph-name="Gbreve" unicode="&#x11e;" horiz-adv-x="766" 
d="M684 246q-18 -77 -61.5 -134.5t-106 -89t-137.5 -31.5q-70 0 -131 25.5t-107.5 71.5t-72.5 106.5t-26 130.5t26 130.5t72.5 106.5t107.5 71.5t131 25.5q80 0 148 -32.5t115.5 -90.5t64.5 -134h-85q-16 55 -52.5 95.5t-85.5 63.5t-105 23q-53 0 -99 -20t-81 -55.5
t-55 -82.5t-20 -101t20 -101t55 -82.5t81 -55.5t99 -20q62 0 114 26.5t88 73t48 106.5h82v-272h-76v246h49zM385 772q38 0 60 18.5t22 54.5v25h64v-25q0 -66 -40 -101t-106 -35q-67 0 -106.5 35t-39.5 101v25h64v-25q0 -36 21.5 -54.5t60.5 -18.5z" />
    <glyph glyph-name="gbreve" unicode="&#x11f;" horiz-adv-x="502" 
d="M238 88q-60 0 -108 25.5t-75.5 70.5t-27.5 101t28 100.5t76.5 70.5t108.5 26q65 0 117 -28v-21q46 -21 70 -60t24 -88q0 -56 -29 -101t-77 -70.5t-107 -25.5zM376 285q0 38 -18 68t-48.5 47t-69.5 17q-38 0 -69 -17t-49 -47t-18 -68q0 -37 18 -67t49 -47.5t69 -17.5
t69 18t49 48t18 66zM51 -150v73h244q44 0 70 22.5t26 60.5t-26 60t-70 22h-57v54h57q53 0 92.5 -18t61.5 -50t22 -76q0 -43 -20.5 -76.5t-60 -52.5t-95.5 -19h-244zM295 415l-6 58h201v-65zM243 596q38 0 60 18.5t22 54.5v25h64v-25q0 -66 -40 -101t-106 -35
q-67 0 -106.5 35t-39.5 101v25h64v-25q0 -36 21.5 -54.5t60.5 -18.5z" />
    <glyph glyph-name="Gdotaccent" unicode="&#x120;" horiz-adv-x="766" 
d="M684 246q-18 -77 -61.5 -134.5t-106 -89t-137.5 -31.5q-70 0 -131 25.5t-107.5 71.5t-72.5 106.5t-26 130.5t26 130.5t72.5 106.5t107.5 71.5t131 25.5q80 0 148 -32.5t115.5 -90.5t64.5 -134h-85q-16 55 -52.5 95.5t-85.5 63.5t-105 23q-53 0 -99 -20t-81 -55.5
t-55 -82.5t-20 -101t20 -101t55 -82.5t81 -55.5t99 -20q62 0 114 26.5t88 73t48 106.5h82v-272h-76v246h49zM385 735q-25 0 -40.5 15.5t-15.5 39.5t15.5 39.5t40.5 15.5t40.5 -15.5t15.5 -39.5t-15.5 -39.5t-40.5 -15.5z" />
    <glyph glyph-name="gdotaccent" unicode="&#x121;" horiz-adv-x="502" 
d="M238 88q-60 0 -108 25.5t-75.5 70.5t-27.5 101t28 100.5t76.5 70.5t108.5 26q65 0 117 -28v-21q46 -21 70 -60t24 -88q0 -56 -29 -101t-77 -70.5t-107 -25.5zM376 285q0 38 -18 68t-48.5 47t-69.5 17q-38 0 -69 -17t-49 -47t-18 -68q0 -37 18 -67t49 -47.5t69 -17.5
t69 18t49 48t18 66zM51 -150v73h244q44 0 70 22.5t26 60.5t-26 60t-70 22h-57v54h57q53 0 92.5 -18t61.5 -50t22 -76q0 -43 -20.5 -76.5t-60 -52.5t-95.5 -19h-244zM295 415l-6 58h201v-65zM241 559q-25 0 -40.5 15.5t-15.5 39.5t15.5 39.5t40.5 15.5t40.5 -15.5t15.5 -39.5
t-15.5 -39.5t-40.5 -15.5z" />
    <glyph glyph-name="uni0122" unicode="&#x122;" horiz-adv-x="766" 
d="M684 246q-18 -77 -61.5 -134.5t-106 -89t-137.5 -31.5q-70 0 -131 25.5t-107.5 71.5t-72.5 106.5t-26 130.5t26 130.5t72.5 106.5t107.5 71.5t131 25.5q80 0 148 -32.5t115.5 -90.5t64.5 -134h-85q-16 55 -52.5 95.5t-85.5 63.5t-105 23q-53 0 -99 -20t-81 -55.5
t-55 -82.5t-20 -101t20 -101t55 -82.5t81 -55.5t99 -20q62 0 114 26.5t88 73t48 106.5h82v-272h-76v246h49zM338 -225q15 30 25.5 58.5t14.5 53.5l31 -35q-8 -10 -27 -10q-22 0 -36.5 13.5t-14.5 35.5t14.5 36t36.5 14q23 0 37 -14.5t14 -38.5q0 -22 -11 -51.5t-31 -61.5
h-53z" />
    <glyph glyph-name="uni0123" unicode="&#x123;" horiz-adv-x="502" 
d="M238 88q-60 0 -108 25.5t-75.5 70.5t-27.5 101t28 100.5t76.5 70.5t108.5 26q65 0 117 -28v-21q46 -21 70 -60t24 -88q0 -56 -29 -101t-77 -70.5t-107 -25.5zM376 285q0 38 -18 68t-48.5 47t-69.5 17q-38 0 -69 -17t-49 -47t-18 -68q0 -37 18 -67t49 -47.5t69 -17.5
t69 18t49 48t18 66zM51 -150v73h244q44 0 70 22.5t26 60.5t-26 60t-70 22h-57v54h57q53 0 92.5 -18t61.5 -50t22 -76q0 -43 -20.5 -76.5t-60 -52.5t-95.5 -19h-244zM295 415l-6 58h201v-65zM285 725q-15 -30 -25 -58t-15 -54l-31 35q8 10 27 10q22 0 36.5 -13.5t14.5 -35.5
t-14 -36t-37 -14q-22 0 -36.5 14.5t-14.5 38.5q0 22 11.5 52t30.5 61h53z" />
    <glyph glyph-name="Hcircumflex" unicode="&#x124;" horiz-adv-x="580" 
d="M75 0v650h80v-488h-40q15 69 59.5 119t112.5 77t153 27h40v-75h-60q-80 0 -139.5 -35t-92.5 -97.5t-33 -146.5v-31h-80zM505 0h-80v650h80v-650zM331 870l111 -158h-81l-90 131h36l-89 -131h-80l110 158h83z" />
    <glyph glyph-name="hcircumflex" unicode="&#x125;" horiz-adv-x="508" 
d="M62 0v650h78v-267l-55 -104q0 92 50.5 147.5t134.5 55.5q81 0 129.5 -51.5t48.5 -138.5v-292h-78v289q0 56 -31 89.5t-84 33.5q-52 0 -83.5 -33.5t-31.5 -89.5v-289h-78zM265 870l111 -158h-81l-90 131h36l-89 -131h-80l110 158h83z" />
    <glyph glyph-name="Hbar" unicode="&#x126;" horiz-adv-x="610" 
d="M90 0v650h80v-488h-40q15 69 59.5 119t112.5 77t153 27h40v-75h-60q-80 0 -139.5 -34.5t-92.5 -97.5t-33 -147v-31h-80zM440 0v650h80v-650h-80zM5 545h600v-72h-600v72z" />
    <glyph glyph-name="hbar" unicode="&#x127;" horiz-adv-x="508" 
d="M-20 590h290v-66h-290v66zM62 0v650h78v-287l-55 -104q0 92 50.5 147.5t134.5 55.5q81 0 129.5 -51.5t48.5 -138.5v-272h-78v269q0 56 -31 89.5t-84 33.5q-52 0 -83.5 -33.5t-31.5 -89.5v-269h-78z" />
    <glyph glyph-name="Itilde" unicode="&#x128;" horiz-adv-x="230" 
d="M155 0h-80v650h80v-650zM-35 712v64q0 46 21.5 71.5t60.5 25.5q26 0 43.5 -10.5t30 -25.5t21.5 -30t17.5 -25.5t19.5 -10.5q12 0 17.5 8.5t5.5 26.5v64h63v-64q0 -46 -21.5 -71.5t-60.5 -25.5q-26 0 -43.5 10.5t-29.5 25.5t-21.5 30t-18 25.5t-19.5 10.5q-23 0 -23 -35
v-64h-63z" />
    <glyph glyph-name="itilde" unicode="&#x129;" horiz-adv-x="202" 
d="M62 473h78v-473h-78v473zM-47 536v64q0 46 21.5 71.5t60.5 25.5q26 0 43.5 -10.5t30 -25.5t21.5 -30t17.5 -25.5t19.5 -10.5q12 0 17.5 8.5t5.5 26.5v64h63v-64q0 -46 -21.5 -71.5t-60.5 -25.5q-26 0 -43.5 10.5t-29.5 25.5t-21.5 30t-18 25.5t-19.5 10.5q-23 0 -23 -35
v-64h-63z" />
    <glyph glyph-name="Imacron" unicode="&#x12a;" horiz-adv-x="230" 
d="M155 0h-80v650h80v-650zM-10 815h250v-70h-250v70z" />
    <glyph glyph-name="imacron" unicode="&#x12b;" horiz-adv-x="202" 
d="M62 473h78v-473h-78v473zM-23 650h250v-70h-250v70z" />
    <glyph glyph-name="Ibreve" unicode="&#x12c;" horiz-adv-x="230" 
d="M155 0h-80v650h80v-650zM115 772q38 0 60 18.5t22 54.5v25h64v-25q0 -66 -40 -101t-106 -35q-67 0 -106.5 35t-39.5 101v25h64v-25q0 -36 21.5 -54.5t60.5 -18.5z" />
    <glyph glyph-name="ibreve" unicode="&#x12d;" horiz-adv-x="202" 
d="M62 473h78v-473h-78v473zM103 596q38 0 60 18.5t22 54.5v25h64v-25q0 -66 -40 -101t-106 -35q-67 0 -106.5 35t-39.5 101v25h64v-25q0 -36 21.5 -54.5t60.5 -18.5z" />
    <glyph glyph-name="Iogonek" unicode="&#x12e;" horiz-adv-x="230" 
d="M108 25v-25h-33v650h80v-650q-34 -18 -52 -37t-18 -38q0 -15 10.5 -23t29.5 -8h30v-60h-34q-47 0 -75.5 23t-28.5 62q0 21 10.5 39.5t31 35.5t49.5 31z" />
    <glyph glyph-name="iogonek" unicode="&#x12f;" horiz-adv-x="202" 
d="M101 552q-22 0 -36.5 14t-14.5 36t14.5 36t36.5 14q23 0 37 -14t14 -36t-14 -36t-37 -14zM93 25v-25h-31v473h78v-473q-34 -18 -52 -37t-18 -38q0 -15 10.5 -23t29.5 -8h30v-60h-34q-47 0 -75.5 23t-28.5 62q0 21 10.5 39.5t30.5 35.5t50 31z" />
    <glyph glyph-name="Idotaccent" unicode="&#x130;" horiz-adv-x="230" 
d="M155 0h-80v650h80v-650zM115 735q-25 0 -40.5 15.5t-15.5 39.5t15.5 39.5t40.5 15.5t40.5 -15.5t15.5 -39.5t-15.5 -39.5t-40.5 -15.5z" />
    <glyph glyph-name="dotlessi" unicode="&#x131;" horiz-adv-x="202" 
d="M62 473h78v-473h-78v473z" />
    <glyph glyph-name="IJ" unicode="&#x132;" horiz-adv-x="532" 
d="M155 0h-80v650h80v-650zM386 608l39 -33h-180v75h221v-463q0 -88 -52 -137.5t-145 -49.5h-24v75h24q56 0 86.5 28.5t30.5 83.5v421z" />
    <glyph glyph-name="ij" unicode="&#x133;" horiz-adv-x="386" 
d="M62 473h78v-473h-78v473zM101 552q-22 0 -36.5 14t-14.5 36t14.5 36t36.5 14q23 0 37 -14t14 -36t-14 -36t-37 -14zM246 473h78v-488q0 -67 -36.5 -101t-107.5 -34h-13v70h13q35 0 50.5 15.5t15.5 49.5v488zM285 552q-22 0 -36.5 14t-14.5 36t14.5 36t36.5 14
q23 0 37 -14t14 -36t-14 -36t-37 -14z" />
    <glyph glyph-name="Jcircumflex" unicode="&#x134;" horiz-adv-x="323" 
d="M177 608l39 -33h-180v75h221v-463q0 -88 -52 -137.5t-145 -49.5h-24v75h24q56 0 86.5 28.5t30.5 83.5v421zM199 870l111 -158h-81l-90 131h36l-89 -131h-80l110 158h83z" />
    <glyph glyph-name="jcircumflex" unicode="&#x135;" horiz-adv-x="202" 
d="M62 473h78v-488q0 -67 -36.5 -101t-107.5 -34h-13v70h13q35 0 50.5 15.5t15.5 49.5v488zM142 694l111 -158h-81l-90 131h36l-89 -131h-80l110 158h83z" />
    <glyph glyph-name="uni0136" unicode="&#x136;" horiz-adv-x="555" 
d="M75 0v650h80v-474l-57 -16l319 490h90l-248 -381l-55 -3q20 14 45 22t47 8q66 0 116 -27t77.5 -75t27.5 -112v-82h-80v77q0 42 -18 74.5t-49.5 51t-73.5 18.5q-41 0 -73 -18.5t-50 -51t-18 -74.5v-77h-80zM254 -225q15 30 25.5 58.5t14.5 53.5l31 -35q-8 -10 -27 -10
q-22 0 -36.5 13.5t-14.5 35.5t14.5 36t36.5 14q23 0 37 -14.5t14 -38.5q0 -22 -11 -51.5t-31 -61.5h-53z" />
    <glyph glyph-name="uni0137" unicode="&#x137;" horiz-adv-x="504" 
d="M62 0v650h78v-457l-59 -122q0 38 4 64.5t14.5 46.5t28.5 41l223 250h93l-215 -241h-50q16 14 40.5 22.5t43.5 8.5q94 0 147.5 -51.5t53.5 -141.5v-70h-78v70q0 59 -33 92t-90 33t-90 -33t-33 -91v-71h-78zM220 -225q15 30 25.5 58.5t14.5 53.5l31 -35q-8 -10 -27 -10
q-22 0 -36.5 13.5t-14.5 35.5t14.5 36t36.5 14q23 0 37 -14.5t14 -38.5q0 -22 -11 -51.5t-31 -61.5h-53z" />
    <glyph glyph-name="Lacute" unicode="&#x139;" horiz-adv-x="428" 
d="M395 0h-320v650h80v-575h240v-75zM80 712l70 158h86l-86 -158h-70z" />
    <glyph glyph-name="lacute" unicode="&#x13a;" horiz-adv-x="239" 
d="M214 0h-15q-72 0 -108 35t-36 105v510h78v-508q0 -37 16.5 -54.5t51.5 -17.5h13v-70zM62 712l70 158h86l-86 -158h-70z" />
    <glyph glyph-name="uni013B" unicode="&#x13b;" horiz-adv-x="428" 
d="M395 0h-320v650h80v-575h240v-75zM191 -225q15 30 25.5 58.5t14.5 53.5l31 -35q-8 -10 -27 -10q-22 0 -36.5 13.5t-14.5 35.5t14.5 36t36.5 14q23 0 37 -14.5t14 -38.5q0 -22 -11 -51.5t-31 -61.5h-53z" />
    <glyph glyph-name="uni013C" unicode="&#x13c;" horiz-adv-x="239" 
d="M214 0h-15q-72 0 -108 35t-36 105v510h78v-508q0 -37 16.5 -54.5t51.5 -17.5h13v-70zM80 -225q15 30 25.5 58.5t14.5 53.5l31 -35q-8 -10 -27 -10q-22 0 -36.5 13.5t-14.5 35.5t14.5 36t36.5 14q23 0 37 -14.5t14 -38.5q0 -22 -11 -51.5t-31 -61.5h-53z" />
    <glyph glyph-name="Lcaron" unicode="&#x13d;" horiz-adv-x="428" 
d="M395 0h-320v650h80v-575h240v-75zM316 453v197h79l-15 -197h-64z" />
    <glyph glyph-name="lcaron" unicode="&#x13e;" horiz-adv-x="334" 
d="M214 0h-15q-72 0 -108 35t-36 105v510h78v-508q0 -37 16.5 -54.5t51.5 -17.5h13v-70zM223 453v197h79l-15 -197h-64z" />
    <glyph glyph-name="Ldot" unicode="&#x13f;" horiz-adv-x="457" 
d="M395 0h-320v650h80v-575h240v-75zM342 267q-22 0 -36.5 14t-14.5 36t14.5 36t36.5 14q23 0 37 -14t14 -36t-14 -36t-37 -14z" />
    <glyph glyph-name="ldot" unicode="&#x140;" horiz-adv-x="339" 
d="M214 0h-15q-72 0 -108 35t-36 105v510h78v-508q0 -37 16.5 -54.5t51.5 -17.5h13v-70zM262 253q-22 0 -36.5 14t-14.5 36t14.5 36t36.5 14q23 0 37 -14t14 -36t-14 -36t-37 -14z" />
    <glyph glyph-name="Lslash" unicode="&#x141;" horiz-adv-x="443" 
d="M321 335l-311 -154v80l311 154v-80zM410 0h-320v650h80v-575h240v-75z" />
    <glyph glyph-name="lslash" unicode="&#x142;" horiz-adv-x="272" 
d="M242 337l-227 -107v77l227 106v-76zM242 0h-15q-72 0 -108 35t-36 105v510h78v-508q0 -37 16.5 -54.5t51.5 -17.5h13v-70z" />
    <glyph glyph-name="Nacute" unicode="&#x143;" horiz-adv-x="580" 
d="M75 0v650h75q58 -136 129 -243.5t166 -199.5l-20 -10v453h80v-650h-80v149l15 -40q-60 54 -114.5 115t-100.5 127.5t-81 134.5h11v-486h-80zM248 712l70 158h86l-86 -158h-70z" />
    <glyph glyph-name="nacute" unicode="&#x144;" horiz-adv-x="508" 
d="M135 349l-50 -70q0 92 50.5 147.5t134.5 55.5q81 0 129.5 -51.5t48.5 -138.5v-292h-78v289q0 56 -31 89.5t-84 33.5q-52 0 -83.5 -33.5t-31.5 -89.5v-289h-78v473h73v-124zM218 536l70 158h86l-86 -158h-70z" />
    <glyph glyph-name="uni0145" unicode="&#x145;" horiz-adv-x="580" 
d="M75 0v650h75q58 -136 129 -243.5t166 -199.5l-20 -10v453h80v-650h-80v149l15 -40q-60 54 -114.5 115t-100.5 127.5t-81 134.5h11v-486h-80zM247 -225q15 30 25.5 58.5t14.5 53.5l31 -35q-8 -10 -27 -10q-22 0 -36.5 13.5t-14.5 35.5t14.5 36t36.5 14q23 0 37 -14.5
t14 -38.5q0 -22 -11 -51.5t-31 -61.5h-53z" />
    <glyph glyph-name="uni0146" unicode="&#x146;" horiz-adv-x="508" 
d="M135 349l-50 -70q0 92 50.5 147.5t134.5 55.5q81 0 129.5 -51.5t48.5 -138.5v-292h-78v289q0 56 -31 89.5t-84 33.5q-52 0 -83.5 -33.5t-31.5 -89.5v-289h-78v473h73v-124zM213 -225q15 30 25.5 58.5t14.5 53.5l31 -35q-8 -10 -27 -10q-22 0 -36.5 13.5t-14.5 35.5
t14.5 36t36.5 14q23 0 37 -14.5t14 -38.5q0 -22 -11 -51.5t-31 -61.5h-53z" />
    <glyph glyph-name="Ncaron" unicode="&#x147;" horiz-adv-x="580" 
d="M75 0v650h75q58 -136 129 -243.5t166 -199.5l-20 -10v453h80v-650h-80v149l15 -40q-60 54 -114.5 115t-100.5 127.5t-81 134.5h11v-486h-80zM247 712l-111 158h81l90 -131h-36l89 131h80l-110 -158h-83z" />
    <glyph glyph-name="ncaron" unicode="&#x148;" horiz-adv-x="508" 
d="M135 349l-50 -70q0 92 50.5 147.5t134.5 55.5q81 0 129.5 -51.5t48.5 -138.5v-292h-78v289q0 56 -31 89.5t-84 33.5q-52 0 -83.5 -33.5t-31.5 -89.5v-289h-78v473h73v-124zM214 536l-111 158h81l90 -131h-36l89 131h80l-110 -158h-83z" />
    <glyph glyph-name="Omacron" unicode="&#x14c;" horiz-adv-x="758" 
d="M124 325q0 -54 20 -101t55 -82.5t81 -55.5t99 -20t99 20t81 55.5t55 82.5t20 101t-20 101t-55 82.5t-81 55.5t-99 20t-99 -20t-81 -55.5t-55 -82.5t-20 -101zM42 325q0 70 26 130.5t72.5 106.5t107.5 71.5t131 25.5t131 -25.5t107.5 -71.5t72.5 -106.5t26 -130.5
t-26 -130.5t-72.5 -106.5t-107.5 -71.5t-131 -25.5t-131 25.5t-107.5 71.5t-72.5 106.5t-26 130.5zM254 815h250v-70h-250v70z" />
    <glyph glyph-name="omacron" unicode="&#x14d;" horiz-adv-x="580" 
d="M290 -9q-70 0 -127 32.5t-90 88t-33 124.5t33 125t90 88.5t127 32.5q71 0 127.5 -32.5t89.5 -88.5t33 -125q0 -68 -33 -124t-89.5 -88.5t-127.5 -32.5zM290 411q-48 0 -87 -23.5t-62 -63.5t-23 -88t23 -87.5t62 -63t87 -23.5t87 23.5t62 63t23 87.5t-23 88t-62 63.5
t-87 23.5zM165 639h250v-70h-250v70z" />
    <glyph glyph-name="Obreve" unicode="&#x14e;" horiz-adv-x="758" 
d="M124 325q0 -54 20 -101t55 -82.5t81 -55.5t99 -20t99 20t81 55.5t55 82.5t20 101t-20 101t-55 82.5t-81 55.5t-99 20t-99 -20t-81 -55.5t-55 -82.5t-20 -101zM42 325q0 70 26 130.5t72.5 106.5t107.5 71.5t131 25.5t131 -25.5t107.5 -71.5t72.5 -106.5t26 -130.5
t-26 -130.5t-72.5 -106.5t-107.5 -71.5t-131 -25.5t-131 25.5t-107.5 71.5t-72.5 106.5t-26 130.5zM379 772q38 0 60 18.5t22 54.5v25h64v-25q0 -66 -40 -101t-106 -35q-67 0 -106.5 35t-39.5 101v25h64v-25q0 -36 21.5 -54.5t60.5 -18.5z" />
    <glyph glyph-name="obreve" unicode="&#x14f;" horiz-adv-x="580" 
d="M290 -9q-70 0 -127 32.5t-90 88t-33 124.5t33 125t90 88.5t127 32.5q71 0 127.5 -32.5t89.5 -88.5t33 -125q0 -68 -33 -124t-89.5 -88.5t-127.5 -32.5zM290 411q-48 0 -87 -23.5t-62 -63.5t-23 -88t23 -87.5t62 -63t87 -23.5t87 23.5t62 63t23 87.5t-23 88t-62 63.5
t-87 23.5zM290 596q38 0 60 18.5t22 54.5v25h64v-25q0 -66 -40 -101t-106 -35q-67 0 -106.5 35t-39.5 101v25h64v-25q0 -36 21.5 -54.5t60.5 -18.5z" />
    <glyph glyph-name="Ohungarumlaut" unicode="&#x150;" horiz-adv-x="758" 
d="M124 325q0 -54 20 -101t55 -82.5t81 -55.5t99 -20t99 20t81 55.5t55 82.5t20 101t-20 101t-55 82.5t-81 55.5t-99 20t-99 -20t-81 -55.5t-55 -82.5t-20 -101zM42 325q0 70 26 130.5t72.5 106.5t107.5 71.5t131 25.5t131 -25.5t107.5 -71.5t72.5 -106.5t26 -130.5
t-26 -130.5t-72.5 -106.5t-107.5 -71.5t-131 -25.5t-131 25.5t-107.5 71.5t-72.5 106.5t-26 130.5zM412 712l65 158h84l-79 -158h-70zM255 712l55 158h79l-65 -158h-69z" />
    <glyph glyph-name="ohungarumlaut" unicode="&#x151;" horiz-adv-x="580" 
d="M290 -9q-70 0 -127 32.5t-90 88t-33 124.5t33 125t90 88.5t127 32.5q71 0 127.5 -32.5t89.5 -88.5t33 -125q0 -68 -33 -124t-89.5 -88.5t-127.5 -32.5zM290 411q-48 0 -87 -23.5t-62 -63.5t-23 -88t23 -87.5t62 -63t87 -23.5t87 23.5t62 63t23 87.5t-23 88t-62 63.5
t-87 23.5zM323 536l65 158h84l-79 -158h-70zM166 536l55 158h79l-65 -158h-69z" />
    <glyph glyph-name="OE" unicode="&#x152;" horiz-adv-x="831" 
d="M463 0h-62q-78 0 -144 24t-114 67.5t-74.5 103t-26.5 130.5t26.5 130.5t74.5 103t114 67.5t144 24h62v-75h-84q-53 0 -99 -19.5t-81 -53.5t-55 -79.5t-20 -97.5t20 -97.5t55 -79.5t81 -53.5t99 -19.5h84v-75zM446 0v650h343v-75h-300l37 35v-426l-58 -87q0 83 34 144
t96 94.5t146 33.5h15v-76h-15q-100 0 -159 -53t-59 -143v-57l-53 35h316v-75h-343z" />
    <glyph glyph-name="oe" unicode="&#x153;" horiz-adv-x="980" 
d="M290 62q48 0 87 23.5t62 63t23 87.5t-23 88t-62 63.5t-87 23.5t-87 -23.5t-62 -63.5t-23 -88t23 -87.5t62 -63t87 -23.5zM290 -9q-70 0 -127 32.5t-90 88t-33 124.5t33 125t90 88.5t127 32.5q53 0 99.5 -21t80.5 -58.5t50 -88.5h-41q16 50 50 88t79.5 59t96.5 21
q68 0 121.5 -30t84.5 -82t31 -119v-27h-434v64h380l-23 -38v13q0 43 -21 77t-57 53.5t-82 19.5q-45 0 -82.5 -22.5t-60 -59.5t-22.5 -82v-21q0 -46 22.5 -84t60 -60.5t82.5 -22.5q53 0 93 21.5t65 64.5h77q-18 -48 -52.5 -83t-81 -54t-101.5 -19q-52 0 -97 20.5t-78.5 57.5
t-50.5 87h40q-16 -50 -50 -87t-80 -57.5t-99 -20.5z" />
    <glyph glyph-name="Racute" unicode="&#x154;" horiz-adv-x="562" 
d="M75 0v650h190q70 0 122.5 -25t82 -69.5t29.5 -104.5q0 -40 -10.5 -70.5t-29 -53t-42 -39.5t-49.5 -31q47 -12 80.5 -41t52 -70.5t18.5 -93.5v-52h-80v47q0 44 -18 77.5t-50 52.5t-74 19t-74 -19t-50 -52.5t-18 -77.5v-47h-80zM155 575v-357q24 22 52.5 38t57.5 29.5
t56.5 27.5t49 32t34 42.5t12.5 59.5q0 59 -40.5 93.5t-108.5 34.5h-113zM224 712l70 158h86l-86 -158h-70z" />
    <glyph glyph-name="racute" unicode="&#x155;" horiz-adv-x="325" 
d="M62 0v473h72v-124l-39 -69q0 97 48.5 149.5t137.5 52.5h12v-75h-23q-65 0 -97.5 -33t-32.5 -100v-274h-78zM135 536l70 158h86l-86 -158h-70z" />
    <glyph glyph-name="uni0156" unicode="&#x156;" horiz-adv-x="562" 
d="M75 0v650h190q70 0 122.5 -25t82 -69.5t29.5 -104.5q0 -40 -10.5 -70.5t-29 -53t-42 -39.5t-49.5 -31q47 -12 80.5 -41t52 -70.5t18.5 -93.5v-52h-80v47q0 44 -18 77.5t-50 52.5t-74 19t-74 -19t-50 -52.5t-18 -77.5v-47h-80zM155 575v-357q24 22 52.5 38t57.5 29.5
t56.5 27.5t49 32t34 42.5t12.5 59.5q0 59 -40.5 93.5t-108.5 34.5h-113zM252 -225q15 30 25.5 58.5t14.5 53.5l31 -35q-8 -10 -27 -10q-22 0 -36.5 13.5t-14.5 35.5t14.5 36t36.5 14q23 0 37 -14.5t14 -38.5q0 -22 -11 -51.5t-31 -61.5h-53z" />
    <glyph glyph-name="uni0157" unicode="&#x157;" horiz-adv-x="325" 
d="M62 0v473h72v-124l-39 -69q0 97 48.5 149.5t137.5 52.5h12v-75h-23q-65 0 -97.5 -33t-32.5 -100v-274h-78zM56 -225q15 30 25.5 58.5t14.5 53.5l31 -35q-8 -10 -27 -10q-22 0 -36.5 13.5t-14.5 35.5t14.5 36t36.5 14q23 0 37 -14.5t14 -38.5q0 -22 -11 -51.5t-31 -61.5
h-53z" />
    <glyph glyph-name="Rcaron" unicode="&#x158;" horiz-adv-x="562" 
d="M75 0v650h190q70 0 122.5 -25t82 -69.5t29.5 -104.5q0 -40 -10.5 -70.5t-29 -53t-42 -39.5t-49.5 -31q47 -12 80.5 -41t52 -70.5t18.5 -93.5v-52h-80v47q0 44 -18 77.5t-50 52.5t-74 19t-74 -19t-50 -52.5t-18 -77.5v-47h-80zM155 575v-357q24 22 52.5 38t57.5 29.5
t56.5 27.5t49 32t34 42.5t12.5 59.5q0 59 -40.5 93.5t-108.5 34.5h-113zM220 712l-111 158h81l90 -131h-36l89 131h80l-110 -158h-83z" />
    <glyph glyph-name="rcaron" unicode="&#x159;" horiz-adv-x="325" 
d="M62 0v473h72v-124l-39 -69q0 97 48.5 149.5t137.5 52.5h12v-75h-23q-65 0 -97.5 -33t-32.5 -100v-274h-78zM123 536l-111 158h81l90 -131h-36l89 131h80l-110 -158h-83z" />
    <glyph glyph-name="Sacute" unicode="&#x15a;" horiz-adv-x="490" 
d="M248 -9q-57 0 -105.5 23.5t-77.5 67.5t-29 108h80q0 -36 17 -64t47 -44t68 -16q54 0 88 29.5t34 76.5q0 34 -17 56t-45.5 37.5t-62.5 28t-68 27.5t-62.5 36t-45.5 52.5t-17 79.5q0 47 25.5 85.5t68.5 61.5t95 23q58 0 102 -23.5t69 -65t25 -96.5h-80q0 49 -32.5 79.5
t-83.5 30.5q-29 0 -53.5 -12.5t-39 -34t-14.5 -48.5q0 -33 17 -54t45.5 -36.5t62.5 -28t68 -27.5t62.5 -37t45.5 -54t17 -80q0 -52 -26.5 -93t-72.5 -64.5t-105 -23.5zM209 712l70 158h86l-86 -158h-70z" />
    <glyph glyph-name="sacute" unicode="&#x15b;" horiz-adv-x="413" 
d="M47 0v70h173q39 0 60 17t21 47q0 27 -19 41.5t-48.5 23t-63 17t-63 23t-48.5 40t-19 69.5q0 54 39 89.5t106 35.5h170v-70h-170q-34 0 -51 -14.5t-17 -38.5q0 -25 19 -39t48.5 -23t63 -17.5t63 -23.5t48.5 -41.5t19 -71.5q0 -59 -41.5 -96.5t-113.5 -37.5h-176zM169 536
l70 158h86l-86 -158h-70z" />
    <glyph glyph-name="Scircumflex" unicode="&#x15c;" horiz-adv-x="490" 
d="M248 -9q-57 0 -105.5 23.5t-77.5 67.5t-29 108h80q0 -36 17 -64t47 -44t68 -16q54 0 88 29.5t34 76.5q0 34 -17 56t-45.5 37.5t-62.5 28t-68 27.5t-62.5 36t-45.5 52.5t-17 79.5q0 47 25.5 85.5t68.5 61.5t95 23q58 0 102 -23.5t69 -65t25 -96.5h-80q0 49 -32.5 79.5
t-83.5 30.5q-29 0 -53.5 -12.5t-39 -34t-14.5 -48.5q0 -33 17 -54t45.5 -36.5t62.5 -28t68 -27.5t62.5 -37t45.5 -54t17 -80q0 -52 -26.5 -93t-72.5 -64.5t-105 -23.5zM287 870l111 -158h-81l-90 131h36l-89 -131h-80l110 158h83z" />
    <glyph glyph-name="scircumflex" unicode="&#x15d;" horiz-adv-x="413" 
d="M47 0v70h173q39 0 60 17t21 47q0 27 -19 41.5t-48.5 23t-63 17t-63 23t-48.5 40t-19 69.5q0 54 39 89.5t106 35.5h170v-70h-170q-34 0 -51 -14.5t-17 -38.5q0 -25 19 -39t48.5 -23t63 -17.5t63 -23.5t48.5 -41.5t19 -71.5q0 -59 -41.5 -96.5t-113.5 -37.5h-176zM241 694
l111 -158h-81l-90 131h36l-89 -131h-80l110 158h83z" />
    <glyph glyph-name="Scedilla" unicode="&#x15e;" horiz-adv-x="490" 
d="M288 32v-168h-78l10 168l28 -41q-57 0 -105.5 23.5t-77.5 67.5t-29 108h80q0 -36 17 -64t47 -44t68 -16q54 0 88 29.5t34 76.5q0 34 -17 56t-45.5 37.5t-62.5 28t-68 27.5t-62.5 36t-45.5 52.5t-17 79.5q0 47 25.5 85.5t68.5 61.5t95 23q58 0 102 -23.5t69 -65t25 -96.5
h-80q0 49 -32.5 79.5t-83.5 30.5q-29 0 -53.5 -12.5t-39 -34t-14.5 -48.5q0 -33 17 -54t45.5 -36.5t62.5 -28t68 -27.5t62.5 -37t45.5 -54t17 -80q0 -52 -26.5 -93t-72 -64.5t-103.5 -23.5z" />
    <glyph glyph-name="scedilla" unicode="&#x15f;" horiz-adv-x="413" 
d="M47 0v70h173q39 0 60 17t21 47q0 27 -19 41.5t-48.5 23t-63 17t-63 23t-48.5 40t-19 69.5q0 54 39 89.5t106 35.5h170v-70h-170q-34 0 -51 -14.5t-17 -38.5q0 -25 19 -39t48.5 -23t63 -17.5t63 -23.5t48.5 -41.5t19 -71.5q0 -59 -41.5 -96.5t-113.5 -37.5l17 32v-168h-78
l10 168l31 -32h-156z" />
    <glyph glyph-name="Scaron" unicode="&#x160;" horiz-adv-x="490" 
d="M248 -9q-57 0 -105.5 23.5t-77.5 67.5t-29 108h80q0 -36 17 -64t47 -44t68 -16q54 0 88 29.5t34 76.5q0 34 -17 56t-45.5 37.5t-62.5 28t-68 27.5t-62.5 36t-45.5 52.5t-17 79.5q0 47 25.5 85.5t68.5 61.5t95 23q58 0 102 -23.5t69 -65t25 -96.5h-80q0 49 -32.5 79.5
t-83.5 30.5q-29 0 -53.5 -12.5t-39 -34t-14.5 -48.5q0 -33 17 -54t45.5 -36.5t62.5 -28t68 -27.5t62.5 -37t45.5 -54t17 -80q0 -52 -26.5 -93t-72.5 -64.5t-105 -23.5zM205 712l-111 158h81l90 -131h-36l89 131h80l-110 -158h-83z" />
    <glyph glyph-name="scaron" unicode="&#x161;" horiz-adv-x="413" 
d="M47 0v70h173q39 0 60 17t21 47q0 27 -19 41.5t-48.5 23t-63 17t-63 23t-48.5 40t-19 69.5q0 54 39 89.5t106 35.5h170v-70h-170q-34 0 -51 -14.5t-17 -38.5q0 -25 19 -39t48.5 -23t63 -17.5t63 -23.5t48.5 -41.5t19 -71.5q0 -59 -41.5 -96.5t-113.5 -37.5h-176zM164 536
l-111 158h81l90 -131h-36l89 131h80l-110 -158h-83z" />
    <glyph glyph-name="uni0162" unicode="&#x162;" horiz-adv-x="462" 
d="M191 0v613l30 -29q-53 0 -105.5 -4t-90.5 -9v75q39 5 94.5 9t111.5 4t111.5 -4t94.5 -9v-75q-25 3 -57 6t-67.5 5t-71.5 2l30 29v-613h-80zM186 -225q15 30 25.5 58.5t14.5 53.5l31 -35q-8 -10 -27 -10q-22 0 -36.5 13.5t-14.5 35.5t14.5 36t36.5 14q23 0 37 -14.5
t14 -38.5q0 -22 -11 -51.5t-31 -61.5h-53z" />
    <glyph glyph-name="uni0163" unicode="&#x163;" horiz-adv-x="325" 
d="M285 403h-174v70h174v-70zM217 0q-80 0 -121 40t-41 119v426l77 20v-446q0 -46 21.5 -67.5t65.5 -21.5h68v-70h-70zM117 -225q15 30 25.5 58.5t14.5 53.5l31 -35q-8 -10 -27 -10q-22 0 -36.5 13.5t-14.5 35.5t14.5 36t36.5 14q23 0 37 -14.5t14 -38.5q0 -22 -11 -51.5
t-31 -61.5h-53z" />
    <glyph glyph-name="Tcaron" unicode="&#x164;" horiz-adv-x="462" 
d="M191 0v613l30 -29q-53 0 -105.5 -4t-90.5 -9v75q39 5 94.5 9t111.5 4t111.5 -4t94.5 -9v-75q-25 3 -57 6t-67.5 5t-71.5 2l30 29v-613h-80zM192 712l-111 158h81l90 -131h-36l89 131h80l-110 -158h-83z" />
    <glyph glyph-name="tcaron" unicode="&#x165;" horiz-adv-x="325" 
d="M285 403h-174v70h174v-70zM217 0q-80 0 -121 40t-41 119v426l77 20v-446q0 -46 21.5 -67.5t65.5 -21.5h68v-70h-70zM208 551v197h79l-15 -197h-64z" />
    <glyph glyph-name="Tbar" unicode="&#x166;" horiz-adv-x="462" 
d="M191 0v613l30 -29q-53 0 -105.5 -4t-90.5 -9v75q39 5 94.5 9t111.5 4t111.5 -4t94.5 -9v-75q-25 3 -57 6t-67.5 5t-71.5 2l30 29v-613h-80zM65 347h332v-72h-332v72z" />
    <glyph glyph-name="tbar" unicode="&#x167;" horiz-adv-x="345" 
d="M5 276h277v-66h-277v66zM305 403h-174v70h174v-70zM237 0q-80 0 -121 40t-41 119v426l77 20v-446q0 -46 21.5 -67.5t65.5 -21.5h68v-70h-70z" />
    <glyph glyph-name="Utilde" unicode="&#x168;" horiz-adv-x="553" 
d="M277 69q38 0 67 16.5t46 45.5t17 66v453h80v-453q0 -61 -26.5 -107.5t-73.5 -72.5t-110 -26t-110.5 26t-74 72.5t-26.5 107.5v453h80v-453q0 -37 17 -66t46.5 -45.5t67.5 -16.5zM127 712v64q0 46 21.5 71.5t60.5 25.5q26 0 43.5 -10.5t30 -25.5t21.5 -30t17.5 -25.5
t19.5 -10.5q12 0 17.5 8.5t5.5 26.5v64h63v-64q0 -46 -21.5 -71.5t-60.5 -25.5q-26 0 -43.5 10.5t-30 25.5t-21.5 30t-17.5 25.5t-19.5 10.5q-23 0 -23 -35v-64h-63z" />
    <glyph glyph-name="utilde" unicode="&#x169;" horiz-adv-x="496" 
d="M60 473h78v-291q0 -55 29.5 -87.5t80.5 -32.5t80.5 32.5t29.5 87.5v291h78v-286q0 -92 -51 -144t-137 -52t-137 52t-51 144v286zM98 536v64q0 46 21.5 71.5t60.5 25.5q26 0 43.5 -10.5t30 -25.5t21.5 -30t17.5 -25.5t19.5 -10.5q12 0 17.5 8.5t5.5 26.5v64h63v-64
q0 -46 -21.5 -71.5t-60.5 -25.5q-26 0 -43.5 10.5t-29.5 25.5t-21.5 30t-18 25.5t-19.5 10.5q-23 0 -23 -35v-64h-63z" />
    <glyph glyph-name="Umacron" unicode="&#x16a;" horiz-adv-x="553" 
d="M277 69q38 0 67 16.5t46 45.5t17 66v453h80v-453q0 -61 -26.5 -107.5t-73.5 -72.5t-110 -26t-110.5 26t-74 72.5t-26.5 107.5v453h80v-453q0 -37 17 -66t46.5 -45.5t67.5 -16.5zM152 815h250v-70h-250v70z" />
    <glyph glyph-name="umacron" unicode="&#x16b;" horiz-adv-x="496" 
d="M60 473h78v-291q0 -55 29.5 -87.5t80.5 -32.5t80.5 32.5t29.5 87.5v291h78v-286q0 -92 -51 -144t-137 -52t-137 52t-51 144v286zM123 639h250v-70h-250v70z" />
    <glyph glyph-name="Ubreve" unicode="&#x16c;" horiz-adv-x="553" 
d="M277 69q38 0 67 16.5t46 45.5t17 66v453h80v-453q0 -61 -26.5 -107.5t-73.5 -72.5t-110 -26t-110.5 26t-74 72.5t-26.5 107.5v453h80v-453q0 -37 17 -66t46.5 -45.5t67.5 -16.5zM277 772q38 0 60 18.5t22 54.5v25h64v-25q0 -66 -40 -101t-106 -35q-67 0 -106.5 35
t-39.5 101v25h64v-25q0 -36 21.5 -54.5t60.5 -18.5z" />
    <glyph glyph-name="ubreve" unicode="&#x16d;" horiz-adv-x="496" 
d="M60 473h78v-291q0 -55 29.5 -87.5t80.5 -32.5t80.5 32.5t29.5 87.5v291h78v-286q0 -92 -51 -144t-137 -52t-137 52t-51 144v286zM248 596q38 0 60 18.5t22 54.5v25h64v-25q0 -66 -40 -101t-106 -35q-67 0 -106.5 35t-39.5 101v25h64v-25q0 -36 21.5 -54.5t60.5 -18.5z
" />
    <glyph glyph-name="Uring" unicode="&#x16e;" horiz-adv-x="553" 
d="M277 69q38 0 67 16.5t46 45.5t17 66v453h80v-453q0 -61 -26.5 -107.5t-73.5 -72.5t-110 -26t-110.5 26t-74 72.5t-26.5 107.5v453h80v-453q0 -37 17 -66t46.5 -45.5t67.5 -16.5zM277 767q26 0 40.5 14.5t14.5 38.5t-14.5 38.5t-40.5 14.5q-25 0 -40 -14.5t-15 -38.5
t15 -38.5t40 -14.5zM277 707q-34 0 -61.5 15t-43 40.5t-15.5 57.5q0 48 34 80.5t86 32.5q35 0 62 -15t42.5 -40.5t15.5 -57.5q0 -48 -34 -80.5t-86 -32.5z" />
    <glyph glyph-name="uring" unicode="&#x16f;" horiz-adv-x="496" 
d="M60 473h78v-291q0 -55 29.5 -87.5t80.5 -32.5t80.5 32.5t29.5 87.5v291h78v-286q0 -92 -51 -144t-137 -52t-137 52t-51 144v286zM248 591q26 0 40.5 14.5t14.5 38.5t-14.5 38.5t-40.5 14.5q-25 0 -40 -14.5t-15 -38.5t15 -38.5t40 -14.5zM248 531q-34 0 -61.5 15
t-43 40.5t-15.5 57.5q0 48 34 80.5t86 32.5q35 0 62 -15t42.5 -40.5t15.5 -57.5q0 -48 -34 -80.5t-86 -32.5z" />
    <glyph glyph-name="Uhungarumlaut" unicode="&#x170;" horiz-adv-x="553" 
d="M277 69q38 0 67 16.5t46 45.5t17 66v453h80v-453q0 -61 -26.5 -107.5t-73.5 -72.5t-110 -26t-110.5 26t-74 72.5t-26.5 107.5v453h80v-453q0 -37 17 -66t46.5 -45.5t67.5 -16.5zM310 712l65 158h84l-79 -158h-70zM153 712l55 158h79l-65 -158h-69z" />
    <glyph glyph-name="uhungarumlaut" unicode="&#x171;" horiz-adv-x="496" 
d="M60 473h78v-291q0 -55 29.5 -87.5t80.5 -32.5t80.5 32.5t29.5 87.5v291h78v-286q0 -92 -51 -144t-137 -52t-137 52t-51 144v286zM281 536l65 158h84l-79 -158h-70zM124 536l55 158h79l-65 -158h-69z" />
    <glyph glyph-name="Uogonek" unicode="&#x172;" horiz-adv-x="553" 
d="M346 -166h-34q-47 0 -75.5 23t-28.5 62q0 31 23 56.5t78 49.5l18 -25q-10 -4 -23.5 -6.5t-26.5 -2.5q-63 0 -110.5 26t-74 72.5t-26.5 107.5v453h80v-453q0 -37 17 -66t46.5 -45.5t67.5 -16.5t67 16.5t46 45.5t17 66v453h80v-453q0 -72 -31 -117t-81 -69
q-42 -20 -63.5 -34t-28.5 -24.5t-7 -22.5q0 -17 10.5 -26.5t29.5 -9.5h30v-60z" />
    <glyph glyph-name="uogonek" unicode="&#x173;" horiz-adv-x="496" 
d="M313 -166h-34q-47 0 -75.5 23t-28.5 62q0 21 10.5 39.5t31 35.5t49.5 31l18 -29q-7 -2 -16 -3.5t-20 -1.5q-86 0 -137 52t-51 144v286h78v-291q0 -55 29.5 -87.5t80.5 -32.5t80.5 32.5t29.5 87.5v291h78v-286q0 -78 -32.5 -121.5t-97.5 -72.5q-34 -15 -48.5 -29.5
t-14.5 -33.5q0 -17 10.5 -26.5t29.5 -9.5h30v-60z" />
    <glyph glyph-name="Wcircumflex" unicode="&#x174;" horiz-adv-x="831" 
d="M75 0v650h80v-584l-11 13q113 0 173.5 61.5t60.5 174.5v335h80v-584l-19 13q76 0 123 21t72.5 69.5t34.5 130.5l40 350h82l-40 -350q-12 -109 -50 -175t-105.5 -95.5t-170.5 -29.5h-47v206l65 106q0 -147 -81.5 -229.5t-228.5 -82.5h-58zM458 870l111 -158h-81l-90 131
h36l-89 -131h-80l110 158h83z" />
    <glyph glyph-name="wcircumflex" unicode="&#x175;" horiz-adv-x="746" 
d="M62 0v473h78v-398h33q77 0 122 42q45 44 45 126v230h77v-398h22q79 0 116.5 34t47.5 114l30 250h78l-30 -250q-14 -117 -71 -170t-168 -53h-95v70q-19 -29 -53 -45q-26 -13 -60 -19t-81 -6h-91zM422 694l111 -158h-81l-90 131h36l-89 -131h-80l110 158h83z" />
    <glyph glyph-name="Ycircumflex" unicode="&#x176;" horiz-adv-x="507" 
d="M227 0l180 650h80l-175 -650h-85zM35 458q0 41 7 84t24 108h79q-18 -67 -25 -109t-7 -83q0 -94 51.5 -144.5t145.5 -50.5h24v-75h-24q-87 0 -148.5 32t-94 92.5t-32.5 145.5zM320 870l111 -158h-81l-90 131h36l-89 -131h-80l110 158h83z" />
    <glyph glyph-name="ycircumflex" unicode="&#x177;" horiz-adv-x="494" 
d="M45 251q0 52 7.5 106.5t23.5 115.5h79q-18 -76 -25 -125.5t-7 -96.5q0 -88 47 -135.5t126 -47.5h14v-73h-14q-74 0 -131 30t-88.5 87.5t-31.5 138.5zM214 -150l175 623h80l-172 -623h-83zM314 694l111 -158h-81l-90 131h36l-89 -131h-80l110 158h83z" />
    <glyph glyph-name="Ydieresis" unicode="&#x178;" horiz-adv-x="507" 
d="M227 0l180 650h80l-175 -650h-85zM35 458q0 41 7 84t24 108h79q-18 -67 -25 -109t-7 -83q0 -94 51.5 -144.5t145.5 -50.5h24v-75h-24q-87 0 -148.5 32t-94 92.5t-32.5 145.5zM190 735q-22 0 -36.5 14t-14.5 36t14.5 36t36.5 14q23 0 37 -14t14 -36t-14 -36t-37 -14z
M368 735q-22 0 -36.5 14t-14.5 36t14.5 36t36.5 14q23 0 37 -14t14 -36t-14 -36t-37 -14z" />
    <glyph glyph-name="Zacute" unicode="&#x179;" horiz-adv-x="466" 
d="M436 0h-401l308 634v-59h-308v75h401l-307 -634v59h307v-75zM175 712l70 158h86l-86 -158h-70z" />
    <glyph glyph-name="zacute" unicode="&#x17a;" horiz-adv-x="412" 
d="M377 0h-347l258 459l7 -56h-264v70h349l-257 -459l-3 56h257v-70zM165 536l70 158h86l-86 -158h-70z" />
    <glyph glyph-name="Zdotaccent" unicode="&#x17b;" horiz-adv-x="466" 
d="M436 0h-401l308 634v-59h-308v75h401l-307 -634v59h307v-75zM232 735q-25 0 -40.5 15.5t-15.5 39.5t15.5 39.5t40.5 15.5t40.5 -15.5t15.5 -39.5t-15.5 -39.5t-40.5 -15.5z" />
    <glyph glyph-name="zdotaccent" unicode="&#x17c;" horiz-adv-x="412" 
d="M377 0h-347l258 459l7 -56h-264v70h349l-257 -459l-3 56h257v-70zM215 559q-25 0 -40.5 15.5t-15.5 39.5t15.5 39.5t40.5 15.5t40.5 -15.5t15.5 -39.5t-15.5 -39.5t-40.5 -15.5z" />
    <glyph glyph-name="Zcaron" unicode="&#x17d;" horiz-adv-x="466" 
d="M436 0h-401l308 634v-59h-308v75h401l-307 -634v59h307v-75zM198 712l-111 158h81l90 -131h-36l89 131h80l-110 -158h-83z" />
    <glyph glyph-name="zcaron" unicode="&#x17e;" horiz-adv-x="412" 
d="M377 0h-347l258 459l7 -56h-264v70h349l-257 -459l-3 56h257v-70zM174 536l-111 158h81l90 -131h-36l89 131h80l-110 -158h-83z" />
    <glyph glyph-name="Ohorn" unicode="&#x1a0;" horiz-adv-x="758" 
d="M124 325q0 -54 20 -101t55 -82.5t81 -55.5t99 -20t99 20t81 55.5t55 82.5t20 101t-20 101t-55 82.5t-81 55.5t-99 20t-99 -20t-81 -55.5t-55 -82.5t-20 -101zM42 325q0 70 26 130.5t72.5 106.5t107.5 71.5t131 25.5t131 -25.5t107.5 -71.5t72.5 -106.5t26 -130.5
t-26 -130.5t-72.5 -106.5t-107.5 -71.5t-131 -25.5t-131 25.5t-107.5 71.5t-72.5 106.5t-26 130.5zM459 650q38 0 68 14t30 59v25h64v-25q0 -71 -43.5 -103.5t-118.5 -32.5v63z" />
    <glyph glyph-name="ohorn" unicode="&#x1a1;" horiz-adv-x="580" 
d="M290 -9q-70 0 -127 32.5t-90 88t-33 124.5t33 125t90 88.5t127 32.5q71 0 127.5 -32.5t89.5 -88.5t33 -125q0 -68 -33 -124t-89.5 -88.5t-127.5 -32.5zM290 411q-48 0 -87 -23.5t-62 -63.5t-23 -88t23 -87.5t62 -63t87 -23.5t87 23.5t62 63t23 87.5t-23 88t-62 63.5
t-87 23.5zM361 473q38 0 68 14t30 59v25h64v-25q0 -71 -43.5 -103.5t-118.5 -32.5v63z" />
    <glyph glyph-name="Uhorn" unicode="&#x1af;" horiz-adv-x="553" 
d="M277 69q38 0 67 16.5t46 45.5t17 66v453h80v-453q0 -61 -26.5 -107.5t-73.5 -72.5t-110 -26t-110.5 26t-74 72.5t-26.5 107.5v453h80v-453q0 -37 17 -66t46.5 -45.5t67.5 -16.5zM407 650q38 0 68 14t30 59v25h64v-25q0 -71 -43.5 -103.5t-118.5 -32.5v63z" />
    <glyph glyph-name="uhorn" unicode="&#x1b0;" horiz-adv-x="496" 
d="M60 473h78v-291q0 -55 29.5 -87.5t80.5 -32.5t80.5 32.5t29.5 87.5v291h78v-286q0 -92 -51 -144t-137 -52t-137 52t-51 144v286zM358 473q38 0 68 14t30 59v25h64v-25q0 -71 -43.5 -103.5t-118.5 -32.5v63z" />
    <glyph glyph-name="uni0218" unicode="&#x218;" horiz-adv-x="490" 
d="M248 -9q-57 0 -105.5 23.5t-77.5 67.5t-29 108h80q0 -36 17 -64t47 -44t68 -16q54 0 88 29.5t34 76.5q0 34 -17 56t-45.5 37.5t-62.5 28t-68 27.5t-62.5 36t-45.5 52.5t-17 79.5q0 47 25.5 85.5t68.5 61.5t95 23q58 0 102 -23.5t69 -65t25 -96.5h-80q0 49 -32.5 79.5
t-83.5 30.5q-29 0 -53.5 -12.5t-39 -34t-14.5 -48.5q0 -33 17 -54t45.5 -36.5t62.5 -28t68 -27.5t62.5 -37t45.5 -54t17 -80q0 -52 -26.5 -93t-72.5 -64.5t-105 -23.5zM208 -225q15 30 25.5 58.5t14.5 53.5l31 -35q-8 -10 -27 -10q-22 0 -36.5 13.5t-14.5 35.5t14.5 36
t36.5 14q23 0 37 -14.5t14 -38.5q0 -22 -11 -51.5t-31 -61.5h-53z" />
    <glyph glyph-name="uni0219" unicode="&#x219;" horiz-adv-x="413" 
d="M47 0v70h173q39 0 60 17t21 47q0 27 -19 41.5t-48.5 23t-63 17t-63 23t-48.5 40t-19 69.5q0 54 39 89.5t106 35.5h170v-70h-170q-34 0 -51 -14.5t-17 -38.5q0 -25 19 -39t48.5 -23t63 -17.5t63 -23.5t48.5 -41.5t19 -71.5q0 -59 -41.5 -96.5t-113.5 -37.5h-176zM167 -225
q15 30 25.5 58.5t14.5 53.5l31 -35q-8 -10 -27 -10q-22 0 -36.5 13.5t-14.5 35.5t14.5 36t36.5 14q23 0 37 -14.5t14 -38.5q0 -22 -11 -51.5t-31 -61.5h-53z" />
    <glyph glyph-name="uni021A" unicode="&#x21a;" horiz-adv-x="462" 
d="M191 0v613l30 -29q-53 0 -105.5 -4t-90.5 -9v75q39 5 94.5 9t111.5 4t111.5 -4t94.5 -9v-75q-25 3 -57 6t-67.5 5t-71.5 2l30 29v-613h-80zM186 -225q15 30 25.5 58.5t14.5 53.5l31 -35q-8 -10 -27 -10q-22 0 -36.5 13.5t-14.5 35.5t14.5 36t36.5 14q23 0 37 -14.5
t14 -38.5q0 -22 -11 -51.5t-31 -61.5h-53z" />
    <glyph glyph-name="uni021B" unicode="&#x21b;" horiz-adv-x="325" 
d="M285 403h-174v70h174v-70zM217 0q-80 0 -121 40t-41 119v426l77 20v-446q0 -46 21.5 -67.5t65.5 -21.5h68v-70h-70zM117 -225q15 30 25.5 58.5t14.5 53.5l31 -35q-8 -10 -27 -10q-22 0 -36.5 13.5t-14.5 35.5t14.5 36t36.5 14q23 0 37 -14.5t14 -38.5q0 -22 -11 -51.5
t-31 -61.5h-53z" />
    <glyph glyph-name="uni0237" unicode="&#x237;" horiz-adv-x="202" 
d="M62 473h78v-488q0 -67 -36.5 -101t-107.5 -34h-13v70h13q35 0 50.5 15.5t15.5 49.5v488z" />
    <glyph glyph-name="circumflex" unicode="&#x2c6;" horiz-adv-x="520" 
d="M301 694l111 -158h-81l-90 131h36l-89 -131h-80l110 158h83z" />
    <glyph glyph-name="caron" unicode="&#x2c7;" horiz-adv-x="520" 
d="M219 536l-111 158h81l90 -131h-36l89 131h80l-110 -158h-83z" />
    <glyph glyph-name="breve" unicode="&#x2d8;" horiz-adv-x="520" 
d="M260 596q38 0 60 18.5t22 54.5v25h64v-25q0 -66 -40 -101t-106 -35q-67 0 -106.5 35t-39.5 101v25h64v-25q0 -36 21.5 -54.5t60.5 -18.5z" />
    <glyph glyph-name="dotaccent" unicode="&#x2d9;" horiz-adv-x="520" 
d="M260 559q-25 0 -40.5 15.5t-15.5 39.5t15.5 39.5t40.5 15.5t40.5 -15.5t15.5 -39.5t-15.5 -39.5t-40.5 -15.5z" />
    <glyph glyph-name="ring" unicode="&#x2da;" horiz-adv-x="520" 
d="M260 591q26 0 40.5 14.5t14.5 38.5t-14.5 38.5t-40.5 14.5q-25 0 -40 -14.5t-15 -38.5t15 -38.5t40 -14.5zM260 531q-34 0 -61.5 15t-43 40.5t-15.5 57.5q0 48 34 80.5t86 32.5q35 0 62 -15t42.5 -40.5t15.5 -57.5q0 -48 -34 -80.5t-86 -32.5z" />
    <glyph glyph-name="ogonek" unicode="&#x2db;" horiz-adv-x="520" 
d="M352 -166h-34q-47 0 -75.5 23t-28.5 62q0 21 10.5 39.5t31 35.5t49.5 31l47 -25q-34 -18 -52 -37t-18 -38q0 -15 10.5 -23t29.5 -8h30v-60z" />
    <glyph glyph-name="tilde" unicode="&#x2dc;" horiz-adv-x="520" 
d="M110 536v64q0 46 21.5 71.5t60.5 25.5q26 0 43.5 -10.5t30 -25.5t21.5 -30t17.5 -25.5t19.5 -10.5q12 0 17.5 8.5t5.5 26.5v64h63v-64q0 -46 -21.5 -71.5t-60.5 -25.5q-26 0 -43.5 10.5t-29.5 25.5t-21.5 30t-18 25.5t-19.5 10.5q-23 0 -23 -35v-64h-63z" />
    <glyph glyph-name="hungarumlaut" unicode="&#x2dd;" horiz-adv-x="520" 
d="M293 536l65 158h84l-79 -158h-70zM136 536l55 158h79l-65 -158h-69z" />
    <glyph glyph-name="hookabovecomb" unicode="&#x309;" horiz-adv-x="192" 
d="M44 841h34q47 0 75.5 -23t28.5 -62q0 -21 -10.5 -39.5t-31 -35.5t-49.5 -31l-47 25q34 18 52 37t18 38q0 15 -10.5 23t-29.5 8h-30v60z" />
    <glyph glyph-name="uni031B" unicode="&#x31b;" horiz-adv-x="202" 
d="M172 -80q38 0 68 14t30 59v25h64v-25q0 -71 -43.5 -103.5t-118.5 -32.5v63z" />
    <glyph glyph-name="dotbelowcomb" unicode="&#x323;" horiz-adv-x="520" 
d="M261 -164q-25 0 -40.5 15.5t-15.5 39.5t15.5 39.5t40.5 15.5t40.5 -15.5t15.5 -39.5t-15.5 -39.5t-40.5 -15.5z" />
    <glyph glyph-name="Wgrave" unicode="&#x1e80;" horiz-adv-x="831" 
d="M75 0v650h80v-584l-11 13q113 0 173.5 61.5t60.5 174.5v335h80v-584l-19 13q76 0 123 21t72.5 69.5t34.5 130.5l40 350h82l-40 -350q-12 -109 -50 -175t-105.5 -95.5t-170.5 -29.5h-47v206l65 106q0 -147 -81.5 -229.5t-228.5 -82.5h-58zM450 712h-70l-91 158h86z" />
    <glyph glyph-name="wgrave" unicode="&#x1e81;" horiz-adv-x="746" 
d="M62 0v473h78v-398h33q77 0 122 42q45 44 45 126v230h77v-398h22q79 0 116.5 34t47.5 114l30 250h78l-30 -250q-14 -117 -71 -170t-168 -53h-95v70q-19 -29 -53 -45q-26 -13 -60 -19t-81 -6h-91zM409 536h-70l-91 158h86z" />
    <glyph glyph-name="Wacute" unicode="&#x1e82;" horiz-adv-x="831" 
d="M75 0v650h80v-584l-11 13q113 0 173.5 61.5t60.5 174.5v335h80v-584l-19 13q76 0 123 21t72.5 69.5t34.5 130.5l40 350h82l-40 -350q-12 -109 -50 -175t-105.5 -95.5t-170.5 -29.5h-47v206l65 106q0 -147 -81.5 -229.5t-228.5 -82.5h-58zM380 712l70 158h86l-86 -158h-70
z" />
    <glyph glyph-name="wacute" unicode="&#x1e83;" horiz-adv-x="746" 
d="M62 0v473h78v-398h33q77 0 122 42q45 44 45 126v230h77v-398h22q79 0 116.5 34t47.5 114l30 250h78l-30 -250q-14 -117 -71 -170t-168 -53h-95v70q-19 -29 -53 -45q-26 -13 -60 -19t-81 -6h-91zM343 536l70 158h86l-86 -158h-70z" />
    <glyph glyph-name="Wdieresis" unicode="&#x1e84;" horiz-adv-x="831" 
d="M75 0v650h80v-584l-11 13q113 0 173.5 61.5t60.5 174.5v335h80v-584l-19 13q76 0 123 21t72.5 69.5t34.5 130.5l40 350h82l-40 -350q-12 -109 -50 -175t-105.5 -95.5t-170.5 -29.5h-47v206l65 106q0 -147 -81.5 -229.5t-228.5 -82.5h-58zM328 735q-22 0 -36.5 14
t-14.5 36t14.5 36t36.5 14q23 0 37 -14t14 -36t-14 -36t-37 -14zM506 735q-22 0 -36.5 14t-14.5 36t14.5 36t36.5 14q23 0 37 -14t14 -36t-14 -36t-37 -14z" />
    <glyph glyph-name="wdieresis" unicode="&#x1e85;" horiz-adv-x="746" 
d="M62 0v473h78v-398h33q77 0 122 42q45 44 45 126v230h77v-398h22q79 0 116.5 34t47.5 114l30 250h78l-30 -250q-14 -117 -71 -170t-168 -53h-95v70q-19 -29 -53 -45q-26 -13 -60 -19t-81 -6h-91zM291 559q-22 0 -36.5 14t-14.5 36t14.5 36t36.5 14q23 0 37 -14t14 -36
t-14 -36t-37 -14zM469 559q-22 0 -36.5 14t-14.5 36t14.5 36t36.5 14q23 0 37 -14t14 -36t-14 -36t-37 -14z" />
    <glyph glyph-name="Germandbls" unicode="&#x1e9e;" horiz-adv-x="593" 
d="M66 0v446q0 61 27 106.5t74.5 71.5t110.5 26h223l-137 -294l-47 53h8q73 0 125.5 -24.5t80.5 -69.5t28 -108q0 -97 -60 -152t-164 -55h-51v75h51q67 0 105.5 35.5t38.5 96.5q0 41 -18.5 70.5t-53 45.5t-82.5 16h-50l122 255l-1 -19h-119q-38 0 -68 -16.5t-46.5 -45.5
t-16.5 -67v-446h-80z" />
    <glyph glyph-name="uni1EA0" unicode="&#x1ea0;" 
d="M66 0v446q0 63 26.5 111t74.5 75t110 27q63 0 110.5 -27t74 -75t26.5 -111v-446h-80v21q0 99 -59.5 159t-172.5 60h-60v75h40q125 0 199.5 -46.5t92.5 -126.5h-40v304q0 40 -17 70t-46.5 47.5t-67.5 17.5t-68 -17.5t-46.5 -47.5t-16.5 -70v-446h-80zM278 -164
q-25 0 -40.5 15.5t-15.5 39.5t15.5 39.5t40.5 15.5t40.5 -15.5t15.5 -39.5t-15.5 -39.5t-40.5 -15.5z" />
    <glyph glyph-name="uni1EA1" unicode="&#x1ea1;" horiz-adv-x="495" 
d="M227 -9q-55 0 -97.5 19.5t-66 54t-23.5 79.5t24 79.5t66 54t97 19.5q83 0 132.5 -41t49.5 -110q0 -70 -49.5 -112.5t-132.5 -42.5zM237 57q55 0 87.5 24.5t32.5 64.5t-32 62.5t-88 22.5q-55 0 -87 -23t-32 -64q0 -40 32 -63.5t87 -23.5zM435 0h-73v105h-5v194
q0 53 -29 83t-80 30q-39 0 -65.5 -18t-37.5 -52h-80q9 42 34.5 73.5t63.5 49t84 17.5q87 0 137.5 -50.5t50.5 -136.5v-295zM248 -164q-25 0 -40.5 15.5t-15.5 39.5t15.5 39.5t40.5 15.5t40.5 -15.5t15.5 -39.5t-15.5 -39.5t-40.5 -15.5z" />
    <glyph glyph-name="uni1EA2" unicode="&#x1ea2;" 
d="M66 0v446q0 63 26.5 111t74.5 75t110 27q63 0 110.5 -27t74 -75t26.5 -111v-446h-80v21q0 99 -59.5 159t-172.5 60h-60v75h40q125 0 199.5 -46.5t92.5 -126.5h-40v304q0 40 -17 70t-46.5 47.5t-67.5 17.5t-68 -17.5t-46.5 -47.5t-16.5 -70v-446h-80zM219 890h34
q47 0 75.5 -23t28.5 -62q0 -21 -10.5 -39.5t-31 -35.5t-49.5 -31l-47 25q34 18 52 37t18 38q0 15 -10.5 23t-29.5 8h-30v60z" />
    <glyph glyph-name="uni1EA3" unicode="&#x1ea3;" horiz-adv-x="495" 
d="M227 -9q-55 0 -97.5 19.5t-66 54t-23.5 79.5t24 79.5t66 54t97 19.5q83 0 132.5 -41t49.5 -110q0 -70 -49.5 -112.5t-132.5 -42.5zM237 57q55 0 87.5 24.5t32.5 64.5t-32 62.5t-88 22.5q-55 0 -87 -23t-32 -64q0 -40 32 -63.5t87 -23.5zM435 0h-73v105h-5v194
q0 53 -29 83t-80 30q-39 0 -65.5 -18t-37.5 -52h-80q9 42 34.5 73.5t63.5 49t84 17.5q87 0 137.5 -50.5t50.5 -136.5v-295zM201 710h34q47 0 75.5 -23t28.5 -62q0 -21 -10.5 -39.5t-31 -35.5t-49.5 -31l-47 25q34 18 52 37t18 38q0 15 -10.5 23t-29.5 8h-30v60z" />
    <glyph glyph-name="uni1EA4" unicode="&#x1ea4;" 
d="M66 0v446q0 63 26.5 111t74.5 75t110 27q63 0 110.5 -27t74 -75t26.5 -111v-446h-80v21q0 99 -59.5 159t-172.5 60h-60v75h40q125 0 199.5 -46.5t92.5 -126.5h-40v304q0 40 -17 70t-46.5 47.5t-67.5 17.5t-68 -17.5t-46.5 -47.5t-16.5 -70v-446h-80zM318 870l111 -158
h-81l-90 131h36l-89 -131h-80l110 158h83zM393 843l70 158h86l-86 -158h-70z" />
    <glyph glyph-name="uni1EA5" unicode="&#x1ea5;" horiz-adv-x="495" 
d="M227 -9q-55 0 -97.5 19.5t-66 54t-23.5 79.5t24 79.5t66 54t97 19.5q83 0 132.5 -41t49.5 -110q0 -70 -49.5 -112.5t-132.5 -42.5zM237 57q55 0 87.5 24.5t32.5 64.5t-32 62.5t-88 22.5q-55 0 -87 -23t-32 -64q0 -40 32 -63.5t87 -23.5zM435 0h-73v105h-5v194
q0 53 -29 83t-80 30q-39 0 -65.5 -18t-37.5 -52h-80q9 42 34.5 73.5t63.5 49t84 17.5q87 0 137.5 -50.5t50.5 -136.5v-295zM286 694l111 -158h-81l-90 131h36l-89 -131h-80l110 158h83zM380 650l70 158h86l-86 -158h-70z" />
    <glyph glyph-name="uni1EA6" unicode="&#x1ea6;" 
d="M66 0v446q0 63 26.5 111t74.5 75t110 27q63 0 110.5 -27t74 -75t26.5 -111v-446h-80v21q0 99 -59.5 159t-172.5 60h-60v75h40q125 0 199.5 -46.5t92.5 -126.5h-40v304q0 40 -17 70t-46.5 47.5t-67.5 17.5t-68 -17.5t-46.5 -47.5t-16.5 -70v-446h-80zM318 870l111 -158
h-81l-90 131h36l-89 -131h-80l110 158h83zM463 843h-70l-91 158h86z" />
    <glyph glyph-name="uni1EA7" unicode="&#x1ea7;" horiz-adv-x="495" 
d="M227 -9q-55 0 -97.5 19.5t-66 54t-23.5 79.5t24 79.5t66 54t97 19.5q83 0 132.5 -41t49.5 -110q0 -70 -49.5 -112.5t-132.5 -42.5zM237 57q55 0 87.5 24.5t32.5 64.5t-32 62.5t-88 22.5q-55 0 -87 -23t-32 -64q0 -40 32 -63.5t87 -23.5zM435 0h-73v105h-5v194
q0 53 -29 83t-80 30q-39 0 -65.5 -18t-37.5 -52h-80q9 42 34.5 73.5t63.5 49t84 17.5q87 0 137.5 -50.5t50.5 -136.5v-295zM286 694l111 -158h-81l-90 131h36l-89 -131h-80l110 158h83zM455 650h-70l-91 158h86z" />
    <glyph glyph-name="uni1EA8" unicode="&#x1ea8;" 
d="M66 0v446q0 63 26.5 111t74.5 75t110 27q63 0 110.5 -27t74 -75t26.5 -111v-446h-80v21q0 99 -59.5 159t-172.5 60h-60v75h40q125 0 199.5 -46.5t92.5 -126.5h-40v304q0 40 -17 70t-46.5 47.5t-67.5 17.5t-68 -17.5t-46.5 -47.5t-16.5 -70v-446h-80zM318 870l111 -158
h-81l-90 131h36l-89 -131h-80l110 158h83zM384 1006h34q47 0 75.5 -23t28.5 -62q0 -21 -10.5 -39.5t-31 -35.5t-49.5 -31l-47 25q34 18 52 37t18 38q0 15 -10.5 23t-29.5 8h-30v60z" />
    <glyph glyph-name="uni1EA9" unicode="&#x1ea9;" horiz-adv-x="495" 
d="M227 -9q-55 0 -97.5 19.5t-66 54t-23.5 79.5t24 79.5t66 54t97 19.5q83 0 132.5 -41t49.5 -110q0 -70 -49.5 -112.5t-132.5 -42.5zM237 57q55 0 87.5 24.5t32.5 64.5t-32 62.5t-88 22.5q-55 0 -87 -23t-32 -64q0 -40 32 -63.5t87 -23.5zM435 0h-73v105h-5v194
q0 53 -29 83t-80 30q-39 0 -65.5 -18t-37.5 -52h-80q9 42 34.5 73.5t63.5 49t84 17.5q87 0 137.5 -50.5t50.5 -136.5v-295zM286 694l111 -158h-81l-90 131h36l-89 -131h-80l110 158h83zM339 841h34q47 0 75.5 -23t28.5 -62q0 -21 -10.5 -39.5t-31 -35.5t-49.5 -31l-47 25
q34 18 52 37t18 38q0 15 -10.5 23t-29.5 8h-30v60z" />
    <glyph glyph-name="uni1EAA" unicode="&#x1eaa;" 
d="M66 0v446q0 63 26.5 111t74.5 75t110 27q63 0 110.5 -27t74 -75t26.5 -111v-446h-80v21q0 99 -59.5 159t-172.5 60h-60v75h40q125 0 199.5 -46.5t92.5 -126.5h-40v304q0 40 -17 70t-46.5 47.5t-67.5 17.5t-68 -17.5t-46.5 -47.5t-16.5 -70v-446h-80zM318 870l111 -158
h-81l-90 131h36l-89 -131h-80l110 158h83zM127 907v64q0 46 21.5 71.5t60.5 25.5q26 0 43.5 -10.5t30 -25.5t21.5 -30t17.5 -25.5t19.5 -10.5q12 0 17.5 8.5t5.5 26.5v64h63v-64q0 -46 -21.5 -71.5t-60.5 -25.5q-26 0 -43.5 10.5t-29.5 25.5t-21.5 30t-18 25.5t-19.5 10.5
q-23 0 -23 -35v-64h-63z" />
    <glyph glyph-name="uni1EAB" unicode="&#x1eab;" horiz-adv-x="495" 
d="M227 -9q-55 0 -97.5 19.5t-66 54t-23.5 79.5t24 79.5t66 54t97 19.5q83 0 132.5 -41t49.5 -110q0 -70 -49.5 -112.5t-132.5 -42.5zM237 57q55 0 87.5 24.5t32.5 64.5t-32 62.5t-88 22.5q-55 0 -87 -23t-32 -64q0 -40 32 -63.5t87 -23.5zM435 0h-73v105h-5v194
q0 53 -29 83t-80 30q-39 0 -65.5 -18t-37.5 -52h-80q9 42 34.5 73.5t63.5 49t84 17.5q87 0 137.5 -50.5t50.5 -136.5v-295zM286 694l111 -158h-81l-90 131h36l-89 -131h-80l110 158h83zM94 732v64q0 46 21.5 71.5t60.5 25.5q26 0 43.5 -10.5t30 -25.5t21.5 -30t17.5 -25.5
t19.5 -10.5q12 0 17.5 8.5t5.5 26.5v64h63v-64q0 -46 -21.5 -71.5t-60.5 -25.5q-26 0 -43.5 10.5t-29.5 25.5t-21.5 30t-18 25.5t-19.5 10.5q-23 0 -23 -35v-64h-63z" />
    <glyph glyph-name="uni1EAC" unicode="&#x1eac;" 
d="M66 0v446q0 63 26.5 111t74.5 75t110 27q63 0 110.5 -27t74 -75t26.5 -111v-446h-80v21q0 99 -59.5 159t-172.5 60h-60v75h40q125 0 199.5 -46.5t92.5 -126.5h-40v304q0 40 -17 70t-46.5 47.5t-67.5 17.5t-68 -17.5t-46.5 -47.5t-16.5 -70v-446h-80zM278 -164
q-25 0 -40.5 15.5t-15.5 39.5t15.5 39.5t40.5 15.5t40.5 -15.5t15.5 -39.5t-15.5 -39.5t-40.5 -15.5zM318 871l111 -158h-81l-90 131h36l-89 -131h-80l110 158h83z" />
    <glyph glyph-name="uni1EAD" unicode="&#x1ead;" horiz-adv-x="495" 
d="M227 -9q-55 0 -97.5 19.5t-66 54t-23.5 79.5t24 79.5t66 54t97 19.5q83 0 132.5 -41t49.5 -110q0 -70 -49.5 -112.5t-132.5 -42.5zM237 57q55 0 87.5 24.5t32.5 64.5t-32 62.5t-88 22.5q-55 0 -87 -23t-32 -64q0 -40 32 -63.5t87 -23.5zM435 0h-73v105h-5v194
q0 53 -29 83t-80 30q-39 0 -65.5 -18t-37.5 -52h-80q9 42 34.5 73.5t63.5 49t84 17.5q87 0 137.5 -50.5t50.5 -136.5v-295zM248 -164q-25 0 -40.5 15.5t-15.5 39.5t15.5 39.5t40.5 15.5t40.5 -15.5t15.5 -39.5t-15.5 -39.5t-40.5 -15.5zM227 -9q-55 0 -97.5 19.5t-66 54
t-23.5 79.5t24 79.5t66 54t97 19.5q83 0 132.5 -41t49.5 -110q0 -70 -49.5 -112.5t-132.5 -42.5zM237 57q55 0 87.5 24.5t32.5 64.5t-32 62.5t-88 22.5q-55 0 -87 -23t-32 -64q0 -40 32 -63.5t87 -23.5zM435 0h-73v105h-5v194q0 53 -29 83t-80 30q-39 0 -65.5 -18t-37.5 -52
h-80q9 42 34.5 73.5t63.5 49t84 17.5q87 0 137.5 -50.5t50.5 -136.5v-295zM286 694l111 -158h-81l-90 131h36l-89 -131h-80l110 158h83z" />
    <glyph glyph-name="uni1EAE" unicode="&#x1eae;" 
d="M277 772q38 0 60 18.5t22 54.5v25h64v-25q0 -66 -40 -101t-106 -35q-67 0 -106.5 35t-39.5 101v25h64v-25q0 -36 21.5 -54.5t60.5 -18.5zM66 0v446q0 63 26.5 111t74.5 75t110 27q63 0 110.5 -27t74 -75t26.5 -111v-446h-80v21q0 99 -59.5 159t-172.5 60h-60v75h40
q125 0 199.5 -46.5t92.5 -126.5h-40v304q0 40 -17 70t-46.5 47.5t-67.5 17.5t-68 -17.5t-46.5 -47.5t-16.5 -70v-446h-80zM245 886l70 158h86l-86 -158h-70z" />
    <glyph glyph-name="uni1EAF" unicode="&#x1eaf;" horiz-adv-x="495" 
d="M227 -9q-55 0 -97.5 19.5t-66 54t-23.5 79.5t24 79.5t66 54t97 19.5q83 0 132.5 -41t49.5 -110q0 -70 -49.5 -112.5t-132.5 -42.5zM237 57q55 0 87.5 24.5t32.5 64.5t-32 62.5t-88 22.5q-55 0 -87 -23t-32 -64q0 -40 32 -63.5t87 -23.5zM435 0h-73v105h-5v194
q0 53 -29 83t-80 30q-39 0 -65.5 -18t-37.5 -52h-80q9 42 34.5 73.5t63.5 49t84 17.5q87 0 137.5 -50.5t50.5 -136.5v-295zM245 596q38 0 60 18.5t22 54.5v25h64v-25q0 -66 -40 -101t-106 -35q-67 0 -106.5 35t-39.5 101v25h64v-25q0 -36 21.5 -54.5t60.5 -18.5zM208 694
l70 158h86l-86 -158h-70z" />
    <glyph glyph-name="uni1EB0" unicode="&#x1eb0;" 
d="M277 772q38 0 60 18.5t22 54.5v25h64v-25q0 -66 -40 -101t-106 -35q-67 0 -106.5 35t-39.5 101v25h64v-25q0 -36 21.5 -54.5t60.5 -18.5zM66 0v446q0 63 26.5 111t74.5 75t110 27q63 0 110.5 -27t74 -75t26.5 -111v-446h-80v21q0 99 -59.5 159t-172.5 60h-60v75h40
q125 0 199.5 -46.5t92.5 -126.5h-40v304q0 40 -17 70t-46.5 47.5t-67.5 17.5t-68 -17.5t-46.5 -47.5t-16.5 -70v-446h-80zM313 886h-70l-91 158h86z" />
    <glyph glyph-name="uni1EB1" unicode="&#x1eb1;" horiz-adv-x="495" 
d="M227 -9q-55 0 -97.5 19.5t-66 54t-23.5 79.5t24 79.5t66 54t97 19.5q83 0 132.5 -41t49.5 -110q0 -70 -49.5 -112.5t-132.5 -42.5zM237 57q55 0 87.5 24.5t32.5 64.5t-32 62.5t-88 22.5q-55 0 -87 -23t-32 -64q0 -40 32 -63.5t87 -23.5zM435 0h-73v105h-5v194
q0 53 -29 83t-80 30q-39 0 -65.5 -18t-37.5 -52h-80q9 42 34.5 73.5t63.5 49t84 17.5q87 0 137.5 -50.5t50.5 -136.5v-295zM245 596q38 0 60 18.5t22 54.5v25h64v-25q0 -66 -40 -101t-106 -35q-67 0 -106.5 35t-39.5 101v25h64v-25q0 -36 21.5 -54.5t60.5 -18.5zM283 694
h-70l-91 158h86z" />
    <glyph glyph-name="uni1EB2" unicode="&#x1eb2;" 
d="M277 772q38 0 60 18.5t22 54.5v25h64v-25q0 -66 -40 -101t-106 -35q-67 0 -106.5 35t-39.5 101v25h64v-25q0 -36 21.5 -54.5t60.5 -18.5zM66 0v446q0 63 26.5 111t74.5 75t110 27q63 0 110.5 -27t74 -75t26.5 -111v-446h-80v21q0 99 -59.5 159t-172.5 60h-60v75h40
q125 0 199.5 -46.5t92.5 -126.5h-40v304q0 40 -17 70t-46.5 47.5t-67.5 17.5t-68 -17.5t-46.5 -47.5t-16.5 -70v-446h-80zM217 1056h34q47 0 75.5 -23t28.5 -62q0 -21 -10.5 -39.5t-31 -35.5t-49.5 -31l-47 25q34 18 52 37t18 38q0 15 -10.5 23t-29.5 8h-30v60z" />
    <glyph glyph-name="uni1EB3" unicode="&#x1eb3;" horiz-adv-x="495" 
d="M227 -9q-55 0 -97.5 19.5t-66 54t-23.5 79.5t24 79.5t66 54t97 19.5q83 0 132.5 -41t49.5 -110q0 -70 -49.5 -112.5t-132.5 -42.5zM237 57q55 0 87.5 24.5t32.5 64.5t-32 62.5t-88 22.5q-55 0 -87 -23t-32 -64q0 -40 32 -63.5t87 -23.5zM435 0h-73v105h-5v194
q0 53 -29 83t-80 30q-39 0 -65.5 -18t-37.5 -52h-80q9 42 34.5 73.5t63.5 49t84 17.5q87 0 137.5 -50.5t50.5 -136.5v-295zM245 596q38 0 60 18.5t22 54.5v25h64v-25q0 -66 -40 -101t-106 -35q-67 0 -106.5 35t-39.5 101v25h64v-25q0 -36 21.5 -54.5t60.5 -18.5zM176 886h34
q47 0 75.5 -23t28.5 -62q0 -21 -10.5 -39.5t-31 -35.5t-49.5 -31l-47 25q34 18 52 37t18 38q0 15 -10.5 23t-29.5 8h-30v60z" />
    <glyph glyph-name="uni1EB4" unicode="&#x1eb4;" 
d="M277 772q38 0 60 18.5t22 54.5v25h64v-25q0 -66 -40 -101t-106 -35q-67 0 -106.5 35t-39.5 101v25h64v-25q0 -36 21.5 -54.5t60.5 -18.5zM66 0v446q0 63 26.5 111t74.5 75t110 27q63 0 110.5 -27t74 -75t26.5 -111v-446h-80v21q0 99 -59.5 159t-172.5 60h-60v75h40
q125 0 199.5 -46.5t92.5 -126.5h-40v304q0 40 -17 70t-46.5 47.5t-67.5 17.5t-68 -17.5t-46.5 -47.5t-16.5 -70v-446h-80zM127 907v64q0 46 21.5 71.5t60.5 25.5q26 0 43.5 -10.5t30 -25.5t21.5 -30t17.5 -25.5t19.5 -10.5q12 0 17.5 8.5t5.5 26.5v64h63v-64
q0 -46 -21.5 -71.5t-60.5 -25.5q-26 0 -43.5 10.5t-29.5 25.5t-21.5 30t-18 25.5t-19.5 10.5q-23 0 -23 -35v-64h-63z" />
    <glyph glyph-name="uni1EB5" unicode="&#x1eb5;" horiz-adv-x="495" 
d="M227 -9q-55 0 -97.5 19.5t-66 54t-23.5 79.5t24 79.5t66 54t97 19.5q83 0 132.5 -41t49.5 -110q0 -70 -49.5 -112.5t-132.5 -42.5zM237 57q55 0 87.5 24.5t32.5 64.5t-32 62.5t-88 22.5q-55 0 -87 -23t-32 -64q0 -40 32 -63.5t87 -23.5zM435 0h-73v105h-5v194
q0 53 -29 83t-80 30q-39 0 -65.5 -18t-37.5 -52h-80q9 42 34.5 73.5t63.5 49t84 17.5q87 0 137.5 -50.5t50.5 -136.5v-295zM245 596q38 0 60 18.5t22 54.5v25h64v-25q0 -66 -40 -101t-106 -35q-67 0 -106.5 35t-39.5 101v25h64v-25q0 -36 21.5 -54.5t60.5 -18.5zM95 734v64
q0 46 21.5 71.5t60.5 25.5q26 0 43.5 -10.5t30 -25.5t21.5 -30t17.5 -25.5t19.5 -10.5q12 0 17.5 8.5t5.5 26.5v64h63v-64q0 -46 -21.5 -71.5t-60.5 -25.5q-26 0 -43.5 10.5t-29.5 25.5t-21.5 30t-18 25.5t-19.5 10.5q-23 0 -23 -35v-64h-63z" />
    <glyph glyph-name="uni1EB6" unicode="&#x1eb6;" 
d="M66 0v446q0 63 26.5 111t74.5 75t110 27q63 0 110.5 -27t74 -75t26.5 -111v-446h-80v21q0 99 -59.5 159t-172.5 60h-60v75h40q125 0 199.5 -46.5t92.5 -126.5h-40v304q0 40 -17 70t-46.5 47.5t-67.5 17.5t-68 -17.5t-46.5 -47.5t-16.5 -70v-446h-80zM278 -164
q-25 0 -40.5 15.5t-15.5 39.5t15.5 39.5t40.5 15.5t40.5 -15.5t15.5 -39.5t-15.5 -39.5t-40.5 -15.5zM277 773q38 0 60 18.5t22 54.5v25h64v-25q0 -66 -40 -101t-106 -35q-67 0 -106.5 35t-39.5 101v25h64v-25q0 -36 21.5 -54.5t60.5 -18.5z" />
    <glyph glyph-name="uni1EB7" unicode="&#x1eb7;" horiz-adv-x="495" 
d="M227 -9q-55 0 -97.5 19.5t-66 54t-23.5 79.5t24 79.5t66 54t97 19.5q83 0 132.5 -41t49.5 -110q0 -70 -49.5 -112.5t-132.5 -42.5zM237 57q55 0 87.5 24.5t32.5 64.5t-32 62.5t-88 22.5q-55 0 -87 -23t-32 -64q0 -40 32 -63.5t87 -23.5zM435 0h-73v105h-5v194
q0 53 -29 83t-80 30q-39 0 -65.5 -18t-37.5 -52h-80q9 42 34.5 73.5t63.5 49t84 17.5q87 0 137.5 -50.5t50.5 -136.5v-295zM248 -164q-25 0 -40.5 15.5t-15.5 39.5t15.5 39.5t40.5 15.5t40.5 -15.5t15.5 -39.5t-15.5 -39.5t-40.5 -15.5zM247 596q38 0 60 18.5t22 54.5v25h64
v-25q0 -66 -40 -101t-106 -35q-67 0 -106.5 35t-39.5 101v25h64v-25q0 -36 21.5 -54.5t60.5 -18.5z" />
    <glyph glyph-name="uni1EB8" unicode="&#x1eb8;" horiz-adv-x="460" 
d="M75 0v650h343v-75h-300l37 35v-426l-58 -97q0 87 33.5 150t95.5 97t147 34h15v-75h-15q-100 0 -159 -55.5t-59 -150.5v-47l-53 35h316v-75h-343zM231 -164q-25 0 -40.5 15.5t-15.5 39.5t15.5 39.5t40.5 15.5t40.5 -15.5t15.5 -39.5t-15.5 -39.5t-40.5 -15.5z" />
    <glyph glyph-name="uni1EB9" unicode="&#x1eb9;" horiz-adv-x="558" 
d="M283 -9q-67 0 -122.5 32.5t-88 88.5t-32.5 124q0 67 32.5 123t88 89.5t122.5 33.5t120.5 -29.5t85 -81.5t31.5 -120v-27h-434v64h380l-23 -38v13q0 45 -21.5 78.5t-57.5 52.5t-81 19q-43 0 -81 -22t-61 -59t-23 -83v-21q0 -48 23.5 -86t61 -59.5t80.5 -21.5q51 0 91.5 21
t66.5 65h77q-18 -48 -52.5 -83t-81 -54t-101.5 -19zM280 -164q-25 0 -40.5 15.5t-15.5 39.5t15.5 39.5t40.5 15.5t40.5 -15.5t15.5 -39.5t-15.5 -39.5t-40.5 -15.5z" />
    <glyph glyph-name="uni1EBA" unicode="&#x1eba;" horiz-adv-x="460" 
d="M75 0v650h343v-75h-300l37 35v-426l-58 -97q0 87 33.5 150t95.5 97t147 34h15v-75h-15q-100 0 -159 -55.5t-59 -150.5v-47l-53 35h316v-75h-343zM177 886h34q47 0 75.5 -23t28.5 -62q0 -21 -10.5 -39.5t-31 -35.5t-49.5 -31l-47 25q34 18 52 37t18 38q0 15 -10.5 23
t-29.5 8h-30v60z" />
    <glyph glyph-name="uni1EBB" unicode="&#x1ebb;" horiz-adv-x="558" 
d="M283 -9q-67 0 -122.5 32.5t-88 88.5t-32.5 124q0 67 32.5 123t88 89.5t122.5 33.5t120.5 -29.5t85 -81.5t31.5 -120v-27h-434v64h380l-23 -38v13q0 45 -21.5 78.5t-57.5 52.5t-81 19q-43 0 -81 -22t-61 -59t-23 -83v-21q0 -48 23.5 -86t61 -59.5t80.5 -21.5q51 0 91.5 21
t66.5 65h77q-18 -48 -52.5 -83t-81 -54t-101.5 -19zM211 713h34q47 0 75.5 -23t28.5 -62q0 -21 -10.5 -39.5t-31 -35.5t-49.5 -31l-47 25q34 18 52 37t18 38q0 15 -10.5 23t-29.5 8h-30v60z" />
    <glyph glyph-name="uni1EBC" unicode="&#x1ebc;" horiz-adv-x="460" 
d="M75 0v650h343v-75h-300l37 35v-426l-58 -97q0 87 33.5 150t95.5 97t147 34h15v-75h-15q-100 0 -159 -55.5t-59 -150.5v-47l-53 35h316v-75h-343zM96 713v64q0 46 21.5 71.5t60.5 25.5q26 0 43.5 -10.5t30 -25.5t21.5 -30t17.5 -25.5t19.5 -10.5q12 0 17.5 8.5t5.5 26.5
v64h63v-64q0 -46 -21.5 -71.5t-60.5 -25.5q-26 0 -43.5 10.5t-29.5 25.5t-21.5 30t-18 25.5t-19.5 10.5q-23 0 -23 -35v-64h-63z" />
    <glyph glyph-name="uni1EBD" unicode="&#x1ebd;" horiz-adv-x="558" 
d="M283 -9q-67 0 -122.5 32.5t-88 88.5t-32.5 124q0 67 32.5 123t88 89.5t122.5 33.5t120.5 -29.5t85 -81.5t31.5 -120v-27h-434v64h380l-23 -38v13q0 45 -21.5 78.5t-57.5 52.5t-81 19q-43 0 -81 -22t-61 -59t-23 -83v-21q0 -48 23.5 -86t61 -59.5t80.5 -21.5q51 0 91.5 21
t66.5 65h77q-18 -48 -52.5 -83t-81 -54t-101.5 -19zM129 536v64q0 46 21.5 71.5t60.5 25.5q26 0 43.5 -10.5t30 -25.5t21.5 -30t17.5 -25.5t19.5 -10.5q12 0 17.5 8.5t5.5 26.5v64h63v-64q0 -46 -21.5 -71.5t-60.5 -25.5q-26 0 -43.5 10.5t-29.5 25.5t-21.5 30t-18 25.5
t-19.5 10.5q-23 0 -23 -35v-64h-63z" />
    <glyph glyph-name="uni1EBE" unicode="&#x1ebe;" horiz-adv-x="460" 
d="M75 0v650h343v-75h-300l37 35v-426l-58 -97q0 87 33.5 150t95.5 97t147 34h15v-75h-15q-100 0 -159 -55.5t-59 -150.5v-47l-53 35h316v-75h-343zM284 870l111 -158h-81l-90 131h36l-89 -131h-80l110 158h83zM363 843l70 158h86l-86 -158h-70z" />
    <glyph glyph-name="uni1EBF" unicode="&#x1ebf;" horiz-adv-x="558" 
d="M283 -9q-67 0 -122.5 32.5t-88 88.5t-32.5 124q0 67 32.5 123t88 89.5t122.5 33.5t120.5 -29.5t85 -81.5t31.5 -120v-27h-434v64h380l-23 -38v13q0 45 -21.5 78.5t-57.5 52.5t-81 19q-43 0 -81 -22t-61 -59t-23 -83v-21q0 -48 23.5 -86t61 -59.5t80.5 -21.5q51 0 91.5 21
t66.5 65h77q-18 -48 -52.5 -83t-81 -54t-101.5 -19zM329 694l111 -158h-81l-90 131h36l-89 -131h-80l110 158h83zM423 650l70 158h86l-86 -158h-70z" />
    <glyph glyph-name="uni1EC0" unicode="&#x1ec0;" horiz-adv-x="460" 
d="M75 0v650h343v-75h-300l37 35v-426l-58 -97q0 87 33.5 150t95.5 97t147 34h15v-75h-15q-100 0 -159 -55.5t-59 -150.5v-47l-53 35h316v-75h-343zM284 870l111 -158h-81l-90 131h36l-89 -131h-80l110 158h83zM428 843h-70l-91 158h86z" />
    <glyph glyph-name="uni1EC1" unicode="&#x1ec1;" horiz-adv-x="558" 
d="M283 -9q-67 0 -122.5 32.5t-88 88.5t-32.5 124q0 67 32.5 123t88 89.5t122.5 33.5t120.5 -29.5t85 -81.5t31.5 -120v-27h-434v64h380l-23 -38v13q0 45 -21.5 78.5t-57.5 52.5t-81 19q-43 0 -81 -22t-61 -59t-23 -83v-21q0 -48 23.5 -86t61 -59.5t80.5 -21.5q51 0 91.5 21
t66.5 65h77q-18 -48 -52.5 -83t-81 -54t-101.5 -19zM329 694l111 -158h-81l-90 131h36l-89 -131h-80l110 158h83zM503 650h-70l-91 158h86z" />
    <glyph glyph-name="uni1EC2" unicode="&#x1ec2;" horiz-adv-x="460" 
d="M75 0v650h343v-75h-300l37 35v-426l-58 -97q0 87 33.5 150t95.5 97t147 34h15v-75h-15q-100 0 -159 -55.5t-59 -150.5v-47l-53 35h316v-75h-343zM284 870l111 -158h-81l-90 131h36l-89 -131h-80l110 158h83zM354 1006h34q47 0 75.5 -23t28.5 -62q0 -21 -10.5 -39.5
t-31 -35.5t-49.5 -31l-47 25q34 18 52 37t18 38q0 15 -10.5 23t-29.5 8h-30v60z" />
    <glyph glyph-name="uni1EC3" unicode="&#x1ec3;" horiz-adv-x="558" 
d="M283 -9q-67 0 -122.5 32.5t-88 88.5t-32.5 124q0 67 32.5 123t88 89.5t122.5 33.5t120.5 -29.5t85 -81.5t31.5 -120v-27h-434v64h380l-23 -38v13q0 45 -21.5 78.5t-57.5 52.5t-81 19q-43 0 -81 -22t-61 -59t-23 -83v-21q0 -48 23.5 -86t61 -59.5t80.5 -21.5q51 0 91.5 21
t66.5 65h77q-18 -48 -52.5 -83t-81 -54t-101.5 -19zM329 694l111 -158h-81l-90 131h36l-89 -131h-80l110 158h83zM382 841h34q47 0 75.5 -23t28.5 -62q0 -21 -10.5 -39.5t-31 -35.5t-49.5 -31l-47 25q34 18 52 37t18 38q0 15 -10.5 23t-29.5 8h-30v60z" />
    <glyph glyph-name="uni1EC4" unicode="&#x1ec4;" horiz-adv-x="460" 
d="M75 0v650h343v-75h-300l37 35v-426l-58 -97q0 87 33.5 150t95.5 97t147 34h15v-75h-15q-100 0 -159 -55.5t-59 -150.5v-47l-53 35h316v-75h-343zM284 870l111 -158h-81l-90 131h36l-89 -131h-80l110 158h83zM92 906v64q0 46 21.5 71.5t60.5 25.5q26 0 43.5 -10.5
t30 -25.5t21.5 -30t17.5 -25.5t19.5 -10.5q12 0 17.5 8.5t5.5 26.5v64h63v-64q0 -46 -21.5 -71.5t-60.5 -25.5q-26 0 -43.5 10.5t-29.5 25.5t-21.5 30t-18 25.5t-19.5 10.5q-23 0 -23 -35v-64h-63z" />
    <glyph glyph-name="uni1EC5" unicode="&#x1ec5;" horiz-adv-x="558" 
d="M283 -9q-67 0 -122.5 32.5t-88 88.5t-32.5 124q0 67 32.5 123t88 89.5t122.5 33.5t120.5 -29.5t85 -81.5t31.5 -120v-27h-434v64h380l-23 -38v13q0 45 -21.5 78.5t-57.5 52.5t-81 19q-43 0 -81 -22t-61 -59t-23 -83v-21q0 -48 23.5 -86t61 -59.5t80.5 -21.5q51 0 91.5 21
t66.5 65h77q-18 -48 -52.5 -83t-81 -54t-101.5 -19zM329 694l111 -158h-81l-90 131h36l-89 -131h-80l110 158h83zM137 734v64q0 46 21.5 71.5t60.5 25.5q26 0 43.5 -10.5t30 -25.5t21.5 -30t17.5 -25.5t19.5 -10.5q12 0 17.5 8.5t5.5 26.5v64h63v-64q0 -46 -21.5 -71.5
t-60.5 -25.5q-26 0 -43.5 10.5t-29.5 25.5t-21.5 30t-18 25.5t-19.5 10.5q-23 0 -23 -35v-64h-63z" />
    <glyph glyph-name="uni1EC6" unicode="&#x1ec6;" horiz-adv-x="460" 
d="M75 0v650h343v-75h-300l37 35v-426l-58 -97q0 87 33.5 150t95.5 97t147 34h15v-75h-15q-100 0 -159 -55.5t-59 -150.5v-47l-53 35h316v-75h-343zM231 -164q-25 0 -40.5 15.5t-15.5 39.5t15.5 39.5t40.5 15.5t40.5 -15.5t15.5 -39.5t-15.5 -39.5t-40.5 -15.5zM284 870
l111 -158h-81l-90 131h36l-89 -131h-80l110 158h83z" />
    <glyph glyph-name="uni1EC7" unicode="&#x1ec7;" horiz-adv-x="558" 
d="M283 -9q-67 0 -122.5 32.5t-88 88.5t-32.5 124q0 67 32.5 123t88 89.5t122.5 33.5t120.5 -29.5t85 -81.5t31.5 -120v-27h-434v64h380l-23 -38v13q0 45 -21.5 78.5t-57.5 52.5t-81 19q-43 0 -81 -22t-61 -59t-23 -83v-21q0 -48 23.5 -86t61 -59.5t80.5 -21.5q51 0 91.5 21
t66.5 65h77q-18 -48 -52.5 -83t-81 -54t-101.5 -19zM280 -164q-25 0 -40.5 15.5t-15.5 39.5t15.5 39.5t40.5 15.5t40.5 -15.5t15.5 -39.5t-15.5 -39.5t-40.5 -15.5zM329 694l111 -158h-81l-90 131h36l-89 -131h-80l110 158h83z" />
    <glyph glyph-name="uni1EC8" unicode="&#x1ec8;" horiz-adv-x="230" 
d="M155 0h-80v650h80v-650zM46 877h34q47 0 75.5 -23t28.5 -62q0 -21 -10.5 -39.5t-31 -35.5t-49.5 -31l-47 25q34 18 52 37t18 38q0 15 -10.5 23t-29.5 8h-30v60z" />
    <glyph glyph-name="uni1EC9" unicode="&#x1ec9;" horiz-adv-x="202" 
d="M62 473h78v-473h-78v473zM32 709h34q47 0 75.5 -23t28.5 -62q0 -21 -10.5 -39.5t-31 -35.5t-49.5 -31l-47 25q34 18 52 37t18 38q0 15 -10.5 23t-29.5 8h-30v60z" />
    <glyph glyph-name="uni1ECA" unicode="&#x1eca;" horiz-adv-x="230" 
d="M155 0h-80v650h80v-650zM116 -164q-25 0 -40.5 15.5t-15.5 39.5t15.5 39.5t40.5 15.5t40.5 -15.5t15.5 -39.5t-15.5 -39.5t-40.5 -15.5z" />
    <glyph glyph-name="uni1ECB" unicode="&#x1ecb;" horiz-adv-x="202" 
d="M62 473h78v-473h-78v473zM101 552q-22 0 -36.5 14t-14.5 36t14.5 36t36.5 14q23 0 37 -14t14 -36t-14 -36t-37 -14zM102 -164q-25 0 -40.5 15.5t-15.5 39.5t15.5 39.5t40.5 15.5t40.5 -15.5t15.5 -39.5t-15.5 -39.5t-40.5 -15.5z" />
    <glyph glyph-name="uni1ECC" unicode="&#x1ecc;" horiz-adv-x="758" 
d="M124 325q0 -54 20 -101t55 -82.5t81 -55.5t99 -20t99 20t81 55.5t55 82.5t20 101t-20 101t-55 82.5t-81 55.5t-99 20t-99 -20t-81 -55.5t-55 -82.5t-20 -101zM42 325q0 70 26 130.5t72.5 106.5t107.5 71.5t131 25.5t131 -25.5t107.5 -71.5t72.5 -106.5t26 -130.5
t-26 -130.5t-72.5 -106.5t-107.5 -71.5t-131 -25.5t-131 25.5t-107.5 71.5t-72.5 106.5t-26 130.5zM380 -164q-25 0 -40.5 15.5t-15.5 39.5t15.5 39.5t40.5 15.5t40.5 -15.5t15.5 -39.5t-15.5 -39.5t-40.5 -15.5z" />
    <glyph glyph-name="uni1ECD" unicode="&#x1ecd;" horiz-adv-x="580" 
d="M290 -9q-70 0 -127 32.5t-90 88t-33 124.5t33 125t90 88.5t127 32.5q71 0 127.5 -32.5t89.5 -88.5t33 -125q0 -68 -33 -124t-89.5 -88.5t-127.5 -32.5zM290 411q-48 0 -87 -23.5t-62 -63.5t-23 -88t23 -87.5t62 -63t87 -23.5t87 23.5t62 63t23 87.5t-23 88t-62 63.5
t-87 23.5zM291 -164q-25 0 -40.5 15.5t-15.5 39.5t15.5 39.5t40.5 15.5t40.5 -15.5t15.5 -39.5t-15.5 -39.5t-40.5 -15.5z" />
    <glyph glyph-name="uni1ECE" unicode="&#x1ece;" horiz-adv-x="758" 
d="M124 325q0 -54 20 -101t55 -82.5t81 -55.5t99 -20t99 20t81 55.5t55 82.5t20 101t-20 101t-55 82.5t-81 55.5t-99 20t-99 -20t-81 -55.5t-55 -82.5t-20 -101zM42 325q0 70 26 130.5t72.5 106.5t107.5 71.5t131 25.5t131 -25.5t107.5 -71.5t72.5 -106.5t26 -130.5
t-26 -130.5t-72.5 -106.5t-107.5 -71.5t-131 -25.5t-131 25.5t-107.5 71.5t-72.5 106.5t-26 130.5zM309 896h34q47 0 75.5 -23t28.5 -62q0 -21 -10.5 -39.5t-31 -35.5t-49.5 -31l-47 25q34 18 52 37t18 38q0 15 -10.5 23t-29.5 8h-30v60z" />
    <glyph glyph-name="uni1ECF" unicode="&#x1ecf;" horiz-adv-x="580" 
d="M290 -9q-70 0 -127 32.5t-90 88t-33 124.5t33 125t90 88.5t127 32.5q71 0 127.5 -32.5t89.5 -88.5t33 -125q0 -68 -33 -124t-89.5 -88.5t-127.5 -32.5zM290 411q-48 0 -87 -23.5t-62 -63.5t-23 -88t23 -87.5t62 -63t87 -23.5t87 23.5t62 63t23 87.5t-23 88t-62 63.5
t-87 23.5zM221 715h34q47 0 75.5 -23t28.5 -62q0 -21 -10.5 -39.5t-31 -35.5t-49.5 -31l-47 25q34 18 52 37t18 38q0 15 -10.5 23t-29.5 8h-30v60z" />
    <glyph glyph-name="uni1ED0" unicode="&#x1ed0;" horiz-adv-x="758" 
d="M124 325q0 -54 20 -101t55 -82.5t81 -55.5t99 -20t99 20t81 55.5t55 82.5t20 101t-20 101t-55 82.5t-81 55.5t-99 20t-99 -20t-81 -55.5t-55 -82.5t-20 -101zM42 325q0 70 26 130.5t72.5 106.5t107.5 71.5t131 25.5t131 -25.5t107.5 -71.5t72.5 -106.5t26 -130.5
t-26 -130.5t-72.5 -106.5t-107.5 -71.5t-131 -25.5t-131 25.5t-107.5 71.5t-72.5 106.5t-26 130.5zM420 870l111 -158h-81l-90 131h36l-89 -131h-80l110 158h83zM503 843l70 158h86l-86 -158h-70z" />
    <glyph glyph-name="uni1ED1" unicode="&#x1ed1;" horiz-adv-x="580" 
d="M290 -9q-70 0 -127 32.5t-90 88t-33 124.5t33 125t90 88.5t127 32.5q71 0 127.5 -32.5t89.5 -88.5t33 -125q0 -68 -33 -124t-89.5 -88.5t-127.5 -32.5zM290 411q-48 0 -87 -23.5t-62 -63.5t-23 -88t23 -87.5t62 -63t87 -23.5t87 23.5t62 63t23 87.5t-23 88t-62 63.5
t-87 23.5zM331 694l111 -158h-81l-90 131h36l-89 -131h-80l110 158h83zM428 650l70 158h86l-86 -158h-70z" />
    <glyph glyph-name="uni1ED2" unicode="&#x1ed2;" horiz-adv-x="758" 
d="M124 325q0 -54 20 -101t55 -82.5t81 -55.5t99 -20t99 20t81 55.5t55 82.5t20 101t-20 101t-55 82.5t-81 55.5t-99 20t-99 -20t-81 -55.5t-55 -82.5t-20 -101zM42 325q0 70 26 130.5t72.5 106.5t107.5 71.5t131 25.5t131 -25.5t107.5 -71.5t72.5 -106.5t26 -130.5
t-26 -130.5t-72.5 -106.5t-107.5 -71.5t-131 -25.5t-131 25.5t-107.5 71.5t-72.5 106.5t-26 130.5zM420 870l111 -158h-81l-90 131h36l-89 -131h-80l110 158h83zM563 843h-70l-91 158h86z" />
    <glyph glyph-name="uni1ED3" unicode="&#x1ed3;" horiz-adv-x="580" 
d="M290 -9q-70 0 -127 32.5t-90 88t-33 124.5t33 125t90 88.5t127 32.5q71 0 127.5 -32.5t89.5 -88.5t33 -125q0 -68 -33 -124t-89.5 -88.5t-127.5 -32.5zM290 411q-48 0 -87 -23.5t-62 -63.5t-23 -88t23 -87.5t62 -63t87 -23.5t87 23.5t62 63t23 87.5t-23 88t-62 63.5
t-87 23.5zM331 694l111 -158h-81l-90 131h36l-89 -131h-80l110 158h83zM498 650h-70l-91 158h86z" />
    <glyph glyph-name="uni1ED4" unicode="&#x1ed4;" horiz-adv-x="758" 
d="M124 325q0 -54 20 -101t55 -82.5t81 -55.5t99 -20t99 20t81 55.5t55 82.5t20 101t-20 101t-55 82.5t-81 55.5t-99 20t-99 -20t-81 -55.5t-55 -82.5t-20 -101zM42 325q0 70 26 130.5t72.5 106.5t107.5 71.5t131 25.5t131 -25.5t107.5 -71.5t72.5 -106.5t26 -130.5
t-26 -130.5t-72.5 -106.5t-107.5 -71.5t-131 -25.5t-131 25.5t-107.5 71.5t-72.5 106.5t-26 130.5zM420 870l111 -158h-81l-90 131h36l-89 -131h-80l110 158h83zM494 1006h34q47 0 75.5 -23t28.5 -62q0 -21 -10.5 -39.5t-31 -35.5t-49.5 -31l-47 25q34 18 52 37t18 38
q0 15 -10.5 23t-29.5 8h-30v60z" />
    <glyph glyph-name="uni1ED5" unicode="&#x1ed5;" horiz-adv-x="580" 
d="M290 -9q-70 0 -127 32.5t-90 88t-33 124.5t33 125t90 88.5t127 32.5q71 0 127.5 -32.5t89.5 -88.5t33 -125q0 -68 -33 -124t-89.5 -88.5t-127.5 -32.5zM290 411q-48 0 -87 -23.5t-62 -63.5t-23 -88t23 -87.5t62 -63t87 -23.5t87 23.5t62 63t23 87.5t-23 88t-62 63.5
t-87 23.5zM331 694l111 -158h-81l-90 131h36l-89 -131h-80l110 158h83zM389 841h34q47 0 75.5 -23t28.5 -62q0 -21 -10.5 -39.5t-31 -35.5t-49.5 -31l-47 25q34 18 52 37t18 38q0 15 -10.5 23t-29.5 8h-30v60z" />
    <glyph glyph-name="uni1ED6" unicode="&#x1ed6;" horiz-adv-x="758" 
d="M124 325q0 -54 20 -101t55 -82.5t81 -55.5t99 -20t99 20t81 55.5t55 82.5t20 101t-20 101t-55 82.5t-81 55.5t-99 20t-99 -20t-81 -55.5t-55 -82.5t-20 -101zM42 325q0 70 26 130.5t72.5 106.5t107.5 71.5t131 25.5t131 -25.5t107.5 -71.5t72.5 -106.5t26 -130.5
t-26 -130.5t-72.5 -106.5t-107.5 -71.5t-131 -25.5t-131 25.5t-107.5 71.5t-72.5 106.5t-26 130.5zM420 870l111 -158h-81l-90 131h36l-89 -131h-80l110 158h83zM229 906v64q0 46 21.5 71.5t60.5 25.5q26 0 43.5 -10.5t30 -25.5t21.5 -30t17.5 -25.5t19.5 -10.5
q12 0 17.5 8.5t5.5 26.5v64h63v-64q0 -46 -21.5 -71.5t-60.5 -25.5q-26 0 -43.5 10.5t-29.5 25.5t-21.5 30t-18 25.5t-19.5 10.5q-23 0 -23 -35v-64h-63z" />
    <glyph glyph-name="uni1ED7" unicode="&#x1ed7;" horiz-adv-x="580" 
d="M290 -9q-70 0 -127 32.5t-90 88t-33 124.5t33 125t90 88.5t127 32.5q71 0 127.5 -32.5t89.5 -88.5t33 -125q0 -68 -33 -124t-89.5 -88.5t-127.5 -32.5zM290 411q-48 0 -87 -23.5t-62 -63.5t-23 -88t23 -87.5t62 -63t87 -23.5t87 23.5t62 63t23 87.5t-23 88t-62 63.5
t-87 23.5zM331 694l111 -158h-81l-90 131h36l-89 -131h-80l110 158h83zM140 733v64q0 46 21.5 71.5t60.5 25.5q26 0 43.5 -10.5t30 -25.5t21.5 -30t17.5 -25.5t19.5 -10.5q12 0 17.5 8.5t5.5 26.5v64h63v-64q0 -46 -21.5 -71.5t-60.5 -25.5q-26 0 -43.5 10.5t-29.5 25.5
t-21.5 30t-18 25.5t-19.5 10.5q-23 0 -23 -35v-64h-63z" />
    <glyph glyph-name="uni1ED8" unicode="&#x1ed8;" horiz-adv-x="758" 
d="M124 325q0 -54 20 -101t55 -82.5t81 -55.5t99 -20t99 20t81 55.5t55 82.5t20 101t-20 101t-55 82.5t-81 55.5t-99 20t-99 -20t-81 -55.5t-55 -82.5t-20 -101zM42 325q0 70 26 130.5t72.5 106.5t107.5 71.5t131 25.5t131 -25.5t107.5 -71.5t72.5 -106.5t26 -130.5
t-26 -130.5t-72.5 -106.5t-107.5 -71.5t-131 -25.5t-131 25.5t-107.5 71.5t-72.5 106.5t-26 130.5zM380 -164q-25 0 -40.5 15.5t-15.5 39.5t15.5 39.5t40.5 15.5t40.5 -15.5t15.5 -39.5t-15.5 -39.5t-40.5 -15.5zM420 871l111 -158h-81l-90 131h36l-89 -131h-80l110 158h83z
" />
    <glyph glyph-name="uni1ED9" unicode="&#x1ed9;" horiz-adv-x="580" 
d="M290 -9q-70 0 -127 32.5t-90 88t-33 124.5t33 125t90 88.5t127 32.5q71 0 127.5 -32.5t89.5 -88.5t33 -125q0 -68 -33 -124t-89.5 -88.5t-127.5 -32.5zM290 411q-48 0 -87 -23.5t-62 -63.5t-23 -88t23 -87.5t62 -63t87 -23.5t87 23.5t62 63t23 87.5t-23 88t-62 63.5
t-87 23.5zM291 -164q-25 0 -40.5 15.5t-15.5 39.5t15.5 39.5t40.5 15.5t40.5 -15.5t15.5 -39.5t-15.5 -39.5t-40.5 -15.5zM331 694l111 -158h-81l-90 131h36l-89 -131h-80l110 158h83z" />
    <glyph glyph-name="uni1EDA" unicode="&#x1eda;" horiz-adv-x="758" 
d="M124 325q0 -54 20 -101t55 -82.5t81 -55.5t99 -20t99 20t81 55.5t55 82.5t20 101t-20 101t-55 82.5t-81 55.5t-99 20t-99 -20t-81 -55.5t-55 -82.5t-20 -101zM42 325q0 70 26 130.5t72.5 106.5t107.5 71.5t131 25.5t131 -25.5t107.5 -71.5t72.5 -106.5t26 -130.5
t-26 -130.5t-72.5 -106.5t-107.5 -71.5t-131 -25.5t-131 25.5t-107.5 71.5t-72.5 106.5t-26 130.5zM459 650q38 0 68 14t30 59v25h64v-25q0 -71 -43.5 -103.5t-118.5 -32.5v63zM301 713l70 158h86l-86 -158h-70z" />
    <glyph glyph-name="uni1EDB" unicode="&#x1edb;" horiz-adv-x="580" 
d="M290 -9q-70 0 -127 32.5t-90 88t-33 124.5t33 125t90 88.5t127 32.5q71 0 127.5 -32.5t89.5 -88.5t33 -125q0 -68 -33 -124t-89.5 -88.5t-127.5 -32.5zM290 411q-48 0 -87 -23.5t-62 -63.5t-23 -88t23 -87.5t62 -63t87 -23.5t87 23.5t62 63t23 87.5t-23 88t-62 63.5
t-87 23.5zM361 473q38 0 68 14t30 59v25h64v-25q0 -71 -43.5 -103.5t-118.5 -32.5v63zM251 538l70 158h86l-86 -158h-70z" />
    <glyph glyph-name="uni1EDC" unicode="&#x1edc;" horiz-adv-x="758" 
d="M124 325q0 -54 20 -101t55 -82.5t81 -55.5t99 -20t99 20t81 55.5t55 82.5t20 101t-20 101t-55 82.5t-81 55.5t-99 20t-99 -20t-81 -55.5t-55 -82.5t-20 -101zM42 325q0 70 26 130.5t72.5 106.5t107.5 71.5t131 25.5t131 -25.5t107.5 -71.5t72.5 -106.5t26 -130.5
t-26 -130.5t-72.5 -106.5t-107.5 -71.5t-131 -25.5t-131 25.5t-107.5 71.5t-72.5 106.5t-26 130.5zM459 650q38 0 68 14t30 59v25h64v-25q0 -71 -43.5 -103.5t-118.5 -32.5v63zM419 715h-70l-91 158h86z" />
    <glyph glyph-name="uni1EDD" unicode="&#x1edd;" horiz-adv-x="580" 
d="M290 -9q-70 0 -127 32.5t-90 88t-33 124.5t33 125t90 88.5t127 32.5q71 0 127.5 -32.5t89.5 -88.5t33 -125q0 -68 -33 -124t-89.5 -88.5t-127.5 -32.5zM290 411q-48 0 -87 -23.5t-62 -63.5t-23 -88t23 -87.5t62 -63t87 -23.5t87 23.5t62 63t23 87.5t-23 88t-62 63.5
t-87 23.5zM361 473q38 0 68 14t30 59v25h64v-25q0 -71 -43.5 -103.5t-118.5 -32.5v63zM330 538h-70l-91 158h86z" />
    <glyph glyph-name="uni1EDE" unicode="&#x1ede;" horiz-adv-x="758" 
d="M124 325q0 -54 20 -101t55 -82.5t81 -55.5t99 -20t99 20t81 55.5t55 82.5t20 101t-20 101t-55 82.5t-81 55.5t-99 20t-99 -20t-81 -55.5t-55 -82.5t-20 -101zM42 325q0 70 26 130.5t72.5 106.5t107.5 71.5t131 25.5t131 -25.5t107.5 -71.5t72.5 -106.5t26 -130.5
t-26 -130.5t-72.5 -106.5t-107.5 -71.5t-131 -25.5t-131 25.5t-107.5 71.5t-72.5 106.5t-26 130.5zM459 650q38 0 68 14t30 59v25h64v-25q0 -71 -43.5 -103.5t-118.5 -32.5v63zM309 890h34q47 0 75.5 -23t28.5 -62q0 -21 -10.5 -39.5t-31 -35.5t-49.5 -31l-47 25
q34 18 52 37t18 38q0 15 -10.5 23t-29.5 8h-30v60z" />
    <glyph glyph-name="uni1EDF" unicode="&#x1edf;" horiz-adv-x="580" 
d="M290 -9q-70 0 -127 32.5t-90 88t-33 124.5t33 125t90 88.5t127 32.5q71 0 127.5 -32.5t89.5 -88.5t33 -125q0 -68 -33 -124t-89.5 -88.5t-127.5 -32.5zM290 411q-48 0 -87 -23.5t-62 -63.5t-23 -88t23 -87.5t62 -63t87 -23.5t87 23.5t62 63t23 87.5t-23 88t-62 63.5
t-87 23.5zM361 473q38 0 68 14t30 59v25h64v-25q0 -71 -43.5 -103.5t-118.5 -32.5v63zM220 720h34q47 0 75.5 -23t28.5 -62q0 -21 -10.5 -39.5t-31 -35.5t-49.5 -31l-47 25q34 18 52 37t18 38q0 15 -10.5 23t-29.5 8h-30v60z" />
    <glyph glyph-name="uni1EE0" unicode="&#x1ee0;" horiz-adv-x="758" 
d="M124 325q0 -54 20 -101t55 -82.5t81 -55.5t99 -20t99 20t81 55.5t55 82.5t20 101t-20 101t-55 82.5t-81 55.5t-99 20t-99 -20t-81 -55.5t-55 -82.5t-20 -101zM42 325q0 70 26 130.5t72.5 106.5t107.5 71.5t131 25.5t131 -25.5t107.5 -71.5t72.5 -106.5t26 -130.5
t-26 -130.5t-72.5 -106.5t-107.5 -71.5t-131 -25.5t-131 25.5t-107.5 71.5t-72.5 106.5t-26 130.5zM459 650q38 0 68 14t30 59v25h64v-25q0 -71 -43.5 -103.5t-118.5 -32.5v63zM229 713v64q0 46 21.5 71.5t60.5 25.5q26 0 43.5 -10.5t30 -25.5t21.5 -30t17.5 -25.5
t19.5 -10.5q12 0 17.5 8.5t5.5 26.5v64h63v-64q0 -46 -21.5 -71.5t-60.5 -25.5q-26 0 -43.5 10.5t-29.5 25.5t-21.5 30t-18 25.5t-19.5 10.5q-23 0 -23 -35v-64h-63z" />
    <glyph glyph-name="uni1EE1" unicode="&#x1ee1;" horiz-adv-x="580" 
d="M290 -9q-70 0 -127 32.5t-90 88t-33 124.5t33 125t90 88.5t127 32.5q71 0 127.5 -32.5t89.5 -88.5t33 -125q0 -68 -33 -124t-89.5 -88.5t-127.5 -32.5zM290 411q-48 0 -87 -23.5t-62 -63.5t-23 -88t23 -87.5t62 -63t87 -23.5t87 23.5t62 63t23 87.5t-23 88t-62 63.5
t-87 23.5zM361 473q38 0 68 14t30 59v25h64v-25q0 -71 -43.5 -103.5t-118.5 -32.5v63zM140 536v64q0 46 21.5 71.5t60.5 25.5q26 0 43.5 -10.5t30 -25.5t21.5 -30t17.5 -25.5t19.5 -10.5q12 0 17.5 8.5t5.5 26.5v64h63v-64q0 -46 -21.5 -71.5t-60.5 -25.5q-26 0 -43.5 10.5
t-29.5 25.5t-21.5 30t-18 25.5t-19.5 10.5q-23 0 -23 -35v-64h-63z" />
    <glyph glyph-name="uni1EE2" unicode="&#x1ee2;" horiz-adv-x="758" 
d="M124 325q0 -54 20 -101t55 -82.5t81 -55.5t99 -20t99 20t81 55.5t55 82.5t20 101t-20 101t-55 82.5t-81 55.5t-99 20t-99 -20t-81 -55.5t-55 -82.5t-20 -101zM42 325q0 70 26 130.5t72.5 106.5t107.5 71.5t131 25.5t131 -25.5t107.5 -71.5t72.5 -106.5t26 -130.5
t-26 -130.5t-72.5 -106.5t-107.5 -71.5t-131 -25.5t-131 25.5t-107.5 71.5t-72.5 106.5t-26 130.5zM459 650q38 0 68 14t30 59v25h64v-25q0 -71 -43.5 -103.5t-118.5 -32.5v63zM380 -164q-25 0 -40.5 15.5t-15.5 39.5t15.5 39.5t40.5 15.5t40.5 -15.5t15.5 -39.5
t-15.5 -39.5t-40.5 -15.5z" />
    <glyph glyph-name="uni1EE3" unicode="&#x1ee3;" horiz-adv-x="580" 
d="M290 -9q-70 0 -127 32.5t-90 88t-33 124.5t33 125t90 88.5t127 32.5q71 0 127.5 -32.5t89.5 -88.5t33 -125q0 -68 -33 -124t-89.5 -88.5t-127.5 -32.5zM290 411q-48 0 -87 -23.5t-62 -63.5t-23 -88t23 -87.5t62 -63t87 -23.5t87 23.5t62 63t23 87.5t-23 88t-62 63.5
t-87 23.5zM361 473q38 0 68 14t30 59v25h64v-25q0 -71 -43.5 -103.5t-118.5 -32.5v63zM291 -164q-25 0 -40.5 15.5t-15.5 39.5t15.5 39.5t40.5 15.5t40.5 -15.5t15.5 -39.5t-15.5 -39.5t-40.5 -15.5z" />
    <glyph glyph-name="uni1EE4" unicode="&#x1ee4;" horiz-adv-x="553" 
d="M277 69q38 0 67 16.5t46 45.5t17 66v453h80v-453q0 -61 -26.5 -107.5t-73.5 -72.5t-110 -26t-110.5 26t-74 72.5t-26.5 107.5v453h80v-453q0 -37 17 -66t46.5 -45.5t67.5 -16.5zM278 -164q-25 0 -40.5 15.5t-15.5 39.5t15.5 39.5t40.5 15.5t40.5 -15.5t15.5 -39.5
t-15.5 -39.5t-40.5 -15.5z" />
    <glyph glyph-name="uni1EE5" unicode="&#x1ee5;" horiz-adv-x="496" 
d="M60 473h78v-291q0 -55 29.5 -87.5t80.5 -32.5t80.5 32.5t29.5 87.5v291h78v-286q0 -92 -51 -144t-137 -52t-137 52t-51 144v286zM249 -164q-25 0 -40.5 15.5t-15.5 39.5t15.5 39.5t40.5 15.5t40.5 -15.5t15.5 -39.5t-15.5 -39.5t-40.5 -15.5z" />
    <glyph glyph-name="uni1EE6" unicode="&#x1ee6;" horiz-adv-x="553" 
d="M277 69q38 0 67 16.5t46 45.5t17 66v453h80v-453q0 -61 -26.5 -107.5t-73.5 -72.5t-110 -26t-110.5 26t-74 72.5t-26.5 107.5v453h80v-453q0 -37 17 -66t46.5 -45.5t67.5 -16.5zM200 880h34q47 0 75.5 -23t28.5 -62q0 -21 -10.5 -39.5t-31 -35.5t-49.5 -31l-47 25
q34 18 52 37t18 38q0 15 -10.5 23t-29.5 8h-30v60z" />
    <glyph glyph-name="uni1EE7" unicode="&#x1ee7;" horiz-adv-x="496" 
d="M60 473h78v-291q0 -55 29.5 -87.5t80.5 -32.5t80.5 32.5t29.5 87.5v291h78v-286q0 -92 -51 -144t-137 -52t-137 52t-51 144v286zM178 704h34q47 0 75.5 -23t28.5 -62q0 -21 -10.5 -39.5t-31 -35.5t-49.5 -31l-47 25q34 18 52 37t18 38q0 15 -10.5 23t-29.5 8h-30v60z" />
    <glyph glyph-name="uni1EE8" unicode="&#x1ee8;" horiz-adv-x="553" 
d="M277 69q38 0 67 16.5t46 45.5t17 66v453h80v-453q0 -61 -26.5 -107.5t-73.5 -72.5t-110 -26t-110.5 26t-74 72.5t-26.5 107.5v453h80v-453q0 -37 17 -66t46.5 -45.5t67.5 -16.5zM407 650q38 0 68 14t30 59v25h64v-25q0 -71 -43.5 -103.5t-118.5 -32.5v63zM245 707l70 158
h86l-86 -158h-70z" />
    <glyph glyph-name="uni1EE9" unicode="&#x1ee9;" horiz-adv-x="496" 
d="M60 473h78v-291q0 -55 29.5 -87.5t80.5 -32.5t80.5 32.5t29.5 87.5v291h78v-286q0 -92 -51 -144t-137 -52t-137 52t-51 144v286zM358 473q38 0 68 14t30 59v25h64v-25q0 -71 -43.5 -103.5t-118.5 -32.5v63zM219 538l70 158h86l-86 -158h-70z" />
    <glyph glyph-name="uni1EEA" unicode="&#x1eea;" horiz-adv-x="553" 
d="M277 69q38 0 67 16.5t46 45.5t17 66v453h80v-453q0 -61 -26.5 -107.5t-73.5 -72.5t-110 -26t-110.5 26t-74 72.5t-26.5 107.5v453h80v-453q0 -37 17 -66t46.5 -45.5t67.5 -16.5zM407 650q38 0 68 14t30 59v25h64v-25q0 -71 -43.5 -103.5t-118.5 -32.5v63zM316 715h-70
l-91 158h86z" />
    <glyph glyph-name="uni1EEB" unicode="&#x1eeb;" horiz-adv-x="496" 
d="M60 473h78v-291q0 -55 29.5 -87.5t80.5 -32.5t80.5 32.5t29.5 87.5v291h78v-286q0 -92 -51 -144t-137 -52t-137 52t-51 144v286zM358 473q38 0 68 14t30 59v25h64v-25q0 -71 -43.5 -103.5t-118.5 -32.5v63zM290 538h-70l-91 158h86z" />
    <glyph glyph-name="uni1EEC" unicode="&#x1eec;" horiz-adv-x="553" 
d="M277 69q38 0 67 16.5t46 45.5t17 66v453h80v-453q0 -61 -26.5 -107.5t-73.5 -72.5t-110 -26t-110.5 26t-74 72.5t-26.5 107.5v453h80v-453q0 -37 17 -66t46.5 -45.5t67.5 -16.5zM407 650q38 0 68 14t30 59v25h64v-25q0 -71 -43.5 -103.5t-118.5 -32.5v63zM207 892h34
q47 0 75.5 -23t28.5 -62q0 -21 -10.5 -39.5t-31 -35.5t-49.5 -31l-47 25q34 18 52 37t18 38q0 15 -10.5 23t-29.5 8h-30v60z" />
    <glyph glyph-name="uni1EED" unicode="&#x1eed;" horiz-adv-x="496" 
d="M60 473h78v-291q0 -55 29.5 -87.5t80.5 -32.5t80.5 32.5t29.5 87.5v291h78v-286q0 -92 -51 -144t-137 -52t-137 52t-51 144v286zM358 473q38 0 68 14t30 59v25h64v-25q0 -71 -43.5 -103.5t-118.5 -32.5v63zM178 702h34q47 0 75.5 -23t28.5 -62q0 -21 -10.5 -39.5
t-31 -35.5t-49.5 -31l-47 25q34 18 52 37t18 38q0 15 -10.5 23t-29.5 8h-30v60z" />
    <glyph glyph-name="uni1EEE" unicode="&#x1eee;" horiz-adv-x="553" 
d="M277 69q38 0 67 16.5t46 45.5t17 66v453h80v-453q0 -61 -26.5 -107.5t-73.5 -72.5t-110 -26t-110.5 26t-74 72.5t-26.5 107.5v453h80v-453q0 -37 17 -66t46.5 -45.5t67.5 -16.5zM407 650q38 0 68 14t30 59v25h64v-25q0 -71 -43.5 -103.5t-118.5 -32.5v63zM127 713v64
q0 46 21.5 71.5t60.5 25.5q26 0 43.5 -10.5t30 -25.5t21.5 -30t17.5 -25.5t19.5 -10.5q12 0 17.5 8.5t5.5 26.5v64h63v-64q0 -46 -21.5 -71.5t-60.5 -25.5q-26 0 -43.5 10.5t-29.5 25.5t-21.5 30t-18 25.5t-19.5 10.5q-23 0 -23 -35v-64h-63z" />
    <glyph glyph-name="uni1EEF" unicode="&#x1eef;" horiz-adv-x="496" 
d="M60 473h78v-291q0 -55 29.5 -87.5t80.5 -32.5t80.5 32.5t29.5 87.5v291h78v-286q0 -92 -51 -144t-137 -52t-137 52t-51 144v286zM358 473q38 0 68 14t30 59v25h64v-25q0 -71 -43.5 -103.5t-118.5 -32.5v63zM98 536v64q0 46 21.5 71.5t60.5 25.5q26 0 43.5 -10.5t30 -25.5
t21.5 -30t17.5 -25.5t19.5 -10.5q12 0 17.5 8.5t5.5 26.5v64h63v-64q0 -46 -21.5 -71.5t-60.5 -25.5q-26 0 -43.5 10.5t-29.5 25.5t-21.5 30t-18 25.5t-19.5 10.5q-23 0 -23 -35v-64h-63z" />
    <glyph glyph-name="uni1EF0" unicode="&#x1ef0;" horiz-adv-x="553" 
d="M277 69q38 0 67 16.5t46 45.5t17 66v453h80v-453q0 -61 -26.5 -107.5t-73.5 -72.5t-110 -26t-110.5 26t-74 72.5t-26.5 107.5v453h80v-453q0 -37 17 -66t46.5 -45.5t67.5 -16.5zM407 650q38 0 68 14t30 59v25h64v-25q0 -71 -43.5 -103.5t-118.5 -32.5v63zM278 -164
q-25 0 -40.5 15.5t-15.5 39.5t15.5 39.5t40.5 15.5t40.5 -15.5t15.5 -39.5t-15.5 -39.5t-40.5 -15.5z" />
    <glyph glyph-name="uni1EF1" unicode="&#x1ef1;" horiz-adv-x="496" 
d="M60 473h78v-291q0 -55 29.5 -87.5t80.5 -32.5t80.5 32.5t29.5 87.5v291h78v-286q0 -92 -51 -144t-137 -52t-137 52t-51 144v286zM358 473q38 0 68 14t30 59v25h64v-25q0 -71 -43.5 -103.5t-118.5 -32.5v63zM249 -164q-25 0 -40.5 15.5t-15.5 39.5t15.5 39.5t40.5 15.5
t40.5 -15.5t15.5 -39.5t-15.5 -39.5t-40.5 -15.5z" />
    <glyph glyph-name="Ygrave" unicode="&#x1ef2;" horiz-adv-x="507" 
d="M227 0l180 650h80l-175 -650h-85zM35 458q0 41 7 84t24 108h79q-18 -67 -25 -109t-7 -83q0 -94 51.5 -144.5t145.5 -50.5h24v-75h-24q-87 0 -148.5 32t-94 92.5t-32.5 145.5zM312 712h-70l-91 158h86z" />
    <glyph glyph-name="ygrave" unicode="&#x1ef3;" horiz-adv-x="494" 
d="M45 251q0 52 7.5 106.5t23.5 115.5h79q-18 -76 -25 -125.5t-7 -96.5q0 -88 47 -135.5t126 -47.5h14v-73h-14q-74 0 -131 30t-88.5 87.5t-31.5 138.5zM214 -150l175 623h80l-172 -623h-83zM308 536h-70l-91 158h86z" />
    <glyph glyph-name="uni1EF4" unicode="&#x1ef4;" horiz-adv-x="507" 
d="M227 0l180 650h80l-175 -650h-85zM35 458q0 41 7 84t24 108h79q-18 -67 -25 -109t-7 -83q0 -94 51.5 -144.5t145.5 -50.5h24v-75h-24q-87 0 -148.5 32t-94 92.5t-32.5 145.5zM254 -164q-25 0 -40.5 15.5t-15.5 39.5t15.5 39.5t40.5 15.5t40.5 -15.5t15.5 -39.5
t-15.5 -39.5t-40.5 -15.5z" />
    <glyph glyph-name="uni1EF5" unicode="&#x1ef5;" horiz-adv-x="494" 
d="M45 251q0 52 7.5 106.5t23.5 115.5h79q-18 -76 -25 -125.5t-7 -96.5q0 -88 47 -135.5t126 -47.5h14v-73h-14q-74 0 -131 30t-88.5 87.5t-31.5 138.5zM214 -150l175 623h80l-172 -623h-83zM414 -104q-25 0 -40.5 15.5t-15.5 39.5t15.5 39.5t40.5 15.5t40.5 -15.5
t15.5 -39.5t-15.5 -39.5t-40.5 -15.5z" />
    <glyph glyph-name="uni1EF6" unicode="&#x1ef6;" horiz-adv-x="507" 
d="M227 0l180 650h80l-175 -650h-85zM35 458q0 41 7 84t24 108h79q-18 -67 -25 -109t-7 -83q0 -94 51.5 -144.5t145.5 -50.5h24v-75h-24q-87 0 -148.5 32t-94 92.5t-32.5 145.5zM207 862h34q47 0 75.5 -23t28.5 -62q0 -21 -10.5 -39.5t-31 -35.5t-49.5 -31l-47 25
q34 18 52 37t18 38q0 15 -10.5 23t-29.5 8h-30v60z" />
    <glyph glyph-name="uni1EF7" unicode="&#x1ef7;" horiz-adv-x="494" 
d="M45 251q0 52 7.5 106.5t23.5 115.5h79q-18 -76 -25 -125.5t-7 -96.5q0 -88 47 -135.5t126 -47.5h14v-73h-14q-74 0 -131 30t-88.5 87.5t-31.5 138.5zM214 -150l175 623h80l-172 -623h-83zM210 704h34q47 0 75.5 -23t28.5 -62q0 -21 -10.5 -39.5t-31 -35.5t-49.5 -31
l-47 25q34 18 52 37t18 38q0 15 -10.5 23t-29.5 8h-30v60z" />
    <glyph glyph-name="uni1EF8" unicode="&#x1ef8;" horiz-adv-x="507" 
d="M227 0l180 650h80l-175 -650h-85zM35 458q0 41 7 84t24 108h79q-18 -67 -25 -109t-7 -83q0 -94 51.5 -144.5t145.5 -50.5h24v-75h-24q-87 0 -148.5 32t-94 92.5t-32.5 145.5zM103 713v64q0 46 21.5 71.5t60.5 25.5q26 0 43.5 -10.5t30 -25.5t21.5 -30t17.5 -25.5
t19.5 -10.5q12 0 17.5 8.5t5.5 26.5v64h63v-64q0 -46 -21.5 -71.5t-60.5 -25.5q-26 0 -43.5 10.5t-29.5 25.5t-21.5 30t-18 25.5t-19.5 10.5q-23 0 -23 -35v-64h-63z" />
    <glyph glyph-name="uni1EF9" unicode="&#x1ef9;" horiz-adv-x="494" 
d="M45 251q0 52 7.5 106.5t23.5 115.5h79q-18 -76 -25 -125.5t-7 -96.5q0 -88 47 -135.5t126 -47.5h14v-73h-14q-74 0 -131 30t-88.5 87.5t-31.5 138.5zM214 -150l175 623h80l-172 -623h-83zM122 535v64q0 46 21.5 71.5t60.5 25.5q26 0 43.5 -10.5t30 -25.5t21.5 -30
t17.5 -25.5t19.5 -10.5q12 0 17.5 8.5t5.5 26.5v64h63v-64q0 -46 -21.5 -71.5t-60.5 -25.5q-26 0 -43.5 10.5t-29.5 25.5t-21.5 30t-18 25.5t-19.5 10.5q-23 0 -23 -35v-64h-63z" />
    <glyph glyph-name="endash" unicode="&#x2013;" horiz-adv-x="520" 
d="M40 283h440v-73h-440v73z" />
    <glyph glyph-name="emdash" unicode="&#x2014;" horiz-adv-x="1020" 
d="M40 283h940v-73h-940v73z" />
    <glyph glyph-name="quoteleft" unicode="&#x2018;" horiz-adv-x="185" 
d="M92 650h54q-16 -41 -26 -72t-16 -60l-33 26q3 4 10.5 6.5t14.5 2.5q22 0 36.5 -14t14.5 -36t-14 -36t-37 -14q-22 0 -36.5 14.5t-14.5 37.5q0 20 13 59.5t34 85.5z" />
    <glyph glyph-name="quoteright" unicode="&#x2019;" horiz-adv-x="185" 
d="M93 462h-54q16 41 26 72.5t16 59.5l33 -26q-3 -4 -10 -6.5t-15 -2.5q-22 0 -36.5 14t-14.5 36t14.5 36t36.5 14q23 0 37 -14.5t14 -37.5q0 -20 -13 -59t-34 -86z" />
    <glyph glyph-name="quotesinglbase" unicode="&#x201a;" horiz-adv-x="185" 
d="M93 -106h-54q16 41 26 72.5t16 59.5l33 -26q-3 -4 -10 -6.5t-15 -2.5q-22 0 -36.5 14t-14.5 36t14.5 36t36.5 14q23 0 37 -14.5t14 -37.5q0 -20 -13 -59t-34 -86z" />
    <glyph glyph-name="quotedblleft" unicode="&#x201c;" horiz-adv-x="347" 
d="M92 650h54q-16 -41 -26 -72t-16 -60l-33 26q3 4 10.5 6.5t14.5 2.5q22 0 36.5 -14t14.5 -36t-14 -36t-37 -14q-22 0 -36.5 14.5t-14.5 37.5q0 20 13 59.5t34 85.5zM254 650h54q-16 -41 -26 -72t-16 -60l-33 26q3 4 10.5 6.5t14.5 2.5q22 0 36.5 -14t14.5 -36t-14 -36
t-37 -14q-22 0 -36.5 14.5t-14.5 37.5q0 20 13 59.5t34 85.5z" />
    <glyph glyph-name="quotedblright" unicode="&#x201d;" horiz-adv-x="347" 
d="M93 462h-54q16 41 26 72.5t16 59.5l33 -26q-3 -4 -10 -6.5t-15 -2.5q-22 0 -36.5 14t-14.5 36t14.5 36t36.5 14q23 0 37 -14.5t14 -37.5q0 -20 -13 -59t-34 -86zM255 462h-54q16 41 26 72.5t16 59.5l33 -26q-3 -4 -10 -6.5t-15 -2.5q-22 0 -36.5 14t-14.5 36t14.5 36
t36.5 14q23 0 37 -14.5t14 -37.5q0 -20 -13 -59t-34 -86z" />
    <glyph glyph-name="quotedblbase" unicode="&#x201e;" horiz-adv-x="347" 
d="M93 -106h-54q16 41 26 72.5t16 59.5l33 -26q-3 -4 -10 -6.5t-15 -2.5q-22 0 -36.5 14t-14.5 36t14.5 36t36.5 14q23 0 37 -14.5t14 -37.5q0 -20 -13 -59t-34 -86zM255 -106h-54q16 41 26 72.5t16 59.5l33 -26q-3 -4 -10 -6.5t-15 -2.5q-22 0 -36.5 14t-14.5 36t14.5 36
t36.5 14q23 0 37 -14.5t14 -37.5q0 -20 -13 -59t-34 -86z" />
    <glyph glyph-name="dagger" unicode="&#x2020;" horiz-adv-x="488" 
d="M285 -150h-82l5 552l-183 -4v75l183 -4l-5 181h82l-4 -181l182 4v-75l-182 4z" />
    <glyph glyph-name="daggerdbl" unicode="&#x2021;" horiz-adv-x="488" 
d="M285 -150h-82l5 181l-183 -3v75l182 -4v303l-182 -4v75l183 -4l-5 181h82l-4 -181l182 4v-75l-181 4v-303l181 4v-75l-182 3z" />
    <glyph glyph-name="bullet" unicode="&#x2022;" horiz-adv-x="229" 
d="M114 369q33 0 54 -20.5t21 -51.5t-21 -52.5t-54 -21.5q-32 0 -53 21t-21 52t21 52t53 21z" />
    <glyph glyph-name="ellipsis" unicode="&#x2026;" horiz-adv-x="600" 
d="M96 -9q-22 0 -36.5 14t-14.5 36t14.5 36t36.5 14q23 0 37 -14t14 -36t-14 -36t-37 -14zM299 -9q-22 0 -36.5 14t-14.5 36t14.5 36t36.5 14q23 0 37 -14t14 -36t-14 -36t-37 -14zM504 -9q-22 0 -36.5 14t-14.5 36t14.5 36t36.5 14q23 0 37 -14t14 -36t-14 -36t-37 -14z
" />
    <glyph glyph-name="perthousand" unicode="&#x2030;" horiz-adv-x="1157" 
d="M968 -9q-43 0 -78 20.5t-55.5 54.5t-20.5 76t20.5 76.5t55.5 54.5t78 20t77.5 -20t55.5 -54.5t21 -76.5t-21 -76t-55.5 -54.5t-77.5 -20.5zM968 228q-23 0 -43 -11.5t-31.5 -31t-11.5 -43.5q0 -23 11.5 -43t31.5 -31.5t43 -11.5q24 0 43 11.5t30.5 31.5t11.5 43
q0 24 -11.5 43.5t-30.5 31t-43 11.5zM176 0l353 650h86l-353 -650h-86zM189 357q-43 0 -78 20t-55.5 54.5t-20.5 76.5t20.5 76t55.5 54.5t78 20.5t77.5 -20.5t55.5 -54.5t21 -76t-21 -76.5t-55.5 -54.5t-77.5 -20zM189 594q-23 0 -43 -11.5t-31.5 -31t-11.5 -43.5
q0 -23 11.5 -43t31.5 -31.5t43 -11.5q24 0 43 11.5t30.5 31.5t11.5 43q0 24 -11.5 43.5t-30.5 31t-43 11.5zM602 -9q-43 0 -78 20.5t-55.5 54.5t-20.5 76t20.5 76.5t55.5 54.5t78 20t77.5 -20t55.5 -54.5t21 -76.5t-21 -76t-55.5 -54.5t-77.5 -20.5zM602 228
q-23 0 -43 -11.5t-31.5 -31t-11.5 -43.5q0 -23 11.5 -43t31.5 -31.5t43 -11.5q24 0 43 11.5t30.5 31.5t11.5 43q0 24 -11.5 43.5t-30.5 31t-43 11.5z" />
    <glyph glyph-name="guilsinglleft" unicode="&#x2039;" horiz-adv-x="267" 
d="M91 280l146 -231h-87l-125 196l125 196h84l-146 -231z" />
    <glyph glyph-name="guilsinglright" unicode="&#x203a;" horiz-adv-x="267" 
d="M176 210l-146 231h87l125 -196l-125 -196h-84l146 231z" />
    <glyph glyph-name="fraction" unicode="&#x2044;" horiz-adv-x="269" 
d="M-84 0l353 650h84l-353 -650h-84z" />
    <glyph glyph-name="uni2070" unicode="&#x2070;" horiz-adv-x="444" 
d="M222 263q-57 0 -102.5 26t-72.5 70.5t-27 99.5t27 99.5t73 70.5t102 26q57 0 102.5 -26t72.5 -70.5t27 -99.5t-26.5 -99.5t-72.5 -70.5t-103 -26zM222 335q35 0 63.5 16.5t45 45t16.5 62.5t-17 62t-45.5 45t-62.5 17q-35 0 -63.5 -16.5t-45 -45t-16.5 -62.5t17 -62
t45.5 -45t62.5 -17z" />
    <glyph glyph-name="uni2074" unicode="&#x2074;" horiz-adv-x="334" 
d="M289 268h-73v36q0 32 -13 49t-33.5 27t-44 18.5t-44 23t-33.5 41t-13 71.5v116h73v-116q0 -31 12.5 -46.5t32 -24t41 -16.5t41 -23t32 -43t12.5 -77l-63 87v167h73v-290z" />
    <glyph glyph-name="uni2075" unicode="&#x2075;" horiz-adv-x="335" 
d="M173 263q-41 0 -73.5 17t-51 47.5t-18.5 71.5h73q0 -28 18 -48t52 -20q27 0 44.5 16.5t17.5 41.5q0 23 -17 38.5t-48 19.5l-125 17l38 186h190v-70h-164l38 36l-25 -123l-27 34l85 -12q64 -9 97 -41.5t33 -85.5q0 -35 -18 -63.5t-48.5 -45t-70.5 -16.5z" />
    <glyph glyph-name="uni2076" unicode="&#x2076;" horiz-adv-x="341" 
d="M173 263q-42 0 -75.5 18.5t-53 50t-19.5 70.5q0 32 12.5 58.5t30.5 49.5t37 45t33 45t17 50h75q-3 -25 -12 -45.5t-22 -37.5t-28 -34q33 1 61 -8.5t48.5 -27t32 -42t11.5 -53.5q0 -39 -19.5 -70.5t-53 -50t-75.5 -18.5zM173 331q21 0 38 9.5t27 26t10 35.5q0 20 -10 36
t-27 25.5t-38 9.5q-20 0 -37 -10t-27.5 -26t-10.5 -35t10 -35.5t27 -26t38 -9.5z" />
    <glyph glyph-name="uni2077" unicode="&#x2077;" horiz-adv-x="306" 
d="M176 268h-75q4 55 12 102t21 90.5t32.5 88t45.5 95.5l8 -64h-195v70h261q-27 -58 -46.5 -105t-32 -90t-20 -88t-11.5 -99z" />
    <glyph glyph-name="uni2078" unicode="&#x2078;" horiz-adv-x="337" 
d="M168 331q32 0 52.5 17t20.5 42q0 27 -20.5 44.5t-52.5 17.5t-52 -17.5t-20 -44.5q0 -25 20.5 -42t51.5 -17zM168 599q-19 0 -31.5 -11t-12.5 -28t12.5 -28.5t31.5 -11.5t32 11.5t13 28.5t-12.5 28t-32.5 11zM168 263q-42 0 -75.5 16t-53 44t-19.5 63q0 34 19 61
t52.5 42.5t76.5 15.5q44 0 77.5 -15.5t52.5 -42t19 -61.5q0 -34 -20 -62t-53.5 -44.5t-75.5 -16.5zM168 655q48 0 79 -25.5t31 -66.5q0 -40 -31 -65t-79 -25t-78.5 25t-30.5 65q0 41 30.5 66.5t78.5 25.5z" />
    <glyph glyph-name="uni2079" unicode="&#x2079;" horiz-adv-x="341" 
d="M168 655q42 0 75.5 -18.5t53 -49.5t19.5 -71q0 -32 -12.5 -58.5t-30.5 -49.5t-37 -45t-33 -45t-17 -50h-75q3 26 12 46t22.5 37.5t27.5 33.5q-33 -1 -61 8.5t-48.5 27t-32 42t-11.5 53.5q0 40 19.5 71t53 49.5t75.5 18.5zM168 587q-21 0 -38 -9.5t-27 -25.5t-10 -36
q0 -19 10 -35.5t27 -26t38 -9.5q20 0 37 10t27.5 26t10.5 35q0 20 -10 36t-27 25.5t-38 9.5z" />
    <glyph glyph-name="uni2080" unicode="&#x2080;" horiz-adv-x="444" 
d="M222 -4q-57 0 -102.5 26t-72.5 70.5t-27 99.5t27 99.5t73 70.5t102 26q57 0 102.5 -26t72.5 -70.5t27 -99.5t-26.5 -99.5t-72.5 -70.5t-103 -26zM222 68q35 0 63.5 16.5t45 45t16.5 62.5t-17 62t-45.5 45t-62.5 17q-35 0 -63.5 -16.5t-45 -45t-16.5 -62.5t17 -62
t45.5 -45t62.5 -17z" />
    <glyph glyph-name="uni2081" unicode="&#x2081;" horiz-adv-x="225" 
d="M10 333q47 7 88 21.5t72 35.5v-390h-73v336l55 -22q-22 -21 -58.5 -34t-83.5 -17v70z" />
    <glyph glyph-name="uni2082" unicode="&#x2082;" horiz-adv-x="325" 
d="M161 387q37 0 66 -16t46 -43t17 -61q0 -28 -10.5 -53t-38.5 -57l-131 -155l-5 68h190v-70h-275l158 186q24 28 32.5 45.5t8.5 33.5q0 23 -17 39.5t-41 16.5t-41 -16.5t-17 -39.5q0 -29 24 -50l-43 -50q-52 43 -52 102q0 34 17 61t46 43t66 16z" />
    <glyph glyph-name="uni2083" unicode="&#x2083;" horiz-adv-x="331" 
d="M167 -5q-42 0 -75 18.5t-52.5 51t-19.5 74.5h73q0 -22 9.5 -39.5t26 -27t38.5 -9.5q32 0 51.5 18t19.5 44q0 15 -8.5 27.5t-23.5 19.5t-37 7h-25v70h25q43 0 75 -16t49.5 -44t17.5 -64q0 -37 -19 -66.5t-51.5 -46.5t-73.5 -17zM235 197l-52 31q26 24 26 51q0 17 -13 28.5
t-33 11.5t-33.5 -13t-13.5 -32h-73q0 49 33 81t87 32q51 0 85 -29.5t34 -74.5q0 -25 -12 -47t-35 -39z" />
    <glyph glyph-name="uni2084" unicode="&#x2084;" horiz-adv-x="334" 
d="M289 0h-73v36q0 32 -13 49t-33.5 27t-44 18.5t-44 23t-33.5 41t-13 71.5v116h73v-116q0 -30 12.5 -46t32 -24.5t41 -16.5t41 -23t32 -43t12.5 -77l-63 87v167h73v-290z" />
    <glyph glyph-name="uni2085" unicode="&#x2085;" horiz-adv-x="335" 
d="M173 -5q-41 0 -73.5 17t-51 47.5t-18.5 71.5h73q0 -28 18 -48t52 -20q27 0 44.5 16.5t17.5 41.5q0 23 -17 38.5t-48 19.5l-125 17l38 186h190v-70h-164l38 36l-25 -123l-27 34l85 -12q64 -9 97 -41.5t33 -85.5q0 -35 -18 -63.5t-48.5 -45t-70.5 -16.5z" />
    <glyph glyph-name="uni2086" unicode="&#x2086;" horiz-adv-x="341" 
d="M173 -5q-42 0 -75.5 18.5t-53 50t-19.5 70.5q0 32 12.5 58.5t30.5 49.5t37 45t33 45t17 50h75q-3 -25 -12 -45.5t-22 -37.5t-28 -34q33 1 61 -8.5t48.5 -27t32 -42t11.5 -53.5q0 -39 -19.5 -70.5t-53 -50t-75.5 -18.5zM173 63q21 0 38 9.5t27 26t10 35.5q0 20 -10 36
t-27 25.5t-38 9.5q-20 0 -37 -10t-27.5 -26t-10.5 -35t10 -35.5t27 -26t38 -9.5z" />
    <glyph glyph-name="uni2087" unicode="&#x2087;" horiz-adv-x="306" 
d="M176 0h-75q4 55 12 102t21 90.5t32.5 88t45.5 95.5l8 -64h-195v70h261q-27 -58 -46.5 -105t-32 -90t-20 -88t-11.5 -99z" />
    <glyph glyph-name="uni2088" unicode="&#x2088;" horiz-adv-x="337" 
d="M168 63q32 0 52.5 17t20.5 42q0 27 -20.5 44.5t-52.5 17.5t-52 -17.5t-20 -44.5q0 -25 20.5 -42t51.5 -17zM168 331q-19 0 -31.5 -11t-12.5 -28t12.5 -28.5t31.5 -11.5t32 11.5t13 28.5t-12.5 28t-32.5 11zM168 -5q-42 0 -75.5 16t-53 44t-19.5 63q0 34 19 61t52.5 42.5
t76.5 15.5q44 0 77.5 -15.5t52.5 -42t19 -61.5q0 -34 -20 -62t-53.5 -44.5t-75.5 -16.5zM168 387q48 0 79 -25.5t31 -66.5q0 -40 -31 -65t-79 -25t-78.5 25t-30.5 65q0 41 30.5 66.5t78.5 25.5z" />
    <glyph glyph-name="uni2089" unicode="&#x2089;" horiz-adv-x="341" 
d="M168 387q42 0 75.5 -18.5t53 -49.5t19.5 -71q0 -32 -12.5 -58.5t-30.5 -49.5t-37 -45t-33 -45t-17 -50h-75q3 26 12 46t22.5 37.5t27.5 33.5q-33 -1 -61 8.5t-48.5 27t-32 42t-11.5 53.5q0 40 19.5 71t53 49.5t75.5 18.5zM168 319q-21 0 -38 -9.5t-27 -25.5t-10 -36
q0 -19 10 -35.5t27 -26t38 -9.5q20 0 37 10t27.5 26t10.5 35q0 20 -10 36t-27 25.5t-38 9.5z" />
    <glyph glyph-name="Euro" unicode="&#x20ac;" horiz-adv-x="499" 
d="M394 366h-381v68h381v-68zM394 216h-381v68h381v-68zM464 0h-51q-68 0 -127.5 25t-104.5 70t-70 104t-25 126q0 68 25 126.5t70 103.5t104.5 70t127.5 25h51v-75h-51q-52 0 -96.5 -19.5t-78 -54t-52 -79.5t-18.5 -97t18.5 -97t52 -79.5t78 -54t96.5 -19.5h51v-75z" />
    <glyph glyph-name="uni20B9" unicode="&#x20b9;" horiz-adv-x="453" 
d="M428 405h-373v70h373v-70zM105 230l12 47l260 -277h-104l-218 230v70h30q86 0 130 36.5t44 99.5q0 66 -44.5 105t-129.5 39h-30v70h373v-70h-248v43q77 -16 118 -66.5t41 -120.5q0 -59 -28.5 -106t-81 -73.5t-124.5 -26.5z" />
    <glyph glyph-name="uni2116" unicode="&#x2116;" horiz-adv-x="900" 
d="M591 224v70h267v-70h-267zM725 371q-40 0 -73 19t-52.5 51.5t-19.5 71.5q0 40 19.5 72t52.5 51t73 19q41 0 73.5 -19t52 -51t19.5 -72q0 -39 -19.5 -71.5t-52 -51.5t-73.5 -19zM725 435q32 0 54.5 22t22.5 56q0 36 -22.5 57t-54.5 21q-20 0 -38 -9.5t-28.5 -27
t-10.5 -41.5q0 -23 10.5 -40.5t28.5 -27.5t38 -10zM75 0v650h75q58 -136 129 -243.5t166 -199.5l-20 -10v453h80v-650h-80v149l15 -40q-60 54 -114.5 115t-100.5 127.5t-81 134.5h11v-486h-80z" />
    <glyph glyph-name="trademark" unicode="&#x2122;" horiz-adv-x="783" 
d="M271 591h-251v59h251v-59zM179 268h-67v348h67v-348zM324 650h32q74 0 126 -35.5t60 -93.5h-37q9 58 60 93.5t126 35.5h32v-382h-64v336l31 -17h-21q-53 0 -83 -29.5t-30 -81.5v-88h-64v88q0 52 -30 81.5t-84 29.5h-20l30 17v-336h-64v382z" />
    <glyph glyph-name="estimated" unicode="&#x212e;" horiz-adv-x="732" 
d="M672 257h-496q-4 0 -4 -3v-150q0 -11 7 -18q36 -36 84.5 -58t103.5 -22q60 0 110.5 24.5t86.5 65.5h44q-41 -48 -104.5 -77.5t-137.5 -29.5q-63 0 -118.5 21.5t-97.5 59t-66 87.5t-24 107t24 107.5t66 88.5t97.5 59.5t118.5 21.5t118.5 -21.5t97.5 -59.5t66 -88.5
t24 -107.5v-7zM560 276v151q0 11 -8 19q-35 36 -82.5 57t-102.5 21t-102.5 -22t-84.5 -59q-8 -8 -8 -19v-148q0 -4 4 -4h381q3 0 3 4z" />
    <glyph glyph-name="uni2150" unicode="&#x2150;" horiz-adv-x="752" 
d="M10 601q47 7 88 21.5t72 35.5v-390h-73v336l55 -22q-22 -21 -58.5 -34t-83.5 -17v70zM116 0l353 650h84l-353 -650h-84zM622 0h-75q4 55 12 102t21 90.5t32.5 88t45.5 95.5l8 -64h-195v70h261q-27 -58 -46.5 -105t-32 -90t-20 -88t-11.5 -99z" />
    <glyph glyph-name="uni2151" unicode="&#x2151;" horiz-adv-x="766" 
d="M10 601q47 7 88 21.5t72 35.5v-390h-73v336l55 -22q-22 -21 -58.5 -34t-83.5 -17v70zM116 0l353 650h84l-353 -650h-84zM593 387q42 0 75.5 -18.5t53 -49.5t19.5 -71q0 -32 -12.5 -58.5t-30.5 -49.5t-37 -45t-33 -45t-17 -50h-75q3 26 12 46t22.5 37.5t27.5 33.5
q-33 -1 -61 8.5t-48.5 27t-32 42t-11.5 53.5q0 40 19.5 71t53 49.5t75.5 18.5zM593 319q-21 0 -38 -9.5t-27 -25.5t-10 -36q0 -19 10 -35.5t27 -26t38 -9.5q20 0 37 10t27.5 26t10.5 35q0 20 -10 36t-27 25.5t-38 9.5z" />
    <glyph glyph-name="onethird" unicode="&#x2153;" horiz-adv-x="749" 
d="M10 601q47 7 88 21.5t72 35.5v-390h-73v336l55 -22q-22 -21 -58.5 -34t-83.5 -17v70zM116 0l353 650h84l-353 -650h-84zM585 -5q-42 0 -75 18.5t-52.5 51t-19.5 74.5h73q0 -22 9.5 -39.5t26 -27t38.5 -9.5q32 0 51.5 18t19.5 44q0 15 -8.5 27.5t-23.5 19.5t-37 7h-25v70
h25q43 0 75 -16t49.5 -44t17.5 -64q0 -37 -19 -66.5t-51.5 -46.5t-73.5 -17zM653 197l-52 31q26 24 26 51q0 17 -13 28.5t-33 11.5t-33.5 -13t-13.5 -32h-73q0 49 33 81t87 32q51 0 85 -29.5t34 -74.5q0 -25 -12 -47t-35 -39z" />
    <glyph glyph-name="twothirds" unicode="&#x2154;" horiz-adv-x="863" 
d="M161 655q37 0 66 -16t46 -43t17 -61q0 -28 -10.5 -53t-38.5 -57l-131 -155l-5 68h190v-70h-275l158 186q24 28 32.5 45.5t8.5 33.5q0 23 -17 39.5t-41 16.5t-41 -16.5t-17 -39.5q0 -29 24 -50l-43 -50q-52 43 -52 102q0 34 17 61t46 43t66 16zM230 0l353 650h84
l-353 -650h-84zM699 -5q-42 0 -75 18.5t-52.5 51t-19.5 74.5h73q0 -22 9.5 -39.5t26 -27t38.5 -9.5q32 0 51.5 18t19.5 44q0 15 -8.5 27.5t-23.5 19.5t-37 7h-25v70h25q43 0 75 -16t49.5 -44t17.5 -64q0 -37 -19 -66.5t-51.5 -46.5t-73.5 -17zM767 197l-52 31q26 24 26 51
q0 17 -13 28.5t-33 11.5t-33.5 -13t-13.5 -32h-73q0 49 33 81t87 32q51 0 85 -29.5t34 -74.5q0 -25 -12 -47t-35 -39z" />
    <glyph glyph-name="uni2155" unicode="&#x2155;" horiz-adv-x="755" 
d="M10 601q47 7 88 21.5t72 35.5v-390h-73v336l55 -22q-22 -21 -58.5 -34t-83.5 -17v70zM117 0l353 650h84l-353 -650h-84zM593 -5q-41 0 -73.5 17t-51 47.5t-18.5 71.5h73q0 -28 18 -48t52 -20q27 0 44.5 16.5t17.5 41.5q0 23 -17 38.5t-48 19.5l-125 17l38 186h190v-70
h-164l38 36l-25 -123l-27 34l85 -12q64 -9 97 -41.5t33 -85.5q0 -35 -18 -63.5t-48.5 -45t-70.5 -16.5z" />
    <glyph glyph-name="uni2156" unicode="&#x2156;" horiz-adv-x="863" 
d="M161 655q37 0 66 -16t46 -43t17 -61q0 -28 -10.5 -53t-38.5 -57l-131 -155l-5 68h190v-70h-275l158 186q24 28 32.5 45.5t8.5 33.5q0 23 -17 39.5t-41 16.5t-41 -16.5t-17 -39.5q0 -29 24 -50l-43 -50q-52 43 -52 102q0 34 17 61t46 43t66 16zM230 0l353 650h84
l-353 -650h-84zM701 -5q-41 0 -73.5 17t-51 47.5t-18.5 71.5h73q0 -28 18 -48t52 -20q27 0 44.5 16.5t17.5 41.5q0 23 -17 38.5t-48 19.5l-125 17l38 186h190v-70h-164l38 36l-25 -123l-27 34l85 -12q64 -9 97 -41.5t33 -85.5q0 -35 -18 -63.5t-48.5 -45t-70.5 -16.5z" />
    <glyph glyph-name="uni2157" unicode="&#x2157;" horiz-adv-x="850" 
d="M167 263q-42 0 -75 18.5t-52.5 51t-19.5 74.5h73q0 -22 9.5 -39.5t26 -27t38.5 -9.5q32 0 51.5 18t19.5 44q0 15 -8.5 27.5t-23.5 19.5t-37 7h-25v70h25q43 0 75 -16t49.5 -44t17.5 -64q0 -37 -19 -66.5t-51.5 -46.5t-73.5 -17zM235 465l-52 31q26 24 26 51
q0 17 -13 28.5t-33 11.5t-33.5 -13t-13.5 -32h-73q0 49 33 81t87 32q51 0 85 -29.5t34 -74.5q0 -25 -12 -47t-35 -39zM212 0l353 650h84l-353 -650h-84zM688 -5q-41 0 -73.5 17t-51 47.5t-18.5 71.5h73q0 -28 18 -48t52 -20q27 0 44.5 16.5t17.5 41.5q0 23 -17 38.5
t-48 19.5l-125 17l38 186h190v-70h-164l38 36l-25 -123l-27 34l85 -12q64 -9 97 -41.5t33 -85.5q0 -35 -18 -63.5t-48.5 -45t-70.5 -16.5z" />
    <glyph glyph-name="uni2158" unicode="&#x2158;" horiz-adv-x="869" 
d="M289 268h-73v36q0 32 -13 49t-33.5 27t-44 18.5t-44 23t-33.5 41t-13 71.5v116h73v-116q0 -31 12.5 -46.5t32 -24t41 -16.5t41 -23t32 -43t12.5 -77l-63 87v167h73v-290zM231 0l353 650h84l-353 -650h-84zM707 -5q-41 0 -73.5 17t-51 47.5t-18.5 71.5h73q0 -28 18 -48
t52 -20q27 0 44.5 16.5t17.5 41.5q0 23 -17 38.5t-48 19.5l-125 17l38 186h190v-70h-164l38 36l-25 -123l-27 34l85 -12q64 -9 97 -41.5t33 -85.5q0 -35 -18 -63.5t-48.5 -45t-70.5 -16.5z" />
    <glyph glyph-name="uni2159" unicode="&#x2159;" horiz-adv-x="726" 
d="M10 601q47 7 88 21.5t72 35.5v-390h-73v336l55 -22q-22 -21 -58.5 -34t-83.5 -17v70zM117 0l353 650h84l-353 -650h-84zM558 -5q-42 0 -75.5 18.5t-53 50t-19.5 70.5q0 32 12.5 58.5t30.5 49.5t37 45t33 45t17 50h75q-3 -25 -12 -45.5t-22 -37.5t-28 -34q33 1 61 -8.5
t48.5 -27t32 -42t11.5 -53.5q0 -39 -19.5 -70.5t-53 -50t-75.5 -18.5zM558 63q21 0 38 9.5t27 26t10 35.5q0 20 -10 36t-27 25.5t-38 9.5q-20 0 -37 -10t-27.5 -26t-10.5 -35t10 -35.5t27 -26t38 -9.5z" />
    <glyph glyph-name="uni215A" unicode="&#x215a;" horiz-adv-x="818" 
d="M173 263q-41 0 -73.5 17t-51 47.5t-18.5 71.5h73q0 -28 18 -48t52 -20q27 0 44.5 16.5t17.5 41.5q0 23 -17 38.5t-48 19.5l-125 17l38 186h190v-70h-164l38 36l-25 -123l-27 34l85 -12q64 -9 97 -41.5t33 -85.5q0 -35 -18 -63.5t-48.5 -45t-70.5 -16.5zM209 0l353 650h84
l-353 -650h-84zM650 -5q-42 0 -75.5 18.5t-53 50t-19.5 70.5q0 32 12.5 58.5t30.5 49.5t37 45t33 45t17 50h75q-3 -25 -12 -45.5t-22 -37.5t-28 -34q33 1 61 -8.5t48.5 -27t32 -42t11.5 -53.5q0 -39 -19.5 -70.5t-53 -50t-75.5 -18.5zM650 63q21 0 38 9.5t27 26t10 35.5
q0 20 -10 36t-27 25.5t-38 9.5q-20 0 -37 -10t-27.5 -26t-10.5 -35t10 -35.5t27 -26t38 -9.5z" />
    <glyph glyph-name="oneeighth" unicode="&#x215b;" horiz-adv-x="739" 
d="M10 601q47 7 88 21.5t72 35.5v-390h-73v336l55 -22q-22 -21 -58.5 -34t-83.5 -17v70zM116 0l353 650h84l-353 -650h-84zM570 62q32 0 52.5 17t20.5 42q0 27 -20.5 44.5t-52.5 17.5t-52 -17.5t-20 -44.5q0 -25 20.5 -42t51.5 -17zM570 330q-19 0 -31.5 -11t-12.5 -28
t12.5 -28.5t31.5 -11.5t32 11.5t13 28.5t-12.5 28t-32.5 11zM570 -6q-42 0 -75.5 16t-53 44t-19.5 63q0 34 19 61t52.5 42.5t76.5 15.5q44 0 77.5 -15.5t52.5 -42t19 -61.5q0 -34 -20 -62t-53.5 -44.5t-75.5 -16.5zM570 386q48 0 79 -25.5t31 -66.5q0 -40 -31 -65t-79 -25
t-78.5 25t-30.5 65q0 41 30.5 66.5t78.5 25.5z" />
    <glyph glyph-name="threeeighths" unicode="&#x215c;" horiz-adv-x="835" 
d="M167 263q-42 0 -75 18.5t-52.5 51t-19.5 74.5h73q0 -22 9.5 -39.5t26 -27t38.5 -9.5q32 0 51.5 18t19.5 44q0 15 -8.5 27.5t-23.5 19.5t-37 7h-25v70h25q43 0 75 -16t49.5 -44t17.5 -64q0 -37 -19 -66.5t-51.5 -46.5t-73.5 -17zM235 465l-52 31q26 24 26 51
q0 17 -13 28.5t-33 11.5t-33.5 -13t-13.5 -32h-73q0 49 33 81t87 32q51 0 85 -29.5t34 -74.5q0 -25 -12 -47t-35 -39zM212 0l353 650h84l-353 -650h-84zM666 63q32 0 52.5 17t20.5 42q0 27 -20.5 44.5t-52.5 17.5t-52 -17.5t-20 -44.5q0 -25 20.5 -42t51.5 -17zM666 331
q-19 0 -31.5 -11t-12.5 -28t12.5 -28.5t31.5 -11.5t32 11.5t13 28.5t-12.5 28t-32.5 11zM666 -5q-42 0 -75.5 16t-53 44t-19.5 63q0 34 19 61t52.5 42.5t76.5 15.5q44 0 77.5 -15.5t52.5 -42t19 -61.5q0 -34 -20 -62t-53.5 -44.5t-75.5 -16.5zM666 387q48 0 79 -25.5
t31 -66.5q0 -40 -31 -65t-79 -25t-78.5 25t-30.5 65q0 41 30.5 66.5t78.5 25.5z" />
    <glyph glyph-name="fiveeighths" unicode="&#x215d;" horiz-adv-x="832" 
d="M173 263q-41 0 -73.5 17t-51 47.5t-18.5 71.5h73q0 -28 18 -48t52 -20q27 0 44.5 16.5t17.5 41.5q0 23 -17 38.5t-48 19.5l-125 17l38 186h190v-70h-164l38 36l-25 -123l-27 34l85 -12q64 -9 97 -41.5t33 -85.5q0 -35 -18 -63.5t-48.5 -45t-70.5 -16.5zM209 0l353 650h84
l-353 -650h-84zM663 63q32 0 52.5 17t20.5 42q0 27 -20.5 44.5t-52.5 17.5t-52 -17.5t-20 -44.5q0 -25 20.5 -42t51.5 -17zM663 331q-19 0 -31.5 -11t-12.5 -28t12.5 -28.5t31.5 -11.5t32 11.5t13 28.5t-12.5 28t-32.5 11zM663 -5q-42 0 -75.5 16t-53 44t-19.5 63
q0 34 19 61t52.5 42.5t76.5 15.5q44 0 77.5 -15.5t52.5 -42t19 -61.5q0 -34 -20 -62t-53.5 -44.5t-75.5 -16.5zM663 387q48 0 79 -25.5t31 -66.5q0 -40 -31 -65t-79 -25t-78.5 25t-30.5 65q0 41 30.5 66.5t78.5 25.5z" />
    <glyph glyph-name="seveneighths" unicode="&#x215e;" horiz-adv-x="753" 
d="M176 268h-75q4 55 12 102t21 90.5t32.5 88t45.5 95.5l8 -64h-195v70h261q-27 -58 -46.5 -105t-32 -90t-20 -88t-11.5 -99zM131 0l353 650h84l-353 -650h-84zM585 63q32 0 52.5 17t20.5 42q0 27 -20.5 44.5t-52.5 17.5t-52 -17.5t-20 -44.5q0 -25 20.5 -42t51.5 -17z
M585 331q-19 0 -31.5 -11t-12.5 -28t12.5 -28.5t31.5 -11.5t32 11.5t13 28.5t-12.5 28t-32.5 11zM585 -5q-42 0 -75.5 16t-53 44t-19.5 63q0 34 19 61t52.5 42.5t76.5 15.5q44 0 77.5 -15.5t52.5 -42t19 -61.5q0 -34 -20 -62t-53.5 -44.5t-75.5 -16.5zM585 387
q48 0 79 -25.5t31 -66.5q0 -40 -31 -65t-79 -25t-78.5 25t-30.5 65q0 41 30.5 66.5t78.5 25.5z" />
    <glyph glyph-name="arrowleft" unicode="&#x2190;" horiz-adv-x="621" 
d="M181 24l-158 213l158 213h78l-170 -233v39l170 -232h-78zM59 203v67l528 3v-73z" />
    <glyph glyph-name="arrowup" unicode="&#x2191;" horiz-adv-x="493" 
d="M33 403l213 158l213 -158v-75l-232 171h39l-233 -171v75zM212 529h69l3 -529h-76z" />
    <glyph glyph-name="arrowright" unicode="&#x2192;" horiz-adv-x="621" 
d="M440 450l157 -213l-157 -213h-78l170 232v-39l-170 233h78zM562 270v-67l-529 -3v73z" />
    <glyph glyph-name="arrowdown" unicode="&#x2193;" horiz-adv-x="493" 
d="M33 70v75l233 -171h-39l232 171v-75l-213 -157zM212 -56l-4 529h76l-3 -529h-69z" />
    <glyph glyph-name="arrowboth" unicode="&#x2194;" horiz-adv-x="663" 
d="M331 202l-272 1v67l272 2l273 -2v-67zM181 24l-158 213l158 213h78l-170 -233v39l170 -232h-78zM482 450l157 -213l-157 -213h-78l170 232v-39l-170 233h78z" />
    <glyph glyph-name="arrowupdn" unicode="&#x2195;" horiz-adv-x="493" 
d="M33 382l213 157l213 -157v-75l-233 170h40l-233 -170v75zM210 238l2 266h69l2 -266l-2 -265h-69zM33 95v75l233 -171h-39l232 171v-75l-213 -158z" />
    <glyph glyph-name="uni2196" unicode="&#x2196;" horiz-adv-x="546" 
d="M50 174v299h290l60 -60l-318 4l24 24l4 -330zM59 419l48 48l409 -419l-52 -52z" />
    <glyph glyph-name="uni2197" unicode="&#x2197;" horiz-adv-x="546" 
d="M496 174l-60 -63l3 330l25 -24l-318 -4l60 60h290v-299zM486 419l-404 -423l-52 52l408 419z" />
    <glyph glyph-name="uni2198" unicode="&#x2198;" horiz-adv-x="546" 
d="M496 299v-299h-290l-60 60l318 -4l-25 -24l-3 330zM486 54l-48 -48l-408 419l52 52z" />
    <glyph glyph-name="uni2199" unicode="&#x2199;" horiz-adv-x="546" 
d="M50 299l60 63l-4 -330l-24 24l318 4l-60 -60h-290v299zM59 54l405 423l52 -52l-409 -419z" />
    <glyph glyph-name="minus" unicode="&#x2212;" horiz-adv-x="480" 
d="M50 350h380v-64h-380v64z" />
    <glyph glyph-name="uni2215" unicode="&#x2215;" horiz-adv-x="269" 
d="M-84 0l353 650h84l-353 -650h-84z" />
    <glyph glyph-name="approxequal" unicode="&#x2248;" horiz-adv-x="480" 
d="M345 441q45 0 85 20v-64q-19 -9 -40.5 -14.5t-44.5 -5.5q-39 0 -74.5 10t-69 20t-66.5 10q-24 0 -45 -5.5t-40 -14.5v64q19 9 40 14.5t45 5.5q39 0 74 -10t68.5 -20t67.5 -10zM345 219q45 0 85 20v-64q-19 -9 -40.5 -14.5t-44.5 -5.5q-39 0 -74.5 10t-69 20t-66.5 10
q-24 0 -45 -5.5t-40 -14.5v64q19 9 40 14.5t45 5.5q39 0 74 -10t68.5 -20t67.5 -10z" />
    <glyph glyph-name="notequal" unicode="&#x2260;" horiz-adv-x="480" 
d="M297 564h67l-180 -491h-67zM50 239h380v-64h-380v64zM50 460h380v-63h-380v63z" />
    <glyph glyph-name="lessequal" unicode="&#x2264;" horiz-adv-x="480" 
d="M60 60h350v-60h-350v60zM60 295v85l350 152v-75l-311 -129v20l311 -119v-76z" />
    <glyph glyph-name="greaterequal" unicode="&#x2265;" horiz-adv-x="480" 
d="M70 0v60h350v-60h-350zM70 153v75l311 129v-20l-311 119v76l350 -142v-85z" />
    <glyph glyph-name="uni2780" unicode="&#x2780;" horiz-adv-x="826" 
d="M413 620q-61 0 -114.5 -22.5t-93.5 -63t-62.5 -94t-22.5 -115.5t22.5 -115.5t62.5 -94t93.5 -63t114.5 -22.5q62 0 115 22.5t93 63t62.5 94t22.5 115.5t-22.5 115.5t-62.5 94t-93 63t-115 22.5zM413 -42q-78 0 -145.5 28t-118 78.5t-79 117t-28.5 143.5t28.5 143.5
t79 117t118 78.5t145.5 28t145.5 -28t118 -78.5t79 -117t28.5 -143.5t-28.5 -143.5t-79 -117t-118 -78.5t-145.5 -28zM470 524v-390h-73v281q-19 -7 -40.5 -11.5t-46.5 -6.5v70q47 7 88 21.5t72 35.5z" />
    <glyph glyph-name="uni2781" unicode="&#x2781;" horiz-adv-x="826" 
d="M413 -42q-78 0 -145.5 28t-118 78.5t-79 117t-28.5 143.5t28.5 143.5t79 117t118 78.5t145.5 28t145.5 -28t118 -78.5t79 -117t28.5 -143.5t-28.5 -143.5t-79 -117t-118 -78.5t-145.5 -28zM550 204v-70h-275l158 186q24 28 32.5 45.5t8.5 33.5q0 23 -17 39.5t-41 16.5
t-41 -16.5t-17 -39.5q0 -29 24 -50l-43 -50q-52 43 -52 102q0 34 17 61t46.5 43t65.5 16q37 0 66 -16t46 -43t17 -61q0 -28 -10.5 -53t-38.5 -57l-74 -87h128zM413 620q-61 0 -114.5 -22.5t-93.5 -63t-62.5 -94t-22.5 -115.5t22.5 -115.5t62.5 -94t93.5 -63t114.5 -22.5
q62 0 115 22.5t93 63t62.5 94t22.5 115.5t-22.5 115.5t-62.5 94t-93 63t-115 22.5z" />
    <glyph glyph-name="uni2782" unicode="&#x2782;" horiz-adv-x="826" 
d="M413 -42q-78 0 -145.5 28t-118 78.5t-79 117t-28.5 143.5t28.5 143.5t79 117t118 78.5t145.5 28t145.5 -28t118 -78.5t79 -117t28.5 -143.5t-28.5 -143.5t-79 -117t-118 -78.5t-145.5 -28zM561 259q0 -37 -19 -66.5t-51.5 -46.5t-73.5 -17q-42 0 -75.5 18.5t-52.5 51
t-19 74.5h73q0 -22 9.5 -39.5t26 -27t38.5 -9.5q31 0 51 17.5t20 44.5q0 16 -8.5 28t-24 19t-36.5 7h-25v70h25q8 0 17 -0.5t13 -1.5q10 16 10 32q0 17 -13 28.5t-33 11.5t-33.5 -13t-13.5 -32h-73q0 50 33.5 81.5t86.5 31.5q51 0 85 -29.5t34 -74.5q0 -16 -5 -31.5
t-16 -29.5q25 -16 37.5 -41t12.5 -56zM413 620q-61 0 -114.5 -22.5t-93.5 -63t-62.5 -94t-22.5 -115.5t22.5 -115.5t62.5 -94t93.5 -63t114.5 -22.5q62 0 115 22.5t93 63t62.5 94t22.5 115.5t-22.5 115.5t-62.5 94t-93 63t-115 22.5z" />
    <glyph glyph-name="uni2783" unicode="&#x2783;" horiz-adv-x="826" 
d="M413 -42q-78 0 -145.5 28t-118 78.5t-79 117t-28.5 143.5t28.5 143.5t79 117t118 78.5t145.5 28t145.5 -28t118 -78.5t79 -117t28.5 -143.5t-28.5 -143.5t-79 -117t-118 -78.5t-145.5 -28zM523 424v-290h-73v36q0 32 -13 49t-33.5 27t-44 18.5t-44 23t-33.5 41t-13 71.5
v116h73v-116q0 -22 6.5 -35.5t17.5 -22.5t25 -15t29 -11.5t30 -13.5v122h73zM413 620q-61 0 -114.5 -22.5t-93.5 -63t-62.5 -94t-22.5 -115.5t22.5 -115.5t62.5 -94t93.5 -63t114.5 -22.5q62 0 115 22.5t93 63t62.5 94t22.5 115.5t-22.5 115.5t-62.5 94t-93 63t-115 22.5z
" />
    <glyph glyph-name="uni2784" unicode="&#x2784;" horiz-adv-x="826" 
d="M413 -42q-78 0 -145.5 28t-118 78.5t-79 117t-28.5 143.5t28.5 143.5t79 117t118 78.5t145.5 28t145.5 -28t118 -78.5t79 -117t28.5 -143.5t-28.5 -143.5t-79 -117t-118 -78.5t-145.5 -28zM560 255q0 -35 -18 -63.5t-48.5 -45t-70.5 -16.5q-41 0 -73.5 17t-51 47.5
t-18.5 71.5h73q0 -28 18 -48t52 -20q27 0 44.5 16.5t17.5 41.5q0 23 -17 38.5t-48 19.5l-125 17l38 186h190v-70h-133l-12 -58l52 -7q64 -9 97 -41.5t33 -85.5zM413 620q-61 0 -114.5 -22.5t-93.5 -63t-62.5 -94t-22.5 -115.5t22.5 -115.5t62.5 -94t93.5 -63t114.5 -22.5
q62 0 115 22.5t93 63t62.5 94t22.5 115.5t-22.5 115.5t-62.5 94t-93 63t-115 22.5z" />
    <glyph glyph-name="uni2785" unicode="&#x2785;" horiz-adv-x="826" 
d="M413 -42q-78 0 -145.5 28t-118 78.5t-79 117t-28.5 143.5t28.5 143.5t79 117t118 78.5t145.5 28t145.5 -28t118 -78.5t79 -117t28.5 -143.5t-28.5 -143.5t-79 -117t-118 -78.5t-145.5 -28zM413 620q-61 0 -114.5 -22.5t-93.5 -63t-62.5 -94t-22.5 -115.5t22.5 -115.5
t62.5 -94t93.5 -63t114.5 -22.5q62 0 115 22.5t93 63t62.5 94t22.5 115.5t-22.5 115.5t-62.5 94t-93 63t-115 22.5zM413 129q-42 0 -75.5 18.5t-53 50t-19.5 70.5q0 32 12.5 58.5t30.5 49.5t37 45t33 45t17 50h75q-3 -25 -12 -45.5t-22 -37.5t-28 -34q33 1 61 -8.5t48.5 -27
t32 -42t11.5 -53.5q0 -39 -19.5 -70.5t-53 -50t-75.5 -18.5zM413 197q21 0 38 9.5t27 26t10 35.5q0 20 -10 36t-27 25.5t-38 9.5q-20 0 -37 -10t-27.5 -26t-10.5 -35t10 -35.5t27 -26t38 -9.5z" />
    <glyph glyph-name="uni2786" unicode="&#x2786;" horiz-adv-x="826" 
d="M413 -42q-78 0 -145.5 28t-118 78.5t-79 117t-28.5 143.5t28.5 143.5t79 117t118 78.5t145.5 28t145.5 -28t118 -78.5t79 -117t28.5 -143.5t-28.5 -143.5t-79 -117t-118 -78.5t-145.5 -28zM551 516q-27 -58 -46.5 -105t-32 -90t-20 -88t-11.5 -99h-75q5 62 14 113t25 99
t40 100h-155v70h261zM413 620q-61 0 -114.5 -22.5t-93.5 -63t-62.5 -94t-22.5 -115.5t22.5 -115.5t62.5 -94t93.5 -63t114.5 -22.5q62 0 115 22.5t93 63t62.5 94t22.5 115.5t-22.5 115.5t-62.5 94t-93 63t-115 22.5z" />
    <glyph glyph-name="uni2787" unicode="&#x2787;" horiz-adv-x="826" 
d="M413 -42q-78 0 -145.5 28t-118 78.5t-79 117t-28.5 143.5t28.5 143.5t79 117t118 78.5t145.5 28t145.5 -28t118 -78.5t79 -117t28.5 -143.5t-28.5 -143.5t-79 -117t-118 -78.5t-145.5 -28zM562 252q0 -34 -19.5 -62t-53.5 -44.5t-76 -16.5t-75.5 16t-53 44t-19.5 63
t21 63.5t57 42.5q-18 12 -28.5 30.5t-10.5 40.5q0 41 30.5 66.5t78.5 25.5t79 -25.5t31 -66.5q0 -22 -10.5 -40.5t-28.5 -30.5q36 -14 57 -42t21 -64zM413 465q-19 0 -31.5 -11t-12.5 -28t12.5 -28.5t31.5 -11.5t32 11.5t13 28.5t-12.5 28t-32.5 11zM413 197q32 0 52.5 17
t20.5 42q0 27 -20.5 44.5t-52.5 17.5t-52 -17.5t-20 -44.5q0 -25 20.5 -42t51.5 -17zM413 620q-61 0 -114.5 -22.5t-93.5 -63t-62.5 -94t-22.5 -115.5t22.5 -115.5t62.5 -94t93.5 -63t114.5 -22.5q62 0 115 22.5t93 63t62.5 94t22.5 115.5t-22.5 115.5t-62.5 94t-93 63
t-115 22.5z" />
    <glyph glyph-name="uni2788" unicode="&#x2788;" horiz-adv-x="826" 
d="M413 -42q-78 0 -145.5 28t-118 78.5t-79 117t-28.5 143.5t28.5 143.5t79 117t118 78.5t145.5 28t145.5 -28t118 -78.5t79 -117t28.5 -143.5t-28.5 -143.5t-79 -117t-118 -78.5t-145.5 -28zM413 620q-61 0 -114.5 -22.5t-93.5 -62.5t-62.5 -94t-22.5 -116t22.5 -116
t62.5 -94t93.5 -62.5t114.5 -22.5q62 0 115 22.5t93 63t62.5 94t22.5 115.5t-22.5 115.5t-62.5 94t-93 63t-115 22.5zM418 521q42 0 75.5 -18.5t53 -49.5t19.5 -71q0 -32 -12.5 -58.5t-30.5 -49.5t-37 -45t-33 -45t-17 -50h-75q3 26 12 46t22.5 37.5t27.5 33.5
q-33 -1 -61 8.5t-48.5 27t-32 42t-11.5 53.5q0 40 19.5 71t53 49.5t75.5 18.5zM418 453q-21 0 -38 -9.5t-27 -25.5t-10 -36q0 -19 10 -35.5t27 -26t38 -9.5q20 0 37 10t27.5 26t10.5 35q0 20 -10 36t-27 25.5t-38 9.5z" />
    <glyph glyph-name="uni278A" unicode="&#x278a;" horiz-adv-x="826" 
d="M413 -42q-78 0 -145.5 28t-118 78.5t-79 117t-28.5 143.5t28.5 143.5t79 117t118 78.5t145.5 28t145.5 -28t118 -78.5t79 -117t28.5 -143.5t-28.5 -143.5t-79 -117t-118 -78.5t-145.5 -28zM470 524q-31 -21 -72 -35.5t-88 -21.5v-70q25 2 46.5 6.5t40.5 11.5v-281h73v390
z" />
    <glyph glyph-name="uni278B" unicode="&#x278b;" horiz-adv-x="826" 
d="M413 -42q-78 0 -145.5 28t-118 78.5t-79 117t-28.5 143.5t28.5 143.5t79 117t118 78.5t145.5 28t145.5 -28t118 -78.5t79 -117t28.5 -143.5t-28.5 -143.5t-79 -117t-118 -78.5t-145.5 -28zM550 204h-128l74 87q28 32 38.5 57t10.5 53q0 34 -17 61t-46 43t-66 16
q-36 0 -65.5 -16t-46.5 -43t-17 -61q0 -59 52 -102l43 50q-24 21 -24 50q0 23 17 39.5t41 16.5t41 -16.5t17 -39.5q0 -16 -8.5 -33.5t-32.5 -45.5l-158 -186h275v70z" />
    <glyph glyph-name="uni278C" unicode="&#x278c;" horiz-adv-x="826" 
d="M413 -42q-78 0 -145.5 28t-118 78.5t-79 117t-28.5 143.5t28.5 143.5t79 117t118 78.5t145.5 28t145.5 -28t118 -78.5t79 -117t28.5 -143.5t-28.5 -143.5t-79 -117t-118 -78.5t-145.5 -28zM561 259q0 31 -12.5 56t-37.5 41q11 14 16 29.5t5 31.5q0 45 -34 74.5t-85 29.5
q-53 0 -86.5 -31.5t-33.5 -81.5h73q0 19 13.5 32t33.5 13t33 -11.5t13 -28.5q0 -16 -10 -32q-4 1 -13 1.5t-17 0.5h-25v-70h25q21 0 36.5 -7t24 -19t8.5 -28q0 -27 -20 -44.5t-51 -17.5q-22 0 -38.5 9.5t-26 27t-9.5 39.5h-73q0 -42 19 -74.5t52.5 -51t75.5 -18.5
q41 0 73.5 17t51.5 46.5t19 66.5z" />
    <glyph glyph-name="uni278D" unicode="&#x278d;" horiz-adv-x="826" 
d="M413 -42q-78 0 -145.5 28t-118 78.5t-79 117t-28.5 143.5t28.5 143.5t79 117t118 78.5t145.5 28t145.5 -28t118 -78.5t79 -117t28.5 -143.5t-28.5 -143.5t-79 -117t-118 -78.5t-145.5 -28zM523 424h-73v-122q-15 8 -30 13.5t-29 11.5t-25 15t-17.5 22.5t-6.5 35.5v116
h-73v-116q0 -45 13 -71.5t33.5 -41t44 -23t44 -18.5t33.5 -27t13 -49v-36h73v290z" />
    <glyph glyph-name="uni278E" unicode="&#x278e;" horiz-adv-x="826" 
d="M413 -42q-78 0 -145.5 28t-118 78.5t-79 117t-28.5 143.5t28.5 143.5t79 117t118 78.5t145.5 28t145.5 -28t118 -78.5t79 -117t28.5 -143.5t-28.5 -143.5t-79 -117t-118 -78.5t-145.5 -28zM560 255q0 53 -33 85.5t-97 41.5l-52 7l12 58h133v70h-190l-38 -186l125 -17
q31 -4 48 -19.5t17 -38.5q0 -25 -17.5 -41.5t-44.5 -16.5q-34 0 -52 20t-18 48h-73q0 -41 18.5 -71.5t51 -47.5t73.5 -17q40 0 70.5 16.5t48.5 45t18 63.5z" />
    <glyph glyph-name="uni278F" unicode="&#x278f;" horiz-adv-x="826" 
d="M413 -42q-78 0 -145.5 28t-118 78.5t-79 117t-28.5 143.5t28.5 143.5t79 117t118 78.5t145.5 28t145.5 -28t118 -78.5t79 -117t28.5 -143.5t-28.5 -143.5t-79 -117t-118 -78.5t-145.5 -28zM413 129q42 0 75.5 18.5t53 50t19.5 70.5q0 29 -11.5 53.5t-32 42t-48.5 27
t-61 8.5q15 17 28 34t22 37.5t12 45.5h-75q-3 -27 -17 -50t-33 -45t-37 -45t-30.5 -49.5t-12.5 -58.5q0 -39 19.5 -70.5t53 -50t75.5 -18.5zM413 197q-21 0 -38 9.5t-27 26t-10 35.5t10.5 35t27.5 26t37 10q21 0 38 -9.5t27 -25.5t10 -36q0 -19 -10 -35.5t-27 -26t-38 -9.5z
" />
    <glyph glyph-name="uni2790" unicode="&#x2790;" horiz-adv-x="826" 
d="M413 -42q-78 0 -145.5 28t-118 78.5t-79 117t-28.5 143.5t28.5 143.5t79 117t118 78.5t145.5 28t145.5 -28t118 -78.5t79 -117t28.5 -143.5t-28.5 -143.5t-79 -117t-118 -78.5t-145.5 -28zM551 516h-261v-70h155q-24 -52 -40 -100t-25 -99t-14 -113h75q4 54 11.5 99
t20 88t32 90t46.5 105z" />
    <glyph glyph-name="uni2791" unicode="&#x2791;" horiz-adv-x="826" 
d="M413 -42q-78 0 -145.5 28t-118 78.5t-79 117t-28.5 143.5t28.5 143.5t79 117t118 78.5t145.5 28t145.5 -28t118 -78.5t79 -117t28.5 -143.5t-28.5 -143.5t-79 -117t-118 -78.5t-145.5 -28zM562 252q0 36 -21 64t-57 42q18 12 28.5 30.5t10.5 40.5q0 41 -31 66.5t-79 25.5
t-78.5 -25.5t-30.5 -66.5q0 -22 10.5 -40.5t28.5 -30.5q-36 -14 -57 -42.5t-21 -63.5t19.5 -63t53 -44t75.5 -16t76 16.5t53.5 44.5t19.5 62zM413 465q20 0 32.5 -11t12.5 -28t-13 -28.5t-32 -11.5t-31.5 11.5t-12.5 28.5t12.5 28t31.5 11zM413 197q-31 0 -51.5 17t-20.5 42
q0 27 20 44.5t52 17.5t52.5 -17.5t20.5 -44.5q0 -25 -20.5 -42t-52.5 -17z" />
    <glyph glyph-name="uni2792" unicode="&#x2792;" horiz-adv-x="826" 
d="M413 -42q-78 0 -145.5 28t-118 78.5t-79 117t-28.5 143.5t28.5 143.5t79 117t118 78.5t145.5 28t145.5 -28t118 -78.5t79 -117t28.5 -143.5t-28.5 -143.5t-79 -117t-118 -78.5t-145.5 -28zM418 521q-42 0 -75.5 -18.5t-53 -49.5t-19.5 -71q0 -29 11.5 -53.5t32 -42
t48.5 -27t61 -8.5q-14 -16 -27.5 -33.5t-22.5 -37.5t-12 -46h75q3 27 17 50t33 45t37 45t30.5 49.5t12.5 58.5q0 40 -19.5 71t-53 49.5t-75.5 18.5zM418 453q21 0 38 -9.5t27 -25.5t10 -36q0 -19 -10.5 -35t-27.5 -26t-37 -10q-21 0 -38 9.5t-27 26t-10 35.5q0 20 10 36
t27 25.5t38 9.5z" />
    <glyph glyph-name="uni0326" unicode="&#xf6c3;" horiz-adv-x="520" 
d="M213 -225q15 30 25.5 58.5t14.5 53.5l31 -35q-8 -10 -27 -10q-22 0 -36.5 13.5t-14.5 35.5t14.5 36t36.5 14q23 0 37 -14.5t14 -38.5q0 -22 -11 -51.5t-31 -61.5h-53z" />
    <glyph glyph-name="A.alt1" 
d="M146 46v-46h-80v446q0 63 26.5 111t74.5 75t110 27q63 0 110.5 -27t74 -75t26.5 -111v-446h-80v273q-24 -20 -52.5 -35.5t-58 -29.5t-56.5 -28.5t-48.5 -32.5t-34 -42.5t-12.5 -58.5zM146 446v-243q24 20 52.5 35.5t58 29t56.5 28t48.5 33t34 43t12.5 58.5v16
q0 40 -17 70t-46.5 47.5t-67.5 17.5t-68 -17.5t-46.5 -47.5t-16.5 -70z" />
    <glyph glyph-name="A.alt2" 
d="M66 0v446q0 63 26.5 111t74.5 75t110 27q63 0 110.5 -27t74 -75t26.5 -111v-446h-80v200h-262v-200h-80zM146 446v-171h262v171q0 40 -17 70t-46.5 47.5t-67.5 17.5t-68 -17.5t-46.5 -47.5t-16.5 -70z" />
    <glyph glyph-name="B.alt1" 
d="M262 361l29 35q66 0 116 -24t78.5 -66.5t28.5 -98.5q0 -60 -29.5 -106.5t-81 -73.5t-118.5 -27h-211v650h193q52 0 90.5 -18t60 -50.5t21.5 -77.5q0 -67 -47 -105t-130 -38zM114 339v74h153q43 0 68.5 22t25.5 59q0 38 -25 59.5t-69 21.5h-150l37 35v-570l-37 35h168
q42 0 75.5 17.5t52.5 47.5t19 67q0 39 -19 68.5t-52 46.5t-76 17h-171z" />
    <glyph glyph-name="C.alt1" horiz-adv-x="419" 
d="M379 0h-10q-68 0 -127.5 25t-104.5 70t-70 104t-25 126q0 68 25 126.5t70 103.5t104.5 70t127.5 25h10v-75h-10q-52 0 -96.5 -19.5t-78 -54t-52 -79.5t-18.5 -97t18.5 -97t52 -79.5t78 -54t96.5 -19.5h10v-75z" />
    <glyph glyph-name="E.alt1" horiz-adv-x="460" 
d="M384 368v-75h-276v75h276zM75 0v650h343v-75h-300l37 35v-580l-43 45h306v-75h-343z" />
    <glyph glyph-name="F.alt1" horiz-adv-x="449" 
d="M382 355v-75h-274v75h274zM75 0v650h339v-75h-306l47 45v-620h-80z" />
    <glyph glyph-name="G.alt1" horiz-adv-x="480" 
d="M420 0h-51q-68 0 -127.5 25t-104.5 70t-70 104t-25 126q0 68 25 126.5t70 103.5t104.5 70t127.5 25h41v-75h-41q-51 0 -95 -19.5t-78 -54t-53 -79.5t-19 -97t19 -97t53 -79.5t78 -54t95 -19.5l-27 -14v307h78v-368z" />
    <glyph glyph-name="H.alt1" horiz-adv-x="580" 
d="M425 0v357l68 133q0 -57 -18.5 -95t-48.5 -63t-66 -42.5t-72 -33t-66 -34t-48.5 -46t-18.5 -70.5v-106h-80v650h80v-423l-68 -121q0 57 18.5 95t48.5 63t66 42.5t72 33t66 34t48.5 46t18.5 70.5v160h80v-650h-80z" />
    <glyph glyph-name="H.alt2" horiz-adv-x="580" 
d="M505 0h-80v650h80v-650zM155 0h-80v650h80v-650zM453 269h-326v74h326v-74z" />
    <glyph glyph-name="I.alt1" horiz-adv-x="230" 
d="M75 0v504q18 5 39.5 8.5t40.5 4.5v-517h-80zM75 564v86h80v-73q-13 -1 -27.5 -3t-27.5 -4.5t-25 -5.5z" />
    <glyph glyph-name="K.alt1" horiz-adv-x="561" 
d="M155 0h-80v650h80v-650zM108 120v86q81 33 137.5 72t92 90.5t54 120.5t23.5 161h80q-5 -107 -27 -187t-63.5 -139.5t-106.5 -107.5h-6q-34 -23 -78.5 -46.5t-105.5 -49.5zM260 229l64 50l222 -279h-102z" />
    <glyph glyph-name="P.alt1" horiz-adv-x="539" 
d="M75 0v650h167q77 0 135.5 -31.5t92 -86.5t33.5 -127q0 -74 -32.5 -130t-89 -87.5t-128.5 -31.5q-34 0 -68.5 8t-63.5 24v80q29 -18 62 -27.5t67 -9.5q51 0 89.5 21.5t60 60.5t21.5 92q0 50 -22.5 88.5t-62.5 60t-93 21.5h-121l33 45v-620h-80z" />
    <glyph glyph-name="Q.alt1" horiz-adv-x="758" 
d="M374 584q-52 0 -97 -20t-79.5 -55t-54 -81t-19.5 -99q0 -52 19.5 -98.5t54.5 -81t80.5 -54.5t97.5 -20q51 0 96 20t79 54.5t53.5 81t19.5 98.5q0 53 -19.5 99t-54 81t-79.5 55t-97 20zM734 0h-348q-73 0 -135.5 25t-109.5 70t-73 105t-26 129t25.5 129t71.5 105t106 70.5
t129 25.5t129 -25.5t106 -70.5t71.5 -105t25.5 -129q0 -73 -31.5 -137t-88 -109.5t-130.5 -63.5v51l278 5v-75z" />
    <glyph glyph-name="R.alt1" horiz-adv-x="543" 
d="M411 0l-278 251l97 12l291 -263h-110zM75 0v650h172q77 0 133 -27.5t87 -76t31 -111.5q0 -65 -32 -114t-88 -76t-129 -27q-38 0 -67 8t-58 24v74q30 -18 61.5 -25.5t62.5 -7.5q51 0 89 18t58.5 50.5t20.5 75.5q0 41 -20 72.5t-57.5 49.5t-90.5 18h-126l33 35v-610h-80z
" />
    <glyph glyph-name="S.alt1" horiz-adv-x="368" 
d="M145 450q0 97 50 148.5t142 51.5h6v-75h-6q-53 0 -82.5 -32t-29.5 -91v-253q0 -96 -50 -147.5t-143 -51.5h-7v75h7q53 0 83 32t30 90v253z" />
    <glyph glyph-name="T.alt1" horiz-adv-x="462" 
d="M437 575h-412v75h412v-75zM271 0h-80v623h80v-623z" />
    <glyph glyph-name="X.alt1" horiz-adv-x="552" 
d="M276 266q39 0 68 15.5t45 42.5t16 63v263h80v-263q0 -57 -26 -100t-73 -67t-110 -24t-110 24t-73 67t-26 100v263h80v-263q0 -36 16 -63t45.5 -42.5t67.5 -15.5zM276 186q-41 0 -72.5 -16t-48.5 -45t-17 -68v-57h-80v57q0 61 27 105.5t76 69t115 24.5q67 0 115.5 -24.5
t75.5 -69t27 -105.5v-57h-80v57q0 39 -17 68t-48 45t-73 16z" />
    <glyph glyph-name="X.alt2" horiz-adv-x="552" 
d="M276 435q39 0 68 15.5t45 42.5t16 63v94h80v-94q0 -58 -26 -100.5t-73 -66.5t-110 -24t-110 24t-73 66.5t-26 100.5v94h80v-94q0 -36 16 -63t45.5 -42.5t67.5 -15.5zM276 355q-41 0 -72.5 -16t-48.5 -45t-17 -68v-226h-80v226q0 61 27 105.5t76 69t115 24.5
q67 0 115.5 -24.5t75.5 -69t27 -105.5v-226h-80v226q0 39 -17 68t-48 45t-73 16z" />
    <glyph glyph-name="AE.alt1" horiz-adv-x="773" 
d="M66 0v446q0 61 26.5 106.5t74.5 71.5t110 26h131v-75h-131q-38 -1 -68 -18t-46.5 -45.5t-16.5 -65.5v-446h-80zM126 200v75h282v-75h-282zM697 368v-75h-276v75h276zM388 0v650h343v-75h-300l37 35v-580l-43 45h306v-75h-343z" />
    <glyph glyph-name="OE.alt1" horiz-adv-x="831" 
d="M463 0h-62q-78 0 -144 24t-114 67.5t-74.5 103t-26.5 130.5t26.5 130.5t74.5 103t114 67.5t144 24h62v-75h-84q-53 0 -99 -19.5t-81 -53.5t-55 -79.5t-20 -97.5t20 -97.5t55 -79.5t81 -53.5t99 -19.5h84v-75zM755 368v-75h-276v75h276zM446 0v650h343v-75h-300l37 35
v-580l-43 45h306v-75h-343z" />
    <glyph glyph-name="x.alt1" horiz-adv-x="484" 
d="M55 473h78v-91q0 -48 29 -75.5t80 -27.5t80 27.5t29 75.5v91h78v-90q0 -50 -23 -87t-65 -57t-99 -20t-99 20t-65 57t-23 87v90zM48 0v95q0 54 23.5 93t67 60t103.5 21t103.5 -21t67 -60t23.5 -93v-95h-78v96q0 53 -31 83t-85 30t-85 -30t-31 -83v-96h-78z" />
    <glyph glyph-name="Aacute.alt1" 
d="M146 46v-46h-80v446q0 63 26.5 111t74.5 75t110 27q63 0 110.5 -27t74 -75t26.5 -111v-446h-80v273q-24 -20 -52.5 -35.5t-58 -29.5t-56.5 -28.5t-48.5 -32.5t-34 -42.5t-12.5 -58.5zM146 446v-243q24 20 52.5 35.5t58 29t56.5 28t48.5 33t34 43t12.5 58.5v16
q0 40 -17 70t-46.5 47.5t-67.5 17.5t-68 -17.5t-46.5 -47.5t-16.5 -70zM240 712l70 158h86l-86 -158h-70z" />
    <glyph glyph-name="Acircumflex.alt1" 
d="M146 46v-46h-80v446q0 63 26.5 111t74.5 75t110 27q63 0 110.5 -27t74 -75t26.5 -111v-446h-80v273q-24 -20 -52.5 -35.5t-58 -29.5t-56.5 -28.5t-48.5 -32.5t-34 -42.5t-12.5 -58.5zM146 446v-243q24 20 52.5 35.5t58 29t56.5 28t48.5 33t34 43t12.5 58.5v16
q0 40 -17 70t-46.5 47.5t-67.5 17.5t-68 -17.5t-46.5 -47.5t-16.5 -70zM318 870l111 -158h-81l-90 131h36l-89 -131h-80l110 158h83z" />
    <glyph glyph-name="Adieresis.alt1" 
d="M146 46v-46h-80v446q0 63 26.5 111t74.5 75t110 27q63 0 110.5 -27t74 -75t26.5 -111v-446h-80v273q-24 -20 -52.5 -35.5t-58 -29.5t-56.5 -28.5t-48.5 -32.5t-34 -42.5t-12.5 -58.5zM146 446v-243q24 20 52.5 35.5t58 29t56.5 28t48.5 33t34 43t12.5 58.5v16
q0 40 -17 70t-46.5 47.5t-67.5 17.5t-68 -17.5t-46.5 -47.5t-16.5 -70zM188 735q-22 0 -36.5 14t-14.5 36t14.5 36t36.5 14q23 0 37 -14t14 -36t-14 -36t-37 -14zM366 735q-22 0 -36.5 14t-14.5 36t14.5 36t36.5 14q23 0 37 -14t14 -36t-14 -36t-37 -14z" />
    <glyph glyph-name="Agrave.alt1" 
d="M146 46v-46h-80v446q0 63 26.5 111t74.5 75t110 27q63 0 110.5 -27t74 -75t26.5 -111v-446h-80v273q-24 -20 -52.5 -35.5t-58 -29.5t-56.5 -28.5t-48.5 -32.5t-34 -42.5t-12.5 -58.5zM146 446v-243q24 20 52.5 35.5t58 29t56.5 28t48.5 33t34 43t12.5 58.5v16
q0 40 -17 70t-46.5 47.5t-67.5 17.5t-68 -17.5t-46.5 -47.5t-16.5 -70zM310 712h-70l-91 158h86z" />
    <glyph glyph-name="Aring.alt1" 
d="M146 446v-243q24 20 52.5 35.5t58 29t56.5 28t48.5 33t34 43t12.5 58.5v16q0 40 -17 70t-46.5 47.5t-67.5 17.5t-68 -17.5t-46.5 -47.5t-16.5 -70zM277 659q26 0 40.5 14.5t14.5 38.5t-14.5 38.5t-40.5 14.5q-25 0 -40 -14.5t-15 -38.5t15 -38.5t40 -14.5zM332 611v42
q71 -16 113.5 -71.5t42.5 -135.5v-446h-80v273q-24 -20 -52.5 -35.5t-58 -29.5t-56.5 -28.5t-48.5 -32.5t-34 -42.5t-12.5 -58.5v-46h-80v446q0 80 43 135.5t113 71.5v-43q-29 14 -47 41t-18 61q0 48 34 80.5t86 32.5q35 0 62 -15t42.5 -40.5t15.5 -57.5q0 -34 -18 -60.5
t-47 -40.5z" />
    <glyph glyph-name="Atilde.alt1" 
d="M146 46v-46h-80v446q0 63 26.5 111t74.5 75t110 27q63 0 110.5 -27t74 -75t26.5 -111v-446h-80v273q-24 -20 -52.5 -35.5t-58 -29.5t-56.5 -28.5t-48.5 -32.5t-34 -42.5t-12.5 -58.5zM146 446v-243q24 20 52.5 35.5t58 29t56.5 28t48.5 33t34 43t12.5 58.5v16
q0 40 -17 70t-46.5 47.5t-67.5 17.5t-68 -17.5t-46.5 -47.5t-16.5 -70zM127 712v64q0 46 21.5 71.5t60.5 25.5q26 0 43.5 -10.5t30 -25.5t21.5 -30t17.5 -25.5t19.5 -10.5q12 0 17.5 8.5t5.5 26.5v64h63v-64q0 -46 -21.5 -71.5t-60.5 -25.5q-26 0 -43.5 10.5t-30 25.5
t-21.5 30t-17.5 25.5t-19.5 10.5q-23 0 -23 -35v-64h-63z" />
    <glyph glyph-name="Abreve.alt1" 
d="M146 46v-46h-80v446q0 63 26.5 111t74.5 75t110 27q63 0 110.5 -27t74 -75t26.5 -111v-446h-80v273q-24 -20 -52.5 -35.5t-58 -29.5t-56.5 -28.5t-48.5 -32.5t-34 -42.5t-12.5 -58.5zM146 446v-243q24 20 52.5 35.5t58 29t56.5 28t48.5 33t34 43t12.5 58.5v16
q0 40 -17 70t-46.5 47.5t-67.5 17.5t-68 -17.5t-46.5 -47.5t-16.5 -70zM277 772q38 0 60 18.5t22 54.5v25h64v-25q0 -66 -40 -101t-106 -35q-67 0 -106.5 35t-39.5 101v25h64v-25q0 -36 21.5 -54.5t60.5 -18.5z" />
    <glyph glyph-name="Amacron.alt1" 
d="M146 46v-46h-80v446q0 63 26.5 111t74.5 75t110 27q63 0 110.5 -27t74 -75t26.5 -111v-446h-80v273q-24 -20 -52.5 -35.5t-58 -29.5t-56.5 -28.5t-48.5 -32.5t-34 -42.5t-12.5 -58.5zM146 446v-243q24 20 52.5 35.5t58 29t56.5 28t48.5 33t34 43t12.5 58.5v16
q0 40 -17 70t-46.5 47.5t-67.5 17.5t-68 -17.5t-46.5 -47.5t-16.5 -70zM152 815h250v-70h-250v70z" />
    <glyph glyph-name="Aogonek.alt1" 
d="M146 446v-243q24 20 52.5 35.5t58 29t56.5 28t48.5 33t34 43t12.5 58.5v16q0 40 -17 70t-46.5 47.5t-67.5 17.5t-68 -17.5t-46.5 -47.5t-16.5 -70zM441 25v-25h-33v273q-24 -20 -52.5 -35.5t-58 -29.5t-56.5 -28.5t-48.5 -32.5t-34 -42.5t-12.5 -58.5v-46h-80v446
q0 63 26.5 111t74.5 75t110 27q63 0 110.5 -27t74 -75t26.5 -111v-446q-34 -18 -52 -37t-18 -38q0 -15 10.5 -23t29.5 -8h30v-60h-34q-47 0 -75.5 23t-28.5 62q0 21 10.5 39.5t31 35.5t49.5 31z" />
    <glyph glyph-name="Aacute.alt2" 
d="M66 0v446q0 63 26.5 111t74.5 75t110 27q63 0 110.5 -27t74 -75t26.5 -111v-446h-80v200h-262v-200h-80zM146 446v-171h262v171q0 40 -17 70t-46.5 47.5t-67.5 17.5t-68 -17.5t-46.5 -47.5t-16.5 -70zM240 712l70 158h86l-86 -158h-70z" />
    <glyph glyph-name="Acircumflex.alt2" 
d="M66 0v446q0 63 26.5 111t74.5 75t110 27q63 0 110.5 -27t74 -75t26.5 -111v-446h-80v200h-262v-200h-80zM146 446v-171h262v171q0 40 -17 70t-46.5 47.5t-67.5 17.5t-68 -17.5t-46.5 -47.5t-16.5 -70zM318 870l111 -158h-81l-90 131h36l-89 -131h-80l110 158h83z" />
    <glyph glyph-name="Adieresis.alt2" 
d="M66 0v446q0 63 26.5 111t74.5 75t110 27q63 0 110.5 -27t74 -75t26.5 -111v-446h-80v200h-262v-200h-80zM146 446v-171h262v171q0 40 -17 70t-46.5 47.5t-67.5 17.5t-68 -17.5t-46.5 -47.5t-16.5 -70zM188 735q-22 0 -36.5 14t-14.5 36t14.5 36t36.5 14q23 0 37 -14
t14 -36t-14 -36t-37 -14zM366 735q-22 0 -36.5 14t-14.5 36t14.5 36t36.5 14q23 0 37 -14t14 -36t-14 -36t-37 -14z" />
    <glyph glyph-name="Agrave.alt2" 
d="M66 0v446q0 63 26.5 111t74.5 75t110 27q63 0 110.5 -27t74 -75t26.5 -111v-446h-80v200h-262v-200h-80zM146 446v-171h262v171q0 40 -17 70t-46.5 47.5t-67.5 17.5t-68 -17.5t-46.5 -47.5t-16.5 -70zM310 712h-70l-91 158h86z" />
    <glyph glyph-name="Aring.alt2" 
d="M146 446v-171h262v171q0 40 -17 70t-46.5 47.5t-67.5 17.5t-68 -17.5t-46.5 -47.5t-16.5 -70zM277 659q26 0 40.5 14.5t14.5 38.5t-14.5 38.5t-40.5 14.5q-25 0 -40 -14.5t-15 -38.5t15 -38.5t40 -14.5zM332 653q71 -16 113.5 -71.5t42.5 -135.5v-446h-80v200h-262v-200
h-80v446q0 80 43 135.5t113 71.5v-42q-29 14 -47 40.5t-18 60.5q0 48 34 80.5t86 32.5q35 0 62 -15t42.5 -40.5t15.5 -57.5q0 -34 -17.5 -60.5t-47.5 -40.5v42z" />
    <glyph glyph-name="Atilde.alt2" 
d="M66 0v446q0 63 26.5 111t74.5 75t110 27q63 0 110.5 -27t74 -75t26.5 -111v-446h-80v200h-262v-200h-80zM146 446v-171h262v171q0 40 -17 70t-46.5 47.5t-67.5 17.5t-68 -17.5t-46.5 -47.5t-16.5 -70zM127 712v64q0 46 21.5 71.5t60.5 25.5q26 0 43.5 -10.5t30 -25.5
t21.5 -30t17.5 -25.5t19.5 -10.5q12 0 17.5 8.5t5.5 26.5v64h63v-64q0 -46 -21.5 -71.5t-60.5 -25.5q-26 0 -43.5 10.5t-30 25.5t-21.5 30t-17.5 25.5t-19.5 10.5q-23 0 -23 -35v-64h-63z" />
    <glyph glyph-name="Abreve.alt2" 
d="M66 0v446q0 63 26.5 111t74.5 75t110 27q63 0 110.5 -27t74 -75t26.5 -111v-446h-80v200h-262v-200h-80zM146 446v-171h262v171q0 40 -17 70t-46.5 47.5t-67.5 17.5t-68 -17.5t-46.5 -47.5t-16.5 -70zM277 772q38 0 60 18.5t22 54.5v25h64v-25q0 -66 -40 -101t-106 -35
q-67 0 -106.5 35t-39.5 101v25h64v-25q0 -36 21.5 -54.5t60.5 -18.5z" />
    <glyph glyph-name="Amacron.alt2" 
d="M66 0v446q0 63 26.5 111t74.5 75t110 27q63 0 110.5 -27t74 -75t26.5 -111v-446h-80v200h-262v-200h-80zM146 446v-171h262v171q0 40 -17 70t-46.5 47.5t-67.5 17.5t-68 -17.5t-46.5 -47.5t-16.5 -70zM152 815h250v-70h-250v70z" />
    <glyph glyph-name="Aogonek.alt2" 
d="M146 446v-171h262v171q0 40 -17 70t-46.5 47.5t-67.5 17.5t-68 -17.5t-46.5 -47.5t-16.5 -70zM441 25v-25h-33v200h-262v-200h-80v446q0 63 26.5 111t74.5 75t110 27q63 0 110.5 -27t74 -75t26.5 -111v-446q-34 -18 -52 -37t-18 -38q0 -15 10.5 -23t29.5 -8h30v-60h-34
q-47 0 -75.5 23t-28.5 62q0 21 10.5 39.5t31 35.5t49.5 31z" />
    <glyph glyph-name="Ccedilla.alt1" horiz-adv-x="419" 
d="M42 325q0 68 25 126.5t70 103.5t104.5 70t127.5 25h10v-75h-10q-52 0 -96.5 -19.5t-78 -54t-52 -79.5t-18.5 -97t18.5 -97t52 -79.5t78 -54t96.5 -19.5h10v-75h-10q-16 0 -32.5 1.5t-32.5 4.5l25 26v-168h-78l10 168l21 -21q-69 19 -123.5 64.5t-85.5 110t-31 139.5z" />
    </font>
</defs>
</svg>
