<?xml version="1.0" standalone="no"?>
<!DOCTYPE svg PUBLIC "-//W3C//DTD SVG 1.1//EN" "http://www.w3.org/Graphics/SVG/1.1/DTD/svg11.dtd" >
<svg xmlns="http://www.w3.org/2000/svg" xmlns:xlink="http://www.w3.org/1999/xlink" version="1.1">
<metadata>
Created by FontForge 20201107 at Thu Mar 21 11:25:34 2024
 By 
Copyright 2019 (c) Paris 2024 Olympic and Paralympic Games
</metadata>
<defs>
<font id="Paris2024-Light" horiz-adv-x="544" >
  <font-face 
    font-family="Paris 2024 Variable Light"
    font-weight="300"
    font-stretch="normal"
    units-per-em="1000"
    panose-1="2 1 5 3 3 2 1 2 1 3"
    ascent="750"
    descent="-250"
    x-height="470"
    cap-height="650"
    bbox="-75 -218 1090 1062"
    underline-thickness="50"
    underline-position="-88"
    unicode-range="U+000D-F6C3"
  />
<missing-glyph horiz-adv-x="571" 
d="M493 0h-414v650h414v-650zM136 53h300v544h-300v-544z" />
    <glyph glyph-name=".notdef" horiz-adv-x="571" 
d="M493 0h-414v650h414v-650zM136 53h300v544h-300v-544z" />
    <glyph glyph-name=".null" horiz-adv-x="0" 
 />
    <glyph glyph-name=".null" horiz-adv-x="0" 
 />
    <glyph glyph-name="uni000D" unicode="&#xd;" horiz-adv-x="0" 
 />
    <glyph glyph-name="space" unicode=" " horiz-adv-x="218" 
 />
    <glyph glyph-name="exclam" unicode="!" horiz-adv-x="198" 
d="M70 650h58l-4 -473h-50zM99 -8q-17 0 -28.5 11.5t-11.5 28.5t11.5 28.5t28.5 11.5q18 0 29 -11.5t11 -28.5t-11 -28.5t-29 -11.5z" />
    <glyph glyph-name="quotedbl" unicode="&#x22;" horiz-adv-x="291" 
d="M45 650h56l-5 -181h-45zM190 650h56l-5 -181h-45z" />
    <glyph glyph-name="numbersign" unicode="#" horiz-adv-x="612" 
d="M76 0l37 171h-94v50h103l46 211q-41 -17 -99 -17h-30v50h30q63 0 97 25t48 85l17 75h55l-16 -75q-13 -60 -40 -96h212l38 171h57l-38 -171h94v-50h-103l-45 -211q41 17 98 17h30v-50h-30q-62 0 -96.5 -25t-48.5 -85l-17 -75h-55l16 75q13 59 41 96h-214l-36 -171h-57z
M179 221h209l45 208h-209z" />
    <glyph glyph-name="dollar" unicode="$" horiz-adv-x="475" 
d="M212 746h55v-90q35 -4 65 -20q41 -23 65 -63t24 -93h-57q0 56 -36 90.5t-93 34.5q-33 0 -61 -14.5t-44.5 -40t-16.5 -56.5q0 -35 17.5 -58.5t46 -40.5t63.5 -30t69.5 -28.5t63.5 -37t46 -53t17 -78.5q0 -51 -25 -91t-69 -63q-32 -16 -71 -21v-89h-56v89q-39 4 -75 21
q-47 23 -75.5 66.5t-28.5 106.5h57q0 -43 20 -75t54 -49.5t74 -17.5q61 0 99 34t38 89q0 37 -17.5 61.5t-46.5 41.5t-63.5 30.5t-69 28.5t-63.5 35.5t-46 51.5t-17 77t24 83t65 59q31 17 68 21v89z" />
    <glyph glyph-name="percent" unicode="%" horiz-adv-x="764" 
d="M184 363q-41 0 -75 20t-54 53.5t-20 74.5t20 74.5t54 53.5t75 20t74.5 -20t54 -53.5t20.5 -74.5t-20.5 -74.5t-54 -53.5t-74.5 -20zM177 0l350 650h61l-350 -650h-61zM184 612q-27 0 -50 -13.5t-36.5 -36.5t-13.5 -51q0 -27 13.5 -50t36.5 -37t50 -14t49.5 14t36 37
t13.5 50q0 28 -13.5 51t-35.5 36.5t-50 13.5zM581 -9q-42 0 -75.5 20.5t-53.5 53.5t-20 74t20 74.5t53.5 53.5t75.5 20q41 0 74.5 -20t54 -53.5t20.5 -74.5t-20.5 -74t-54 -53.5t-74.5 -20.5zM581 240q-27 0 -50 -13.5t-36.5 -36.5t-13.5 -51q0 -27 13.5 -50.5t36.5 -37
t50 -13.5t49.5 13.5t36 37t13.5 50.5q0 28 -13.5 51t-36 36.5t-49.5 13.5z" />
    <glyph glyph-name="ampersand" unicode="&#x26;" horiz-adv-x="579" 
d="M442 492h-53q0 32 -16.5 58t-44 41t-63.5 15q-35 0 -63.5 -15t-45 -40.5t-16.5 -58.5q0 -50 41 -92q40 14 86 14h35v-52h-35q-50 0 -89 -20.5t-61 -56.5t-22 -82q0 -45 23 -80.5t62.5 -57t87.5 -21.5q53 0 93.5 22t63.5 61t23 91v34h-80v52h218v-52h-80v-34
q0 -66 -31 -117.5t-84.5 -80.5t-122.5 -29q-65 0 -118 28t-83 76.5t-30 107.5q0 60 30 108q26 40 67 66q-17 18 -28 38q-20 37 -20 77q0 47 23.5 85t64 60t91.5 22t91 -22t63 -59.5t23 -85.5z" />
    <glyph glyph-name="quotesingle" unicode="'" horiz-adv-x="146" 
d="M45 650h56l-5 -181h-45z" />
    <glyph glyph-name="parenleft" unicode="(" horiz-adv-x="319" 
d="M299 -161l-16 7q-74 31 -127.5 89.5t-82.5 138t-29 171.5q0 93 29 172t82.5 137.5t127.5 89.5l16 7v-52l-14 -7q-87 -44 -136 -136t-49 -211t49 -210.5t136 -136.5l14 -7v-52z" />
    <glyph glyph-name="parenright" unicode=")" horiz-adv-x="319" 
d="M20 -161v52l13 7q87 45 136.5 136.5t49.5 210.5t-49.5 211t-136.5 136l-13 7v52l16 -7q74 -31 127.5 -89.5t82.5 -137.5t29 -172q0 -92 -29 -171.5t-82.5 -138t-127.5 -89.5z" />
    <glyph glyph-name="asterisk" unicode="*" horiz-adv-x="370" 
d="M312 342l-43 -32l-84 124l-84 -124l-42 32l90 119l-142 41l16 51l140 -49l-4 146h53l-4 -147l139 50l16 -51l-142 -42z" />
    <glyph glyph-name="plus" unicode="+" horiz-adv-x="469" 
d="M48 342h163v164h47v-164h163v-46h-163v-164h-47v164h-163v46z" />
    <glyph glyph-name="comma" unicode="," horiz-adv-x="171" 
d="M37 -124q20 49 31 84q5 18 9 33q-12 2 -21 11q-11 11 -11 28t11.5 28.5t28.5 11.5q18 0 29.5 -12t11.5 -30q0 -21 -13 -62t-35 -92h-41z" />
    <glyph glyph-name="hyphen" unicode="-" horiz-adv-x="396" 
d="M38 272h320v-50h-320v50z" />
    <glyph glyph-name="period" unicode="." horiz-adv-x="171" 
d="M85 -8q-17 0 -28.5 11.5t-11.5 28.5t11.5 28.5t28.5 11.5q18 0 29.5 -11.5t11.5 -28.5t-11.5 -28.5t-29.5 -11.5z" />
    <glyph glyph-name="slash" unicode="/" horiz-adv-x="283" 
d="M201 650h57l-176 -800h-57z" />
    <glyph glyph-name="zero" unicode="0" horiz-adv-x="754" 
d="M43 325q0 70 25.5 130t71.5 106t106.5 72t130.5 26q69 0 129.5 -26t106.5 -72t72 -106t26 -130t-26 -130.5t-72 -106.5t-106.5 -71.5t-129.5 -25.5t-129.5 25.5t-106.5 71.5t-72 106.5t-26 130.5zM101 325q0 -58 22 -108.5t59.5 -89.5t87.5 -60.5t107 -21.5
q56 0 106 21.5t88 60.5t59.5 89.5t21.5 108.5t-21.5 109t-59.5 89.5t-88 60t-106 21.5q-57 0 -107 -21.5t-87.5 -60t-59.5 -89.5t-22 -109z" />
    <glyph glyph-name="one" unicode="1" horiz-adv-x="293" 
d="M12 577q36 5 73 16.5t70.5 28.5t58.5 37v-659h-57v566q-3 -2 -7 -3q-29 -15 -65 -25t-73 -15v54z" />
    <glyph glyph-name="two" unicode="2" horiz-adv-x="488" 
d="M34 0l279 332q40 47 54.5 78.5t14.5 66.5q0 36 -18.5 65t-49.5 46t-69 17q-39 0 -70.5 -17t-50 -46t-18.5 -65q0 -33 12.5 -60.5t39.5 -53.5l-34 -41q-75 63 -75 155q0 51 26 92t70.5 65.5t99.5 24.5t99.5 -24t70.5 -65t26 -93q0 -28 -7.5 -54t-25 -54t-46.5 -63
l-212 -252h315v-54h-431z" />
    <glyph glyph-name="three" unicode="3" horiz-adv-x="535" 
d="M266 -9q-67 0 -120 29.5t-83 81t-30 115.5h54q0 -49 24 -88.5t64.5 -62.5t90.5 -23q52 0 92.5 22.5t63.5 60.5t23 84t-24.5 83.5t-66 59.5t-91.5 22h-17v51h17q48 0 89 -15q12 14 20 29q13 26 13 54q0 33 -16 58.5t-44.5 40t-63.5 14.5q-34 0 -62 -15.5t-45 -41.5
t-17 -58h-54q0 46 23.5 83.5t64.5 60.5t90 23q51 0 91.5 -21.5t64 -58t23.5 -84.5q0 -39 -18 -73q-9 -18 -22 -34q42 -26 68 -67q31 -49 31 -111t-30 -111.5t-82.5 -78.5t-120.5 -29z" />
    <glyph glyph-name="four" unicode="4" horiz-adv-x="507" 
d="M386 470h55v-470h-55v86q0 44 -18 70.5t-47 42.5t-63.5 27t-69.5 25.5t-64 38t-47 63t-18 103.5v194h57v-191q0 -55 17 -87.5t45.5 -50.5t63 -30t68 -24.5t61.5 -32.5q8 -5 15 -11v247z" />
    <glyph glyph-name="five" unicode="5" horiz-adv-x="503" 
d="M249 -9q-62 0 -111.5 28t-78 76.5t-28.5 108.5h58q0 -44 21.5 -80.5t57.5 -57.5t81 -21q46 0 81.5 20.5t56.5 56.5t21 80q0 65 -41.5 105t-122.5 54l-173 29l53 260h277v-53h-235l-33 -162l117 -20q107 -18 161.5 -71.5t54.5 -141.5q0 -60 -28 -108t-77 -75.5t-112 -27.5
z" />
    <glyph glyph-name="six" unicode="6" horiz-adv-x="546" 
d="M274 -9q-64 0 -116 29.5t-83 80t-31 110.5q0 57 20.5 104t51 88t62.5 80t56 79.5t30 87.5h58q-5 -47 -24.5 -85.5t-46.5 -72.5t-55 -66l-16 -20q44 27 98 27q63 0 114 -29t81.5 -79t30.5 -112t-31 -112t-83 -80t-116 -30zM274 44q48 0 87 23t62 61t23 84q0 47 -23 85
t-62 60.5t-87 22.5t-87 -22.5t-62 -61t-23 -84.5t23 -84t62 -61t87 -23z" />
    <glyph glyph-name="seven" unicode="7" horiz-adv-x="443" 
d="M234 0h-58q4 96 16 177.5t34 156.5t56 150q24 54 55 113h-308v53h393q-40 -75 -69.5 -139t-50.5 -122.5t-35 -118t-22 -125.5t-11 -145z" />
    <glyph glyph-name="eight" unicode="8" horiz-adv-x="530" 
d="M265 -9q-63 0 -114.5 28t-81.5 75t-30 105q0 59 30 105.5t81 73.5q13 7 28 12q-32 19 -51 50q-21 33 -21 72q0 42 21 75t57 52.5t81 19.5t81 -19.5t57 -52.5t21 -75q0 -39 -21 -72q-19 -30 -51 -49q15 -6 29 -13q51 -27 81 -73.5t30 -105.5q0 -58 -30 -105t-81.5 -75
t-115.5 -28zM265 412q30 0 53.5 13t38 35.5t14.5 49.5q0 28 -14 50t-38 35t-54 13q-29 0 -53.5 -12.5t-38 -35t-13.5 -50.5q0 -27 14 -49.5t38 -35.5t53 -13zM265 45q47 0 85 21t60.5 57t22.5 80t-22.5 79.5t-60.5 56t-85 20.5q-46 0 -84.5 -21t-61 -56.5t-22.5 -78.5
q0 -44 22.5 -80t61 -57t84.5 -21z" />
    <glyph glyph-name="nine" unicode="9" horiz-adv-x="546" 
d="M273 659q63 0 115 -29.5t83 -79.5t31 -111q0 -57 -20.5 -104t-51 -88t-62.5 -80t-56 -79.5t-30 -87.5h-58q5 47 25 86t46.5 72.5t54.5 65.5l16 20q-44 -27 -98 -27q-63 0 -114 29.5t-81.5 79t-30.5 111.5t31 112t83.5 80t116.5 30zM273 606q-48 0 -87.5 -22.5
t-62.5 -60.5t-23 -85q0 -46 23 -84t62.5 -61t87.5 -23q47 0 86 23t62.5 61t23.5 84t-23.5 84.5t-62.5 61t-86 22.5z" />
    <glyph glyph-name="colon" unicode=":" horiz-adv-x="171" 
d="M85 347q-17 0 -28.5 11.5t-11.5 28.5t11.5 28.5t28.5 11.5q18 0 29.5 -11.5t11.5 -28.5t-11.5 -28.5t-29.5 -11.5zM85 -8q-17 0 -28.5 11.5t-11.5 28.5t11.5 28.5t28.5 11.5q18 0 29.5 -11.5t11.5 -28.5t-11.5 -28.5t-29.5 -11.5z" />
    <glyph glyph-name="semicolon" unicode=";" horiz-adv-x="171" 
d="M85 347q-17 0 -28.5 11.5t-11.5 28.5t11.5 28.5t28.5 11.5q18 0 29.5 -11.5t11.5 -28.5t-11.5 -28.5t-29.5 -11.5zM37 -124q20 49 31 84q5 18 9 33q-12 2 -21 11q-11 11 -11 28t11.5 28.5t28.5 11.5q18 0 29.5 -12t11.5 -30q0 -21 -13 -62t-35 -92h-41z" />
    <glyph glyph-name="less" unicode="&#x3c;" horiz-adv-x="469" 
d="M56 300v60l347 167v-54l-302 -142l302 -143v-55z" />
    <glyph glyph-name="equal" unicode="=" horiz-adv-x="469" 
d="M48 452h373v-46h-373v46zM48 232h373v-47h-373v47z" />
    <glyph glyph-name="greater" unicode="&#x3e;" horiz-adv-x="469" 
d="M413 361v-60l-347 -167v54l302 143l-302 142v55z" />
    <glyph glyph-name="question" unicode="?" horiz-adv-x="501" 
d="M231 177l-1 122h21q44 0 80 20t57.5 55t21.5 79q0 46 -22.5 80.5t-58.5 54.5t-79 20q-45 0 -82.5 -20t-59.5 -56.5t-22 -86.5h-56q0 66 29 114t79 74t112 26q60 0 109 -26.5t78 -72.5t29 -107q0 -59 -27.5 -104.5t-76.5 -71.5q-36 -19 -80 -23l-2 -77h-49zM255 -8
q-17 0 -28.5 11.5t-11.5 28.5t11.5 28.5t28.5 11.5q18 0 29.5 -11.5t11.5 -28.5t-11.5 -28.5t-29.5 -11.5z" />
    <glyph glyph-name="at" unicode="@" horiz-adv-x="778" 
d="M502 -190h-103q-77 0 -143.5 26t-116 72.5t-76.5 109.5t-27 137t27.5 139t77.5 113.5t116 75.5t143 27q74 0 137.5 -24.5t110.5 -68.5t73 -102.5t26 -126.5q0 -90 -40.5 -143t-106.5 -53q-54 0 -88 36q-7 6 -12 14q-49 -51 -117 -51q-45 0 -80 21.5t-55 58t-20 84.5
q0 50 23 88t63.5 59.5t93.5 21.5h123v-204q0 -37 19.5 -57.5t52.5 -20.5q41 0 65.5 37.5t24.5 108.5q0 77 -38 138.5t-104 98t-151 36.5q-66 0 -122 -23.5t-98.5 -65.5t-66.5 -97.5t-24 -119.5q0 -63 23.5 -116.5t65.5 -94t98.5 -63t122.5 -22.5h103v-49zM477 274h-69
q-55 0 -90 -33t-35 -86q0 -50 29.5 -81.5t74.5 -31.5q31 0 57 12q19 10 38 27q-5 18 -5 39v154z" />
    <glyph glyph-name="A" unicode="A" 
d="M70 0v454q0 60 25.5 106t71.5 72.5t105 26.5q60 0 105.5 -26.5t71 -72.5t25.5 -106v-454h-57v26q0 108 -68.5 171t-195.5 63h-26v-260h-57zM127 314h13q130 0 209 -50q43 -28 68 -66v256q0 44 -18.5 77.5t-51 52.5t-75.5 19q-42 0 -75 -19t-51.5 -52.5t-18.5 -77.5v-140z
" />
    <glyph glyph-name="B" unicode="B" horiz-adv-x="539" 
d="M79 0v650h165q52 0 90.5 -19t59.5 -52t21 -75q0 -49 -26 -86q-18 -26 -46 -42q39 -10 69 -29q41 -25 64 -63.5t23 -86.5q0 -56 -28 -100.5t-78 -70.5t-115 -26h-199zM136 597v-81q0 -38 14.5 -65t41 -41t59.5 -14q49 0 79 30t30 71q0 43 -30.5 71.5t-85.5 28.5h-108z
M136 54h142q48 1 84.5 19.5t57 51t20.5 72.5q0 42 -21.5 73t-63.5 50t-104 23q-38 2 -67.5 16t-47.5 40v-345z" />
    <glyph glyph-name="C" unicode="C" horiz-adv-x="743" 
d="M646 266h59q-13 -79 -60 -141t-116.5 -98t-151.5 -36q-69 0 -129.5 26t-106.5 71.5t-72 106t-26 130.5t26 130t72 106t106.5 72t129.5 26q77 0 143.5 -32.5t113.5 -88.5t66 -128h-60q-18 57 -57 101t-92 69t-114 25q-57 0 -107 -21.5t-87.5 -60t-59.5 -89.5t-22 -109
t22 -109t59.5 -89.5t87.5 -60t107 -21.5q65 0 121.5 28.5t95.5 79t52 113.5z" />
    <glyph glyph-name="D" unicode="D" horiz-adv-x="535" 
d="M79 0v650h60q106 0 185 -42t123.5 -115t44.5 -168q0 -94 -44.5 -167.5t-123.5 -115.5t-185 -42h-60zM136 54h14q84 0 147.5 35.5t100 96.5t36.5 139t-36.5 139.5t-100 97t-147.5 35.5h-14v-543z" />
    <glyph glyph-name="E" unicode="E" horiz-adv-x="452" 
d="M79 0v650h331v-53h-274v-348q31 48 84 76q61 32 145 32h13v-53h-13q-107 0 -168 -58t-61 -159v-33h274v-54h-331z" />
    <glyph glyph-name="F" unicode="F" horiz-adv-x="441" 
d="M79 0v650h329v-53h-272v-335q31 49 84 77q61 32 145 32h13v-53h-13q-107 0 -168 -58t-61 -159v-101h-57z" />
    <glyph glyph-name="G" unicode="G" horiz-adv-x="763" 
d="M653 0v156q-12 -22 -27 -41q-45 -58 -108.5 -91t-140.5 -33q-69 0 -129.5 25.5t-106.5 71.5t-72 106.5t-26 130.5t26 130t72 106t106.5 72t129.5 26q78 0 144.5 -32t113.5 -88t65 -129h-60q-18 58 -57.5 101.5t-92 68.5t-113.5 25q-57 0 -106.5 -21.5t-87.5 -60
t-60 -89.5t-22 -109t22 -108.5t60 -89.5t87.5 -60.5t106.5 -21.5q67 0 123 29t95 78.5t53 113.5h58v-266h-53z" />
    <glyph glyph-name="H" unicode="H" horiz-adv-x="571" 
d="M79 0v650h57v-430q10 18 22 35q44 58 116 90q71 31 162 32v273h57v-650h-57v323h-10q-88 0 -153.5 -36t-101 -101t-35.5 -153v-33h-57z" />
    <glyph glyph-name="I" unicode="I" horiz-adv-x="214" 
d="M136 0h-57v650h57v-650z" />
    <glyph glyph-name="J" unicode="J" horiz-adv-x="310" 
d="M32 0v54h26q58 0 91.5 31t33.5 90v422h-151v53h208v-475q0 -83 -49 -129t-133 -46h-26z" />
    <glyph glyph-name="K" unicode="K" horiz-adv-x="545" 
d="M79 0v650h57v-432l288 432h64l-246 -368q26 8 50 8q64 0 112 -27t75 -73.5t27 -106.5v-83h-57v80q0 44 -20 79.5t-55 56t-82 20.5q-46 0 -81.5 -20.5t-55 -56t-19.5 -79.5v-80h-57z" />
    <glyph glyph-name="L" unicode="L" horiz-adv-x="419" 
d="M388 0h-309v650h57v-596h252v-54z" />
    <glyph glyph-name="M" unicode="M" horiz-adv-x="767" 
d="M79 0v650h35q75 0 136.5 -26.5t101.5 -74.5q19 -24 31 -52q13 28 32 52q40 48 101.5 74.5t136.5 26.5h35v-650h-57v593h-4q-61 0 -109.5 -25.5t-77 -74.5t-28.5 -118v-161h-57v161q0 69 -28.5 118t-77 74.5t-109.5 25.5h-4v-593h-57z" />
    <glyph glyph-name="N" unicode="N" horiz-adv-x="571" 
d="M79 0v650h53q60 -140 138 -253q73 -105 166 -193v446h57v-650h-57v130q-63 57 -117 118q-59 66 -107 139q-42 62 -76 130v-517h-57z" />
    <glyph glyph-name="O" unicode="O" horiz-adv-x="754" 
d="M43 325q0 70 25.5 130t71.5 106t106.5 72t130.5 26q69 0 129.5 -26t106.5 -72t72 -106t26 -130t-26 -130.5t-72 -106.5t-106.5 -71.5t-129.5 -25.5t-129.5 25.5t-106.5 71.5t-72 106.5t-26 130.5zM101 325q0 -58 22 -108.5t59.5 -89.5t87.5 -60.5t107 -21.5
q56 0 106 21.5t88 60.5t59.5 89.5t21.5 108.5t-21.5 109t-59.5 89.5t-88 60t-106 21.5q-57 0 -107 -21.5t-87.5 -60t-59.5 -89.5t-22 -109z" />
    <glyph glyph-name="P" unicode="P" horiz-adv-x="517" 
d="M79 0v650h179q67 0 118 -24t79.5 -67t28.5 -102q0 -56 -18.5 -93.5t-50 -62t-68.5 -42l-74 -35t-68.5 -39t-50 -55t-18.5 -83.5v-47h-57zM136 186q21 30 50.5 49.5t62 35t64 30.5t57.5 34.5t41 48t15 71.5q0 65 -45.5 103.5t-120.5 38.5h-124v-411z" />
    <glyph glyph-name="Q" unicode="Q" horiz-adv-x="766" 
d="M701 0v11q0 49 -21 88q-12 21 -28 37q-46 -66 -117 -105q-73 -40 -158 -40q-69 0 -129.5 25.5t-106.5 71.5t-72 106.5t-26 130.5t26 130t72 106t106.5 72t129.5 26t129.5 -26t106.5 -72t72 -106t26 -130q0 -49 -14 -95q-7 -23 -17 -45q29 -25 49 -59q29 -50 29 -115v-11
h-57zM320 51q6 40 26 75q29 50 79 79.5t112 29.5q51 0 93 -19h1q21 51 21 109t-21.5 109t-59.5 89.5t-88 60t-106 21.5q-57 0 -107 -21.5t-87.5 -60t-59.5 -89.5t-22 -109t22 -108.5t59.5 -89.5t87.5 -60q24 -11 50 -16zM377 45q56 0 106 21.5t88 60.5q19 19 34 42
q-31 14 -68 14q-47 0 -84.5 -22t-58.5 -61q-14 -25 -19 -55h2z" />
    <glyph glyph-name="R" unicode="R" horiz-adv-x="548" 
d="M79 0v650h179q67 0 118 -24t79.5 -67t28.5 -102q0 -45 -14 -77.5t-38 -56t-53.5 -41t-60.5 -33.5q56 -3 97.5 -28.5t65 -68t23.5 -96.5v-56h-57v53q0 44 -19.5 78.5t-54.5 54.5t-82 20q-46 0 -81 -20t-54.5 -54.5t-19.5 -78.5v-53h-57zM136 597v-408q21 28 50.5 47t62 35
t64 31.5t57.5 35.5t41 48t15 69q0 65 -45.5 103.5t-120.5 38.5h-124z" />
    <glyph glyph-name="S" unicode="S" horiz-adv-x="475" 
d="M241 -9q-54 0 -101 23t-75.5 66.5t-28.5 106.5h57q0 -43 20 -75t54 -49.5t74 -17.5q61 0 99 34t38 89q0 37 -17.5 61.5t-46.5 41.5t-63.5 30.5t-69 28.5t-63.5 35.5t-46 51.5t-17 77t24 83t65 59.5t91 22.5q55 0 96.5 -23t65.5 -63t24 -93h-57q0 56 -36 90.5t-93 34.5
q-33 0 -61 -14.5t-44.5 -40t-16.5 -56.5q0 -35 17.5 -58.5t46 -40.5t63.5 -30t69.5 -28.5t63.5 -37t46 -53t17 -78.5q0 -51 -25 -91t-69 -63t-101 -23z" />
    <glyph glyph-name="T" unicode="T" horiz-adv-x="447" 
d="M195 0v605q-41 -1 -82 -4q-51 -4 -92 -11v54q41 6 94.5 10.5t108.5 4.5q53 0 107 -4.5t95 -10.5v-54q-26 4 -58.5 7.5t-67.5 5.5l-48 2v-605h-57z" />
    <glyph glyph-name="U" unicode="U" horiz-adv-x="542" 
d="M272 46q41 0 73.5 18.5t51 51t18.5 72.5v462h57v-462q0 -58 -25 -102.5t-70.5 -69.5t-104.5 -25q-60 0 -105.5 25t-71 69.5t-25.5 102.5v462h57v-462q0 -40 19 -72.5t51.5 -51t74.5 -18.5z" />
    <glyph glyph-name="V" unicode="V" horiz-adv-x="542" 
d="M118 0h-39v650h57v-593q83 1 136 22q57 23 87.5 75.5t40.5 144.5l42 351h59l-42 -351q-13 -109 -52 -174.5t-110 -95t-179 -29.5z" />
    <glyph glyph-name="W" unicode="W" horiz-adv-x="820" 
d="M79 0v650h57v-594q117 3 182 68q67 68 67 192v334h57v-594q72 2 119 23q52 22 80.5 75t38.5 145l40 351h58l-40 -351q-12 -110 -49 -176t-103 -94.5t-166 -28.5h-35v127q-15 -24 -35 -44q-82 -83 -229 -83h-42z" />
    <glyph glyph-name="X" unicode="X" horiz-adv-x="481" 
d="M470 0h-68l-162 315l-163 -315h-66l178 341l-164 309h64l151 -284l154 284h62l-166 -309z" />
    <glyph glyph-name="Y" unicode="Y" horiz-adv-x="492" 
d="M232 0l54 194q-71 3 -124 31q-59 31 -90.5 90.5t-31.5 144.5q0 40 6.5 84.5t22.5 105.5h57q-17 -63 -23.5 -107t-6.5 -83q0 -103 55 -158q53 -53 150 -55l112 403h58l-178 -650h-61z" />
    <glyph glyph-name="Z" unicode="Z" horiz-adv-x="448" 
d="M420 0h-387l298 597h-299v53h386l-296 -597l298 1v-54z" />
    <glyph glyph-name="bracketleft" unicode="[" horiz-adv-x="312" 
d="M79 -162v819h213v-48h-157v-723h157v-48h-213z" />
    <glyph glyph-name="backslash" unicode="\" horiz-adv-x="283" 
d="M258 -150h-57l-176 800h57z" />
    <glyph glyph-name="bracketright" unicode="]" horiz-adv-x="312" 
d="M234 -162h-214v48h157v723h-157v48h214v-819z" />
    <glyph glyph-name="asciicircum" unicode="^" horiz-adv-x="507" 
d="M54 160l171 350h58l171 -350h-57l-144 299l-144 -299h-55z" />
    <glyph glyph-name="underscore" unicode="_" horiz-adv-x="496" 
d="M38 -61h420v-50h-420v50z" />
    <glyph glyph-name="grave" unicode="`" horiz-adv-x="516" 
d="M283 536h-51l-86 154h62z" />
    <glyph glyph-name="a" unicode="a" horiz-adv-x="484" 
d="M225 -9q-54 0 -95.5 19.5t-64.5 53.5t-23 78t23.5 78t64.5 53t95 19q80 0 129 -40q6 -5 11 -10v58q0 60 -33 94t-91 34q-44 0 -75 -22t-43 -63h-57q9 41 33.5 71.5t61 47t80.5 16.5q83 0 131.5 -48.5t48.5 -132.5v-297h-53v47q-6 -7 -14 -14q-49 -42 -129 -42zM231 39
q61 0 97.5 29t36.5 75q0 47 -36.5 74.5t-97.5 27.5q-60 0 -96.5 -28t-36.5 -75t36.5 -75t96.5 -28z" />
    <glyph glyph-name="b" unicode="b" horiz-adv-x="532" 
d="M65 0v650h56v-226q18 16 40 28q49 26 107 26q63 0 114 -29.5t80 -82t29 -120.5q0 -72 -33.5 -128t-93 -87t-137.5 -31h-162zM121 50h106q62 0 109 25t73 69t26 102q0 56 -23 96.5t-62.5 63t-88.5 22.5q-44 0 -83 -20q-30 -15 -57 -44v-314z" />
    <glyph glyph-name="c" unicode="c" horiz-adv-x="558" 
d="M465 179h56q-13 -55 -47.5 -97.5t-83 -66.5t-105.5 -24q-68 0 -123.5 32.5t-88 88t-32.5 123.5t32.5 123t88 87.5t123.5 32.5q56 0 103 -22t81.5 -62t48.5 -94h-56q-21 58 -69 93t-108 35q-52 0 -94.5 -26t-68 -69.5t-25.5 -97.5t25.5 -97.5t68 -69.5t94.5 -26
q42 0 78.5 17.5t63.5 48.5t38 71z" />
    <glyph glyph-name="d" unicode="d" horiz-adv-x="532" 
d="M467 0h-162q-77 0 -137 31t-93.5 86t-33.5 128q0 68 29 120.5t79.5 82.5t115.5 30q57 0 106 -24q22 -10 40 -24v220h56v-650zM411 50v322q-24 22 -56 37q-41 19 -83 19q-51 0 -90.5 -23.5t-62 -65t-22.5 -96.5q0 -56 26 -99.5t72.5 -68.5t107.5 -25h108z" />
    <glyph glyph-name="e" unicode="e" horiz-adv-x="549" 
d="M281 -9q-66 0 -121 32.5t-87 88t-32 123.5q0 66 32 121.5t87 88.5t121 33q65 0 117 -29t82.5 -79.5t30.5 -114.5v-19h-414v-7q0 -52 25.5 -94.5t67.5 -67.5t91 -25q55 0 99 25t71 72h56q-19 -45 -52.5 -78t-77.5 -51.5t-96 -18.5zM455 282q-4 36 -22 65q-24 38 -63.5 60
t-88.5 22t-91 -25.5t-68 -67.5q-16 -25 -22 -54h355z" />
    <glyph glyph-name="f" unicode="f" horiz-adv-x="314" 
d="M65 0v498q0 73 40 112.5t113 39.5h71v-50h-71q-47 0 -72.5 -26t-25.5 -76v-130q6 9 13 16q48 49 133 49h16v-51h-16q-70 0 -108 -36t-38 -113v-233h-55z" />
    <glyph glyph-name="g" unicode="g" horiz-adv-x="491" 
d="M234 89q-58 0 -105 25.5t-74 70t-27 99.5t27.5 99t74.5 69.5t105 25.5q33 0 64 -8h181v-47l-112 2q28 -18 46 -46q27 -42 27 -95q0 -55 -28 -99q-24 -38 -62 -62q17 -4 31 -11q38 -17 58.5 -48t20.5 -73q0 -41 -20 -73t-57 -50t-89 -18h-241v52h241q49 0 79 25.5t30 68.5
t-29.5 68t-79.5 25h-61zM387 284q0 42 -20.5 75.5t-54.5 52.5t-77 19q-42 0 -76.5 -19t-55 -52.5t-20.5 -75.5q0 -41 20.5 -74.5t55 -53t76.5 -19.5t76.5 20t55 53.5t20.5 73.5z" />
    <glyph glyph-name="h" unicode="h" horiz-adv-x="497" 
d="M65 0v650h56v-235l8 10q49 53 130 53q80 0 127.5 -51t47.5 -137v-290h-56v288q0 64 -35 102t-94 38q-58 0 -93 -38t-35 -102v-288h-56z" />
    <glyph glyph-name="i" unicode="i" horiz-adv-x="186" 
d="M93 558q-18 0 -29 11t-11 29q0 17 11 28t29 11t29 -11t11 -28q0 -18 -11 -29t-29 -11zM65 470h56v-470h-56v470z" />
    <glyph glyph-name="j" unicode="j" horiz-adv-x="186" 
d="M93 558q-18 0 -29 11t-11 29q0 17 11 28t29 11t29 -11t11 -28q0 -18 -11 -29t-29 -11zM65 470h56v-494q0 -63 -34 -94.5t-97 -31.5h-11v50h11q38 0 56.5 18t18.5 58v494z" />
    <glyph glyph-name="k" unicode="k" horiz-adv-x="492" 
d="M65 0v650h56v-437q4 5 9 10l228 247h67l-197 -213q15 3 30 3q90 0 141 -51t51 -140v-69h-55v69q0 67 -37 104.5t-100 37.5q-64 0 -100.5 -37t-36.5 -104v-70h-56z" />
    <glyph glyph-name="l" unicode="l" horiz-adv-x="223" 
d="M201 0h-13q-65 0 -97 32t-32 98v520h55v-519q0 -42 18 -61.5t57 -19.5h12v-50z" />
    <glyph glyph-name="m" unicode="m" horiz-adv-x="767" 
d="M65 0v470h52v-55q4 5 9 11q46 52 122 52q75 0 119 -50q13 -15 23 -33q20 38 55 60q38 23 88 23q78 0 124.5 -50t46.5 -135v-293h-56v291q0 63 -32 100t-86 37t-86 -37t-32 -100v-291h-56v291q0 63 -31.5 100t-85.5 37t-86 -37t-32 -100v-291h-56z" />
    <glyph glyph-name="n" unicode="n" horiz-adv-x="497" 
d="M65 0v470h52v-59l12 14q49 53 130 53q80 0 127.5 -51t47.5 -137v-290h-56v288q0 64 -35 102t-94 38q-58 0 -93 -38t-35 -102v-288h-56z" />
    <glyph glyph-name="o" unicode="o" horiz-adv-x="573" 
d="M286 -9q-68 0 -124 32.5t-88.5 88t-32.5 123.5t32.5 123t88.5 87.5t124 32.5q70 0 125.5 -32.5t88 -87.5t32.5 -123t-32.5 -123.5t-88 -88t-125.5 -32.5zM286 428q-52 0 -95 -26t-68.5 -70t-25.5 -97t25.5 -97t68.5 -70t96 -26q52 0 95 26t68.5 70t25.5 97t-25.5 97
t-68.5 70t-96 26z" />
    <glyph glyph-name="p" unicode="p" horiz-adv-x="532" 
d="M65 -150v620h162q78 0 137.5 -31t93 -86.5t33.5 -128.5q0 -69 -29 -121.5t-80 -82t-114 -29.5q-58 0 -107 27q-22 12 -40 28v-196h-56zM121 106q27 -28 57 -44q39 -20 83 -20q49 0 88.5 22.5t62.5 63t23 96.5q0 58 -26 102t-73 69t-109 25h-106v-314z" />
    <glyph glyph-name="q" unicode="q" horiz-adv-x="532" 
d="M467 -150h-56v196q-19 -16 -40 -28q-49 -27 -107 -27q-63 0 -114 29.5t-80 82t-29 121.5q0 73 33.5 128.5t93.5 86.5t137 31h162v-620zM411 420h-106q-62 0 -109 -25t-73 -69t-26 -102q0 -56 23 -96.5t62.5 -63t88.5 -22.5q45 0 84 20q30 16 56 43v315z" />
    <glyph glyph-name="r" unicode="r" horiz-adv-x="307" 
d="M65 0v470h52v-66q7 12 17 22q47 52 130 52h14v-53h-21q-66 0 -101 -38t-35 -110v-277h-56z" />
    <glyph glyph-name="s" unicode="s" horiz-adv-x="400" 
d="M46 0v50h166q46 0 71.5 21.5t25.5 58.5q0 31 -20 47.5t-50 26.5t-64.5 18.5t-65 22.5t-50 39t-19.5 68q0 51 36.5 84.5t100.5 33.5h164v-50h-164q-40 0 -61 -18.5t-21 -48.5q0 -29 19.5 -45.5t50 -27t65 -19t65 -22.5t50 -39.5t19.5 -69.5q0 -58 -40 -94t-110 -36h-168z
" />
    <glyph glyph-name="t" unicode="t" horiz-adv-x="309" 
d="M272 420h-159v-269q0 -52 25.5 -76.5t72.5 -24.5h62v-50h-63q-73 0 -112.5 38t-39.5 113v437l55 16v-134h159v-50z" />
    <glyph glyph-name="u" unicode="u" horiz-adv-x="487" 
d="M63 470h56v-293q0 -62 33.5 -98.5t90.5 -36.5q58 0 91.5 36.5t33.5 98.5v293h56v-290q0 -88 -49 -138.5t-132 -50.5q-82 0 -131 50.5t-49 138.5v290z" />
    <glyph glyph-name="v" unicode="v" horiz-adv-x="471" 
d="M65 0v470h56v-416h41q88 0 131 40t55 130l30 246h56l-30 -246q-15 -118 -71.5 -171t-168.5 -53h-99z" />
    <glyph glyph-name="w" unicode="w" horiz-adv-x="742" 
d="M65 0v470h56v-416h42q89 0 137 46q49 47 49 137v233h55v-416h29q88 0 131 39.5t54 130.5l30 246h56l-30 -246q-14 -118 -70.5 -171t-168.5 -53h-82v90q-17 -33 -49 -53q-27 -19 -64.5 -28t-89.5 -9h-85z" />
    <glyph glyph-name="x" unicode="x" horiz-adv-x="436" 
d="M16 0l155 248l-141 222h60l128 -200l129 200h61l-144 -222l156 -248h-63l-141 225l-137 -225h-63z" />
    <glyph glyph-name="y" unicode="y" horiz-adv-x="479" 
d="M46 252q0 51 7.5 105.5t22.5 112.5h57q-17 -69 -24 -119.5t-7 -98.5q0 -97 51 -150q48 -49 125 -53l119 421h57l-174 -620h-59l42 148q-56 5 -100 29q-56 30 -86.5 87t-30.5 138z" />
    <glyph glyph-name="z" unicode="z" horiz-adv-x="402" 
d="M368 0h-335l243 420h-243v50h332l-242 -420h245v-50z" />
    <glyph glyph-name="braceleft" unicode="{" horiz-adv-x="372" 
d="M352 -162h-53q-80 0 -120.5 40.5t-40.5 118.5v150q0 76 -72 76h-41v50h41q72 0 72 76v150q0 78 40.5 118t120.5 40h53v-48h-46q-111 0 -111 -110v-143q0 -46 -21 -75q-15 -22 -44 -33q29 -11 44 -33q21 -29 21 -75v-143q0 -111 111 -111h46v-48z" />
    <glyph glyph-name="bar" unicode="|" horiz-adv-x="214" 
d="M79 650h56v-800h-56v800z" />
    <glyph glyph-name="braceright" unicode="}" horiz-adv-x="372" 
d="M20 -162v48h46q111 0 111 111v143q0 46 20 75q16 22 45 33q-29 11 -45 33q-20 29 -20 75v143q0 110 -111 110h-46v48h53q79 0 120 -40t41 -118v-150q0 -76 71 -76h42v-50h-42q-71 0 -71 -76v-150q0 -78 -41 -118.5t-120 -40.5h-53z" />
    <glyph glyph-name="asciitilde" unicode="~" horiz-adv-x="469" 
d="M336 322q45 0 85 20v-46q-19 -10 -40.5 -15t-44.5 -5q-37 0 -71 10t-66.5 20t-65.5 10q-23 0 -44 -5.5t-41 -14.5v46q20 10 41 15t44 5q37 0 71 -10t66.5 -20t65.5 -10z" />
    <glyph glyph-name="uni00A0" unicode="&#xa0;" horiz-adv-x="218" 
 />
    <glyph glyph-name="exclamdown" unicode="&#xa1;" horiz-adv-x="198" 
d="M99 477q18 0 29 -11t11 -28q0 -18 -11 -29t-29 -11q-17 0 -28.5 11t-11.5 29q0 17 11.5 28t28.5 11zM128 -180h-58l4 473h50z" />
    <glyph glyph-name="cent" unicode="&#xa2;" horiz-adv-x="559" 
d="M258 650h55v-85q40 -4 75 -20q47 -22 81.5 -62.5t48.5 -93.5h-56q-21 57 -69 92t-108 35q-52 0 -94.5 -25.5t-68 -69.5t-25.5 -98q0 -53 25.5 -97t68 -69.5t94.5 -25.5q42 0 78.5 17t63.5 48t38 72h56q-13 -56 -47.5 -98.5t-82.5 -65.5q-36 -18 -78 -23v-81h-55v81
q-52 6 -96 31q-56 33 -88.5 88t-32.5 123t32.5 123.5t88.5 87.5q44 26 96 32v84z" />
    <glyph glyph-name="sterling" unicode="&#xa3;" horiz-adv-x="474" 
d="M21 0v54h5q44 0 64.5 19t20.5 62v114h-90v51h90v165q0 92 50 138.5t131 46.5h129v-53h-129q-54 0 -89 -31.5t-35 -100.5v-165h232v-51h-232v-107q0 -53 -26 -79q-5 -5 -11 -10l309 1v-54h-419z" />
    <glyph glyph-name="currency" unicode="&#xa4;" horiz-adv-x="592" 
d="M29 549l41 41l91 -92q11 8 22 15q51 29 113 29t113 -29q11 -6 22 -14l91 91l41 -41l-90 -91q9 -11 17 -23q30 -50 30 -111q0 -60 -30 -110q-8 -13 -17 -24l90 -91l-41 -41l-92 91q-10 -7 -21 -14q-51 -29 -113 -29t-113 29q-11 7 -22 15l-91 -92l-41 41l90 91
q-9 11 -17 24q-30 50 -30 110q0 61 30 111q8 12 17 23zM296 156q47 0 85 23t61 61t23 84t-23 84.5t-61 61t-85 22.5q-46 0 -84.5 -22.5t-61.5 -61t-23 -84.5t23 -84t61.5 -61t84.5 -23z" />
    <glyph glyph-name="yen" unicode="&#xa5;" horiz-adv-x="487" 
d="M271 0h-57v188h-153v49h153v106h-153v49h127l-165 258h64l157 -250l157 250h63l-166 -258h127v-49h-154v-106h154v-49h-154v-188z" />
    <glyph glyph-name="brokenbar" unicode="&#xa6;" horiz-adv-x="214" 
d="M79 650h56v-373h-56v373zM79 223h56v-373h-56v373z" />
    <glyph glyph-name="section" unicode="&#xa7;" horiz-adv-x="474" 
d="M73 -150v53h190q37 0 58 15.5t21 43.5q0 27 -22 43.5t-57 29t-74 27t-74.5 37t-57.5 57.5t-22 91q0 48 26 90t71 68q22 13 47 20q-42 18 -63 38q-33 31 -33 75q0 34 17 59t48 39t72 14h161v-53h-161q-37 0 -58 -15.5t-21 -44.5q0 -28 21.5 -45t55.5 -30.5t72.5 -28
t72.5 -36t56 -56.5t22 -90q0 -49 -26.5 -91t-71.5 -68q-20 -12 -43 -18q43 -18 65 -37q35 -31 35 -75q0 -34 -17 -59t-47.5 -39t-72.5 -14h-190zM242 107q39 0 71.5 20t52 53t19.5 72q0 42 -21.5 73t-56 48.5t-73.5 17.5t-71.5 -20t-52 -53t-19.5 -73q0 -41 21.5 -72
t56 -48.5t73.5 -17.5z" />
    <glyph glyph-name="dieresis" unicode="&#xa8;" horiz-adv-x="516" 
d="M173 566q-18 0 -29 11t-11 29q0 17 11 28t29 11t29 -11t11 -28q0 -18 -11 -29t-29 -11zM344 566q-18 0 -29.5 11t-11.5 29q0 17 11.5 28t29.5 11t29 -11t11 -28q0 -18 -11 -29t-29 -11z" />
    <glyph glyph-name="copyright" unicode="&#xa9;" horiz-adv-x="767" 
d="M383 -9q-71 0 -132.5 26t-108 71.5t-73 106t-26.5 130.5t26.5 130.5t73 106t108 71.5t132.5 26q72 0 133.5 -26t108.5 -71.5t73 -106t26 -130.5t-26 -130.5t-73 -106t-108.5 -71.5t-133.5 -26zM383 41q60 0 112 22t91.5 61t62 90.5t22.5 110.5t-22.5 110.5t-62 90.5
t-91.5 61t-112 22q-59 0 -111 -22t-91.5 -61t-62 -90.5t-22.5 -110.5t22.5 -110.5t62 -90.5t91.5 -61t111 -22zM386 163q-46 0 -84 22t-60 60t-22 84q0 47 22 85t60 60t84 22q56 0 100 -33t61 -88h-52q-14 35 -43 55t-66 20q-31 0 -58 -16t-43 -44t-16 -61t16 -60.5
t43 -43.5t58 -16q38 0 69 22t42 58h52q-15 -58 -59.5 -92t-103.5 -34z" />
    <glyph glyph-name="ordfeminine" unicode="&#xaa;" horiz-adv-x="385" 
d="M175 261q-45 0 -78 15.5t-51 42.5t-18 61q0 52 40 86t107 34q62 0 101 -32q3 -2 5 -4v48q0 32 -13 53.5t-34.5 32.5t-48.5 11q-37 0 -61 -17t-34 -47h-52q9 34 29.5 58.5t50.5 38t67 13.5q42 0 75.5 -16.5t53 -49t19.5 -79.5v-242h-46v36q-5 -6 -11 -11q-40 -32 -101 -32
zM180 304q45 0 73 21.5t28 55.5q0 35 -28 55.5t-73 20.5t-73 -20.5t-28 -56.5q0 -33 28 -54.5t73 -21.5z" />
    <glyph glyph-name="guillemotleft" unicode="&#xab;" horiz-adv-x="452" 
d="M360 49l-130 196l130 196h60l-127 -194l129 -198h-62zM155 49l-130 196l130 196h60l-128 -194l130 -198h-62z" />
    <glyph glyph-name="logicalnot" unicode="&#xac;" horiz-adv-x="469" 
d="M48 342h373v-210h-47v164h-326v46z" />
    <glyph glyph-name="uni00AD" unicode="&#xad;" horiz-adv-x="0" 
 />
    <glyph glyph-name="registered" unicode="&#xae;" horiz-adv-x="501" 
d="M247 232q-61 0 -110 28t-77 76t-28 109q0 62 28 110t77 76t110 28q62 0 112.5 -28t80 -76t29.5 -110q0 -61 -29.5 -109t-80 -76t-112.5 -28zM247 621q-50 0 -89.5 -22.5t-62 -62.5t-22.5 -91t22.5 -90.5t62 -62t89.5 -22.5q53 0 93.5 22.5t64 62t23.5 90.5
q0 52 -23.5 91.5t-64 62t-93.5 22.5zM181 557h81q36 0 55.5 -17.5t19.5 -43.5q0 -25 -12.5 -39.5t-30.5 -24.5q-3 -2 -6 -3q18 -5 32 -18q22 -20 22 -52v-16h-36v17q0 19 -12.5 31t-32.5 12q-19 0 -32 -11.5t-13 -28.5v-20h-35v214zM216 419q7 6 15 11q16 9 32 16.5t27 18
t11 28.5q0 14 -10.5 22.5t-28.5 8.5h-46v-105z" />
    <glyph glyph-name="macron" unicode="&#xaf;" horiz-adv-x="516" 
d="M137 628h243v-50h-243v50z" />
    <glyph glyph-name="degree" unicode="&#xb0;" horiz-adv-x="331" 
d="M166 405q-36 0 -65 17t-46.5 46t-17.5 64t17.5 64t46.5 46t65 17t65 -17t46 -46t17 -64t-17 -64t-46 -46t-65 -17zM166 612q-22 0 -40 -11t-29 -29t-11 -40t11 -40t29 -29t40 -11q33 0 56 23.5t23 56.5t-23 56.5t-56 23.5z" />
    <glyph glyph-name="plusminus" unicode="&#xb1;" horiz-adv-x="469" 
d="M48 364h163v163h47v-163h163v-46h-163v-164h-47v164h-163v46zM48 46h373v-46h-373v46z" />
    <glyph glyph-name="twosuperior" unicode="&#xb2;" horiz-adv-x="321" 
d="M160 655q35 0 63 -15.5t44.5 -41.5t16.5 -59q0 -28 -11 -52t-39 -56l-100 -113h157v-50h-266l162 182q27 30 36.5 49t9.5 39q0 29 -21.5 49.5t-51.5 20.5q-31 0 -52.5 -20.5t-21.5 -49.5q0 -35 28 -61l-31 -35q-48 41 -48 97q0 33 16.5 59t44.5 41.5t64 15.5z" />
    <glyph glyph-name="threesuperior" unicode="&#xb3;" horiz-adv-x="326" 
d="M164 263q-40 0 -72 18t-51 49.5t-19 71.5h52q0 -26 12 -46.5t32 -32t46 -11.5q38 0 63 23.5t25 57.5q0 21 -11.5 38t-31 26.5t-45.5 9.5h-18v50h18q22 0 42 -4q14 19 15 41q0 22 -17.5 37t-43.5 15q-25 0 -42.5 -16t-17.5 -39h-52q0 44 31.5 74t80.5 30q48 0 80.5 -28
t32.5 -71q0 -22 -11 -43q-6 -10 -13 -19q23 -15 37 -37q18 -28 18 -64q0 -37 -18.5 -66.5t-50 -46.5t-71.5 -17z" />
    <glyph glyph-name="acute" unicode="&#xb4;" horiz-adv-x="516" 
d="M232 536l76 154h61l-86 -154h-51z" />
    <glyph glyph-name="paragraph" unicode="&#xb6;" horiz-adv-x="588" 
d="M233 -150v236q0 47 -14.5 81t-37.5 59.5t-48.5 49t-48 49.5t-37 59.5t-14.5 80.5q0 57 27 98.5t74 64t108 22.5h268v-800h-57v747h-163v-747h-57z" />
    <glyph glyph-name="periodcentered" unicode="&#xb7;" horiz-adv-x="516" 
d="M259 252q-17 0 -28.5 11t-11.5 29q0 17 11.5 28t28.5 11q18 0 29.5 -11t11.5 -28q0 -18 -11.5 -29t-29.5 -11z" />
    <glyph glyph-name="cedilla" unicode="&#xb8;" horiz-adv-x="516" 
d="M289 23v-160h-56l7 160h49z" />
    <glyph glyph-name="onesuperior" unicode="&#xb9;" horiz-adv-x="217" 
d="M10 603q42 6 80.5 20t65.5 35v-390h-52v308l-16 -6q-36 -13 -78 -17v50z" />
    <glyph glyph-name="ordmasculine" unicode="&#xba;" horiz-adv-x="454" 
d="M227 263q-56 0 -101.5 26t-72.5 70.5t-27 99.5t27 99.5t72.5 70.5t101.5 26t101.5 -26t72 -70.5t26.5 -99.5t-26.5 -99.5t-71.5 -70.5t-102 -26zM227 312q41 0 74 19.5t53 53t20 74.5q0 40 -20 73.5t-53 53.5t-74 20q-40 0 -73.5 -20t-53.5 -53t-20 -74q0 -40 20 -74
t53.5 -53.5t73.5 -19.5z" />
    <glyph glyph-name="guillemotright" unicode="&#xbb;" horiz-adv-x="452" 
d="M32 49l127 194l-129 198h62l130 -196l-130 -196h-60zM237 49l128 194l-130 198h62l130 -196l-130 -196h-60z" />
    <glyph glyph-name="onequarter" unicode="&#xbc;" horiz-adv-x="761" 
d="M10 603q42 6 80.5 20t65.5 35v-390h-52v308l-16 -6q-36 -13 -78 -17v50zM116 0l351 650h60l-351 -650h-60zM712 0h-52v44q0 32 -13.5 49.5t-35 27t-46 18t-46 22t-35.5 39.5t-14 70v112h53v-112q0 -33 13 -51.5t34 -28t44 -17.5t44 -21q1 -1 2 -1v137h52v-288z" />
    <glyph glyph-name="onehalf" unicode="&#xbd;" horiz-adv-x="726" 
d="M10 603q42 6 80.5 20t65.5 35v-390h-52v308l-16 -6q-36 -13 -78 -17v50zM116 0l351 650h60l-351 -650h-60zM565 387q35 0 63.5 -15.5t45 -41.5t16.5 -59q0 -28 -11 -52t-40 -56l-100 -113h157v-50h-265l161 182q27 30 37 49t10 39q0 29 -22 49.5t-52 20.5
q-31 0 -52.5 -20.5t-21.5 -49.5q0 -35 28 -61l-31 -35q-48 41 -48 97q0 33 16.5 59t45 41.5t63.5 15.5z" />
    <glyph glyph-name="threequarters" unicode="&#xbe;" horiz-adv-x="860" 
d="M164 263q-40 0 -72 18t-51 49.5t-19 71.5h52q0 -26 12 -46.5t32 -32t46 -11.5q38 0 63 23.5t25 57.5q0 21 -11.5 38t-31 26.5t-45.5 9.5h-18v50h18q22 0 42 -4q14 19 15 41q0 22 -17.5 37t-43.5 15q-25 0 -42.5 -16t-17.5 -39h-52q0 44 31.5 74t80.5 30q48 0 80.5 -28
t32.5 -71q0 -22 -11 -43q-6 -10 -13 -19q23 -15 37 -37q18 -28 18 -64q0 -37 -18.5 -66.5t-50 -46.5t-71.5 -17zM213 0l351 650h60l-351 -650h-60zM811 0h-52v44q0 32 -14 49.5t-35 27t-46 18t-46 22t-35 39.5t-14 70v112h52v-112q0 -33 13.5 -51.5t34.5 -28t44 -17.5
t44 -21q1 -1 2 -1v137h52v-288z" />
    <glyph glyph-name="questiondown" unicode="&#xbf;" horiz-adv-x="501" 
d="M246 477q17 0 28.5 -11t11.5 -28q0 -18 -11 -29t-29 -11t-29.5 11t-11.5 29q0 17 11.5 28t29.5 11zM270 293l1 -122h-21q-43 0 -79.5 -20t-58 -55t-21.5 -80t22.5 -79.5t59 -54.5t78.5 -20q46 0 83 20t59 56.5t22 85.5h56q0 -65 -29 -112.5t-78.5 -74t-112.5 -26.5
q-59 0 -108.5 26t-78.5 72.5t-29 106.5t27.5 105.5t76.5 71.5q36 18 80 23l2 77h49z" />
    <glyph glyph-name="Agrave" unicode="&#xc0;" 
d="M296 716h-51l-86 154h62zM70 0v454q0 60 25.5 106t71.5 72.5t105 26.5q60 0 105.5 -26.5t71 -72.5t25.5 -106v-454h-57v26q0 108 -68.5 171t-195.5 63h-26v-260h-57zM127 314h13q130 0 209 -50q43 -28 68 -66v256q0 44 -18.5 77.5t-51 52.5t-75.5 19q-42 0 -75 -19
t-51.5 -52.5t-18.5 -77.5v-140z" />
    <glyph glyph-name="Aacute" unicode="&#xc1;" 
d="M245 716l76 154h62l-87 -154h-51zM70 0v454q0 60 25.5 106t71.5 72.5t105 26.5q60 0 105.5 -26.5t71 -72.5t25.5 -106v-454h-57v26q0 108 -68.5 171t-195.5 63h-26v-260h-57zM127 314h13q130 0 209 -50q43 -28 68 -66v256q0 44 -18.5 77.5t-51 52.5t-75.5 19
q-42 0 -75 -19t-51.5 -52.5t-18.5 -77.5v-140z" />
    <glyph glyph-name="Acircumflex" unicode="&#xc2;" 
d="M300 870l111 -154h-58l-82 115l-81 -115h-58l110 154h58zM70 0v454q0 60 25.5 106t71.5 72.5t105 26.5q60 0 105.5 -26.5t71 -72.5t25.5 -106v-454h-57v26q0 108 -68.5 171t-195.5 63h-26v-260h-57zM127 314h13q130 0 209 -50q43 -28 68 -66v256q0 44 -18.5 77.5
t-51 52.5t-75.5 19q-42 0 -75 -19t-51.5 -52.5t-18.5 -77.5v-140z" />
    <glyph glyph-name="Atilde" unicode="&#xc3;" 
d="M130 716v69q0 42 19.5 65t53.5 23q24 0 40.5 -12t29 -28.5t22 -33.5t20 -29t23.5 -12q15 0 22.5 11t7.5 31v70h46v-70q0 -41 -19.5 -64t-53.5 -23q-24 0 -41 11.5t-29.5 28.5t-22 34t-19.5 29t-24 12q-30 0 -30 -43v-69h-45zM70 0v454q0 60 25.5 106t71.5 72.5t105 26.5
q60 0 105.5 -26.5t71 -72.5t25.5 -106v-454h-57v26q0 108 -68.5 171t-195.5 63h-26v-260h-57zM127 314h13q130 0 209 -50q43 -28 68 -66v256q0 44 -18.5 77.5t-51 52.5t-75.5 19q-42 0 -75 -19t-51.5 -52.5t-18.5 -77.5v-140z" />
    <glyph glyph-name="Adieresis" unicode="&#xc4;" 
d="M186 746q-17 0 -28.5 11t-11.5 28q0 18 11.5 29t28.5 11q18 0 29.5 -11t11.5 -29q0 -17 -11.5 -28t-29.5 -11zM357 746q-17 0 -28.5 11t-11.5 28q0 18 11.5 29t28.5 11q18 0 29 -11t11 -29q0 -17 -11 -28t-29 -11zM70 0v454q0 60 25.5 106t71.5 72.5t105 26.5
q60 0 105.5 -26.5t71 -72.5t25.5 -106v-454h-57v26q0 108 -68.5 171t-195.5 63h-26v-260h-57zM127 314h13q130 0 209 -50q43 -28 68 -66v256q0 44 -18.5 77.5t-51 52.5t-75.5 19q-42 0 -75 -19t-51.5 -52.5t-18.5 -77.5v-140z" />
    <glyph glyph-name="Aring" unicode="&#xc5;" 
d="M70 0v454q0 78 43 132q32 41 81 59q-9 8 -16 17q-18 26 -18 60q0 46 32 76.5t80 30.5q33 0 58.5 -14t40 -38t14.5 -55q0 -34 -18 -60q-7 -10 -15 -17q47 -18 79 -58q43 -55 43 -133v-454h-57v26q0 108 -68.5 171t-195.5 63h-26v-260h-57zM272 659q31 0 48.5 17.5
t17.5 45.5t-17.5 45.5t-48.5 17.5q-29 0 -47 -17.5t-18 -45.5t18 -45.5t47 -17.5zM127 314h13q130 0 209 -50q43 -28 68 -66v256q0 44 -18.5 77.5t-51 52.5t-75.5 19q-42 0 -75 -19t-51.5 -52.5t-18.5 -77.5v-140z" />
    <glyph glyph-name="AE" unicode="&#xc6;" horiz-adv-x="767" 
d="M70 0v451q0 60 26 104.5t72 69.5t104 25h453v-53h-274v-347q32 48 84 76q61 32 145 32h14v-54h-14q-106 0 -167.5 -56t-61.5 -154v-40h274v-54h-331v214h-267v-214h-57zM127 268h267v329h-122q-41 -1 -74 -19.5t-52 -51t-19 -75.5v-183z" />
    <glyph glyph-name="Ccedilla" unicode="&#xc7;" horiz-adv-x="743" 
d="M43 325q0 70 26 130t72 106t106.5 72t129.5 26q77 0 143.5 -32t114 -88t65.5 -129h-60q-18 58 -57.5 102t-92.5 68.5t-113 24.5q-57 0 -106.5 -21.5t-87.5 -60t-59.5 -89.5t-21.5 -109t21.5 -109t59.5 -89.5t87.5 -60t106.5 -21.5q65 0 121 28.5t96 78.5t53 114h59
q-10 -59 -39 -108.5t-73 -86.5t-98 -58q-43 -17 -89 -21v-129h-56l6 129q-58 3 -110 25q-60 26 -106 71.5t-72 106t-26 130.5z" />
    <glyph glyph-name="Egrave" unicode="&#xc8;" horiz-adv-x="452" 
d="M282 716h-51l-86 154h62zM79 0v650h331v-53h-274v-348q31 48 84 76q61 32 145 32h13v-53h-13q-107 0 -168 -58t-61 -159v-33h274v-54h-331z" />
    <glyph glyph-name="Eacute" unicode="&#xc9;" horiz-adv-x="452" 
d="M215 716l76 154h62l-87 -154h-51zM79 0v650h331v-53h-274v-348q31 48 84 76q61 32 145 32h13v-53h-13q-107 0 -168 -58t-61 -159v-33h274v-54h-331z" />
    <glyph glyph-name="Ecircumflex" unicode="&#xca;" horiz-adv-x="452" 
d="M270 870l111 -154h-58l-82 115l-81 -115h-58l110 154h58zM79 0v650h331v-53h-274v-348q31 48 84 76q61 32 145 32h13v-53h-13q-107 0 -168 -58t-61 -159v-33h274v-54h-331z" />
    <glyph glyph-name="Edieresis" unicode="&#xcb;" horiz-adv-x="452" 
d="M156 746q-17 0 -28.5 11t-11.5 28q0 18 11.5 29t28.5 11q18 0 29 -11t11 -29q0 -17 -11 -28t-29 -11zM327 746q-17 0 -28.5 11t-11.5 28q0 18 11.5 29t28.5 11q18 0 29 -11t11 -29q0 -17 -11 -28t-29 -11zM79 0v650h331v-53h-274v-348q31 48 84 76q61 32 145 32h13v-53
h-13q-107 0 -168 -58t-61 -159v-33h274v-54h-331z" />
    <glyph glyph-name="Igrave" unicode="&#xcc;" horiz-adv-x="214" 
d="M132 716h-51l-86 154h62zM136 0h-57v650h57v-650z" />
    <glyph glyph-name="Iacute" unicode="&#xcd;" horiz-adv-x="214" 
d="M82 716l76 154h62l-87 -154h-51zM136 0h-57v650h57v-650z" />
    <glyph glyph-name="Icircumflex" unicode="&#xce;" horiz-adv-x="214" 
d="M136 870l111 -154h-59l-81 115l-82 -115h-58l111 154h58zM136 0h-57v650h57v-650z" />
    <glyph glyph-name="Idieresis" unicode="&#xcf;" horiz-adv-x="214" 
d="M22 746q-18 0 -29.5 11t-11.5 28q0 18 11.5 29t29.5 11t29 -11t11 -29q0 -17 -11 -28t-29 -11zM193 746q-18 0 -29.5 11t-11.5 28q0 18 11.5 29t29.5 11t29 -11t11 -29q0 -17 -11 -28t-29 -11zM136 0h-57v650h57v-650z" />
    <glyph glyph-name="Eth" unicode="&#xd0;" horiz-adv-x="549" 
d="M93 0v298h-84v53h84v299h60q106 0 185 -42t123.5 -115t44.5 -168q0 -94 -44.5 -167.5t-123.5 -115.5t-185 -42h-60zM282 298h-132v-244h14q84 0 147.5 35.5t100 96.5t36.5 139t-36.5 139.5t-100 97t-147.5 35.5h-14v-246h132v-53z" />
    <glyph glyph-name="Ntilde" unicode="&#xd1;" horiz-adv-x="571" 
d="M145 716v69q0 42 19.5 65t53.5 23q24 0 41 -12t29.5 -28.5t22 -33.5t19.5 -29t24 -12q15 0 22.5 11t7.5 31v70h45v-70q0 -41 -19 -64t-54 -23q-24 0 -40.5 11.5t-28.5 28.5t-22 34t-20.5 29t-23.5 12q-30 0 -30 -43v-69h-46zM79 0v650h53q60 -140 138 -253
q73 -105 166 -193v446h57v-650h-57v130q-63 57 -117 118q-59 66 -107 139q-42 62 -76 130v-517h-57z" />
    <glyph glyph-name="Ograve" unicode="&#xd2;" horiz-adv-x="754" 
d="M402 716h-51l-86 154h61zM43 325q0 70 25.5 130t71.5 106t106.5 72t130.5 26q69 0 129.5 -26t106.5 -72t72 -106t26 -130t-26 -130.5t-72 -106.5t-106.5 -71.5t-129.5 -25.5t-129.5 25.5t-106.5 71.5t-72 106.5t-26 130.5zM101 325q0 -58 22 -108.5t59.5 -89.5
t87.5 -60.5t107 -21.5q56 0 106 21.5t88 60.5t59.5 89.5t21.5 108.5t-21.5 109t-59.5 89.5t-88 60t-106 21.5q-57 0 -107 -21.5t-87.5 -60t-59.5 -89.5t-22 -109z" />
    <glyph glyph-name="Oacute" unicode="&#xd3;" horiz-adv-x="754" 
d="M351 716l75 154h62l-86 -154h-51zM43 325q0 70 25.5 130t71.5 106t106.5 72t130.5 26q69 0 129.5 -26t106.5 -72t72 -106t26 -130t-26 -130.5t-72 -106.5t-106.5 -71.5t-129.5 -25.5t-129.5 25.5t-106.5 71.5t-72 106.5t-26 130.5zM101 325q0 -58 22 -108.5t59.5 -89.5
t87.5 -60.5t107 -21.5q56 0 106 21.5t88 60.5t59.5 89.5t21.5 108.5t-21.5 109t-59.5 89.5t-88 60t-106 21.5q-57 0 -107 -21.5t-87.5 -60t-59.5 -89.5t-22 -109z" />
    <glyph glyph-name="Ocircumflex" unicode="&#xd4;" horiz-adv-x="754" 
d="M406 870l111 -154h-59l-82 115l-81 -115h-58l110 154h59zM43 325q0 70 25.5 130t71.5 106t106.5 72t130.5 26q69 0 129.5 -26t106.5 -72t72 -106t26 -130t-26 -130.5t-72 -106.5t-106.5 -71.5t-129.5 -25.5t-129.5 25.5t-106.5 71.5t-72 106.5t-26 130.5zM101 325
q0 -58 22 -108.5t59.5 -89.5t87.5 -60.5t107 -21.5q56 0 106 21.5t88 60.5t59.5 89.5t21.5 108.5t-21.5 109t-59.5 89.5t-88 60t-106 21.5q-57 0 -107 -21.5t-87.5 -60t-59.5 -89.5t-22 -109z" />
    <glyph glyph-name="Otilde" unicode="&#xd5;" horiz-adv-x="754" 
d="M235 716v69q0 42 19.5 65t53.5 23q24 0 41 -12t29 -28.5t22 -33.5t20 -29t23 -12q16 0 23 11t7 31v70h46v-70q0 -41 -19 -64t-54 -23q-24 0 -41 11.5t-29 28.5t-22 34t-20 29t-24 12q-29 0 -29 -43v-69h-46zM43 325q0 70 25.5 130t71.5 106t106.5 72t130.5 26
q69 0 129.5 -26t106.5 -72t72 -106t26 -130t-26 -130.5t-72 -106.5t-106.5 -71.5t-129.5 -25.5t-129.5 25.5t-106.5 71.5t-72 106.5t-26 130.5zM101 325q0 -58 22 -108.5t59.5 -89.5t87.5 -60.5t107 -21.5q56 0 106 21.5t88 60.5t59.5 89.5t21.5 108.5t-21.5 109t-59.5 89.5
t-88 60t-106 21.5q-57 0 -107 -21.5t-87.5 -60t-59.5 -89.5t-22 -109z" />
    <glyph glyph-name="Odieresis" unicode="&#xd6;" horiz-adv-x="754" 
d="M291 746q-17 0 -28.5 11t-11.5 28q0 18 11.5 29t28.5 11q18 0 29.5 -11t11.5 -29q0 -17 -11.5 -28t-29.5 -11zM462 746q-17 0 -28.5 11t-11.5 28q0 18 11.5 29t28.5 11q18 0 29.5 -11t11.5 -29q0 -17 -11.5 -28t-29.5 -11zM43 325q0 70 25.5 130t71.5 106t106.5 72
t130.5 26q69 0 129.5 -26t106.5 -72t72 -106t26 -130t-26 -130.5t-72 -106.5t-106.5 -71.5t-129.5 -25.5t-129.5 25.5t-106.5 71.5t-72 106.5t-26 130.5zM101 325q0 -58 22 -108.5t59.5 -89.5t87.5 -60.5t107 -21.5q56 0 106 21.5t88 60.5t59.5 89.5t21.5 108.5t-21.5 109
t-59.5 89.5t-88 60t-106 21.5q-57 0 -107 -21.5t-87.5 -60t-59.5 -89.5t-22 -109z" />
    <glyph glyph-name="multiply" unicode="&#xd7;" horiz-adv-x="469" 
d="M73 190l129 129l-129 129l33 34l129 -130l129 130l32 -33l-128 -129l128 -130l-32 -33l-130 129l-128 -129z" />
    <glyph glyph-name="Oslash" unicode="&#xd8;" horiz-adv-x="754" 
d="M377 -9q-69 0 -130 26q-42 18 -77 45l-58 -62h-73l92 99q-39 42 -62 96q-26 60 -26 130t26 130t72 106t106.5 72t129.5 26t130 -26q42 -18 77 -45l58 62h73l-92 -99q39 -42 62 -96q26 -60 26 -130t-26 -130.5t-72 -106.5t-106.5 -71.5t-129.5 -25.5zM546 546
q-29 22 -63 37q-50 22 -106 22q-57 0 -107 -21.5t-87.5 -60t-59.5 -89.5t-22 -109t22 -109q18 -42 47 -75zM377 45q56 0 106 21.5t88 60.5t59.5 89.5t21.5 108.5t-21 109q-18 42 -47 75l-376 -405q28 -23 62 -37q50 -22 107 -22z" />
    <glyph glyph-name="Ugrave" unicode="&#xd9;" horiz-adv-x="542" 
d="M296 716h-51l-86 154h62zM272 46q41 0 73.5 18.5t51 51t18.5 72.5v462h57v-462q0 -58 -25 -102.5t-70.5 -69.5t-104.5 -25q-60 0 -105.5 25t-71 69.5t-25.5 102.5v462h57v-462q0 -40 19 -72.5t51.5 -51t74.5 -18.5z" />
    <glyph glyph-name="Uacute" unicode="&#xda;" horiz-adv-x="542" 
d="M245 716l76 154h62l-87 -154h-51zM272 46q41 0 73.5 18.5t51 51t18.5 72.5v462h57v-462q0 -58 -25 -102.5t-70.5 -69.5t-104.5 -25q-60 0 -105.5 25t-71 69.5t-25.5 102.5v462h57v-462q0 -40 19 -72.5t51.5 -51t74.5 -18.5z" />
    <glyph glyph-name="Ucircumflex" unicode="&#xdb;" horiz-adv-x="542" 
d="M300 870l111 -154h-58l-82 115l-81 -115h-58l110 154h58zM272 46q41 0 73.5 18.5t51 51t18.5 72.5v462h57v-462q0 -58 -25 -102.5t-70.5 -69.5t-104.5 -25q-60 0 -105.5 25t-71 69.5t-25.5 102.5v462h57v-462q0 -40 19 -72.5t51.5 -51t74.5 -18.5z" />
    <glyph glyph-name="Udieresis" unicode="&#xdc;" horiz-adv-x="542" 
d="M186 746q-17 0 -28.5 11t-11.5 28q0 18 11.5 29t28.5 11q18 0 29.5 -11t11.5 -29q0 -17 -11.5 -28t-29.5 -11zM357 746q-17 0 -28.5 11t-11.5 28q0 18 11.5 29t28.5 11q18 0 29 -11t11 -29q0 -17 -11 -28t-29 -11zM272 46q41 0 73.5 18.5t51 51t18.5 72.5v462h57v-462
q0 -58 -25 -102.5t-70.5 -69.5t-104.5 -25q-60 0 -105.5 25t-71 69.5t-25.5 102.5v462h57v-462q0 -40 19 -72.5t51.5 -51t74.5 -18.5z" />
    <glyph glyph-name="Yacute" unicode="&#xdd;" horiz-adv-x="492" 
d="M235 716l76 154h62l-87 -154h-51zM232 0l54 194q-71 3 -124 31q-59 31 -90.5 90.5t-31.5 144.5q0 40 6.5 84.5t22.5 105.5h57q-17 -63 -23.5 -107t-6.5 -83q0 -103 55 -158q53 -53 150 -55l112 403h58l-178 -650h-61z" />
    <glyph glyph-name="Thorn" unicode="&#xde;" horiz-adv-x="497" 
d="M79 0v650h57v-103h103q67 0 118 -22t79.5 -62.5t28.5 -93.5q0 -50 -18 -84t-47 -56t-64 -38t-70 -31.5t-64.5 -36t-47.5 -49.5t-18 -74h-57zM136 133q8 9 18 17q28 23 61.5 39.5t67 31.5t61.5 33t45.5 45t17.5 67q0 60 -45.5 94t-120.5 34h-105v-361z" />
    <glyph glyph-name="germandbls" unicode="&#xdf;" horiz-adv-x="560" 
d="M65 0v450q0 65 23.5 111.5t66 72t100.5 25.5q51 0 88 -18t57.5 -48t20.5 -68q0 -36 -12.5 -60.5t-28.5 -42t-29 -33t-13 -34.5q0 -21 19 -36t47 -29.5t55.5 -33t46.5 -46.5t19 -70q0 -64 -43 -102t-115 -38h-122v50h122q49 0 75.5 24t26.5 66q0 32 -18.5 53t-46.5 36.5
t-55.5 31t-46.5 35t-19 50.5q0 28 13 48t29 37.5t28.5 38t12.5 49.5q0 39 -30 64t-81 25q-62 0 -98 -42.5t-36 -115.5v-450h-56z" />
    <glyph glyph-name="agrave" unicode="&#xe0;" horiz-adv-x="484" 
d="M264 536h-51l-86 154h62zM225 -9q-54 0 -95.5 19.5t-64.5 53.5t-23 78t23.5 78t64.5 53t95 19q80 0 129 -40q6 -5 11 -10v58q0 60 -33 94t-91 34q-44 0 -75 -22t-43 -63h-57q9 41 33.5 71.5t61 47t80.5 16.5q83 0 131.5 -48.5t48.5 -132.5v-297h-53v47q-6 -7 -14 -14
q-49 -42 -129 -42zM231 39q61 0 97.5 29t36.5 75q0 47 -36.5 74.5t-97.5 27.5q-60 0 -96.5 -28t-36.5 -75t36.5 -75t96.5 -28z" />
    <glyph glyph-name="aacute" unicode="&#xe1;" horiz-adv-x="484" 
d="M213 536l76 154h62l-87 -154h-51zM225 -9q-54 0 -95.5 19.5t-64.5 53.5t-23 78t23.5 78t64.5 53t95 19q80 0 129 -40q6 -5 11 -10v58q0 60 -33 94t-91 34q-44 0 -75 -22t-43 -63h-57q9 41 33.5 71.5t61 47t80.5 16.5q83 0 131.5 -48.5t48.5 -132.5v-297h-53v47
q-6 -7 -14 -14q-49 -42 -129 -42zM231 39q61 0 97.5 29t36.5 75q0 47 -36.5 74.5t-97.5 27.5q-60 0 -96.5 -28t-36.5 -75t36.5 -75t96.5 -28z" />
    <glyph glyph-name="acircumflex" unicode="&#xe2;" horiz-adv-x="484" 
d="M268 690l111 -154h-58l-82 115l-81 -115h-58l110 154h58zM225 -9q-54 0 -95.5 19.5t-64.5 53.5t-23 78t23.5 78t64.5 53t95 19q80 0 129 -40q6 -5 11 -10v58q0 60 -33 94t-91 34q-44 0 -75 -22t-43 -63h-57q9 41 33.5 71.5t61 47t80.5 16.5q83 0 131.5 -48.5t48.5 -132.5
v-297h-53v47q-6 -7 -14 -14q-49 -42 -129 -42zM231 39q61 0 97.5 29t36.5 75q0 47 -36.5 74.5t-97.5 27.5q-60 0 -96.5 -28t-36.5 -75t36.5 -75t96.5 -28z" />
    <glyph glyph-name="atilde" unicode="&#xe3;" horiz-adv-x="484" 
d="M94 536v70q0 41 19.5 64t53.5 23q24 0 41 -11.5t29 -28.5t22 -34t20 -28.5t24 -11.5q15 0 22 10.5t7 31.5v69h46v-69q0 -41 -19 -64.5t-54 -23.5q-24 0 -41 12t-29 28.5t-22 33.5t-20 29t-23 12q-30 0 -30 -42v-70h-46zM225 -9q-54 0 -95.5 19.5t-64.5 53.5t-23 78
t23.5 78t64.5 53t95 19q80 0 129 -40q6 -5 11 -10v58q0 60 -33 94t-91 34q-44 0 -75 -22t-43 -63h-57q9 41 33.5 71.5t61 47t80.5 16.5q83 0 131.5 -48.5t48.5 -132.5v-297h-53v47q-6 -7 -14 -14q-49 -42 -129 -42zM231 39q61 0 97.5 29t36.5 75q0 47 -36.5 74.5t-97.5 27.5
q-60 0 -96.5 -28t-36.5 -75t36.5 -75t96.5 -28z" />
    <glyph glyph-name="adieresis" unicode="&#xe4;" horiz-adv-x="484" 
d="M154 566q-17 0 -28.5 11t-11.5 29q0 17 11.5 28t28.5 11q18 0 29.5 -11t11.5 -28q0 -18 -11.5 -29t-29.5 -11zM325 566q-17 0 -28.5 11t-11.5 29q0 17 11.5 28t28.5 11q18 0 29 -11t11 -28q0 -18 -11 -29t-29 -11zM225 -9q-54 0 -95.5 19.5t-64.5 53.5t-23 78t23.5 78
t64.5 53t95 19q80 0 129 -40q6 -5 11 -10v58q0 60 -33 94t-91 34q-44 0 -75 -22t-43 -63h-57q9 41 33.5 71.5t61 47t80.5 16.5q83 0 131.5 -48.5t48.5 -132.5v-297h-53v47q-6 -7 -14 -14q-49 -42 -129 -42zM231 39q61 0 97.5 29t36.5 75q0 47 -36.5 74.5t-97.5 27.5
q-60 0 -96.5 -28t-36.5 -75t36.5 -75t96.5 -28z" />
    <glyph glyph-name="aring" unicode="&#xe5;" horiz-adv-x="484" 
d="M225 -9q-54 0 -95.5 19.5t-64.5 53.5t-23 78t23.5 78t64.5 53t95 19q80 0 129 -40q6 -5 11 -10v58q0 60 -33 94t-91 34q-44 0 -75 -22t-43 -63h-57q12 52 48 86q23 23 53 35q-9 9 -16 19q-17 26 -17 59q0 46 32 76.5t80 30.5q33 0 58 -14t40 -38.5t15 -54.5
q0 -33 -18 -59q-8 -12 -18 -21q39 -16 64 -50q34 -47 34 -115v-297h-53v47q-6 -7 -14 -14q-49 -42 -129 -42zM246 478q31 0 48.5 18t17.5 46t-17.5 45.5t-48.5 17.5q-29 0 -47 -17.5t-18 -45.5t18 -46t47 -18zM231 39q61 0 97.5 29t36.5 75q0 47 -36.5 74.5t-97.5 27.5
q-60 0 -96.5 -28t-36.5 -75t36.5 -75t96.5 -28z" />
    <glyph glyph-name="ae" unicode="&#xe6;" horiz-adv-x="870" 
d="M605 -9q-67 0 -121 33q-33 20 -58 48v-72h-53v53q-8 -10 -19 -20q-49 -42 -129 -42q-54 0 -95.5 19.5t-64.5 53.5t-23 78t23.5 78t64.5 53t95 19q80 0 129 -40q6 -5 11 -10v58q0 60 -33 94t-91 34q-44 0 -75 -21.5t-43 -63.5h-57q10 42 34.5 72.5t60.5 46.5t80 16
q81 0 129 -48q24 -25 36 -59q31 45 78 74q55 33 121 33t118 -29.5t82 -80t30 -113.5v-19h-414v-7q0 -51 25 -93.5t67 -68t92 -25.5q57 0 100.5 25.5t70.5 71.5h55q-19 -45 -52.5 -78t-77.5 -51.5t-96 -18.5zM779 282q-4 35 -22 64q-23 38 -62.5 60.5t-89.5 22.5t-92 -25.5
t-67 -67.5q-15 -26 -21 -54h354zM231 39q61 0 97.5 29t36.5 75q0 47 -36.5 74.5t-97.5 27.5q-60 0 -96.5 -28t-36.5 -75t36.5 -75t96.5 -28z" />
    <glyph glyph-name="ccedilla" unicode="&#xe7;" horiz-adv-x="558" 
d="M257 -137l6 129q-55 4 -102 32q-55 33 -87.5 88t-32.5 123t32.5 123t88 87.5t123.5 32.5q56 0 103.5 -22t81.5 -62t48 -94h-56q-22 59 -70 93.5t-107 34.5q-52 0 -95 -26t-68 -70t-25 -97q0 -54 25 -97.5t68 -69.5t95 -26q42 0 78.5 17t63.5 48t38 72h56q-13 -55 -47 -97
t-82 -66q-37 -19 -79 -23v-130h-56z" />
    <glyph glyph-name="egrave" unicode="&#xe8;" horiz-adv-x="549" 
d="M305 536h-51l-86 154h62zM281 -9q-66 0 -121 32.5t-87 88t-32 123.5q0 66 32 121.5t87 88.5t121 33q65 0 117 -29t82.5 -79.5t30.5 -114.5v-19h-414v-7q0 -52 25.5 -94.5t67.5 -67.5t91 -25q55 0 99 25t71 72h56q-19 -45 -52.5 -78t-77.5 -51.5t-96 -18.5zM455 282
q-4 36 -22 65q-24 38 -63.5 60t-88.5 22t-91 -25.5t-68 -67.5q-16 -25 -22 -54h355z" />
    <glyph glyph-name="eacute" unicode="&#xe9;" horiz-adv-x="549" 
d="M254 536l76 154h61l-86 -154h-51zM281 -9q-66 0 -121 32.5t-87 88t-32 123.5q0 66 32 121.5t87 88.5t121 33q65 0 117 -29t82.5 -79.5t30.5 -114.5v-19h-414v-7q0 -52 25.5 -94.5t67.5 -67.5t91 -25q55 0 99 25t71 72h56q-19 -45 -52.5 -78t-77.5 -51.5t-96 -18.5z
M455 282q-4 36 -22 65q-24 38 -63.5 60t-88.5 22t-91 -25.5t-68 -67.5q-16 -25 -22 -54h355z" />
    <glyph glyph-name="ecircumflex" unicode="&#xea;" horiz-adv-x="549" 
d="M309 690l111 -154h-59l-81 115l-82 -115h-58l111 154h58zM281 -9q-66 0 -121 32.5t-87 88t-32 123.5q0 66 32 121.5t87 88.5t121 33q65 0 117 -29t82.5 -79.5t30.5 -114.5v-19h-414v-7q0 -52 25.5 -94.5t67.5 -67.5t91 -25q55 0 99 25t71 72h56q-19 -45 -52.5 -78
t-77.5 -51.5t-96 -18.5zM455 282q-4 36 -22 65q-24 38 -63.5 60t-88.5 22t-91 -25.5t-68 -67.5q-16 -25 -22 -54h355z" />
    <glyph glyph-name="edieresis" unicode="&#xeb;" horiz-adv-x="549" 
d="M195 566q-18 0 -29.5 11t-11.5 29q0 17 11.5 28t29.5 11t29 -11t11 -28q0 -18 -11 -29t-29 -11zM366 566q-18 0 -29.5 11t-11.5 29q0 17 11.5 28t29.5 11t29 -11t11 -28q0 -18 -11 -29t-29 -11zM281 -9q-66 0 -121 32.5t-87 88t-32 123.5q0 66 32 121.5t87 88.5t121 33
q65 0 117 -29t82.5 -79.5t30.5 -114.5v-19h-414v-7q0 -52 25.5 -94.5t67.5 -67.5t91 -25q55 0 99 25t71 72h56q-19 -45 -52.5 -78t-77.5 -51.5t-96 -18.5zM455 282q-4 36 -22 65q-24 38 -63.5 60t-88.5 22t-91 -25.5t-68 -67.5q-16 -25 -22 -54h355z" />
    <glyph glyph-name="igrave" unicode="&#xec;" horiz-adv-x="186" 
d="M119 536h-51l-86 154h61zM65 470h56v-470h-56v470z" />
    <glyph glyph-name="iacute" unicode="&#xed;" horiz-adv-x="186" 
d="M68 536l76 154h61l-86 -154h-51zM65 470h56v-470h-56v470z" />
    <glyph glyph-name="icircumflex" unicode="&#xee;" horiz-adv-x="186" 
d="M123 690l111 -154h-59l-82 115l-81 -115h-58l111 154h58zM65 470h56v-470h-56v470z" />
    <glyph glyph-name="idieresis" unicode="&#xef;" horiz-adv-x="186" 
d="M9 566q-18 0 -29.5 11t-11.5 29q0 17 11.5 28t29.5 11t29 -11t11 -28q0 -18 -11 -29t-29 -11zM180 566q-18 0 -29.5 11t-11.5 29q0 17 11.5 28t29.5 11q17 0 28.5 -11t11.5 -28q0 -18 -11.5 -29t-28.5 -11zM65 470h56v-470h-56v470z" />
    <glyph glyph-name="eth" unicode="&#xf0;" horiz-adv-x="529" 
d="M264 -9q-62 0 -113 29t-80.5 78t-29.5 109t30 109t80.5 77.5t113.5 28.5q45 0 86 -19l-75 115l-142 -47v46l118 39l-61 94h60l50 -78l146 48v-46l-122 -40l110 -170q20 -31 31.5 -57t16.5 -49.5t5 -49.5q0 -60 -30 -109t-81 -78.5t-113 -29.5zM265 42q46 0 84 22.5
t60.5 60t22.5 82.5q0 46 -22.5 83.5t-60.5 60t-84 22.5t-84.5 -22.5t-61.5 -60t-23 -83.5t23 -83.5t61.5 -59.5t84.5 -22z" />
    <glyph glyph-name="ntilde" unicode="&#xf1;" horiz-adv-x="497" 
d="M107 536v70q0 41 19.5 64t53.5 23q24 0 41 -11.5t29 -28.5t22 -34t20 -28.5t23 -11.5q16 0 23 10.5t7 31.5v69h46v-69q0 -41 -19 -64.5t-54 -23.5q-24 0 -41 12t-29 28.5t-22 33.5t-20 29t-24 12q-29 0 -29 -42v-70h-46zM65 0v470h52v-59l12 14q49 53 130 53
q80 0 127.5 -51t47.5 -137v-290h-56v288q0 64 -35 102t-94 38q-58 0 -93 -38t-35 -102v-288h-56z" />
    <glyph glyph-name="ograve" unicode="&#xf2;" horiz-adv-x="573" 
d="M311 536h-51l-86 154h62zM286 -9q-68 0 -124 32.5t-88.5 88t-32.5 123.5t32.5 123t88.5 87.5t124 32.5q70 0 125.5 -32.5t88 -87.5t32.5 -123t-32.5 -123.5t-88 -88t-125.5 -32.5zM286 428q-52 0 -95 -26t-68.5 -70t-25.5 -97t25.5 -97t68.5 -70t95 -26q53 0 96 26
t68.5 70t25.5 97t-25.5 97t-68.5 70t-96 26z" />
    <glyph glyph-name="oacute" unicode="&#xf3;" horiz-adv-x="573" 
d="M260 536l76 154h62l-87 -154h-51zM286 -9q-68 0 -124 32.5t-88.5 88t-32.5 123.5t32.5 123t88.5 87.5t124 32.5q70 0 125.5 -32.5t88 -87.5t32.5 -123t-32.5 -123.5t-88 -88t-125.5 -32.5zM286 428q-52 0 -95 -26t-68.5 -70t-25.5 -97t25.5 -97t68.5 -70t95 -26
q53 0 96 26t68.5 70t25.5 97t-25.5 97t-68.5 70t-96 26z" />
    <glyph glyph-name="ocircumflex" unicode="&#xf4;" horiz-adv-x="573" 
d="M315 690l111 -154h-59l-81 115l-81 -115h-58l110 154h58zM286 -9q-68 0 -124 32.5t-88.5 88t-32.5 123.5t32.5 123t88.5 87.5t124 32.5q70 0 125.5 -32.5t88 -87.5t32.5 -123t-32.5 -123.5t-88 -88t-125.5 -32.5zM286 428q-52 0 -95 -26t-68.5 -70t-25.5 -97t25.5 -97
t68.5 -70t95 -26q53 0 96 26t68.5 70t25.5 97t-25.5 97t-68.5 70t-96 26z" />
    <glyph glyph-name="otilde" unicode="&#xf5;" horiz-adv-x="573" 
d="M144 536v70q0 41 19.5 64t53.5 23q25 0 41.5 -11.5t29 -28.5t22 -34t19.5 -28.5t24 -11.5q15 0 22.5 10.5t7.5 31.5v69h46v-69q0 -41 -19.5 -64.5t-53.5 -23.5q-25 0 -41.5 12t-28.5 28.5t-22 33.5t-20.5 29t-23.5 12q-30 0 -30 -42v-70h-46zM286 -9q-68 0 -124 32.5
t-88.5 88t-32.5 123.5t32.5 123t88.5 87.5t124 32.5q70 0 125.5 -32.5t88 -87.5t32.5 -123t-32.5 -123.5t-88 -88t-125.5 -32.5zM286 428q-52 0 -95 -26t-68.5 -70t-25.5 -97t25.5 -97t68.5 -70t95 -26q53 0 96 26t68.5 70t25.5 97t-25.5 97t-68.5 70t-96 26z" />
    <glyph glyph-name="odieresis" unicode="&#xf6;" horiz-adv-x="573" 
d="M202 566q-18 0 -29.5 11t-11.5 29q0 17 11.5 28t29.5 11t29 -11t11 -28q0 -18 -11 -29t-29 -11zM373 566q-18 0 -29.5 11t-11.5 29q0 17 11.5 28t29.5 11t29 -11t11 -28q0 -18 -11 -29t-29 -11zM286 -9q-68 0 -124 32.5t-88.5 88t-32.5 123.5t32.5 123t88.5 87.5
t124 32.5q70 0 125.5 -32.5t88 -87.5t32.5 -123t-32.5 -123.5t-88 -88t-125.5 -32.5zM286 428q-52 0 -95 -26t-68.5 -70t-25.5 -97t25.5 -97t68.5 -70t96 -26q52 0 95 26t68.5 70t25.5 97t-25.5 97t-68.5 70t-96 26z" />
    <glyph glyph-name="divide" unicode="&#xf7;" horiz-adv-x="469" 
d="M235 468q-18 0 -29.5 11t-11.5 29q0 17 11.5 28t29.5 11t29 -11t11 -28q0 -18 -11 -29t-29 -11zM48 342h373v-46h-373v46zM235 91q-18 0 -29.5 11t-11.5 28q0 18 11.5 29t29.5 11t29 -11t11 -29q0 -17 -11 -28t-29 -11z" />
    <glyph glyph-name="oslash" unicode="&#xf8;" horiz-adv-x="583" 
d="M291 -9q-68 0 -124 33q-13 8 -25 17l-39 -41h-69l71 75q-15 17 -27 37q-32 55 -32 123t32.5 123t88.5 87.5t124 32.5q70 0 125 -32q13 -8 25 -17l39 41h68l-70 -75q15 -17 26 -37q33 -55 33 -123t-32.5 -123.5t-88 -88t-125.5 -32.5zM291 428q-52 0 -95 -26t-68.5 -70
t-25.5 -97t25 -97q7 -12 16 -23l261 275q-8 6 -17 12q-43 26 -96 26zM179 80q8 -6 17 -12q43 -26 95 -26q53 0 96 26t68.5 70t25.5 97t-25 97q-8 12 -16 23z" />
    <glyph glyph-name="ugrave" unicode="&#xf9;" horiz-adv-x="487" 
d="M269 536h-51l-86 154h61zM63 470h56v-293q0 -62 33.5 -98.5t90.5 -36.5q58 0 91.5 36.5t33.5 98.5v293h56v-290q0 -88 -49 -138.5t-132 -50.5q-82 0 -131 50.5t-49 138.5v290z" />
    <glyph glyph-name="uacute" unicode="&#xfa;" horiz-adv-x="487" 
d="M218 536l76 154h61l-86 -154h-51zM63 470h56v-293q0 -62 33.5 -98.5t90.5 -36.5q58 0 91.5 36.5t33.5 98.5v293h56v-290q0 -88 -49 -138.5t-132 -50.5q-82 0 -131 50.5t-49 138.5v290z" />
    <glyph glyph-name="ucircumflex" unicode="&#xfb;" horiz-adv-x="487" 
d="M272 690l111 -154h-59l-81 115l-81 -115h-58l110 154h58zM63 470h56v-293q0 -62 33.5 -98.5t90.5 -36.5q58 0 91.5 36.5t33.5 98.5v293h56v-290q0 -88 -49 -138.5t-132 -50.5q-82 0 -131 50.5t-49 138.5v290z" />
    <glyph glyph-name="udieresis" unicode="&#xfc;" horiz-adv-x="487" 
d="M158 566q-17 0 -28.5 11t-11.5 29q0 17 11.5 28t28.5 11q18 0 29 -11t11 -28q0 -18 -11 -29t-29 -11zM329 566q-18 0 -29 11t-11 29q0 17 11 28t29 11t29 -11t11 -28q0 -18 -11 -29t-29 -11zM63 470h56v-293q0 -62 33.5 -98.5t90.5 -36.5q58 0 91.5 36.5t33.5 98.5v293
h56v-290q0 -88 -49 -138.5t-132 -50.5q-82 0 -131 50.5t-49 138.5v290z" />
    <glyph glyph-name="yacute" unicode="&#xfd;" horiz-adv-x="479" 
d="M244 536l76 154h62l-87 -154h-51zM46 252q0 51 7.5 105.5t22.5 112.5h57q-17 -69 -24 -119.5t-7 -98.5q0 -97 51 -150q48 -49 125 -53l119 421h57l-174 -620h-59l42 148q-56 5 -100 29q-56 30 -86.5 87t-30.5 138z" />
    <glyph glyph-name="thorn" unicode="&#xfe;" horiz-adv-x="532" 
d="M65 -150v800h56v-180h106q78 0 137.5 -31t93 -86.5t33.5 -128.5q0 -69 -29 -121.5t-80 -82t-114 -29.5q-58 0 -107 27q-22 12 -40 28v-196h-56zM121 105q27 -28 57 -43q39 -20 83 -20q49 0 88.5 22t62.5 63t23 97q0 58 -26 102t-73 69t-109 25h-106v-315z" />
    <glyph glyph-name="ydieresis" unicode="&#xff;" horiz-adv-x="479" 
d="M186 566q-17 0 -28.5 11t-11.5 29q0 17 11.5 28t28.5 11q18 0 29.5 -11t11.5 -28q0 -18 -11.5 -29t-29.5 -11zM357 566q-17 0 -28.5 11t-11.5 29q0 17 11.5 28t28.5 11q18 0 29 -11t11 -28q0 -18 -11 -29t-29 -11zM46 252q0 51 7.5 105.5t22.5 112.5h57
q-17 -69 -24 -119.5t-7 -98.5q0 -97 51 -150q48 -49 125 -53l119 421h57l-174 -620h-59l42 148q-56 5 -100 29q-56 30 -86.5 87t-30.5 138z" />
    <glyph glyph-name="Amacron" unicode="&#x100;" 
d="M150 808h243v-51h-243v51zM70 0v454q0 60 25.5 106t71.5 72.5t105 26.5q60 0 105.5 -26.5t71 -72.5t25.5 -106v-454h-57v26q0 108 -68.5 171t-195.5 63h-26v-260h-57zM127 314h13q130 0 209 -50q43 -28 68 -66v256q0 44 -18.5 77.5t-51 52.5t-75.5 19q-42 0 -75 -19
t-51.5 -52.5t-18.5 -77.5v-140z" />
    <glyph glyph-name="amacron" unicode="&#x101;" horiz-adv-x="484" 
d="M115 628h243v-50h-243v50zM225 -9q-54 0 -95.5 19.5t-64.5 53.5t-23 78t23.5 78t64.5 53t95 19q80 0 129 -40q6 -5 11 -10v58q0 60 -33 94t-91 34q-44 0 -75 -22t-43 -63h-57q9 41 33.5 71.5t61 47t80.5 16.5q83 0 131.5 -48.5t48.5 -132.5v-297h-53v47q-6 -7 -14 -14
q-49 -42 -129 -42zM231 39q61 0 97.5 29t36.5 75q0 47 -36.5 74.5t-97.5 27.5q-60 0 -96.5 -28t-36.5 -75t36.5 -75t96.5 -28z" />
    <glyph glyph-name="Abreve" unicode="&#x102;" 
d="M272 758q42 0 66 22t24 64v24h47v-24q0 -64 -37 -97.5t-100 -33.5q-64 0 -100.5 33.5t-36.5 97.5v24h46v-24q0 -42 24 -64t67 -22zM70 0v454q0 60 25.5 106t71.5 72.5t105 26.5q60 0 105.5 -26.5t71 -72.5t25.5 -106v-454h-57v26q0 108 -68.5 171t-195.5 63h-26v-260h-57
zM127 314h13q130 0 209 -50q43 -28 68 -66v256q0 44 -18.5 77.5t-51 52.5t-75.5 19q-42 0 -75 -19t-51.5 -52.5t-18.5 -77.5v-140z" />
    <glyph glyph-name="abreve" unicode="&#x103;" horiz-adv-x="484" 
d="M236 579q42 0 66.5 22t24.5 63v24h46v-24q0 -63 -37 -97t-100 -34t-100 34t-37 97v24h46v-24q0 -41 24 -63t67 -22zM225 -9q-54 0 -95.5 19.5t-64.5 53.5t-23 78t23.5 78t64.5 53t95 19q80 0 129 -40q6 -5 11 -10v58q0 60 -33 94t-91 34q-44 0 -75 -22t-43 -63h-57
q9 41 33.5 71.5t61 47t80.5 16.5q83 0 131.5 -48.5t48.5 -132.5v-297h-53v47q-6 -7 -14 -14q-49 -42 -129 -42zM231 39q61 0 97.5 29t36.5 75q0 47 -36.5 74.5t-97.5 27.5q-60 0 -96.5 -28t-36.5 -75t36.5 -75t96.5 -28z" />
    <glyph glyph-name="Aogonek" unicode="&#x104;" 
d="M70 0v454q0 60 25.5 106t71.5 72.5t105 26.5q60 0 105.5 -26.5t71 -72.5t25.5 -106v-454q-41 -19 -60 -39.5t-19 -42.5q0 -18 12.5 -28t34.5 -10h32v-43h-35q-42 0 -67.5 21t-25.5 56q0 21 10.5 39.5t31.5 35.5q13 10 29 19v18q0 108 -68.5 171t-195.5 63h-26v-260h-57z
M127 314h13q130 0 209 -50q43 -28 68 -66v256q0 44 -18.5 77.5t-51 52.5t-75.5 19q-42 0 -75 -19t-51.5 -52.5t-18.5 -77.5v-140z" />
    <glyph glyph-name="aogonek" unicode="&#x105;" horiz-adv-x="484" 
d="M225 -9q-54 0 -95.5 19.5t-64.5 53.5t-23 78t23.5 78t64.5 53t95 19q80 0 129 -40q6 -5 11 -10v58q0 60 -33 94t-91 34q-43 0 -74.5 -22t-43.5 -63h-57q9 41 33.5 71.5t61 47t80.5 16.5q83 0 131.5 -48.5t48.5 -132.5v-297q-40 -19 -60 -39t-20 -43q0 -18 12.5 -28
t34.5 -10h33v-43h-35q-43 0 -68.5 21t-25.5 56q0 31 24 58q19 21 52 39v36q-6 -7 -14 -14q-49 -42 -129 -42zM231 39q61 0 97.5 29t36.5 75q0 47 -36.5 74.5t-97.5 27.5q-60 0 -96.5 -28t-36.5 -75t36.5 -75t96.5 -28z" />
    <glyph glyph-name="Cacute" unicode="&#x106;" horiz-adv-x="743" 
d="M349 716l76 154h61l-86 -154h-51zM646 266h59q-13 -79 -60 -141t-116.5 -98t-151.5 -36q-69 0 -129.5 26t-106.5 71.5t-72 106t-26 130.5t26 130t72 106t106.5 72t129.5 26q77 0 143.5 -32.5t113.5 -88.5t66 -128h-60q-18 57 -57 101t-92 69t-114 25q-57 0 -107 -21.5
t-87.5 -60t-59.5 -89.5t-22 -109t22 -109t59.5 -89.5t87.5 -60t107 -21.5q65 0 121.5 28.5t95.5 79t52 113.5z" />
    <glyph glyph-name="cacute" unicode="&#x107;" horiz-adv-x="558" 
d="M254 536l76 154h62l-87 -154h-51zM465 179h56q-13 -55 -47.5 -97.5t-83 -66.5t-105.5 -24q-68 0 -123.5 32.5t-88 88t-32.5 123.5t32.5 123t88 87.5t123.5 32.5q56 0 103 -22t81.5 -62t48.5 -94h-56q-21 58 -69 93t-108 35q-52 0 -94.5 -26t-68 -69.5t-25.5 -97.5
t25.5 -97.5t68 -69.5t94.5 -26q42 0 78.5 17.5t63.5 48.5t38 71z" />
    <glyph glyph-name="Ccircumflex" unicode="&#x108;" horiz-adv-x="743" 
d="M404 870l111 -154h-59l-82 115l-81 -115h-58l111 154h58zM646 266h59q-13 -79 -60 -141t-116.5 -98t-151.5 -36q-69 0 -129.5 26t-106.5 71.5t-72 106t-26 130.5t26 130t72 106t106.5 72t129.5 26q77 0 143.5 -32.5t113.5 -88.5t66 -128h-60q-18 57 -57 101t-92 69
t-114 25q-57 0 -107 -21.5t-87.5 -60t-59.5 -89.5t-22 -109t22 -109t59.5 -89.5t87.5 -60t107 -21.5q65 0 121.5 28.5t95.5 79t52 113.5z" />
    <glyph glyph-name="ccircumflex" unicode="&#x109;" horiz-adv-x="558" 
d="M309 690l111 -154h-58l-82 115l-81 -115h-58l110 154h58zM465 179h56q-13 -55 -47.5 -97.5t-83 -66.5t-105.5 -24q-68 0 -123.5 32.5t-88 88t-32.5 123.5t32.5 123t88 87.5t123.5 32.5q56 0 103 -22t81.5 -62t48.5 -94h-56q-21 58 -69 93t-108 35q-52 0 -94.5 -26
t-68 -69.5t-25.5 -97.5t25.5 -97.5t68 -69.5t94.5 -26q42 0 78.5 17.5t63.5 48.5t38 71z" />
    <glyph glyph-name="Cdotaccent" unicode="&#x10a;" horiz-adv-x="743" 
d="M375 746q-20 0 -33 12.5t-13 32.5t13 32.5t33 12.5t33 -12.5t13 -32.5t-13 -32.5t-33 -12.5zM646 266h59q-13 -79 -60 -141t-116.5 -98t-151.5 -36q-69 0 -129.5 26t-106.5 71.5t-72 106t-26 130.5t26 130t72 106t106.5 72t129.5 26q77 0 143.5 -32.5t113.5 -88.5
t66 -128h-60q-18 57 -57 101t-92 69t-114 25q-57 0 -107 -21.5t-87.5 -60t-59.5 -89.5t-22 -109t22 -109t59.5 -89.5t87.5 -60t107 -21.5q65 0 121.5 28.5t95.5 79t52 113.5z" />
    <glyph glyph-name="cdotaccent" unicode="&#x10b;" horiz-adv-x="558" 
d="M282 566q-20 0 -33 13t-13 33q0 19 13 32t33 13q21 0 33.5 -13t12.5 -32q0 -20 -12.5 -33t-33.5 -13zM465 179h56q-13 -55 -47.5 -97.5t-83 -66.5t-105.5 -24q-68 0 -123.5 32.5t-88 88t-32.5 123.5t32.5 123t88 87.5t123.5 32.5q56 0 103 -22t81.5 -62t48.5 -94h-56
q-21 58 -69 93t-108 35q-52 0 -94.5 -26t-68 -69.5t-25.5 -97.5t25.5 -97.5t68 -69.5t94.5 -26q42 0 78.5 17.5t63.5 48.5t38 71z" />
    <glyph glyph-name="Ccaron" unicode="&#x10c;" horiz-adv-x="743" 
d="M346 716l-111 154h59l82 -115l81 115h58l-110 -154h-59zM646 266h59q-13 -79 -60 -141t-116.5 -98t-151.5 -36q-69 0 -129.5 26t-106.5 71.5t-72 106t-26 130.5t26 130t72 106t106.5 72t129.5 26q77 0 143.5 -32.5t113.5 -88.5t66 -128h-60q-18 57 -57 101t-92 69
t-114 25q-57 0 -107 -21.5t-87.5 -60t-59.5 -89.5t-22 -109t22 -109t59.5 -89.5t87.5 -60t107 -21.5q65 0 121.5 28.5t95.5 79t52 113.5z" />
    <glyph glyph-name="ccaron" unicode="&#x10d;" horiz-adv-x="558" 
d="M252 536l-111 154h59l81 -115l81 115h58l-110 -154h-58zM465 179h56q-13 -55 -47.5 -97.5t-83 -66.5t-105.5 -24q-68 0 -123.5 32.5t-88 88t-32.5 123.5t32.5 123t88 87.5t123.5 32.5q56 0 103 -22t81.5 -62t48.5 -94h-56q-21 58 -69 93t-108 35q-52 0 -94.5 -26
t-68 -69.5t-25.5 -97.5t25.5 -97.5t68 -69.5t94.5 -26q42 0 78.5 17.5t63.5 48.5t38 71z" />
    <glyph glyph-name="Dcaron" unicode="&#x10e;" horiz-adv-x="535" 
d="M222 716l-111 154h59l81 -115l81 115h58l-110 -154h-58zM79 0v650h60q106 0 185 -42t123.5 -115t44.5 -168q0 -94 -44.5 -167.5t-123.5 -115.5t-185 -42h-60zM136 54h14q84 0 147.5 35.5t100 96.5t36.5 139t-36.5 139.5t-100 97t-147.5 35.5h-14v-543z" />
    <glyph glyph-name="dcaron" unicode="&#x10f;" horiz-adv-x="650" 
d="M467 0h-162q-77 0 -137 31t-93.5 86t-33.5 128q0 68 29 120.5t79.5 82.5t115.5 30q57 0 106 -24q22 -10 40 -24v220h56v-650zM562 457v193h56l-10 -193h-46zM411 50v322q-24 22 -56 37q-41 19 -83 19q-51 0 -90.5 -23.5t-62 -65t-22.5 -96.5q0 -56 26 -99.5t72.5 -68.5
t107.5 -25h108z" />
    <glyph glyph-name="Dcroat" unicode="&#x110;" horiz-adv-x="549" 
d="M93 0v298h-84v53h84v299h60q106 0 185 -42t123.5 -115t44.5 -168q0 -94 -44.5 -167.5t-123.5 -115.5t-185 -42h-60zM282 298h-132v-244h14q84 0 147.5 35.5t100 96.5t36.5 139t-36.5 139.5t-100 97t-147.5 35.5h-14v-246h132v-53z" />
    <glyph glyph-name="dcroat" unicode="&#x111;" horiz-adv-x="538" 
d="M279 576h132v74h56v-74h95v-47h-95v-529h-162q-77 0 -137 29.5t-93.5 82.5t-33.5 123q0 65 29 115.5t79.5 79t115.5 28.5q57 0 106 -24q22 -10 40 -24v119h-132v47zM411 50v303q-24 22 -56 36q-41 19 -83 19q-51 0 -90.5 -22t-62 -61.5t-22.5 -91.5q0 -53 26 -94.5
t72.5 -65t107.5 -23.5h108z" />
    <glyph glyph-name="Emacron" unicode="&#x112;" horiz-adv-x="452" 
d="M120 808h243v-51h-243v51zM79 0v650h331v-53h-274v-348q31 48 84 76q61 32 145 32h13v-53h-13q-107 0 -168 -58t-61 -159v-33h274v-54h-331z" />
    <glyph glyph-name="emacron" unicode="&#x113;" horiz-adv-x="549" 
d="M159 628h243v-50h-243v50zM281 -9q-66 0 -121 32.5t-87 88t-32 123.5q0 66 32 121.5t87 88.5t121 33q65 0 117 -29t82.5 -79.5t30.5 -114.5v-19h-414v-7q0 -52 25.5 -94.5t67.5 -67.5t91 -25q55 0 99 25t71 72h56q-19 -45 -52.5 -78t-77.5 -51.5t-96 -18.5zM455 282
q-4 36 -22 65q-24 38 -63.5 60t-88.5 22t-91 -25.5t-68 -67.5q-16 -25 -22 -54h355z" />
    <glyph glyph-name="Ebreve" unicode="&#x114;" horiz-adv-x="452" 
d="M242 758q42 0 66 22t24 64v24h47v-24q0 -64 -37 -97.5t-100 -33.5q-64 0 -100.5 33.5t-36.5 97.5v24h46v-24q0 -42 24 -64t67 -22zM79 0v650h331v-53h-274v-348q31 48 84 76q61 32 145 32h13v-53h-13q-107 0 -168 -58t-61 -159v-33h274v-54h-331z" />
    <glyph glyph-name="ebreve" unicode="&#x115;" horiz-adv-x="549" 
d="M280 579q42 0 66.5 22t24.5 63v24h46v-24q0 -63 -37 -97t-100 -34t-100 34t-37 97v24h47v-24q0 -41 23.5 -63t66.5 -22zM281 -9q-66 0 -121 32.5t-87 88t-32 123.5q0 66 32 121.5t87 88.5t121 33q65 0 117 -29t82.5 -79.5t30.5 -114.5v-19h-414v-7q0 -52 25.5 -94.5
t67.5 -67.5t91 -25q55 0 99 25t71 72h56q-19 -45 -52.5 -78t-77.5 -51.5t-96 -18.5zM455 282q-4 36 -22 65q-24 38 -63.5 60t-88.5 22t-91 -25.5t-68 -67.5q-16 -25 -22 -54h355z" />
    <glyph glyph-name="Edotaccent" unicode="&#x116;" horiz-adv-x="452" 
d="M242 746q-21 0 -33.5 12.5t-12.5 32.5t12.5 32.5t33.5 12.5q20 0 33 -12.5t13 -32.5t-13 -32.5t-33 -12.5zM79 0v650h331v-53h-274v-348q31 48 84 76q61 32 145 32h13v-53h-13q-107 0 -168 -58t-61 -159v-33h274v-54h-331z" />
    <glyph glyph-name="edotaccent" unicode="&#x117;" horiz-adv-x="549" 
d="M280 566q-20 0 -33 13t-13 33q0 19 13 32t33 13q21 0 33.5 -13t12.5 -32q0 -20 -12.5 -33t-33.5 -13zM281 -9q-66 0 -121 32.5t-87 88t-32 123.5q0 66 32 121.5t87 88.5t121 33q65 0 117 -29t82.5 -79.5t30.5 -114.5v-19h-414v-7q0 -52 25.5 -94.5t67.5 -67.5t91 -25
q55 0 99 25t71 72h56q-19 -45 -52.5 -78t-77.5 -51.5t-96 -18.5zM455 282q-4 36 -22 65q-24 38 -63.5 60t-88.5 22t-91 -25.5t-68 -67.5q-16 -25 -22 -54h355z" />
    <glyph glyph-name="Eogonek" unicode="&#x118;" horiz-adv-x="452" 
d="M79 0v650h331v-53h-274v-348q31 48 84 76q61 32 145 32h13v-53h-13q-107 0 -168 -58t-61 -159v-33h274v-54q-41 -19 -60.5 -39.5t-19.5 -42.5q0 -18 12.5 -28t35.5 -10h32v-43h-35q-42 0 -68 21t-26 56q0 21 10.5 39.5t32.5 35.5q7 6 15 11h-260z" />
    <glyph glyph-name="eogonek" unicode="&#x119;" horiz-adv-x="549" 
d="M348 -163h-35q-43 0 -68.5 22t-25.5 58q0 19 9 37.5t30 35.5q2 1 3 2q-55 4 -101 32q-55 32 -87 87.5t-32 123.5q0 66 32 121.5t87 88.5t121 33q65 0 117 -29t82.5 -79.5t30.5 -114.5v-19h-414v-7q0 -52 25.5 -94.5t67.5 -67.5t91 -25q55 0 99 25t71 72h56
q-18 -42 -43 -68.5t-53.5 -43t-59.5 -27.5q-44 -16 -63.5 -35.5t-19.5 -40.5t12.5 -32.5t34.5 -11.5h33v-43zM455 282q-4 36 -22 65q-24 38 -63.5 60t-88.5 22t-91 -25.5t-68 -67.5q-16 -25 -22 -54h355z" />
    <glyph glyph-name="Ecaron" unicode="&#x11a;" horiz-adv-x="452" 
d="M219 716l-111 154h58l82 -115l81 115h58l-110 -154h-58zM79 0v650h331v-53h-274v-348q31 48 84 76q61 32 145 32h13v-53h-13q-107 0 -168 -58t-61 -159v-33h274v-54h-331z" />
    <glyph glyph-name="ecaron" unicode="&#x11b;" horiz-adv-x="549" 
d="M251 536l-111 154h59l82 -115l81 115h58l-110 -154h-59zM281 -9q-66 0 -121 32.5t-87 88t-32 123.5q0 66 32 121.5t87 88.5t121 33q65 0 117 -29t82.5 -79.5t30.5 -114.5v-19h-414v-7q0 -52 25.5 -94.5t67.5 -67.5t91 -25q55 0 99 25t71 72h56q-19 -45 -52.5 -78
t-77.5 -51.5t-96 -18.5zM455 282q-4 36 -22 65q-24 38 -63.5 60t-88.5 22t-91 -25.5t-68 -67.5q-16 -25 -22 -54h355z" />
    <glyph glyph-name="Gcircumflex" unicode="&#x11c;" horiz-adv-x="763" 
d="M409 870l111 -154h-59l-82 115l-81 -115h-58l111 154h58zM653 0v156q-12 -22 -27 -41q-45 -58 -108.5 -91t-140.5 -33q-69 0 -129.5 25.5t-106.5 71.5t-72 106.5t-26 130.5t26 130t72 106t106.5 72t129.5 26q78 0 144.5 -32t113.5 -88t65 -129h-60q-18 58 -57.5 101.5
t-92 68.5t-113.5 25q-57 0 -106.5 -21.5t-87.5 -60t-60 -89.5t-22 -109t22 -108.5t60 -89.5t87.5 -60.5t106.5 -21.5q67 0 123 29t95 78.5t53 113.5h58v-266h-53z" />
    <glyph glyph-name="gcircumflex" unicode="&#x11d;" horiz-adv-x="491" 
d="M267 690l111 -155h-59l-82 116l-81 -116h-58l110 155h59zM234 89q-58 0 -105 25.5t-74 70t-27 99.5t27.5 99t74.5 69.5t105 25.5q33 0 64 -8h181v-47l-112 2q28 -18 46 -46q27 -42 27 -95q0 -55 -28 -99q-24 -38 -62 -62q17 -4 31 -11q38 -17 58.5 -48t20.5 -73
q0 -41 -20 -73t-57 -50t-89 -18h-241v52h241q49 0 79 25.5t30 68.5t-29.5 68t-79.5 25h-61zM387 284q0 42 -20.5 75.5t-54.5 52.5t-77 19q-42 0 -76.5 -19t-55 -52.5t-20.5 -75.5q0 -41 20.5 -74.5t55 -53t76.5 -19.5t76.5 20t55 53.5t20.5 73.5z" />
    <glyph glyph-name="Gbreve" unicode="&#x11e;" horiz-adv-x="763" 
d="M380 758q42 0 66 22t24 64v24h47v-24q0 -64 -37 -97.5t-100 -33.5q-64 0 -100.5 33.5t-36.5 97.5v24h46v-24q0 -42 24 -64t67 -22zM653 0v156q-12 -22 -27 -41q-45 -58 -108.5 -91t-140.5 -33q-69 0 -129.5 25.5t-106.5 71.5t-72 106.5t-26 130.5t26 130t72 106t106.5 72
t129.5 26q78 0 144.5 -32t113.5 -88t65 -129h-60q-18 58 -57.5 101.5t-92 68.5t-113.5 25q-57 0 -106.5 -21.5t-87.5 -60t-60 -89.5t-22 -109t22 -108.5t60 -89.5t87.5 -60.5t106.5 -21.5q67 0 123 29t95 78.5t53 113.5h58v-266h-53z" />
    <glyph glyph-name="gbreve" unicode="&#x11f;" horiz-adv-x="491" 
d="M237 578q42 0 66 22t24 64v24h47v-24q0 -63 -37 -97t-100 -34q-64 0 -100.5 34t-36.5 97v24h46v-24q0 -42 24 -64t67 -22zM234 89q-58 0 -105 25.5t-74 70t-27 99.5t27.5 99t74.5 69.5t105 25.5q33 0 64 -8h181v-47l-112 2q28 -18 46 -46q27 -42 27 -95q0 -55 -28 -99
q-24 -38 -62 -62q17 -4 31 -11q38 -17 58.5 -48t20.5 -73q0 -41 -20 -73t-57 -50t-89 -18h-241v52h241q49 0 79 25.5t30 68.5t-29.5 68t-79.5 25h-61zM387 284q0 42 -20.5 75.5t-54.5 52.5t-77 19q-42 0 -76.5 -19t-55 -52.5t-20.5 -75.5q0 -41 20.5 -74.5t55 -53
t76.5 -19.5t76.5 20t55 53.5t20.5 73.5z" />
    <glyph glyph-name="Gdotaccent" unicode="&#x120;" horiz-adv-x="763" 
d="M381 746q-20 0 -33 12.5t-13 32.5t13 32.5t33 12.5q21 0 33.5 -12.5t12.5 -32.5t-12.5 -32.5t-33.5 -12.5zM653 0v156q-12 -22 -27 -41q-45 -58 -108.5 -91t-140.5 -33q-69 0 -129.5 25.5t-106.5 71.5t-72 106.5t-26 130.5t26 130t72 106t106.5 72t129.5 26
q78 0 144.5 -32t113.5 -88t65 -129h-60q-18 58 -57.5 101.5t-92 68.5t-113.5 25q-57 0 -106.5 -21.5t-87.5 -60t-60 -89.5t-22 -109t22 -108.5t60 -89.5t87.5 -60.5t106.5 -21.5q67 0 123 29t95 78.5t53 113.5h58v-266h-53z" />
    <glyph glyph-name="gdotaccent" unicode="&#x121;" horiz-adv-x="491" 
d="M236 566q-21 0 -33.5 13t-12.5 33q0 19 12.5 32t33.5 13q20 0 33 -13t13 -32q0 -20 -13 -33t-33 -13zM234 89q-58 0 -105 25.5t-74 70t-27 99.5t27.5 99t74.5 69.5t105 25.5q33 0 64 -8h181v-47l-112 2q28 -18 46 -46q27 -42 27 -95q0 -55 -28 -99q-24 -38 -62 -62
q17 -4 31 -11q38 -17 58.5 -48t20.5 -73q0 -41 -20 -73t-57 -50t-89 -18h-241v52h241q49 0 79 25.5t30 68.5t-29.5 68t-79.5 25h-61zM387 284q0 42 -20.5 75.5t-54.5 52.5t-77 19q-42 0 -76.5 -19t-55 -52.5t-20.5 -75.5q0 -41 20.5 -74.5t55 -53t76.5 -19.5t76.5 20
t55 53.5t20.5 73.5z" />
    <glyph glyph-name="uni0122" unicode="&#x122;" horiz-adv-x="763" 
d="M653 0v156q-12 -22 -27 -41q-45 -58 -108.5 -91t-140.5 -33q-69 0 -129.5 25.5t-106.5 71.5t-72 106.5t-26 130.5t26 130t72 106t106.5 72t129.5 26q78 0 144.5 -32t113.5 -88t65 -129h-60q-18 58 -57.5 101.5t-92 68.5t-113.5 25q-57 0 -106.5 -21.5t-87.5 -60
t-60 -89.5t-22 -109t22 -108.5t60 -89.5t87.5 -60.5t106.5 -21.5q67 0 123 29t95 78.5t53 113.5h58v-266h-53zM342 -218q17 34 27 61q2 8 4 15q-12 2 -21 10q-11 11 -11 28t11.5 28.5t28.5 11.5q18 0 29.5 -12t11.5 -31t-10 -47.5t-30 -63.5h-40z" />
    <glyph glyph-name="uni0123" unicode="&#x123;" horiz-adv-x="491" 
d="M273 705q-17 -33 -26 -61q-3 -7 -5 -14q12 -2 21 -10q11 -11 11 -29q0 -17 -11 -28t-29 -11q-17 0 -28.5 11.5t-11.5 30.5q0 20 10 48.5t29 62.5h40zM234 89q-58 0 -105 25.5t-74 70t-27 99.5t27.5 99t74.5 69.5t105 25.5q33 0 64 -8h181v-47l-112 2q28 -18 46 -46
q27 -42 27 -95q0 -55 -28 -99q-24 -38 -62 -62q17 -4 31 -11q38 -17 58.5 -48t20.5 -73q0 -41 -20 -73t-57 -50t-89 -18h-241v52h241q49 0 79 25.5t30 68.5t-29.5 68t-79.5 25h-61zM387 284q0 42 -20.5 75.5t-54.5 52.5t-77 19q-42 0 -76.5 -19t-55 -52.5t-20.5 -75.5
q0 -41 20.5 -74.5t55 -53t76.5 -19.5t76.5 20t55 53.5t20.5 73.5z" />
    <glyph glyph-name="Hcircumflex" unicode="&#x124;" horiz-adv-x="571" 
d="M315 870l111 -154h-59l-82 115l-81 -115h-58l110 154h59zM79 0v650h57v-430q10 18 22 35q44 58 116 90q71 31 162 32v273h57v-650h-57v323h-10q-88 0 -153.5 -36t-101 -101t-35.5 -153v-33h-57z" />
    <glyph glyph-name="hcircumflex" unicode="&#x125;" horiz-adv-x="497" 
d="M244 870l111 -154h-59l-82 115l-81 -115h-58l110 154h59zM65 0v650h56v-235l8 10q49 53 130 53q80 0 127.5 -51t47.5 -137v-290h-56v288q0 64 -35 102t-94 38q-58 0 -93 -38t-35 -102v-288h-56z" />
    <glyph glyph-name="Hbar" unicode="&#x126;" horiz-adv-x="598" 
d="M92 0v481h-91v52h91v117h57v-117h300v117h57v-117h90v-52h-90v-481h-57v323h-10q-88 0 -153 -35.5t-101 -101t-36 -153.5v-33h-57zM149 220q10 18 22 35q44 58 116 90q71 31 162 32v104h-300v-261z" />
    <glyph glyph-name="hbar" unicode="&#x127;" horiz-adv-x="497" 
d="M-24 580h89v70h56v-70h138v-48h-138v-137l8 10q49 53 130 53q80 0 127.5 -51t47.5 -137v-270h-56v268q0 64 -35 102t-94 38q-58 0 -93 -38t-35 -102v-268h-56v532h-89v48z" />
    <glyph glyph-name="Itilde" unicode="&#x128;" horiz-adv-x="214" 
d="M-35 716v69q0 42 19.5 65t53.5 23q24 0 41 -12t29.5 -28.5t22 -33.5t19.5 -29t24 -12q15 0 22 11t7 31v70h46v-70q0 -41 -19 -64t-54 -23q-24 0 -41 11.5t-29 28.5t-22 34t-20 29t-23 12q-30 0 -30 -43v-69h-46zM136 0h-57v650h57v-650z" />
    <glyph glyph-name="itilde" unicode="&#x129;" horiz-adv-x="186" 
d="M-48 536v70q0 41 19.5 64t53.5 23q24 0 41 -11.5t29 -28.5t22 -34t20 -28.5t24 -11.5q15 0 22 10.5t7 31.5v69h46v-69q0 -41 -19 -64.5t-54 -23.5q-24 0 -41 12t-29 28.5t-22 33.5t-20 29t-23 12q-30 0 -30 -42v-70h-46zM65 470h56v-470h-56v470z" />
    <glyph glyph-name="Imacron" unicode="&#x12a;" horiz-adv-x="214" 
d="M-14 808h243v-51h-243v51zM136 0h-57v650h57v-650z" />
    <glyph glyph-name="imacron" unicode="&#x12b;" horiz-adv-x="186" 
d="M-28 635h243v-50h-243v50zM65 470h56v-470h-56v470z" />
    <glyph glyph-name="Ibreve" unicode="&#x12c;" horiz-adv-x="214" 
d="M107 758q42 0 66.5 22t24.5 64v24h46v-24q0 -64 -37 -97.5t-100 -33.5t-100 33.5t-37 97.5v24h47v-24q0 -42 23.5 -64t66.5 -22zM136 0h-57v650h57v-650z" />
    <glyph glyph-name="ibreve" unicode="&#x12d;" horiz-adv-x="186" 
d="M94 579q42 0 66.5 22t24.5 63v24h46v-24q0 -63 -37 -97t-100 -34t-100 34t-37 97v24h46v-24q0 -41 24 -63t67 -22zM65 470h56v-470h-56v470z" />
    <glyph glyph-name="Iogonek" unicode="&#x12e;" horiz-adv-x="214" 
d="M136 -163h-35q-43 0 -68.5 21t-25.5 56q0 21 10.5 39.5t31.5 35.5q13 10 30 19v642h57v-650q-42 -19 -61 -39.5t-19 -42.5q0 -18 12.5 -28t34.5 -10h33v-43z" />
    <glyph glyph-name="iogonek" unicode="&#x12f;" horiz-adv-x="186" 
d="M93 558q-18 0 -29 11t-11 29q0 17 11 28t29 11t29 -11t11 -28q0 -18 -11 -29t-29 -11zM121 -163h-35q-43 0 -68.5 21t-25.5 56q0 21 10.5 39.5t31.5 35.5q13 11 31 20v461h56v-470q-42 -19 -61 -39.5t-19 -42.5q0 -18 12.5 -28t34.5 -10h33v-43z" />
    <glyph glyph-name="Idotaccent" unicode="&#x130;" horiz-adv-x="214" 
d="M107 746q-20 0 -33 12.5t-13 32.5t13 32.5t33 12.5q21 0 33.5 -12.5t12.5 -32.5t-12.5 -32.5t-33.5 -12.5zM136 0h-57v650h57v-650z" />
    <glyph glyph-name="dotlessi" unicode="&#x131;" horiz-adv-x="186" 
d="M65 470h56v-470h-56v470z" />
    <glyph glyph-name="IJ" unicode="&#x132;" horiz-adv-x="511" 
d="M136 0h-57v650h57v-650zM233 0v54h25q59 0 92.5 31t33.5 90v422h-151v53h208v-475q0 -83 -49 -129t-134 -46h-25z" />
    <glyph glyph-name="ij" unicode="&#x133;" horiz-adv-x="356" 
d="M93 558q-18 0 -29 11t-11 29q0 17 11 28t29 11t29 -11t11 -28q0 -18 -11 -29t-29 -11zM263 558q-17 0 -28.5 11t-11.5 29q0 17 11.5 28t28.5 11q18 0 29 -11t11 -28q0 -18 -11 -29t-29 -11zM65 470h56v-470h-56v470zM235 470h56v-494q0 -63 -33.5 -94.5t-97.5 -31.5h-10
v50h10q38 0 56.5 18t18.5 58v494z" />
    <glyph glyph-name="Jcircumflex" unicode="&#x134;" horiz-adv-x="310" 
d="M176 870l111 -154h-59l-81 115l-81 -115h-59l111 154h58zM32 0v54h26q58 0 91.5 31t33.5 90v422h-151v53h208v-475q0 -83 -49 -129t-133 -46h-26z" />
    <glyph glyph-name="jcircumflex" unicode="&#x135;" horiz-adv-x="186" 
d="M122 690l111 -154h-59l-82 115l-81 -115h-58l110 154h59zM65 470h56v-494q0 -63 -34 -94.5t-97 -31.5h-11v50h11q38 0 56.5 18t18.5 58v494z" />
    <glyph glyph-name="uni0136" unicode="&#x136;" horiz-adv-x="545" 
d="M79 0v650h57v-432l288 432h64l-246 -368q26 8 50 8q64 0 112 -27t75 -73.5t27 -106.5v-83h-57v80q0 44 -20 79.5t-55 56t-82 20.5q-46 0 -81.5 -20.5t-55 -56t-19.5 -79.5v-80h-57zM253 -218q18 34 27 61q3 8 5 15q-13 2 -21 10q-12 11 -12 28t11.5 28.5t29.5 11.5
t29 -12t11 -31t-10 -47.5t-30 -63.5h-40z" />
    <glyph glyph-name="uni0137" unicode="&#x137;" horiz-adv-x="492" 
d="M65 0v650h56v-437q4 5 9 10l228 247h67l-197 -213q15 3 30 3q90 0 141 -51t51 -140v-69h-55v69q0 67 -37 104.5t-100 37.5q-64 0 -100.5 -37t-36.5 -104v-70h-56zM220 -218q18 34 27 61q2 8 4 15q-12 2 -20 10q-12 11 -12 28t11.5 28.5t28.5 11.5q18 0 29.5 -12t11.5 -31
t-10 -47.5t-30 -63.5h-40z" />
    <glyph glyph-name="Lacute" unicode="&#x139;" horiz-adv-x="419" 
d="M82 716l76 154h61l-86 -154h-51zM388 0h-309v650h57v-596h252v-54z" />
    <glyph glyph-name="lacute" unicode="&#x13a;" horiz-adv-x="223" 
d="M64 716l76 154h62l-87 -154h-51zM201 0h-13q-65 0 -97 32t-32 98v520h55v-519q0 -42 18 -61.5t57 -19.5h12v-50z" />
    <glyph glyph-name="uni013B" unicode="&#x13b;" horiz-adv-x="419" 
d="M388 0h-309v650h57v-596h252v-54zM193 -218q17 34 27 61q2 8 4 15q-12 2 -21 10q-11 11 -11 28t11.5 28.5t28.5 11.5q18 0 29 -12t11 -31t-9.5 -47.5t-29.5 -63.5h-40z" />
    <glyph glyph-name="uni013C" unicode="&#x13c;" horiz-adv-x="223" 
d="M201 0h-13q-65 0 -97 32t-32 98v520h55v-519q0 -42 18 -61.5t57 -19.5h12v-50zM80 -218q17 34 26 61q3 8 5 15q-12 2 -21 10q-11 11 -11 28t11.5 28.5t28.5 11.5q18 0 29 -12t11 -31t-9.5 -47.5t-29.5 -63.5h-40z" />
    <glyph glyph-name="Lcaron" unicode="&#x13d;" horiz-adv-x="419" 
d="M388 0h-309v650h57v-596h252v-54zM321 457v193h56l-10 -193h-46z" />
    <glyph glyph-name="lcaron" unicode="&#x13e;" horiz-adv-x="297" 
d="M201 0h-13q-65 0 -97 32t-32 98v520h55v-519q0 -42 18 -61.5t57 -19.5h12v-50zM209 457v193h57l-10 -193h-47z" />
    <glyph glyph-name="Ldot" unicode="&#x13f;" horiz-adv-x="438" 
d="M388 0h-309v650h57v-596h252v-54zM322 270q-17 0 -28.5 11t-11.5 29q0 17 11.5 28t28.5 11q18 0 29 -11t11 -28q0 -18 -11 -29t-29 -11z" />
    <glyph glyph-name="ldot" unicode="&#x140;" horiz-adv-x="301" 
d="M201 0h-13q-65 0 -97 32t-32 98v520h55v-519q0 -42 18 -61.5t57 -19.5h12v-50zM235 261q-17 0 -28.5 11t-11.5 29q0 17 11.5 28t28.5 11q18 0 29 -11t11 -28q0 -18 -11 -29t-29 -11z" />
    <glyph glyph-name="Lslash" unicode="&#x141;" horiz-adv-x="433" 
d="M309 344l-159 -82v-208h252v-54h-309v233l-84 -44v58l84 43v360h57v-331l159 82v-57z" />
    <glyph glyph-name="lslash" unicode="&#x142;" horiz-adv-x="256" 
d="M228 345l-87 -43v-171q0 -42 18 -61.5t57 -19.5h12v-50h-13q-65 0 -97 32t-32 98v145l-75 -37v55l75 37v320h55v-293l87 43v-55z" />
    <glyph glyph-name="Nacute" unicode="&#x143;" horiz-adv-x="571" 
d="M256 716l75 154h62l-86 -154h-51zM79 0v650h53q60 -140 138 -253q73 -105 166 -193v446h57v-650h-57v130q-63 57 -117 118q-59 66 -107 139q-42 62 -76 130v-517h-57z" />
    <glyph glyph-name="nacute" unicode="&#x144;" horiz-adv-x="497" 
d="M223 536l75 154h62l-86 -154h-51zM65 0v470h52v-59l12 14q49 53 130 53q80 0 127.5 -51t47.5 -137v-290h-56v288q0 64 -35 102t-94 38q-58 0 -93 -38t-35 -102v-288h-56z" />
    <glyph glyph-name="uni0145" unicode="&#x145;" horiz-adv-x="571" 
d="M79 0v650h53q60 -140 138 -253q73 -105 166 -193v446h57v-650h-57v130q-63 57 -117 118q-59 66 -107 139q-42 62 -76 130v-517h-57zM251 -218q18 34 27 61q3 8 5 15q-13 2 -21 10q-12 11 -12 28t11.5 28.5t29.5 11.5t29 -12t11 -31t-10 -47.5t-30 -63.5h-40z" />
    <glyph glyph-name="uni0146" unicode="&#x146;" horiz-adv-x="497" 
d="M65 0v470h52v-59l12 14q49 53 130 53q80 0 127.5 -51t47.5 -137v-290h-56v288q0 64 -35 102t-94 38q-58 0 -93 -38t-35 -102v-288h-56zM213 -218q18 34 27 61q2 8 4 15q-12 2 -20 10q-12 11 -12 28t11.5 28.5t28.5 11.5q18 0 29.5 -12t11.5 -31t-10 -47.5t-30 -63.5h-40z
" />
    <glyph glyph-name="Ncaron" unicode="&#x147;" horiz-adv-x="571" 
d="M256 716l-111 154h58l82 -115l81 115h58l-110 -154h-58zM79 0v650h53q60 -140 138 -253q73 -105 166 -193v446h57v-650h-57v130q-63 57 -117 118q-59 66 -107 139q-42 62 -76 130v-517h-57z" />
    <glyph glyph-name="ncaron" unicode="&#x148;" horiz-adv-x="497" 
d="M220 536l-111 154h59l82 -115l81 115h58l-111 -154h-58zM65 0v470h52v-59l12 14q49 53 130 53q80 0 127.5 -51t47.5 -137v-290h-56v288q0 64 -35 102t-94 38q-58 0 -93 -38t-35 -102v-288h-56z" />
    <glyph glyph-name="Omacron" unicode="&#x14c;" horiz-adv-x="754" 
d="M255 808h243v-51h-243v51zM43 325q0 70 25.5 130t71.5 106t106.5 72t130.5 26q69 0 129.5 -26t106.5 -72t72 -106t26 -130t-26 -130.5t-72 -106.5t-106.5 -71.5t-129.5 -25.5t-129.5 25.5t-106.5 71.5t-72 106.5t-26 130.5zM101 325q0 -58 22 -108.5t59.5 -89.5
t87.5 -60.5t107 -21.5q56 0 106 21.5t88 60.5t59.5 89.5t21.5 108.5t-21.5 109t-59.5 89.5t-88 60t-106 21.5q-57 0 -107 -21.5t-87.5 -60t-59.5 -89.5t-22 -109z" />
    <glyph glyph-name="omacron" unicode="&#x14d;" horiz-adv-x="573" 
d="M165 628h243v-50h-243v50zM286 -9q-68 0 -124 32.5t-88.5 88t-32.5 123.5t32.5 123t88.5 87.5t124 32.5q70 0 125.5 -32.5t88 -87.5t32.5 -123t-32.5 -123.5t-88 -88t-125.5 -32.5zM286 428q-52 0 -95 -26t-68.5 -70t-25.5 -97t25.5 -97t68.5 -70t96 -26q52 0 95 26
t68.5 70t25.5 97t-25.5 97t-68.5 70t-96 26z" />
    <glyph glyph-name="Obreve" unicode="&#x14e;" horiz-adv-x="754" 
d="M377 758q42 0 66 22t24 64v24h47v-24q0 -64 -37 -97.5t-100 -33.5q-64 0 -100.5 33.5t-36.5 97.5v24h46v-24q0 -42 24 -64t67 -22zM43 325q0 70 25.5 130t71.5 106t106.5 72t130.5 26q69 0 129.5 -26t106.5 -72t72 -106t26 -130t-26 -130.5t-72 -106.5t-106.5 -71.5
t-129.5 -25.5t-129.5 25.5t-106.5 71.5t-72 106.5t-26 130.5zM101 325q0 -58 22 -108.5t59.5 -89.5t87.5 -60.5t107 -21.5q56 0 106 21.5t88 60.5t59.5 89.5t21.5 108.5t-21.5 109t-59.5 89.5t-88 60t-106 21.5q-57 0 -107 -21.5t-87.5 -60t-59.5 -89.5t-22 -109z" />
    <glyph glyph-name="obreve" unicode="&#x14f;" horiz-adv-x="573" 
d="M286 579q43 0 67 22t24 63v24h47v-24q0 -63 -37 -97t-101 -34q-63 0 -100 34t-37 97v24h47v-24q0 -41 24 -63t66 -22zM286 -9q-68 0 -124 32.5t-88.5 88t-32.5 123.5t32.5 123t88.5 87.5t124 32.5q70 0 125.5 -32.5t88 -87.5t32.5 -123t-32.5 -123.5t-88 -88
t-125.5 -32.5zM286 428q-52 0 -95 -26t-68.5 -70t-25.5 -97t25.5 -97t68.5 -70t95 -26q53 0 96 26t68.5 70t25.5 97t-25.5 97t-68.5 70t-96 26z" />
    <glyph glyph-name="Ohungarumlaut" unicode="&#x150;" horiz-adv-x="754" 
d="M419 716l65 154h60l-75 -154h-50zM268 716l56 154h56l-62 -154h-50zM43 325q0 70 25.5 130t71.5 106t106.5 72t130.5 26q69 0 129.5 -26t106.5 -72t72 -106t26 -130t-26 -130.5t-72 -106.5t-106.5 -71.5t-129.5 -25.5t-129.5 25.5t-106.5 71.5t-72 106.5t-26 130.5z
M101 325q0 -58 22 -108.5t59.5 -89.5t87.5 -60.5t107 -21.5q56 0 106 21.5t88 60.5t59.5 89.5t21.5 108.5t-21.5 109t-59.5 89.5t-88 60t-106 21.5q-57 0 -107 -21.5t-87.5 -60t-59.5 -89.5t-22 -109z" />
    <glyph glyph-name="ohungarumlaut" unicode="&#x151;" horiz-adv-x="573" 
d="M327 536l66 154h59l-74 -154h-51zM177 536l55 154h57l-63 -154h-49zM286 -9q-68 0 -124 32.5t-88.5 88t-32.5 123.5t32.5 123t88.5 87.5t124 32.5q70 0 125.5 -32.5t88 -87.5t32.5 -123t-32.5 -123.5t-88 -88t-125.5 -32.5zM286 428q-52 0 -95 -26t-68.5 -70t-25.5 -97
t25.5 -97t68.5 -70t95 -26q53 0 96 26t68.5 70t25.5 97t-25.5 97t-68.5 70t-96 26z" />
    <glyph glyph-name="OE" unicode="&#x152;" horiz-adv-x="822" 
d="M506 54h274v-54h-389q-74 0 -138 24.5t-111 68t-73 103t-26 129.5t26 129t73 103t111 68.5t138 24.5h389v-53h-274v-347q31 48 84 76q61 32 145 32h13v-54h-13q-107 0 -168 -56t-61 -154v-40zM449 54v543h-72q-57 0 -107 -21.5t-87.5 -58.5t-59.5 -86.5t-22 -105.5
t22 -105.5t59.5 -86.5t87.5 -58t107 -21h72z" />
    <glyph glyph-name="oe" unicode="&#x153;" horiz-adv-x="985" 
d="M286 -9q-68 0 -124 32.5t-88.5 88t-32.5 123.5t32.5 123t88.5 87.5t124 32.5q55 0 102.5 -22.5t81.5 -62.5q20 -24 34 -52q13 28 33 52q33 40 79.5 62.5t99.5 22.5q66 0 118 -29.5t82.5 -80t30.5 -113.5v-19h-415v-7q0 -51 25.5 -93.5t67 -68t91.5 -25.5q57 0 101 25.5
t70 71.5h55q-19 -45 -52 -78t-77.5 -51.5t-96.5 -18.5q-54 0 -100.5 22.5t-79.5 62.5q-20 24 -33 53q-13 -29 -33 -53q-34 -40 -81 -62.5t-103 -22.5zM891 282q-4 35 -22 64q-24 38 -63.5 60.5t-89.5 22.5t-91.5 -25.5t-67.5 -67.5q-15 -26 -21 -54h355zM286 42q53 0 96 26
t68.5 70t25.5 97t-25.5 97t-68.5 70t-96 26q-52 0 -95 -26t-68.5 -70t-25.5 -97t25.5 -97t68.5 -70t95 -26z" />
    <glyph glyph-name="Racute" unicode="&#x154;" horiz-adv-x="548" 
d="M228 716l76 154h61l-86 -154h-51zM79 0v650h179q67 0 118 -24t79.5 -67t28.5 -102q0 -45 -14 -77.5t-38 -56t-53.5 -41t-60.5 -33.5q56 -3 97.5 -28.5t65 -68t23.5 -96.5v-56h-57v53q0 44 -19.5 78.5t-54.5 54.5t-82 20q-46 0 -81 -20t-54.5 -54.5t-19.5 -78.5v-53h-57z
M136 597v-408q21 28 50.5 47t62 35t64 31.5t57.5 35.5t41 48t15 69q0 65 -45.5 103.5t-120.5 38.5h-124z" />
    <glyph glyph-name="racute" unicode="&#x155;" horiz-adv-x="307" 
d="M139 536l76 154h61l-86 -154h-51zM65 0v470h52v-66q7 12 17 22q47 52 130 52h14v-53h-21q-66 0 -101 -38t-35 -110v-277h-56z" />
    <glyph glyph-name="uni0156" unicode="&#x156;" horiz-adv-x="548" 
d="M79 0v650h179q67 0 118 -24t79.5 -67t28.5 -102q0 -45 -14 -77.5t-38 -56t-53.5 -41t-60.5 -33.5q56 -3 97.5 -28.5t65 -68t23.5 -96.5v-56h-57v53q0 44 -19.5 78.5t-54.5 54.5t-82 20q-46 0 -81 -20t-54.5 -54.5t-19.5 -78.5v-53h-57zM136 597v-408q21 28 50.5 47t62 35
t64 31.5t57.5 35.5t41 48t15 69q0 65 -45.5 103.5t-120.5 38.5h-124zM254 -218q18 34 27 61q2 8 4 15q-12 2 -20 10q-12 11 -12 28t11.5 28.5t29.5 11.5t29 -12t11 -31t-10 -47.5t-30 -63.5h-40z" />
    <glyph glyph-name="uni0157" unicode="&#x157;" horiz-adv-x="307" 
d="M65 0v470h52v-66q7 12 17 22q47 52 130 52h14v-53h-21q-66 0 -101 -38t-35 -110v-277h-56zM52 -218q18 34 27 61q3 8 5 15q-12 2 -21 10q-11 11 -11 28t11 28.5t29 11.5t29 -12t11 -31t-9.5 -47.5t-29.5 -63.5h-41z" />
    <glyph glyph-name="Rcaron" unicode="&#x158;" horiz-adv-x="548" 
d="M225 716l-111 154h59l82 -115l81 115h58l-110 -154h-59zM79 0v650h179q67 0 118 -24t79.5 -67t28.5 -102q0 -45 -14 -77.5t-38 -56t-53.5 -41t-60.5 -33.5q56 -3 97.5 -28.5t65 -68t23.5 -96.5v-56h-57v53q0 44 -19.5 78.5t-54.5 54.5t-82 20q-46 0 -81 -20t-54.5 -54.5
t-19.5 -78.5v-53h-57zM136 597v-408q21 28 50.5 47t62 35t64 31.5t57.5 35.5t41 48t15 69q0 65 -45.5 103.5t-120.5 38.5h-124z" />
    <glyph glyph-name="rcaron" unicode="&#x159;" horiz-adv-x="307" 
d="M131 536l-111 154h59l82 -115l81 115h58l-110 -154h-59zM65 0v470h52v-66q7 12 17 22q47 52 130 52h14v-53h-21q-66 0 -101 -38t-35 -110v-277h-56z" />
    <glyph glyph-name="Sacute" unicode="&#x15a;" horiz-adv-x="475" 
d="M212 716l76 154h61l-86 -154h-51zM241 -9q-54 0 -101 23t-75.5 66.5t-28.5 106.5h57q0 -43 20 -75t54 -49.5t74 -17.5q61 0 99 34t38 89q0 37 -17.5 61.5t-46.5 41.5t-63.5 30.5t-69 28.5t-63.5 35.5t-46 51.5t-17 77t24 83t65 59.5t91 22.5q55 0 96.5 -23t65.5 -63
t24 -93h-57q0 56 -36 90.5t-93 34.5q-33 0 -61 -14.5t-44.5 -40t-16.5 -56.5q0 -35 17.5 -58.5t46 -40.5t63.5 -30t69.5 -28.5t63.5 -37t46 -53t17 -78.5q0 -51 -25 -91t-69 -63t-101 -23z" />
    <glyph glyph-name="sacute" unicode="&#x15b;" horiz-adv-x="400" 
d="M174 536l76 154h62l-87 -154h-51zM46 0v50h166q46 0 71.5 21.5t25.5 58.5q0 31 -20 47.5t-50 26.5t-64.5 18.5t-65 22.5t-50 39t-19.5 68q0 51 36.5 84.5t100.5 33.5h164v-50h-164q-40 0 -61 -18.5t-21 -48.5q0 -29 19.5 -45.5t50 -27t65 -19t65 -22.5t50 -39.5
t19.5 -69.5q0 -58 -40 -94t-110 -36h-168z" />
    <glyph glyph-name="Scircumflex" unicode="&#x15c;" horiz-adv-x="475" 
d="M267 870l111 -154h-59l-81 115l-82 -115h-58l111 154h58zM241 -9q-54 0 -101 23t-75.5 66.5t-28.5 106.5h57q0 -43 20 -75t54 -49.5t74 -17.5q61 0 99 34t38 89q0 37 -17.5 61.5t-46.5 41.5t-63.5 30.5t-69 28.5t-63.5 35.5t-46 51.5t-17 77t24 83t65 59.5t91 22.5
q55 0 96.5 -23t65.5 -63t24 -93h-57q0 56 -36 90.5t-93 34.5q-33 0 -61 -14.5t-44.5 -40t-16.5 -56.5q0 -35 17.5 -58.5t46 -40.5t63.5 -30t69.5 -28.5t63.5 -37t46 -53t17 -78.5q0 -51 -25 -91t-69 -63t-101 -23z" />
    <glyph glyph-name="scircumflex" unicode="&#x15d;" horiz-adv-x="400" 
d="M226 690l111 -154h-59l-82 115l-81 -115h-58l110 154h59zM46 0v50h166q46 0 71.5 21.5t25.5 58.5q0 31 -20 47.5t-50 26.5t-64.5 18.5t-65 22.5t-50 39t-19.5 68q0 51 36.5 84.5t100.5 33.5h164v-50h-164q-40 0 -61 -18.5t-21 -48.5q0 -29 19.5 -45.5t50 -27t65 -19
t65 -22.5t50 -39.5t19.5 -69.5q0 -58 -40 -94t-110 -36h-168z" />
    <glyph glyph-name="Scedilla" unicode="&#x15e;" horiz-adv-x="475" 
d="M215 -137l6 129q-43 4 -81 22q-47 23 -75.5 66.5t-28.5 106.5h57q0 -43 20 -75t54 -49.5t74 -17.5q61 0 99 34t38 89q0 37 -17.5 61.5t-46.5 41.5t-63.5 30.5t-69 28.5t-63.5 35.5t-46 51.5t-17 77t24 83t65 59.5t91 22.5q55 0 96.5 -23t65.5 -63t24 -93h-57
q0 56 -36 90.5t-93 34.5q-33 0 -61 -14.5t-44.5 -40t-16.5 -56.5q0 -35 17.5 -58.5t46 -40.5t63.5 -30t69.5 -28.5t63.5 -37t46 -53t17 -78.5q0 -51 -24.5 -90.5t-67.5 -62.5q-33 -17 -73 -22v-130h-56z" />
    <glyph glyph-name="scedilla" unicode="&#x15f;" horiz-adv-x="400" 
d="M46 0v50h166q46 0 71.5 21.5t25.5 58.5q0 31 -20 47.5t-50 26.5t-64.5 18.5t-65 22.5t-50 39t-19.5 68q0 51 36.5 84.5t100.5 33.5h164v-50h-164q-40 0 -61 -18.5t-21 -48.5q0 -29 19.5 -45.5t50 -27t65 -19t65 -22.5t50 -39.5t19.5 -69.5q0 -58 -40 -94q-37 -33 -98 -36
v-137h-55l6 137h-131z" />
    <glyph glyph-name="Scaron" unicode="&#x160;" horiz-adv-x="475" 
d="M209 716l-111 154h59l82 -115l81 115h58l-110 -154h-59zM241 -9q-54 0 -101 23t-75.5 66.5t-28.5 106.5h57q0 -43 20 -75t54 -49.5t74 -17.5q61 0 99 34t38 89q0 37 -17.5 61.5t-46.5 41.5t-63.5 30.5t-69 28.5t-63.5 35.5t-46 51.5t-17 77t24 83t65 59.5t91 22.5
q55 0 96.5 -23t65.5 -63t24 -93h-57q0 56 -36 90.5t-93 34.5q-33 0 -61 -14.5t-44.5 -40t-16.5 -56.5q0 -35 17.5 -58.5t46 -40.5t63.5 -30t69.5 -28.5t63.5 -37t46 -53t17 -78.5q0 -51 -25 -91t-69 -63t-101 -23z" />
    <glyph glyph-name="scaron" unicode="&#x161;" horiz-adv-x="400" 
d="M171 536l-111 154h59l82 -115l81 115h58l-111 -154h-58zM46 0v50h166q46 0 71.5 21.5t25.5 58.5q0 31 -20 47.5t-50 26.5t-64.5 18.5t-65 22.5t-50 39t-19.5 68q0 51 36.5 84.5t100.5 33.5h164v-50h-164q-40 0 -61 -18.5t-21 -48.5q0 -29 19.5 -45.5t50 -27t65 -19
t65 -22.5t50 -39.5t19.5 -69.5q0 -58 -40 -94t-110 -36h-168z" />
    <glyph glyph-name="uni0162" unicode="&#x162;" horiz-adv-x="447" 
d="M195 0v605q-41 -1 -82 -4q-51 -4 -92 -11v54q41 6 94.5 10.5t108.5 4.5q53 0 107 -4.5t95 -10.5v-54q-26 4 -58.5 7.5t-67.5 5.5l-48 2v-605h-57zM183 -218q18 34 27 61q2 8 4 15q-12 2 -20 10q-12 11 -12 28t11.5 28.5t29.5 11.5t29 -12t11 -31t-10 -47.5t-30 -63.5h-40
z" />
    <glyph glyph-name="uni0163" unicode="&#x163;" horiz-adv-x="309" 
d="M272 420h-159v-269q0 -52 25.5 -76.5t72.5 -24.5h62v-50h-63q-73 0 -112.5 38t-39.5 113v437l55 16v-134h159v-50zM117 -218q18 34 27 61q2 8 4 15q-12 2 -20 10q-12 11 -12 28t11.5 28.5t28.5 11.5q18 0 29.5 -12t11.5 -31t-10 -47.5t-30 -63.5h-40z" />
    <glyph glyph-name="Tcaron" unicode="&#x164;" horiz-adv-x="447" 
d="M196 716l-111 154h59l81 -115l81 115h59l-111 -154h-58zM195 0v605q-41 -1 -82 -4q-51 -4 -92 -11v54q41 6 94.5 10.5t108.5 4.5q53 0 107 -4.5t95 -10.5v-54q-26 4 -58.5 7.5t-67.5 5.5l-48 2v-605h-57z" />
    <glyph glyph-name="tcaron" unicode="&#x165;" horiz-adv-x="309" 
d="M194 556v193h57l-10 -193h-47zM272 420h-159v-269q0 -52 25.5 -76.5t72.5 -24.5h62v-50h-63q-73 0 -112.5 38t-39.5 113v437l55 16v-134h159v-50z" />
    <glyph glyph-name="Tbar" unicode="&#x166;" horiz-adv-x="447" 
d="M195 0v287h-133v51h133v267q-41 -1 -82 -4q-51 -4 -92 -11v54q41 6 94.5 10.5t108.5 4.5q53 0 107 -4.5t95 -10.5v-54q-26 4 -58.5 7.5t-67.5 5.5l-48 2v-267h133v-51l-133 -1v-286h-57z" />
    <glyph glyph-name="tbar" unicode="&#x167;" horiz-adv-x="329" 
d="M3 269h75v319l55 16v-134h159v-50h-159v-151h136v-48h-136v-70q0 -52 25.5 -76.5t72.5 -24.5h62v-50h-63q-73 0 -112.5 38t-39.5 113v70h-75v48z" />
    <glyph glyph-name="Utilde" unicode="&#x168;" horiz-adv-x="542" 
d="M130 716v69q0 42 19.5 65t53.5 23q24 0 40.5 -12t29 -28.5t22 -33.5t20 -29t23.5 -12q15 0 22.5 11t7.5 31v70h46v-70q0 -41 -19.5 -64t-53.5 -23q-24 0 -41 11.5t-29.5 28.5t-22 34t-19.5 29t-24 12q-30 0 -30 -43v-69h-45zM272 46q41 0 73.5 18.5t51 51t18.5 72.5v462
h57v-462q0 -58 -25 -102.5t-70.5 -69.5t-104.5 -25q-60 0 -105.5 25t-71 69.5t-25.5 102.5v462h57v-462q0 -40 19 -72.5t51.5 -51t74.5 -18.5z" />
    <glyph glyph-name="utilde" unicode="&#x169;" horiz-adv-x="487" 
d="M101 536v70q0 41 19.5 64t53.5 23q25 0 41.5 -11.5t29 -28.5t22 -34t19.5 -28.5t24 -11.5q15 0 22.5 10.5t7.5 31.5v69h46v-69q0 -41 -19.5 -64.5t-54.5 -23.5q-24 0 -40.5 12t-28.5 28.5t-22 33.5t-20.5 29t-23.5 12q-30 0 -30 -42v-70h-46zM63 470h56v-293
q0 -62 33.5 -98.5t90.5 -36.5q58 0 91.5 36.5t33.5 98.5v293h56v-290q0 -88 -49 -138.5t-132 -50.5q-82 0 -131 50.5t-49 138.5v290z" />
    <glyph glyph-name="Umacron" unicode="&#x16a;" horiz-adv-x="542" 
d="M150 808h243v-51h-243v51zM272 46q41 0 73.5 18.5t51 51t18.5 72.5v462h57v-462q0 -58 -25 -102.5t-70.5 -69.5t-104.5 -25q-60 0 -105.5 25t-71 69.5t-25.5 102.5v462h57v-462q0 -40 19 -72.5t51.5 -51t74.5 -18.5z" />
    <glyph glyph-name="umacron" unicode="&#x16b;" horiz-adv-x="487" 
d="M122 628h243v-50h-243v50zM63 470h56v-293q0 -62 33.5 -98.5t90.5 -36.5q58 0 91.5 36.5t33.5 98.5v293h56v-290q0 -88 -49 -138.5t-132 -50.5q-82 0 -131 50.5t-49 138.5v290z" />
    <glyph glyph-name="Ubreve" unicode="&#x16c;" horiz-adv-x="542" 
d="M272 758q42 0 66 22t24 64v24h47v-24q0 -64 -37 -97.5t-100 -33.5q-64 0 -100.5 33.5t-36.5 97.5v24h46v-24q0 -42 24 -64t67 -22zM272 46q41 0 73.5 18.5t51 51t18.5 72.5v462h57v-462q0 -58 -25 -102.5t-70.5 -69.5t-104.5 -25q-60 0 -105.5 25t-71 69.5t-25.5 102.5
v462h57v-462q0 -40 19 -72.5t51.5 -51t74.5 -18.5z" />
    <glyph glyph-name="ubreve" unicode="&#x16d;" horiz-adv-x="487" 
d="M243 579q43 0 67 22t24 63v24h46v-24q0 -63 -36.5 -97t-100.5 -34q-63 0 -100 34t-37 97v24h47v-24q0 -41 23.5 -63t66.5 -22zM63 470h56v-293q0 -62 33.5 -98.5t90.5 -36.5q58 0 91.5 36.5t33.5 98.5v293h56v-290q0 -88 -49 -138.5t-132 -50.5q-82 0 -131 50.5
t-49 138.5v290z" />
    <glyph glyph-name="Uring" unicode="&#x16e;" horiz-adv-x="542" 
d="M272 711q-32 0 -58 13.5t-40.5 38t-14.5 55.5q0 45 32 75.5t81 30.5q32 0 57.5 -13.5t40 -38t14.5 -54.5q0 -46 -31.5 -76.5t-80.5 -30.5zM272 754q30 0 47.5 17.5t17.5 46.5q0 28 -17.5 45.5t-47.5 17.5t-48 -17.5t-18 -45.5q0 -29 18 -46.5t48 -17.5zM272 46
q41 0 73.5 18.5t51 51t18.5 72.5v462h57v-462q0 -58 -25 -102.5t-70.5 -69.5t-104.5 -25q-60 0 -105.5 25t-71 69.5t-25.5 102.5v462h57v-462q0 -40 19 -72.5t51.5 -51t74.5 -18.5z" />
    <glyph glyph-name="uring" unicode="&#x16f;" horiz-adv-x="487" 
d="M243 531q-31 0 -57 14t-40.5 38t-14.5 55q0 46 32 76.5t80 30.5q33 0 58.5 -14t40 -38t14.5 -55q0 -46 -31.5 -76.5t-81.5 -30.5zM243 575q31 0 48.5 17.5t17.5 45.5t-17.5 45.5t-48.5 17.5q-29 0 -47 -17.5t-18 -45.5t18 -45.5t47 -17.5zM63 470h56v-293
q0 -62 33.5 -98.5t90.5 -36.5q58 0 91.5 36.5t33.5 98.5v293h56v-290q0 -88 -49 -138.5t-132 -50.5q-82 0 -131 50.5t-49 138.5v290z" />
    <glyph glyph-name="Uhungarumlaut" unicode="&#x170;" horiz-adv-x="542" 
d="M313 716l65 154h60l-75 -154h-50zM162 716l55 154h57l-62 -154h-50zM272 46q41 0 73.5 18.5t51 51t18.5 72.5v462h57v-462q0 -58 -25 -102.5t-70.5 -69.5t-104.5 -25q-60 0 -105.5 25t-71 69.5t-25.5 102.5v462h57v-462q0 -40 19 -72.5t51.5 -51t74.5 -18.5z" />
    <glyph glyph-name="uhungarumlaut" unicode="&#x171;" horiz-adv-x="487" 
d="M284 536l66 154h59l-74 -154h-51zM134 536l55 154h57l-63 -154h-49zM63 470h56v-293q0 -62 33.5 -98.5t90.5 -36.5q58 0 91.5 36.5t33.5 98.5v293h56v-290q0 -88 -49 -138.5t-132 -50.5q-82 0 -131 50.5t-49 138.5v290z" />
    <glyph glyph-name="Uogonek" unicode="&#x172;" horiz-adv-x="542" 
d="M337 -163h-34q-43 0 -70 21.5t-27 58.5q0 29 21 53q10 11 26 22q-48 3 -86 24q-46 25 -71.5 69.5t-25.5 102.5v462h57v-462q0 -40 19 -72.5t51.5 -51t74.5 -18.5q41 0 73.5 18.5t51 51t18.5 72.5v462h57v-462q0 -68 -32 -114t-85 -67q-39 -16 -61 -29.5t-30.5 -26
t-8.5 -27.5q0 -21 13.5 -32.5t37.5 -11.5h31v-43z" />
    <glyph glyph-name="uogonek" unicode="&#x173;" horiz-adv-x="487" 
d="M306 -163h-36q-42 0 -67.5 21.5t-25.5 56.5q0 21 10.5 39t31.5 35q2 2 4 3q-68 6 -111 50q-49 50 -49 138v290h56v-293q0 -62 33.5 -98.5t90.5 -36.5q58 0 91.5 36.5t33.5 98.5v293h56v-290q0 -70 -29.5 -113.5t-92.5 -70.5q-43 -18 -59.5 -35t-16.5 -39
q0 -19 12.5 -30.5t34.5 -11.5h33v-43z" />
    <glyph glyph-name="Wcircumflex" unicode="&#x174;" horiz-adv-x="820" 
d="M441 870l111 -154h-59l-81 115l-81 -115h-58l110 154h58zM79 0v650h57v-594q117 3 182 68q67 68 67 192v334h57v-594q72 2 119 23q52 22 80.5 75t38.5 145l40 351h58l-40 -351q-12 -110 -49 -176t-103 -94.5t-166 -28.5h-35v127q-15 -24 -35 -44q-82 -83 -229 -83h-42z
" />
    <glyph glyph-name="wcircumflex" unicode="&#x175;" horiz-adv-x="742" 
d="M406 690l111 -154h-59l-82 115l-81 -115h-58l111 154h58zM65 0v470h56v-416h42q89 0 137 46q49 47 49 137v233h55v-416h29q88 0 131 39.5t54 130.5l30 246h56l-30 -246q-14 -118 -70.5 -171t-168.5 -53h-82v90q-17 -33 -49 -53q-27 -19 -64.5 -28t-89.5 -9h-85z" />
    <glyph glyph-name="Ycircumflex" unicode="&#x176;" horiz-adv-x="492" 
d="M300 870l111 -154h-59l-81 115l-82 -115h-58l111 154h58zM232 0l54 194q-71 3 -124 31q-59 31 -90.5 90.5t-31.5 144.5q0 40 6.5 84.5t22.5 105.5h57q-17 -63 -23.5 -107t-6.5 -83q0 -103 55 -158q53 -53 150 -55l112 403h58l-178 -650h-61z" />
    <glyph glyph-name="ycircumflex" unicode="&#x177;" horiz-adv-x="479" 
d="M299 690l111 -154h-59l-82 115l-81 -115h-58l110 154h59zM46 252q0 51 7.5 105.5t22.5 112.5h57q-17 -69 -24 -119.5t-7 -98.5q0 -97 51 -150q48 -49 125 -53l119 421h57l-174 -620h-59l42 148q-56 5 -100 29q-56 30 -86.5 87t-30.5 138z" />
    <glyph glyph-name="Ydieresis" unicode="&#x178;" horiz-adv-x="492" 
d="M186 746q-18 0 -29.5 11t-11.5 28q0 18 11.5 29t29.5 11t29 -11t11 -29q0 -17 -11 -28t-29 -11zM357 746q-18 0 -29.5 11t-11.5 28q0 18 11.5 29t29.5 11t29 -11t11 -29q0 -17 -11 -28t-29 -11zM232 0l54 194q-71 3 -124 31q-59 31 -90.5 90.5t-31.5 144.5q0 40 6.5 84.5
t22.5 105.5h57q-17 -63 -23.5 -107t-6.5 -83q0 -103 55 -158q53 -53 150 -55l112 403h58l-178 -650h-61z" />
    <glyph glyph-name="Zacute" unicode="&#x179;" horiz-adv-x="448" 
d="M173 716l76 154h62l-87 -154h-51zM420 0h-387l298 597h-299v53h386l-296 -597l298 1v-54z" />
    <glyph glyph-name="zacute" unicode="&#x17a;" horiz-adv-x="402" 
d="M171 536l76 154h62l-86 -154h-52zM368 0h-335l243 420h-243v50h332l-242 -420h245v-50z" />
    <glyph glyph-name="Zdotaccent" unicode="&#x17b;" horiz-adv-x="448" 
d="M223 746q-20 0 -33 12.5t-13 32.5t13 32.5t33 12.5q21 0 33.5 -12.5t12.5 -32.5t-12.5 -32.5t-33.5 -12.5zM420 0h-387l298 597h-299v53h386l-296 -597l298 1v-54z" />
    <glyph glyph-name="zdotaccent" unicode="&#x17c;" horiz-adv-x="402" 
d="M207 566q-21 0 -33.5 13t-12.5 33q0 19 12.5 32t33.5 13t33.5 -13t12.5 -32q0 -20 -12.5 -33t-33.5 -13zM368 0h-335l243 420h-243v50h332l-242 -420h245v-50z" />
    <glyph glyph-name="Zcaron" unicode="&#x17d;" horiz-adv-x="448" 
d="M199 716l-111 154h59l81 -115l81 115h58l-110 -154h-58zM420 0h-387l298 597h-299v53h386l-296 -597l298 1v-54z" />
    <glyph glyph-name="zcaron" unicode="&#x17e;" horiz-adv-x="402" 
d="M177 536l-111 154h59l82 -115l81 115h58l-110 -154h-59zM368 0h-335l243 420h-243v50h332l-242 -420h245v-50z" />
    <glyph glyph-name="Ohorn" unicode="&#x1a0;" horiz-adv-x="754" 
d="M43 325q0 70 25.5 130t71.5 106t106.5 72t130.5 26q40 0 77 -9q43 0 72 19t29 66v25h47v-25q0 -66 -39 -98q-13 -10 -28 -17q43 -24 78 -59q46 -46 72 -106t26 -130t-26 -130.5t-72 -106.5t-106.5 -71.5t-129.5 -25.5t-129.5 25.5t-106.5 71.5t-72 106.5t-26 130.5z
M101 325q0 -58 22 -108.5t59.5 -89.5t87.5 -60.5t107 -21.5q56 0 106 21.5t88 60.5t59.5 89.5t21.5 108.5t-21.5 109t-59.5 89.5t-88 60t-106 21.5q-57 0 -107 -21.5t-87.5 -60t-59.5 -89.5t-22 -109z" />
    <glyph glyph-name="ohorn" unicode="&#x1a1;" horiz-adv-x="573" 
d="M286 -9q-68 0 -124 32.5t-88.5 88t-32.5 123.5t32.5 123t88.5 87.5t124 32.5q36 0 68 -8q43 0 72 19t29 66v24h47v-24q0 -66 -40 -99q-15 -12 -35 -20q44 -31 72 -78q33 -55 33 -123t-32.5 -123.5t-88 -88t-125.5 -32.5zM286 428q-52 0 -95 -26t-68.5 -70t-25.5 -97
t25.5 -97t68.5 -70t96 -26q52 0 95 26t68.5 70t25.5 97t-25.5 97t-68.5 70t-96 26z" />
    <glyph glyph-name="Uhorn" unicode="&#x1af;" horiz-adv-x="542" 
d="M272 46q41 0 73.5 18.5t51 51t18.5 72.5v462q43 0 72 19t29 66v25h47v-25q0 -66 -40 -98q-21 -18 -51 -26v-423q0 -58 -25 -102.5t-70.5 -69.5t-104.5 -25q-60 0 -105.5 25t-71 69.5t-25.5 102.5v462h57v-462q0 -40 19 -72.5t51.5 -51t74.5 -18.5z" />
    <glyph glyph-name="uhorn" unicode="&#x1b0;" horiz-adv-x="487" 
d="M63 470h56v-293q0 -62 33.5 -98.5t90.5 -36.5q58 0 91.5 36.5t33.5 98.5v293q42 0 71.5 19t29.5 66v24h46v-24q0 -66 -39 -99q-22 -17 -52 -25v-251q0 -88 -49 -138.5t-132 -50.5q-82 0 -131 50.5t-49 138.5v290z" />
    <glyph glyph-name="uni0218" unicode="&#x218;" horiz-adv-x="475" 
d="M241 -9q-54 0 -101 23t-75.5 66.5t-28.5 106.5h57q0 -43 20 -75t54 -49.5t74 -17.5q61 0 99 34t38 89q0 37 -17.5 61.5t-46.5 41.5t-63.5 30.5t-69 28.5t-63.5 35.5t-46 51.5t-17 77t24 83t65 59.5t91 22.5q55 0 96.5 -23t65.5 -63t24 -93h-57q0 56 -36 90.5t-93 34.5
q-33 0 -61 -14.5t-44.5 -40t-16.5 -56.5q0 -35 17.5 -58.5t46 -40.5t63.5 -30t69.5 -28.5t63.5 -37t46 -53t17 -78.5q0 -51 -25 -91t-69 -63t-101 -23zM208 -218q17 34 26 61q3 8 5 15q-12 2 -21 10q-11 11 -11 28t11.5 28.5t28.5 11.5q18 0 29 -12t11 -31t-9.5 -47.5
t-29.5 -63.5h-40z" />
    <glyph glyph-name="uni0219" unicode="&#x219;" horiz-adv-x="400" 
d="M46 0v50h166q46 0 71.5 21.5t25.5 58.5q0 31 -20 47.5t-50 26.5t-64.5 18.5t-65 22.5t-50 39t-19.5 68q0 51 36.5 84.5t100.5 33.5h164v-50h-164q-40 0 -61 -18.5t-21 -48.5q0 -29 19.5 -45.5t50 -27t65 -19t65 -22.5t50 -39.5t19.5 -69.5q0 -58 -40 -94t-110 -36h-168z
M166 -218q17 34 26 61q3 8 5 15q-12 2 -21 10q-11 11 -11 28t11.5 28.5t28.5 11.5q18 0 29 -12t11 -31t-9.5 -47.5t-29.5 -63.5h-40z" />
    <glyph glyph-name="uni021A" unicode="&#x21a;" horiz-adv-x="447" 
d="M195 0v605q-41 -1 -82 -4q-51 -4 -92 -11v54q41 6 94.5 10.5t108.5 4.5q53 0 107 -4.5t95 -10.5v-54q-26 4 -58.5 7.5t-67.5 5.5l-48 2v-605h-57zM183 -218q18 34 27 61q2 8 4 15q-12 2 -20 10q-12 11 -12 28t11.5 28.5t29.5 11.5t29 -12t11 -31t-10 -47.5t-30 -63.5h-40
z" />
    <glyph glyph-name="uni021B" unicode="&#x21b;" horiz-adv-x="309" 
d="M272 420h-159v-269q0 -52 25.5 -76.5t72.5 -24.5h62v-50h-63q-73 0 -112.5 38t-39.5 113v437l55 16v-134h159v-50zM117 -218q18 34 27 61q2 8 4 15q-12 2 -20 10q-12 11 -12 28t11.5 28.5t28.5 11.5q18 0 29.5 -12t11.5 -31t-10 -47.5t-30 -63.5h-40z" />
    <glyph glyph-name="uni0237" unicode="&#x237;" horiz-adv-x="186" 
d="M65 470h56v-494q0 -63 -34 -94.5t-97 -31.5h-11v50h11q38 0 56.5 18t18.5 58v494z" />
    <glyph glyph-name="circumflex" unicode="&#x2c6;" horiz-adv-x="516" 
d="M287 690l111 -154h-59l-81 115l-81 -115h-59l111 154h58z" />
    <glyph glyph-name="caron" unicode="&#x2c7;" horiz-adv-x="516" 
d="M229 536l-111 154h59l82 -115l81 115h58l-110 -154h-59z" />
    <glyph glyph-name="breve" unicode="&#x2d8;" horiz-adv-x="516" 
d="M258 579q43 0 67 22t24 63v24h46v-24q0 -63 -37 -97t-100 -34t-100 34t-37 97v24h47v-24q0 -41 23.5 -63t66.5 -22z" />
    <glyph glyph-name="dotaccent" unicode="&#x2d9;" horiz-adv-x="516" 
d="M258 566q-20 0 -33 13t-13 33q0 19 13 32t33 13q21 0 33.5 -13t12.5 -32q0 -20 -12.5 -33t-33.5 -13z" />
    <glyph glyph-name="ring" unicode="&#x2da;" horiz-adv-x="516" 
d="M258 531q-32 0 -57.5 14t-40 38t-14.5 55q0 46 31.5 76.5t80.5 30.5q33 0 58.5 -14t40 -38t14.5 -55q0 -46 -32 -76.5t-81 -30.5zM258 575q31 0 48.5 17.5t17.5 45.5t-17.5 45.5t-48.5 17.5q-29 0 -47 -17.5t-18 -45.5t18 -45.5t47 -17.5z" />
    <glyph glyph-name="ogonek" unicode="&#x2db;" horiz-adv-x="520" 
d="M352 -166h-34q-47 0 -75.5 23t-28.5 62q0 21 10.5 39.5t31 35.5t49.5 31l47 -25q-34 -18 -52 -37t-18 -38q0 -15 10.5 -23t29.5 -8h30v-60z" />
    <glyph glyph-name="tilde" unicode="&#x2dc;" horiz-adv-x="516" 
d="M116 536v70q0 41 19.5 64t53.5 23q24 0 41 -11.5t29.5 -28.5t22 -34t19.5 -28.5t24 -11.5q15 0 22.5 10.5t7.5 31.5v69h45v-69q0 -41 -19 -64.5t-54 -23.5q-24 0 -40.5 12t-28.5 28.5t-22.5 33.5t-20.5 29t-23 12q-30 0 -30 -42v-70h-46z" />
    <glyph glyph-name="hungarumlaut" unicode="&#x2dd;" horiz-adv-x="516" 
d="M299 536l65 154h60l-75 -154h-50zM149 536l55 154h56l-62 -154h-49z" />
    <glyph glyph-name="hookabovecomb" unicode="&#x309;" horiz-adv-x="171" 
d="M41 835h35q42 0 68 -21.5t26 -56.5q0 -21 -10.5 -39.5t-32 -35.5t-53.5 -31l-33 20q41 20 60 40.5t19 41.5q0 18 -12 28t-35 10h-32v44z" />
    <glyph glyph-name="uni031B" unicode="&#x31b;" horiz-adv-x="186" 
d="M162 -100q43 0 72 19t29 66v25h47v-25q0 -66 -39.5 -98t-108.5 -32v45z" />
    <glyph glyph-name="dotbelowcomb" unicode="&#x323;" horiz-adv-x="516" 
d="M258 -152q-20 0 -33 13t-13 32q0 20 13 33t33 13q21 0 33.5 -13t12.5 -33q0 -19 -12.5 -32t-33.5 -13z" />
    <glyph glyph-name="Wgrave" unicode="&#x1e80;" horiz-adv-x="820" 
d="M437 716h-51l-86 154h62zM79 0v650h57v-594q117 3 182 68q67 68 67 192v334h57v-594q72 2 119 23q52 22 80.5 75t38.5 145l40 351h58l-40 -351q-12 -110 -49 -176t-103 -94.5t-166 -28.5h-35v127q-15 -24 -35 -44q-82 -83 -229 -83h-42z" />
    <glyph glyph-name="wgrave" unicode="&#x1e81;" horiz-adv-x="742" 
d="M399 536h-51l-86 154h61zM65 0v470h56v-416h42q89 0 137 46q49 47 49 137v233h55v-416h29q88 0 131 39.5t54 130.5l30 246h56l-30 -246q-14 -118 -70.5 -171t-168.5 -53h-82v90q-17 -33 -49 -53q-27 -19 -64.5 -28t-89.5 -9h-85z" />
    <glyph glyph-name="Wacute" unicode="&#x1e82;" horiz-adv-x="820" 
d="M386 716l76 154h62l-87 -154h-51zM79 0v650h57v-594q117 3 182 68q67 68 67 192v334h57v-594q72 2 119 23q52 22 80.5 75t38.5 145l40 351h58l-40 -351q-12 -110 -49 -176t-103 -94.5t-166 -28.5h-35v127q-15 -24 -35 -44q-82 -83 -229 -83h-42z" />
    <glyph glyph-name="wacute" unicode="&#x1e83;" horiz-adv-x="742" 
d="M350 536l76 154h62l-87 -154h-51zM65 0v470h56v-416h42q89 0 137 46q49 47 49 137v233h55v-416h29q88 0 131 39.5t54 130.5l30 246h56l-30 -246q-14 -118 -70.5 -171t-168.5 -53h-82v90q-17 -33 -49 -53q-27 -19 -64.5 -28t-89.5 -9h-85z" />
    <glyph glyph-name="Wdieresis" unicode="&#x1e84;" horiz-adv-x="820" 
d="M327 746q-17 0 -28.5 11t-11.5 28q0 18 11.5 29t28.5 11q18 0 29 -11t11 -29q0 -17 -11 -28t-29 -11zM498 746q-18 0 -29 11t-11 28q0 18 11 29t29 11t29 -11t11 -29q0 -17 -11 -28t-29 -11zM79 0v650h57v-594q117 3 182 68q67 68 67 192v334h57v-594q72 2 119 23
q52 22 80.5 75t38.5 145l40 351h58l-40 -351q-12 -110 -49 -176t-103 -94.5t-166 -28.5h-35v127q-15 -24 -35 -44q-82 -83 -229 -83h-42z" />
    <glyph glyph-name="wdieresis" unicode="&#x1e85;" horiz-adv-x="742" 
d="M291 566q-17 0 -28.5 11t-11.5 29q0 17 11.5 28t28.5 11q18 0 29 -11t11 -28q0 -18 -11 -29t-29 -11zM462 566q-17 0 -28.5 11t-11.5 29q0 17 11.5 28t28.5 11q18 0 29 -11t11 -28q0 -18 -11 -29t-29 -11zM65 0v470h56v-416h42q89 0 137 46q49 47 49 137v233h55v-416h29
q88 0 131 39.5t54 130.5l30 246h56l-30 -246q-14 -118 -70.5 -171t-168.5 -53h-82v90q-17 -33 -49 -53q-27 -19 -64.5 -28t-89.5 -9h-85z" />
    <glyph glyph-name="Germandbls" unicode="&#x1e9e;" horiz-adv-x="580" 
d="M69 0v451q0 60 26.5 104.5t72.5 69.5t104 25h211l-121 -249q42 -6 76 -23q50 -25 77.5 -69.5t27.5 -104.5q0 -94 -57.5 -149t-158.5 -55h-48v54h48q75 0 116.5 41t41.5 109q0 44 -20 77.5t-57 52.5t-87 19h-40l120 244h-129q-42 0 -75 -18.5t-52 -51t-19 -76.5v-451h-57z
" />
    <glyph glyph-name="uni1EA0" unicode="&#x1ea0;" 
d="M70 0v454q0 60 25.5 106t71.5 72.5t105 26.5q60 0 105.5 -26.5t71 -72.5t25.5 -106v-454h-57v26q0 108 -68.5 171t-195.5 63h-26v-260h-57zM127 314h13q130 0 209 -50q43 -28 68 -66v256q0 44 -18.5 77.5t-51 52.5t-75.5 19q-42 0 -75 -19t-51.5 -52.5t-18.5 -77.5v-140z
M273 -152q-20 0 -33 13t-13 32q0 20 13 33t33 13q21 0 33.5 -13t12.5 -33q0 -19 -12.5 -32t-33.5 -13z" />
    <glyph glyph-name="uni1EA1" unicode="&#x1ea1;" horiz-adv-x="484" 
d="M225 -9q-54 0 -95.5 19.5t-64.5 53.5t-23 78t23.5 78t64.5 53t95 19q80 0 129 -40q6 -5 11 -10v58q0 60 -33 94t-91 34q-44 0 -75 -22t-43 -63h-57q9 41 33.5 71.5t61 47t80.5 16.5q83 0 131.5 -48.5t48.5 -132.5v-297h-53v47q-6 -7 -14 -14q-49 -42 -129 -42zM231 39
q61 0 97.5 29t36.5 75q0 47 -36.5 74.5t-97.5 27.5q-60 0 -96.5 -28t-36.5 -75t36.5 -75t96.5 -28zM242 -152q-20 0 -33 13t-13 32q0 20 13 33t33 13q21 0 33.5 -13t12.5 -33q0 -19 -12.5 -32t-33.5 -13z" />
    <glyph glyph-name="uni1EA2" unicode="&#x1ea2;" 
d="M217 882h35q43 0 68.5 -21.5t25.5 -56.5q0 -21 -10.5 -39.5t-32 -35t-53.5 -31.5l-33 21q42 19 61 39.5t19 41.5q0 18 -12.5 28t-34.5 10h-33v44zM70 0v454q0 60 25.5 106t71.5 72.5t105 26.5q60 0 105.5 -26.5t71 -72.5t25.5 -106v-454h-57v26q0 108 -68.5 171
t-195.5 63h-26v-260h-57zM127 314h13q130 0 209 -50q43 -28 68 -66v256q0 44 -18.5 77.5t-51 52.5t-75.5 19q-42 0 -75 -19t-51.5 -52.5t-18.5 -77.5v-140z" />
    <glyph glyph-name="uni1EA3" unicode="&#x1ea3;" horiz-adv-x="484" 
d="M191 702h35q42 0 68 -21.5t26 -56.5q0 -21 -10.5 -39.5t-32 -35t-53.5 -31.5l-33 21q42 19 61 39.5t19 41.5q0 18 -12.5 28t-34.5 10h-33v44zM225 -9q-54 0 -95.5 19.5t-64.5 53.5t-23 78t23.5 78t64.5 53t95 19q80 0 129 -40q6 -5 11 -10v58q0 60 -33 94t-91 34
q-44 0 -75 -22t-43 -63h-57q9 41 33.5 71.5t61 47t80.5 16.5q83 0 131.5 -48.5t48.5 -132.5v-297h-53v47q-6 -7 -14 -14q-49 -42 -129 -42zM231 39q61 0 97.5 29t36.5 75q0 47 -36.5 74.5t-97.5 27.5q-60 0 -96.5 -28t-36.5 -75t36.5 -75t96.5 -28z" />
    <glyph glyph-name="uni1EA4" unicode="&#x1ea4;" 
d="M382 841l76 154h62l-87 -154h-51zM300 870l111 -154h-58l-82 115l-81 -115h-58l110 154h58zM70 0v454q0 60 25.5 106t71.5 72.5t105 26.5q60 0 105.5 -26.5t71 -72.5t25.5 -106v-454h-57v26q0 108 -68.5 171t-195.5 63h-26v-260h-57zM127 314h13q130 0 209 -50
q43 -28 68 -66v256q0 44 -18.5 77.5t-51 52.5t-75.5 19q-42 0 -75 -19t-51.5 -52.5t-18.5 -77.5v-140z" />
    <glyph glyph-name="uni1EA5" unicode="&#x1ea5;" horiz-adv-x="484" 
d="M360 650l75 154h62l-86 -154h-51zM268 690l111 -154h-58l-82 115l-81 -115h-58l110 154h58zM225 -9q-54 0 -95.5 19.5t-64.5 53.5t-23 78t23.5 78t64.5 53t95 19q80 0 129 -40q6 -5 11 -10v58q0 60 -33 94t-91 34q-44 0 -75 -22t-43 -63h-57q9 41 33.5 71.5t61 47
t80.5 16.5q83 0 131.5 -48.5t48.5 -132.5v-297h-53v47q-6 -7 -14 -14q-49 -42 -129 -42zM231 39q61 0 97.5 29t36.5 75q0 47 -36.5 74.5t-97.5 27.5q-60 0 -96.5 -28t-36.5 -75t36.5 -75t96.5 -28z" />
    <glyph glyph-name="uni1EA6" unicode="&#x1ea6;" 
d="M437 841h-51l-86 154h62zM300 870l111 -154h-58l-82 115l-81 -115h-58l110 154h58zM70 0v454q0 60 25.5 106t71.5 72.5t105 26.5q60 0 105.5 -26.5t71 -72.5t25.5 -106v-454h-57v26q0 108 -68.5 171t-195.5 63h-26v-260h-57zM127 314h13q130 0 209 -50q43 -28 68 -66v256
q0 44 -18.5 77.5t-51 52.5t-75.5 19q-42 0 -75 -19t-51.5 -52.5t-18.5 -77.5v-140z" />
    <glyph glyph-name="uni1EA7" unicode="&#x1ea7;" horiz-adv-x="484" 
d="M423 650h-51l-86 154h62zM268 690l111 -154h-58l-82 115l-81 -115h-58l110 154h58zM225 -9q-54 0 -95.5 19.5t-64.5 53.5t-23 78t23.5 78t64.5 53t95 19q80 0 129 -40q6 -5 11 -10v58q0 60 -33 94t-91 34q-44 0 -75 -22t-43 -63h-57q9 41 33.5 71.5t61 47t80.5 16.5
q83 0 131.5 -48.5t48.5 -132.5v-297h-53v47q-6 -7 -14 -14q-49 -42 -129 -42zM231 39q61 0 97.5 29t36.5 75q0 47 -36.5 74.5t-97.5 27.5q-60 0 -96.5 -28t-36.5 -75t36.5 -75t96.5 -28z" />
    <glyph glyph-name="uni1EA8" unicode="&#x1ea8;" 
d="M373 1000h35q42 0 68 -21.5t26 -56.5q0 -21 -10.5 -39.5t-32 -35.5t-53.5 -31l-33 20q41 20 60.5 40.5t19.5 41.5q0 18 -12.5 28t-35.5 10h-32v44zM300 870l111 -154h-58l-82 115l-81 -115h-58l110 154h58zM70 0v454q0 60 25.5 106t71.5 72.5t105 26.5q60 0 105.5 -26.5
t71 -72.5t25.5 -106v-454h-57v26q0 108 -68.5 171t-195.5 63h-26v-260h-57zM127 314h13q130 0 209 -50q43 -28 68 -66v256q0 44 -18.5 77.5t-51 52.5t-75.5 19q-42 0 -75 -19t-51.5 -52.5t-18.5 -77.5v-140z" />
    <glyph glyph-name="uni1EA9" unicode="&#x1ea9;" horiz-adv-x="484" 
d="M332 834h35q43 0 68.5 -21.5t25.5 -56.5q0 -21 -10.5 -39.5t-32 -35.5t-53.5 -31l-33 20q42 20 61 40.5t19 41.5q0 18 -12.5 28t-34.5 10h-33v44zM268 690l111 -154h-58l-82 115l-81 -115h-58l110 154h58zM225 -9q-54 0 -95.5 19.5t-64.5 53.5t-23 78t23.5 78t64.5 53
t95 19q80 0 129 -40q6 -5 11 -10v58q0 60 -33 94t-91 34q-44 0 -75 -22t-43 -63h-57q9 41 33.5 71.5t61 47t80.5 16.5q83 0 131.5 -48.5t48.5 -132.5v-297h-53v47q-6 -7 -14 -14q-49 -42 -129 -42zM231 39q61 0 97.5 29t36.5 75q0 47 -36.5 74.5t-97.5 27.5q-60 0 -96.5 -28
t-36.5 -75t36.5 -75t96.5 -28z" />
    <glyph glyph-name="uni1EAA" unicode="&#x1eaa;" 
d="M128 905v70q0 41 19.5 64t53.5 23q24 0 41 -12t29 -28.5t22 -33.5t20 -29t23 -12q16 0 23 11t7 32v69h46v-69q0 -41 -19 -64.5t-54 -23.5q-24 0 -41 12t-29 28.5t-22 33.5t-20 29t-24 12q-29 0 -29 -42v-70h-46zM300 870l111 -154h-58l-82 115l-81 -115h-58l110 154h58z
M70 0v454q0 60 25.5 106t71.5 72.5t105 26.5q60 0 105.5 -26.5t71 -72.5t25.5 -106v-454h-57v26q0 108 -68.5 171t-195.5 63h-26v-260h-57zM127 314h13q130 0 209 -50q43 -28 68 -66v256q0 44 -18.5 77.5t-51 52.5t-75.5 19q-42 0 -75 -19t-51.5 -52.5t-18.5 -77.5v-140z
" />
    <glyph glyph-name="uni1EAB" unicode="&#x1eab;" horiz-adv-x="484" 
d="M97 729v70q0 41 19.5 64t53.5 23q24 0 41 -12t29 -28.5t22 -33.5t20 -29t24 -12q15 0 22 11t7 32v69h46v-69q0 -41 -19 -64.5t-54 -23.5q-24 0 -41 12t-29 28.5t-22 33.5t-20 29t-23 12q-30 0 -30 -42v-70h-46zM268 690l111 -154h-58l-82 115l-81 -115h-58l110 154h58z
M225 -9q-54 0 -95.5 19.5t-64.5 53.5t-23 78t23.5 78t64.5 53t95 19q80 0 129 -40q6 -5 11 -10v58q0 60 -33 94t-91 34q-44 0 -75 -22t-43 -63h-57q9 41 33.5 71.5t61 47t80.5 16.5q83 0 131.5 -48.5t48.5 -132.5v-297h-53v47q-6 -7 -14 -14q-49 -42 -129 -42zM231 39
q61 0 97.5 29t36.5 75q0 47 -36.5 74.5t-97.5 27.5q-60 0 -96.5 -28t-36.5 -75t36.5 -75t96.5 -28z" />
    <glyph glyph-name="uni1EAC" unicode="&#x1eac;" 
d="M301 871l111 -155h-59l-81 116l-81 -116h-58l110 155h58zM70 0v454q0 60 25.5 106t71.5 72.5t105 26.5q60 0 105.5 -26.5t71 -72.5t25.5 -106v-454h-57v26q0 108 -68.5 171t-195.5 63h-26v-260h-57zM127 314h13q130 0 209 -50q43 -28 68 -66v256q0 44 -18.5 77.5
t-51 52.5t-75.5 19q-42 0 -75 -19t-51.5 -52.5t-18.5 -77.5v-140zM273 -152q-20 0 -33 13t-13 32q0 20 13 33t33 13q21 0 33.5 -13t12.5 -33q0 -19 -12.5 -32t-33.5 -13z" />
    <glyph glyph-name="uni1EAD" unicode="&#x1ead;" horiz-adv-x="484" 
d="M268 690l111 -154h-58l-82 115l-81 -115h-58l110 154h58zM225 -9q-54 0 -95.5 19.5t-64.5 53.5t-23 78t23.5 78t64.5 53t95 19q80 0 129 -40q6 -5 11 -10v58q0 60 -33 94t-91 34q-44 0 -75 -22t-43 -63h-57q9 41 33.5 71.5t61 47t80.5 16.5q83 0 131.5 -48.5t48.5 -132.5
v-297h-53v47q-6 -7 -14 -14q-49 -42 -129 -42zM231 39q61 0 97.5 29t36.5 75q0 47 -36.5 74.5t-97.5 27.5q-60 0 -96.5 -28t-36.5 -75t36.5 -75t96.5 -28zM242 -152q-20 0 -33 13t-13 32q0 20 13 33t33 13q21 0 33.5 -13t12.5 -33q0 -19 -12.5 -32t-33.5 -13z" />
    <glyph glyph-name="uni1EAE" unicode="&#x1eae;" 
d="M248 878l76 155h61l-86 -155h-51zM272 758q42 0 66 22t24 64v24h47v-24q0 -64 -37 -97.5t-100 -33.5q-64 0 -100.5 33.5t-36.5 97.5v24h46v-24q0 -42 24 -64t67 -22zM70 0v454q0 60 25.5 106t71.5 72.5t105 26.5q60 0 105.5 -26.5t71 -72.5t25.5 -106v-454h-57v26
q0 108 -68.5 171t-195.5 63h-26v-260h-57zM127 314h13q130 0 209 -50q43 -28 68 -66v256q0 44 -18.5 77.5t-51 52.5t-75.5 19q-42 0 -75 -19t-51.5 -52.5t-18.5 -77.5v-140z" />
    <glyph glyph-name="uni1EAF" unicode="&#x1eaf;" horiz-adv-x="484" 
d="M209 688l76 155h62l-87 -155h-51zM236 579q42 0 66.5 22t24.5 63v24h46v-24q0 -63 -37 -97t-100 -34t-100 34t-37 97v24h46v-24q0 -41 24 -63t67 -22zM225 -9q-54 0 -95.5 19.5t-64.5 53.5t-23 78t23.5 78t64.5 53t95 19q80 0 129 -40q6 -5 11 -10v58q0 60 -33 94t-91 34
q-44 0 -75 -22t-43 -63h-57q9 41 33.5 71.5t61 47t80.5 16.5q83 0 131.5 -48.5t48.5 -132.5v-297h-53v47q-6 -7 -14 -14q-49 -42 -129 -42zM231 39q61 0 97.5 29t36.5 75q0 47 -36.5 74.5t-97.5 27.5q-60 0 -96.5 -28t-36.5 -75t36.5 -75t96.5 -28z" />
    <glyph glyph-name="uni1EB0" unicode="&#x1eb0;" 
d="M300 878h-51l-86 155h62zM272 758q42 0 66 22t24 64v24h47v-24q0 -64 -37 -97.5t-100 -33.5q-64 0 -100.5 33.5t-36.5 97.5v24h46v-24q0 -42 24 -64t67 -22zM70 0v454q0 60 25.5 106t71.5 72.5t105 26.5q60 0 105.5 -26.5t71 -72.5t25.5 -106v-454h-57v26
q0 108 -68.5 171t-195.5 63h-26v-260h-57zM127 314h13q130 0 209 -50q43 -28 68 -66v256q0 44 -18.5 77.5t-51 52.5t-75.5 19q-42 0 -75 -19t-51.5 -52.5t-18.5 -77.5v-140z" />
    <glyph glyph-name="uni1EB1" unicode="&#x1eb1;" horiz-adv-x="484" 
d="M264 688h-51l-86 155h61zM236 579q42 0 66.5 22t24.5 63v24h46v-24q0 -63 -37 -97t-100 -34t-100 34t-37 97v24h46v-24q0 -41 24 -63t67 -22zM225 -9q-54 0 -95.5 19.5t-64.5 53.5t-23 78t23.5 78t64.5 53t95 19q80 0 129 -40q6 -5 11 -10v58q0 60 -33 94t-91 34
q-44 0 -75 -22t-43 -63h-57q9 41 33.5 71.5t61 47t80.5 16.5q83 0 131.5 -48.5t48.5 -132.5v-297h-53v47q-6 -7 -14 -14q-49 -42 -129 -42zM231 39q61 0 97.5 29t36.5 75q0 47 -36.5 74.5t-97.5 27.5q-60 0 -96.5 -28t-36.5 -75t36.5 -75t96.5 -28z" />
    <glyph glyph-name="uni1EB2" unicode="&#x1eb2;" 
d="M213 1046h36q42 0 67.5 -21t25.5 -56q0 -21 -10.5 -39.5t-32 -35.5t-53.5 -31l-33 20q42 19 61 39.5t19 42.5q0 18 -12 27.5t-35 9.5h-33v44zM272 758q42 0 66 22t24 64v24h47v-24q0 -64 -37 -97.5t-100 -33.5q-64 0 -100.5 33.5t-36.5 97.5v24h46v-24q0 -42 24 -64
t67 -22zM70 0v454q0 60 25.5 106t71.5 72.5t105 26.5q60 0 105.5 -26.5t71 -72.5t25.5 -106v-454h-57v26q0 108 -68.5 171t-195.5 63h-26v-260h-57zM127 314h13q130 0 209 -50q43 -28 68 -66v256q0 44 -18.5 77.5t-51 52.5t-75.5 19q-42 0 -75 -19t-51.5 -52.5t-18.5 -77.5
v-140z" />
    <glyph glyph-name="uni1EB3" unicode="&#x1eb3;" horiz-adv-x="484" 
d="M172 874h35q42 0 67.5 -21t25.5 -56q0 -21 -10.5 -39.5t-31.5 -35.5t-53 -31l-33 20q41 20 60 40t19 42q0 18 -12 28t-35 10h-32v43zM236 579q42 0 66.5 22t24.5 63v24h46v-24q0 -63 -37 -97t-100 -34t-100 34t-37 97v24h46v-24q0 -41 24 -63t67 -22zM225 -9
q-54 0 -95.5 19.5t-64.5 53.5t-23 78t23.5 78t64.5 53t95 19q80 0 129 -40q6 -5 11 -10v58q0 60 -33 94t-91 34q-44 0 -75 -22t-43 -63h-57q9 41 33.5 71.5t61 47t80.5 16.5q83 0 131.5 -48.5t48.5 -132.5v-297h-53v47q-6 -7 -14 -14q-49 -42 -129 -42zM231 39q61 0 97.5 29
t36.5 75q0 47 -36.5 74.5t-97.5 27.5q-60 0 -96.5 -28t-36.5 -75t36.5 -75t96.5 -28z" />
    <glyph glyph-name="uni1EB4" unicode="&#x1eb4;" 
d="M128 905v70q0 41 19.5 64t53.5 23q24 0 41 -12t29 -28.5t22 -33.5t20 -29t23 -12q16 0 23 11t7 32v69h46v-69q0 -41 -19 -64.5t-54 -23.5q-24 0 -41 12t-29 28.5t-22 33.5t-20 29t-24 12q-29 0 -29 -42v-70h-46zM272 758q42 0 66 22t24 64v24h47v-24q0 -64 -37 -97.5
t-100 -33.5q-64 0 -100.5 33.5t-36.5 97.5v24h46v-24q0 -42 24 -64t67 -22zM70 0v454q0 60 25.5 106t71.5 72.5t105 26.5q60 0 105.5 -26.5t71 -72.5t25.5 -106v-454h-57v26q0 108 -68.5 171t-195.5 63h-26v-260h-57zM127 314h13q130 0 209 -50q43 -28 68 -66v256
q0 44 -18.5 77.5t-51 52.5t-75.5 19q-42 0 -75 -19t-51.5 -52.5t-18.5 -77.5v-140z" />
    <glyph glyph-name="uni1EB5" unicode="&#x1eb5;" horiz-adv-x="484" 
d="M94 728v69q0 42 19.5 65t53.5 23q24 0 41 -12t29 -28.5t22 -33.5t20 -29t24 -12q15 0 22 11t7 31v70h46v-70q0 -41 -19 -64t-54 -23q-24 0 -41 11.5t-29 28.5t-22 34t-20 28.5t-23 11.5q-30 0 -30 -42v-69h-46zM236 579q42 0 66.5 22t24.5 63v24h46v-24q0 -63 -37 -97
t-100 -34t-100 34t-37 97v24h46v-24q0 -41 24 -63t67 -22zM225 -9q-54 0 -95.5 19.5t-64.5 53.5t-23 78t23.5 78t64.5 53t95 19q80 0 129 -40q6 -5 11 -10v58q0 60 -33 94t-91 34q-44 0 -75 -22t-43 -63h-57q9 41 33.5 71.5t61 47t80.5 16.5q83 0 131.5 -48.5t48.5 -132.5
v-297h-53v47q-6 -7 -14 -14q-49 -42 -129 -42zM231 39q61 0 97.5 29t36.5 75q0 47 -36.5 74.5t-97.5 27.5q-60 0 -96.5 -28t-36.5 -75t36.5 -75t96.5 -28z" />
    <glyph glyph-name="uni1EB6" unicode="&#x1eb6;" 
d="M272 759q43 0 67 22t24 63v25h46v-25q0 -63 -36.5 -96.5t-100.5 -33.5q-63 0 -100 33.5t-37 96.5v25h47v-25q0 -41 23.5 -63t66.5 -22zM70 0v454q0 60 25.5 106t71.5 72.5t105 26.5q60 0 105.5 -26.5t71 -72.5t25.5 -106v-454h-57v26q0 108 -68.5 171t-195.5 63h-26v-260
h-57zM127 314h13q130 0 209 -50q43 -28 68 -66v256q0 44 -18.5 77.5t-51 52.5t-75.5 19q-42 0 -75 -19t-51.5 -52.5t-18.5 -77.5v-140zM273 -152q-20 0 -33 13t-13 32q0 20 13 33t33 13q21 0 33.5 -13t12.5 -33q0 -19 -12.5 -32t-33.5 -13z" />
    <glyph glyph-name="uni1EB7" unicode="&#x1eb7;" horiz-adv-x="484" 
d="M241 579q43 0 67 22t24 63v24h46v-24q0 -63 -37 -97t-100 -34t-100 34t-37 97v24h47v-24q0 -41 23.5 -63t66.5 -22zM225 -9q-54 0 -95.5 19.5t-64.5 53.5t-23 78t23.5 78t64.5 53t95 19q80 0 129 -40q6 -5 11 -10v58q0 60 -33 94t-91 34q-44 0 -75 -22t-43 -63h-57
q9 41 33.5 71.5t61 47t80.5 16.5q83 0 131.5 -48.5t48.5 -132.5v-297h-53v47q-6 -7 -14 -14q-49 -42 -129 -42zM231 39q61 0 97.5 29t36.5 75q0 47 -36.5 74.5t-97.5 27.5q-60 0 -96.5 -28t-36.5 -75t36.5 -75t96.5 -28zM242 -152q-20 0 -33 13t-13 32q0 20 13 33t33 13
q21 0 33.5 -13t12.5 -33q0 -19 -12.5 -32t-33.5 -13z" />
    <glyph glyph-name="uni1EB8" unicode="&#x1eb8;" horiz-adv-x="452" 
d="M79 0v650h331v-53h-274v-348q31 48 84 76q61 32 145 32h13v-53h-13q-107 0 -168 -58t-61 -159v-33h274v-54h-331zM227 -152q-21 0 -33.5 13t-12.5 32q0 20 12.5 33t33.5 13q20 0 33 -13t13 -33q0 -19 -13 -32t-33 -13z" />
    <glyph glyph-name="uni1EB9" unicode="&#x1eb9;" horiz-adv-x="549" 
d="M281 -9q-66 0 -121 32.5t-87 88t-32 123.5q0 66 32 121.5t87 88.5t121 33q65 0 117 -29t82.5 -79.5t30.5 -114.5v-19h-414v-7q0 -52 25.5 -94.5t67.5 -67.5t91 -25q55 0 99 25t71 72h56q-19 -45 -52.5 -78t-77.5 -51.5t-96 -18.5zM455 282q-4 36 -22 65q-24 38 -63.5 60
t-88.5 22t-91 -25.5t-68 -67.5q-16 -25 -22 -54h355zM275 -152q-20 0 -33 13t-13 32q0 20 13 33t33 13q21 0 33.5 -13t12.5 -33q0 -19 -12.5 -32t-33.5 -13z" />
    <glyph glyph-name="uni1EBA" unicode="&#x1eba;" horiz-adv-x="452" 
d="M180 876h35q42 0 68 -21t26 -56q0 -21 -10.5 -39.5t-32 -35.5t-53.5 -31l-33 20q41 20 60.5 40.5t19.5 41.5q0 18 -12.5 28t-35.5 10h-32v43zM79 0v650h331v-53h-274v-348q31 48 84 76q61 32 145 32h13v-53h-13q-107 0 -168 -58t-61 -159v-33h274v-54h-331z" />
    <glyph glyph-name="uni1EBB" unicode="&#x1ebb;" horiz-adv-x="549" 
d="M212 699h35q42 0 67.5 -21t25.5 -56q0 -21 -10.5 -39.5t-31.5 -35.5t-53 -31l-33 20q41 20 60 40.5t19 41.5q0 18 -12 28t-35 10h-32v43zM281 -9q-66 0 -121 32.5t-87 88t-32 123.5q0 66 32 121.5t87 88.5t121 33q65 0 117 -29t82.5 -79.5t30.5 -114.5v-19h-414v-7
q0 -52 25.5 -94.5t67.5 -67.5t91 -25q55 0 99 25t71 72h56q-19 -45 -52.5 -78t-77.5 -51.5t-96 -18.5zM455 282q-4 36 -22 65q-24 38 -63.5 60t-88.5 22t-91 -25.5t-68 -67.5q-16 -25 -22 -54h355z" />
    <glyph glyph-name="uni1EBC" unicode="&#x1ebc;" horiz-adv-x="452" 
d="M102 716v70q0 42 19.5 64.5t53.5 22.5q24 0 41 -11.5t29.5 -28.5t22 -34t19.5 -28.5t24 -11.5q15 0 22.5 10.5t7.5 31.5v70h45v-70q0 -41 -19 -64t-54 -23q-24 0 -40.5 11.5t-28.5 28.5t-22.5 34t-20.5 28.5t-23 11.5q-30 0 -30 -42v-70h-46zM79 0v650h331v-53h-274v-348
q31 48 84 76q61 32 145 32h13v-53h-13q-107 0 -168 -58t-61 -159v-33h274v-54h-331z" />
    <glyph glyph-name="uni1EBD" unicode="&#x1ebd;" horiz-adv-x="549" 
d="M133 536v70q0 41 19.5 64t53.5 23q24 0 40.5 -11.5t29 -28.5t22.5 -34t20 -28.5t23 -11.5q15 0 22.5 10.5t7.5 31.5v69h46v-69q0 -41 -19 -64.5t-54 -23.5q-24 0 -41 12t-29 28.5t-22 33.5t-20 29t-24 12q-30 0 -30 -42v-70h-45zM281 -9q-66 0 -121 32.5t-87 88
t-32 123.5q0 66 32 121.5t87 88.5t121 33q65 0 117 -29t82.5 -79.5t30.5 -114.5v-19h-414v-7q0 -52 25.5 -94.5t67.5 -67.5t91 -25q55 0 99 25t71 72h56q-19 -45 -52.5 -78t-77.5 -51.5t-96 -18.5zM455 282q-4 36 -22 65q-24 38 -63.5 60t-88.5 22t-91 -25.5t-68 -67.5
q-16 -25 -22 -54h355z" />
    <glyph glyph-name="uni1EBE" unicode="&#x1ebe;" horiz-adv-x="452" 
d="M353 841l75 154h62l-86 -154h-51zM270 870l111 -154h-58l-82 115l-81 -115h-58l110 154h58zM79 0v650h331v-53h-274v-348q31 48 84 76q61 32 145 32h13v-53h-13q-107 0 -168 -58t-61 -159v-33h274v-54h-331z" />
    <glyph glyph-name="uni1EBF" unicode="&#x1ebf;" horiz-adv-x="549" 
d="M403 650l76 154h61l-86 -154h-51zM309 690l111 -154h-59l-81 115l-82 -115h-58l111 154h58zM281 -9q-66 0 -121 32.5t-87 88t-32 123.5q0 66 32 121.5t87 88.5t121 33q65 0 117 -29t82.5 -79.5t30.5 -114.5v-19h-414v-7q0 -52 25.5 -94.5t67.5 -67.5t91 -25q55 0 99 25
t71 72h56q-19 -45 -52.5 -78t-77.5 -51.5t-96 -18.5zM455 282q-4 36 -22 65q-24 38 -63.5 60t-88.5 22t-91 -25.5t-68 -67.5q-16 -25 -22 -54h355z" />
    <glyph glyph-name="uni1EC0" unicode="&#x1ec0;" horiz-adv-x="452" 
d="M407 841h-51l-86 154h61zM270 870l111 -154h-58l-82 115l-81 -115h-58l110 154h58zM79 0v650h331v-53h-274v-348q31 48 84 76q61 32 145 32h13v-53h-13q-107 0 -168 -58t-61 -159v-33h274v-54h-331z" />
    <glyph glyph-name="uni1EC1" unicode="&#x1ec1;" horiz-adv-x="549" 
d="M464 650h-51l-86 154h62zM309 690l111 -154h-59l-81 115l-82 -115h-58l111 154h58zM281 -9q-66 0 -121 32.5t-87 88t-32 123.5q0 66 32 121.5t87 88.5t121 33q65 0 117 -29t82.5 -79.5t30.5 -114.5v-19h-414v-7q0 -52 25.5 -94.5t67.5 -67.5t91 -25q55 0 99 25t71 72h56
q-19 -45 -52.5 -78t-77.5 -51.5t-96 -18.5zM455 282q-4 36 -22 65q-24 38 -63.5 60t-88.5 22t-91 -25.5t-68 -67.5q-16 -25 -22 -54h355z" />
    <glyph glyph-name="uni1EC2" unicode="&#x1ec2;" horiz-adv-x="452" 
d="M345 1000h36q42 0 67.5 -21.5t25.5 -56.5q0 -21 -10.5 -39.5t-32 -35.5t-53.5 -31l-33 20q42 20 61 40.5t19 41.5q0 18 -12 28t-35 10h-33v44zM270 870l111 -154h-58l-82 115l-81 -115h-58l110 154h58zM79 0v650h331v-53h-274v-348q31 48 84 76q61 32 145 32h13v-53h-13
q-107 0 -168 -58t-61 -159v-33h274v-54h-331z" />
    <glyph glyph-name="uni1EC3" unicode="&#x1ec3;" horiz-adv-x="549" 
d="M373 834h35q43 0 68.5 -21.5t25.5 -56.5q0 -21 -10.5 -39.5t-32 -35.5t-53.5 -31l-33 20q42 20 61 40.5t19 41.5q0 18 -12.5 28t-34.5 10h-33v44zM309 690l111 -154h-59l-81 115l-82 -115h-58l111 154h58zM281 -9q-66 0 -121 32.5t-87 88t-32 123.5q0 66 32 121.5
t87 88.5t121 33q65 0 117 -29t82.5 -79.5t30.5 -114.5v-19h-414v-7q0 -52 25.5 -94.5t67.5 -67.5t91 -25q55 0 99 25t71 72h56q-19 -45 -52.5 -78t-77.5 -51.5t-96 -18.5zM455 282q-4 36 -22 65q-24 38 -63.5 60t-88.5 22t-91 -25.5t-68 -67.5q-16 -25 -22 -54h355z" />
    <glyph glyph-name="uni1EC4" unicode="&#x1ec4;" horiz-adv-x="452" 
d="M100 904v70q0 42 19.5 64.5t53.5 22.5q24 0 40.5 -11.5t29 -28.5t22 -34t20 -28.5t23.5 -11.5q15 0 22.5 10.5t7.5 31.5v70h46v-70q0 -41 -19.5 -64t-53.5 -23q-24 0 -41 11.5t-29 28.5t-22 34t-20 28.5t-24 11.5q-30 0 -30 -42v-70h-45zM270 870l111 -154h-58l-82 115
l-81 -115h-58l110 154h58zM79 0v650h331v-53h-274v-348q31 48 84 76q61 32 145 32h13v-53h-13q-107 0 -168 -58t-61 -159v-33h274v-54h-331z" />
    <glyph glyph-name="uni1EC5" unicode="&#x1ec5;" horiz-adv-x="549" 
d="M137 730v70q0 42 19.5 64.5t53.5 22.5q25 0 41.5 -11.5t29 -28.5t22 -34t20 -28.5t23.5 -11.5q15 0 22.5 10.5t7.5 31.5v70h46v-70q0 -41 -19.5 -64.5t-53.5 -23.5q-25 0 -41.5 12t-28.5 29t-22 33.5t-20 28.5t-24 12q-30 0 -30 -42v-70h-46zM309 690l111 -154h-59
l-81 115l-82 -115h-58l111 154h58zM281 -9q-66 0 -121 32.5t-87 88t-32 123.5q0 66 32 121.5t87 88.5t121 33q65 0 117 -29t82.5 -79.5t30.5 -114.5v-19h-414v-7q0 -52 25.5 -94.5t67.5 -67.5t91 -25q55 0 99 25t71 72h56q-19 -45 -52.5 -78t-77.5 -51.5t-96 -18.5zM455 282
q-4 36 -22 65q-24 38 -63.5 60t-88.5 22t-91 -25.5t-68 -67.5q-16 -25 -22 -54h355z" />
    <glyph glyph-name="uni1EC6" unicode="&#x1ec6;" horiz-adv-x="452" 
d="M270 870l111 -154h-58l-82 115l-81 -115h-58l110 154h58zM79 0v650h331v-53h-274v-348q31 48 84 76q61 32 145 32h13v-53h-13q-107 0 -168 -58t-61 -159v-33h274v-54h-331zM227 -152q-21 0 -33.5 13t-12.5 32q0 20 12.5 33t33.5 13q20 0 33 -13t13 -33q0 -19 -13 -32
t-33 -13z" />
    <glyph glyph-name="uni1EC7" unicode="&#x1ec7;" horiz-adv-x="549" 
d="M309 690l111 -154h-59l-81 115l-82 -115h-58l111 154h58zM281 -9q-66 0 -121 32.5t-87 88t-32 123.5q0 66 32 121.5t87 88.5t121 33q65 0 117 -29t82.5 -79.5t30.5 -114.5v-19h-414v-7q0 -52 25.5 -94.5t67.5 -67.5t91 -25q55 0 99 25t71 72h56q-19 -45 -52.5 -78
t-77.5 -51.5t-96 -18.5zM455 282q-4 36 -22 65q-24 38 -63.5 60t-88.5 22t-91 -25.5t-68 -67.5q-16 -25 -22 -54h355zM275 -152q-20 0 -33 13t-13 32q0 20 13 33t33 13q21 0 33.5 -13t12.5 -33q0 -19 -12.5 -32t-33.5 -13z" />
    <glyph glyph-name="uni1EC8" unicode="&#x1ec8;" horiz-adv-x="214" 
d="M43 873h35q42 0 68 -21t26 -56q0 -21 -10.5 -39.5t-32 -35.5t-53.5 -31l-33 20q41 19 60 39.5t19 42.5q0 18 -12 28t-35 10h-32v43zM136 0h-57v650h57v-650z" />
    <glyph glyph-name="uni1EC9" unicode="&#x1ec9;" horiz-adv-x="186" 
d="M28 701h36q42 0 67.5 -21t25.5 -56q0 -21 -10.5 -39.5t-32 -35.5t-53.5 -31l-33 20q42 19 61 39.5t19 42.5q0 18 -12 28t-35 10h-33v43zM65 470h56v-470h-56v470z" />
    <glyph glyph-name="uni1ECA" unicode="&#x1eca;" horiz-adv-x="214" 
d="M136 0h-57v650h57v-650zM108 -152q-21 0 -33.5 13t-12.5 32q0 20 12.5 33t33.5 13t33.5 -13t12.5 -33q0 -19 -12.5 -32t-33.5 -13z" />
    <glyph glyph-name="uni1ECB" unicode="&#x1ecb;" horiz-adv-x="186" 
d="M93 558q-18 0 -29 11t-11 29q0 17 11 28t29 11t29 -11t11 -28q0 -18 -11 -29t-29 -11zM65 470h56v-470h-56v470zM93 -152q-20 0 -33 13t-13 32q0 20 13 33t33 13q21 0 33.5 -13t12.5 -33q0 -19 -12.5 -32t-33.5 -13z" />
    <glyph glyph-name="uni1ECC" unicode="&#x1ecc;" horiz-adv-x="754" 
d="M43 325q0 70 25.5 130t71.5 106t106.5 72t130.5 26q69 0 129.5 -26t106.5 -72t72 -106t26 -130t-26 -130.5t-72 -106.5t-106.5 -71.5t-129.5 -25.5t-129.5 25.5t-106.5 71.5t-72 106.5t-26 130.5zM101 325q0 -58 22 -108.5t59.5 -89.5t87.5 -60.5t107 -21.5
q56 0 106 21.5t88 60.5t59.5 89.5t21.5 108.5t-21.5 109t-59.5 89.5t-88 60t-106 21.5q-57 0 -107 -21.5t-87.5 -60t-59.5 -89.5t-22 -109zM378 -152q-21 0 -33.5 13t-12.5 32q0 20 12.5 33t33.5 13q20 0 33 -13t13 -33q0 -19 -13 -32t-33 -13z" />
    <glyph glyph-name="uni1ECD" unicode="&#x1ecd;" horiz-adv-x="573" 
d="M286 -9q-68 0 -124 32.5t-88.5 88t-32.5 123.5t32.5 123t88.5 87.5t124 32.5q70 0 125.5 -32.5t88 -87.5t32.5 -123t-32.5 -123.5t-88 -88t-125.5 -32.5zM286 428q-52 0 -95 -26t-68.5 -70t-25.5 -97t25.5 -97t68.5 -70t96 -26q52 0 95 26t68.5 70t25.5 97t-25.5 97
t-68.5 70t-96 26zM287 -152q-20 0 -33 13t-13 32q0 20 13 33t33 13q21 0 33.5 -13t12.5 -33q0 -19 -12.5 -32t-33.5 -13z" />
    <glyph glyph-name="uni1ECE" unicode="&#x1ece;" horiz-adv-x="754" 
d="M312 889h35q42 0 68 -21t26 -56q0 -21 -10.5 -39.5t-32 -35.5t-53.5 -31l-33 20q41 20 60.5 40t19.5 42q0 18 -12.5 28t-35.5 10h-32v43zM43 325q0 70 25.5 130t71.5 106t106.5 72t130.5 26q69 0 129.5 -26t106.5 -72t72 -106t26 -130t-26 -130.5t-72 -106.5
t-106.5 -71.5t-129.5 -25.5t-129.5 25.5t-106.5 71.5t-72 106.5t-26 130.5zM101 325q0 -58 22 -108.5t59.5 -89.5t87.5 -60.5t107 -21.5q56 0 106 21.5t88 60.5t59.5 89.5t21.5 108.5t-21.5 109t-59.5 89.5t-88 60t-106 21.5q-57 0 -107 -21.5t-87.5 -60t-59.5 -89.5
t-22 -109z" />
    <glyph glyph-name="uni1ECF" unicode="&#x1ecf;" horiz-adv-x="573" 
d="M226 703h35q42 0 67.5 -21.5t25.5 -56.5q0 -21 -10.5 -39.5t-31.5 -35.5t-53 -31l-33 20q41 20 60 40.5t19 41.5q0 18 -12 28t-35 10h-32v44zM286 -9q-68 0 -124 32.5t-88.5 88t-32.5 123.5t32.5 123t88.5 87.5t124 32.5q70 0 125.5 -32.5t88 -87.5t32.5 -123
t-32.5 -123.5t-88 -88t-125.5 -32.5zM286 428q-52 0 -95 -26t-68.5 -70t-25.5 -97t25.5 -97t68.5 -70t96 -26q52 0 95 26t68.5 70t25.5 97t-25.5 97t-68.5 70t-96 26z" />
    <glyph glyph-name="uni1ED0" unicode="&#x1ed0;" horiz-adv-x="754" 
d="M491 841l75 154h62l-86 -154h-51zM406 870l111 -154h-59l-82 115l-81 -115h-58l110 154h59zM43 325q0 70 25.5 130t71.5 106t106.5 72t130.5 26q69 0 129.5 -26t106.5 -72t72 -106t26 -130t-26 -130.5t-72 -106.5t-106.5 -71.5t-129.5 -25.5t-129.5 25.5t-106.5 71.5
t-72 106.5t-26 130.5zM101 325q0 -58 22 -108.5t59.5 -89.5t87.5 -60.5t107 -21.5q56 0 106 21.5t88 60.5t59.5 89.5t21.5 108.5t-21.5 109t-59.5 89.5t-88 60t-106 21.5q-57 0 -107 -21.5t-87.5 -60t-59.5 -89.5t-22 -109z" />
    <glyph glyph-name="uni1ED1" unicode="&#x1ed1;" horiz-adv-x="573" 
d="M410 650l76 154h61l-86 -154h-51zM315 690l111 -154h-59l-81 115l-81 -115h-58l110 154h58zM286 -9q-68 0 -124 32.5t-88.5 88t-32.5 123.5t32.5 123t88.5 87.5t124 32.5q70 0 125.5 -32.5t88 -87.5t32.5 -123t-32.5 -123.5t-88 -88t-125.5 -32.5zM286 428q-52 0 -95 -26
t-68.5 -70t-25.5 -97t25.5 -97t68.5 -70t95 -26q53 0 96 26t68.5 70t25.5 97t-25.5 97t-68.5 70t-96 26z" />
    <glyph glyph-name="uni1ED2" unicode="&#x1ed2;" horiz-adv-x="754" 
d="M539 844h-51l-86 155h61zM406 870l111 -154h-59l-82 115l-81 -115h-58l110 154h59zM43 325q0 70 25.5 130t71.5 106t106.5 72t130.5 26q69 0 129.5 -26t106.5 -72t72 -106t26 -130t-26 -130.5t-72 -106.5t-106.5 -71.5t-129.5 -25.5t-129.5 25.5t-106.5 71.5t-72 106.5
t-26 130.5zM101 325q0 -58 22 -108.5t59.5 -89.5t87.5 -60.5t107 -21.5q56 0 106 21.5t88 60.5t59.5 89.5t21.5 108.5t-21.5 109t-59.5 89.5t-88 60t-106 21.5q-57 0 -107 -21.5t-87.5 -60t-59.5 -89.5t-22 -109z" />
    <glyph glyph-name="uni1ED3" unicode="&#x1ed3;" horiz-adv-x="573" 
d="M468 650h-51l-86 154h62zM315 690l111 -154h-59l-81 115l-81 -115h-58l110 154h58zM286 -9q-68 0 -124 32.5t-88.5 88t-32.5 123.5t32.5 123t88.5 87.5t124 32.5q70 0 125.5 -32.5t88 -87.5t32.5 -123t-32.5 -123.5t-88 -88t-125.5 -32.5zM286 428q-52 0 -95 -26
t-68.5 -70t-25.5 -97t25.5 -97t68.5 -70t95 -26q53 0 96 26t68.5 70t25.5 97t-25.5 97t-68.5 70t-96 26z" />
    <glyph glyph-name="uni1ED4" unicode="&#x1ed4;" horiz-adv-x="754" 
d="M484 1000h35q42 0 67.5 -21.5t25.5 -56.5q0 -21 -10.5 -39.5t-31.5 -35.5t-53 -31l-33 20q41 20 60 40.5t19 41.5q0 18 -12 28t-35 10h-32v44zM406 870l111 -154h-59l-82 115l-81 -115h-58l110 154h59zM43 325q0 70 25.5 130t71.5 106t106.5 72t130.5 26q69 0 129.5 -26
t106.5 -72t72 -106t26 -130t-26 -130.5t-72 -106.5t-106.5 -71.5t-129.5 -25.5t-129.5 25.5t-106.5 71.5t-72 106.5t-26 130.5zM101 325q0 -58 22 -108.5t59.5 -89.5t87.5 -60.5t107 -21.5q56 0 106 21.5t88 60.5t59.5 89.5t21.5 108.5t-21.5 109t-59.5 89.5t-88 60
t-106 21.5q-57 0 -107 -21.5t-87.5 -60t-59.5 -89.5t-22 -109z" />
    <glyph glyph-name="uni1ED5" unicode="&#x1ed5;" horiz-adv-x="573" 
d="M383 834h35q42 0 67.5 -21.5t25.5 -56.5q0 -21 -10.5 -39.5t-32 -35.5t-52.5 -31l-33 20q41 20 60 40.5t19 41.5q0 18 -12 28t-35 10h-32v44zM315 690l111 -154h-59l-81 115l-81 -115h-58l110 154h58zM286 -9q-68 0 -124 32.5t-88.5 88t-32.5 123.5t32.5 123t88.5 87.5
t124 32.5q70 0 125.5 -32.5t88 -87.5t32.5 -123t-32.5 -123.5t-88 -88t-125.5 -32.5zM286 428q-52 0 -95 -26t-68.5 -70t-25.5 -97t25.5 -97t68.5 -70t95 -26q53 0 96 26t68.5 70t25.5 97t-25.5 97t-68.5 70t-96 26z" />
    <glyph glyph-name="uni1ED6" unicode="&#x1ed6;" horiz-adv-x="754" 
d="M235 904v70q0 42 19.5 64.5t53.5 22.5q24 0 41 -11.5t29 -28.5t22 -34t20 -28.5t23 -11.5q16 0 23 10.5t7 31.5v70h46v-70q0 -41 -19 -64t-54 -23q-24 0 -41 11.5t-29 28.5t-22 34t-20 28.5t-24 11.5q-29 0 -29 -42v-70h-46zM406 870l111 -154h-59l-82 115l-81 -115h-58
l110 154h59zM43 325q0 70 25.5 130t71.5 106t106.5 72t130.5 26q69 0 129.5 -26t106.5 -72t72 -106t26 -130t-26 -130.5t-72 -106.5t-106.5 -71.5t-129.5 -25.5t-129.5 25.5t-106.5 71.5t-72 106.5t-26 130.5zM101 325q0 -58 22 -108.5t59.5 -89.5t87.5 -60.5t107 -21.5
q56 0 106 21.5t88 60.5t59.5 89.5t21.5 108.5t-21.5 109t-59.5 89.5t-88 60t-106 21.5q-57 0 -107 -21.5t-87.5 -60t-59.5 -89.5t-22 -109z" />
    <glyph glyph-name="uni1ED7" unicode="&#x1ed7;" horiz-adv-x="573" 
d="M144 728v70q0 42 19.5 64.5t53.5 22.5q25 0 41.5 -11.5t29 -28.5t22 -34t19.5 -28.5t24 -11.5q15 0 22.5 11t7.5 31v70h46v-70q0 -41 -19.5 -64t-53.5 -23q-25 0 -41.5 11.5t-28.5 28.5t-22 34t-20.5 28.5t-23.5 11.5q-30 0 -30 -42v-70h-46zM315 690l111 -154h-59
l-81 115l-81 -115h-58l110 154h58zM286 -9q-68 0 -124 32.5t-88.5 88t-32.5 123.5t32.5 123t88.5 87.5t124 32.5q70 0 125.5 -32.5t88 -87.5t32.5 -123t-32.5 -123.5t-88 -88t-125.5 -32.5zM286 428q-52 0 -95 -26t-68.5 -70t-25.5 -97t25.5 -97t68.5 -70t95 -26q53 0 96 26
t68.5 70t25.5 97t-25.5 97t-68.5 70t-96 26z" />
    <glyph glyph-name="uni1ED8" unicode="&#x1ed8;" horiz-adv-x="754" 
d="M406 871l111 -155h-59l-82 116l-81 -116h-58l110 155h59zM43 325q0 70 25.5 130t71.5 106t106.5 72t130.5 26q69 0 129.5 -26t106.5 -72t72 -106t26 -130t-26 -130.5t-72 -106.5t-106.5 -71.5t-129.5 -25.5t-129.5 25.5t-106.5 71.5t-72 106.5t-26 130.5zM101 325
q0 -58 22 -108.5t59.5 -89.5t87.5 -60.5t107 -21.5q56 0 106 21.5t88 60.5t59.5 89.5t21.5 108.5t-21.5 109t-59.5 89.5t-88 60t-106 21.5q-57 0 -107 -21.5t-87.5 -60t-59.5 -89.5t-22 -109zM378 -152q-21 0 -33.5 13t-12.5 32q0 20 12.5 33t33.5 13q20 0 33 -13t13 -33
q0 -19 -13 -32t-33 -13z" />
    <glyph glyph-name="uni1ED9" unicode="&#x1ed9;" horiz-adv-x="573" 
d="M315 690l111 -154h-59l-81 115l-81 -115h-58l110 154h58zM286 -9q-68 0 -124 32.5t-88.5 88t-32.5 123.5t32.5 123t88.5 87.5t124 32.5q70 0 125.5 -32.5t88 -87.5t32.5 -123t-32.5 -123.5t-88 -88t-125.5 -32.5zM286 428q-52 0 -95 -26t-68.5 -70t-25.5 -97t25.5 -97
t68.5 -70t96 -26q52 0 95 26t68.5 70t25.5 97t-25.5 97t-68.5 70t-96 26zM287 -152q-20 0 -33 13t-13 32q0 20 13 33t33 13q21 0 33.5 -13t12.5 -33q0 -19 -12.5 -32t-33.5 -13z" />
    <glyph glyph-name="uni1EDA" unicode="&#x1eda;" horiz-adv-x="754" 
d="M308 716l76 155h62l-87 -155h-51zM43 325q0 70 25.5 130t71.5 106t106.5 72t130.5 26q40 0 77 -9q43 0 72 19t29 66v25h47v-25q0 -66 -39 -98q-13 -10 -28 -17q43 -24 78 -59q46 -46 72 -106t26 -130t-26 -130.5t-72 -106.5t-106.5 -71.5t-129.5 -25.5t-129.5 25.5
t-106.5 71.5t-72 106.5t-26 130.5zM101 325q0 -58 22 -108.5t59.5 -89.5t87.5 -60.5t107 -21.5q56 0 106 21.5t88 60.5t59.5 89.5t21.5 108.5t-21.5 109t-59.5 89.5t-88 60t-106 21.5q-57 0 -107 -21.5t-87.5 -60t-59.5 -89.5t-22 -109z" />
    <glyph glyph-name="uni1EDB" unicode="&#x1edb;" horiz-adv-x="573" 
d="M259 537l76 154h61l-86 -154h-51zM286 -9q-68 0 -124 32.5t-88.5 88t-32.5 123.5t32.5 123t88.5 87.5t124 32.5q36 0 68 -8q43 0 72 19t29 66v24h47v-24q0 -66 -40 -99q-15 -12 -35 -20q44 -31 72 -78q33 -55 33 -123t-32.5 -123.5t-88 -88t-125.5 -32.5zM286 428
q-52 0 -95 -26t-68.5 -70t-25.5 -97t25.5 -97t68.5 -70t96 -26q52 0 95 26t68.5 70t25.5 97t-25.5 97t-68.5 70t-96 26z" />
    <glyph glyph-name="uni1EDC" unicode="&#x1edc;" horiz-adv-x="754" 
d="M409 718h-51l-86 154h61zM43 325q0 70 25.5 130t71.5 106t106.5 72t130.5 26q40 0 77 -9q43 0 72 19t29 66v25h47v-25q0 -66 -39 -98q-13 -10 -28 -17q43 -24 78 -59q46 -46 72 -106t26 -130t-26 -130.5t-72 -106.5t-106.5 -71.5t-129.5 -25.5t-129.5 25.5t-106.5 71.5
t-72 106.5t-26 130.5zM101 325q0 -58 22 -108.5t59.5 -89.5t87.5 -60.5t107 -21.5q56 0 106 21.5t88 60.5t59.5 89.5t21.5 108.5t-21.5 109t-59.5 89.5t-88 60t-106 21.5q-57 0 -107 -21.5t-87.5 -60t-59.5 -89.5t-22 -109z" />
    <glyph glyph-name="uni1EDD" unicode="&#x1edd;" horiz-adv-x="573" 
d="M318 538h-51l-86 154h62zM286 -9q-68 0 -124 32.5t-88.5 88t-32.5 123.5t32.5 123t88.5 87.5t124 32.5q36 0 68 -8q43 0 72 19t29 66v24h47v-24q0 -66 -40 -99q-15 -12 -35 -20q44 -31 72 -78q33 -55 33 -123t-32.5 -123.5t-88 -88t-125.5 -32.5zM286 428q-52 0 -95 -26
t-68.5 -70t-25.5 -97t25.5 -97t68.5 -70t96 -26q52 0 95 26t68.5 70t25.5 97t-25.5 97t-68.5 70t-96 26z" />
    <glyph glyph-name="uni1EDE" unicode="&#x1ede;" horiz-adv-x="754" 
d="M312 881h35q42 0 68 -21t26 -56q0 -21 -10.5 -39.5t-32 -35.5t-53.5 -31l-33 20q41 19 60.5 39.5t19.5 42.5q0 18 -12.5 28t-35.5 10h-32v43zM43 325q0 70 25.5 130t71.5 106t106.5 72t130.5 26q40 0 77 -9q43 0 72 19t29 66v25h47v-25q0 -66 -39 -98q-13 -10 -28 -17
q43 -24 78 -59q46 -46 72 -106t26 -130t-26 -130.5t-72 -106.5t-106.5 -71.5t-129.5 -25.5t-129.5 25.5t-106.5 71.5t-72 106.5t-26 130.5zM101 325q0 -58 22 -108.5t59.5 -89.5t87.5 -60.5t107 -21.5q56 0 106 21.5t88 60.5t59.5 89.5t21.5 108.5t-21.5 109t-59.5 89.5
t-88 60t-106 21.5q-57 0 -107 -21.5t-87.5 -60t-59.5 -89.5t-22 -109z" />
    <glyph glyph-name="uni1EDF" unicode="&#x1edf;" horiz-adv-x="573" 
d="M221 704h36q42 0 67.5 -21t25.5 -56q0 -21 -10.5 -39.5t-32 -35.5t-52.5 -31l-34 20q42 20 61 40t19 42q0 18 -12 28t-35 10h-33v43zM286 -9q-68 0 -124 32.5t-88.5 88t-32.5 123.5t32.5 123t88.5 87.5t124 32.5q36 0 68 -8q43 0 72 19t29 66v24h47v-24q0 -66 -40 -99
q-15 -12 -35 -20q44 -31 72 -78q33 -55 33 -123t-32.5 -123.5t-88 -88t-125.5 -32.5zM286 428q-52 0 -95 -26t-68.5 -70t-25.5 -97t25.5 -97t68.5 -70t96 -26q52 0 95 26t68.5 70t25.5 97t-25.5 97t-68.5 70t-96 26z" />
    <glyph glyph-name="uni1EE0" unicode="&#x1ee0;" horiz-adv-x="754" 
d="M235 716v70q0 42 19.5 64.5t53.5 22.5q24 0 41 -11.5t29 -28.5t22 -34t20 -28.5t23 -11.5q16 0 23 10.5t7 31.5v70h46v-70q0 -41 -19 -64t-54 -23q-24 0 -41 11.5t-29 28.5t-22 34t-20 28.5t-24 11.5q-29 0 -29 -42v-70h-46zM43 325q0 70 25.5 130t71.5 106t106.5 72
t130.5 26q40 0 77 -9q43 0 72 19t29 66v25h47v-25q0 -66 -39 -98q-13 -10 -28 -17q43 -24 78 -59q46 -46 72 -106t26 -130t-26 -130.5t-72 -106.5t-106.5 -71.5t-129.5 -25.5t-129.5 25.5t-106.5 71.5t-72 106.5t-26 130.5zM101 325q0 -58 22 -108.5t59.5 -89.5t87.5 -60.5
t107 -21.5q56 0 106 21.5t88 60.5t59.5 89.5t21.5 108.5t-21.5 109t-59.5 89.5t-88 60t-106 21.5q-57 0 -107 -21.5t-87.5 -60t-59.5 -89.5t-22 -109z" />
    <glyph glyph-name="uni1EE1" unicode="&#x1ee1;" horiz-adv-x="573" 
d="M144 536v70q0 41 19.5 64t53.5 23q25 0 41.5 -11.5t29 -28.5t22 -34t19.5 -28.5t24 -11.5q15 0 22.5 10.5t7.5 31.5v69h46v-69q0 -41 -19.5 -64.5t-53.5 -23.5q-25 0 -41.5 12t-28.5 28.5t-22 33.5t-20.5 29t-23.5 12q-30 0 -30 -42v-70h-46zM286 -9q-68 0 -124 32.5
t-88.5 88t-32.5 123.5t32.5 123t88.5 87.5t124 32.5q36 0 68 -8q43 0 72 19t29 66v24h47v-24q0 -66 -40 -99q-15 -12 -35 -20q44 -31 72 -78q33 -55 33 -123t-32.5 -123.5t-88 -88t-125.5 -32.5zM286 428q-52 0 -95 -26t-68.5 -70t-25.5 -97t25.5 -97t68.5 -70t96 -26
q52 0 95 26t68.5 70t25.5 97t-25.5 97t-68.5 70t-96 26z" />
    <glyph glyph-name="uni1EE2" unicode="&#x1ee2;" horiz-adv-x="754" 
d="M43 325q0 70 25.5 130t71.5 106t106.5 72t130.5 26q40 0 77 -9q43 0 72 19t29 66v25h47v-25q0 -66 -39 -98q-13 -10 -28 -17q43 -24 78 -59q46 -46 72 -106t26 -130t-26 -130.5t-72 -106.5t-106.5 -71.5t-129.5 -25.5t-129.5 25.5t-106.5 71.5t-72 106.5t-26 130.5z
M101 325q0 -58 22 -108.5t59.5 -89.5t87.5 -60.5t107 -21.5q56 0 106 21.5t88 60.5t59.5 89.5t21.5 108.5t-21.5 109t-59.5 89.5t-88 60t-106 21.5q-57 0 -107 -21.5t-87.5 -60t-59.5 -89.5t-22 -109zM378 -152q-21 0 -33.5 13t-12.5 32q0 20 12.5 33t33.5 13q20 0 33 -13
t13 -33q0 -19 -13 -32t-33 -13z" />
    <glyph glyph-name="uni1EE3" unicode="&#x1ee3;" horiz-adv-x="573" 
d="M286 -9q-68 0 -124 32.5t-88.5 88t-32.5 123.5t32.5 123t88.5 87.5t124 32.5q36 0 68 -8q43 0 72 19t29 66v24h47v-24q0 -66 -40 -99q-15 -12 -35 -20q44 -31 72 -78q33 -55 33 -123t-32.5 -123.5t-88 -88t-125.5 -32.5zM286 428q-52 0 -95 -26t-68.5 -70t-25.5 -97
t25.5 -97t68.5 -70t96 -26q52 0 95 26t68.5 70t25.5 97t-25.5 97t-68.5 70t-96 26zM287 -152q-20 0 -33 13t-13 32q0 20 13 33t33 13q21 0 33.5 -13t12.5 -33q0 -19 -12.5 -32t-33.5 -13z" />
    <glyph glyph-name="uni1EE4" unicode="&#x1ee4;" horiz-adv-x="542" 
d="M272 46q41 0 73.5 18.5t51 51t18.5 72.5v462h57v-462q0 -58 -25 -102.5t-70.5 -69.5t-104.5 -25q-60 0 -105.5 25t-71 69.5t-25.5 102.5v462h57v-462q0 -40 19 -72.5t51.5 -51t74.5 -18.5zM272 -152q-20 0 -33 13t-13 32q0 20 13 33t33 13q21 0 33.5 -13t12.5 -33
q0 -19 -12.5 -32t-33.5 -13z" />
    <glyph glyph-name="uni1EE5" unicode="&#x1ee5;" horiz-adv-x="487" 
d="M63 470h56v-293q0 -62 33.5 -98.5t90.5 -36.5q58 0 91.5 36.5t33.5 98.5v293h56v-290q0 -88 -49 -138.5t-132 -50.5q-82 0 -131 50.5t-49 138.5v290zM244 -152q-20 0 -33 13t-13 32q0 20 13 33t33 13q21 0 33.5 -13t12.5 -33q0 -19 -12.5 -32t-33.5 -13z" />
    <glyph glyph-name="uni1EE6" unicode="&#x1ee6;" horiz-adv-x="542" 
d="M200 872h35q42 0 68 -21.5t26 -56.5q0 -21 -10.5 -39.5t-32 -35t-53.5 -31.5l-33 21q42 19 61 39.5t19 41.5q0 18 -12.5 28t-34.5 10h-33v44zM272 46q41 0 73.5 18.5t51 51t18.5 72.5v462h57v-462q0 -58 -25 -102.5t-70.5 -69.5t-104.5 -25q-60 0 -105.5 25t-71 69.5
t-25.5 102.5v462h57v-462q0 -40 19 -72.5t51.5 -51t74.5 -18.5z" />
    <glyph glyph-name="uni1EE7" unicode="&#x1ee7;" horiz-adv-x="487" 
d="M178 692h35q43 0 68.5 -21t25.5 -56q0 -21 -10.5 -39.5t-32 -35.5t-53.5 -31l-33 20q42 20 61 40t19 42q0 18 -12.5 28t-34.5 10h-33v43zM63 470h56v-293q0 -62 33.5 -98.5t90.5 -36.5q58 0 91.5 36.5t33.5 98.5v293h56v-290q0 -88 -49 -138.5t-132 -50.5
q-82 0 -131 50.5t-49 138.5v290z" />
    <glyph glyph-name="uni1EE8" unicode="&#x1ee8;" horiz-adv-x="542" 
d="M250 712l75 154h62l-86 -154h-51zM272 46q41 0 73.5 18.5t51 51t18.5 72.5v462q43 0 72 19t29 66v25h47v-25q0 -66 -40 -98q-21 -18 -51 -26v-423q0 -58 -25 -102.5t-70.5 -69.5t-104.5 -25q-60 0 -105.5 25t-71 69.5t-25.5 102.5v462h57v-462q0 -40 19 -72.5t51.5 -51
t74.5 -18.5z" />
    <glyph glyph-name="uni1EE9" unicode="&#x1ee9;" horiz-adv-x="487" 
d="M223 537l76 155h62l-87 -155h-51zM63 470h56v-293q0 -62 33.5 -98.5t90.5 -36.5q58 0 91.5 36.5t33.5 98.5v293q42 0 71.5 19t29.5 66v24h46v-24q0 -66 -39 -99q-22 -17 -52 -25v-251q0 -88 -49 -138.5t-132 -50.5q-82 0 -131 50.5t-49 138.5v290z" />
    <glyph glyph-name="uni1EEA" unicode="&#x1eea;" horiz-adv-x="542" 
d="M302 718h-51l-86 154h62zM272 46q41 0 73.5 18.5t51 51t18.5 72.5v462q43 0 72 19t29 66v25h47v-25q0 -66 -40 -98q-21 -18 -51 -26v-423q0 -58 -25 -102.5t-70.5 -69.5t-104.5 -25q-60 0 -105.5 25t-71 69.5t-25.5 102.5v462h57v-462q0 -40 19 -72.5t51.5 -51
t74.5 -18.5z" />
    <glyph glyph-name="uni1EEB" unicode="&#x1eeb;" horiz-adv-x="487" 
d="M276 537h-51l-86 154h62zM63 470h56v-293q0 -62 33.5 -98.5t90.5 -36.5q58 0 91.5 36.5t33.5 98.5v293q42 0 71.5 19t29.5 66v24h46v-24q0 -66 -39 -99q-22 -17 -52 -25v-251q0 -88 -49 -138.5t-132 -50.5q-82 0 -131 50.5t-49 138.5v290z" />
    <glyph glyph-name="uni1EEC" unicode="&#x1eec;" horiz-adv-x="542" 
d="M206 881h35q43 0 68.5 -21t25.5 -57q0 -21 -10.5 -39.5t-32 -35t-53.5 -31.5l-33 21q42 19 61 39.5t19 42.5q0 17 -12.5 27t-34.5 10h-33v44zM272 46q41 0 73.5 18.5t51 51t18.5 72.5v462q43 0 72 19t29 66v25h47v-25q0 -66 -40 -98q-21 -18 -51 -26v-423
q0 -58 -25 -102.5t-70.5 -69.5t-104.5 -25q-60 0 -105.5 25t-71 69.5t-25.5 102.5v462h57v-462q0 -40 19 -72.5t51.5 -51t74.5 -18.5z" />
    <glyph glyph-name="uni1EED" unicode="&#x1eed;" horiz-adv-x="487" 
d="M178 695h35q43 0 68.5 -21t25.5 -56q0 -21 -10.5 -39.5t-32 -35.5t-53.5 -31l-33 20q42 20 61 40t19 42q0 18 -12.5 28t-34.5 10h-33v43zM63 470h56v-293q0 -62 33.5 -98.5t90.5 -36.5q58 0 91.5 36.5t33.5 98.5v293q42 0 71.5 19t29.5 66v24h46v-24q0 -66 -39 -99
q-22 -17 -52 -25v-251q0 -88 -49 -138.5t-132 -50.5q-82 0 -131 50.5t-49 138.5v290z" />
    <glyph glyph-name="uni1EEE" unicode="&#x1eee;" horiz-adv-x="542" 
d="M130 716v70q0 42 19.5 64.5t53.5 22.5q24 0 40.5 -11.5t29 -28.5t22 -34t20 -28.5t23.5 -11.5q15 0 22.5 10.5t7.5 31.5v70h46v-70q0 -41 -19.5 -64t-53.5 -23q-24 0 -41 11.5t-29 28.5t-22 34t-20 28.5t-24 11.5q-30 0 -30 -42v-70h-45zM272 46q41 0 73.5 18.5t51 51
t18.5 72.5v462q43 0 72 19t29 66v25h47v-25q0 -66 -40 -98q-21 -18 -51 -26v-423q0 -58 -25 -102.5t-70.5 -69.5t-104.5 -25q-60 0 -105.5 25t-71 69.5t-25.5 102.5v462h57v-462q0 -40 19 -72.5t51.5 -51t74.5 -18.5z" />
    <glyph glyph-name="uni1EEF" unicode="&#x1eef;" horiz-adv-x="487" 
d="M101 536v70q0 41 19.5 64t53.5 23q25 0 41.5 -11.5t29 -28.5t22 -34t19.5 -28.5t24 -11.5q15 0 22.5 10.5t7.5 31.5v69h46v-69q0 -41 -19.5 -64.5t-54.5 -23.5q-24 0 -40.5 12t-28.5 28.5t-22 33.5t-20.5 29t-23.5 12q-30 0 -30 -42v-70h-46zM63 470h56v-293
q0 -62 33.5 -98.5t90.5 -36.5q58 0 91.5 36.5t33.5 98.5v293q42 0 71.5 19t29.5 66v24h46v-24q0 -66 -39 -99q-22 -17 -52 -25v-251q0 -88 -49 -138.5t-132 -50.5q-82 0 -131 50.5t-49 138.5v290z" />
    <glyph glyph-name="uni1EF0" unicode="&#x1ef0;" horiz-adv-x="542" 
d="M272 46q41 0 73.5 18.5t51 51t18.5 72.5v462q43 0 72 19t29 66v25h47v-25q0 -66 -40 -98q-21 -18 -51 -26v-423q0 -58 -25 -102.5t-70.5 -69.5t-104.5 -25q-60 0 -105.5 25t-71 69.5t-25.5 102.5v462h57v-462q0 -40 19 -72.5t51.5 -51t74.5 -18.5zM272 -152q-20 0 -33 13
t-13 32q0 20 13 33t33 13q21 0 33.5 -13t12.5 -33q0 -19 -12.5 -32t-33.5 -13z" />
    <glyph glyph-name="uni1EF1" unicode="&#x1ef1;" horiz-adv-x="487" 
d="M63 470h56v-293q0 -62 33.5 -98.5t90.5 -36.5q58 0 91.5 36.5t33.5 98.5v293q42 0 71.5 19t29.5 66v24h46v-24q0 -66 -39 -99q-22 -17 -52 -25v-251q0 -88 -49 -138.5t-132 -50.5q-82 0 -131 50.5t-49 138.5v290zM244 -152q-20 0 -33 13t-13 32q0 20 13 33t33 13
q21 0 33.5 -13t12.5 -33q0 -19 -12.5 -32t-33.5 -13z" />
    <glyph glyph-name="Ygrave" unicode="&#x1ef2;" horiz-adv-x="492" 
d="M296 716h-51l-86 154h62zM232 0l54 194q-71 3 -124 31q-59 31 -90.5 90.5t-31.5 144.5q0 40 6.5 84.5t22.5 105.5h57q-17 -63 -23.5 -107t-6.5 -83q0 -103 55 -158q53 -53 150 -55l112 403h58l-178 -650h-61z" />
    <glyph glyph-name="ygrave" unicode="&#x1ef3;" horiz-adv-x="479" 
d="M294 536h-51l-86 154h62zM46 252q0 51 7.5 105.5t22.5 112.5h57q-17 -69 -24 -119.5t-7 -98.5q0 -97 51 -150q48 -49 125 -53l119 421h57l-174 -620h-59l42 148q-56 5 -100 29q-56 30 -86.5 87t-30.5 138z" />
    <glyph glyph-name="uni1EF4" unicode="&#x1ef4;" horiz-adv-x="492" 
d="M232 0l54 194q-71 3 -124 31q-59 31 -90.5 90.5t-31.5 144.5q0 40 6.5 84.5t22.5 105.5h57q-17 -63 -23.5 -107t-6.5 -83q0 -103 55 -158q53 -53 150 -55l112 403h58l-178 -650h-61zM246 -152q-20 0 -33 13t-13 32q0 20 13 33t33 13q21 0 33.5 -13t12.5 -33
q0 -19 -12.5 -32t-33.5 -13z" />
    <glyph glyph-name="uni1EF5" unicode="&#x1ef5;" horiz-adv-x="479" 
d="M46 252q0 51 7.5 105.5t22.5 112.5h57q-17 -69 -24 -119.5t-7 -98.5q0 -97 51 -150q48 -49 125 -53l119 421h57l-174 -620h-59l42 148q-56 5 -100 29q-56 30 -86.5 87t-30.5 138zM409 -105q-21 0 -33.5 13t-12.5 33q0 19 12.5 32t33.5 13q20 0 33 -13t13 -32
q0 -20 -13 -33t-33 -13z" />
    <glyph glyph-name="uni1EF6" unicode="&#x1ef6;" horiz-adv-x="492" 
d="M209 863h35q43 0 68.5 -21t25.5 -56q0 -21 -10.5 -39.5t-32 -35.5t-53.5 -31l-33 20q42 20 61 40.5t19 41.5q0 18 -12.5 28t-34.5 10h-33v43zM232 0l54 194q-71 3 -124 31q-59 31 -90.5 90.5t-31.5 144.5q0 40 6.5 84.5t22.5 105.5h57q-17 -63 -23.5 -107t-6.5 -83
q0 -103 55 -158q53 -53 150 -55l112 403h58l-178 -650h-61z" />
    <glyph glyph-name="uni1EF7" unicode="&#x1ef7;" horiz-adv-x="479" 
d="M215 684h35q42 0 67.5 -21t25.5 -56q0 -21 -10.5 -39.5t-31.5 -35.5t-53 -31l-33 20q41 19 60 39.5t19 42.5q0 18 -12 27.5t-35 9.5h-32v44zM46 252q0 51 7.5 105.5t22.5 112.5h57q-17 -69 -24 -119.5t-7 -98.5q0 -97 51 -150q48 -49 125 -53l119 421h57l-174 -620h-59
l42 148q-56 5 -100 29q-56 30 -86.5 87t-30.5 138z" />
    <glyph glyph-name="uni1EF8" unicode="&#x1ef8;" horiz-adv-x="492" 
d="M103 716v70q0 42 19.5 64.5t53.5 22.5q25 0 41.5 -11.5t29 -28.5t22 -34t20 -28.5t23.5 -11.5q15 0 22.5 10.5t7.5 31.5v70h46v-70q0 -41 -19.5 -64t-53.5 -23q-25 0 -41.5 11.5t-28.5 28.5t-22 34t-20 28.5t-24 11.5q-30 0 -30 -42v-70h-46zM232 0l54 194q-71 3 -124 31
q-59 31 -90.5 90.5t-31.5 144.5q0 40 6.5 84.5t22.5 105.5h57q-17 -63 -23.5 -107t-6.5 -83q0 -103 55 -158q53 -53 150 -55l112 403h58l-178 -650h-61z" />
    <glyph glyph-name="uni1EF9" unicode="&#x1ef9;" horiz-adv-x="479" 
d="M123 535v70q0 42 19.5 64.5t53.5 22.5q24 0 41 -11.5t29.5 -28.5t22 -34t19.5 -28.5t24 -11.5q15 0 22.5 11t7.5 31v70h45v-70q0 -41 -19 -64t-54 -23q-24 0 -40.5 11.5t-28.5 28.5t-22.5 34t-20.5 28.5t-23 11.5q-30 0 -30 -42v-70h-46zM46 252q0 51 7.5 105.5
t22.5 112.5h57q-17 -69 -24 -119.5t-7 -98.5q0 -97 51 -150q48 -49 125 -53l119 421h57l-174 -620h-59l42 148q-56 5 -100 29q-56 30 -86.5 87t-30.5 138z" />
    <glyph glyph-name="endash" unicode="&#x2013;" horiz-adv-x="516" 
d="M38 273h440v-52h-440v52z" />
    <glyph glyph-name="emdash" unicode="&#x2014;" horiz-adv-x="1016" 
d="M38 273h940v-52h-940v52z" />
    <glyph glyph-name="quoteleft" unicode="&#x2018;" horiz-adv-x="162" 
d="M84 650h41q-17 -44 -27 -76q-4 -15 -7 -29q11 -2 20 -10q11 -11 11 -28q0 -18 -11 -29t-29 -11t-29.5 11.5t-11.5 30.5t12 56.5t31 84.5z" />
    <glyph glyph-name="quoteright" unicode="&#x2019;" horiz-adv-x="162" 
d="M78 475h-40q17 43 26 76q5 15 8 28q-12 2 -20 10q-11 12 -11 29t11 28.5t29 11.5t29 -12t11 -30q0 -19 -11.5 -56.5t-31.5 -84.5z" />
    <glyph glyph-name="quotesinglbase" unicode="&#x201a;" horiz-adv-x="166" 
d="M78 -111h-40q17 43 26 76q5 15 8 28q-12 3 -20 11q-11 11 -11 28t11 28.5t29 11.5t29 -12t11 -30q0 -19 -11.5 -56.5t-31.5 -84.5z" />
    <glyph glyph-name="quotedblleft" unicode="&#x201c;" horiz-adv-x="317" 
d="M84 650h41q-17 -44 -27 -76q-4 -15 -7 -29q11 -2 20 -10q11 -11 11 -28q0 -18 -11 -29t-29 -11t-29.5 11.5t-11.5 30.5t12 56.5t31 84.5zM238 650h41q-17 -44 -27 -76q-4 -15 -7 -29q12 -2 20 -10q11 -11 11 -28q0 -18 -11 -29t-29 -11t-29 11.5t-11 30.5t11.5 56.5
t30.5 84.5z" />
    <glyph glyph-name="quotedblright" unicode="&#x201d;" horiz-adv-x="317" 
d="M78 475h-40q17 43 26 76q5 15 8 28q-12 2 -20 10q-11 12 -11 29t11 28.5t29 11.5t29 -12t11 -30q0 -19 -11.5 -56.5t-31.5 -84.5zM232 475h-40q17 43 26 76q5 15 8 28q-12 2 -20 10q-11 12 -11 29t11.5 28.5t28.5 11.5q18 0 29 -12t11 -30q0 -19 -11.5 -56.5t-31.5 -84.5
z" />
    <glyph glyph-name="quotedblbase" unicode="&#x201e;" horiz-adv-x="320" 
d="M78 -111h-40q17 43 26 76q5 15 8 28q-12 3 -20 11q-11 11 -11 28t11 28.5t29 11.5t29 -12t11 -30q0 -19 -11.5 -56.5t-31.5 -84.5zM232 -111h-40q17 43 26 76q5 15 8 28q-12 3 -20 11q-11 11 -11 28t11.5 28.5t28.5 11.5q18 0 29 -12t11 -30q0 -19 -11.5 -56.5
t-31.5 -84.5z" />
    <glyph glyph-name="dagger" unicode="&#x2020;" horiz-adv-x="458" 
d="M258 -150h-58l3 569l-182 -3v54l182 -3l-3 183h58l-2 -183l181 3v-54l-181 3z" />
    <glyph glyph-name="daggerdbl" unicode="&#x2021;" horiz-adv-x="458" 
d="M258 -150h-58l3 184l-182 -2v54l182 -3v336l-182 -3v54l182 -3l-3 183h58l-2 -183l181 3v-54l-181 3v-336l181 3v-54l-181 2z" />
    <glyph glyph-name="bullet" unicode="&#x2022;" horiz-adv-x="206" 
d="M103 359q27 0 44.5 -17t17.5 -43q0 -25 -17.5 -43t-44.5 -18q-26 0 -43.5 17.5t-17.5 43.5q0 25 17.5 42.5t43.5 17.5z" />
    <glyph glyph-name="ellipsis" unicode="&#x2026;" horiz-adv-x="561" 
d="M85 -8q-17 0 -28.5 11.5t-11.5 28.5t11.5 28.5t28.5 11.5q18 0 29.5 -11.5t11.5 -28.5t-11.5 -28.5t-29.5 -11.5zM280 -8q-17 0 -28.5 11.5t-11.5 28.5t11.5 28.5t28.5 11.5q18 0 29 -11.5t11 -28.5t-11 -28.5t-29 -11.5zM476 -8q-17 0 -28.5 11.5t-11.5 28.5t11.5 28.5
t28.5 11.5q18 0 29 -11.5t11 -28.5t-11 -28.5t-29 -11.5z" />
    <glyph glyph-name="perthousand" unicode="&#x2030;" horiz-adv-x="1125" 
d="M184 363q-41 0 -75 20t-54 53.5t-20 74.5t20 74.5t54 53.5t75 20t74.5 -20t54 -53.5t20.5 -74.5t-20.5 -74.5t-54 -53.5t-74.5 -20zM177 0l350 650h61l-350 -650h-61zM184 612q-27 0 -50 -13.5t-36.5 -36.5t-13.5 -51q0 -27 13.5 -50t36.5 -37t50 -14q28 0 50 14t35.5 37
t13.5 50q0 28 -13.5 51t-35.5 36.5t-50 13.5zM941 -9q-41 0 -75 20.5t-54 53.5t-20 74t20 74.5t54 53.5t75 20t74.5 -20t54 -53.5t20.5 -74.5t-20.5 -74t-54 -53.5t-74.5 -20.5zM581 -9q-42 0 -75.5 20.5t-53.5 53.5t-20 74t20 74.5t53.5 53.5t75.5 20q41 0 74.5 -20
t54 -53.5t20.5 -74.5t-20.5 -74t-54 -53.5t-74.5 -20.5zM941 240q-27 0 -50 -13.5t-36.5 -36.5t-13.5 -51q0 -27 13.5 -50.5t36.5 -37t50 -13.5t49.5 13.5t36 37t13.5 50.5q0 28 -13.5 51t-36 36.5t-49.5 13.5zM581 240q-27 0 -50 -13.5t-36.5 -36.5t-13.5 -51
q0 -27 13.5 -50.5t36.5 -37t50 -13.5t49.5 13.5t36 37t13.5 50.5q0 28 -13.5 51t-36 36.5t-49.5 13.5z" />
    <glyph glyph-name="guilsinglleft" unicode="&#x2039;" horiz-adv-x="247" 
d="M155 49l-130 196l130 196h60l-128 -194l130 -198h-62z" />
    <glyph glyph-name="guilsinglright" unicode="&#x203a;" horiz-adv-x="247" 
d="M32 49l127 194l-129 198h62l130 -196l-130 -196h-60z" />
    <glyph glyph-name="fraction" unicode="&#x2044;" horiz-adv-x="259" 
d="M-75 0l350 650h60l-350 -650h-60z" />
    <glyph glyph-name="uni2070" unicode="&#x2070;" horiz-adv-x="445" 
d="M222 263q-56 0 -101.5 26t-72 70.5t-26.5 99.5t26.5 99.5t72.5 70.5t101 26q57 0 102 -26t72 -70.5t27 -99.5t-26.5 -99.5t-72 -70.5t-102.5 -26zM222 314q41 0 74 19.5t52.5 52.5t19.5 73t-19.5 72.5t-53 52.5t-73.5 20t-73 -19.5t-52.5 -53t-19.5 -72.5t19.5 -72
t53 -53t72.5 -20z" />
    <glyph glyph-name="uni2074" unicode="&#x2074;" horiz-adv-x="331" 
d="M282 268h-52v44q0 32 -13.5 49.5t-35 27t-46 18t-46 22t-35.5 39.5t-14 70v112h53v-112q0 -34 13 -52t34 -27.5t44 -17.5t44 -21q1 -1 2 -1v137h52v-288z" />
    <glyph glyph-name="uni2075" unicode="&#x2075;" horiz-adv-x="329" 
d="M171 263q-40 0 -71.5 17t-49.5 46.5t-18 67.5h52q0 -34 24 -58t63 -24q34 0 56 21.5t22 54.5q0 29 -21 49t-59 26l-119 18l35 169h179v-50h-139l-16 -78l68 -11q61 -9 93.5 -41.5t32.5 -82.5q0 -35 -17.5 -63t-47 -44.5t-67.5 -16.5z" />
    <glyph glyph-name="uni2076" unicode="&#x2076;" horiz-adv-x="335" 
d="M170 263q-40 0 -72.5 18t-51.5 49t-19 69q0 32 13 59t31.5 50t38.5 45.5t34.5 46t17.5 50.5h53q-3 -28 -14.5 -50t-27.5 -41t-33 -38q19 5 38 5q13 0 34.5 -4t46.5 -21t40 -43.5t15 -58.5q0 -38 -19.5 -69t-52 -49t-72.5 -18zM170 312q25 0 46 11.5t33 31.5t12 44
t-12 43.5t-33 31.5t-46 12q-24 0 -45 -12t-33.5 -32t-12.5 -43q0 -24 12 -44t33 -31.5t46 -11.5z" />
    <glyph glyph-name="uni2077" unicode="&#x2077;" horiz-adv-x="294" 
d="M160 268h-54q4 54 11.5 100t20.5 89t33 88q11 26 25 55h-176v50h252q-28 -58 -48 -105t-33 -89.5t-20 -87.5t-11 -100z" />
    <glyph glyph-name="uni2078" unicode="&#x2078;" horiz-adv-x="330" 
d="M164 263q-40 0 -72.5 16t-51 44t-18.5 62t18 61t51 43l14 6q-8 5 -14 10q-28 26 -28 62q0 38 28 63t73 25q46 0 74.5 -25t28.5 -63q0 -36 -28 -62l-14 -10q7 -2 14 -6q32 -16 50.5 -42.5t18.5 -61.5q0 -33 -19 -61t-51.5 -44.5t-73.5 -16.5zM164 614q-24 0 -39 -14
t-15 -35q0 -20 15 -35t39 -15q25 0 40.5 15t15.5 35q0 21 -15.5 35t-40.5 14zM164 312q39 0 64.5 22t25.5 54q0 34 -25.5 56t-64.5 22q-38 0 -63 -22t-25 -56q0 -32 25.5 -54t62.5 -22z" />
    <glyph glyph-name="uni2079" unicode="&#x2079;" horiz-adv-x="335" 
d="M162 655q40 0 72.5 -18t51.5 -48.5t19 -69.5q0 -32 -13 -59t-32 -50t-38.5 -45.5t-34 -46t-17.5 -50.5h-54q4 29 15.5 50.5t28 41t32.5 38.5q-21 -6 -40 -6q-12 0 -33.5 4t-46 21t-39.5 43.5t-15 58.5q0 39 19.5 69.5t52 48.5t72.5 18zM162 606q-25 0 -46 -11.5
t-33.5 -31t-12.5 -44.5q0 -23 12.5 -43t33 -32t46.5 -12q24 0 44.5 12t33.5 32t13 43q0 25 -12.5 44.5t-32.5 31t-46 11.5z" />
    <glyph glyph-name="uni2080" unicode="&#x2080;" horiz-adv-x="445" 
d="M222 -4q-56 0 -101.5 26t-72 70.5t-26.5 99.5t26.5 99.5t72.5 70.5t101 26q57 0 102 -26t72 -70.5t27 -99.5t-26.5 -99.5t-72 -70.5t-102.5 -26zM222 47q41 0 74 19.5t52.5 52.5t19.5 73t-19.5 72.5t-53 52.5t-73.5 20t-73 -19.5t-52.5 -53t-19.5 -72.5t19.5 -72t53 -53
t72.5 -20z" />
    <glyph glyph-name="uni2081" unicode="&#x2081;" horiz-adv-x="217" 
d="M10 335q42 6 80.5 20t65.5 35v-390h-52v308l-16 -6q-36 -13 -78 -17v50z" />
    <glyph glyph-name="uni2082" unicode="&#x2082;" horiz-adv-x="321" 
d="M160 387q35 0 63 -15.5t44.5 -41.5t16.5 -59q0 -28 -11 -52t-39 -56l-100 -113h157v-50h-266l162 182q27 30 36.5 49t9.5 39q0 29 -21.5 49.5t-51.5 20.5q-31 0 -52.5 -20.5t-21.5 -49.5q0 -35 28 -61l-31 -35q-48 41 -48 97q0 33 16.5 59t44.5 41.5t64 15.5z" />
    <glyph glyph-name="uni2083" unicode="&#x2083;" horiz-adv-x="326" 
d="M164 -5q-40 0 -72 18t-51 49.5t-19 71.5h52q0 -26 12 -46.5t32 -32t46 -11.5q38 0 63 23.5t25 57.5q0 21 -11.5 38t-31 26.5t-45.5 9.5h-18v50h18q22 0 42 -4q14 19 15 41q0 22 -17.5 37t-43.5 15q-25 0 -42.5 -16t-17.5 -39h-52q0 44 31.5 74t80.5 30q48 0 80.5 -28
t32.5 -71q0 -22 -11 -43q-6 -10 -13 -19q23 -15 37 -37q18 -28 18 -64q0 -37 -18.5 -66.5t-50 -46.5t-71.5 -17z" />
    <glyph glyph-name="uni2084" unicode="&#x2084;" horiz-adv-x="331" 
d="M282 0h-52v44q0 32 -13.5 49.5t-35 27t-46 18t-46 22t-35.5 39.5t-14 70v112h53v-112q0 -33 13 -51.5t34 -28t44 -17.5t44 -21q1 -1 2 -1v137h52v-288z" />
    <glyph glyph-name="uni2085" unicode="&#x2085;" horiz-adv-x="329" 
d="M171 -5q-40 0 -71.5 17t-49.5 46.5t-18 67.5h52q0 -34 24 -58t63 -24q34 0 56 21.5t22 54.5q0 29 -21 49t-59 26l-119 18l35 169h179v-50h-139l-16 -78l68 -11q61 -9 93.5 -41.5t32.5 -82.5q0 -35 -17.5 -63t-47 -44.5t-67.5 -16.5z" />
    <glyph glyph-name="uni2086" unicode="&#x2086;" horiz-adv-x="335" 
d="M170 -5q-40 0 -72.5 18t-51.5 49t-19 69q0 32 13 59t31.5 50t38.5 45.5t34.5 46t17.5 50.5h53q-3 -28 -14.5 -50t-27.5 -41t-33 -38q19 5 38 5q13 0 34.5 -4t46.5 -21t40 -43.5t15 -58.5q0 -38 -19.5 -69t-52 -49t-72.5 -18zM170 44q25 0 46 11.5t33 31.5t12 44t-12 43.5
t-33 31.5t-46 12q-24 0 -45 -12t-33.5 -32t-12.5 -43q0 -24 12 -44t33 -31.5t46 -11.5z" />
    <glyph glyph-name="uni2087" unicode="&#x2087;" horiz-adv-x="294" 
d="M160 0h-54q4 54 11.5 100t20.5 89t33 88q11 26 25 55h-176v50h252q-28 -58 -48 -105t-33 -89.5t-20 -87.5t-11 -100z" />
    <glyph glyph-name="uni2088" unicode="&#x2088;" horiz-adv-x="330" 
d="M164 -5q-40 0 -72.5 16t-51 44t-18.5 62t18 61t51 43l14 6q-8 5 -14 10q-28 26 -28 62q0 38 28 63t73 25q46 0 74.5 -25t28.5 -63q0 -36 -28 -62l-14 -10q7 -2 14 -6q32 -16 50.5 -42.5t18.5 -61.5q0 -33 -19 -61t-51.5 -44.5t-73.5 -16.5zM164 346q-24 0 -39 -14
t-15 -35q0 -20 15 -35t39 -15q25 0 40.5 15t15.5 35q0 21 -15.5 35t-40.5 14zM164 44q39 0 64.5 22t25.5 54q0 34 -25.5 56t-64.5 22q-38 0 -63 -22t-25 -56q0 -32 25.5 -54t62.5 -22z" />
    <glyph glyph-name="uni2089" unicode="&#x2089;" horiz-adv-x="335" 
d="M166 387q40 0 72 -18t51.5 -48.5t19.5 -69.5q0 -32 -13 -59t-32 -50t-39 -45.5t-34 -46t-17 -50.5h-54q3 29 14.5 50.5t28 41t32.5 38.5q-20 -6 -40 -6q-11 0 -32.5 4t-46.5 21t-39.5 43.5t-14.5 58.5q0 39 19 69.5t51.5 48.5t73.5 18zM166 338q-26 0 -46.5 -11.5
t-33 -31t-12.5 -44.5q0 -23 12.5 -43t33 -32t46.5 -12q24 0 44.5 12t33 32t12.5 43q0 25 -12 44.5t-32.5 31t-45.5 11.5z" />
    <glyph glyph-name="Euro" unicode="&#x20ac;" horiz-adv-x="498" 
d="M391 378h-240q-5 -26 -5 -53t5 -53h240v-49h-226q0 -2 1 -3q20 -49 56.5 -86.5t84.5 -58.5t103 -21h54v-54h-54q-67 0 -125.5 25t-103 70t-69.5 104q-5 12 -9 24h-93v49h82q-5 26 -5 53t4 53h-81v49h93q4 13 9 25q25 58 69.5 103t103 70t125.5 25h54v-53h-54
q-55 0 -103 -21.5t-84.5 -59t-56.5 -86.5q-1 -1 -1 -3h226v-49z" />
    <glyph glyph-name="uni20B9" unicode="&#x20b9;" horiz-adv-x="437" 
d="M421 421h-93q-4 -45 -27 -82q-28 -46 -80 -71q-39 -19 -89 -24l236 -244h-75l-236 242v50h29q91 0 139 41q39 34 46 88h-214v50h213q-8 52 -46 86q-48 43 -138 43h-29v50h364v-50h-174q23 -15 40 -35q34 -41 41 -94h93v-50z" />
    <glyph glyph-name="uni2116" unicode="&#x2116;" horiz-adv-x="881" 
d="M713 387q-37 0 -68 18t-49.5 48.5t-18.5 67.5t18.5 67.5t49.5 48.5t68 18q38 0 68.5 -18t49 -48.5t18.5 -67.5t-18.5 -67.5t-49 -48.5t-68.5 -18zM79 0v650h53q55 -134 134 -248q72 -105 170 -198v446h57v-650h-57v130q-66 60 -121 122q-60 68 -107 139q-40 61 -72 126
v-517h-57zM713 433q36 0 61.5 25.5t25.5 62.5q0 39 -25.5 63.5t-61.5 24.5q-23 0 -43 -11.5t-32 -31t-12 -45.5q0 -25 12 -45t32 -31.5t43 -11.5zM587 247v50h251v-50h-251z" />
    <glyph glyph-name="trademark" unicode="&#x2122;" horiz-adv-x="762" 
d="M262 607h-98v-339h-49v339h-99v43h246v-43zM318 650h27q71 0 121 -36q29 -22 43 -51q15 29 43 51q49 36 121 36h27v-382h-46v336q-56 -1 -88 -33q-33 -34 -33 -91v-85h-47v85q0 57 -34 91q-32 32 -88 33v-336h-46v382z" />
    <glyph glyph-name="estimated" unicode="&#x212e;" horiz-adv-x="728" 
d="M670 257h-496q-4 0 -4 -3v-150q0 -11 7 -18q36 -36 84.5 -58t103.5 -22q60 0 110.5 24.5t86.5 65.5h44q-41 -48 -104.5 -77.5t-137.5 -29.5q-63 0 -118.5 21.5t-97.5 59t-66 87.5t-24 107t24 107.5t66 88.5t97.5 59.5t118.5 21.5t118.5 -21.5t97.5 -59.5t66 -88.5
t24 -107.5v-7zM558 276v151q0 11 -8 19q-35 36 -82.5 57t-102.5 21t-102.5 -22t-84.5 -59q-8 -8 -8 -19v-148q0 -4 4 -4h381q3 0 3 4z" />
    <glyph glyph-name="uni2150" unicode="&#x2150;" horiz-adv-x="727" 
d="M10 603q42 6 80.5 20t65.5 35v-390h-52v308l-16 -6q-36 -13 -78 -17v50zM116 0l351 650h60l-351 -650h-60zM592 0h-53q3 54 11 100t21 89t33 88q11 26 25 55h-177v50h253q-29 -58 -49 -105t-32.5 -89.5t-20 -87.5t-11.5 -100z" />
    <glyph glyph-name="uni2151" unicode="&#x2151;" horiz-adv-x="747" 
d="M10 603q42 6 80.5 20t65.5 35v-390h-52v308l-16 -6q-36 -13 -78 -17v50zM116 0l351 650h60l-351 -650h-60zM578 387q40 0 72 -18t51.5 -48.5t19.5 -69.5q0 -32 -13 -59t-32 -50t-39 -45.5t-34 -46t-17 -50.5h-54q3 29 14.5 50.5t28 41t32.5 38.5q-20 -6 -40 -6
q-11 0 -32.5 4t-46.5 21t-39.5 43.5t-14.5 58.5q0 39 19 69.5t51.5 48.5t73.5 18zM578 338q-26 0 -46.5 -11.5t-33 -31t-12.5 -44.5q0 -23 12.5 -43t33 -32t46.5 -12q24 0 44.5 12t33 32t12.5 43q0 25 -12 44.5t-32.5 31t-45.5 11.5z" />
    <glyph glyph-name="onethird" unicode="&#x2153;" horiz-adv-x="722" 
d="M10 603q42 6 80.5 20t65.5 35v-390h-52v308l-16 -6q-36 -13 -78 -17v50zM116 0l351 650h60l-351 -650h-60zM561 -5q-41 0 -72.5 18t-50.5 49.5t-19 71.5h52q0 -26 12 -46.5t32 -32t46 -11.5q38 0 63 23.5t25 57.5q0 21 -11.5 38t-31 26.5t-45.5 9.5h-18v50h18q22 0 41 -4
q15 19 15 41t-17 37t-43 15q-25 0 -42.5 -16t-17.5 -39h-52q0 44 31.5 74t80.5 30q48 0 80.5 -28t32.5 -71q0 -22 -11 -43q-6 -10 -13 -19q23 -15 37 -37q18 -28 18 -64q0 -37 -18.5 -66.5t-50 -46.5t-71.5 -17z" />
    <glyph glyph-name="twothirds" unicode="&#x2154;" horiz-adv-x="837" 
d="M160 655q35 0 63 -15.5t44.5 -41.5t16.5 -59q0 -28 -11 -52t-39 -56l-100 -113h157v-50h-266l162 182q27 30 36.5 49t9.5 39q0 29 -21.5 49.5t-51.5 20.5q-31 0 -52.5 -20.5t-21.5 -49.5q0 -35 28 -61l-31 -35q-48 41 -48 97q0 33 16.5 59t44.5 41.5t64 15.5zM231 0
l350 650h60l-350 -650h-60zM675 -5q-40 0 -72 18t-51 49.5t-19 71.5h53q0 -26 11.5 -46.5t31.5 -32t46 -11.5q39 0 63.5 23.5t24.5 57.5q0 21 -11 38t-30.5 26.5t-46.5 9.5h-18v50h18q23 0 42 -4q15 19 15 41t-17 37t-43 15q-25 0 -42.5 -16t-17.5 -39h-52q0 44 31.5 74
t80.5 30q48 0 80 -28t32 -71q0 -22 -11 -43q-5 -10 -13 -19q23 -15 38 -37q17 -28 17 -64q0 -37 -18 -66.5t-50 -46.5t-72 -17z" />
    <glyph glyph-name="uni2155" unicode="&#x2155;" horiz-adv-x="731" 
d="M10 603q42 6 80.5 20t65.5 35v-390h-52v308l-16 -6q-36 -13 -78 -17v50zM117 0l351 650h60l-351 -650h-60zM573 -5q-40 0 -71.5 17t-49.5 46.5t-18 67.5h52q0 -34 24 -58t63 -24q34 0 56 21.5t22 54.5q0 29 -21 49t-59 26l-119 18l35 169h179v-50h-139l-15 -78l67 -11
q61 -9 93.5 -41.5t32.5 -82.5q0 -35 -17.5 -63t-47 -44.5t-67.5 -16.5z" />
    <glyph glyph-name="uni2156" unicode="&#x2156;" horiz-adv-x="840" 
d="M160 655q35 0 63 -15.5t44.5 -41.5t16.5 -59q0 -28 -11 -52t-39 -56l-100 -113h157v-50h-266l162 182q27 30 36.5 49t9.5 39q0 29 -21.5 49.5t-51.5 20.5q-31 0 -52.5 -20.5t-21.5 -49.5q0 -35 28 -61l-31 -35q-48 41 -48 97q0 33 16.5 59t44.5 41.5t64 15.5zM231 0
l350 650h60l-350 -650h-60zM683 -5q-39 0 -70.5 17t-50 46.5t-18.5 67.5h53q0 -34 23.5 -58t62.5 -24q34 0 56.5 21.5t22.5 54.5q0 29 -21 49t-59 26l-119 18l35 169h179v-50h-139l-16 -78l67 -11q62 -9 94 -41.5t32 -82.5q0 -35 -17 -63t-47 -44.5t-68 -16.5z" />
    <glyph glyph-name="uni2157" unicode="&#x2157;" horiz-adv-x="826" 
d="M164 263q-40 0 -72 18t-51 49.5t-19 71.5h52q0 -26 12 -46.5t32 -32t46 -11.5q38 0 63 23.5t25 57.5q0 21 -11.5 38t-31 26.5t-45.5 9.5h-18v50h18q22 0 42 -4q14 19 15 41q0 22 -17.5 37t-43.5 15q-25 0 -42.5 -16t-17.5 -39h-52q0 44 31.5 74t80.5 30q48 0 80.5 -28
t32.5 -71q0 -22 -11 -43q-6 -10 -13 -19q23 -15 37 -37q18 -28 18 -64q0 -37 -18.5 -66.5t-50 -46.5t-71.5 -17zM213 0l351 650h60l-351 -650h-60zM669 -5q-40 0 -71.5 17t-49.5 46.5t-18 67.5h52q0 -34 24 -58t63 -24q34 0 56 21.5t22 54.5q0 29 -21 49t-59 26l-119 18
l35 169h179v-50h-139l-15 -78l67 -11q61 -9 93.5 -41.5t32.5 -82.5q0 -35 -17.5 -63t-47 -44.5t-67.5 -16.5z" />
    <glyph glyph-name="uni2158" unicode="&#x2158;" horiz-adv-x="846" 
d="M282 268h-52v44q0 32 -13.5 49.5t-35 27t-46 18t-46 22t-35.5 39.5t-14 70v112h53v-112q0 -34 13 -52t34 -27.5t44 -17.5t44 -21q1 -1 2 -1v137h52v-288zM232 0l351 650h60l-351 -650h-60zM688 -5q-40 0 -71.5 17t-49.5 46.5t-18 67.5h52q0 -34 24 -58t63 -24
q34 0 56 21.5t22 54.5q0 29 -21 49t-59 26l-119 18l35 169h179v-50h-139l-15 -78l67 -11q61 -9 93.5 -41.5t32.5 -82.5q0 -35 -17.5 -63t-47 -44.5t-67.5 -16.5z" />
    <glyph glyph-name="uni2159" unicode="&#x2159;" horiz-adv-x="704" 
d="M10 603q42 6 80.5 20t65.5 35v-390h-52v308l-16 -6q-36 -13 -78 -17v50zM117 0l350 650h60l-350 -650h-60zM538 -5q-40 0 -72 18t-51.5 49t-19.5 69q0 32 13 59t32 50t39 45.5t34 46t17 50.5h54q-3 -28 -14.5 -50t-28 -41t-32.5 -38q19 5 38 5q13 0 34.5 -4t46.5 -21
t39.5 -43.5t14.5 -58.5q0 -38 -19 -69t-51.5 -49t-73.5 -18zM538 44q26 0 46.5 11.5t33 31.5t12.5 44t-12.5 43.5t-33 31.5t-46.5 12q-24 0 -44.5 -12t-33 -32t-12.5 -43q0 -24 12 -44t32.5 -31.5t45.5 -11.5z" />
    <glyph glyph-name="uni215A" unicode="&#x215a;" horiz-adv-x="799" 
d="M171 263q-40 0 -71.5 17t-49.5 46.5t-18 67.5h52q0 -34 24 -58t63 -24q34 0 56 21.5t22 54.5q0 29 -21 49t-59 26l-119 18l35 169h179v-50h-139l-16 -78l68 -11q61 -9 93.5 -41.5t32.5 -82.5q0 -35 -17.5 -63t-47 -44.5t-67.5 -16.5zM213 0l350 650h60l-350 -650h-60z
M634 -5q-40 0 -72.5 18t-51.5 49t-19 69q0 32 13 59t31.5 50t38.5 45.5t34.5 46t17.5 50.5h53q-3 -28 -14.5 -50t-27.5 -41t-33 -38q20 5 39 5q13 0 34.5 -4t46 -21t39.5 -43.5t15 -58.5q0 -38 -19.5 -69t-52 -49t-72.5 -18zM634 44q25 0 46 11.5t33 31.5t12 44t-12 43.5
t-32.5 31.5t-46.5 12q-24 0 -45 -12t-33.5 -32t-12.5 -43q0 -24 12 -44t33 -31.5t46 -11.5z" />
    <glyph glyph-name="oneeighth" unicode="&#x215b;" horiz-adv-x="716" 
d="M10 603q42 6 80.5 20t65.5 35v-390h-52v308l-16 -6q-36 -13 -78 -17v50zM116 0l351 650h60l-351 -650h-60zM551 -6q-40 0 -72.5 16.5t-51.5 44t-19 61.5t18.5 61.5t50.5 43.5q7 3 14 5q-7 5 -14 11q-28 25 -28 61q0 38 28.5 63t73.5 25q46 0 74.5 -25t28.5 -63
q0 -36 -29 -61q-6 -6 -14 -10q8 -3 14 -6q33 -16 51.5 -43t18.5 -62q0 -33 -19.5 -61t-51.5 -44.5t-73 -16.5zM551 345q-24 0 -39.5 -14t-15.5 -35q0 -20 15.5 -35t39.5 -15t40 15t16 35q0 21 -15.5 35t-40.5 14zM551 43q39 0 64.5 22t25.5 54q0 34 -25.5 56.5t-64.5 22.5
t-63.5 -22.5t-24.5 -56.5q0 -32 25 -54t63 -22z" />
    <glyph glyph-name="threeeighths" unicode="&#x215c;" horiz-adv-x="814" 
d="M164 263q-40 0 -72 18t-51 49.5t-19 71.5h52q0 -26 12 -46.5t32 -32t46 -11.5q38 0 63 23.5t25 57.5q0 21 -11.5 38t-31 26.5t-45.5 9.5h-18v50h18q22 0 42 -4q14 19 15 41q0 22 -17.5 37t-43.5 15q-25 0 -42.5 -16t-17.5 -39h-52q0 44 31.5 74t80.5 30q48 0 80.5 -28
t32.5 -71q0 -22 -11 -43q-6 -10 -13 -19q23 -15 37 -37q18 -28 18 -64q0 -37 -18.5 -66.5t-50 -46.5t-71.5 -17zM213 0l351 650h60l-351 -650h-60zM648 -5q-40 0 -72.5 16t-51 44t-18.5 62t18 61t50 43l14 6l-14 10q-28 26 -28 62q0 38 28.5 63t73.5 25q46 0 74.5 -25
t28.5 -63q0 -36 -29 -62q-6 -5 -14 -10q8 -2 15 -6q32 -16 50.5 -42.5t18.5 -61.5q0 -33 -19.5 -61t-51.5 -44.5t-73 -16.5zM648 346q-24 0 -39.5 -14t-15.5 -35q0 -20 15.5 -35t39.5 -15q25 0 40.5 15t15.5 35q0 21 -15.5 35t-40.5 14zM648 44q39 0 64.5 22t25.5 54
q0 34 -25.5 56t-64.5 22t-63.5 -22t-24.5 -56q0 -32 25 -54t63 -22z" />
    <glyph glyph-name="fiveeighths" unicode="&#x215d;" horiz-adv-x="813" 
d="M171 263q-40 0 -71.5 17t-49.5 46.5t-18 67.5h52q0 -34 24 -58t63 -24q34 0 56 21.5t22 54.5q0 29 -21 49t-59 26l-119 18l35 169h179v-50h-139l-16 -78l68 -11q61 -9 93.5 -41.5t32.5 -82.5q0 -35 -17.5 -63t-47 -44.5t-67.5 -16.5zM213 0l350 650h60l-350 -650h-60z
M647 -5q-40 0 -72.5 16t-51 44t-18.5 62t18 61t51 43q6 3 14 6q-8 5 -14 10q-29 26 -29 62q0 38 28.5 63t73.5 25q46 0 74.5 -25t28.5 -63q0 -36 -29 -62q-6 -5 -14 -10q8 -2 15 -6q32 -16 50.5 -42.5t18.5 -61.5q0 -33 -19.5 -61t-51.5 -44.5t-73 -16.5zM647 346
q-24 0 -39 -14t-15 -35q0 -20 15 -35t39 -15q25 0 40.5 15t15.5 35q0 21 -15.5 35t-40.5 14zM647 44q39 0 64.5 22t25.5 54q0 34 -25.5 56t-64.5 22t-63.5 -22t-24.5 -56q0 -32 25 -54t63 -22z" />
    <glyph glyph-name="seveneighths" unicode="&#x215e;" horiz-adv-x="727" 
d="M160 268h-54q4 54 11.5 100t20.5 89t33 88q11 26 25 55h-176v50h252q-28 -58 -48 -105t-33 -89.5t-20 -87.5t-11 -100zM128 0l350 650h60l-350 -650h-60zM562 -5q-40 0 -72.5 16t-51 44t-18.5 62t18 61t51 43l14 6q-8 5 -14 10q-28 26 -28 62q0 38 28 63t73 25
q46 0 74.5 -25t28.5 -63q0 -36 -28 -62l-14 -10q7 -2 14 -6q32 -16 50.5 -42.5t18.5 -61.5q0 -33 -19 -61t-51.5 -44.5t-73.5 -16.5zM562 346q-24 0 -39 -14t-15 -35q0 -20 15 -35t39 -15q25 0 40.5 15t15.5 35q0 21 -15.5 35t-40.5 14zM562 44q39 0 64.5 22t25.5 54
q0 34 -25.5 56t-64.5 22q-38 0 -63 -22t-25 -56q0 -32 25.5 -54t62.5 -22z" />
    <glyph glyph-name="arrowleft" unicode="&#x2190;" horiz-adv-x="617" 
d="M187 25l-163 210l163 211h57l-142 -187l481 2v-52l-481 1l142 -185h-57z" />
    <glyph glyph-name="arrowup" unicode="&#x2191;" horiz-adv-x="489" 
d="M34 394l210 163l211 -163v-55l-185 142l2 -481h-55l2 481l-185 -142v55z" />
    <glyph glyph-name="arrowright" unicode="&#x2192;" horiz-adv-x="617" 
d="M430 446l163 -211l-163 -210h-57l142 185l-481 -1v52l481 -2l-142 187h57z" />
    <glyph glyph-name="arrowdown" unicode="&#x2193;" horiz-adv-x="489" 
d="M34 76v55l185 -142l-2 481h55l-2 -481l185 142v-55l-211 -163z" />
    <glyph glyph-name="arrowboth" unicode="&#x2194;" horiz-adv-x="644" 
d="M102 210l142 -185h-57l-163 210l163 211h57l-142 -186l220 1l220 -1l-142 186h57l163 -211l-163 -210h-57l142 185h-440z" />
    <glyph glyph-name="arrowupdn" unicode="&#x2195;" horiz-adv-x="489" 
d="M34 367l210 162l211 -162v-55l-185 141l1 -217l-1 -218l185 143v-56l-211 -163l-210 163v56l185 -142l-1 217l1 217l-185 -141v55z" />
    <glyph glyph-name="uni2196" unicode="&#x2196;" horiz-adv-x="546" 
d="M54 171v299h285l43 -44l-250 2l380 -393l-38 -38l-378 396l2 -268z" />
    <glyph glyph-name="uni2197" unicode="&#x2197;" horiz-adv-x="546" 
d="M492 171l-44 -46l1 268l-378 -396l-37 38l379 393l-250 -2l43 44h286v-299z" />
    <glyph glyph-name="uni2198" unicode="&#x2198;" horiz-adv-x="546" 
d="M492 299v-299h-286l-43 44l250 -2l-379 393l37 37l378 -396l-1 269z" />
    <glyph glyph-name="uni2199" unicode="&#x2199;" horiz-adv-x="546" 
d="M54 299l44 46l-2 -269l378 396l38 -37l-380 -393l250 2l-43 -44h-285v299z" />
    <glyph glyph-name="minus" unicode="&#x2212;" horiz-adv-x="469" 
d="M48 342h373v-46h-373v46z" />
    <glyph glyph-name="uni2215" unicode="&#x2215;" horiz-adv-x="259" 
d="M-75 0l350 650h60l-350 -650h-60z" />
    <glyph glyph-name="approxequal" unicode="&#x2248;" horiz-adv-x="469" 
d="M336 433q45 0 85 20v-47q-19 -9 -40.5 -14.5t-44.5 -5.5q-37 0 -71 10t-66.5 20t-65.5 10q-23 0 -44 -5t-41 -15v47q20 9 41 14.5t44 5.5q37 0 71 -10t66.5 -20t65.5 -10zM336 212q45 0 85 20v-47q-19 -9 -40.5 -14.5t-44.5 -5.5q-37 0 -71 10t-66.5 20t-65.5 10
q-23 0 -44 -5.5t-41 -14.5v47q20 9 41 14.5t44 5.5q37 0 71 -10t66.5 -20t65.5 -10z" />
    <glyph glyph-name="notequal" unicode="&#x2260;" horiz-adv-x="469" 
d="M301 559h49l-40 -107h111v-46h-128l-66 -174h194v-47h-212l-39 -106h-49l40 106h-113v47h130l66 174h-196v46h213z" />
    <glyph glyph-name="lessequal" unicode="&#x2264;" horiz-adv-x="469" 
d="M56 299v61l347 160v-54l-301 -136l301 -130v-54zM56 44h347v-44h-347v44z" />
    <glyph glyph-name="greaterequal" unicode="&#x2265;" horiz-adv-x="469" 
d="M66 146v54l301 135l-301 130v55l347 -154v-60zM66 0v44h347v-44h-347z" />
    <glyph glyph-name="uni2780" unicode="&#x2780;" horiz-adv-x="825" 
d="M412 -42q-77 0 -144.5 28t-118 78.5t-79.5 117t-29 143.5t29 143.5t79.5 117t118 78.5t144.5 28q78 0 145.5 -28t118 -78.5t79 -117t28.5 -143.5t-28.5 -143.5t-79 -117t-118 -78.5t-145.5 -28zM412 640q-65 0 -122.5 -24t-100.5 -67.5t-67.5 -100.5t-24.5 -123
t24.5 -123t67.5 -100.5t100.5 -67.5t122.5 -24q67 0 124 24t100 67.5t67.5 100.5t24.5 123t-24.5 123t-67.5 100.5t-100 67.5t-124 24zM458 524v-390h-52v309q-18 -8 -42 -14.5t-52 -9.5v50q44 7 82 21t64 34z" />
    <glyph glyph-name="uni2781" unicode="&#x2781;" horiz-adv-x="825" 
d="M412 -42q-77 0 -144.5 28t-118 78.5t-79.5 117t-29 143.5t29 143.5t79.5 117t118 78.5t144.5 28q78 0 145.5 -28t118 -78.5t79 -117t28.5 -143.5t-28.5 -143.5t-79 -117t-118 -78.5t-145.5 -28zM412 640q-65 0 -122.5 -24t-100.5 -67.5t-67.5 -100.5t-24.5 -123
t24.5 -123t67.5 -100.5t100.5 -67.5t122.5 -24q67 0 124 24t100 67.5t67.5 100.5t24.5 123t-24.5 123t-67.5 100.5t-100 67.5t-124 24zM544 184v-50h-265l161 182q27 31 37 49.5t10 38.5q0 29 -22 49.5t-52 20.5q-31 0 -52.5 -20.5t-21.5 -49.5q0 -35 28 -61l-31 -35
q-48 41 -48 97q0 33 16.5 59t45 41.5t63.5 15.5t63.5 -15.5t45 -41.5t16.5 -59q0 -28 -11.5 -52t-39.5 -56l-102 -113h159z" />
    <glyph glyph-name="uni2782" unicode="&#x2782;" horiz-adv-x="825" 
d="M412 -42q-77 0 -144.5 28t-118 78.5t-79.5 117t-29 143.5t29 143.5t79.5 117t118 78.5t144.5 28q78 0 145.5 -28t118 -78.5t79 -117t28.5 -143.5t-28.5 -143.5t-79 -117t-118 -78.5t-145.5 -28zM412 640q-65 0 -122.5 -24t-100.5 -67.5t-67.5 -100.5t-24.5 -123
t24.5 -123t67.5 -100.5t100.5 -67.5t122.5 -24q67 0 124 24t100 67.5t67.5 100.5t24.5 123t-24.5 123t-67.5 100.5t-100 67.5t-124 24zM555 259q0 -37 -18.5 -66.5t-50 -46.5t-71.5 -17t-72.5 18t-51 49.5t-18.5 71.5h52q0 -26 12 -46.5t32 -32t46 -11.5q38 0 63 23t25 58
q0 21 -11.5 38t-31.5 26.5t-45 9.5h-18v50h18q11 0 22 -1t18 -4q17 20 17 42t-17.5 37t-43.5 15q-25 0 -42.5 -16t-17.5 -39h-52q0 45 32 74.5t80 29.5t80.5 -28t32.5 -71q0 -16 -6.5 -32.5t-17.5 -29.5q27 -17 41 -43t14 -58z" />
    <glyph glyph-name="uni2783" unicode="&#x2783;" horiz-adv-x="825" 
d="M412 -42q-77 0 -144.5 28t-118 78.5t-79.5 117t-29 143.5t29 143.5t79.5 117t118 78.5t144.5 28q78 0 145.5 -28t118 -78.5t79 -117t28.5 -143.5t-28.5 -143.5t-79 -117t-118 -78.5t-145.5 -28zM412 640q-65 0 -122.5 -24t-100.5 -67.5t-67.5 -100.5t-24.5 -123
t24.5 -123t67.5 -100.5t100.5 -67.5t122.5 -24q67 0 124 24t100 67.5t67.5 100.5t24.5 123t-24.5 123t-67.5 100.5t-100 67.5t-124 24zM518 422v-288h-52v44q0 32 -14 49.5t-35 27t-46 18t-46 22t-35 39.5t-14 70v112h52v-112q0 -28 10 -44.5t25 -26.5t33.5 -16.5t36.5 -14
t33 -20.5v140h52z" />
    <glyph glyph-name="uni2784" unicode="&#x2784;" horiz-adv-x="825" 
d="M412 -42q-77 0 -144.5 28t-118 78.5t-79.5 117t-29 143.5t29 143.5t79.5 117t118 78.5t144.5 28q78 0 145.5 -28t118 -78.5t79 -117t28.5 -143.5t-28.5 -143.5t-79 -117t-118 -78.5t-145.5 -28zM412 640q-65 0 -122.5 -24t-100.5 -67.5t-67.5 -100.5t-24.5 -123
t24.5 -123t67.5 -100.5t100.5 -67.5t122.5 -24q67 0 124 24t100 67.5t67.5 100.5t24.5 123t-24.5 123t-67.5 100.5t-100 67.5t-124 24zM553 254q0 -35 -17.5 -63.5t-47 -44.5t-67.5 -16q-40 0 -71.5 16.5t-49.5 46t-18 68.5h52q0 -34 24 -58.5t63 -24.5q34 0 56 22t22 54
q0 30 -21 49.5t-59 25.5l-119 19l35 169h179v-50h-138l-17 -78l68 -11q61 -9 93.5 -41.5t32.5 -82.5z" />
    <glyph glyph-name="uni2785" unicode="&#x2785;" horiz-adv-x="825" 
d="M412 -42q-77 0 -144.5 28t-118 78.5t-79.5 117t-29 143.5t29 143.5t79.5 117t118 78.5t144.5 28q78 0 145.5 -28t118 -78.5t79 -117t28.5 -143.5t-28.5 -143.5t-79 -117t-118 -78.5t-145.5 -28zM412 640q-65 0 -122.5 -24t-100.5 -67.5t-67.5 -100.5t-24.5 -123
t24.5 -123t67.5 -100.5t100.5 -67.5t122.5 -24q67 0 124 24t100 67.5t67.5 100.5t24.5 123t-24.5 123t-67.5 100.5t-100 67.5t-124 24zM412 129q-40 0 -72.5 18t-51.5 49t-19 69q0 32 12.5 59t31.5 50t39 45.5t34.5 46t17.5 50.5h53q-3 -28 -14.5 -50t-27.5 -41t-33 -38
q19 5 38 5q13 0 34.5 -4t46.5 -21t39.5 -43.5t14.5 -58.5q0 -38 -19 -69t-51.5 -49t-72.5 -18zM412 178q25 0 45.5 11.5t33 31.5t12.5 44t-12.5 43.5t-33 31.5t-45.5 12t-45.5 -12t-33 -32t-12.5 -43q0 -24 12 -44t33 -31.5t46 -11.5z" />
    <glyph glyph-name="uni2786" unicode="&#x2786;" horiz-adv-x="825" 
d="M412 -42q-77 0 -144.5 28t-118 78.5t-79.5 117t-29 143.5t29 143.5t79.5 117t118 78.5t144.5 28q78 0 145.5 -28t118 -78.5t79 -117t28.5 -143.5t-28.5 -143.5t-79 -117t-118 -78.5t-145.5 -28zM412 640q-65 0 -122.5 -24t-100.5 -67.5t-67.5 -100.5t-24.5 -123
t24.5 -123t67.5 -100.5t100.5 -67.5t122.5 -24q67 0 124 24t100 67.5t67.5 100.5t24.5 123t-24.5 123t-67.5 100.5t-100 67.5t-124 24zM541 516q-28 -58 -48 -105t-33 -89.5t-20 -87.5t-11 -100h-54q5 64 14.5 116.5t28 104t47.5 111.5h-176v50h252z" />
    <glyph glyph-name="uni2787" unicode="&#x2787;" horiz-adv-x="825" 
d="M412 -42q-77 0 -144.5 28t-118 78.5t-79.5 117t-29 143.5t29 143.5t79.5 117t118 78.5t144.5 28q78 0 145.5 -28t118 -78.5t79 -117t28.5 -143.5t-28.5 -143.5t-79 -117t-118 -78.5t-145.5 -28zM412 640q-65 0 -122.5 -24t-100.5 -67.5t-67.5 -100.5t-24.5 -123
t24.5 -123t67.5 -100.5t100.5 -67.5t122.5 -24q67 0 124 24t100 67.5t67.5 100.5t24.5 123t-24.5 123t-67.5 100.5t-100 67.5t-124 24zM556 251q0 -33 -19 -61t-51.5 -44.5t-73.5 -16.5q-40 0 -72.5 16t-51 44t-18.5 62q0 37 22.5 67t61.5 43q-20 12 -32 31t-12 41
q0 38 28.5 63t73.5 25q46 0 74.5 -25t28.5 -63q0 -22 -11.5 -41t-31.5 -31q38 -13 61 -42.5t23 -67.5zM412 480q-24 0 -39 -14t-15 -35q0 -20 15 -35t39 -15q25 0 40.5 15t15.5 35q0 21 -15.5 35t-40.5 14zM412 178q39 0 64.5 22t25.5 54q0 34 -25.5 56t-64.5 22
q-38 0 -63 -22t-25 -56q0 -32 25.5 -54t62.5 -22z" />
    <glyph glyph-name="uni2788" unicode="&#x2788;" horiz-adv-x="825" 
d="M412 -42q-77 0 -144.5 28t-118 78.5t-79.5 117t-29 143.5t29 143.5t79.5 117t118 78.5t144.5 28q78 0 145.5 -28t118 -78.5t79 -117t28.5 -143.5t-28.5 -143.5t-79 -117t-118 -78.5t-145.5 -28zM412 640q-65 0 -122.5 -24t-100.5 -67t-67.5 -100.5t-24.5 -123.5
t24.5 -123.5t67.5 -100.5t100.5 -67t122.5 -24q67 0 124 24t100 67.5t67.5 100.5t24.5 123t-24.5 123t-67.5 100.5t-100 67.5t-124 24zM414 521q40 0 72 -18t51.5 -48.5t19.5 -69.5q0 -32 -13 -59t-32 -50t-39 -45.5t-34 -46t-17 -50.5h-54q4 29 15.5 50.5t27.5 41t32 38.5
q-20 -6 -40 -6q-11 0 -32.5 4t-46.5 21t-39.5 43.5t-14.5 58.5q0 39 19 69.5t52 48.5t73 18zM414 472q-26 0 -46.5 -11.5t-33 -31t-12.5 -44.5q0 -23 12.5 -43t33 -32t46.5 -12q24 0 44.5 12t33.5 32t13 43q0 25 -12.5 44.5t-33 31t-45.5 11.5z" />
    <glyph glyph-name="uni278A" unicode="&#x278a;" horiz-adv-x="825" 
d="M412 -42q-77 0 -144.5 28t-118 78.5t-79.5 117t-29 143.5t29 143.5t79.5 117t118 78.5t144.5 28q78 0 145.5 -28t118 -78.5t79 -117t28.5 -143.5t-28.5 -143.5t-79 -117t-118 -78.5t-145.5 -28zM458 524q-26 -20 -64 -34t-82 -21v-50q28 3 52 9.5t42 14.5v-309h52v390z
" />
    <glyph glyph-name="uni278B" unicode="&#x278b;" horiz-adv-x="825" 
d="M412 -42q-77 0 -144.5 28t-118 78.5t-79.5 117t-29 143.5t29 143.5t79.5 117t118 78.5t144.5 28q78 0 145.5 -28t118 -78.5t79 -117t28.5 -143.5t-28.5 -143.5t-79 -117t-118 -78.5t-145.5 -28zM544 184h-159l102 113q28 32 39.5 56t11.5 52q0 33 -16.5 59t-45 41.5
t-63.5 15.5t-63.5 -15.5t-45 -41.5t-16.5 -59q0 -56 48 -97l31 35q-28 26 -28 61q0 29 21.5 49.5t52.5 20.5q30 0 52 -20.5t22 -49.5q0 -20 -10 -38.5t-37 -49.5l-161 -182h265v50z" />
    <glyph glyph-name="uni278C" unicode="&#x278c;" horiz-adv-x="825" 
d="M412 -42q-77 0 -144.5 28t-118 78.5t-79.5 117t-29 143.5t29 143.5t79.5 117t118 78.5t144.5 28q78 0 145.5 -28t118 -78.5t79 -117t28.5 -143.5t-28.5 -143.5t-79 -117t-118 -78.5t-145.5 -28zM555 259q0 32 -14 58t-41 43q11 13 17.5 29.5t6.5 32.5q0 43 -32.5 71
t-80.5 28t-80 -29.5t-32 -74.5h52q0 23 17.5 39t42.5 16q26 0 43.5 -15t17.5 -37t-17 -42q-7 3 -18 4t-22 1h-18v-50h18q25 0 45 -9.5t31.5 -26.5t11.5 -38q0 -35 -25 -58t-63 -23q-26 0 -46 11.5t-32 32t-12 46.5h-52q0 -40 18.5 -71.5t51 -49.5t72.5 -18t71.5 17t50 46.5
t18.5 66.5z" />
    <glyph glyph-name="uni278D" unicode="&#x278d;" horiz-adv-x="825" 
d="M412 -42q-77 0 -144.5 28t-118 78.5t-79.5 117t-29 143.5t29 143.5t79.5 117t118 78.5t144.5 28q78 0 145.5 -28t118 -78.5t79 -117t28.5 -143.5t-28.5 -143.5t-79 -117t-118 -78.5t-145.5 -28zM518 422h-52v-140q-15 13 -33 20.5t-36.5 14t-33.5 16.5t-25 26.5t-10 44.5
v112h-52v-112q0 -44 14 -70t35 -39.5t46 -22t46 -18t35 -27t14 -49.5v-44h52v288z" />
    <glyph glyph-name="uni278E" unicode="&#x278e;" horiz-adv-x="825" 
d="M412 -42q-77 0 -144.5 28t-118 78.5t-79.5 117t-29 143.5t29 143.5t79.5 117t118 78.5t144.5 28q78 0 145.5 -28t118 -78.5t79 -117t28.5 -143.5t-28.5 -143.5t-79 -117t-118 -78.5t-145.5 -28zM553 254q0 50 -32.5 82.5t-93.5 41.5l-68 11l17 78h138v50h-179l-35 -169
l119 -19q38 -6 59 -25.5t21 -49.5q0 -32 -22 -54t-56 -22q-39 0 -63 24.5t-24 58.5h-52q0 -39 18 -68.5t49.5 -46t71.5 -16.5q38 0 67.5 16t47 44.5t17.5 63.5z" />
    <glyph glyph-name="uni278F" unicode="&#x278f;" horiz-adv-x="825" 
d="M412 -42q-77 0 -144.5 28t-118 78.5t-79.5 117t-29 143.5t29 143.5t79.5 117t118 78.5t144.5 28q78 0 145.5 -28t118 -78.5t79 -117t28.5 -143.5t-28.5 -143.5t-79 -117t-118 -78.5t-145.5 -28zM412 129q40 0 72.5 18t51.5 49t19 69q0 32 -14.5 58.5t-39.5 43.5t-46.5 21
t-34.5 4q-19 0 -38 -5q17 19 33 38t27.5 41t14.5 50h-53q-3 -27 -17.5 -50.5t-34.5 -46t-39 -45.5t-31.5 -50t-12.5 -59q0 -38 19 -69t51.5 -49t72.5 -18zM412 178q-25 0 -46 11.5t-33 31.5t-12 44q0 23 12.5 43t33 32t45.5 12t45.5 -12t33 -31.5t12.5 -43.5t-12.5 -44
t-33 -31.5t-45.5 -11.5z" />
    <glyph glyph-name="uni2790" unicode="&#x2790;" horiz-adv-x="825" 
d="M412 -42q-77 0 -144.5 28t-118 78.5t-79.5 117t-29 143.5t29 143.5t79.5 117t118 78.5t144.5 28q78 0 145.5 -28t118 -78.5t79 -117t28.5 -143.5t-28.5 -143.5t-79 -117t-118 -78.5t-145.5 -28zM541 516h-252v-50h176q-29 -60 -47.5 -111.5t-28 -104t-14.5 -116.5h54
q4 55 11 100t20 87.5t33 89.5t48 105z" />
    <glyph glyph-name="uni2791" unicode="&#x2791;" horiz-adv-x="825" 
d="M412 -42q-77 0 -144.5 28t-118 78.5t-79.5 117t-29 143.5t29 143.5t79.5 117t118 78.5t144.5 28q78 0 145.5 -28t118 -78.5t79 -117t28.5 -143.5t-28.5 -143.5t-79 -117t-118 -78.5t-145.5 -28zM556 251q0 38 -23 67.5t-61 42.5q20 12 31.5 31t11.5 41q0 38 -28.5 63
t-74.5 25q-45 0 -73.5 -25t-28.5 -63q0 -22 12 -41t32 -31q-39 -13 -61.5 -43t-22.5 -67q0 -34 18.5 -62t51 -44t72.5 -16q41 0 73.5 16.5t51.5 44.5t19 61zM412 480q25 0 40.5 -14t15.5 -35q0 -20 -15.5 -35t-40.5 -15q-24 0 -39 15t-15 35q0 21 15 35t39 14zM412 178
q-37 0 -62.5 22t-25.5 54q0 34 25 56t63 22q39 0 64.5 -22t25.5 -56q0 -32 -25.5 -54t-64.5 -22z" />
    <glyph glyph-name="uni2792" unicode="&#x2792;" horiz-adv-x="825" 
d="M412 -42q-77 0 -144.5 28t-118 78.5t-79.5 117t-29 143.5t29 143.5t79.5 117t118 78.5t144.5 28q78 0 145.5 -28t118 -78.5t79 -117t28.5 -143.5t-28.5 -143.5t-79 -117t-118 -78.5t-145.5 -28zM414 521q-40 0 -73 -18t-52 -48.5t-19 -69.5q0 -32 14.5 -58.5t39.5 -43.5
t46.5 -21t32.5 -4q20 0 40 6q-16 -19 -32 -38.5t-27.5 -41t-15.5 -50.5h54q3 27 17 50.5t34 46t39 45.5t32 50t13 59q0 39 -19.5 69.5t-51.5 48.5t-72 18zM414 472q25 0 45.5 -11.5t33 -31t12.5 -44.5q0 -23 -13 -43t-33.5 -32t-44.5 -12q-26 0 -46.5 12t-33 32t-12.5 43
q0 25 12.5 44.5t33 31t46.5 11.5z" />
    <glyph glyph-name="uniF6C3" unicode="&#xf6c3;" horiz-adv-x="516" 
d="M217 -218q17 34 26 61q3 8 5 15q-12 2 -21 10q-11 11 -11 28t11.5 28.5t28.5 11.5q18 0 29 -12t11 -31t-9.5 -47.5t-29.5 -63.5h-40z" />
    <glyph glyph-name="A.alt1" 
d="M127 51v-51h-57v454q0 61 26 107.5t72 72t104 25.5q59 0 105 -25.5t71.5 -72t25.5 -107.5v-454h-57v304q-21 -26 -50.5 -44t-62.5 -32.5t-64 -29t-57 -33.5t-41 -46t-15 -68zM127 454v-274q22 26 51.5 44t62 32.5t64 29t57 33.5t40.5 46t15 68v21q0 45 -19 78.5t-51.5 52
t-74.5 18.5q-41 0 -74 -18.5t-52 -52t-19 -78.5z" />
    <glyph glyph-name="A.alt2" 
d="M70 0v454q0 61 26 107.5t72 72t104 25.5q59 0 105 -25.5t71.5 -72t25.5 -107.5v-454h-57v214h-290v-214h-57zM127 454v-186h290v186q0 45 -19 78.5t-51.5 52t-74.5 18.5q-41 0 -74 -18.5t-52 -52t-19 -78.5z" />
    <glyph glyph-name="B.alt1" horiz-adv-x="540" 
d="M78 0v650h184q49 0 84.5 -17.5t55 -48t19.5 -70.5q0 -63 -44 -102q-13 -12 -30 -20q25 -6 47 -17q50 -26 77.5 -69.5t27.5 -99.5q0 -59 -28 -105.5t-78.5 -73.5t-116.5 -27h-198zM135 411h121q52 0 80.5 27.5t28.5 68.5q0 40 -27 65t-76 25h-127v-186zM135 54h141
q49 0 86 20t58 54.5t21 77.5t-21 77.5t-58 54.5t-86 20h-141v-304z" />
    <glyph glyph-name="C.alt1" horiz-adv-x="411" 
d="M374 0h-8q-67 0 -125.5 25t-103 70t-69.5 104t-25 126q0 68 25 126.5t69.5 103.5t103 70t125.5 25h8v-53h-8q-55 0 -103 -21.5t-84.5 -59t-57 -86.5t-20.5 -105t20.5 -105t57 -86.5t84.5 -58.5t103 -21h8v-54z" />
    <glyph glyph-name="E.alt1" horiz-adv-x="452" 
d="M375 357v-53h-239v-250h274v-54h-331v650h331v-53h-274v-240h239z" />
    <glyph glyph-name="F.alt1" horiz-adv-x="441" 
d="M375 350v-54h-239v-296h-57v650h329v-53h-272v-247h239z" />
    <glyph glyph-name="G.alt1" horiz-adv-x="464" 
d="M402 0h-36q-67 0 -125.5 25t-103 70t-69.5 104t-25 126q0 68 25 126.5t69.5 103.5t103 70t125.5 25h30v-53h-30q-55 0 -102.5 -21.5t-84 -59t-57.5 -86.5t-21 -105t21 -105t57.5 -86.5t84.5 -58.5q39 -18 83 -21v315h55v-369z" />
    <glyph glyph-name="H.alt1" horiz-adv-x="571" 
d="M436 0v355q-10 -10 -20 -18q-31 -24 -68.5 -40t-74.5 -31t-68 -34t-50 -48.5t-19 -75.5v-108h-57v650h57v-407q9 10 20 18q31 24 68 40.5t74.5 31.5t68.5 34t50 48t19 75v160h57v-650h-57z" />
    <glyph glyph-name="H.alt2" horiz-adv-x="571" 
d="M493 0h-57v282h-300v-282h-57v650h57v-315h300v315h57v-650z" />
    <glyph glyph-name="I.alt1" horiz-adv-x="214" 
d="M79 567v83h57v-72q-9 -1 -19.5 -3t-20 -4t-17.5 -4zM79 0v504q12 4 28 7t29 4v-515h-57z" />
    <glyph glyph-name="K.alt1" horiz-adv-x="546" 
d="M136 0h-57v650h57v-440q63 28 110 61q60 40 98 93t58 123t26 163h57q-6 -103 -28.5 -181t-65.5 -137q-31 -43 -75 -80l217 -252h-74l-191 219q-33 -21 -70 -40q-29 -15 -62 -30v-149z" />
    <glyph glyph-name="P.alt1" horiz-adv-x="527" 
d="M79 0v650h156q75 0 132 -31t89.5 -85t32.5 -123q0 -74 -31.5 -129t-86 -85.5t-124.5 -30.5q-34 0 -71 9q-21 5 -40 12v-187h-57zM136 244q19 -9 40 -15q35 -9 69 -9q55 0 96.5 23.5t65 66t23.5 101.5q0 54 -24.5 96t-68 66t-102.5 24h-99v-353z" />
    <glyph glyph-name="Q.alt1" horiz-adv-x="754" 
d="M728 0h-347q-71 0 -132.5 25t-107.5 70t-72 105t-26 129t25.5 128.5t71 105t105.5 71t129 25.5q68 0 128 -25.5t105.5 -71t71 -105t25.5 -128.5q0 -75 -32 -139.5t-89 -110.5q-19 -15 -41 -28l186 3v-54zM374 605q-57 0 -106 -21.5t-86.5 -59.5t-59 -88t-21.5 -107
t21.5 -107t59.5 -87.5t87.5 -59t105.5 -21.5q55 0 104.5 21.5t86.5 59t58.5 87.5t21.5 107t-21.5 107t-59 88t-86.5 59.5t-105 21.5z" />
    <glyph glyph-name="R.alt1" horiz-adv-x="531" 
d="M426 0l-290 243v-243h-57v650h166q73 0 127 -27t84 -74.5t30 -108.5q0 -65 -31.5 -113.5t-85.5 -75.5t-125 -27h-5l267 -224h-80zM136 298q19 -9 41 -14q33 -7 66 -7q55 0 96.5 20t64.5 57t23 86q0 45 -22 80.5t-62.5 56t-96.5 20.5h-110v-299z" />
    <glyph glyph-name="S.alt1" horiz-adv-x="355" 
d="M150 460q0 92 47.5 141t130.5 49h5v-53h-5q-56 0 -88.5 -35t-32.5 -101v-272q0 -91 -47.5 -140t-132.5 -49h-5v54h5q57 0 90 35t33 99v272z" />
    <glyph glyph-name="T.alt1" horiz-adv-x="447" 
d="M426 597h-174v-597h-57v597h-174v53h405v-53z" />
    <glyph glyph-name="X.alt1" horiz-adv-x="538" 
d="M269 260q42 0 74.5 16t51 46t18.5 71v257h57v-257q0 -56 -26 -98q-25 -41 -70 -63l6 -2q47 -23 73.5 -66.5t26.5 -103.5v-60h-57v60q0 45 -19.5 77t-54.5 49t-80 17q-44 0 -79 -17t-55 -49t-20 -77v-60h-57v60q0 60 27 103.5t75 66.5l4 2q-44 22 -70 63q-26 42 -26 98
v257h58v-257q0 -41 18.5 -71t51 -46t73.5 -16z" />
    <glyph glyph-name="X.alt2" horiz-adv-x="538" 
d="M269 414q42 0 74.5 16.5t51 46.5t18.5 71v102h57v-102q0 -57 -26 -98q-25 -41 -70 -63q3 -1 6 -3q47 -23 73.5 -66t26.5 -104v-214h-57v214q0 45 -19.5 77t-54.5 49.5t-80 17.5q-44 0 -79 -17.5t-55 -49.5t-20 -77v-214h-57v214q0 61 27 104t75 66q2 2 4 3q-44 22 -70 63
t-26 98v102h58v-102q0 -41 18.5 -71t51.5 -46.5t73 -16.5z" />
    <glyph glyph-name="AE.alt1" horiz-adv-x="767" 
d="M70 0v451q0 60 26 104.5t72 69.5t104 25h453v-53h-274v-240h239v-53h-239v-250h274v-54h-331v214h-267v-214h-57zM127 268h267v329h-122q-41 -1 -74 -19.5t-52 -51t-19 -75.5v-183z" />
    <glyph glyph-name="OE.alt1" horiz-adv-x="822" 
d="M745 357v-53h-239v-250h274v-54h-389q-74 0 -138 24.5t-111 68t-73 103t-26 129.5t26 129t73 103t111 68.5t138 24.5h389v-53h-274v-240h239zM449 54v543h-72q-57 0 -107 -21.5t-87.5 -58.5t-59.5 -86.5t-22 -105.5t22 -105.5t59.5 -86.5t87.5 -58t107 -21h72z" />
    <glyph glyph-name="x.alt1" horiz-adv-x="475" 
d="M58 470h56v-84q0 -54 32.5 -85.5t90.5 -31.5q59 0 91.5 31.5t32.5 85.5v84h56v-83q0 -49 -22 -85.5t-62 -56.5q-1 -1 -2 -1q4 -1 7 -3q41 -20 63.5 -58.5t22.5 -92.5v-90h-56v91q0 59 -34.5 93t-96.5 34q-61 0 -96 -34t-35 -93v-91h-55v90q0 53 22 91.5t64 59.5q3 2 7 3
q-1 0 -2 1q-41 20 -62.5 56.5t-21.5 85.5v83z" />
    <glyph glyph-name="Aacute.alt1" 
d="M245 716l76 154h62l-87 -154h-51zM127 51v-51h-57v454q0 61 26 107.5t72 72t104 25.5q59 0 105 -25.5t71.5 -72t25.5 -107.5v-454h-57v304q-21 -26 -50.5 -44t-62.5 -32.5t-64 -29t-57 -33.5t-41 -46t-15 -68zM127 454v-274q22 26 51.5 44t62 32.5t64 29t57 33.5t40.5 46
t15 68v21q0 45 -19 78.5t-51.5 52t-74.5 18.5q-41 0 -74 -18.5t-52 -52t-19 -78.5z" />
    <glyph glyph-name="Acircumflex.alt1" 
d="M300 870l111 -154h-58l-82 115l-81 -115h-58l110 154h58zM127 51v-51h-57v454q0 61 26 107.5t72 72t104 25.5q59 0 105 -25.5t71.5 -72t25.5 -107.5v-454h-57v304q-21 -26 -50.5 -44t-62.5 -32.5t-64 -29t-57 -33.5t-41 -46t-15 -68zM127 454v-274q22 26 51.5 44t62 32.5
t64 29t57 33.5t40.5 46t15 68v21q0 45 -19 78.5t-51.5 52t-74.5 18.5q-41 0 -74 -18.5t-52 -52t-19 -78.5z" />
    <glyph glyph-name="Adieresis.alt1" 
d="M186 746q-17 0 -28.5 11t-11.5 28q0 18 11.5 29t28.5 11q18 0 29.5 -11t11.5 -29q0 -17 -11.5 -28t-29.5 -11zM357 746q-17 0 -28.5 11t-11.5 28q0 18 11.5 29t28.5 11q18 0 29 -11t11 -29q0 -17 -11 -28t-29 -11zM127 51v-51h-57v454q0 61 26 107.5t72 72t104 25.5
q59 0 105 -25.5t71.5 -72t25.5 -107.5v-454h-57v304q-21 -26 -50.5 -44t-62.5 -32.5t-64 -29t-57 -33.5t-41 -46t-15 -68zM127 454v-274q22 26 51.5 44t62 32.5t64 29t57 33.5t40.5 46t15 68v21q0 45 -19 78.5t-51.5 52t-74.5 18.5q-41 0 -74 -18.5t-52 -52t-19 -78.5z" />
    <glyph glyph-name="Agrave.alt1" 
d="M296 716h-51l-86 154h62zM127 51v-51h-57v454q0 61 26 107.5t72 72t104 25.5q59 0 105 -25.5t71.5 -72t25.5 -107.5v-454h-57v304q-21 -26 -50.5 -44t-62.5 -32.5t-64 -29t-57 -33.5t-41 -46t-15 -68zM127 454v-274q22 26 51.5 44t62 32.5t64 29t57 33.5t40.5 46t15 68
v21q0 45 -19 78.5t-51.5 52t-74.5 18.5q-41 0 -74 -18.5t-52 -52t-19 -78.5z" />
    <glyph glyph-name="Aring.alt1" 
d="M70 0v454q0 80 44 133q32 40 79 58q-8 7 -15 17q-18 26 -18 60q0 46 32 76.5t80 30.5q33 0 58.5 -14t40 -38t14.5 -55q0 -34 -18 -60q-7 -10 -16 -17q47 -18 80 -58q43 -53 43 -133v-454h-57v304q-21 -26 -50.5 -44t-62.5 -32.5t-64 -29t-57 -33.5t-41 -46t-15 -68v-51
h-57zM272 659q31 0 48.5 17.5t17.5 45.5t-17.5 45.5t-48.5 17.5q-29 0 -47 -17.5t-18 -45.5t18 -45.5t47 -17.5zM127 454v-274q22 26 51.5 44t62 32.5t64 29t57 33.5t40.5 46t15 68v21q0 45 -19 78.5t-51.5 52t-74.5 18.5q-41 0 -74 -18.5t-52 -52t-19 -78.5z" />
    <glyph glyph-name="Atilde.alt1" 
d="M130 716v69q0 42 19.5 65t53.5 23q24 0 40.5 -12t29 -28.5t22 -33.5t20 -29t23.5 -12q15 0 22.5 11t7.5 31v70h46v-70q0 -41 -19.5 -64t-53.5 -23q-24 0 -41 11.5t-29.5 28.5t-22 34t-19.5 29t-24 12q-30 0 -30 -43v-69h-45zM127 51v-51h-57v454q0 61 26 107.5t72 72
t104 25.5q59 0 105 -25.5t71.5 -72t25.5 -107.5v-454h-57v304q-21 -26 -50.5 -44t-62.5 -32.5t-64 -29t-57 -33.5t-41 -46t-15 -68zM127 454v-274q22 26 51.5 44t62 32.5t64 29t57 33.5t40.5 46t15 68v21q0 45 -19 78.5t-51.5 52t-74.5 18.5q-41 0 -74 -18.5t-52 -52
t-19 -78.5z" />
    <glyph glyph-name="Abreve.alt1" 
d="M272 758q42 0 66 22t24 64v24h47v-24q0 -64 -37 -97.5t-100 -33.5q-64 0 -100.5 33.5t-36.5 97.5v24h46v-24q0 -42 24 -64t67 -22zM127 51v-51h-57v454q0 61 26 107.5t72 72t104 25.5q59 0 105 -25.5t71.5 -72t25.5 -107.5v-454h-57v304q-21 -26 -50.5 -44t-62.5 -32.5
t-64 -29t-57 -33.5t-41 -46t-15 -68zM127 454v-274q22 26 51.5 44t62 32.5t64 29t57 33.5t40.5 46t15 68v21q0 45 -19 78.5t-51.5 52t-74.5 18.5q-41 0 -74 -18.5t-52 -52t-19 -78.5z" />
    <glyph glyph-name="Amacron.alt1" 
d="M150 808h243v-51h-243v51zM127 51v-51h-57v454q0 61 26 107.5t72 72t104 25.5q59 0 105 -25.5t71.5 -72t25.5 -107.5v-454h-57v304q-21 -26 -50.5 -44t-62.5 -32.5t-64 -29t-57 -33.5t-41 -46t-15 -68zM127 454v-274q22 26 51.5 44t62 32.5t64 29t57 33.5t40.5 46t15 68
v21q0 45 -19 78.5t-51.5 52t-74.5 18.5q-41 0 -74 -18.5t-52 -52t-19 -78.5z" />
    <glyph glyph-name="Aogonek.alt1" 
d="M70 0v454q0 61 26 107.5t72 72t104 25.5q59 0 105 -25.5t71.5 -72t25.5 -107.5v-454q-41 -19 -60 -39.5t-19 -42.5q0 -18 12.5 -28t34.5 -10h32v-43h-35q-42 0 -67.5 21t-25.5 56q0 21 10.5 39.5t31.5 35.5q13 10 29 19v296q-21 -26 -50.5 -44t-62.5 -32.5t-64 -29
t-57 -33.5t-41 -46t-15 -68v-51h-57zM127 454v-274q22 26 51.5 44t62 32.5t64 29t57 33.5t40.5 46t15 68v21q0 45 -19 78.5t-51.5 52t-74.5 18.5q-41 0 -74 -18.5t-52 -52t-19 -78.5z" />
    <glyph glyph-name="Aacute.alt2" 
d="M245 716l76 154h62l-87 -154h-51zM70 0v454q0 61 26 107.5t72 72t104 25.5q59 0 105 -25.5t71.5 -72t25.5 -107.5v-454h-57v214h-290v-214h-57zM127 454v-186h290v186q0 45 -19 78.5t-51.5 52t-74.5 18.5q-41 0 -74 -18.5t-52 -52t-19 -78.5z" />
    <glyph glyph-name="Acircumflex.alt2" 
d="M300 870l111 -154h-58l-82 115l-81 -115h-58l110 154h58zM70 0v454q0 61 26 107.5t72 72t104 25.5q59 0 105 -25.5t71.5 -72t25.5 -107.5v-454h-57v214h-290v-214h-57zM127 454v-186h290v186q0 45 -19 78.5t-51.5 52t-74.5 18.5q-41 0 -74 -18.5t-52 -52t-19 -78.5z" />
    <glyph glyph-name="Adieresis.alt2" 
d="M186 746q-17 0 -28.5 11t-11.5 28q0 18 11.5 29t28.5 11q18 0 29.5 -11t11.5 -29q0 -17 -11.5 -28t-29.5 -11zM357 746q-17 0 -28.5 11t-11.5 28q0 18 11.5 29t28.5 11q18 0 29 -11t11 -29q0 -17 -11 -28t-29 -11zM70 0v454q0 61 26 107.5t72 72t104 25.5q59 0 105 -25.5
t71.5 -72t25.5 -107.5v-454h-57v214h-290v-214h-57zM127 454v-186h290v186q0 45 -19 78.5t-51.5 52t-74.5 18.5q-41 0 -74 -18.5t-52 -52t-19 -78.5z" />
    <glyph glyph-name="Agrave.alt2" 
d="M296 716h-51l-86 154h62zM70 0v454q0 61 26 107.5t72 72t104 25.5q59 0 105 -25.5t71.5 -72t25.5 -107.5v-454h-57v214h-290v-214h-57zM127 454v-186h290v186q0 45 -19 78.5t-51.5 52t-74.5 18.5q-41 0 -74 -18.5t-52 -52t-19 -78.5z" />
    <glyph glyph-name="Aring.alt2" 
d="M70 0v454q0 80 44 133q33 40 80 58q-9 7 -16 17q-18 26 -18 60q0 46 32 76.5t80 30.5q33 0 58.5 -14t40 -38t14.5 -55q0 -34 -18 -60q-7 -10 -15 -17q47 -18 79 -58q43 -53 43 -133v-454h-57v214h-290v-214h-57zM272 659q31 0 48.5 17.5t17.5 45.5t-17.5 45.5t-48.5 17.5
q-29 0 -47 -17.5t-18 -45.5t18 -45.5t47 -17.5zM127 454v-186h290v186q0 45 -19 78.5t-51.5 52t-74.5 18.5q-41 0 -74 -18.5t-52 -52t-19 -78.5z" />
    <glyph glyph-name="Atilde.alt2" 
d="M130 716v69q0 42 19.5 65t53.5 23q24 0 40.5 -12t29 -28.5t22 -33.5t20 -29t23.5 -12q15 0 22.5 11t7.5 31v70h46v-70q0 -41 -19.5 -64t-53.5 -23q-24 0 -41 11.5t-29.5 28.5t-22 34t-19.5 29t-24 12q-30 0 -30 -43v-69h-45zM70 0v454q0 61 26 107.5t72 72t104 25.5
q59 0 105 -25.5t71.5 -72t25.5 -107.5v-454h-57v214h-290v-214h-57zM127 454v-186h290v186q0 45 -19 78.5t-51.5 52t-74.5 18.5q-41 0 -74 -18.5t-52 -52t-19 -78.5z" />
    <glyph glyph-name="Abreve.alt2" 
d="M272 758q42 0 66 22t24 64v24h47v-24q0 -64 -37 -97.5t-100 -33.5q-64 0 -100.5 33.5t-36.5 97.5v24h46v-24q0 -42 24 -64t67 -22zM70 0v454q0 61 26 107.5t72 72t104 25.5q59 0 105 -25.5t71.5 -72t25.5 -107.5v-454h-57v214h-290v-214h-57zM127 454v-186h290v186
q0 45 -19 78.5t-51.5 52t-74.5 18.5q-41 0 -74 -18.5t-52 -52t-19 -78.5z" />
    <glyph glyph-name="Amacron.alt2" 
d="M150 808h243v-51h-243v51zM70 0v454q0 61 26 107.5t72 72t104 25.5q59 0 105 -25.5t71.5 -72t25.5 -107.5v-454h-57v214h-290v-214h-57zM127 454v-186h290v186q0 45 -19 78.5t-51.5 52t-74.5 18.5q-41 0 -74 -18.5t-52 -52t-19 -78.5z" />
    <glyph glyph-name="Aogonek.alt2" 
d="M70 0v454q0 61 26 107.5t72 72t104 25.5q59 0 105 -25.5t71.5 -72t25.5 -107.5v-454q-41 -19 -60 -39.5t-19 -42.5q0 -18 12.5 -28t34.5 -10h32v-43h-35q-42 0 -67.5 21t-25.5 56q0 21 10.5 39.5t31.5 35.5q13 10 29 19v206h-290v-214h-57zM127 454v-186h290v186
q0 45 -19 78.5t-51.5 52t-74.5 18.5q-41 0 -74 -18.5t-52 -52t-19 -78.5z" />
    <glyph glyph-name="Ccedilla.alt1" horiz-adv-x="411" 
d="M43 325q0 68 25 126.5t69.5 103.5t103 70t125.5 25h8v-53h-8q-55 0 -103 -21.5t-84.5 -59t-57 -86.5t-20.5 -105t20.5 -105t57 -86.5t84.5 -58.5t103 -21h8v-54h-8q-14 0 -28 1q-6 1 -11 1v-139h-56l7 149q-63 18 -113 59q-57 45 -89.5 111t-32.5 143z" />
    <glyph glyph-name="Cacute.alt1" horiz-adv-x="411" 
d="M252 716l75 154h62l-86 -154h-51zM374 0h-8q-67 0 -125.5 25t-103 70t-69.5 104t-25 126q0 68 25 126.5t69.5 103.5t103 70t125.5 25h8v-53h-8q-55 0 -103 -21.5t-84.5 -59t-57 -86.5t-20.5 -105t20.5 -105t57 -86.5t84.5 -58.5t103 -21h8v-54z" />
    <glyph glyph-name="Ccaron.alt1" horiz-adv-x="411" 
d="M256 716l-111 154h59l82 -115l81 115h58l-110 -154h-59zM374 0h-8q-67 0 -125.5 25t-103 70t-69.5 104t-25 126q0 68 25 126.5t69.5 103.5t103 70t125.5 25h8v-53h-8q-55 0 -103 -21.5t-84.5 -59t-57 -86.5t-20.5 -105t20.5 -105t57 -86.5t84.5 -58.5t103 -21h8v-54z" />
    <glyph glyph-name="Ccircumflex.alt1" horiz-adv-x="411" 
d="M314 870l111 -154h-59l-82 115l-81 -115h-58l111 154h58zM374 0h-8q-67 0 -125.5 25t-103 70t-69.5 104t-25 126q0 68 25 126.5t69.5 103.5t103 70t125.5 25h8v-53h-8q-55 0 -103 -21.5t-84.5 -59t-57 -86.5t-20.5 -105t20.5 -105t57 -86.5t84.5 -58.5t103 -21h8v-54z
" />
    <glyph glyph-name="Cdotaccent.alt1" horiz-adv-x="411" 
d="M278 746q-20 0 -33 12.5t-13 32.5t13 32.5t33 12.5q21 0 33.5 -12.5t12.5 -32.5t-12.5 -32.5t-33.5 -12.5zM374 0h-8q-67 0 -125.5 25t-103 70t-69.5 104t-25 126q0 68 25 126.5t69.5 103.5t103 70t125.5 25h8v-53h-8q-55 0 -103 -21.5t-84.5 -59t-57 -86.5t-20.5 -105
t20.5 -105t57 -86.5t84.5 -58.5t103 -21h8v-54z" />
    <glyph glyph-name="Eacute.alt1" horiz-adv-x="452" 
d="M215 716l76 154h62l-87 -154h-51zM375 357v-53h-239v-250h274v-54h-331v650h331v-53h-274v-240h239z" />
    <glyph glyph-name="Ecircumflex.alt1" horiz-adv-x="452" 
d="M270 870l111 -154h-58l-82 115l-81 -115h-58l110 154h58zM375 357v-53h-239v-250h274v-54h-331v650h331v-53h-274v-240h239z" />
    <glyph glyph-name="Edieresis.alt1" horiz-adv-x="452" 
d="M156 746q-17 0 -28.5 11t-11.5 28q0 18 11.5 29t28.5 11q18 0 29 -11t11 -29q0 -17 -11 -28t-29 -11zM327 746q-17 0 -28.5 11t-11.5 28q0 18 11.5 29t28.5 11q18 0 29 -11t11 -29q0 -17 -11 -28t-29 -11zM375 357v-53h-239v-250h274v-54h-331v650h331v-53h-274v-240h239
z" />
    <glyph glyph-name="Egrave.alt1" horiz-adv-x="452" 
d="M282 716h-51l-86 154h62zM375 357v-53h-239v-250h274v-54h-331v650h331v-53h-274v-240h239z" />
    <glyph glyph-name="Ebreve.alt1" horiz-adv-x="452" 
d="M242 758q42 0 66 22t24 64v24h47v-24q0 -64 -37 -97.5t-100 -33.5q-64 0 -100.5 33.5t-36.5 97.5v24h46v-24q0 -42 24 -64t67 -22zM375 357v-53h-239v-250h274v-54h-331v650h331v-53h-274v-240h239z" />
    <glyph glyph-name="Ecaron.alt1" horiz-adv-x="452" 
d="M213 716l-111 154h59l81 -115l81 115h58l-110 -154h-58zM375 357v-53h-239v-250h274v-54h-331v650h331v-53h-274v-240h239z" />
    <glyph glyph-name="Edotaccent.alt1" horiz-adv-x="452" 
d="M242 746q-21 0 -33.5 12.5t-12.5 32.5t12.5 32.5t33.5 12.5q20 0 33 -12.5t13 -32.5t-13 -32.5t-33 -12.5zM375 357v-53h-239v-250h274v-54h-331v650h331v-53h-274v-240h239z" />
    <glyph glyph-name="Emacron.alt1" horiz-adv-x="452" 
d="M120 808h243v-51h-243v51zM375 357v-53h-239v-250h274v-54h-331v650h331v-53h-274v-240h239z" />
    </font>
</defs>
</svg>
