<svg width="24" height="24" viewBox="0 0 24 24" fill="none" xmlns="http://www.w3.org/2000/svg">
<path d="M22.656 6.4665L22.578 6.501C20.829 7.2795 19.0125 7.845 17.1495 8.217C17.6758 10.7142 17.6747 13.2937 17.1465 15.7905C19.0095 16.161 20.835 16.722 22.5765 17.4975L22.653 17.532C23.5095 15.8745 24 13.9965 24 12C24 10.0035 23.5095 8.1255 22.656 6.4665ZM8.724 17.0235C9.387 19.134 10.4805 21.1335 11.9985 22.9005C13.5165 21.1335 14.6115 19.134 15.273 17.0235C13.0995 16.7355 10.8975 16.737 8.724 17.0235ZM15.663 8.451C14.457 8.6205 13.239 8.736 12 8.736C10.7595 8.736 9.5415 8.619 8.3355 8.451C7.83 10.794 7.83 13.218 8.3385 15.561C10.7673 15.2235 13.2312 15.2235 15.66 15.561C16.1687 13.2184 16.1698 10.794 15.663 8.451ZM11.9985 1.0995C10.4805 2.8665 9.387 4.866 8.724 6.978C10.8976 7.2645 13.0994 7.2645 15.273 6.978C14.61 4.8675 13.5165 2.8665 11.9985 1.0995ZM13.0335 0C14.7945 2.016 16.0485 4.3155 16.7775 6.744C18.5265 6.402 20.2395 5.8815 21.8745 5.16C19.8945 2.2815 16.6995 0.315 13.0335 0ZM2.124 5.16C3.7605 5.88 5.4735 6.402 7.221 6.744C7.95 4.3155 9.204 2.016 10.965 0C7.299 0.315 4.1055 2.2815 2.124 5.16ZM6.8505 8.2185C4.9875 7.845 3.1725 7.281 1.425 6.5025L1.347 6.468C0.4905 8.1255 0 10.0035 0 12C0 13.9965 0.4905 15.8745 1.347 17.5335L1.425 17.499C3.165 16.722 4.9905 16.161 6.8535 15.792C6.324 13.296 6.324 10.716 6.8505 8.2185ZM7.221 17.2575C5.472 17.598 3.759 18.12 2.124 18.84C4.1055 21.7185 7.299 23.685 10.965 24C9.204 21.984 7.95 19.6845 7.221 17.2575ZM16.7775 17.256C16.05 19.6845 14.7945 21.984 13.0335 24C16.6995 23.685 19.8945 21.7185 21.8745 18.84C20.2395 18.1185 18.5265 17.598 16.7775 17.256Z" fill="white"/>
</svg>
