<svg width="24" height="24" viewBox="0 0 24 24" fill="none" xmlns="http://www.w3.org/2000/svg">
<path fill-rule="evenodd" clip-rule="evenodd" d="M0 12C0 18.6349 5.34981 24 11.9642 24H11.9659C18.6519 24 24 18.6349 24 12V3.03536C24 1.34129 22.6621 0 20.9732 0H11.9642C5.34981 0 0 5.36515 0 12ZM9.74179 7.05922H15.7409H15.7426C17.3651 7.05922 18.7064 8.40051 18.7064 10.0946V12.847C18.7064 14.5411 17.3651 15.8824 15.6711 15.8824H7.34213C6.98934 15.8824 6.70643 15.5995 6.70643 15.2467V10.0946C6.70643 8.40051 8.04772 7.05922 9.74179 7.05922ZM9.17596 13.481H13.5526C13.9054 13.481 14.1167 13.1981 14.1167 12.9169C14.1167 12.6357 13.9054 12.3528 13.5526 12.3528H9.17596C8.89475 12.3528 8.61184 12.6357 8.61184 12.9169C8.61184 13.1981 8.82317 13.481 9.17596 13.481ZM9.17596 10.6587H16.2352C16.5164 10.6587 16.7993 10.3758 16.7993 10.0946C16.7993 9.81337 16.588 9.53046 16.2352 9.53046H9.17596C8.89475 9.53046 8.61184 9.74179 8.61184 10.0946C8.61184 10.3758 8.82317 10.6587 9.17596 10.6587Z" fill="white"/>
</svg>
